<?xml version="1.0" encoding="utf-8" standalone="no"?>
<!DOCTYPE svg PUBLIC "-//W3C//DTD SVG 1.1//EN"
  "http://www.w3.org/Graphics/SVG/1.1/DTD/svg11.dtd">
<!-- Created with matplotlib (https://matplotlib.org/) -->
<svg height="283.347562pt" version="1.1" viewBox="0 0 536.193161 283.347562" width="536.193161pt" xmlns="http://www.w3.org/2000/svg" xmlns:xlink="http://www.w3.org/1999/xlink">
 <defs>
  <style type="text/css">
*{stroke-linecap:butt;stroke-linejoin:round;}
  </style>
 </defs>
 <g id="figure_1">
  <g id="patch_1">
   <path d="M 0 283.347562 
L 536.193161 283.347562 
L 536.193161 0 
L 0 0 
z
" style="fill:#ffffff;"/>
  </g>
  <g id="axes_1">
   <g id="patch_2">
    <path d="M 70.098438 240.48 
L 445.938437 240.48 
L 445.938437 7.2 
L 70.098438 7.2 
z
" style="fill:#ffffff;"/>
   </g>
   <g id="matplotlib.axis_1">
    <g id="xtick_1">
     <g id="line2d_1">
      <path clip-path="url(#pc80513b636)" d="M 105.751244 240.48 
L 105.751244 7.2 
" style="fill:none;stroke:#000000;stroke-dasharray:6.4,1.6,1,1.6;stroke-dashoffset:0;stroke-opacity:0.2;"/>
     </g>
     <g id="line2d_2"/>
     <g id="text_1">
      <!-- 800 -->
      <defs>
       <path d="M 17.671875 38.8125 
Q 12.203125 40.828125 9.5625 44.53125 
Q 6.9375 48.25 6.9375 53.421875 
Q 6.9375 61.234375 12.546875 66.546875 
Q 18.171875 71.875 27.484375 71.875 
Q 36.859375 71.875 42.578125 66.421875 
Q 48.296875 60.984375 48.296875 53.171875 
Q 48.296875 48.1875 45.671875 44.5 
Q 43.0625 40.828125 37.75 38.8125 
Q 44.34375 36.671875 47.78125 31.875 
Q 51.21875 27.09375 51.21875 20.453125 
Q 51.21875 11.28125 44.71875 5.03125 
Q 38.234375 -1.21875 27.640625 -1.21875 
Q 17.046875 -1.21875 10.546875 5.046875 
Q 4.046875 11.328125 4.046875 20.703125 
Q 4.046875 27.6875 7.59375 32.390625 
Q 11.140625 37.109375 17.671875 38.8125 
z
M 15.921875 53.71875 
Q 15.921875 48.640625 19.1875 45.40625 
Q 22.46875 42.1875 27.6875 42.1875 
Q 32.765625 42.1875 36.015625 45.375 
Q 39.265625 48.578125 39.265625 53.21875 
Q 39.265625 58.0625 35.90625 61.359375 
Q 32.5625 64.65625 27.59375 64.65625 
Q 22.5625 64.65625 19.234375 61.421875 
Q 15.921875 58.203125 15.921875 53.71875 
z
M 13.09375 20.65625 
Q 13.09375 16.890625 14.875 13.375 
Q 16.65625 9.859375 20.171875 7.921875 
Q 23.6875 6 27.734375 6 
Q 34.03125 6 38.125 10.046875 
Q 42.234375 14.109375 42.234375 20.359375 
Q 42.234375 26.703125 38.015625 30.859375 
Q 33.796875 35.015625 27.4375 35.015625 
Q 21.234375 35.015625 17.15625 30.90625 
Q 13.09375 26.8125 13.09375 20.65625 
z
" id="ArialMT-56"/>
       <path d="M 4.15625 35.296875 
Q 4.15625 48 6.765625 55.734375 
Q 9.375 63.484375 14.515625 67.671875 
Q 19.671875 71.875 27.484375 71.875 
Q 33.25 71.875 37.59375 69.546875 
Q 41.9375 67.234375 44.765625 62.859375 
Q 47.609375 58.5 49.21875 52.21875 
Q 50.828125 45.953125 50.828125 35.296875 
Q 50.828125 22.703125 48.234375 14.96875 
Q 45.65625 7.234375 40.5 3 
Q 35.359375 -1.21875 27.484375 -1.21875 
Q 17.140625 -1.21875 11.234375 6.203125 
Q 4.15625 15.140625 4.15625 35.296875 
z
M 13.1875 35.296875 
Q 13.1875 17.671875 17.3125 11.828125 
Q 21.4375 6 27.484375 6 
Q 33.546875 6 37.671875 11.859375 
Q 41.796875 17.71875 41.796875 35.296875 
Q 41.796875 52.984375 37.671875 58.78125 
Q 33.546875 64.59375 27.390625 64.59375 
Q 21.34375 64.59375 17.71875 59.46875 
Q 13.1875 52.9375 13.1875 35.296875 
z
" id="ArialMT-48"/>
      </defs>
      <g transform="translate(94.073275 254.000937)scale(0.14 -0.14)">
       <use xlink:href="#ArialMT-56"/>
       <use x="55.615234" xlink:href="#ArialMT-48"/>
       <use x="111.230469" xlink:href="#ArialMT-48"/>
      </g>
     </g>
    </g>
    <g id="xtick_2">
     <g id="line2d_3">
      <path clip-path="url(#pc80513b636)" d="M 158.806015 240.48 
L 158.806015 7.2 
" style="fill:none;stroke:#000000;stroke-dasharray:6.4,1.6,1,1.6;stroke-dashoffset:0;stroke-opacity:0.2;"/>
     </g>
     <g id="line2d_4"/>
     <g id="text_2">
      <!-- 1000 -->
      <defs>
       <path d="M 37.25 0 
L 28.46875 0 
L 28.46875 56 
Q 25.296875 52.984375 20.140625 49.953125 
Q 14.984375 46.921875 10.890625 45.40625 
L 10.890625 53.90625 
Q 18.265625 57.375 23.78125 62.296875 
Q 29.296875 67.234375 31.59375 71.875 
L 37.25 71.875 
z
" id="ArialMT-49"/>
      </defs>
      <g transform="translate(143.23539 254.000937)scale(0.14 -0.14)">
       <use xlink:href="#ArialMT-49"/>
       <use x="55.615234" xlink:href="#ArialMT-48"/>
       <use x="111.230469" xlink:href="#ArialMT-48"/>
       <use x="166.845703" xlink:href="#ArialMT-48"/>
      </g>
     </g>
    </g>
    <g id="xtick_3">
     <g id="line2d_5">
      <path clip-path="url(#pc80513b636)" d="M 211.860786 240.48 
L 211.860786 7.2 
" style="fill:none;stroke:#000000;stroke-dasharray:6.4,1.6,1,1.6;stroke-dashoffset:0;stroke-opacity:0.2;"/>
     </g>
     <g id="line2d_6"/>
     <g id="text_3">
      <!-- 1200 -->
      <defs>
       <path d="M 50.34375 8.453125 
L 50.34375 0 
L 3.03125 0 
Q 2.9375 3.171875 4.046875 6.109375 
Q 5.859375 10.9375 9.828125 15.625 
Q 13.8125 20.3125 21.34375 26.46875 
Q 33.015625 36.03125 37.109375 41.625 
Q 41.21875 47.21875 41.21875 52.203125 
Q 41.21875 57.421875 37.46875 61 
Q 33.734375 64.59375 27.734375 64.59375 
Q 21.390625 64.59375 17.578125 60.78125 
Q 13.765625 56.984375 13.71875 50.25 
L 4.6875 51.171875 
Q 5.609375 61.28125 11.65625 66.578125 
Q 17.71875 71.875 27.9375 71.875 
Q 38.234375 71.875 44.234375 66.15625 
Q 50.25 60.453125 50.25 52 
Q 50.25 47.703125 48.484375 43.546875 
Q 46.734375 39.40625 42.65625 34.8125 
Q 38.578125 30.21875 29.109375 22.21875 
Q 21.1875 15.578125 18.9375 13.203125 
Q 16.703125 10.84375 15.234375 8.453125 
z
" id="ArialMT-50"/>
      </defs>
      <g transform="translate(196.290161 254.000937)scale(0.14 -0.14)">
       <use xlink:href="#ArialMT-49"/>
       <use x="55.615234" xlink:href="#ArialMT-50"/>
       <use x="111.230469" xlink:href="#ArialMT-48"/>
       <use x="166.845703" xlink:href="#ArialMT-48"/>
      </g>
     </g>
    </g>
    <g id="xtick_4">
     <g id="line2d_7">
      <path clip-path="url(#pc80513b636)" d="M 264.915558 240.48 
L 264.915558 7.2 
" style="fill:none;stroke:#000000;stroke-dasharray:6.4,1.6,1,1.6;stroke-dashoffset:0;stroke-opacity:0.2;"/>
     </g>
     <g id="line2d_8"/>
     <g id="text_4">
      <!-- 1400 -->
      <defs>
       <path d="M 32.328125 0 
L 32.328125 17.140625 
L 1.265625 17.140625 
L 1.265625 25.203125 
L 33.9375 71.578125 
L 41.109375 71.578125 
L 41.109375 25.203125 
L 50.78125 25.203125 
L 50.78125 17.140625 
L 41.109375 17.140625 
L 41.109375 0 
z
M 32.328125 25.203125 
L 32.328125 57.46875 
L 9.90625 25.203125 
z
" id="ArialMT-52"/>
      </defs>
      <g transform="translate(249.344933 254.000937)scale(0.14 -0.14)">
       <use xlink:href="#ArialMT-49"/>
       <use x="55.615234" xlink:href="#ArialMT-52"/>
       <use x="111.230469" xlink:href="#ArialMT-48"/>
       <use x="166.845703" xlink:href="#ArialMT-48"/>
      </g>
     </g>
    </g>
    <g id="xtick_5">
     <g id="line2d_9">
      <path clip-path="url(#pc80513b636)" d="M 317.970329 240.48 
L 317.970329 7.2 
" style="fill:none;stroke:#000000;stroke-dasharray:6.4,1.6,1,1.6;stroke-dashoffset:0;stroke-opacity:0.2;"/>
     </g>
     <g id="line2d_10"/>
     <g id="text_5">
      <!-- 1600 -->
      <defs>
       <path d="M 49.75 54.046875 
L 41.015625 53.375 
Q 39.84375 58.546875 37.703125 60.890625 
Q 34.125 64.65625 28.90625 64.65625 
Q 24.703125 64.65625 21.53125 62.3125 
Q 17.390625 59.28125 14.984375 53.46875 
Q 12.59375 47.65625 12.5 36.921875 
Q 15.671875 41.75 20.265625 44.09375 
Q 24.859375 46.4375 29.890625 46.4375 
Q 38.671875 46.4375 44.84375 39.96875 
Q 51.03125 33.5 51.03125 23.25 
Q 51.03125 16.5 48.125 10.71875 
Q 45.21875 4.9375 40.140625 1.859375 
Q 35.0625 -1.21875 28.609375 -1.21875 
Q 17.625 -1.21875 10.6875 6.859375 
Q 3.765625 14.9375 3.765625 33.5 
Q 3.765625 54.25 11.421875 63.671875 
Q 18.109375 71.875 29.4375 71.875 
Q 37.890625 71.875 43.28125 67.140625 
Q 48.6875 62.40625 49.75 54.046875 
z
M 13.875 23.1875 
Q 13.875 18.65625 15.796875 14.5 
Q 17.71875 10.359375 21.1875 8.171875 
Q 24.65625 6 28.46875 6 
Q 34.03125 6 38.03125 10.484375 
Q 42.046875 14.984375 42.046875 22.703125 
Q 42.046875 30.125 38.078125 34.390625 
Q 34.125 38.671875 28.125 38.671875 
Q 22.171875 38.671875 18.015625 34.390625 
Q 13.875 30.125 13.875 23.1875 
z
" id="ArialMT-54"/>
      </defs>
      <g transform="translate(302.399704 254.000937)scale(0.14 -0.14)">
       <use xlink:href="#ArialMT-49"/>
       <use x="55.615234" xlink:href="#ArialMT-54"/>
       <use x="111.230469" xlink:href="#ArialMT-48"/>
       <use x="166.845703" xlink:href="#ArialMT-48"/>
      </g>
     </g>
    </g>
    <g id="xtick_6">
     <g id="line2d_11">
      <path clip-path="url(#pc80513b636)" d="M 371.0251 240.48 
L 371.0251 7.2 
" style="fill:none;stroke:#000000;stroke-dasharray:6.4,1.6,1,1.6;stroke-dashoffset:0;stroke-opacity:0.2;"/>
     </g>
     <g id="line2d_12"/>
     <g id="text_6">
      <!-- 1800 -->
      <g transform="translate(355.454475 254.000937)scale(0.14 -0.14)">
       <use xlink:href="#ArialMT-49"/>
       <use x="55.615234" xlink:href="#ArialMT-56"/>
       <use x="111.230469" xlink:href="#ArialMT-48"/>
       <use x="166.845703" xlink:href="#ArialMT-48"/>
      </g>
     </g>
    </g>
    <g id="xtick_7">
     <g id="line2d_13">
      <path clip-path="url(#pc80513b636)" d="M 424.079872 240.48 
L 424.079872 7.2 
" style="fill:none;stroke:#000000;stroke-dasharray:6.4,1.6,1,1.6;stroke-dashoffset:0;stroke-opacity:0.2;"/>
     </g>
     <g id="line2d_14"/>
     <g id="text_7">
      <!-- 2000 -->
      <g transform="translate(408.509247 254.000937)scale(0.14 -0.14)">
       <use xlink:href="#ArialMT-50"/>
       <use x="55.615234" xlink:href="#ArialMT-48"/>
       <use x="111.230469" xlink:href="#ArialMT-48"/>
       <use x="166.845703" xlink:href="#ArialMT-48"/>
      </g>
     </g>
    </g>
    <g id="text_8">
     <!-- Year -->
     <defs>
      <path d="M 27.875 0 
L 27.875 30.328125 
L 0.296875 71.578125 
L 11.8125 71.578125 
L 25.921875 50 
Q 29.828125 43.953125 33.203125 37.890625 
Q 36.421875 43.5 41.015625 50.53125 
L 54.890625 71.578125 
L 65.921875 71.578125 
L 37.359375 30.328125 
L 37.359375 0 
z
" id="ArialMT-89"/>
      <path d="M 42.09375 16.703125 
L 51.171875 15.578125 
Q 49.03125 7.625 43.21875 3.21875 
Q 37.40625 -1.171875 28.375 -1.171875 
Q 17 -1.171875 10.328125 5.828125 
Q 3.65625 12.84375 3.65625 25.484375 
Q 3.65625 38.578125 10.390625 45.796875 
Q 17.140625 53.03125 27.875 53.03125 
Q 38.28125 53.03125 44.875 45.953125 
Q 51.46875 38.875 51.46875 26.03125 
Q 51.46875 25.25 51.421875 23.6875 
L 12.75 23.6875 
Q 13.234375 15.140625 17.578125 10.59375 
Q 21.921875 6.0625 28.421875 6.0625 
Q 33.25 6.0625 36.671875 8.59375 
Q 40.09375 11.140625 42.09375 16.703125 
z
M 13.234375 30.90625 
L 42.1875 30.90625 
Q 41.609375 37.453125 38.875 40.71875 
Q 34.671875 45.796875 27.984375 45.796875 
Q 21.921875 45.796875 17.796875 41.75 
Q 13.671875 37.703125 13.234375 30.90625 
z
" id="ArialMT-101"/>
      <path d="M 40.4375 6.390625 
Q 35.546875 2.25 31.03125 0.53125 
Q 26.515625 -1.171875 21.34375 -1.171875 
Q 12.796875 -1.171875 8.203125 3 
Q 3.609375 7.171875 3.609375 13.671875 
Q 3.609375 17.484375 5.34375 20.625 
Q 7.078125 23.78125 9.890625 25.6875 
Q 12.703125 27.59375 16.21875 28.5625 
Q 18.796875 29.25 24.03125 29.890625 
Q 34.671875 31.15625 39.703125 32.90625 
Q 39.75 34.71875 39.75 35.203125 
Q 39.75 40.578125 37.25 42.78125 
Q 33.890625 45.75 27.25 45.75 
Q 21.046875 45.75 18.09375 43.578125 
Q 15.140625 41.40625 13.71875 35.890625 
L 5.125 37.0625 
Q 6.296875 42.578125 8.984375 45.96875 
Q 11.671875 49.359375 16.75 51.1875 
Q 21.828125 53.03125 28.515625 53.03125 
Q 35.15625 53.03125 39.296875 51.46875 
Q 43.453125 49.90625 45.40625 47.53125 
Q 47.359375 45.171875 48.140625 41.546875 
Q 48.578125 39.3125 48.578125 33.453125 
L 48.578125 21.734375 
Q 48.578125 9.46875 49.140625 6.21875 
Q 49.703125 2.984375 51.375 0 
L 42.1875 0 
Q 40.828125 2.734375 40.4375 6.390625 
z
M 39.703125 26.03125 
Q 34.90625 24.078125 25.34375 22.703125 
Q 19.921875 21.921875 17.671875 20.9375 
Q 15.4375 19.96875 14.203125 18.09375 
Q 12.984375 16.21875 12.984375 13.921875 
Q 12.984375 10.40625 15.640625 8.0625 
Q 18.3125 5.71875 23.4375 5.71875 
Q 28.515625 5.71875 32.46875 7.9375 
Q 36.421875 10.15625 38.28125 14.015625 
Q 39.703125 17 39.703125 22.796875 
z
" id="ArialMT-97"/>
      <path d="M 6.5 0 
L 6.5 51.859375 
L 14.40625 51.859375 
L 14.40625 44 
Q 17.4375 49.515625 20 51.265625 
Q 22.5625 53.03125 25.640625 53.03125 
Q 30.078125 53.03125 34.671875 50.203125 
L 31.640625 42.046875 
Q 28.421875 43.953125 25.203125 43.953125 
Q 22.3125 43.953125 20.015625 42.21875 
Q 17.71875 40.484375 16.75 37.40625 
Q 15.28125 32.71875 15.28125 27.15625 
L 15.28125 0 
z
" id="ArialMT-114"/>
     </defs>
     <g transform="translate(240.287875 272.808562)scale(0.168 -0.168)">
      <use xlink:href="#ArialMT-89"/>
      <use x="66.558594" xlink:href="#ArialMT-101"/>
      <use x="122.173828" xlink:href="#ArialMT-97"/>
      <use x="177.789062" xlink:href="#ArialMT-114"/>
     </g>
    </g>
   </g>
   <g id="matplotlib.axis_2">
    <g id="ytick_1">
     <g id="line2d_15">
      <path clip-path="url(#pc80513b636)" d="M 70.098438 232.192636 
L 445.938437 232.192636 
" style="fill:none;stroke:#000000;stroke-dasharray:6.4,1.6,1,1.6;stroke-dashoffset:0;stroke-opacity:0.2;"/>
     </g>
     <g id="line2d_16"/>
     <g id="text_9">
      <!-- 0 -->
      <g transform="translate(58.813125 237.203105)scale(0.14 -0.14)">
       <use xlink:href="#ArialMT-48"/>
      </g>
     </g>
    </g>
    <g id="ytick_2">
     <g id="line2d_17">
      <path clip-path="url(#pc80513b636)" d="M 70.098438 193.44862 
L 445.938437 193.44862 
" style="fill:none;stroke:#000000;stroke-dasharray:6.4,1.6,1,1.6;stroke-dashoffset:0;stroke-opacity:0.2;"/>
     </g>
     <g id="line2d_18"/>
     <g id="text_10">
      <!-- 10000 -->
      <g transform="translate(27.671875 198.459089)scale(0.14 -0.14)">
       <use xlink:href="#ArialMT-49"/>
       <use x="55.615234" xlink:href="#ArialMT-48"/>
       <use x="111.230469" xlink:href="#ArialMT-48"/>
       <use x="166.845703" xlink:href="#ArialMT-48"/>
       <use x="222.460938" xlink:href="#ArialMT-48"/>
      </g>
     </g>
    </g>
    <g id="ytick_3">
     <g id="line2d_19">
      <path clip-path="url(#pc80513b636)" d="M 70.098438 154.704605 
L 445.938437 154.704605 
" style="fill:none;stroke:#000000;stroke-dasharray:6.4,1.6,1,1.6;stroke-dashoffset:0;stroke-opacity:0.2;"/>
     </g>
     <g id="line2d_20"/>
     <g id="text_11">
      <!-- 20000 -->
      <g transform="translate(27.671875 159.715074)scale(0.14 -0.14)">
       <use xlink:href="#ArialMT-50"/>
       <use x="55.615234" xlink:href="#ArialMT-48"/>
       <use x="111.230469" xlink:href="#ArialMT-48"/>
       <use x="166.845703" xlink:href="#ArialMT-48"/>
       <use x="222.460938" xlink:href="#ArialMT-48"/>
      </g>
     </g>
    </g>
    <g id="ytick_4">
     <g id="line2d_21">
      <path clip-path="url(#pc80513b636)" d="M 70.098438 115.96059 
L 445.938437 115.96059 
" style="fill:none;stroke:#000000;stroke-dasharray:6.4,1.6,1,1.6;stroke-dashoffset:0;stroke-opacity:0.2;"/>
     </g>
     <g id="line2d_22"/>
     <g id="text_12">
      <!-- 30000 -->
      <defs>
       <path d="M 4.203125 18.890625 
L 12.984375 20.0625 
Q 14.5 12.59375 18.140625 9.296875 
Q 21.78125 6 27 6 
Q 33.203125 6 37.46875 10.296875 
Q 41.75 14.59375 41.75 20.953125 
Q 41.75 27 37.796875 30.921875 
Q 33.84375 34.859375 27.734375 34.859375 
Q 25.25 34.859375 21.53125 33.890625 
L 22.515625 41.609375 
Q 23.390625 41.5 23.921875 41.5 
Q 29.546875 41.5 34.03125 44.421875 
Q 38.53125 47.359375 38.53125 53.46875 
Q 38.53125 58.296875 35.25 61.46875 
Q 31.984375 64.65625 26.8125 64.65625 
Q 21.6875 64.65625 18.265625 61.421875 
Q 14.84375 58.203125 13.875 51.765625 
L 5.078125 53.328125 
Q 6.6875 62.15625 12.390625 67.015625 
Q 18.109375 71.875 26.609375 71.875 
Q 32.46875 71.875 37.390625 69.359375 
Q 42.328125 66.84375 44.9375 62.5 
Q 47.5625 58.15625 47.5625 53.265625 
Q 47.5625 48.640625 45.0625 44.828125 
Q 42.578125 41.015625 37.703125 38.765625 
Q 44.046875 37.3125 47.5625 32.6875 
Q 51.078125 28.078125 51.078125 21.140625 
Q 51.078125 11.765625 44.234375 5.25 
Q 37.40625 -1.265625 26.953125 -1.265625 
Q 17.53125 -1.265625 11.296875 4.34375 
Q 5.078125 9.96875 4.203125 18.890625 
z
" id="ArialMT-51"/>
      </defs>
      <g transform="translate(27.671875 120.971058)scale(0.14 -0.14)">
       <use xlink:href="#ArialMT-51"/>
       <use x="55.615234" xlink:href="#ArialMT-48"/>
       <use x="111.230469" xlink:href="#ArialMT-48"/>
       <use x="166.845703" xlink:href="#ArialMT-48"/>
       <use x="222.460938" xlink:href="#ArialMT-48"/>
      </g>
     </g>
    </g>
    <g id="ytick_5">
     <g id="line2d_23">
      <path clip-path="url(#pc80513b636)" d="M 70.098438 77.216574 
L 445.938437 77.216574 
" style="fill:none;stroke:#000000;stroke-dasharray:6.4,1.6,1,1.6;stroke-dashoffset:0;stroke-opacity:0.2;"/>
     </g>
     <g id="line2d_24"/>
     <g id="text_13">
      <!-- 40000 -->
      <g transform="translate(27.671875 82.227043)scale(0.14 -0.14)">
       <use xlink:href="#ArialMT-52"/>
       <use x="55.615234" xlink:href="#ArialMT-48"/>
       <use x="111.230469" xlink:href="#ArialMT-48"/>
       <use x="166.845703" xlink:href="#ArialMT-48"/>
       <use x="222.460938" xlink:href="#ArialMT-48"/>
      </g>
     </g>
    </g>
    <g id="ytick_6">
     <g id="line2d_25">
      <path clip-path="url(#pc80513b636)" d="M 70.098438 38.472559 
L 445.938437 38.472559 
" style="fill:none;stroke:#000000;stroke-dasharray:6.4,1.6,1,1.6;stroke-dashoffset:0;stroke-opacity:0.2;"/>
     </g>
     <g id="line2d_26"/>
     <g id="text_14">
      <!-- 50000 -->
      <defs>
       <path d="M 4.15625 18.75 
L 13.375 19.53125 
Q 14.40625 12.796875 18.140625 9.390625 
Q 21.875 6 27.15625 6 
Q 33.5 6 37.890625 10.78125 
Q 42.28125 15.578125 42.28125 23.484375 
Q 42.28125 31 38.0625 35.34375 
Q 33.84375 39.703125 27 39.703125 
Q 22.75 39.703125 19.328125 37.765625 
Q 15.921875 35.84375 13.96875 32.765625 
L 5.71875 33.84375 
L 12.640625 70.609375 
L 48.25 70.609375 
L 48.25 62.203125 
L 19.671875 62.203125 
L 15.828125 42.96875 
Q 22.265625 47.46875 29.34375 47.46875 
Q 38.71875 47.46875 45.15625 40.96875 
Q 51.609375 34.46875 51.609375 24.265625 
Q 51.609375 14.546875 45.953125 7.46875 
Q 39.0625 -1.21875 27.15625 -1.21875 
Q 17.390625 -1.21875 11.203125 4.25 
Q 5.03125 9.71875 4.15625 18.75 
z
" id="ArialMT-53"/>
      </defs>
      <g transform="translate(27.671875 43.483028)scale(0.14 -0.14)">
       <use xlink:href="#ArialMT-53"/>
       <use x="55.615234" xlink:href="#ArialMT-48"/>
       <use x="111.230469" xlink:href="#ArialMT-48"/>
       <use x="166.845703" xlink:href="#ArialMT-48"/>
       <use x="222.460938" xlink:href="#ArialMT-48"/>
      </g>
     </g>
    </g>
    <g id="text_15">
     <!-- GDP per capita, 2011US$ -->
     <defs>
      <path d="M 41.21875 28.078125 
L 41.21875 36.46875 
L 71.53125 36.53125 
L 71.53125 9.96875 
Q 64.546875 4.390625 57.125 1.578125 
Q 49.703125 -1.21875 41.890625 -1.21875 
Q 31.34375 -1.21875 22.71875 3.296875 
Q 14.109375 7.8125 9.71875 16.359375 
Q 5.328125 24.90625 5.328125 35.453125 
Q 5.328125 45.90625 9.6875 54.953125 
Q 14.0625 64.015625 22.265625 68.40625 
Q 30.46875 72.796875 41.15625 72.796875 
Q 48.921875 72.796875 55.1875 70.28125 
Q 61.46875 67.78125 65.03125 63.28125 
Q 68.609375 58.796875 70.453125 51.5625 
L 61.921875 49.21875 
Q 60.296875 54.6875 57.90625 57.8125 
Q 55.515625 60.9375 51.0625 62.8125 
Q 46.625 64.703125 41.21875 64.703125 
Q 34.71875 64.703125 29.984375 62.71875 
Q 25.25 60.75 22.34375 57.515625 
Q 19.4375 54.296875 17.828125 50.4375 
Q 15.09375 43.796875 15.09375 36.03125 
Q 15.09375 26.46875 18.390625 20.015625 
Q 21.6875 13.578125 27.984375 10.453125 
Q 34.28125 7.328125 41.359375 7.328125 
Q 47.515625 7.328125 53.375 9.6875 
Q 59.234375 12.0625 62.25 14.75 
L 62.25 28.078125 
z
" id="ArialMT-71"/>
      <path d="M 7.71875 0 
L 7.71875 71.578125 
L 32.375 71.578125 
Q 40.71875 71.578125 45.125 70.5625 
Q 51.265625 69.140625 55.609375 65.4375 
Q 61.28125 60.640625 64.078125 53.1875 
Q 66.890625 45.75 66.890625 36.1875 
Q 66.890625 28.03125 64.984375 21.734375 
Q 63.09375 15.4375 60.109375 11.296875 
Q 57.125 7.171875 53.578125 4.796875 
Q 50.046875 2.4375 45.046875 1.21875 
Q 40.046875 0 33.546875 0 
z
M 17.1875 8.453125 
L 32.46875 8.453125 
Q 39.546875 8.453125 43.578125 9.765625 
Q 47.609375 11.078125 50 13.484375 
Q 53.375 16.84375 55.25 22.53125 
Q 57.125 28.21875 57.125 36.328125 
Q 57.125 47.5625 53.4375 53.59375 
Q 49.75 59.625 44.484375 61.671875 
Q 40.671875 63.140625 32.234375 63.140625 
L 17.1875 63.140625 
z
" id="ArialMT-68"/>
      <path d="M 7.71875 0 
L 7.71875 71.578125 
L 34.71875 71.578125 
Q 41.84375 71.578125 45.609375 70.90625 
Q 50.875 70.015625 54.4375 67.546875 
Q 58.015625 65.09375 60.1875 60.640625 
Q 62.359375 56.203125 62.359375 50.875 
Q 62.359375 41.75 56.546875 35.421875 
Q 50.734375 29.109375 35.546875 29.109375 
L 17.1875 29.109375 
L 17.1875 0 
z
M 17.1875 37.546875 
L 35.6875 37.546875 
Q 44.875 37.546875 48.734375 40.96875 
Q 52.59375 44.390625 52.59375 50.59375 
Q 52.59375 55.078125 50.3125 58.265625 
Q 48.046875 61.46875 44.34375 62.5 
Q 41.9375 63.140625 35.5 63.140625 
L 17.1875 63.140625 
z
" id="ArialMT-80"/>
      <path id="ArialMT-32"/>
      <path d="M 6.59375 -19.875 
L 6.59375 51.859375 
L 14.59375 51.859375 
L 14.59375 45.125 
Q 17.4375 49.078125 21 51.046875 
Q 24.5625 53.03125 29.640625 53.03125 
Q 36.28125 53.03125 41.359375 49.609375 
Q 46.4375 46.1875 49.015625 39.953125 
Q 51.609375 33.734375 51.609375 26.3125 
Q 51.609375 18.359375 48.75 11.984375 
Q 45.90625 5.609375 40.453125 2.21875 
Q 35.015625 -1.171875 29 -1.171875 
Q 24.609375 -1.171875 21.109375 0.6875 
Q 17.625 2.546875 15.375 5.375 
L 15.375 -19.875 
z
M 14.546875 25.640625 
Q 14.546875 15.625 18.59375 10.84375 
Q 22.65625 6.0625 28.421875 6.0625 
Q 34.28125 6.0625 38.453125 11.015625 
Q 42.625 15.96875 42.625 26.375 
Q 42.625 36.28125 38.546875 41.203125 
Q 34.46875 46.140625 28.8125 46.140625 
Q 23.1875 46.140625 18.859375 40.890625 
Q 14.546875 35.640625 14.546875 25.640625 
z
" id="ArialMT-112"/>
      <path d="M 40.4375 19 
L 49.078125 17.875 
Q 47.65625 8.9375 41.8125 3.875 
Q 35.984375 -1.171875 27.484375 -1.171875 
Q 16.84375 -1.171875 10.375 5.78125 
Q 3.90625 12.75 3.90625 25.734375 
Q 3.90625 34.125 6.6875 40.421875 
Q 9.46875 46.734375 15.15625 49.875 
Q 20.84375 53.03125 27.546875 53.03125 
Q 35.984375 53.03125 41.359375 48.75 
Q 46.734375 44.484375 48.25 36.625 
L 39.703125 35.296875 
Q 38.484375 40.53125 35.375 43.15625 
Q 32.28125 45.796875 27.875 45.796875 
Q 21.234375 45.796875 17.078125 41.03125 
Q 12.9375 36.28125 12.9375 25.984375 
Q 12.9375 15.53125 16.9375 10.796875 
Q 20.953125 6.0625 27.390625 6.0625 
Q 32.5625 6.0625 36.03125 9.234375 
Q 39.5 12.40625 40.4375 19 
z
" id="ArialMT-99"/>
      <path d="M 6.640625 61.46875 
L 6.640625 71.578125 
L 15.4375 71.578125 
L 15.4375 61.46875 
z
M 6.640625 0 
L 6.640625 51.859375 
L 15.4375 51.859375 
L 15.4375 0 
z
" id="ArialMT-105"/>
      <path d="M 25.78125 7.859375 
L 27.046875 0.09375 
Q 23.34375 -0.6875 20.40625 -0.6875 
Q 15.625 -0.6875 12.984375 0.828125 
Q 10.359375 2.34375 9.28125 4.8125 
Q 8.203125 7.28125 8.203125 15.1875 
L 8.203125 45.015625 
L 1.765625 45.015625 
L 1.765625 51.859375 
L 8.203125 51.859375 
L 8.203125 64.703125 
L 16.9375 69.96875 
L 16.9375 51.859375 
L 25.78125 51.859375 
L 25.78125 45.015625 
L 16.9375 45.015625 
L 16.9375 14.703125 
Q 16.9375 10.9375 17.40625 9.859375 
Q 17.875 8.796875 18.921875 8.15625 
Q 19.96875 7.515625 21.921875 7.515625 
Q 23.390625 7.515625 25.78125 7.859375 
z
" id="ArialMT-116"/>
      <path d="M 8.890625 0 
L 8.890625 10.015625 
L 18.890625 10.015625 
L 18.890625 0 
Q 18.890625 -5.515625 16.9375 -8.90625 
Q 14.984375 -12.3125 10.75 -14.15625 
L 8.296875 -10.40625 
Q 11.078125 -9.1875 12.390625 -6.8125 
Q 13.71875 -4.4375 13.875 0 
z
" id="ArialMT-44"/>
      <path d="M 54.6875 71.578125 
L 64.15625 71.578125 
L 64.15625 30.21875 
Q 64.15625 19.4375 61.71875 13.078125 
Q 59.28125 6.734375 52.90625 2.75 
Q 46.53125 -1.21875 36.1875 -1.21875 
Q 26.125 -1.21875 19.71875 2.25 
Q 13.328125 5.71875 10.59375 12.28125 
Q 7.859375 18.84375 7.859375 30.21875 
L 7.859375 71.578125 
L 17.328125 71.578125 
L 17.328125 30.28125 
Q 17.328125 20.953125 19.0625 16.53125 
Q 20.796875 12.109375 25.015625 9.71875 
Q 29.25 7.328125 35.359375 7.328125 
Q 45.796875 7.328125 50.234375 12.0625 
Q 54.6875 16.796875 54.6875 30.28125 
z
" id="ArialMT-85"/>
      <path d="M 4.5 23 
L 13.421875 23.78125 
Q 14.0625 18.40625 16.375 14.96875 
Q 18.703125 11.53125 23.578125 9.40625 
Q 28.46875 7.28125 34.578125 7.28125 
Q 39.984375 7.28125 44.140625 8.890625 
Q 48.296875 10.5 50.3125 13.296875 
Q 52.34375 16.109375 52.34375 19.4375 
Q 52.34375 22.796875 50.390625 25.3125 
Q 48.4375 27.828125 43.953125 29.546875 
Q 41.0625 30.671875 31.203125 33.03125 
Q 21.34375 35.40625 17.390625 37.5 
Q 12.25 40.1875 9.734375 44.15625 
Q 7.234375 48.140625 7.234375 53.078125 
Q 7.234375 58.5 10.296875 63.203125 
Q 13.375 67.921875 19.28125 70.359375 
Q 25.203125 72.796875 32.421875 72.796875 
Q 40.375 72.796875 46.453125 70.234375 
Q 52.546875 67.671875 55.8125 62.6875 
Q 59.078125 57.71875 59.328125 51.421875 
L 50.25 50.734375 
Q 49.515625 57.515625 45.28125 60.984375 
Q 41.0625 64.453125 32.8125 64.453125 
Q 24.21875 64.453125 20.28125 61.296875 
Q 16.359375 58.15625 16.359375 53.71875 
Q 16.359375 49.859375 19.140625 47.359375 
Q 21.875 44.875 33.421875 42.265625 
Q 44.96875 39.65625 49.265625 37.703125 
Q 55.515625 34.8125 58.484375 30.390625 
Q 61.46875 25.984375 61.46875 20.21875 
Q 61.46875 14.5 58.203125 9.4375 
Q 54.9375 4.390625 48.796875 1.578125 
Q 42.671875 -1.21875 35.015625 -1.21875 
Q 25.296875 -1.21875 18.71875 1.609375 
Q 12.15625 4.4375 8.421875 10.125 
Q 4.6875 15.828125 4.5 23 
z
" id="ArialMT-83"/>
      <path d="M 24.90625 -10.296875 
L 24.90625 -1.515625 
Q 18.3125 -0.6875 14.1875 1.4375 
Q 10.0625 3.5625 7.046875 8.296875 
Q 4.046875 13.03125 3.5625 19.875 
L 12.40625 21.53125 
Q 13.421875 14.453125 16.015625 11.140625 
Q 19.734375 6.453125 24.90625 5.90625 
L 24.90625 33.890625 
Q 19.484375 34.90625 13.8125 38.09375 
Q 9.625 40.4375 7.34375 44.578125 
Q 5.078125 48.734375 5.078125 54 
Q 5.078125 63.375 11.71875 69.1875 
Q 16.15625 73.09375 24.90625 73.96875 
L 24.90625 78.171875 
L 30.078125 78.171875 
L 30.078125 73.96875 
Q 37.75 73.25 42.234375 69.484375 
Q 48 64.703125 49.171875 56.34375 
L 40.09375 54.984375 
Q 39.3125 60.15625 36.84375 62.90625 
Q 34.375 65.671875 30.078125 66.546875 
L 30.078125 41.21875 
Q 36.71875 39.546875 38.875 38.625 
Q 42.96875 36.8125 45.546875 34.21875 
Q 48.140625 31.640625 49.53125 28.078125 
Q 50.921875 24.515625 50.921875 20.359375 
Q 50.921875 11.234375 45.109375 5.125 
Q 39.3125 -0.984375 30.078125 -1.421875 
L 30.078125 -10.296875 
z
M 24.90625 66.65625 
Q 19.78125 65.875 16.828125 62.546875 
Q 13.875 59.234375 13.875 54.6875 
Q 13.875 50.203125 16.375 47.171875 
Q 18.890625 44.140625 24.90625 42.328125 
z
M 30.078125 5.90625 
Q 35.203125 6.546875 38.546875 10.34375 
Q 41.890625 14.15625 41.890625 19.78125 
Q 41.890625 24.5625 39.515625 27.46875 
Q 37.15625 30.375 30.078125 32.671875 
z
" id="ArialMT-36"/>
     </defs>
     <g transform="translate(20.332875 220.945312)rotate(-90)scale(0.168 -0.168)">
      <use xlink:href="#ArialMT-71"/>
      <use x="77.783203" xlink:href="#ArialMT-68"/>
      <use x="150" xlink:href="#ArialMT-80"/>
      <use x="216.683594" xlink:href="#ArialMT-32"/>
      <use x="244.466797" xlink:href="#ArialMT-112"/>
      <use x="300.082031" xlink:href="#ArialMT-101"/>
      <use x="355.697266" xlink:href="#ArialMT-114"/>
      <use x="388.998047" xlink:href="#ArialMT-32"/>
      <use x="416.78125" xlink:href="#ArialMT-99"/>
      <use x="466.78125" xlink:href="#ArialMT-97"/>
      <use x="522.396484" xlink:href="#ArialMT-112"/>
      <use x="578.011719" xlink:href="#ArialMT-105"/>
      <use x="600.228516" xlink:href="#ArialMT-116"/>
      <use x="628.011719" xlink:href="#ArialMT-97"/>
      <use x="683.626953" xlink:href="#ArialMT-44"/>
      <use x="711.410156" xlink:href="#ArialMT-32"/>
      <use x="739.193359" xlink:href="#ArialMT-50"/>
      <use x="794.808594" xlink:href="#ArialMT-48"/>
      <use x="850.423828" xlink:href="#ArialMT-49"/>
      <use x="905.929688" xlink:href="#ArialMT-49"/>
      <use x="961.544922" xlink:href="#ArialMT-85"/>
      <use x="1033.761719" xlink:href="#ArialMT-83"/>
      <use x="1100.460938" xlink:href="#ArialMT-36"/>
     </g>
    </g>
   </g>
   <g id="line2d_27">
    <path clip-path="url(#pc80513b636)" d="M 158.806015 227.446079 
L 182.680662 227.459237 
L 190.638878 227.617126 
L 270.221035 226.721981 
L 272.873773 226.388782 
L 275.526512 226.543758 
L 278.179251 226.863861 
L 280.831989 227.062928 
L 283.484728 226.997063 
L 286.137466 227.380629 
L 288.790205 227.585972 
L 291.442943 227.515156 
L 294.095682 227.256648 
L 296.748421 227.675084 
L 302.053898 227.570475 
L 307.359375 227.543354 
L 310.012113 227.396739 
L 315.317591 227.477489 
L 317.970329 227.475684 
L 320.623068 227.225653 
L 323.275806 227.303141 
L 334.152034 227.039682 
L 340.518607 227.233402 
L 341.844976 226.718106 
L 344.497715 226.215856 
L 347.150453 226.745227 
L 349.803192 227.109421 
L 350.864287 227.659586 
L 352.45593 227.411624 
L 360.414146 228.232997 
L 363.066885 228.325983 
L 371.0251 228.603937 
L 381.636055 228.903269 
L 384.288793 228.868399 
L 389.59427 228.531326 
L 394.103926 228.659182 
L 394.899747 228.457713 
L 397.552486 228.426718 
L 400.470498 228.686302 
L 401.001046 228.37635 
L 405.775976 228.260118 
L 406.041249 228.167133 
L 406.306523 228.616563 
L 406.571797 228.562322 
L 407.102345 228.066398 
L 407.632893 228.306611 
L 410.816179 229.096989 
L 411.346727 228.136137 
L 411.612 227.709953 
L 411.877274 228.128389 
L 412.407822 227.585972 
L 412.93837 227.647963 
L 413.468917 228.097393 
L 413.734191 228.806409 
L 413.999465 228.60494 
L 414.795287 227.338011 
L 415.060561 227.307016 
L 415.325834 227.400001 
L 415.591108 227.628591 
L 415.856382 227.295392 
L 416.121656 226.776223 
L 416.38693 226.590251 
L 416.652204 226.648367 
L 416.917478 226.330666 
L 417.182751 226.30742 
L 417.448025 226.01684 
L 417.713299 226.30742 
L 417.978573 226.059458 
L 418.509121 224.990123 
L 419.039668 224.59106 
L 420.631312 220.836765 
L 420.896585 220.395083 
L 421.427133 220.63917 
L 421.692407 220.370616 
L 421.957681 219.687059 
L 422.753502 216.696079 
L 423.018776 215.84404 
L 423.28405 215.490756 
L 423.549324 215.494557 
L 423.814598 214.886706 
L 424.610419 211.491273 
L 425.140967 208.684351 
L 426.467336 198.353456 
L 426.997884 192.592378 
L 427.528432 188.303415 
L 427.793706 185.916784 
L 428.854801 181.431364 
L 428.854801 181.431364 
" style="fill:none;stroke:#f47915;stroke-width:3;"/>
   </g>
   <g id="line2d_28">
    <path clip-path="url(#pc80513b636)" d="M 158.806015 227.7332 
L 226.185575 227.090049 
L 226.981396 227.388378 
L 227.24667 226.698734 
L 227.511944 227.578224 
L 227.777218 227.186909 
L 228.042492 227.210155 
L 228.307766 227.46974 
L 229.103587 227.60147 
L 229.368861 226.764599 
L 229.899409 227.500736 
L 230.164683 227.446494 
L 230.69523 227.632465 
L 230.960504 227.465866 
L 231.225778 227.740948 
L 231.491052 227.764195 
L 231.756326 227.140416 
L 232.0216 227.752572 
L 232.552147 227.291518 
L 232.817421 228.132263 
L 233.082695 228.093519 
L 233.347969 227.861055 
L 233.878517 228.244621 
L 234.409064 228.105142 
L 234.674338 228.186505 
L 234.939612 227.833934 
L 235.204886 227.98891 
L 235.47016 228.337606 
L 236.000707 228.294988 
L 236.531255 227.985036 
L 236.796529 228.016031 
L 237.327077 227.535605 
L 237.592351 227.7332 
L 237.857624 227.500736 
L 238.122898 227.671209 
L 238.653446 227.667335 
L 239.183994 227.353508 
L 239.449268 227.814562 
L 239.714541 227.690581 
L 239.979815 227.818437 
L 240.245089 227.605344 
L 241.306185 227.322513 
L 241.571458 227.450368 
L 242.102006 227.361257 
L 242.36728 227.849432 
L 242.632554 228.039277 
L 242.897828 227.791316 
L 243.163102 227.272146 
L 243.428375 227.186909 
L 243.693649 227.287644 
L 243.958923 227.98891 
L 244.489471 227.485238 
L 244.754745 227.845557 
L 245.020019 227.427122 
L 245.285292 227.369006 
L 245.550566 227.458117 
L 245.81584 227.79519 
L 246.081114 227.570475 
L 246.611662 227.907548 
L 247.142209 227.554977 
L 247.672757 227.903673 
L 247.938031 227.702204 
L 248.203305 227.221779 
L 248.468579 227.128793 
L 248.733853 228.062524 
L 248.999126 227.5666 
L 249.2644 227.523982 
L 249.529674 227.307016 
L 249.794948 227.446494 
L 250.060222 227.128793 
L 250.59077 227.717702 
L 251.121317 227.430996 
L 251.386591 227.721576 
L 252.182413 226.094328 
L 252.447687 226.074956 
L 252.71296 226.334541 
L 252.978234 226.152444 
L 253.243508 226.237681 
L 253.774056 226.090453 
L 254.304604 226.067207 
L 255.100425 226.601874 
L 255.365699 225.98197 
L 255.630973 226.260927 
L 255.896247 226.07883 
L 256.161521 226.454647 
L 256.426794 226.493391 
L 256.692068 226.873083 
L 256.957342 226.229932 
L 257.222616 226.423652 
L 257.48789 226.973817 
L 257.753164 226.543758 
L 258.018438 226.997063 
L 258.283711 227.17916 
L 258.548985 226.400406 
L 258.814259 226.229932 
L 259.079533 226.291922 
L 259.344807 226.776223 
L 260.140628 226.17569 
L 260.405902 226.43915 
L 260.671176 225.683641 
L 260.93645 226.257053 
L 261.201724 225.551912 
L 261.466998 225.49767 
L 261.732271 225.997468 
L 261.997545 225.776627 
L 262.262819 226.171816 
L 262.793367 224.571688 
L 263.058641 225.877361 
L 263.323915 225.238085 
L 263.589188 225.517042 
L 263.854462 225.458926 
L 264.119736 225.586781 
L 264.38501 225.102481 
L 264.915558 225.540288 
L 265.180832 225.621651 
L 265.976653 225.214839 
L 266.241927 225.199341 
L 266.507201 225.706888 
L 266.772475 225.695264 
L 267.037749 226.179565 
L 267.303022 225.966473 
L 267.568296 225.575158 
L 268.098844 225.857989 
L 268.364118 226.446898 
L 268.629392 225.660395 
L 268.894666 225.505419 
L 269.159939 225.741757 
L 269.425213 225.137351 
L 269.690487 225.493796 
L 269.955761 225.137351 
L 270.221035 225.30395 
L 270.486309 225.757255 
L 270.751583 225.544163 
L 271.016856 225.17222 
L 271.28213 225.114104 
L 272.343226 226.121449 
L 272.873773 225.72626 
L 273.669595 225.540288 
L 273.934869 225.129602 
L 274.200143 225.904482 
L 274.73069 226.547633 
L 275.261238 225.974221 
L 275.526512 225.904482 
L 275.791786 226.621246 
L 276.05706 226.412029 
L 276.322334 225.187718 
L 276.587607 225.179969 
L 276.852881 226.133072 
L 277.118155 225.734008 
L 277.648703 225.327196 
L 277.913977 225.881236 
L 278.179251 225.672018 
L 279.240346 225.695264 
L 279.50562 225.749506 
L 279.770894 225.683641 
L 280.036168 226.241555 
L 280.301441 225.896733 
L 280.831989 226.001342 
L 281.097263 225.98197 
L 281.362537 225.404684 
L 281.627811 225.327196 
L 281.893085 225.935477 
L 282.423632 226.171816 
L 282.95418 225.72626 
L 283.484728 226.005217 
L 283.750002 226.284174 
L 284.015275 226.090453 
L 284.280549 226.148569 
L 284.545823 225.830869 
L 284.811097 226.024589 
L 285.076371 226.477894 
L 286.137466 225.536414 
L 286.668014 226.125323 
L 286.933288 225.834743 
L 287.198562 225.904482 
L 287.463836 226.257053 
L 287.729109 225.621651 
L 287.994383 226.195062 
L 288.790205 225.916105 
L 289.320753 225.803748 
L 289.586026 225.916105 
L 289.8513 225.625525 
L 290.381848 225.974221 
L 290.647122 225.567409 
L 291.17767 225.49767 
L 291.442943 225.617776 
L 291.708217 225.865738 
L 292.238765 225.385312 
L 293.565134 225.373689 
L 293.830408 225.07536 
L 294.095682 225.342694 
L 294.360956 225.222587 
L 294.62623 225.548037 
L 294.891504 225.276829 
L 295.156777 225.307824 
L 295.422051 225.141225 
L 295.952599 225.218713 
L 296.483147 225.280704 
L 296.748421 225.393061 
L 297.544242 225.036616 
L 297.809516 224.963003 
L 298.340064 225.017244 
L 298.605338 225.555786 
L 299.401159 225.393061 
L 299.666433 225.648772 
L 299.931707 225.447303 
L 300.196981 225.509293 
L 300.462255 225.238085 
L 300.727528 225.741757 
L 300.992802 225.842492 
L 301.258076 225.381438 
L 301.52335 225.772753 
L 301.788624 225.296201 
L 302.319172 225.765004 
L 302.584445 225.563535 
L 302.849719 225.803748 
L 303.114993 225.474424 
L 303.380267 225.683641 
L 303.645541 225.586781 
L 303.910815 225.059863 
L 304.441362 225.69139 
L 304.97191 225.978096 
L 305.237184 226.27255 
L 305.502458 225.292327 
L 305.767732 225.931603 
L 306.033006 225.997468 
L 306.298279 227.175286 
L 306.563553 226.69486 
L 306.828827 225.052114 
L 307.094101 225.43568 
L 307.889923 225.36594 
L 308.155196 224.780906 
L 308.42047 225.052114 
L 308.685744 225.067611 
L 308.951018 224.226866 
L 309.216292 224.753785 
L 309.74684 224.850645 
L 310.012113 225.4628 
L 310.277387 225.4628 
L 310.542661 225.703013 
L 310.807935 224.777031 
L 311.073209 225.648772 
L 311.338483 224.924259 
L 311.603757 224.718915 
L 311.86903 225.877361 
L 312.134304 225.009495 
L 312.399578 225.141225 
L 313.1954 226.474019 
L 313.460674 225.757255 
L 313.725947 226.005217 
L 313.991221 226.783971 
L 314.256495 226.938947 
L 314.787043 225.644897 
L 315.052317 226.481768 
L 315.317591 226.156318 
L 315.582864 226.117574 
L 316.113412 225.249708 
L 316.378686 226.559256 
L 316.64396 226.56313 
L 317.174508 227.093923 
L 317.705055 225.265206 
L 317.970329 225.641023 
L 318.235603 225.718511 
L 318.766151 225.028867 
L 319.031425 224.571688 
L 319.296698 225.404684 
L 319.561972 225.098607 
L 319.827246 225.761129 
L 320.09252 226.105951 
L 320.357794 225.17222 
L 320.623068 224.757659 
L 320.888342 225.385312 
L 321.684163 226.167941 
L 321.949437 225.679767 
L 322.214711 226.047835 
L 322.479985 225.416308 
L 322.745259 225.451177 
L 323.010532 226.047835 
L 323.275806 225.055988 
L 323.54108 225.094732 
L 323.806354 226.067207 
L 324.071628 226.117574 
L 324.336902 225.292327 
L 324.602176 225.226462 
L 324.867449 225.489921 
L 325.132723 225.478298 
L 325.397997 224.649176 
L 325.663271 226.652242 
L 325.928545 226.706483 
L 326.193819 226.570879 
L 326.459092 225.877361 
L 326.724366 226.377159 
L 326.98964 226.30742 
L 327.254914 226.105951 
L 327.785462 226.474019 
L 328.050736 225.900608 
L 328.581283 225.672018 
L 328.846557 226.384908 
L 329.377105 225.509293 
L 329.642379 225.431805 
L 329.907653 226.338415 
L 330.703474 226.245429 
L 330.968748 226.350038 
L 331.234022 226.590251 
L 331.499296 226.276425 
L 332.029843 224.753785 
L 332.295117 224.81965 
L 332.560391 224.513572 
L 333.090939 225.501544 
L 333.356213 225.598404 
L 333.621487 226.609623 
L 333.88676 226.07883 
L 334.417308 225.745632 
L 334.682582 224.602683 
L 334.947856 225.11023 
L 335.21313 224.804152 
L 335.478404 223.920789 
L 335.743677 223.68445 
L 336.008951 224.676297 
L 336.274225 224.478702 
L 336.804773 224.935882 
L 337.070047 224.986249 
L 337.335321 224.842896 
L 337.600594 225.195467 
L 337.865868 225.01337 
L 338.131142 223.703822 
L 338.396416 224.331475 
L 338.66169 224.044769 
L 338.926964 224.587186 
L 339.192238 223.634083 
L 339.457511 224.428335 
L 339.988059 223.192401 
L 340.253333 224.65305 
L 340.518607 224.017649 
L 340.783881 224.641427 
L 341.314428 223.153657 
L 341.579702 223.541097 
L 341.844976 222.948314 
L 342.11025 222.894072 
L 342.375524 222.138564 
L 342.640798 223.680576 
L 342.906072 222.057201 
L 343.436619 222.925067 
L 343.701893 223.045174 
L 343.967167 222.828207 
L 344.232441 223.188527 
L 344.497715 222.847579 
L 344.762989 222.068825 
L 345.028262 222.405898 
L 345.293536 223.107164 
L 345.55881 221.429548 
L 345.824084 222.00296 
L 346.089358 223.591464 
L 346.619906 221.979713 
L 347.150453 224.188122 
L 347.415727 223.45586 
L 347.681001 223.448112 
L 347.946275 223.835552 
L 348.211549 223.033551 
L 348.476823 223.304759 
L 348.742096 223.021927 
L 349.272644 222.095945 
L 349.537918 222.343907 
L 349.803192 221.673636 
L 350.068466 222.076573 
L 350.33374 221.979713 
L 350.864287 222.398149 
L 351.129561 222.177308 
L 351.394835 222.572497 
L 351.660109 222.68098 
L 351.925383 222.297414 
L 352.190657 222.692603 
L 352.45593 222.359405 
L 352.721204 222.510506 
L 352.986478 221.909974 
L 353.251752 221.735626 
L 353.517026 221.878979 
L 353.7823 222.212177 
L 354.047574 221.557404 
L 354.312847 222.188931 
L 354.578121 222.045578 
L 355.108669 222.405898 
L 355.639217 221.797617 
L 356.169764 222.254796 
L 356.435038 222.208303 
L 356.700312 221.960341 
L 356.965586 221.538032 
L 357.496134 221.805365 
L 357.761408 221.724003 
L 358.026681 222.014583 
L 358.291955 221.584524 
L 358.557229 221.565152 
L 358.822503 221.933221 
L 359.087777 221.693008 
L 359.353051 221.952593 
L 359.618325 221.410176 
L 360.148872 221.150591 
L 360.67942 220.526813 
L 360.944694 220.891007 
L 361.475242 220.96462 
L 361.740515 221.138968 
L 362.536337 220.914253 
L 362.801611 220.352465 
L 363.066885 220.755403 
L 363.332159 220.61205 
L 363.597432 220.995615 
L 363.862706 220.879383 
L 364.12798 221.212582 
L 364.923802 220.503566 
L 365.454349 220.836765 
L 365.719623 220.379586 
L 365.984897 220.174242 
L 366.515445 220.464822 
L 367.311266 220.643045 
L 367.57654 220.96462 
L 367.841814 221.107973 
L 368.107088 221.003364 
L 368.372362 220.290474 
L 368.637636 220.391209 
L 368.90291 220.050261 
L 369.433457 220.860011 
L 369.698731 219.76743 
L 369.964005 219.666696 
L 370.229279 219.922406 
L 370.494553 219.945653 
L 370.759827 219.76743 
L 371.0251 219.240512 
L 371.555648 219.174647 
L 371.820922 219.593082 
L 372.086196 219.779053 
L 372.35147 219.225014 
L 372.616744 219.457478 
L 372.882017 218.810453 
L 373.147291 219.600831 
L 373.412565 219.372241 
L 373.677839 218.717467 
L 373.943113 219.031294 
L 374.208387 219.76743 
L 374.473661 219.298628 
L 374.738934 219.779053 
L 375.004208 218.674849 
L 375.269482 219.600831 
L 375.534756 219.589208 
L 375.80003 219.790677 
L 376.065304 220.170368 
L 376.330578 219.383864 
L 376.861125 219.348995 
L 377.126399 219.178521 
L 377.391673 218.663226 
L 377.656947 218.550868 
L 377.922221 219.445855 
L 378.187495 218.636105 
L 378.718042 218.853071 
L 378.983316 218.43851 
L 379.24859 218.457882 
L 379.513864 218.198297 
L 379.779138 218.248665 
L 380.044412 218.093689 
L 380.309685 217.233572 
L 380.574959 216.939117 
L 380.840233 217.249069 
L 381.105507 216.838383 
L 381.370781 217.156083 
L 381.636055 216.62529 
L 382.166602 217.438915 
L 382.431876 216.88875 
L 382.69715 215.745801 
L 382.962424 215.195636 
L 383.227698 215.40098 
L 383.492972 215.78842 
L 383.758246 215.296371 
L 384.023519 215.060032 
L 384.288793 215.408728 
L 385.349889 213.173199 
L 385.615163 213.796977 
L 385.880436 212.770261 
L 386.14571 212.747015 
L 386.410984 213.289431 
L 386.676258 212.700522 
L 386.941532 212.48743 
L 387.206806 212.727643 
L 387.47208 213.734987 
L 387.737353 212.181352 
L 388.533175 211.073273 
L 388.798449 211.177882 
L 389.063723 210.356509 
L 389.328997 210.360383 
L 389.59427 209.608749 
L 390.124818 209.841213 
L 390.92064 209.139947 
L 391.451187 209.244556 
L 391.716461 209.415029 
L 391.981735 209.775349 
L 392.512283 208.380564 
L 392.777557 207.904013 
L 393.04283 207.923385 
L 393.308104 208.093858 
L 393.573378 208.434806 
L 393.838652 208.287578 
L 394.3692 206.679702 
L 394.634474 205.552251 
L 394.899747 205.672357 
L 395.165021 205.920319 
L 395.430295 206.803683 
L 395.695569 207.063267 
L 395.960843 205.649111 
L 396.226117 205.087323 
L 396.491391 204.254326 
L 396.756664 204.184587 
L 397.287212 202.247386 
L 397.81776 203.072634 
L 398.083034 202.61158 
L 398.348308 203.204364 
L 398.613581 203.308972 
L 399.409403 201.759212 
L 399.674677 203.285726 
L 399.939951 202.913783 
L 400.470498 201.685598 
L 400.735772 201.375646 
L 401.001046 200.37605 
L 401.26632 200.689877 
L 401.531594 198.721681 
L 401.796868 198.477594 
L 402.327415 198.756551 
L 402.592689 202.727812 
L 402.857963 205.00596 
L 403.123237 205.877701 
L 403.388511 203.556934 
L 403.919059 201.80183 
L 404.184332 200.426418 
L 404.449606 201.708845 
L 404.71488 199.368706 
L 404.980154 199.109121 
L 405.245428 198.206386 
L 405.510702 198.589951 
L 405.775976 200.461287 
L 406.041249 200.399297 
L 406.306523 199.605045 
L 406.837071 196.377668 
L 407.367619 193.793442 
L 407.632893 193.495113 
L 407.898166 193.51836 
L 408.428714 185.986523 
L 408.959262 184.367023 
L 409.755083 190.538945 
L 410.020357 191.406811 
L 410.285631 190.531196 
L 410.550905 189.233272 
L 410.816179 189.33788 
L 411.081453 188.202681 
L 411.346727 188.400275 
L 412.142548 183.603766 
L 412.673096 182.681659 
L 412.93837 182.995485 
L 413.203644 181.306246 
L 413.468917 178.803383 
L 413.734191 177.493835 
L 413.999465 177.443468 
L 414.264739 175.692238 
L 414.530013 173.104138 
L 415.325834 170.132472 
L 415.591108 167.904691 
L 415.856382 167.025202 
L 416.38693 164.623073 
L 416.652204 162.445659 
L 416.917478 157.928107 
L 417.182751 158.954824 
L 417.448025 159.028437 
L 417.978573 155.711949 
L 418.509121 150.876696 
L 419.039668 153.468671 
L 419.304942 152.186244 
L 420.366038 141.151948 
L 420.896585 132.701879 
L 421.161859 130.822794 
L 421.427133 130.725934 
L 421.692407 132.264022 
L 421.957681 132.271105 
L 422.222955 130.104705 
L 422.753502 124.247098 
L 423.28405 118.828562 
L 425.406241 94.172406 
L 425.936789 89.550045 
L 426.202063 91.688275 
L 426.467336 98.904087 
L 426.997884 96.70094 
L 427.263158 95.871818 
L 427.528432 94.194202 
L 428.05898 89.068369 
L 428.854801 84.74033 
L 428.854801 84.74033 
" style="fill:none;stroke:#165aa7;stroke-width:3;"/>
   </g>
   <g id="line2d_29">
    <path clip-path="url(#pc80513b636)" d="M 317.970329 227.295392 
L 331.234022 227.585972 
L 344.497715 227.690581 
L 357.761408 228.054775 
L 371.290374 228.190379 
L 376.595851 228.562322 
L 384.554067 228.523578 
L 389.59427 228.899395 
L 394.103926 228.659182 
L 394.3692 228.635935 
L 394.634474 228.740544 
L 394.899747 228.585568 
L 395.165021 228.926515 
L 395.430295 228.66693 
L 395.960843 228.535201 
L 396.226117 228.628186 
L 396.491391 228.899395 
L 396.756664 228.302737 
L 397.021938 228.302737 
L 397.287212 228.608814 
L 398.613581 228.124514 
L 398.878855 228.221374 
L 399.144129 228.136137 
L 399.409403 228.399597 
L 399.674677 228.368602 
L 399.939951 227.868804 
L 401.001046 228.035403 
L 401.26632 227.814562 
L 401.531594 227.92692 
L 401.796868 227.806813 
L 402.062142 227.888176 
L 402.327415 228.442215 
L 402.592689 227.930794 
L 402.857963 228.271741 
L 403.388511 227.864929 
L 403.653785 228.047026 
L 403.919059 227.888176 
L 404.980154 227.833934 
L 405.245428 227.69833 
L 406.041249 227.814562 
L 406.837071 227.992785 
L 407.102345 227.888176 
L 407.632893 228.066398 
L 408.959262 227.880427 
L 409.48981 228.093519 
L 409.755083 228.353104 
L 410.816179 228.368602 
L 411.346727 228.306611 
L 411.877274 228.043152 
L 412.142548 228.016031 
L 412.407822 227.864929 
L 412.673096 227.992785 
L 412.93837 227.771944 
L 413.203644 227.764195 
L 413.468917 227.543354 
L 414.264739 227.380629 
L 414.530013 227.121044 
L 414.795287 227.430996 
L 415.060561 227.485238 
L 415.325834 227.210155 
L 415.591108 227.194658 
L 416.121656 226.830464 
L 416.652204 227.043556 
L 416.917478 226.92345 
L 417.182751 226.98544 
L 417.448025 226.652242 
L 417.713299 226.702609 
L 418.243847 226.226057 
L 418.509121 226.663865 
L 419.039668 226.160193 
L 419.304942 226.109825 
L 419.570216 225.749506 
L 420.631312 225.245834 
L 421.161859 224.350847 
L 421.427133 224.10676 
L 421.692407 224.202418 
L 422.488229 223.456252 
L 423.549324 222.073546 
L 423.814598 221.701762 
L 424.079872 221.526077 
L 424.345146 221.197644 
L 424.610419 221.069525 
L 425.406241 219.032655 
L 428.05898 209.744353 
L 428.854801 205.821527 
L 428.854801 205.821527 
" style="fill:none;stroke:#06ab54;stroke-width:3;"/>
   </g>
   <g id="line2d_30">
    <path clip-path="url(#pc80513b636)" d="M 87.182074 229.876364 
L 158.806015 228.280846 
L 233.082695 228.933838 
L 278.179251 228.835273 
L 317.970329 228.081896 
L 350.068466 228.034434 
L 357.761408 228.500331 
L 371.0251 227.090049 
L 376.330578 227.090049 
L 384.288793 226.628995 
L 390.655366 225.964574 
L 393.573378 225.495033 
L 393.838652 225.095189 
L 394.103926 225.034565 
L 394.3692 225.514839 
L 394.634474 225.394867 
L 394.899747 225.01114 
L 395.165021 225.413452 
L 395.430295 225.057143 
L 395.695569 225.093012 
L 395.960843 224.38022 
L 396.226117 224.359272 
L 396.491391 224.814058 
L 396.756664 224.813796 
L 397.021938 223.541661 
L 397.287212 224.038736 
L 397.81776 223.81806 
L 398.083034 224.394368 
L 398.348308 223.653952 
L 398.613581 223.750349 
L 398.878855 224.012802 
L 399.144129 223.169243 
L 399.674677 223.060991 
L 400.205225 223.215741 
L 400.470498 222.894945 
L 401.001046 222.775419 
L 401.26632 223.057557 
L 401.531594 222.459888 
L 401.796868 221.230842 
L 402.062142 220.799471 
L 402.327415 220.672149 
L 402.592689 219.719754 
L 402.857963 220.670312 
L 403.123237 219.622713 
L 403.653785 219.625822 
L 404.184332 218.964057 
L 404.449606 219.180306 
L 404.71488 219.225432 
L 404.980154 218.422565 
L 405.245428 217.992618 
L 405.510702 219.274962 
L 405.775976 219.326482 
L 406.306523 217.521046 
L 406.571797 217.641593 
L 406.837071 217.371876 
L 407.632893 215.699924 
L 407.898166 213.580852 
L 408.428714 212.87394 
L 408.693988 213.058749 
L 408.959262 213.49613 
L 409.224536 213.533092 
L 409.755083 221.455236 
L 410.020357 221.689327 
L 410.285631 221.12258 
L 410.550905 221.085618 
L 410.816179 220.329218 
L 411.612 216.911996 
L 411.877274 216.245599 
L 413.203644 210.244151 
L 414.530013 197.187418 
L 414.795287 195.544672 
L 415.325834 188.024458 
L 416.121656 172.201402 
L 416.38693 170.186714 
L 416.917478 161.577793 
L 417.182751 163.363893 
L 417.448025 162.135707 
L 417.978573 157.687894 
L 418.774395 149.264945 
L 419.83549 140.958228 
L 420.896585 126.061154 
L 421.692407 112.716047 
L 421.957681 112.172144 
L 422.222955 112.393586 
L 422.488229 111.561489 
L 423.018776 105.173643 
L 423.28405 104.189023 
L 423.549324 106.049148 
L 423.814598 106.683275 
L 424.079872 103.520631 
L 424.345146 103.382763 
L 424.610419 103.580325 
L 424.875693 101.935457 
L 425.406241 97.139693 
L 425.936789 93.129854 
L 426.202063 94.665997 
L 426.467336 102.051446 
L 426.73261 96.544404 
L 426.997884 96.669944 
L 427.793706 90.633627 
L 428.324253 87.038182 
L 428.589527 83.358036 
L 428.854801 82.354774 
L 428.854801 82.354774 
" style="fill:none;stroke:#bb60d5;stroke-width:3;"/>
   </g>
   <g id="line2d_31">
    <path clip-path="url(#pc80513b636)" d="M 331.234022 228.717298 
L 349.803192 225.338875 
L 364.393254 222.820459 
L 371.0251 222.330393 
L 371.555648 221.981728 
L 371.820922 222.156061 
L 372.086196 222.166023 
L 372.882017 221.662949 
L 373.147291 222.405107 
L 373.677839 221.633063 
L 373.943113 221.418883 
L 374.208387 221.608158 
L 375.004208 221.329226 
L 375.269482 221.767548 
L 376.330578 221.8323 
L 376.595851 221.67291 
L 376.861125 221.379035 
L 377.126399 221.498578 
L 377.656947 220.965618 
L 378.452768 220.841095 
L 378.718042 221.214665 
L 379.24859 219.695481 
L 379.779138 218.788952 
L 380.044412 219.426511 
L 380.309685 218.94336 
L 380.574959 218.749104 
L 380.840233 219.172483 
L 381.105507 219.292026 
L 381.370781 218.664428 
L 381.636055 219.331873 
L 382.166602 219.705443 
L 382.431876 219.506206 
L 382.69715 218.813856 
L 383.492972 218.171316 
L 383.758246 217.807708 
L 384.023519 218.181278 
L 384.288793 218.121507 
L 384.819341 216.806541 
L 385.084615 215.755565 
L 385.349889 215.710736 
L 385.615163 216.069363 
L 385.880436 215.735641 
L 386.14571 216.089287 
L 386.410984 216.009592 
L 386.941532 215.137929 
L 387.206806 215.486595 
L 387.47208 214.963597 
L 387.737353 213.852849 
L 388.002627 213.250157 
L 388.267901 214.226419 
L 388.533175 214.370866 
L 388.798449 213.783116 
L 389.063723 213.53407 
L 389.328997 213.040958 
L 389.59427 213.583879 
L 390.390092 212.368532 
L 390.655366 212.956282 
L 390.92064 212.41336 
L 391.185914 212.62754 
L 391.451187 212.438265 
L 391.716461 212.049752 
L 392.247009 207.955427 
L 392.512283 207.716343 
L 392.777557 206.784909 
L 393.04283 206.779928 
L 393.308104 206.919394 
L 393.573378 207.302926 
L 393.838652 207.118631 
L 394.103926 206.555786 
L 394.3692 207.213269 
L 394.634474 206.212102 
L 394.899747 206.371492 
L 395.165021 205.803665 
L 395.430295 203.816274 
L 395.960843 206.969203 
L 396.226117 204.453833 
L 396.491391 205.514771 
L 396.756664 203.497495 
L 397.021938 203.4178 
L 397.287212 201.355694 
L 397.552486 201.051858 
L 397.81776 198.212727 
L 398.083034 198.54645 
L 398.348308 197.550263 
L 398.613581 198.626144 
L 398.878855 196.852933 
L 399.144129 193.525671 
L 399.409403 193.640233 
L 399.674677 197.4161 
L 399.939951 194.230792 
L 400.205225 194.85587 
L 400.470498 194.471891 
L 400.735772 193.539409 
L 401.001046 193.030304 
L 401.26632 196.949638 
L 401.531594 196.686935 
L 401.796868 192.587264 
L 402.062142 194.343305 
L 402.327415 191.622593 
L 402.592689 191.705991 
L 402.857963 192.856119 
L 403.123237 194.708264 
L 403.388511 193.410979 
L 403.653785 189.298195 
L 404.184332 188.993942 
L 404.449606 187.064506 
L 404.980154 187.826596 
L 405.245428 185.877128 
L 406.041249 199.723197 
L 406.306523 201.010582 
L 406.571797 198.612842 
L 407.367619 188.430887 
L 407.632893 191.410168 
L 408.16344 185.680077 
L 408.959262 170.007649 
L 409.224536 166.330416 
L 409.48981 168.351984 
L 409.755083 174.764449 
L 410.020357 176.743955 
L 410.285631 175.106304 
L 410.550905 177.189028 
L 411.081453 169.717911 
L 411.346727 168.481977 
L 411.612 166.649385 
L 411.877274 168.218518 
L 412.142548 164.894281 
L 412.673096 164.754803 
L 412.93837 166.537027 
L 413.203644 162.840848 
L 413.734191 161.775388 
L 414.795287 149.319187 
L 415.060561 144.906244 
L 415.325834 143.693556 
L 415.856382 138.451491 
L 416.121656 139.369724 
L 416.38693 137.680485 
L 416.917478 129.125806 
L 417.448025 131.62867 
L 418.509121 116.158184 
L 418.774395 117.467732 
L 419.039668 115.743623 
L 419.304942 119.021367 
L 419.570216 115.348434 
L 419.83549 107.917332 
L 421.161859 89.785133 
L 421.427133 88.909518 
L 421.692407 90.916622 
L 423.018776 75.617411 
L 424.079872 54.410024 
L 424.345146 54.442806 
L 424.610419 52.938428 
L 424.875693 49.483626 
L 425.406241 39.810152 
L 425.671515 36.574645 
L 425.936789 34.978838 
L 426.202063 37.404207 
L 426.467336 44.466516 
L 426.73261 41.312821 
L 426.997884 39.731739 
L 428.589527 22.944849 
L 428.854801 17.803636 
L 428.854801 17.803636 
" style="fill:none;stroke:#cb495c;stroke-width:3;"/>
   </g>
   <g id="patch_3">
    <path d="M 70.098438 240.48 
L 70.098438 7.2 
" style="fill:none;stroke:#ffffff;stroke-linecap:square;stroke-linejoin:miter;stroke-width:3;"/>
   </g>
   <g id="patch_4">
    <path d="M 445.938437 240.48 
L 445.938437 7.2 
" style="fill:none;stroke:#ffffff;stroke-linecap:square;stroke-linejoin:miter;stroke-width:3;"/>
   </g>
   <g id="patch_5">
    <path d="M 70.098438 240.48 
L 445.938437 240.48 
" style="fill:none;stroke:#ffffff;stroke-linecap:square;stroke-linejoin:miter;stroke-width:3;"/>
   </g>
   <g id="patch_6">
    <path d="M 70.098438 7.2 
L 445.938437 7.2 
" style="fill:none;stroke:#ffffff;stroke-linecap:square;stroke-linejoin:miter;stroke-width:3;"/>
   </g>
   <g id="text_16">
    <!-- United Kingdom -->
    <defs>
     <path d="M 6.59375 0 
L 6.59375 51.859375 
L 14.5 51.859375 
L 14.5 44.484375 
Q 20.21875 53.03125 31 53.03125 
Q 35.6875 53.03125 39.625 51.34375 
Q 43.5625 49.65625 45.515625 46.921875 
Q 47.46875 44.1875 48.25 40.4375 
Q 48.734375 37.984375 48.734375 31.890625 
L 48.734375 0 
L 39.9375 0 
L 39.9375 31.546875 
Q 39.9375 36.921875 38.90625 39.578125 
Q 37.890625 42.234375 35.28125 43.8125 
Q 32.671875 45.40625 29.15625 45.40625 
Q 23.53125 45.40625 19.453125 41.84375 
Q 15.375 38.28125 15.375 28.328125 
L 15.375 0 
z
" id="ArialMT-110"/>
     <path d="M 40.234375 0 
L 40.234375 6.546875 
Q 35.296875 -1.171875 25.734375 -1.171875 
Q 19.53125 -1.171875 14.328125 2.25 
Q 9.125 5.671875 6.265625 11.796875 
Q 3.421875 17.921875 3.421875 25.875 
Q 3.421875 33.640625 6 39.96875 
Q 8.59375 46.296875 13.765625 49.65625 
Q 18.953125 53.03125 25.34375 53.03125 
Q 30.03125 53.03125 33.6875 51.046875 
Q 37.359375 49.078125 39.65625 45.90625 
L 39.65625 71.578125 
L 48.390625 71.578125 
L 48.390625 0 
z
M 12.453125 25.875 
Q 12.453125 15.921875 16.640625 10.984375 
Q 20.84375 6.0625 26.5625 6.0625 
Q 32.328125 6.0625 36.34375 10.765625 
Q 40.375 15.484375 40.375 25.140625 
Q 40.375 35.796875 36.265625 40.765625 
Q 32.171875 45.75 26.171875 45.75 
Q 20.3125 45.75 16.375 40.96875 
Q 12.453125 36.1875 12.453125 25.875 
z
" id="ArialMT-100"/>
     <path d="M 7.328125 0 
L 7.328125 71.578125 
L 16.796875 71.578125 
L 16.796875 36.078125 
L 52.34375 71.578125 
L 65.1875 71.578125 
L 35.15625 42.578125 
L 66.5 0 
L 54 0 
L 28.515625 36.234375 
L 16.796875 24.8125 
L 16.796875 0 
z
" id="ArialMT-75"/>
     <path d="M 4.984375 -4.296875 
L 13.53125 -5.5625 
Q 14.0625 -9.515625 16.5 -11.328125 
Q 19.78125 -13.765625 25.4375 -13.765625 
Q 31.546875 -13.765625 34.859375 -11.328125 
Q 38.1875 -8.890625 39.359375 -4.5 
Q 40.046875 -1.8125 39.984375 6.78125 
Q 34.234375 0 25.640625 0 
Q 14.9375 0 9.078125 7.71875 
Q 3.21875 15.4375 3.21875 26.21875 
Q 3.21875 33.640625 5.90625 39.90625 
Q 8.59375 46.1875 13.6875 49.609375 
Q 18.796875 53.03125 25.6875 53.03125 
Q 34.859375 53.03125 40.828125 45.609375 
L 40.828125 51.859375 
L 48.921875 51.859375 
L 48.921875 7.03125 
Q 48.921875 -5.078125 46.453125 -10.125 
Q 44 -15.1875 38.640625 -18.109375 
Q 33.296875 -21.046875 25.484375 -21.046875 
Q 16.21875 -21.046875 10.5 -16.875 
Q 4.78125 -12.703125 4.984375 -4.296875 
z
M 12.25 26.859375 
Q 12.25 16.65625 16.296875 11.96875 
Q 20.359375 7.28125 26.46875 7.28125 
Q 32.515625 7.28125 36.609375 11.9375 
Q 40.71875 16.609375 40.71875 26.5625 
Q 40.71875 36.078125 36.5 40.90625 
Q 32.28125 45.75 26.3125 45.75 
Q 20.453125 45.75 16.34375 40.984375 
Q 12.25 36.234375 12.25 26.859375 
z
" id="ArialMT-103"/>
     <path d="M 3.328125 25.921875 
Q 3.328125 40.328125 11.328125 47.265625 
Q 18.015625 53.03125 27.640625 53.03125 
Q 38.328125 53.03125 45.109375 46.015625 
Q 51.90625 39.015625 51.90625 26.65625 
Q 51.90625 16.65625 48.90625 10.90625 
Q 45.90625 5.171875 40.15625 2 
Q 34.421875 -1.171875 27.640625 -1.171875 
Q 16.75 -1.171875 10.03125 5.8125 
Q 3.328125 12.796875 3.328125 25.921875 
z
M 12.359375 25.921875 
Q 12.359375 15.96875 16.703125 11.015625 
Q 21.046875 6.0625 27.640625 6.0625 
Q 34.1875 6.0625 38.53125 11.03125 
Q 42.875 16.015625 42.875 26.21875 
Q 42.875 35.84375 38.5 40.796875 
Q 34.125 45.75 27.640625 45.75 
Q 21.046875 45.75 16.703125 40.8125 
Q 12.359375 35.890625 12.359375 25.921875 
z
" id="ArialMT-111"/>
     <path d="M 6.59375 0 
L 6.59375 51.859375 
L 14.453125 51.859375 
L 14.453125 44.578125 
Q 16.890625 48.390625 20.9375 50.703125 
Q 25 53.03125 30.171875 53.03125 
Q 35.9375 53.03125 39.625 50.640625 
Q 43.3125 48.25 44.828125 43.953125 
Q 50.984375 53.03125 60.84375 53.03125 
Q 68.5625 53.03125 72.703125 48.75 
Q 76.859375 44.484375 76.859375 35.59375 
L 76.859375 0 
L 68.109375 0 
L 68.109375 32.671875 
Q 68.109375 37.9375 67.25 40.25 
Q 66.40625 42.578125 64.15625 43.984375 
Q 61.921875 45.40625 58.890625 45.40625 
Q 53.421875 45.40625 49.796875 41.765625 
Q 46.1875 38.140625 46.1875 30.125 
L 46.1875 0 
L 37.40625 0 
L 37.40625 33.6875 
Q 37.40625 39.546875 35.25 42.46875 
Q 33.109375 45.40625 28.21875 45.40625 
Q 24.515625 45.40625 21.359375 43.453125 
Q 18.21875 41.5 16.796875 37.734375 
Q 15.375 33.984375 15.375 26.90625 
L 15.375 0 
z
" id="ArialMT-109"/>
    </defs>
    <g style="fill:#165aa7;" transform="translate(429.385349 84.74033)scale(0.14 -0.14)">
     <use xlink:href="#ArialMT-85"/>
     <use x="72.216797" xlink:href="#ArialMT-110"/>
     <use x="127.832031" xlink:href="#ArialMT-105"/>
     <use x="150.048828" xlink:href="#ArialMT-116"/>
     <use x="177.832031" xlink:href="#ArialMT-101"/>
     <use x="233.447266" xlink:href="#ArialMT-100"/>
     <use x="289.0625" xlink:href="#ArialMT-32"/>
     <use x="316.845703" xlink:href="#ArialMT-75"/>
     <use x="383.544922" xlink:href="#ArialMT-105"/>
     <use x="405.761719" xlink:href="#ArialMT-110"/>
     <use x="461.376953" xlink:href="#ArialMT-103"/>
     <use x="516.992188" xlink:href="#ArialMT-100"/>
     <use x="572.607422" xlink:href="#ArialMT-111"/>
     <use x="628.222656" xlink:href="#ArialMT-109"/>
    </g>
   </g>
   <g id="text_17">
    <!-- United States -->
    <defs>
     <path d="M 3.078125 15.484375 
L 11.765625 16.84375 
Q 12.5 11.625 15.84375 8.84375 
Q 19.1875 6.0625 25.203125 6.0625 
Q 31.25 6.0625 34.171875 8.515625 
Q 37.109375 10.984375 37.109375 14.3125 
Q 37.109375 17.28125 34.515625 19 
Q 32.71875 20.171875 25.53125 21.96875 
Q 15.875 24.421875 12.140625 26.203125 
Q 8.40625 27.984375 6.46875 31.125 
Q 4.546875 34.28125 4.546875 38.09375 
Q 4.546875 41.546875 6.125 44.5 
Q 7.71875 47.46875 10.453125 49.421875 
Q 12.5 50.921875 16.03125 51.96875 
Q 19.578125 53.03125 23.640625 53.03125 
Q 29.734375 53.03125 34.34375 51.265625 
Q 38.96875 49.515625 41.15625 46.5 
Q 43.359375 43.5 44.1875 38.484375 
L 35.59375 37.3125 
Q 35.015625 41.3125 32.203125 43.546875 
Q 29.390625 45.796875 24.265625 45.796875 
Q 18.21875 45.796875 15.625 43.796875 
Q 13.03125 41.796875 13.03125 39.109375 
Q 13.03125 37.40625 14.109375 36.03125 
Q 15.1875 34.625 17.484375 33.6875 
Q 18.796875 33.203125 25.25 31.453125 
Q 34.578125 28.953125 38.25 27.359375 
Q 41.9375 25.78125 44.03125 22.75 
Q 46.140625 19.734375 46.140625 15.234375 
Q 46.140625 10.84375 43.578125 6.953125 
Q 41.015625 3.078125 36.171875 0.953125 
Q 31.34375 -1.171875 25.25 -1.171875 
Q 15.140625 -1.171875 9.84375 3.03125 
Q 4.546875 7.234375 3.078125 15.484375 
z
" id="ArialMT-115"/>
    </defs>
    <g style="fill:#cb495c;" transform="translate(429.385349 17.803636)scale(0.14 -0.14)">
     <use xlink:href="#ArialMT-85"/>
     <use x="72.216797" xlink:href="#ArialMT-110"/>
     <use x="127.832031" xlink:href="#ArialMT-105"/>
     <use x="150.048828" xlink:href="#ArialMT-116"/>
     <use x="177.832031" xlink:href="#ArialMT-101"/>
     <use x="233.447266" xlink:href="#ArialMT-100"/>
     <use x="289.0625" xlink:href="#ArialMT-32"/>
     <use x="316.845703" xlink:href="#ArialMT-83"/>
     <use x="383.544922" xlink:href="#ArialMT-116"/>
     <use x="411.328125" xlink:href="#ArialMT-97"/>
     <use x="466.943359" xlink:href="#ArialMT-116"/>
     <use x="494.726562" xlink:href="#ArialMT-101"/>
     <use x="550.341797" xlink:href="#ArialMT-115"/>
    </g>
   </g>
   <g id="text_18">
    <!-- Japan -->
    <defs>
     <path d="M 2.875 20.3125 
L 11.421875 21.484375 
Q 11.765625 13.28125 14.5 10.25 
Q 17.234375 7.234375 22.078125 7.234375 
Q 25.640625 7.234375 28.21875 8.859375 
Q 30.8125 10.5 31.78125 13.296875 
Q 32.765625 16.109375 32.765625 22.265625 
L 32.765625 71.578125 
L 42.234375 71.578125 
L 42.234375 22.796875 
Q 42.234375 13.8125 40.0625 8.875 
Q 37.890625 3.953125 33.171875 1.359375 
Q 28.46875 -1.21875 22.125 -1.21875 
Q 12.703125 -1.21875 7.6875 4.203125 
Q 2.6875 9.625 2.875 20.3125 
z
" id="ArialMT-74"/>
    </defs>
    <g style="fill:#bb60d5;" transform="translate(429.385349 72.66877)scale(0.14 -0.14)">
     <use xlink:href="#ArialMT-74"/>
     <use x="50" xlink:href="#ArialMT-97"/>
     <use x="105.615234" xlink:href="#ArialMT-112"/>
     <use x="161.230469" xlink:href="#ArialMT-97"/>
     <use x="216.845703" xlink:href="#ArialMT-110"/>
    </g>
   </g>
   <g id="text_19">
    <!-- China -->
    <defs>
     <path d="M 58.796875 25.09375 
L 68.265625 22.703125 
Q 65.28125 11.03125 57.546875 4.90625 
Q 49.8125 -1.21875 38.625 -1.21875 
Q 27.046875 -1.21875 19.796875 3.484375 
Q 12.546875 8.203125 8.765625 17.140625 
Q 4.984375 26.078125 4.984375 36.328125 
Q 4.984375 47.515625 9.25 55.828125 
Q 13.53125 64.15625 21.40625 68.46875 
Q 29.296875 72.796875 38.765625 72.796875 
Q 49.515625 72.796875 56.828125 67.328125 
Q 64.15625 61.859375 67.046875 51.953125 
L 57.71875 49.75 
Q 55.21875 57.5625 50.484375 61.125 
Q 45.75 64.703125 38.578125 64.703125 
Q 30.328125 64.703125 24.78125 60.734375 
Q 19.234375 56.78125 16.984375 50.109375 
Q 14.75 43.453125 14.75 36.375 
Q 14.75 27.25 17.40625 20.4375 
Q 20.0625 13.625 25.671875 10.25 
Q 31.296875 6.890625 37.84375 6.890625 
Q 45.796875 6.890625 51.3125 11.46875 
Q 56.84375 16.0625 58.796875 25.09375 
z
" id="ArialMT-67"/>
     <path d="M 6.59375 0 
L 6.59375 71.578125 
L 15.375 71.578125 
L 15.375 45.90625 
Q 21.53125 53.03125 30.90625 53.03125 
Q 36.671875 53.03125 40.921875 50.75 
Q 45.171875 48.484375 47 44.484375 
Q 48.828125 40.484375 48.828125 32.859375 
L 48.828125 0 
L 40.046875 0 
L 40.046875 32.859375 
Q 40.046875 39.453125 37.1875 42.453125 
Q 34.328125 45.453125 29.109375 45.453125 
Q 25.203125 45.453125 21.75 43.421875 
Q 18.3125 41.40625 16.84375 37.9375 
Q 15.375 34.46875 15.375 28.375 
L 15.375 0 
z
" id="ArialMT-104"/>
    </defs>
    <g style="fill:#f47915;" transform="translate(429.385349 181.431364)scale(0.14 -0.14)">
     <use xlink:href="#ArialMT-67"/>
     <use x="72.216797" xlink:href="#ArialMT-104"/>
     <use x="127.832031" xlink:href="#ArialMT-105"/>
     <use x="150.048828" xlink:href="#ArialMT-110"/>
     <use x="205.664062" xlink:href="#ArialMT-97"/>
    </g>
   </g>
   <g id="text_20">
    <!-- India -->
    <defs>
     <path d="M 9.328125 0 
L 9.328125 71.578125 
L 18.796875 71.578125 
L 18.796875 0 
z
" id="ArialMT-73"/>
    </defs>
    <g style="fill:#06ab54;" transform="translate(429.385349 205.821527)scale(0.14 -0.14)">
     <use xlink:href="#ArialMT-73"/>
     <use x="27.783203" xlink:href="#ArialMT-110"/>
     <use x="83.398438" xlink:href="#ArialMT-100"/>
     <use x="139.013672" xlink:href="#ArialMT-105"/>
     <use x="161.230469" xlink:href="#ArialMT-97"/>
    </g>
   </g>
  </g>
 </g>
 <defs>
  <clipPath id="pc80513b636">
   <rect height="233.28" width="375.84" x="70.098438" y="7.2"/>
  </clipPath>
 </defs>
</svg>
