<?xml version="1.0" encoding="utf-8" standalone="no"?>
<!DOCTYPE svg PUBLIC "-//W3C//DTD SVG 1.1//EN"
  "http://www.w3.org/Graphics/SVG/1.1/DTD/svg11.dtd">
<!-- Created with matplotlib (https://matplotlib.org/) -->
<svg height="302.39845pt" version="1.1" viewBox="0 0 506.531767 302.39845" width="506.531767pt" xmlns="http://www.w3.org/2000/svg" xmlns:xlink="http://www.w3.org/1999/xlink">
 <defs>
  <style type="text/css">
*{stroke-linecap:butt;stroke-linejoin:round;}
  </style>
 </defs>
 <g id="figure_1">
  <g id="patch_1">
   <path d="M 0 302.39845 
L 506.531767 302.39845 
L 506.531767 0 
L 0 0 
z
" style="fill:#ffffff;"/>
  </g>
  <g id="axes_1">
   <g id="patch_2">
    <path d="M 79.195438 224.777301 
L 413.995438 224.777301 
L 413.995438 7.337301 
L 79.195438 7.337301 
z
" style="fill:#ffffff;"/>
   </g>
   <g id="matplotlib.axis_1">
    <g id="xtick_1">
     <g id="line2d_1">
      <path clip-path="url(#p7b5228cafb)" d="M 99.147113 224.777301 
L 99.147113 7.337301 
" style="fill:none;stroke:#cccccc;stroke-linecap:round;stroke-opacity:0.9;"/>
     </g>
     <g id="text_1">
      <!-- 750 -->
      <defs>
       <path d="M 4.734375 62.203125 
L 4.734375 70.65625 
L 51.078125 70.65625 
L 51.078125 63.8125 
Q 44.234375 56.546875 37.515625 44.484375 
Q 30.8125 32.421875 27.15625 19.671875 
Q 24.515625 10.6875 23.78125 0 
L 14.75 0 
Q 14.890625 8.453125 18.0625 20.40625 
Q 21.234375 32.375 27.171875 43.484375 
Q 33.109375 54.59375 39.796875 62.203125 
z
" id="ArialMT-55"/>
       <path d="M 4.15625 18.75 
L 13.375 19.53125 
Q 14.40625 12.796875 18.140625 9.390625 
Q 21.875 6 27.15625 6 
Q 33.5 6 37.890625 10.78125 
Q 42.28125 15.578125 42.28125 23.484375 
Q 42.28125 31 38.0625 35.34375 
Q 33.84375 39.703125 27 39.703125 
Q 22.75 39.703125 19.328125 37.765625 
Q 15.921875 35.84375 13.96875 32.765625 
L 5.71875 33.84375 
L 12.640625 70.609375 
L 48.25 70.609375 
L 48.25 62.203125 
L 19.671875 62.203125 
L 15.828125 42.96875 
Q 22.265625 47.46875 29.34375 47.46875 
Q 38.71875 47.46875 45.15625 40.96875 
Q 51.609375 34.46875 51.609375 24.265625 
Q 51.609375 14.546875 45.953125 7.46875 
Q 39.0625 -1.21875 27.15625 -1.21875 
Q 17.390625 -1.21875 11.203125 4.25 
Q 5.03125 9.71875 4.15625 18.75 
z
" id="ArialMT-53"/>
       <path d="M 4.15625 35.296875 
Q 4.15625 48 6.765625 55.734375 
Q 9.375 63.484375 14.515625 67.671875 
Q 19.671875 71.875 27.484375 71.875 
Q 33.25 71.875 37.59375 69.546875 
Q 41.9375 67.234375 44.765625 62.859375 
Q 47.609375 58.5 49.21875 52.21875 
Q 50.828125 45.953125 50.828125 35.296875 
Q 50.828125 22.703125 48.234375 14.96875 
Q 45.65625 7.234375 40.5 3 
Q 35.359375 -1.21875 27.484375 -1.21875 
Q 17.140625 -1.21875 11.234375 6.203125 
Q 4.15625 15.140625 4.15625 35.296875 
z
M 13.1875 35.296875 
Q 13.1875 17.671875 17.3125 11.828125 
Q 21.4375 6 27.484375 6 
Q 33.546875 6 37.671875 11.859375 
Q 41.796875 17.71875 41.796875 35.296875 
Q 41.796875 52.984375 37.671875 58.78125 
Q 33.546875 64.59375 27.390625 64.59375 
Q 21.34375 64.59375 17.71875 59.46875 
Q 13.1875 52.9375 13.1875 35.296875 
z
" id="ArialMT-48"/>
      </defs>
      <g style="fill:#262626;" transform="translate(87.469144 248.298239)scale(0.14 -0.14)">
       <use xlink:href="#ArialMT-55"/>
       <use x="55.615234" xlink:href="#ArialMT-53"/>
       <use x="111.230469" xlink:href="#ArialMT-48"/>
      </g>
     </g>
    </g>
    <g id="xtick_2">
     <g id="line2d_2">
      <path clip-path="url(#p7b5228cafb)" d="M 158.315782 224.777301 
L 158.315782 7.337301 
" style="fill:none;stroke:#cccccc;stroke-linecap:round;stroke-opacity:0.9;"/>
     </g>
     <g id="text_2">
      <!-- 1000 -->
      <defs>
       <path d="M 37.25 0 
L 28.46875 0 
L 28.46875 56 
Q 25.296875 52.984375 20.140625 49.953125 
Q 14.984375 46.921875 10.890625 45.40625 
L 10.890625 53.90625 
Q 18.265625 57.375 23.78125 62.296875 
Q 29.296875 67.234375 31.59375 71.875 
L 37.25 71.875 
z
" id="ArialMT-49"/>
      </defs>
      <g style="fill:#262626;" transform="translate(142.745157 248.298239)scale(0.14 -0.14)">
       <use xlink:href="#ArialMT-49"/>
       <use x="55.615234" xlink:href="#ArialMT-48"/>
       <use x="111.230469" xlink:href="#ArialMT-48"/>
       <use x="166.845703" xlink:href="#ArialMT-48"/>
      </g>
     </g>
    </g>
    <g id="xtick_3">
     <g id="line2d_3">
      <path clip-path="url(#p7b5228cafb)" d="M 217.484452 224.777301 
L 217.484452 7.337301 
" style="fill:none;stroke:#cccccc;stroke-linecap:round;stroke-opacity:0.9;"/>
     </g>
     <g id="text_3">
      <!-- 1250 -->
      <defs>
       <path d="M 50.34375 8.453125 
L 50.34375 0 
L 3.03125 0 
Q 2.9375 3.171875 4.046875 6.109375 
Q 5.859375 10.9375 9.828125 15.625 
Q 13.8125 20.3125 21.34375 26.46875 
Q 33.015625 36.03125 37.109375 41.625 
Q 41.21875 47.21875 41.21875 52.203125 
Q 41.21875 57.421875 37.46875 61 
Q 33.734375 64.59375 27.734375 64.59375 
Q 21.390625 64.59375 17.578125 60.78125 
Q 13.765625 56.984375 13.71875 50.25 
L 4.6875 51.171875 
Q 5.609375 61.28125 11.65625 66.578125 
Q 17.71875 71.875 27.9375 71.875 
Q 38.234375 71.875 44.234375 66.15625 
Q 50.25 60.453125 50.25 52 
Q 50.25 47.703125 48.484375 43.546875 
Q 46.734375 39.40625 42.65625 34.8125 
Q 38.578125 30.21875 29.109375 22.21875 
Q 21.1875 15.578125 18.9375 13.203125 
Q 16.703125 10.84375 15.234375 8.453125 
z
" id="ArialMT-50"/>
      </defs>
      <g style="fill:#262626;" transform="translate(201.913827 248.298239)scale(0.14 -0.14)">
       <use xlink:href="#ArialMT-49"/>
       <use x="55.615234" xlink:href="#ArialMT-50"/>
       <use x="111.230469" xlink:href="#ArialMT-53"/>
       <use x="166.845703" xlink:href="#ArialMT-48"/>
      </g>
     </g>
    </g>
    <g id="xtick_4">
     <g id="line2d_4">
      <path clip-path="url(#p7b5228cafb)" d="M 276.653122 224.777301 
L 276.653122 7.337301 
" style="fill:none;stroke:#cccccc;stroke-linecap:round;stroke-opacity:0.9;"/>
     </g>
     <g id="text_4">
      <!-- 1500 -->
      <g style="fill:#262626;" transform="translate(261.082497 248.298239)scale(0.14 -0.14)">
       <use xlink:href="#ArialMT-49"/>
       <use x="55.615234" xlink:href="#ArialMT-53"/>
       <use x="111.230469" xlink:href="#ArialMT-48"/>
       <use x="166.845703" xlink:href="#ArialMT-48"/>
      </g>
     </g>
    </g>
    <g id="xtick_5">
     <g id="line2d_5">
      <path clip-path="url(#p7b5228cafb)" d="M 335.821791 224.777301 
L 335.821791 7.337301 
" style="fill:none;stroke:#cccccc;stroke-linecap:round;stroke-opacity:0.9;"/>
     </g>
     <g id="text_5">
      <!-- 1750 -->
      <g style="fill:#262626;" transform="translate(320.251166 248.298239)scale(0.14 -0.14)">
       <use xlink:href="#ArialMT-49"/>
       <use x="55.615234" xlink:href="#ArialMT-55"/>
       <use x="111.230469" xlink:href="#ArialMT-53"/>
       <use x="166.845703" xlink:href="#ArialMT-48"/>
      </g>
     </g>
    </g>
    <g id="xtick_6">
     <g id="line2d_6">
      <path clip-path="url(#p7b5228cafb)" d="M 394.990461 224.777301 
L 394.990461 7.337301 
" style="fill:none;stroke:#cccccc;stroke-linecap:round;stroke-opacity:0.9;"/>
     </g>
     <g id="text_6">
      <!-- 2000 -->
      <g style="fill:#262626;" transform="translate(379.419836 248.298239)scale(0.14 -0.14)">
       <use xlink:href="#ArialMT-50"/>
       <use x="55.615234" xlink:href="#ArialMT-48"/>
       <use x="111.230469" xlink:href="#ArialMT-48"/>
       <use x="166.845703" xlink:href="#ArialMT-48"/>
      </g>
     </g>
    </g>
    <g id="text_7">
     <!-- Year -->
     <defs>
      <path d="M 27.875 0 
L 27.875 30.328125 
L 0.296875 71.578125 
L 11.8125 71.578125 
L 25.921875 50 
Q 29.828125 43.953125 33.203125 37.890625 
Q 36.421875 43.5 41.015625 50.53125 
L 54.890625 71.578125 
L 65.921875 71.578125 
L 37.359375 30.328125 
L 37.359375 0 
z
" id="ArialMT-89"/>
      <path d="M 42.09375 16.703125 
L 51.171875 15.578125 
Q 49.03125 7.625 43.21875 3.21875 
Q 37.40625 -1.171875 28.375 -1.171875 
Q 17 -1.171875 10.328125 5.828125 
Q 3.65625 12.84375 3.65625 25.484375 
Q 3.65625 38.578125 10.390625 45.796875 
Q 17.140625 53.03125 27.875 53.03125 
Q 38.28125 53.03125 44.875 45.953125 
Q 51.46875 38.875 51.46875 26.03125 
Q 51.46875 25.25 51.421875 23.6875 
L 12.75 23.6875 
Q 13.234375 15.140625 17.578125 10.59375 
Q 21.921875 6.0625 28.421875 6.0625 
Q 33.25 6.0625 36.671875 8.59375 
Q 40.09375 11.140625 42.09375 16.703125 
z
M 13.234375 30.90625 
L 42.1875 30.90625 
Q 41.609375 37.453125 38.875 40.71875 
Q 34.671875 45.796875 27.984375 45.796875 
Q 21.921875 45.796875 17.796875 41.75 
Q 13.671875 37.703125 13.234375 30.90625 
z
" id="ArialMT-101"/>
      <path d="M 40.4375 6.390625 
Q 35.546875 2.25 31.03125 0.53125 
Q 26.515625 -1.171875 21.34375 -1.171875 
Q 12.796875 -1.171875 8.203125 3 
Q 3.609375 7.171875 3.609375 13.671875 
Q 3.609375 17.484375 5.34375 20.625 
Q 7.078125 23.78125 9.890625 25.6875 
Q 12.703125 27.59375 16.21875 28.5625 
Q 18.796875 29.25 24.03125 29.890625 
Q 34.671875 31.15625 39.703125 32.90625 
Q 39.75 34.71875 39.75 35.203125 
Q 39.75 40.578125 37.25 42.78125 
Q 33.890625 45.75 27.25 45.75 
Q 21.046875 45.75 18.09375 43.578125 
Q 15.140625 41.40625 13.71875 35.890625 
L 5.125 37.0625 
Q 6.296875 42.578125 8.984375 45.96875 
Q 11.671875 49.359375 16.75 51.1875 
Q 21.828125 53.03125 28.515625 53.03125 
Q 35.15625 53.03125 39.296875 51.46875 
Q 43.453125 49.90625 45.40625 47.53125 
Q 47.359375 45.171875 48.140625 41.546875 
Q 48.578125 39.3125 48.578125 33.453125 
L 48.578125 21.734375 
Q 48.578125 9.46875 49.140625 6.21875 
Q 49.703125 2.984375 51.375 0 
L 42.1875 0 
Q 40.828125 2.734375 40.4375 6.390625 
z
M 39.703125 26.03125 
Q 34.90625 24.078125 25.34375 22.703125 
Q 19.921875 21.921875 17.671875 20.9375 
Q 15.4375 19.96875 14.203125 18.09375 
Q 12.984375 16.21875 12.984375 13.921875 
Q 12.984375 10.40625 15.640625 8.0625 
Q 18.3125 5.71875 23.4375 5.71875 
Q 28.515625 5.71875 32.46875 7.9375 
Q 36.421875 10.15625 38.28125 14.015625 
Q 39.703125 17 39.703125 22.796875 
z
" id="ArialMT-97"/>
      <path d="M 6.5 0 
L 6.5 51.859375 
L 14.40625 51.859375 
L 14.40625 44 
Q 17.4375 49.515625 20 51.265625 
Q 22.5625 53.03125 25.640625 53.03125 
Q 30.078125 53.03125 34.671875 50.203125 
L 31.640625 42.046875 
Q 28.421875 43.953125 25.203125 43.953125 
Q 22.3125 43.953125 20.015625 42.21875 
Q 17.71875 40.484375 16.75 37.40625 
Q 15.28125 32.71875 15.28125 27.15625 
L 15.28125 0 
z
" id="ArialMT-114"/>
     </defs>
     <g style="fill:#262626;" transform="translate(228.864875 267.105864)scale(0.168 -0.168)">
      <use xlink:href="#ArialMT-89"/>
      <use x="66.558594" xlink:href="#ArialMT-101"/>
      <use x="122.173828" xlink:href="#ArialMT-97"/>
      <use x="177.789062" xlink:href="#ArialMT-114"/>
     </g>
    </g>
   </g>
   <g id="matplotlib.axis_2">
    <g id="ytick_1">
     <g id="line2d_7">
      <path clip-path="url(#p7b5228cafb)" d="M 79.195438 216.916422 
L 413.995438 216.916422 
" style="fill:none;stroke:#cccccc;stroke-linecap:round;stroke-opacity:0.9;"/>
     </g>
     <g id="text_8">
      <!-- 0 -->
      <g style="fill:#262626;" transform="translate(57.910125 221.926891)scale(0.14 -0.14)">
       <use xlink:href="#ArialMT-48"/>
      </g>
     </g>
    </g>
    <g id="ytick_2">
     <g id="line2d_8">
      <path clip-path="url(#p7b5228cafb)" d="M 79.195438 179.248689 
L 413.995438 179.248689 
" style="fill:none;stroke:#cccccc;stroke-linecap:round;stroke-opacity:0.9;"/>
     </g>
     <g id="text_9">
      <!-- 10000 -->
      <g style="fill:#262626;" transform="translate(26.768875 184.259158)scale(0.14 -0.14)">
       <use xlink:href="#ArialMT-49"/>
       <use x="55.615234" xlink:href="#ArialMT-48"/>
       <use x="111.230469" xlink:href="#ArialMT-48"/>
       <use x="166.845703" xlink:href="#ArialMT-48"/>
       <use x="222.460938" xlink:href="#ArialMT-48"/>
      </g>
     </g>
    </g>
    <g id="ytick_3">
     <g id="line2d_9">
      <path clip-path="url(#p7b5228cafb)" d="M 79.195438 141.580957 
L 413.995438 141.580957 
" style="fill:none;stroke:#cccccc;stroke-linecap:round;stroke-opacity:0.9;"/>
     </g>
     <g id="text_10">
      <!-- 20000 -->
      <g style="fill:#262626;" transform="translate(26.768875 146.591426)scale(0.14 -0.14)">
       <use xlink:href="#ArialMT-50"/>
       <use x="55.615234" xlink:href="#ArialMT-48"/>
       <use x="111.230469" xlink:href="#ArialMT-48"/>
       <use x="166.845703" xlink:href="#ArialMT-48"/>
       <use x="222.460938" xlink:href="#ArialMT-48"/>
      </g>
     </g>
    </g>
    <g id="ytick_4">
     <g id="line2d_10">
      <path clip-path="url(#p7b5228cafb)" d="M 79.195438 103.913224 
L 413.995438 103.913224 
" style="fill:none;stroke:#cccccc;stroke-linecap:round;stroke-opacity:0.9;"/>
     </g>
     <g id="text_11">
      <!-- 30000 -->
      <defs>
       <path d="M 4.203125 18.890625 
L 12.984375 20.0625 
Q 14.5 12.59375 18.140625 9.296875 
Q 21.78125 6 27 6 
Q 33.203125 6 37.46875 10.296875 
Q 41.75 14.59375 41.75 20.953125 
Q 41.75 27 37.796875 30.921875 
Q 33.84375 34.859375 27.734375 34.859375 
Q 25.25 34.859375 21.53125 33.890625 
L 22.515625 41.609375 
Q 23.390625 41.5 23.921875 41.5 
Q 29.546875 41.5 34.03125 44.421875 
Q 38.53125 47.359375 38.53125 53.46875 
Q 38.53125 58.296875 35.25 61.46875 
Q 31.984375 64.65625 26.8125 64.65625 
Q 21.6875 64.65625 18.265625 61.421875 
Q 14.84375 58.203125 13.875 51.765625 
L 5.078125 53.328125 
Q 6.6875 62.15625 12.390625 67.015625 
Q 18.109375 71.875 26.609375 71.875 
Q 32.46875 71.875 37.390625 69.359375 
Q 42.328125 66.84375 44.9375 62.5 
Q 47.5625 58.15625 47.5625 53.265625 
Q 47.5625 48.640625 45.0625 44.828125 
Q 42.578125 41.015625 37.703125 38.765625 
Q 44.046875 37.3125 47.5625 32.6875 
Q 51.078125 28.078125 51.078125 21.140625 
Q 51.078125 11.765625 44.234375 5.25 
Q 37.40625 -1.265625 26.953125 -1.265625 
Q 17.53125 -1.265625 11.296875 4.34375 
Q 5.078125 9.96875 4.203125 18.890625 
z
" id="ArialMT-51"/>
      </defs>
      <g style="fill:#262626;" transform="translate(26.768875 108.923693)scale(0.14 -0.14)">
       <use xlink:href="#ArialMT-51"/>
       <use x="55.615234" xlink:href="#ArialMT-48"/>
       <use x="111.230469" xlink:href="#ArialMT-48"/>
       <use x="166.845703" xlink:href="#ArialMT-48"/>
       <use x="222.460938" xlink:href="#ArialMT-48"/>
      </g>
     </g>
    </g>
    <g id="ytick_5">
     <g id="line2d_11">
      <path clip-path="url(#p7b5228cafb)" d="M 79.195438 66.245492 
L 413.995438 66.245492 
" style="fill:none;stroke:#cccccc;stroke-linecap:round;stroke-opacity:0.9;"/>
     </g>
     <g id="text_12">
      <!-- 40000 -->
      <defs>
       <path d="M 32.328125 0 
L 32.328125 17.140625 
L 1.265625 17.140625 
L 1.265625 25.203125 
L 33.9375 71.578125 
L 41.109375 71.578125 
L 41.109375 25.203125 
L 50.78125 25.203125 
L 50.78125 17.140625 
L 41.109375 17.140625 
L 41.109375 0 
z
M 32.328125 25.203125 
L 32.328125 57.46875 
L 9.90625 25.203125 
z
" id="ArialMT-52"/>
      </defs>
      <g style="fill:#262626;" transform="translate(26.768875 71.25596)scale(0.14 -0.14)">
       <use xlink:href="#ArialMT-52"/>
       <use x="55.615234" xlink:href="#ArialMT-48"/>
       <use x="111.230469" xlink:href="#ArialMT-48"/>
       <use x="166.845703" xlink:href="#ArialMT-48"/>
       <use x="222.460938" xlink:href="#ArialMT-48"/>
      </g>
     </g>
    </g>
    <g id="ytick_6">
     <g id="line2d_12">
      <path clip-path="url(#p7b5228cafb)" d="M 79.195438 28.577759 
L 413.995438 28.577759 
" style="fill:none;stroke:#cccccc;stroke-linecap:round;stroke-opacity:0.9;"/>
     </g>
     <g id="text_13">
      <!-- 50000 -->
      <g style="fill:#262626;" transform="translate(26.768875 33.588228)scale(0.14 -0.14)">
       <use xlink:href="#ArialMT-53"/>
       <use x="55.615234" xlink:href="#ArialMT-48"/>
       <use x="111.230469" xlink:href="#ArialMT-48"/>
       <use x="166.845703" xlink:href="#ArialMT-48"/>
       <use x="222.460938" xlink:href="#ArialMT-48"/>
      </g>
     </g>
    </g>
    <g id="text_14">
     <!-- GDP per capita -->
     <defs>
      <path d="M 41.21875 28.078125 
L 41.21875 36.46875 
L 71.53125 36.53125 
L 71.53125 9.96875 
Q 64.546875 4.390625 57.125 1.578125 
Q 49.703125 -1.21875 41.890625 -1.21875 
Q 31.34375 -1.21875 22.71875 3.296875 
Q 14.109375 7.8125 9.71875 16.359375 
Q 5.328125 24.90625 5.328125 35.453125 
Q 5.328125 45.90625 9.6875 54.953125 
Q 14.0625 64.015625 22.265625 68.40625 
Q 30.46875 72.796875 41.15625 72.796875 
Q 48.921875 72.796875 55.1875 70.28125 
Q 61.46875 67.78125 65.03125 63.28125 
Q 68.609375 58.796875 70.453125 51.5625 
L 61.921875 49.21875 
Q 60.296875 54.6875 57.90625 57.8125 
Q 55.515625 60.9375 51.0625 62.8125 
Q 46.625 64.703125 41.21875 64.703125 
Q 34.71875 64.703125 29.984375 62.71875 
Q 25.25 60.75 22.34375 57.515625 
Q 19.4375 54.296875 17.828125 50.4375 
Q 15.09375 43.796875 15.09375 36.03125 
Q 15.09375 26.46875 18.390625 20.015625 
Q 21.6875 13.578125 27.984375 10.453125 
Q 34.28125 7.328125 41.359375 7.328125 
Q 47.515625 7.328125 53.375 9.6875 
Q 59.234375 12.0625 62.25 14.75 
L 62.25 28.078125 
z
" id="ArialMT-71"/>
      <path d="M 7.71875 0 
L 7.71875 71.578125 
L 32.375 71.578125 
Q 40.71875 71.578125 45.125 70.5625 
Q 51.265625 69.140625 55.609375 65.4375 
Q 61.28125 60.640625 64.078125 53.1875 
Q 66.890625 45.75 66.890625 36.1875 
Q 66.890625 28.03125 64.984375 21.734375 
Q 63.09375 15.4375 60.109375 11.296875 
Q 57.125 7.171875 53.578125 4.796875 
Q 50.046875 2.4375 45.046875 1.21875 
Q 40.046875 0 33.546875 0 
z
M 17.1875 8.453125 
L 32.46875 8.453125 
Q 39.546875 8.453125 43.578125 9.765625 
Q 47.609375 11.078125 50 13.484375 
Q 53.375 16.84375 55.25 22.53125 
Q 57.125 28.21875 57.125 36.328125 
Q 57.125 47.5625 53.4375 53.59375 
Q 49.75 59.625 44.484375 61.671875 
Q 40.671875 63.140625 32.234375 63.140625 
L 17.1875 63.140625 
z
" id="ArialMT-68"/>
      <path d="M 7.71875 0 
L 7.71875 71.578125 
L 34.71875 71.578125 
Q 41.84375 71.578125 45.609375 70.90625 
Q 50.875 70.015625 54.4375 67.546875 
Q 58.015625 65.09375 60.1875 60.640625 
Q 62.359375 56.203125 62.359375 50.875 
Q 62.359375 41.75 56.546875 35.421875 
Q 50.734375 29.109375 35.546875 29.109375 
L 17.1875 29.109375 
L 17.1875 0 
z
M 17.1875 37.546875 
L 35.6875 37.546875 
Q 44.875 37.546875 48.734375 40.96875 
Q 52.59375 44.390625 52.59375 50.59375 
Q 52.59375 55.078125 50.3125 58.265625 
Q 48.046875 61.46875 44.34375 62.5 
Q 41.9375 63.140625 35.5 63.140625 
L 17.1875 63.140625 
z
" id="ArialMT-80"/>
      <path id="ArialMT-32"/>
      <path d="M 6.59375 -19.875 
L 6.59375 51.859375 
L 14.59375 51.859375 
L 14.59375 45.125 
Q 17.4375 49.078125 21 51.046875 
Q 24.5625 53.03125 29.640625 53.03125 
Q 36.28125 53.03125 41.359375 49.609375 
Q 46.4375 46.1875 49.015625 39.953125 
Q 51.609375 33.734375 51.609375 26.3125 
Q 51.609375 18.359375 48.75 11.984375 
Q 45.90625 5.609375 40.453125 2.21875 
Q 35.015625 -1.171875 29 -1.171875 
Q 24.609375 -1.171875 21.109375 0.6875 
Q 17.625 2.546875 15.375 5.375 
L 15.375 -19.875 
z
M 14.546875 25.640625 
Q 14.546875 15.625 18.59375 10.84375 
Q 22.65625 6.0625 28.421875 6.0625 
Q 34.28125 6.0625 38.453125 11.015625 
Q 42.625 15.96875 42.625 26.375 
Q 42.625 36.28125 38.546875 41.203125 
Q 34.46875 46.140625 28.8125 46.140625 
Q 23.1875 46.140625 18.859375 40.890625 
Q 14.546875 35.640625 14.546875 25.640625 
z
" id="ArialMT-112"/>
      <path d="M 40.4375 19 
L 49.078125 17.875 
Q 47.65625 8.9375 41.8125 3.875 
Q 35.984375 -1.171875 27.484375 -1.171875 
Q 16.84375 -1.171875 10.375 5.78125 
Q 3.90625 12.75 3.90625 25.734375 
Q 3.90625 34.125 6.6875 40.421875 
Q 9.46875 46.734375 15.15625 49.875 
Q 20.84375 53.03125 27.546875 53.03125 
Q 35.984375 53.03125 41.359375 48.75 
Q 46.734375 44.484375 48.25 36.625 
L 39.703125 35.296875 
Q 38.484375 40.53125 35.375 43.15625 
Q 32.28125 45.796875 27.875 45.796875 
Q 21.234375 45.796875 17.078125 41.03125 
Q 12.9375 36.28125 12.9375 25.984375 
Q 12.9375 15.53125 16.9375 10.796875 
Q 20.953125 6.0625 27.390625 6.0625 
Q 32.5625 6.0625 36.03125 9.234375 
Q 39.5 12.40625 40.4375 19 
z
" id="ArialMT-99"/>
      <path d="M 6.640625 61.46875 
L 6.640625 71.578125 
L 15.4375 71.578125 
L 15.4375 61.46875 
z
M 6.640625 0 
L 6.640625 51.859375 
L 15.4375 51.859375 
L 15.4375 0 
z
" id="ArialMT-105"/>
      <path d="M 25.78125 7.859375 
L 27.046875 0.09375 
Q 23.34375 -0.6875 20.40625 -0.6875 
Q 15.625 -0.6875 12.984375 0.828125 
Q 10.359375 2.34375 9.28125 4.8125 
Q 8.203125 7.28125 8.203125 15.1875 
L 8.203125 45.015625 
L 1.765625 45.015625 
L 1.765625 51.859375 
L 8.203125 51.859375 
L 8.203125 64.703125 
L 16.9375 69.96875 
L 16.9375 51.859375 
L 25.78125 51.859375 
L 25.78125 45.015625 
L 16.9375 45.015625 
L 16.9375 14.703125 
Q 16.9375 10.9375 17.40625 9.859375 
Q 17.875 8.796875 18.921875 8.15625 
Q 19.96875 7.515625 21.921875 7.515625 
Q 23.390625 7.515625 25.78125 7.859375 
z
" id="ArialMT-116"/>
     </defs>
     <g style="fill:#262626;" transform="translate(19.429875 173.479176)rotate(-90)scale(0.168 -0.168)">
      <use xlink:href="#ArialMT-71"/>
      <use x="77.783203" xlink:href="#ArialMT-68"/>
      <use x="150" xlink:href="#ArialMT-80"/>
      <use x="216.683594" xlink:href="#ArialMT-32"/>
      <use x="244.466797" xlink:href="#ArialMT-112"/>
      <use x="300.082031" xlink:href="#ArialMT-101"/>
      <use x="355.697266" xlink:href="#ArialMT-114"/>
      <use x="388.998047" xlink:href="#ArialMT-32"/>
      <use x="416.78125" xlink:href="#ArialMT-99"/>
      <use x="466.78125" xlink:href="#ArialMT-97"/>
      <use x="522.396484" xlink:href="#ArialMT-112"/>
      <use x="578.011719" xlink:href="#ArialMT-105"/>
      <use x="600.228516" xlink:href="#ArialMT-116"/>
      <use x="628.011719" xlink:href="#ArialMT-97"/>
     </g>
    </g>
   </g>
   <g id="line2d_13">
    <path clip-path="url(#p7b5228cafb)" d="M 314.757745 213.375655 
L 339.608586 214.332416 
L 350.495621 214.565955 
L 352.389019 214.125243 
L 353.572392 214.219412 
L 359.489259 214.494387 
L 364.222753 214.087575 
L 368.246222 214.053674 
L 368.956246 213.865336 
L 371.322993 213.752332 
L 373.926414 213.887936 
L 374.163089 213.744799 
L 374.399764 213.597895 
L 378.186559 213.337987 
L 378.423233 213.292786 
L 378.659908 213.270185 
L 378.896583 213.172249 
L 379.133257 213.579061 
L 379.369932 213.518793 
L 379.606607 213.251352 
L 379.843281 213.044179 
L 380.079956 213.160949 
L 380.316631 213.281486 
L 383.156727 214.064975 
L 383.393402 213.530093 
L 383.630076 213.191083 
L 383.866751 212.780505 
L 384.103426 213.191083 
L 384.3401 212.916109 
L 384.576775 212.769205 
L 384.81345 212.761671 
L 385.050124 212.874674 
L 385.286799 213.19485 
L 385.523474 213.43969 
L 385.760148 213.90677 
L 385.996823 213.654396 
L 386.233498 213.337987 
L 386.470172 212.96131 
L 386.706847 212.644901 
L 386.943522 212.595933 
L 387.180196 212.580866 
L 387.416871 212.799339 
L 387.653546 212.501764 
L 387.89022 212.053518 
L 388.126895 211.812444 
L 388.36357 211.993249 
L 388.600245 211.748409 
L 388.836919 211.725808 
L 389.073594 211.54877 
L 389.310269 211.703208 
L 389.546943 211.593971 
L 389.783618 210.95362 
L 390.020293 210.70878 
L 390.256967 210.550575 
L 390.493642 210.607077 
L 390.730317 210.038294 
L 390.966991 209.733185 
L 391.203666 208.930863 
L 391.440341 208.215176 
L 391.677015 207.842265 
L 391.91369 207.461821 
L 392.150365 207.232048 
L 392.387039 207.465588 
L 392.623714 207.65016 
L 392.860389 207.31115 
L 393.097063 206.629364 
L 393.333738 205.627403 
L 393.570413 205.107588 
L 393.807087 204.478537 
L 394.043762 203.755316 
L 394.280437 203.582045 
L 394.517111 203.52931 
L 394.753786 202.734521 
L 394.990461 201.581888 
L 395.227136 200.34262 
L 395.46381 198.862278 
L 395.700485 197.623009 
L 395.93716 195.841326 
L 396.173834 193.042613 
L 396.410509 190.786316 
L 396.647184 188.733424 
L 396.883858 187.75783 
L 397.120533 185.298127 
L 397.357208 181.226245 
L 397.593882 178.416232 
L 397.830557 176.78522 
L 398.067232 175.15044 
L 398.303906 172.815041 
L 398.540581 171.707609 
L 398.777256 170.509775 
" style="fill:none;stroke:#f47915;stroke-linecap:round;stroke-width:2;"/>
   </g>
   <g id="line2d_14">
    <path clip-path="url(#p7b5228cafb)" d="M 158.315782 214.057441 
L 323.988057 210.923486 
L 324.224732 210.426272 
L 324.461407 210.637211 
L 324.698081 211.092991 
L 324.934756 210.015693 
L 325.171431 210.38107 
L 325.408105 211.401866 
L 325.881455 210.366003 
L 326.354804 211.78231 
L 326.591479 211.31523 
L 326.828153 211.307697 
L 327.064828 211.56007 
L 327.301503 211.044022 
L 327.538177 211.213527 
L 328.011527 210.746447 
L 328.248202 210.441339 
L 328.484876 210.599543 
L 328.721551 210.173898 
L 328.958226 210.430038 
L 329.1949 210.366003 
L 329.66825 210.633444 
L 329.904924 210.494074 
L 330.141599 210.742681 
L 330.378274 210.818016 
L 330.614948 210.569409 
L 330.851623 210.82555 
L 331.088298 210.610844 
L 331.324972 210.705013 
L 331.561647 210.320802 
L 331.798322 210.211566 
L 332.034996 210.301968 
L 332.271671 210.516674 
L 332.508346 210.094796 
L 332.74502 210.501607 
L 332.981695 210.411205 
L 333.455044 210.637211 
L 333.928394 210.253 
L 334.401743 210.543042 
L 334.638418 210.512907 
L 335.111767 210.083495 
L 335.585117 210.256767 
L 335.821791 210.204032 
L 336.058466 210.388604 
L 336.295141 210.109863 
L 336.531815 210.098562 
L 336.76849 210.335869 
L 337.005165 210.181431 
L 337.241839 210.347169 
L 337.478514 210.000626 
L 338.188538 209.672917 
L 338.425213 209.43561 
L 338.661887 209.66915 
L 339.135237 209.714352 
L 339.371911 209.827355 
L 340.081935 209.684217 
L 340.31861 209.322607 
L 340.555285 209.582514 
L 340.791959 209.492112 
L 341.028634 209.733185 
L 341.265309 209.661617 
L 341.501984 209.872556 
L 342.212008 209.416776 
L 342.685357 209.635249 
L 343.158706 209.209604 
L 343.632056 209.397943 
L 344.34208 209.507179 
L 344.815429 209.804754 
L 345.052104 209.740719 
L 345.288778 209.284939 
L 345.525453 209.345208 
L 345.762128 209.130502 
L 346.235477 209.64655 
L 346.472152 208.94593 
L 346.708826 208.885661 
L 346.945501 209.047633 
L 347.182176 209.0627 
L 347.41885 208.949697 
L 347.655525 208.610687 
L 348.128875 208.565486 
L 348.602224 208.95723 
L 348.838899 208.59562 
L 349.075573 208.750058 
L 349.312248 208.335713 
L 349.548923 208.84046 
L 349.785597 208.697323 
L 350.022272 208.275444 
L 350.258947 208.475083 
L 350.495621 208.94593 
L 350.732296 208.644588 
L 350.968971 208.953463 
L 351.205645 208.24531 
L 351.44232 208.84046 
L 351.678995 208.832927 
L 352.152344 209.205837 
L 352.389019 208.70109 
L 352.862368 208.678489 
L 353.099043 208.569252 
L 353.335717 208.237776 
L 353.572392 208.166208 
L 353.809067 208.742524 
L 354.045741 208.222709 
L 354.519091 208.36208 
L 354.755766 208.094639 
L 354.99244 208.105939 
L 355.229115 207.940201 
L 355.46579 207.974102 
L 355.702464 207.872399 
L 355.939139 207.322451 
L 356.175814 207.134112 
L 356.412488 207.333751 
L 356.649163 207.070077 
L 356.885838 207.273482 
L 357.122512 206.930706 
L 357.595862 207.454288 
L 357.832536 207.103978 
L 358.069211 206.369457 
L 358.305886 206.01538 
L 358.779235 206.395824 
L 359.252584 205.928744 
L 359.489259 206.150984 
L 360.435958 204.715843 
L 360.672632 205.118888 
L 360.909307 204.459703 
L 361.145982 204.444636 
L 361.382657 204.794946 
L 361.619331 204.414502 
L 361.856006 204.278898 
L 362.092681 204.433335 
L 362.329355 205.077454 
L 362.56603 204.083026 
L 363.276054 203.371105 
L 363.512729 203.438907 
L 363.749403 202.911559 
L 363.986078 202.915326 
L 364.222753 202.429412 
L 364.696102 202.58385 
L 365.406126 201.943498 
L 366.11615 201.935965 
L 366.352825 202.109236 
L 366.826174 201.05454 
L 367.062849 200.674096 
L 367.536198 200.670329 
L 367.772873 200.836067 
L 368.009547 200.666562 
L 368.482897 199.438594 
L 368.719572 198.587303 
L 369.192921 198.704073 
L 369.429596 199.242722 
L 369.66627 199.351958 
L 369.902945 198.293495 
L 370.849644 196.210469 
L 371.086318 195.498549 
L 371.559668 195.927961 
L 371.796342 195.513616 
L 372.033017 195.860159 
L 372.269692 195.860159 
L 372.979716 194.48152 
L 373.21639 195.524917 
L 373.68974 194.628425 
L 374.399764 192.835441 
L 374.636438 192.952211 
L 374.873113 191.328731 
L 375.109788 191.016089 
L 375.583137 190.970888 
L 376.056487 195.611552 
L 376.293161 196.195402 
L 376.529836 194.259281 
L 377.003185 192.639568 
L 377.23986 191.415367 
L 377.476535 192.330693 
L 377.713209 190.319236 
L 377.949884 189.983993 
L 378.186559 189.117635 
L 378.423233 189.41521 
L 378.659908 190.925687 
L 378.896583 190.857885 
L 379.133257 190.183632 
L 379.606607 187.50169 
L 380.079956 185.335795 
L 380.316631 185.064587 
L 380.553305 185.064587 
L 381.026655 178.811744 
L 381.500004 177.421804 
L 382.210028 182.442913 
L 382.446703 183.139766 
L 382.920052 181.294047 
L 383.156727 181.354316 
L 383.393402 180.759165 
L 383.630076 181.105709 
L 384.3401 176.314373 
L 384.81345 175.003536 
L 385.050124 174.984702 
L 385.760148 170.264935 
L 385.996823 170.110497 
L 386.233498 168.517152 
L 386.470172 166.016015 
L 387.416871 161.883865 
L 387.89022 157.72158 
L 388.126895 157.766781 
L 388.36357 156.448411 
L 388.600245 152.444331 
L 388.836919 153.544229 
L 389.073594 153.841804 
L 389.546943 148.594689 
L 390.020293 141.095043 
L 390.256967 139.34726 
L 390.493642 141.675126 
L 390.730317 142.089471 
L 391.203666 140.563928 
L 391.677015 136.672851 
L 392.150365 129.998129 
L 392.623714 126.50633 
L 392.860389 127.658963 
L 393.097063 127.222017 
L 393.570413 121.417419 
L 394.043762 112.294295 
L 394.517111 100.22932 
L 394.753786 95.456818 
L 394.990461 87.37709 
L 395.227136 84.393805 
L 395.46381 83.632917 
L 395.700485 83.74592 
L 396.410509 72.833578 
L 396.647184 73.511597 
L 396.883858 75.071041 
L 397.120533 82.329613 
L 397.357208 84.642412 
L 397.593882 85.188594 
L 397.830557 82.126208 
L 398.067232 74.901536 
L 398.777256 69.402048 
L 398.777256 69.402048 
" style="fill:none;stroke:#165aa7;stroke-linecap:round;stroke-width:2;"/>
   </g>
   <g id="line2d_15">
    <path clip-path="url(#p7b5228cafb)" d="M 300.320589 212.000783 
L 312.154323 212.290824 
L 323.988057 212.396294 
L 335.821791 212.761671 
L 347.8922 212.897275 
L 352.625693 213.270185 
L 359.725934 213.232518 
L 364.222753 213.609195 
L 368.009547 213.251352 
L 368.482897 213.029112 
L 368.719572 213.127048 
L 368.956246 212.938709 
L 369.192921 213.296553 
L 369.429596 212.995211 
L 369.902945 212.810639 
L 370.13962 212.901042 
L 370.376294 213.187316 
L 370.612969 212.49423 
L 370.849644 212.475396 
L 371.086318 212.810639 
L 372.269692 212.151454 
L 372.506366 212.245623 
L 372.743041 212.12132 
L 372.979716 212.422662 
L 373.21639 212.36616 
L 373.453065 211.752176 
L 374.163089 211.767243 
L 374.399764 211.868946 
L 374.636438 211.578904 
L 374.873113 211.691907 
L 375.109788 211.522403 
L 375.346463 211.605272 
L 375.583137 212.268224 
L 375.819812 211.609038 
L 376.056487 212.01585 
L 376.529836 211.465901 
L 376.766511 211.67684 
L 377.003185 211.450834 
L 377.949884 211.296396 
L 378.186559 211.100524 
L 378.896583 211.18716 
L 379.606607 211.356665 
L 379.843281 211.19846 
L 380.316631 211.394332 
L 381.500004 211.044022 
L 381.973354 211.288863 
L 382.210028 211.627872 
L 382.683378 211.631639 
L 383.156727 211.578904 
L 383.393402 211.545003 
L 383.630076 211.718275 
L 384.103426 211.571371 
L 384.3401 211.673074 
L 384.576775 211.529936 
L 384.81345 211.797377 
L 385.050124 211.669307 
L 385.286799 211.819978 
L 385.523474 211.631639 
L 386.233498 211.808677 
L 386.470172 211.684374 
L 386.706847 212.106253 
L 386.943522 212.271991 
L 387.180196 212.125086 
L 387.416871 212.271991 
L 388.36357 212.253157 
L 388.600245 212.01585 
L 388.836919 212.155221 
L 389.073594 211.786077 
L 389.546943 212.083652 
L 389.783618 212.253157 
L 390.020293 212.656201 
L 390.256967 212.611 
L 391.203666 213.017812 
L 391.440341 213.070547 
L 391.91369 212.795572 
L 392.623714 212.083652 
L 392.860389 212.030917 
L 393.570413 211.32653 
L 395.46381 208.716157 
L 395.93716 207.491955 
L 397.357208 200.519658 
L 397.593882 198.956447 
L 397.830557 198.180492 
L 398.067232 197.886683 
L 398.540581 195.675588 
L 398.777256 194.462687 
L 398.777256 194.462687 
" style="fill:none;stroke:#06ab54;stroke-linecap:round;stroke-width:2;"/>
   </g>
   <g id="line2d_16">
    <path clip-path="url(#p7b5228cafb)" d="M 94.413619 214.893665 
L 193.816984 214.302281 
L 264.819388 214.26838 
L 300.320589 214.031074 
L 312.154323 214.106409 
L 323.988057 213.752332 
L 335.821791 213.90677 
L 359.489259 213.488658 
L 365.169451 213.111981 
L 365.406126 212.840773 
L 365.642801 212.968844 
L 365.879475 212.878441 
L 366.11615 212.923642 
L 366.589499 212.573332 
L 366.826174 212.742837 
L 367.299523 212.70517 
L 367.536198 212.712703 
L 367.772873 212.5884 
L 368.246222 212.128853 
L 368.482897 212.392527 
L 368.719572 212.223023 
L 368.956246 211.827511 
L 369.192921 212.106253 
L 369.429596 211.823745 
L 369.66627 211.842578 
L 369.902945 211.285096 
L 370.13962 211.266262 
L 370.376294 211.627872 
L 370.612969 211.575138 
L 370.849644 210.633444 
L 371.086318 211.164559 
L 371.559668 210.84815 
L 371.796342 211.236128 
L 372.033017 210.915952 
L 372.269692 210.938553 
L 372.506366 211.096757 
L 372.743041 210.392371 
L 372.979716 210.249233 
L 373.68974 210.35847 
L 374.163089 209.955425 
L 374.399764 209.940358 
L 374.636438 210.2417 
L 374.873113 209.725652 
L 375.109788 208.716157 
L 375.346463 208.539118 
L 375.583137 208.524051 
L 375.819812 207.725495 
L 376.056487 208.384681 
L 376.293161 207.563524 
L 376.766511 207.815898 
L 377.476535 207.499489 
L 377.713209 207.510789 
L 377.949884 206.893038 
L 378.186559 206.7273 
L 378.423233 207.608725 
L 378.659908 207.67276 
L 379.133257 206.23762 
L 379.369932 206.361923 
L 379.606607 206.24892 
L 380.316631 204.640508 
L 380.553305 202.81739 
L 380.78998 202.546182 
L 381.026655 202.568783 
L 381.263329 202.858824 
L 381.500004 202.858824 
L 381.736679 203.687514 
L 381.973354 210.226633 
L 382.446703 209.277406 
L 382.683378 208.37338 
L 382.920052 208.015537 
L 383.156727 207.42792 
L 383.630076 205.29216 
L 384.103426 204.271364 
L 385.286799 199.393393 
L 386.943522 184.800913 
L 387.416871 177.229699 
L 387.89022 168.30998 
L 388.126895 165.985881 
L 388.600245 158.708475 
L 388.836919 160.034379 
L 389.310269 154.734529 
L 390.256967 140.044113 
L 390.966991 145.151858 
L 391.203666 145.735708 
L 391.440341 145.283695 
L 392.623714 117.695848 
L 393.097063 107.438924 
L 394.043762 94.34562 
L 394.280437 93.886074 
L 394.517111 95.882464 
L 394.753786 96.455013 
L 394.990461 91.505473 
L 395.227136 92.288962 
L 395.46381 91.803048 
L 395.700485 90.443243 
L 396.410509 82.924764 
L 396.647184 81.109179 
L 396.883858 84.111297 
L 397.120533 89.607019 
L 397.357208 83.282607 
L 397.593882 85.15846 
L 397.830557 84.540709 
L 398.067232 83.218572 
L 398.303906 83.007633 
L 398.777256 79.610003 
L 398.777256 79.610003 
" style="fill:none;stroke:#bb60d5;stroke-linecap:round;stroke-width:2;"/>
   </g>
   <g id="line2d_17">
    <path clip-path="url(#p7b5228cafb)" d="M 312.154323 213.537626 
L 328.721551 211.737109 
L 341.738658 209.823588 
L 347.655525 209.458211 
L 348.128875 209.194537 
L 348.365549 209.326374 
L 348.602224 209.330141 
L 349.312248 208.953463 
L 349.548923 209.514713 
L 350.022272 208.930863 
L 350.258947 208.768891 
L 350.495621 208.912029 
L 351.205645 208.704856 
L 351.44232 209.036332 
L 352.625693 208.95723 
L 352.862368 208.738757 
L 353.099043 208.82916 
L 353.572392 208.426115 
L 354.282416 208.331946 
L 354.519091 208.614454 
L 354.99244 207.465588 
L 355.46579 206.780035 
L 355.702464 207.265949 
L 355.939139 206.896805 
L 356.175814 206.749901 
L 356.412488 207.070077 
L 356.649163 207.156712 
L 356.885838 206.682099 
L 357.122512 207.186847 
L 357.595862 207.473121 
L 357.832536 207.322451 
L 358.069211 206.802636 
L 359.01591 206.037981 
L 359.252584 206.316722 
L 359.489259 206.275288 
L 359.962608 205.280859 
L 360.199283 204.48607 
L 360.435958 204.448403 
L 360.672632 204.723377 
L 360.909307 204.467236 
L 361.145982 204.738444 
L 361.382657 204.681942 
L 361.856006 204.015224 
L 362.092681 204.282664 
L 362.329355 203.887153 
L 362.802705 202.587617 
L 363.039379 203.329671 
L 363.276054 203.435141 
L 363.512729 202.990661 
L 363.749403 202.809856 
L 363.986078 202.433179 
L 364.222753 202.843757 
L 364.932777 201.924664 
L 365.169451 202.369144 
L 365.406126 201.958565 
L 365.642801 202.120537 
L 365.879475 201.977399 
L 366.11615 201.683591 
L 366.589499 198.587303 
L 366.826174 198.406498 
L 367.062849 197.702112 
L 367.536198 197.803814 
L 367.772873 198.093856 
L 368.009547 197.954485 
L 368.246222 197.52884 
L 368.482897 198.026054 
L 368.719572 197.268933 
L 368.956246 197.389469 
L 369.192921 196.95629 
L 369.429596 195.457115 
L 369.902945 197.841482 
L 370.13962 195.939262 
L 370.376294 196.741584 
L 370.612969 195.216041 
L 370.849644 195.15954 
L 371.086318 193.596329 
L 371.322993 193.366556 
L 371.559668 191.219495 
L 371.796342 191.468102 
L 372.033017 190.718514 
L 372.269692 191.532137 
L 372.506366 190.194932 
L 372.743041 187.678728 
L 372.979716 187.761597 
L 373.21639 190.662012 
L 373.453065 188.032805 
L 373.68974 188.34168 
L 373.926414 187.870833 
L 374.399764 186.401792 
L 374.636438 189.290907 
L 374.873113 188.91423 
L 375.109788 185.493999 
L 375.346463 186.7069 
L 375.583137 184.341367 
L 375.819812 184.217063 
L 376.056487 184.955351 
L 376.293161 186.277488 
L 376.529836 185.02692 
L 376.766511 181.433418 
L 377.23986 180.751632 
L 377.476535 178.90968 
L 377.949884 179.098018 
L 378.186559 177.203332 
L 378.896583 188.571453 
L 379.133257 189.53198 
L 379.369932 187.249316 
L 380.079956 177.553641 
L 380.316631 180.013344 
L 380.78998 174.325517 
L 381.500004 158.938248 
L 381.736679 155.137574 
L 381.973354 156.678184 
L 382.210028 162.407446 
L 382.446703 163.96689 
L 382.683378 162.07597 
L 382.920052 163.759718 
L 383.393402 156.173436 
L 383.630076 154.979369 
L 383.866751 153.193919 
L 384.103426 154.715695 
L 384.3401 151.48757 
L 384.81345 151.3482 
L 385.050124 153.088449 
L 385.286799 149.487414 
L 385.760148 148.455318 
L 387.416871 127.67403 
L 387.653546 125.775576 
L 387.89022 126.672068 
L 388.126895 125.025988 
L 388.600245 116.708953 
L 389.073594 119.146055 
L 390.020293 104.097796 
L 390.256967 105.370965 
L 390.493642 103.702285 
L 390.730317 106.885208 
L 390.966991 103.314307 
L 391.203666 96.093403 
L 392.387039 78.461137 
L 392.623714 77.613613 
L 392.860389 79.564802 
L 394.043762 64.686047 
L 394.990461 44.070497 
L 395.227136 44.104398 
L 395.46381 42.639123 
L 395.700485 39.282928 
L 396.173834 29.877296 
L 396.410509 26.73204 
L 396.647184 25.180129 
L 396.883858 27.538129 
L 397.120533 34.404957 
L 397.357208 31.338804 
L 397.593882 29.80196 
L 398.777256 17.220937 
L 398.777256 17.220937 
" style="fill:none;stroke:#cb495c;stroke-linecap:round;stroke-width:2;"/>
   </g>
   <g id="text_15">
    <!-- United Kingdom -->
    <defs>
     <path d="M 54.6875 71.578125 
L 64.15625 71.578125 
L 64.15625 30.21875 
Q 64.15625 19.4375 61.71875 13.078125 
Q 59.28125 6.734375 52.90625 2.75 
Q 46.53125 -1.21875 36.1875 -1.21875 
Q 26.125 -1.21875 19.71875 2.25 
Q 13.328125 5.71875 10.59375 12.28125 
Q 7.859375 18.84375 7.859375 30.21875 
L 7.859375 71.578125 
L 17.328125 71.578125 
L 17.328125 30.28125 
Q 17.328125 20.953125 19.0625 16.53125 
Q 20.796875 12.109375 25.015625 9.71875 
Q 29.25 7.328125 35.359375 7.328125 
Q 45.796875 7.328125 50.234375 12.0625 
Q 54.6875 16.796875 54.6875 30.28125 
z
" id="ArialMT-85"/>
     <path d="M 6.59375 0 
L 6.59375 51.859375 
L 14.5 51.859375 
L 14.5 44.484375 
Q 20.21875 53.03125 31 53.03125 
Q 35.6875 53.03125 39.625 51.34375 
Q 43.5625 49.65625 45.515625 46.921875 
Q 47.46875 44.1875 48.25 40.4375 
Q 48.734375 37.984375 48.734375 31.890625 
L 48.734375 0 
L 39.9375 0 
L 39.9375 31.546875 
Q 39.9375 36.921875 38.90625 39.578125 
Q 37.890625 42.234375 35.28125 43.8125 
Q 32.671875 45.40625 29.15625 45.40625 
Q 23.53125 45.40625 19.453125 41.84375 
Q 15.375 38.28125 15.375 28.328125 
L 15.375 0 
z
" id="ArialMT-110"/>
     <path d="M 40.234375 0 
L 40.234375 6.546875 
Q 35.296875 -1.171875 25.734375 -1.171875 
Q 19.53125 -1.171875 14.328125 2.25 
Q 9.125 5.671875 6.265625 11.796875 
Q 3.421875 17.921875 3.421875 25.875 
Q 3.421875 33.640625 6 39.96875 
Q 8.59375 46.296875 13.765625 49.65625 
Q 18.953125 53.03125 25.34375 53.03125 
Q 30.03125 53.03125 33.6875 51.046875 
Q 37.359375 49.078125 39.65625 45.90625 
L 39.65625 71.578125 
L 48.390625 71.578125 
L 48.390625 0 
z
M 12.453125 25.875 
Q 12.453125 15.921875 16.640625 10.984375 
Q 20.84375 6.0625 26.5625 6.0625 
Q 32.328125 6.0625 36.34375 10.765625 
Q 40.375 15.484375 40.375 25.140625 
Q 40.375 35.796875 36.265625 40.765625 
Q 32.171875 45.75 26.171875 45.75 
Q 20.3125 45.75 16.375 40.96875 
Q 12.453125 36.1875 12.453125 25.875 
z
" id="ArialMT-100"/>
     <path d="M 7.328125 0 
L 7.328125 71.578125 
L 16.796875 71.578125 
L 16.796875 36.078125 
L 52.34375 71.578125 
L 65.1875 71.578125 
L 35.15625 42.578125 
L 66.5 0 
L 54 0 
L 28.515625 36.234375 
L 16.796875 24.8125 
L 16.796875 0 
z
" id="ArialMT-75"/>
     <path d="M 4.984375 -4.296875 
L 13.53125 -5.5625 
Q 14.0625 -9.515625 16.5 -11.328125 
Q 19.78125 -13.765625 25.4375 -13.765625 
Q 31.546875 -13.765625 34.859375 -11.328125 
Q 38.1875 -8.890625 39.359375 -4.5 
Q 40.046875 -1.8125 39.984375 6.78125 
Q 34.234375 0 25.640625 0 
Q 14.9375 0 9.078125 7.71875 
Q 3.21875 15.4375 3.21875 26.21875 
Q 3.21875 33.640625 5.90625 39.90625 
Q 8.59375 46.1875 13.6875 49.609375 
Q 18.796875 53.03125 25.6875 53.03125 
Q 34.859375 53.03125 40.828125 45.609375 
L 40.828125 51.859375 
L 48.921875 51.859375 
L 48.921875 7.03125 
Q 48.921875 -5.078125 46.453125 -10.125 
Q 44 -15.1875 38.640625 -18.109375 
Q 33.296875 -21.046875 25.484375 -21.046875 
Q 16.21875 -21.046875 10.5 -16.875 
Q 4.78125 -12.703125 4.984375 -4.296875 
z
M 12.25 26.859375 
Q 12.25 16.65625 16.296875 11.96875 
Q 20.359375 7.28125 26.46875 7.28125 
Q 32.515625 7.28125 36.609375 11.9375 
Q 40.71875 16.609375 40.71875 26.5625 
Q 40.71875 36.078125 36.5 40.90625 
Q 32.28125 45.75 26.3125 45.75 
Q 20.453125 45.75 16.34375 40.984375 
Q 12.25 36.234375 12.25 26.859375 
z
" id="ArialMT-103"/>
     <path d="M 3.328125 25.921875 
Q 3.328125 40.328125 11.328125 47.265625 
Q 18.015625 53.03125 27.640625 53.03125 
Q 38.328125 53.03125 45.109375 46.015625 
Q 51.90625 39.015625 51.90625 26.65625 
Q 51.90625 16.65625 48.90625 10.90625 
Q 45.90625 5.171875 40.15625 2 
Q 34.421875 -1.171875 27.640625 -1.171875 
Q 16.75 -1.171875 10.03125 5.8125 
Q 3.328125 12.796875 3.328125 25.921875 
z
M 12.359375 25.921875 
Q 12.359375 15.96875 16.703125 11.015625 
Q 21.046875 6.0625 27.640625 6.0625 
Q 34.1875 6.0625 38.53125 11.03125 
Q 42.875 16.015625 42.875 26.21875 
Q 42.875 35.84375 38.5 40.796875 
Q 34.125 45.75 27.640625 45.75 
Q 21.046875 45.75 16.703125 40.8125 
Q 12.359375 35.890625 12.359375 25.921875 
z
" id="ArialMT-111"/>
     <path d="M 6.59375 0 
L 6.59375 51.859375 
L 14.453125 51.859375 
L 14.453125 44.578125 
Q 16.890625 48.390625 20.9375 50.703125 
Q 25 53.03125 30.171875 53.03125 
Q 35.9375 53.03125 39.625 50.640625 
Q 43.3125 48.25 44.828125 43.953125 
Q 50.984375 53.03125 60.84375 53.03125 
Q 68.5625 53.03125 72.703125 48.75 
Q 76.859375 44.484375 76.859375 35.59375 
L 76.859375 0 
L 68.109375 0 
L 68.109375 32.671875 
Q 68.109375 37.9375 67.25 40.25 
Q 66.40625 42.578125 64.15625 43.984375 
Q 61.921875 45.40625 58.890625 45.40625 
Q 53.421875 45.40625 49.796875 41.765625 
Q 46.1875 38.140625 46.1875 30.125 
L 46.1875 0 
L 37.40625 0 
L 37.40625 33.6875 
Q 37.40625 39.546875 35.25 42.46875 
Q 33.109375 45.40625 28.21875 45.40625 
Q 24.515625 45.40625 21.359375 43.453125 
Q 18.21875 41.5 16.796875 37.734375 
Q 15.375 33.984375 15.375 26.90625 
L 15.375 0 
z
" id="ArialMT-109"/>
    </defs>
    <g style="fill:#165aa7;" transform="translate(399.723954 69.402048)scale(0.14 -0.14)">
     <use xlink:href="#ArialMT-85"/>
     <use x="72.216797" xlink:href="#ArialMT-110"/>
     <use x="127.832031" xlink:href="#ArialMT-105"/>
     <use x="150.048828" xlink:href="#ArialMT-116"/>
     <use x="177.832031" xlink:href="#ArialMT-101"/>
     <use x="233.447266" xlink:href="#ArialMT-100"/>
     <use x="289.0625" xlink:href="#ArialMT-32"/>
     <use x="316.845703" xlink:href="#ArialMT-75"/>
     <use x="383.544922" xlink:href="#ArialMT-105"/>
     <use x="405.761719" xlink:href="#ArialMT-110"/>
     <use x="461.376953" xlink:href="#ArialMT-103"/>
     <use x="516.992188" xlink:href="#ArialMT-100"/>
     <use x="572.607422" xlink:href="#ArialMT-111"/>
     <use x="628.222656" xlink:href="#ArialMT-109"/>
    </g>
   </g>
   <g id="text_16">
    <!-- United States -->
    <defs>
     <path d="M 4.5 23 
L 13.421875 23.78125 
Q 14.0625 18.40625 16.375 14.96875 
Q 18.703125 11.53125 23.578125 9.40625 
Q 28.46875 7.28125 34.578125 7.28125 
Q 39.984375 7.28125 44.140625 8.890625 
Q 48.296875 10.5 50.3125 13.296875 
Q 52.34375 16.109375 52.34375 19.4375 
Q 52.34375 22.796875 50.390625 25.3125 
Q 48.4375 27.828125 43.953125 29.546875 
Q 41.0625 30.671875 31.203125 33.03125 
Q 21.34375 35.40625 17.390625 37.5 
Q 12.25 40.1875 9.734375 44.15625 
Q 7.234375 48.140625 7.234375 53.078125 
Q 7.234375 58.5 10.296875 63.203125 
Q 13.375 67.921875 19.28125 70.359375 
Q 25.203125 72.796875 32.421875 72.796875 
Q 40.375 72.796875 46.453125 70.234375 
Q 52.546875 67.671875 55.8125 62.6875 
Q 59.078125 57.71875 59.328125 51.421875 
L 50.25 50.734375 
Q 49.515625 57.515625 45.28125 60.984375 
Q 41.0625 64.453125 32.8125 64.453125 
Q 24.21875 64.453125 20.28125 61.296875 
Q 16.359375 58.15625 16.359375 53.71875 
Q 16.359375 49.859375 19.140625 47.359375 
Q 21.875 44.875 33.421875 42.265625 
Q 44.96875 39.65625 49.265625 37.703125 
Q 55.515625 34.8125 58.484375 30.390625 
Q 61.46875 25.984375 61.46875 20.21875 
Q 61.46875 14.5 58.203125 9.4375 
Q 54.9375 4.390625 48.796875 1.578125 
Q 42.671875 -1.21875 35.015625 -1.21875 
Q 25.296875 -1.21875 18.71875 1.609375 
Q 12.15625 4.4375 8.421875 10.125 
Q 4.6875 15.828125 4.5 23 
z
" id="ArialMT-83"/>
     <path d="M 3.078125 15.484375 
L 11.765625 16.84375 
Q 12.5 11.625 15.84375 8.84375 
Q 19.1875 6.0625 25.203125 6.0625 
Q 31.25 6.0625 34.171875 8.515625 
Q 37.109375 10.984375 37.109375 14.3125 
Q 37.109375 17.28125 34.515625 19 
Q 32.71875 20.171875 25.53125 21.96875 
Q 15.875 24.421875 12.140625 26.203125 
Q 8.40625 27.984375 6.46875 31.125 
Q 4.546875 34.28125 4.546875 38.09375 
Q 4.546875 41.546875 6.125 44.5 
Q 7.71875 47.46875 10.453125 49.421875 
Q 12.5 50.921875 16.03125 51.96875 
Q 19.578125 53.03125 23.640625 53.03125 
Q 29.734375 53.03125 34.34375 51.265625 
Q 38.96875 49.515625 41.15625 46.5 
Q 43.359375 43.5 44.1875 38.484375 
L 35.59375 37.3125 
Q 35.015625 41.3125 32.203125 43.546875 
Q 29.390625 45.796875 24.265625 45.796875 
Q 18.21875 45.796875 15.625 43.796875 
Q 13.03125 41.796875 13.03125 39.109375 
Q 13.03125 37.40625 14.109375 36.03125 
Q 15.1875 34.625 17.484375 33.6875 
Q 18.796875 33.203125 25.25 31.453125 
Q 34.578125 28.953125 38.25 27.359375 
Q 41.9375 25.78125 44.03125 22.75 
Q 46.140625 19.734375 46.140625 15.234375 
Q 46.140625 10.84375 43.578125 6.953125 
Q 41.015625 3.078125 36.171875 0.953125 
Q 31.34375 -1.171875 25.25 -1.171875 
Q 15.140625 -1.171875 9.84375 3.03125 
Q 4.546875 7.234375 3.078125 15.484375 
z
" id="ArialMT-115"/>
    </defs>
    <g style="fill:#cb495c;" transform="translate(399.723954 17.220937)scale(0.14 -0.14)">
     <use xlink:href="#ArialMT-85"/>
     <use x="72.216797" xlink:href="#ArialMT-110"/>
     <use x="127.832031" xlink:href="#ArialMT-105"/>
     <use x="150.048828" xlink:href="#ArialMT-116"/>
     <use x="177.832031" xlink:href="#ArialMT-101"/>
     <use x="233.447266" xlink:href="#ArialMT-100"/>
     <use x="289.0625" xlink:href="#ArialMT-32"/>
     <use x="316.845703" xlink:href="#ArialMT-83"/>
     <use x="383.544922" xlink:href="#ArialMT-116"/>
     <use x="411.328125" xlink:href="#ArialMT-97"/>
     <use x="466.943359" xlink:href="#ArialMT-116"/>
     <use x="494.726562" xlink:href="#ArialMT-101"/>
     <use x="550.341797" xlink:href="#ArialMT-115"/>
    </g>
   </g>
   <g id="text_17">
    <!-- Japan -->
    <defs>
     <path d="M 2.875 20.3125 
L 11.421875 21.484375 
Q 11.765625 13.28125 14.5 10.25 
Q 17.234375 7.234375 22.078125 7.234375 
Q 25.640625 7.234375 28.21875 8.859375 
Q 30.8125 10.5 31.78125 13.296875 
Q 32.765625 16.109375 32.765625 22.265625 
L 32.765625 71.578125 
L 42.234375 71.578125 
L 42.234375 22.796875 
Q 42.234375 13.8125 40.0625 8.875 
Q 37.890625 3.953125 33.171875 1.359375 
Q 28.46875 -1.21875 22.125 -1.21875 
Q 12.703125 -1.21875 7.6875 4.203125 
Q 2.6875 9.625 2.875 20.3125 
z
" id="ArialMT-74"/>
    </defs>
    <g style="fill:#bb60d5;" transform="translate(399.723954 83.376776)scale(0.14 -0.14)">
     <use xlink:href="#ArialMT-74"/>
     <use x="50" xlink:href="#ArialMT-97"/>
     <use x="105.615234" xlink:href="#ArialMT-112"/>
     <use x="161.230469" xlink:href="#ArialMT-97"/>
     <use x="216.845703" xlink:href="#ArialMT-110"/>
    </g>
   </g>
   <g id="text_18">
    <!-- China -->
    <defs>
     <path d="M 58.796875 25.09375 
L 68.265625 22.703125 
Q 65.28125 11.03125 57.546875 4.90625 
Q 49.8125 -1.21875 38.625 -1.21875 
Q 27.046875 -1.21875 19.796875 3.484375 
Q 12.546875 8.203125 8.765625 17.140625 
Q 4.984375 26.078125 4.984375 36.328125 
Q 4.984375 47.515625 9.25 55.828125 
Q 13.53125 64.15625 21.40625 68.46875 
Q 29.296875 72.796875 38.765625 72.796875 
Q 49.515625 72.796875 56.828125 67.328125 
Q 64.15625 61.859375 67.046875 51.953125 
L 57.71875 49.75 
Q 55.21875 57.5625 50.484375 61.125 
Q 45.75 64.703125 38.578125 64.703125 
Q 30.328125 64.703125 24.78125 60.734375 
Q 19.234375 56.78125 16.984375 50.109375 
Q 14.75 43.453125 14.75 36.375 
Q 14.75 27.25 17.40625 20.4375 
Q 20.0625 13.625 25.671875 10.25 
Q 31.296875 6.890625 37.84375 6.890625 
Q 45.796875 6.890625 51.3125 11.46875 
Q 56.84375 16.0625 58.796875 25.09375 
z
" id="ArialMT-67"/>
     <path d="M 6.59375 0 
L 6.59375 71.578125 
L 15.375 71.578125 
L 15.375 45.90625 
Q 21.53125 53.03125 30.90625 53.03125 
Q 36.671875 53.03125 40.921875 50.75 
Q 45.171875 48.484375 47 44.484375 
Q 48.828125 40.484375 48.828125 32.859375 
L 48.828125 0 
L 40.046875 0 
L 40.046875 32.859375 
Q 40.046875 39.453125 37.1875 42.453125 
Q 34.328125 45.453125 29.109375 45.453125 
Q 25.203125 45.453125 21.75 43.421875 
Q 18.3125 41.40625 16.84375 37.9375 
Q 15.375 34.46875 15.375 28.375 
L 15.375 0 
z
" id="ArialMT-104"/>
    </defs>
    <g style="fill:#f47915;" transform="translate(399.723954 170.509775)scale(0.14 -0.14)">
     <use xlink:href="#ArialMT-67"/>
     <use x="72.216797" xlink:href="#ArialMT-104"/>
     <use x="127.832031" xlink:href="#ArialMT-105"/>
     <use x="150.048828" xlink:href="#ArialMT-110"/>
     <use x="205.664062" xlink:href="#ArialMT-97"/>
    </g>
   </g>
   <g id="text_19">
    <!-- India -->
    <defs>
     <path d="M 9.328125 0 
L 9.328125 71.578125 
L 18.796875 71.578125 
L 18.796875 0 
z
" id="ArialMT-73"/>
    </defs>
    <g style="fill:#06ab54;" transform="translate(399.723954 194.462687)scale(0.14 -0.14)">
     <use xlink:href="#ArialMT-73"/>
     <use x="27.783203" xlink:href="#ArialMT-110"/>
     <use x="83.398438" xlink:href="#ArialMT-100"/>
     <use x="139.013672" xlink:href="#ArialMT-105"/>
     <use x="161.230469" xlink:href="#ArialMT-97"/>
    </g>
   </g>
   <g id="text_20">
    <!-- Source: Maddison Project Database (MPD) 2018 -->
    <defs>
     <path d="M 40.578125 0 
L 40.578125 7.625 
Q 34.515625 -1.171875 24.125 -1.171875 
Q 19.53125 -1.171875 15.546875 0.578125 
Q 11.578125 2.34375 9.640625 5 
Q 7.71875 7.671875 6.9375 11.53125 
Q 6.390625 14.109375 6.390625 19.734375 
L 6.390625 51.859375 
L 15.1875 51.859375 
L 15.1875 23.09375 
Q 15.1875 16.21875 15.71875 13.8125 
Q 16.546875 10.359375 19.234375 8.375 
Q 21.921875 6.390625 25.875 6.390625 
Q 29.828125 6.390625 33.296875 8.421875 
Q 36.765625 10.453125 38.203125 13.9375 
Q 39.65625 17.4375 39.65625 24.078125 
L 39.65625 51.859375 
L 48.4375 51.859375 
L 48.4375 0 
z
" id="ArialMT-117"/>
     <path d="M 9.03125 41.84375 
L 9.03125 51.859375 
L 19.046875 51.859375 
L 19.046875 41.84375 
z
M 9.03125 0 
L 9.03125 10.015625 
L 19.046875 10.015625 
L 19.046875 0 
z
" id="ArialMT-58"/>
     <path d="M 7.421875 0 
L 7.421875 71.578125 
L 21.6875 71.578125 
L 38.625 20.90625 
Q 40.96875 13.8125 42.046875 10.296875 
Q 43.265625 14.203125 45.84375 21.78125 
L 62.984375 71.578125 
L 75.734375 71.578125 
L 75.734375 0 
L 66.609375 0 
L 66.609375 59.90625 
L 45.796875 0 
L 37.25 0 
L 16.546875 60.9375 
L 16.546875 0 
z
" id="ArialMT-77"/>
     <path d="M 6.546875 61.375 
L 6.546875 71.578125 
L 15.328125 71.578125 
L 15.328125 61.375 
z
M -4.59375 -20.125 
L -2.9375 -12.640625 
Q -0.296875 -13.328125 1.21875 -13.328125 
Q 3.90625 -13.328125 5.21875 -11.546875 
Q 6.546875 -9.765625 6.546875 -2.640625 
L 6.546875 51.859375 
L 15.328125 51.859375 
L 15.328125 -2.828125 
Q 15.328125 -12.40625 12.84375 -16.15625 
Q 9.671875 -21.046875 2.296875 -21.046875 
Q -1.265625 -21.046875 -4.59375 -20.125 
z
" id="ArialMT-106"/>
     <path d="M 14.703125 0 
L 6.546875 0 
L 6.546875 71.578125 
L 15.328125 71.578125 
L 15.328125 46.046875 
Q 20.90625 53.03125 29.546875 53.03125 
Q 34.328125 53.03125 38.59375 51.09375 
Q 42.875 49.171875 45.625 45.671875 
Q 48.390625 42.1875 49.953125 37.25 
Q 51.515625 32.328125 51.515625 26.703125 
Q 51.515625 13.375 44.921875 6.09375 
Q 38.328125 -1.171875 29.109375 -1.171875 
Q 19.921875 -1.171875 14.703125 6.5 
z
M 14.59375 26.3125 
Q 14.59375 17 17.140625 12.84375 
Q 21.296875 6.0625 28.375 6.0625 
Q 34.125 6.0625 38.328125 11.0625 
Q 42.53125 16.0625 42.53125 25.984375 
Q 42.53125 36.140625 38.5 40.96875 
Q 34.46875 45.796875 28.765625 45.796875 
Q 23 45.796875 18.796875 40.796875 
Q 14.59375 35.796875 14.59375 26.3125 
z
" id="ArialMT-98"/>
     <path d="M 23.390625 -21.046875 
Q 16.109375 -11.859375 11.078125 0.4375 
Q 6.0625 12.75 6.0625 25.921875 
Q 6.0625 37.546875 9.8125 48.1875 
Q 14.203125 60.546875 23.390625 72.796875 
L 29.6875 72.796875 
Q 23.78125 62.640625 21.875 58.296875 
Q 18.890625 51.5625 17.1875 44.234375 
Q 15.09375 35.109375 15.09375 25.875 
Q 15.09375 2.390625 29.6875 -21.046875 
z
" id="ArialMT-40"/>
     <path d="M 12.359375 -21.046875 
L 6.0625 -21.046875 
Q 20.65625 2.390625 20.65625 25.875 
Q 20.65625 35.0625 18.5625 44.09375 
Q 16.890625 51.421875 13.921875 58.15625 
Q 12.015625 62.546875 6.0625 72.796875 
L 12.359375 72.796875 
Q 21.53125 60.546875 25.921875 48.1875 
Q 29.6875 37.546875 29.6875 25.921875 
Q 29.6875 12.75 24.625 0.4375 
Q 19.578125 -11.859375 12.359375 -21.046875 
z
" id="ArialMT-41"/>
     <path d="M 17.671875 38.8125 
Q 12.203125 40.828125 9.5625 44.53125 
Q 6.9375 48.25 6.9375 53.421875 
Q 6.9375 61.234375 12.546875 66.546875 
Q 18.171875 71.875 27.484375 71.875 
Q 36.859375 71.875 42.578125 66.421875 
Q 48.296875 60.984375 48.296875 53.171875 
Q 48.296875 48.1875 45.671875 44.5 
Q 43.0625 40.828125 37.75 38.8125 
Q 44.34375 36.671875 47.78125 31.875 
Q 51.21875 27.09375 51.21875 20.453125 
Q 51.21875 11.28125 44.71875 5.03125 
Q 38.234375 -1.21875 27.640625 -1.21875 
Q 17.046875 -1.21875 10.546875 5.046875 
Q 4.046875 11.328125 4.046875 20.703125 
Q 4.046875 27.6875 7.59375 32.390625 
Q 11.140625 37.109375 17.671875 38.8125 
z
M 15.921875 53.71875 
Q 15.921875 48.640625 19.1875 45.40625 
Q 22.46875 42.1875 27.6875 42.1875 
Q 32.765625 42.1875 36.015625 45.375 
Q 39.265625 48.578125 39.265625 53.21875 
Q 39.265625 58.0625 35.90625 61.359375 
Q 32.5625 64.65625 27.59375 64.65625 
Q 22.5625 64.65625 19.234375 61.421875 
Q 15.921875 58.203125 15.921875 53.71875 
z
M 13.09375 20.65625 
Q 13.09375 16.890625 14.875 13.375 
Q 16.65625 9.859375 20.171875 7.921875 
Q 23.6875 6 27.734375 6 
Q 34.03125 6 38.125 10.046875 
Q 42.234375 14.109375 42.234375 20.359375 
Q 42.234375 26.703125 38.015625 30.859375 
Q 33.796875 35.015625 27.4375 35.015625 
Q 21.234375 35.015625 17.15625 30.90625 
Q 13.09375 26.8125 13.09375 20.65625 
z
" id="ArialMT-56"/>
    </defs>
    <g style="fill:#262626;" transform="translate(16.310975 292.251887)scale(0.14 -0.14)">
     <use xlink:href="#ArialMT-83"/>
     <use x="66.699219" xlink:href="#ArialMT-111"/>
     <use x="122.314453" xlink:href="#ArialMT-117"/>
     <use x="177.929688" xlink:href="#ArialMT-114"/>
     <use x="211.230469" xlink:href="#ArialMT-99"/>
     <use x="261.230469" xlink:href="#ArialMT-101"/>
     <use x="316.845703" xlink:href="#ArialMT-58"/>
     <use x="344.628906" xlink:href="#ArialMT-32"/>
     <use x="372.412109" xlink:href="#ArialMT-77"/>
     <use x="455.712891" xlink:href="#ArialMT-97"/>
     <use x="511.328125" xlink:href="#ArialMT-100"/>
     <use x="566.943359" xlink:href="#ArialMT-100"/>
     <use x="622.558594" xlink:href="#ArialMT-105"/>
     <use x="644.775391" xlink:href="#ArialMT-115"/>
     <use x="694.775391" xlink:href="#ArialMT-111"/>
     <use x="750.390625" xlink:href="#ArialMT-110"/>
     <use x="806.005859" xlink:href="#ArialMT-32"/>
     <use x="833.789062" xlink:href="#ArialMT-80"/>
     <use x="900.488281" xlink:href="#ArialMT-114"/>
     <use x="933.789062" xlink:href="#ArialMT-111"/>
     <use x="989.404297" xlink:href="#ArialMT-106"/>
     <use x="1011.621094" xlink:href="#ArialMT-101"/>
     <use x="1067.236328" xlink:href="#ArialMT-99"/>
     <use x="1117.236328" xlink:href="#ArialMT-116"/>
     <use x="1145.019531" xlink:href="#ArialMT-32"/>
     <use x="1172.802734" xlink:href="#ArialMT-68"/>
     <use x="1245.019531" xlink:href="#ArialMT-97"/>
     <use x="1300.634766" xlink:href="#ArialMT-116"/>
     <use x="1328.417969" xlink:href="#ArialMT-97"/>
     <use x="1384.033203" xlink:href="#ArialMT-98"/>
     <use x="1439.648438" xlink:href="#ArialMT-97"/>
     <use x="1495.263672" xlink:href="#ArialMT-115"/>
     <use x="1545.263672" xlink:href="#ArialMT-101"/>
     <use x="1600.878906" xlink:href="#ArialMT-32"/>
     <use x="1628.662109" xlink:href="#ArialMT-40"/>
     <use x="1661.962891" xlink:href="#ArialMT-77"/>
     <use x="1745.263672" xlink:href="#ArialMT-80"/>
     <use x="1811.962891" xlink:href="#ArialMT-68"/>
     <use x="1884.179688" xlink:href="#ArialMT-41"/>
     <use x="1917.480469" xlink:href="#ArialMT-32"/>
     <use x="1945.263672" xlink:href="#ArialMT-50"/>
     <use x="2000.878906" xlink:href="#ArialMT-48"/>
     <use x="2056.494141" xlink:href="#ArialMT-49"/>
     <use x="2112.109375" xlink:href="#ArialMT-56"/>
    </g>
   </g>
  </g>
 </g>
 <defs>
  <clipPath id="p7b5228cafb">
   <rect height="217.44" width="334.8" x="79.195438" y="7.337301"/>
  </clipPath>
 </defs>
</svg>
