<?xml version="1.0" encoding="utf-8" standalone="no"?>
<!DOCTYPE svg PUBLIC "-//W3C//DTD SVG 1.1//EN"
  "http://www.w3.org/Graphics/SVG/1.1/DTD/svg11.dtd">
<!-- Created with matplotlib (https://matplotlib.org/) -->
<svg height="399.987563pt" version="1.1" viewBox="0 0 432.564125 399.987563" width="432.564125pt" xmlns="http://www.w3.org/2000/svg" xmlns:xlink="http://www.w3.org/1999/xlink">
 <defs>
  <style type="text/css">
*{stroke-linecap:butt;stroke-linejoin:round;}
  </style>
 </defs>
 <g id="figure_1">
  <g id="patch_1">
   <path d="M -0 399.987563 
L 432.564125 399.987563 
L 432.564125 0 
L -0 0 
z
" style="fill:#ffffff;"/>
  </g>
  <g id="axes_1">
   <g id="patch_2">
    <path d="M 49.524125 357.12 
L 425.364125 357.12 
L 425.364125 7.2 
L 49.524125 7.2 
z
" style="fill:#ffffff;"/>
   </g>
   <g id="matplotlib.axis_1">
    <g id="xtick_1">
     <g id="line2d_1">
      <path clip-path="url(#p5c7f5ad9cf)" d="M 89.08623 357.12 
L 89.08623 7.2 
" style="fill:none;stroke:#000000;stroke-dasharray:6.4,1.6,1,1.6;stroke-dashoffset:0;stroke-opacity:0.2;"/>
     </g>
     <g id="line2d_2"/>
     <g id="text_1">
      <!-- 0.0 -->
      <defs>
       <path d="M 4.15625 35.296875 
Q 4.15625 48 6.765625 55.734375 
Q 9.375 63.484375 14.515625 67.671875 
Q 19.671875 71.875 27.484375 71.875 
Q 33.25 71.875 37.59375 69.546875 
Q 41.9375 67.234375 44.765625 62.859375 
Q 47.609375 58.5 49.21875 52.21875 
Q 50.828125 45.953125 50.828125 35.296875 
Q 50.828125 22.703125 48.234375 14.96875 
Q 45.65625 7.234375 40.5 3 
Q 35.359375 -1.21875 27.484375 -1.21875 
Q 17.140625 -1.21875 11.234375 6.203125 
Q 4.15625 15.140625 4.15625 35.296875 
z
M 13.1875 35.296875 
Q 13.1875 17.671875 17.3125 11.828125 
Q 21.4375 6 27.484375 6 
Q 33.546875 6 37.671875 11.859375 
Q 41.796875 17.71875 41.796875 35.296875 
Q 41.796875 52.984375 37.671875 58.78125 
Q 33.546875 64.59375 27.390625 64.59375 
Q 21.34375 64.59375 17.71875 59.46875 
Q 13.1875 52.9375 13.1875 35.296875 
z
" id="ArialMT-48"/>
       <path d="M 9.078125 0 
L 9.078125 10.015625 
L 19.09375 10.015625 
L 19.09375 0 
z
" id="ArialMT-46"/>
      </defs>
      <g transform="translate(79.35623 370.640938)scale(0.14 -0.14)">
       <use xlink:href="#ArialMT-48"/>
       <use x="55.615234" xlink:href="#ArialMT-46"/>
       <use x="83.398438" xlink:href="#ArialMT-48"/>
      </g>
     </g>
    </g>
    <g id="xtick_2">
     <g id="line2d_3">
      <path clip-path="url(#p5c7f5ad9cf)" d="M 168.210441 357.12 
L 168.210441 7.2 
" style="fill:none;stroke:#000000;stroke-dasharray:6.4,1.6,1,1.6;stroke-dashoffset:0;stroke-opacity:0.2;"/>
     </g>
     <g id="line2d_4"/>
     <g id="text_2">
      <!-- 0.4 -->
      <defs>
       <path d="M 32.328125 0 
L 32.328125 17.140625 
L 1.265625 17.140625 
L 1.265625 25.203125 
L 33.9375 71.578125 
L 41.109375 71.578125 
L 41.109375 25.203125 
L 50.78125 25.203125 
L 50.78125 17.140625 
L 41.109375 17.140625 
L 41.109375 0 
z
M 32.328125 25.203125 
L 32.328125 57.46875 
L 9.90625 25.203125 
z
" id="ArialMT-52"/>
      </defs>
      <g transform="translate(158.480441 370.640938)scale(0.14 -0.14)">
       <use xlink:href="#ArialMT-48"/>
       <use x="55.615234" xlink:href="#ArialMT-46"/>
       <use x="83.398438" xlink:href="#ArialMT-52"/>
      </g>
     </g>
    </g>
    <g id="xtick_3">
     <g id="line2d_5">
      <path clip-path="url(#p5c7f5ad9cf)" d="M 247.334651 357.12 
L 247.334651 7.2 
" style="fill:none;stroke:#000000;stroke-dasharray:6.4,1.6,1,1.6;stroke-dashoffset:0;stroke-opacity:0.2;"/>
     </g>
     <g id="line2d_6"/>
     <g id="text_3">
      <!-- 0.8 -->
      <defs>
       <path d="M 17.671875 38.8125 
Q 12.203125 40.828125 9.5625 44.53125 
Q 6.9375 48.25 6.9375 53.421875 
Q 6.9375 61.234375 12.546875 66.546875 
Q 18.171875 71.875 27.484375 71.875 
Q 36.859375 71.875 42.578125 66.421875 
Q 48.296875 60.984375 48.296875 53.171875 
Q 48.296875 48.1875 45.671875 44.5 
Q 43.0625 40.828125 37.75 38.8125 
Q 44.34375 36.671875 47.78125 31.875 
Q 51.21875 27.09375 51.21875 20.453125 
Q 51.21875 11.28125 44.71875 5.03125 
Q 38.234375 -1.21875 27.640625 -1.21875 
Q 17.046875 -1.21875 10.546875 5.046875 
Q 4.046875 11.328125 4.046875 20.703125 
Q 4.046875 27.6875 7.59375 32.390625 
Q 11.140625 37.109375 17.671875 38.8125 
z
M 15.921875 53.71875 
Q 15.921875 48.640625 19.1875 45.40625 
Q 22.46875 42.1875 27.6875 42.1875 
Q 32.765625 42.1875 36.015625 45.375 
Q 39.265625 48.578125 39.265625 53.21875 
Q 39.265625 58.0625 35.90625 61.359375 
Q 32.5625 64.65625 27.59375 64.65625 
Q 22.5625 64.65625 19.234375 61.421875 
Q 15.921875 58.203125 15.921875 53.71875 
z
M 13.09375 20.65625 
Q 13.09375 16.890625 14.875 13.375 
Q 16.65625 9.859375 20.171875 7.921875 
Q 23.6875 6 27.734375 6 
Q 34.03125 6 38.125 10.046875 
Q 42.234375 14.109375 42.234375 20.359375 
Q 42.234375 26.703125 38.015625 30.859375 
Q 33.796875 35.015625 27.4375 35.015625 
Q 21.234375 35.015625 17.15625 30.90625 
Q 13.09375 26.8125 13.09375 20.65625 
z
" id="ArialMT-56"/>
      </defs>
      <g transform="translate(237.604651 370.640938)scale(0.14 -0.14)">
       <use xlink:href="#ArialMT-48"/>
       <use x="55.615234" xlink:href="#ArialMT-46"/>
       <use x="83.398438" xlink:href="#ArialMT-56"/>
      </g>
     </g>
    </g>
    <g id="xtick_4">
     <g id="line2d_7">
      <path clip-path="url(#p5c7f5ad9cf)" d="M 326.458862 357.12 
L 326.458862 7.2 
" style="fill:none;stroke:#000000;stroke-dasharray:6.4,1.6,1,1.6;stroke-dashoffset:0;stroke-opacity:0.2;"/>
     </g>
     <g id="line2d_8"/>
     <g id="text_4">
      <!-- 1.2 -->
      <defs>
       <path d="M 37.25 0 
L 28.46875 0 
L 28.46875 56 
Q 25.296875 52.984375 20.140625 49.953125 
Q 14.984375 46.921875 10.890625 45.40625 
L 10.890625 53.90625 
Q 18.265625 57.375 23.78125 62.296875 
Q 29.296875 67.234375 31.59375 71.875 
L 37.25 71.875 
z
" id="ArialMT-49"/>
       <path d="M 50.34375 8.453125 
L 50.34375 0 
L 3.03125 0 
Q 2.9375 3.171875 4.046875 6.109375 
Q 5.859375 10.9375 9.828125 15.625 
Q 13.8125 20.3125 21.34375 26.46875 
Q 33.015625 36.03125 37.109375 41.625 
Q 41.21875 47.21875 41.21875 52.203125 
Q 41.21875 57.421875 37.46875 61 
Q 33.734375 64.59375 27.734375 64.59375 
Q 21.390625 64.59375 17.578125 60.78125 
Q 13.765625 56.984375 13.71875 50.25 
L 4.6875 51.171875 
Q 5.609375 61.28125 11.65625 66.578125 
Q 17.71875 71.875 27.9375 71.875 
Q 38.234375 71.875 44.234375 66.15625 
Q 50.25 60.453125 50.25 52 
Q 50.25 47.703125 48.484375 43.546875 
Q 46.734375 39.40625 42.65625 34.8125 
Q 38.578125 30.21875 29.109375 22.21875 
Q 21.1875 15.578125 18.9375 13.203125 
Q 16.703125 10.84375 15.234375 8.453125 
z
" id="ArialMT-50"/>
      </defs>
      <g transform="translate(316.728862 370.640938)scale(0.14 -0.14)">
       <use xlink:href="#ArialMT-49"/>
       <use x="55.615234" xlink:href="#ArialMT-46"/>
       <use x="83.398438" xlink:href="#ArialMT-50"/>
      </g>
     </g>
    </g>
    <g id="xtick_5">
     <g id="line2d_9">
      <path clip-path="url(#p5c7f5ad9cf)" d="M 405.583072 357.12 
L 405.583072 7.2 
" style="fill:none;stroke:#000000;stroke-dasharray:6.4,1.6,1,1.6;stroke-dashoffset:0;stroke-opacity:0.2;"/>
     </g>
     <g id="line2d_10"/>
     <g id="text_5">
      <!-- 1.6 -->
      <defs>
       <path d="M 49.75 54.046875 
L 41.015625 53.375 
Q 39.84375 58.546875 37.703125 60.890625 
Q 34.125 64.65625 28.90625 64.65625 
Q 24.703125 64.65625 21.53125 62.3125 
Q 17.390625 59.28125 14.984375 53.46875 
Q 12.59375 47.65625 12.5 36.921875 
Q 15.671875 41.75 20.265625 44.09375 
Q 24.859375 46.4375 29.890625 46.4375 
Q 38.671875 46.4375 44.84375 39.96875 
Q 51.03125 33.5 51.03125 23.25 
Q 51.03125 16.5 48.125 10.71875 
Q 45.21875 4.9375 40.140625 1.859375 
Q 35.0625 -1.21875 28.609375 -1.21875 
Q 17.625 -1.21875 10.6875 6.859375 
Q 3.765625 14.9375 3.765625 33.5 
Q 3.765625 54.25 11.421875 63.671875 
Q 18.109375 71.875 29.4375 71.875 
Q 37.890625 71.875 43.28125 67.140625 
Q 48.6875 62.40625 49.75 54.046875 
z
M 13.875 23.1875 
Q 13.875 18.65625 15.796875 14.5 
Q 17.71875 10.359375 21.1875 8.171875 
Q 24.65625 6 28.46875 6 
Q 34.03125 6 38.03125 10.484375 
Q 42.046875 14.984375 42.046875 22.703125 
Q 42.046875 30.125 38.078125 34.390625 
Q 34.125 38.671875 28.125 38.671875 
Q 22.171875 38.671875 18.015625 34.390625 
Q 13.875 30.125 13.875 23.1875 
z
" id="ArialMT-54"/>
      </defs>
      <g transform="translate(395.853072 370.640938)scale(0.14 -0.14)">
       <use xlink:href="#ArialMT-49"/>
       <use x="55.615234" xlink:href="#ArialMT-46"/>
       <use x="83.398438" xlink:href="#ArialMT-54"/>
      </g>
     </g>
    </g>
    <g id="text_6">
     <!-- Predicted -->
     <defs>
      <path d="M 7.71875 0 
L 7.71875 71.578125 
L 34.71875 71.578125 
Q 41.84375 71.578125 45.609375 70.90625 
Q 50.875 70.015625 54.4375 67.546875 
Q 58.015625 65.09375 60.1875 60.640625 
Q 62.359375 56.203125 62.359375 50.875 
Q 62.359375 41.75 56.546875 35.421875 
Q 50.734375 29.109375 35.546875 29.109375 
L 17.1875 29.109375 
L 17.1875 0 
z
M 17.1875 37.546875 
L 35.6875 37.546875 
Q 44.875 37.546875 48.734375 40.96875 
Q 52.59375 44.390625 52.59375 50.59375 
Q 52.59375 55.078125 50.3125 58.265625 
Q 48.046875 61.46875 44.34375 62.5 
Q 41.9375 63.140625 35.5 63.140625 
L 17.1875 63.140625 
z
" id="ArialMT-80"/>
      <path d="M 6.5 0 
L 6.5 51.859375 
L 14.40625 51.859375 
L 14.40625 44 
Q 17.4375 49.515625 20 51.265625 
Q 22.5625 53.03125 25.640625 53.03125 
Q 30.078125 53.03125 34.671875 50.203125 
L 31.640625 42.046875 
Q 28.421875 43.953125 25.203125 43.953125 
Q 22.3125 43.953125 20.015625 42.21875 
Q 17.71875 40.484375 16.75 37.40625 
Q 15.28125 32.71875 15.28125 27.15625 
L 15.28125 0 
z
" id="ArialMT-114"/>
      <path d="M 42.09375 16.703125 
L 51.171875 15.578125 
Q 49.03125 7.625 43.21875 3.21875 
Q 37.40625 -1.171875 28.375 -1.171875 
Q 17 -1.171875 10.328125 5.828125 
Q 3.65625 12.84375 3.65625 25.484375 
Q 3.65625 38.578125 10.390625 45.796875 
Q 17.140625 53.03125 27.875 53.03125 
Q 38.28125 53.03125 44.875 45.953125 
Q 51.46875 38.875 51.46875 26.03125 
Q 51.46875 25.25 51.421875 23.6875 
L 12.75 23.6875 
Q 13.234375 15.140625 17.578125 10.59375 
Q 21.921875 6.0625 28.421875 6.0625 
Q 33.25 6.0625 36.671875 8.59375 
Q 40.09375 11.140625 42.09375 16.703125 
z
M 13.234375 30.90625 
L 42.1875 30.90625 
Q 41.609375 37.453125 38.875 40.71875 
Q 34.671875 45.796875 27.984375 45.796875 
Q 21.921875 45.796875 17.796875 41.75 
Q 13.671875 37.703125 13.234375 30.90625 
z
" id="ArialMT-101"/>
      <path d="M 40.234375 0 
L 40.234375 6.546875 
Q 35.296875 -1.171875 25.734375 -1.171875 
Q 19.53125 -1.171875 14.328125 2.25 
Q 9.125 5.671875 6.265625 11.796875 
Q 3.421875 17.921875 3.421875 25.875 
Q 3.421875 33.640625 6 39.96875 
Q 8.59375 46.296875 13.765625 49.65625 
Q 18.953125 53.03125 25.34375 53.03125 
Q 30.03125 53.03125 33.6875 51.046875 
Q 37.359375 49.078125 39.65625 45.90625 
L 39.65625 71.578125 
L 48.390625 71.578125 
L 48.390625 0 
z
M 12.453125 25.875 
Q 12.453125 15.921875 16.640625 10.984375 
Q 20.84375 6.0625 26.5625 6.0625 
Q 32.328125 6.0625 36.34375 10.765625 
Q 40.375 15.484375 40.375 25.140625 
Q 40.375 35.796875 36.265625 40.765625 
Q 32.171875 45.75 26.171875 45.75 
Q 20.3125 45.75 16.375 40.96875 
Q 12.453125 36.1875 12.453125 25.875 
z
" id="ArialMT-100"/>
      <path d="M 6.640625 61.46875 
L 6.640625 71.578125 
L 15.4375 71.578125 
L 15.4375 61.46875 
z
M 6.640625 0 
L 6.640625 51.859375 
L 15.4375 51.859375 
L 15.4375 0 
z
" id="ArialMT-105"/>
      <path d="M 40.4375 19 
L 49.078125 17.875 
Q 47.65625 8.9375 41.8125 3.875 
Q 35.984375 -1.171875 27.484375 -1.171875 
Q 16.84375 -1.171875 10.375 5.78125 
Q 3.90625 12.75 3.90625 25.734375 
Q 3.90625 34.125 6.6875 40.421875 
Q 9.46875 46.734375 15.15625 49.875 
Q 20.84375 53.03125 27.546875 53.03125 
Q 35.984375 53.03125 41.359375 48.75 
Q 46.734375 44.484375 48.25 36.625 
L 39.703125 35.296875 
Q 38.484375 40.53125 35.375 43.15625 
Q 32.28125 45.796875 27.875 45.796875 
Q 21.234375 45.796875 17.078125 41.03125 
Q 12.9375 36.28125 12.9375 25.984375 
Q 12.9375 15.53125 16.9375 10.796875 
Q 20.953125 6.0625 27.390625 6.0625 
Q 32.5625 6.0625 36.03125 9.234375 
Q 39.5 12.40625 40.4375 19 
z
" id="ArialMT-99"/>
      <path d="M 25.78125 7.859375 
L 27.046875 0.09375 
Q 23.34375 -0.6875 20.40625 -0.6875 
Q 15.625 -0.6875 12.984375 0.828125 
Q 10.359375 2.34375 9.28125 4.8125 
Q 8.203125 7.28125 8.203125 15.1875 
L 8.203125 45.015625 
L 1.765625 45.015625 
L 1.765625 51.859375 
L 8.203125 51.859375 
L 8.203125 64.703125 
L 16.9375 69.96875 
L 16.9375 51.859375 
L 25.78125 51.859375 
L 25.78125 45.015625 
L 16.9375 45.015625 
L 16.9375 14.703125 
Q 16.9375 10.9375 17.40625 9.859375 
Q 17.875 8.796875 18.921875 8.15625 
Q 19.96875 7.515625 21.921875 7.515625 
Q 23.390625 7.515625 25.78125 7.859375 
z
" id="ArialMT-116"/>
     </defs>
     <g transform="translate(201.959375 389.448563)scale(0.168 -0.168)">
      <use xlink:href="#ArialMT-80"/>
      <use x="66.699219" xlink:href="#ArialMT-114"/>
      <use x="100" xlink:href="#ArialMT-101"/>
      <use x="155.615234" xlink:href="#ArialMT-100"/>
      <use x="211.230469" xlink:href="#ArialMT-105"/>
      <use x="233.447266" xlink:href="#ArialMT-99"/>
      <use x="283.447266" xlink:href="#ArialMT-116"/>
      <use x="311.230469" xlink:href="#ArialMT-101"/>
      <use x="366.845703" xlink:href="#ArialMT-100"/>
     </g>
    </g>
   </g>
   <g id="matplotlib.axis_2">
    <g id="ytick_1">
     <g id="line2d_11">
      <path clip-path="url(#p5c7f5ad9cf)" d="M 49.524125 320.286316 
L 425.364125 320.286316 
" style="fill:none;stroke:#000000;stroke-dasharray:6.4,1.6,1,1.6;stroke-dashoffset:0;stroke-opacity:0.2;"/>
     </g>
     <g id="line2d_12"/>
     <g id="text_7">
      <!-- 0.0 -->
      <g transform="translate(26.564125 325.296785)scale(0.14 -0.14)">
       <use xlink:href="#ArialMT-48"/>
       <use x="55.615234" xlink:href="#ArialMT-46"/>
       <use x="83.398438" xlink:href="#ArialMT-48"/>
      </g>
     </g>
    </g>
    <g id="ytick_2">
     <g id="line2d_13">
      <path clip-path="url(#p5c7f5ad9cf)" d="M 49.524125 246.618947 
L 425.364125 246.618947 
" style="fill:none;stroke:#000000;stroke-dasharray:6.4,1.6,1,1.6;stroke-dashoffset:0;stroke-opacity:0.2;"/>
     </g>
     <g id="line2d_14"/>
     <g id="text_8">
      <!-- 0.4 -->
      <g transform="translate(26.564125 251.629416)scale(0.14 -0.14)">
       <use xlink:href="#ArialMT-48"/>
       <use x="55.615234" xlink:href="#ArialMT-46"/>
       <use x="83.398438" xlink:href="#ArialMT-52"/>
      </g>
     </g>
    </g>
    <g id="ytick_3">
     <g id="line2d_15">
      <path clip-path="url(#p5c7f5ad9cf)" d="M 49.524125 172.951579 
L 425.364125 172.951579 
" style="fill:none;stroke:#000000;stroke-dasharray:6.4,1.6,1,1.6;stroke-dashoffset:0;stroke-opacity:0.2;"/>
     </g>
     <g id="line2d_16"/>
     <g id="text_9">
      <!-- 0.8 -->
      <g transform="translate(26.564125 177.962048)scale(0.14 -0.14)">
       <use xlink:href="#ArialMT-48"/>
       <use x="55.615234" xlink:href="#ArialMT-46"/>
       <use x="83.398438" xlink:href="#ArialMT-56"/>
      </g>
     </g>
    </g>
    <g id="ytick_4">
     <g id="line2d_17">
      <path clip-path="url(#p5c7f5ad9cf)" d="M 49.524125 99.284211 
L 425.364125 99.284211 
" style="fill:none;stroke:#000000;stroke-dasharray:6.4,1.6,1,1.6;stroke-dashoffset:0;stroke-opacity:0.2;"/>
     </g>
     <g id="line2d_18"/>
     <g id="text_10">
      <!-- 1.2 -->
      <g transform="translate(26.564125 104.294679)scale(0.14 -0.14)">
       <use xlink:href="#ArialMT-49"/>
       <use x="55.615234" xlink:href="#ArialMT-46"/>
       <use x="83.398438" xlink:href="#ArialMT-50"/>
      </g>
     </g>
    </g>
    <g id="ytick_5">
     <g id="line2d_19">
      <path clip-path="url(#p5c7f5ad9cf)" d="M 49.524125 25.616842 
L 425.364125 25.616842 
" style="fill:none;stroke:#000000;stroke-dasharray:6.4,1.6,1,1.6;stroke-dashoffset:0;stroke-opacity:0.2;"/>
     </g>
     <g id="line2d_20"/>
     <g id="text_11">
      <!-- 1.6 -->
      <g transform="translate(26.564125 30.627311)scale(0.14 -0.14)">
       <use xlink:href="#ArialMT-49"/>
       <use x="55.615234" xlink:href="#ArialMT-46"/>
       <use x="83.398438" xlink:href="#ArialMT-54"/>
      </g>
     </g>
    </g>
    <g id="text_12">
     <!-- Actual -->
     <defs>
      <path d="M -0.140625 0 
L 27.34375 71.578125 
L 37.546875 71.578125 
L 66.84375 0 
L 56.0625 0 
L 47.703125 21.6875 
L 17.78125 21.6875 
L 9.90625 0 
z
M 20.515625 29.390625 
L 44.78125 29.390625 
L 37.3125 49.21875 
Q 33.890625 58.25 32.234375 64.0625 
Q 30.859375 57.171875 28.375 50.390625 
z
" id="ArialMT-65"/>
      <path d="M 40.578125 0 
L 40.578125 7.625 
Q 34.515625 -1.171875 24.125 -1.171875 
Q 19.53125 -1.171875 15.546875 0.578125 
Q 11.578125 2.34375 9.640625 5 
Q 7.71875 7.671875 6.9375 11.53125 
Q 6.390625 14.109375 6.390625 19.734375 
L 6.390625 51.859375 
L 15.1875 51.859375 
L 15.1875 23.09375 
Q 15.1875 16.21875 15.71875 13.8125 
Q 16.546875 10.359375 19.234375 8.375 
Q 21.921875 6.390625 25.875 6.390625 
Q 29.828125 6.390625 33.296875 8.421875 
Q 36.765625 10.453125 38.203125 13.9375 
Q 39.65625 17.4375 39.65625 24.078125 
L 39.65625 51.859375 
L 48.4375 51.859375 
L 48.4375 0 
z
" id="ArialMT-117"/>
      <path d="M 40.4375 6.390625 
Q 35.546875 2.25 31.03125 0.53125 
Q 26.515625 -1.171875 21.34375 -1.171875 
Q 12.796875 -1.171875 8.203125 3 
Q 3.609375 7.171875 3.609375 13.671875 
Q 3.609375 17.484375 5.34375 20.625 
Q 7.078125 23.78125 9.890625 25.6875 
Q 12.703125 27.59375 16.21875 28.5625 
Q 18.796875 29.25 24.03125 29.890625 
Q 34.671875 31.15625 39.703125 32.90625 
Q 39.75 34.71875 39.75 35.203125 
Q 39.75 40.578125 37.25 42.78125 
Q 33.890625 45.75 27.25 45.75 
Q 21.046875 45.75 18.09375 43.578125 
Q 15.140625 41.40625 13.71875 35.890625 
L 5.125 37.0625 
Q 6.296875 42.578125 8.984375 45.96875 
Q 11.671875 49.359375 16.75 51.1875 
Q 21.828125 53.03125 28.515625 53.03125 
Q 35.15625 53.03125 39.296875 51.46875 
Q 43.453125 49.90625 45.40625 47.53125 
Q 47.359375 45.171875 48.140625 41.546875 
Q 48.578125 39.3125 48.578125 33.453125 
L 48.578125 21.734375 
Q 48.578125 9.46875 49.140625 6.21875 
Q 49.703125 2.984375 51.375 0 
L 42.1875 0 
Q 40.828125 2.734375 40.4375 6.390625 
z
M 39.703125 26.03125 
Q 34.90625 24.078125 25.34375 22.703125 
Q 19.921875 21.921875 17.671875 20.9375 
Q 15.4375 19.96875 14.203125 18.09375 
Q 12.984375 16.21875 12.984375 13.921875 
Q 12.984375 10.40625 15.640625 8.0625 
Q 18.3125 5.71875 23.4375 5.71875 
Q 28.515625 5.71875 32.46875 7.9375 
Q 36.421875 10.15625 38.28125 14.015625 
Q 39.703125 17 39.703125 22.796875 
z
" id="ArialMT-97"/>
      <path d="M 6.390625 0 
L 6.390625 71.578125 
L 15.1875 71.578125 
L 15.1875 0 
z
" id="ArialMT-108"/>
     </defs>
     <g transform="translate(19.225125 205.505438)rotate(-90)scale(0.168 -0.168)">
      <use xlink:href="#ArialMT-65"/>
      <use x="66.699219" xlink:href="#ArialMT-99"/>
      <use x="116.699219" xlink:href="#ArialMT-116"/>
      <use x="144.482422" xlink:href="#ArialMT-117"/>
      <use x="200.097656" xlink:href="#ArialMT-97"/>
      <use x="255.712891" xlink:href="#ArialMT-108"/>
     </g>
    </g>
   </g>
   <g id="PathCollection_1">
    <path clip-path="url(#p5c7f5ad9cf)" d="M 171.574312 300.690554 
C 172.097114 300.690554 172.598575 300.482843 172.968252 300.113166 
C 173.337929 299.743488 173.545641 299.242028 173.545641 298.719225 
C 173.545641 298.196423 173.337929 297.694963 172.968252 297.325285 
C 172.598575 296.955608 172.097114 296.747897 171.574312 296.747897 
C 171.051509 296.747897 170.550049 296.955608 170.180372 297.325285 
C 169.810694 297.694963 169.602983 298.196423 169.602983 298.719225 
C 169.602983 299.242028 169.810694 299.743488 170.180372 300.113166 
C 170.550049 300.482843 171.051509 300.690554 171.574312 300.690554 
z
" style="fill:#3a0ca3;fill-opacity:0.7;stroke:#3a0ca3;stroke-opacity:0.7;stroke-width:0.5;"/>
    <path clip-path="url(#p5c7f5ad9cf)" d="M 231.678778 271.565353 
C 231.813687 271.565353 231.943089 271.511753 232.038485 271.416357 
C 232.13388 271.320962 232.18748 271.191559 232.18748 271.05665 
C 232.18748 270.92174 232.13388 270.792338 232.038485 270.696943 
C 231.943089 270.601547 231.813687 270.547947 231.678778 270.547947 
C 231.543868 270.547947 231.414466 270.601547 231.31907 270.696943 
C 231.223675 270.792338 231.170075 270.92174 231.170075 271.05665 
C 231.170075 271.191559 231.223675 271.320962 231.31907 271.416357 
C 231.414466 271.511753 231.543868 271.565353 231.678778 271.565353 
z
" style="fill:#3a0ca3;fill-opacity:0.7;stroke:#3a0ca3;stroke-opacity:0.7;stroke-width:0.5;"/>
    <path clip-path="url(#p5c7f5ad9cf)" d="M 206.903146 159.276658 
C 207.218622 159.276658 207.52122 159.151318 207.744296 158.928242 
C 207.967371 158.705167 208.092712 158.402569 208.092712 158.087092 
C 208.092712 157.771616 207.967371 157.469018 207.744296 157.245942 
C 207.52122 157.022867 207.218622 156.897526 206.903146 156.897526 
C 206.587669 156.897526 206.285071 157.022867 206.061995 157.245942 
C 205.83892 157.469018 205.71358 157.771616 205.71358 158.087092 
C 205.71358 158.402569 205.83892 158.705167 206.061995 158.928242 
C 206.285071 159.151318 206.587669 159.276658 206.903146 159.276658 
z
" style="fill:#3a0ca3;fill-opacity:0.7;stroke:#3a0ca3;stroke-opacity:0.7;stroke-width:0.5;"/>
    <path clip-path="url(#p5c7f5ad9cf)" d="M 210.288712 248.170515 
C 210.882223 248.170515 211.451505 247.934711 211.87118 247.515035 
C 212.290856 247.09536 212.52666 246.526077 212.52666 245.932566 
C 212.52666 245.339055 212.290856 244.769773 211.87118 244.350098 
C 211.451505 243.930422 210.882223 243.694617 210.288712 243.694617 
C 209.695201 243.694617 209.125918 243.930422 208.706243 244.350098 
C 208.286567 244.769773 208.050763 245.339055 208.050763 245.932566 
C 208.050763 246.526077 208.286567 247.09536 208.706243 247.515035 
C 209.125918 247.934711 209.695201 248.170515 210.288712 248.170515 
z
" style="fill:#3a0ca3;fill-opacity:0.7;stroke:#3a0ca3;stroke-opacity:0.7;stroke-width:0.5;"/>
    <path clip-path="url(#p5c7f5ad9cf)" d="M 280.37071 169.301272 
C 280.836217 169.301272 281.28272 169.116324 281.611883 168.787161 
C 281.941046 168.457998 282.125994 168.011494 282.125994 167.545988 
C 282.125994 167.080481 281.941046 166.633977 281.611883 166.304814 
C 281.28272 165.975651 280.836217 165.790704 280.37071 165.790704 
C 279.905203 165.790704 279.4587 165.975651 279.129537 166.304814 
C 278.800374 166.633977 278.615426 167.080481 278.615426 167.545988 
C 278.615426 168.011494 278.800374 168.457998 279.129537 168.787161 
C 279.4587 169.116324 279.905203 169.301272 280.37071 169.301272 
z
" style="fill:#3a0ca3;fill-opacity:0.7;stroke:#3a0ca3;stroke-opacity:0.7;stroke-width:0.5;"/>
    <path clip-path="url(#p5c7f5ad9cf)" d="M 289.538293 169.506282 
C 289.816394 169.506282 290.083142 169.395791 290.279789 169.199144 
C 290.476436 169.002497 290.586927 168.735749 290.586927 168.457648 
C 290.586927 168.179547 290.476436 167.912798 290.279789 167.716151 
C 290.083142 167.519504 289.816394 167.409013 289.538293 167.409013 
C 289.260192 167.409013 288.993443 167.519504 288.796796 167.716151 
C 288.600149 167.912798 288.489659 168.179547 288.489659 168.457648 
C 288.489659 168.735749 288.600149 169.002497 288.796796 169.199144 
C 288.993443 169.395791 289.260192 169.506282 289.538293 169.506282 
z
" style="fill:#3a0ca3;fill-opacity:0.7;stroke:#3a0ca3;stroke-opacity:0.7;stroke-width:0.5;"/>
    <path clip-path="url(#p5c7f5ad9cf)" d="M 281.713937 163.649927 
C 282.003516 163.649927 282.281274 163.534876 282.486037 163.330113 
C 282.6908 163.12535 282.805851 162.847592 282.805851 162.558013 
C 282.805851 162.268435 282.6908 161.990677 282.486037 161.785914 
C 282.281274 161.581151 282.003516 161.4661 281.713937 161.4661 
C 281.424359 161.4661 281.146601 161.581151 280.941838 161.785914 
C 280.737075 161.990677 280.622024 162.268435 280.622024 162.558013 
C 280.622024 162.847592 280.737075 163.12535 280.941838 163.330113 
C 281.146601 163.534876 281.424359 163.649927 281.713937 163.649927 
z
" style="fill:#3a0ca3;fill-opacity:0.7;stroke:#3a0ca3;stroke-opacity:0.7;stroke-width:0.5;"/>
    <path clip-path="url(#p5c7f5ad9cf)" d="M 137.749387 313.348128 
C 138.088348 313.348128 138.413472 313.213457 138.653154 312.973776 
C 138.892835 312.734094 139.027506 312.408971 139.027506 312.070009 
C 139.027506 311.731048 138.892835 311.405925 138.653154 311.166243 
C 138.413472 310.926562 138.088348 310.791891 137.749387 310.791891 
C 137.410426 310.791891 137.085302 310.926562 136.845621 311.166243 
C 136.605939 311.405925 136.471269 311.731048 136.471269 312.070009 
C 136.471269 312.408971 136.605939 312.734094 136.845621 312.973776 
C 137.085302 313.213457 137.410426 313.348128 137.749387 313.348128 
z
" style="fill:#3a0ca3;fill-opacity:0.7;stroke:#3a0ca3;stroke-opacity:0.7;stroke-width:0.5;"/>
    <path clip-path="url(#p5c7f5ad9cf)" d="M 168.124589 309.066258 
C 169.177321 309.066258 170.187078 308.648003 170.931473 307.903608 
C 171.675867 307.159214 172.094122 306.149457 172.094122 305.096724 
C 172.094122 304.043992 171.675867 303.034235 170.931473 302.289841 
C 170.187078 301.545446 169.177321 301.127191 168.124589 301.127191 
C 167.071856 301.127191 166.062099 301.545446 165.317705 302.289841 
C 164.573311 303.034235 164.155056 304.043992 164.155056 305.096724 
C 164.155056 306.149457 164.573311 307.159214 165.317705 307.903608 
C 166.062099 308.648003 167.071856 309.066258 168.124589 309.066258 
z
" style="fill:#3a0ca3;fill-opacity:0.7;stroke:#3a0ca3;stroke-opacity:0.7;stroke-width:0.5;"/>
    <path clip-path="url(#p5c7f5ad9cf)" d="M 234.155942 260.398774 
C 234.398019 260.398774 234.630215 260.302596 234.801389 260.131421 
C 234.972564 259.960246 235.068743 259.728051 235.068743 259.485974 
C 235.068743 259.243896 234.972564 259.011701 234.801389 258.840526 
C 234.630215 258.669351 234.398019 258.573173 234.155942 258.573173 
C 233.913864 258.573173 233.681669 258.669351 233.510494 258.840526 
C 233.339319 259.011701 233.243141 259.243896 233.243141 259.485974 
C 233.243141 259.728051 233.339319 259.960246 233.510494 260.131421 
C 233.681669 260.302596 233.913864 260.398774 234.155942 260.398774 
z
" style="fill:#3a0ca3;fill-opacity:0.7;stroke:#3a0ca3;stroke-opacity:0.7;stroke-width:0.5;"/>
    <path clip-path="url(#p5c7f5ad9cf)" d="M 198.997961 179.083578 
C 199.113324 179.083578 199.223978 179.037743 199.305552 178.956169 
C 199.387126 178.874595 199.43296 178.763942 199.43296 178.648579 
C 199.43296 178.533215 199.387126 178.422562 199.305552 178.340988 
C 199.223978 178.259414 199.113324 178.213579 198.997961 178.213579 
C 198.882598 178.213579 198.771945 178.259414 198.690371 178.340988 
C 198.608797 178.422562 198.562962 178.533215 198.562962 178.648579 
C 198.562962 178.763942 198.608797 178.874595 198.690371 178.956169 
C 198.771945 179.037743 198.882598 179.083578 198.997961 179.083578 
z
" style="fill:#3a0ca3;fill-opacity:0.7;stroke:#3a0ca3;stroke-opacity:0.7;stroke-width:0.5;"/>
    <path clip-path="url(#p5c7f5ad9cf)" d="M 193.60852 296.127692 
C 193.912983 296.127692 194.205017 296.006728 194.420305 295.79144 
C 194.635593 295.576152 194.756558 295.284118 194.756558 294.979655 
C 194.756558 294.675191 194.635593 294.383157 194.420305 294.167869 
C 194.205017 293.952581 193.912983 293.831617 193.60852 293.831617 
C 193.304057 293.831617 193.012023 293.952581 192.796735 294.167869 
C 192.581447 294.383157 192.460482 294.675191 192.460482 294.979655 
C 192.460482 295.284118 192.581447 295.576152 192.796735 295.79144 
C 193.012023 296.006728 193.304057 296.127692 193.60852 296.127692 
z
" style="fill:#3a0ca3;fill-opacity:0.7;stroke:#3a0ca3;stroke-opacity:0.7;stroke-width:0.5;"/>
    <path clip-path="url(#p5c7f5ad9cf)" d="M 220.45744 277.24503 
C 221.718907 277.24503 222.928879 276.743844 223.820871 275.851851 
C 224.712864 274.959859 225.21405 273.749887 225.21405 272.488419 
C 225.21405 271.226951 224.712864 270.01698 223.820871 269.124987 
C 222.928879 268.232995 221.718907 267.731808 220.45744 267.731808 
C 219.195972 267.731808 217.986 268.232995 217.094008 269.124987 
C 216.202015 270.01698 215.700829 271.226951 215.700829 272.488419 
C 215.700829 273.749887 216.202015 274.959859 217.094008 275.851851 
C 217.986 276.743844 219.195972 277.24503 220.45744 277.24503 
z
" style="fill:#3a0ca3;fill-opacity:0.7;stroke:#3a0ca3;stroke-opacity:0.7;stroke-width:0.5;"/>
    <path clip-path="url(#p5c7f5ad9cf)" d="M 207.381702 283.41879 
C 207.430058 283.41879 207.476441 283.399578 207.510633 283.365385 
C 207.544826 283.331192 207.564039 283.28481 207.564039 283.236454 
C 207.564039 283.188097 207.544826 283.141715 207.510633 283.107522 
C 207.476441 283.073329 207.430058 283.054117 207.381702 283.054117 
C 207.333346 283.054117 207.286964 283.073329 207.252771 283.107522 
C 207.218578 283.141715 207.199366 283.188097 207.199366 283.236454 
C 207.199366 283.28481 207.218578 283.331192 207.252771 283.365385 
C 207.286964 283.399578 207.333346 283.41879 207.381702 283.41879 
z
" style="fill:#3a0ca3;fill-opacity:0.7;stroke:#3a0ca3;stroke-opacity:0.7;stroke-width:0.5;"/>
    <path clip-path="url(#p5c7f5ad9cf)" d="M 239.15438 262.234671 
C 239.279442 262.234671 239.399399 262.184983 239.487832 262.096551 
C 239.576264 262.008118 239.625952 261.888161 239.625952 261.763099 
C 239.625952 261.638037 239.576264 261.51808 239.487832 261.429647 
C 239.399399 261.341215 239.279442 261.291527 239.15438 261.291527 
C 239.029318 261.291527 238.909361 261.341215 238.820928 261.429647 
C 238.732496 261.51808 238.682808 261.638037 238.682808 261.763099 
C 238.682808 261.888161 238.732496 262.008118 238.820928 262.096551 
C 238.909361 262.184983 239.029318 262.234671 239.15438 262.234671 
z
" style="fill:#3a0ca3;fill-opacity:0.7;stroke:#3a0ca3;stroke-opacity:0.7;stroke-width:0.5;"/>
    <path clip-path="url(#p5c7f5ad9cf)" d="M 280.260466 183.611817 
C 280.836205 183.611817 281.38844 183.383074 281.795548 182.975965 
C 282.202657 182.568857 282.4314 182.016622 282.4314 181.440883 
C 282.4314 180.865145 282.202657 180.31291 281.795548 179.905801 
C 281.38844 179.498693 280.836205 179.26995 280.260466 179.26995 
C 279.684728 179.26995 279.132493 179.498693 278.725384 179.905801 
C 278.318276 180.31291 278.089533 180.865145 278.089533 181.440883 
C 278.089533 182.016622 278.318276 182.568857 278.725384 182.975965 
C 279.132493 183.383074 279.684728 183.611817 280.260466 183.611817 
z
" style="fill:#3a0ca3;fill-opacity:0.7;stroke:#3a0ca3;stroke-opacity:0.7;stroke-width:0.5;"/>
    <path clip-path="url(#p5c7f5ad9cf)" d="M 326.099574 136.938898 
C 326.393758 136.938898 326.675931 136.822018 326.88395 136.613999 
C 327.091969 136.40598 327.20885 136.123806 327.20885 135.829623 
C 327.20885 135.535439 327.091969 135.253266 326.88395 135.045247 
C 326.675931 134.837228 326.393758 134.720347 326.099574 134.720347 
C 325.805391 134.720347 325.523217 134.837228 325.315198 135.045247 
C 325.107179 135.253266 324.990299 135.535439 324.990299 135.829623 
C 324.990299 136.123806 325.107179 136.40598 325.315198 136.613999 
C 325.523217 136.822018 325.805391 136.938898 326.099574 136.938898 
z
" style="fill:#3a0ca3;fill-opacity:0.7;stroke:#3a0ca3;stroke-opacity:0.7;stroke-width:0.5;"/>
    <path clip-path="url(#p5c7f5ad9cf)" d="M 224.905757 244.063062 
C 225.279121 244.063062 225.637243 243.914723 225.901251 243.650715 
C 226.165259 243.386707 226.313598 243.028585 226.313598 242.655221 
C 226.313598 242.281857 226.165259 241.923735 225.901251 241.659727 
C 225.637243 241.395719 225.279121 241.24738 224.905757 241.24738 
C 224.532393 241.24738 224.174271 241.395719 223.910263 241.659727 
C 223.646254 241.923735 223.497915 242.281857 223.497915 242.655221 
C 223.497915 243.028585 223.646254 243.386707 223.910263 243.650715 
C 224.174271 243.914723 224.532393 244.063062 224.905757 244.063062 
z
" style="fill:#3a0ca3;fill-opacity:0.7;stroke:#3a0ca3;stroke-opacity:0.7;stroke-width:0.5;"/>
    <path clip-path="url(#p5c7f5ad9cf)" d="M 242.159025 303.953 
C 245.907654 303.953 249.503255 302.463653 252.153936 299.812972 
C 254.804618 297.16229 256.293964 293.56669 256.293964 289.81806 
C 256.293964 286.06943 254.804618 282.47383 252.153936 279.823148 
C 249.503255 277.172467 245.907654 275.68312 242.159025 275.68312 
C 238.410395 275.68312 234.814794 277.172467 232.164113 279.823148 
C 229.513431 282.47383 228.024085 286.06943 228.024085 289.81806 
C 228.024085 293.56669 229.513431 297.16229 232.164113 299.812972 
C 234.814794 302.463653 238.410395 303.953 242.159025 303.953 
z
" style="fill:#3a0ca3;fill-opacity:0.7;stroke:#3a0ca3;stroke-opacity:0.7;stroke-width:0.5;"/>
    <path clip-path="url(#p5c7f5ad9cf)" d="M 137.313846 298.675134 
C 137.6663 298.675134 138.004366 298.535103 138.253588 298.28588 
C 138.502811 298.036658 138.642842 297.698592 138.642842 297.346138 
C 138.642842 296.993684 138.502811 296.655618 138.253588 296.406395 
C 138.004366 296.157173 137.6663 296.017141 137.313846 296.017141 
C 136.961392 296.017141 136.623326 296.157173 136.374103 296.406395 
C 136.124881 296.655618 135.984849 296.993684 135.984849 297.346138 
C 135.984849 297.698592 136.124881 298.036658 136.374103 298.28588 
C 136.623326 298.535103 136.961392 298.675134 137.313846 298.675134 
z
" style="fill:#3a0ca3;fill-opacity:0.7;stroke:#3a0ca3;stroke-opacity:0.7;stroke-width:0.5;"/>
    <path clip-path="url(#p5c7f5ad9cf)" d="M 163.784201 308.952851 
C 164.198776 308.952851 164.596426 308.788139 164.889575 308.49499 
C 165.182723 308.201842 165.347436 307.804191 165.347436 307.389617 
C 165.347436 306.975042 165.182723 306.577392 164.889575 306.284243 
C 164.596426 305.991095 164.198776 305.826383 163.784201 305.826383 
C 163.369627 305.826383 162.971976 305.991095 162.678828 306.284243 
C 162.385679 306.577392 162.220967 306.975042 162.220967 307.389617 
C 162.220967 307.804191 162.385679 308.201842 162.678828 308.49499 
C 162.971976 308.788139 163.369627 308.952851 163.784201 308.952851 
z
" style="fill:#3a0ca3;fill-opacity:0.7;stroke:#3a0ca3;stroke-opacity:0.7;stroke-width:0.5;"/>
    <path clip-path="url(#p5c7f5ad9cf)" d="M 157.206557 317.646322 
C 157.850377 317.646322 158.467915 317.390529 158.923165 316.935279 
C 159.378415 316.480029 159.634208 315.862491 159.634208 315.218671 
C 159.634208 314.57485 159.378415 313.957312 158.923165 313.502062 
C 158.467915 313.046812 157.850377 312.79102 157.206557 312.79102 
C 156.562736 312.79102 155.945198 313.046812 155.489948 313.502062 
C 155.034698 313.957312 154.778905 314.57485 154.778905 315.218671 
C 154.778905 315.862491 155.034698 316.480029 155.489948 316.935279 
C 155.945198 317.390529 156.562736 317.646322 157.206557 317.646322 
z
" style="fill:#3a0ca3;fill-opacity:0.7;stroke:#3a0ca3;stroke-opacity:0.7;stroke-width:0.5;"/>
    <path clip-path="url(#p5c7f5ad9cf)" d="M 176.617677 304.905136 
C 176.799841 304.905136 176.974569 304.832761 177.103378 304.703952 
C 177.232187 304.575142 177.304562 304.400415 177.304562 304.218251 
C 177.304562 304.036087 177.232187 303.86136 177.103378 303.73255 
C 176.974569 303.603741 176.799841 303.531367 176.617677 303.531367 
C 176.435513 303.531367 176.260786 303.603741 176.131976 303.73255 
C 176.003167 303.86136 175.930793 304.036087 175.930793 304.218251 
C 175.930793 304.400415 176.003167 304.575142 176.131976 304.703952 
C 176.260786 304.832761 176.435513 304.905136 176.617677 304.905136 
z
" style="fill:#3a0ca3;fill-opacity:0.7;stroke:#3a0ca3;stroke-opacity:0.7;stroke-width:0.5;"/>
    <path clip-path="url(#p5c7f5ad9cf)" d="M 201.826434 277.631761 
C 202.438098 277.631761 203.024793 277.388744 203.457305 276.956232 
C 203.889817 276.52372 204.132834 275.937025 204.132834 275.325361 
C 204.132834 274.713696 203.889817 274.127001 203.457305 273.694489 
C 203.024793 273.261977 202.438098 273.01896 201.826434 273.01896 
C 201.214769 273.01896 200.628074 273.261977 200.195562 273.694489 
C 199.76305 274.127001 199.520033 274.713696 199.520033 275.325361 
C 199.520033 275.937025 199.76305 276.52372 200.195562 276.956232 
C 200.628074 277.388744 201.214769 277.631761 201.826434 277.631761 
z
" style="fill:#3a0ca3;fill-opacity:0.7;stroke:#3a0ca3;stroke-opacity:0.7;stroke-width:0.5;"/>
    <path clip-path="url(#p5c7f5ad9cf)" d="M 188.142443 261.396581 
C 188.338789 261.396581 188.527119 261.318572 188.665957 261.179735 
C 188.804794 261.040897 188.882803 260.852567 188.882803 260.656221 
C 188.882803 260.459875 188.804794 260.271544 188.665957 260.132707 
C 188.527119 259.993869 188.338789 259.91586 188.142443 259.91586 
C 187.946097 259.91586 187.757766 259.993869 187.618929 260.132707 
C 187.480091 260.271544 187.402082 260.459875 187.402082 260.656221 
C 187.402082 260.852567 187.480091 261.040897 187.618929 261.179735 
C 187.757766 261.318572 187.946097 261.396581 188.142443 261.396581 
z
" style="fill:#3a0ca3;fill-opacity:0.7;stroke:#3a0ca3;stroke-opacity:0.7;stroke-width:0.5;"/>
    <path clip-path="url(#p5c7f5ad9cf)" d="M 270.751739 207.436679 
C 270.829553 207.436679 270.90419 207.405763 270.959213 207.35074 
C 271.014235 207.295718 271.045151 207.221081 271.045151 207.143267 
C 271.045151 207.065453 271.014235 206.990816 270.959213 206.935793 
C 270.90419 206.880771 270.829553 206.849855 270.751739 206.849855 
C 270.673925 206.849855 270.599288 206.880771 270.544266 206.935793 
C 270.489243 206.990816 270.458327 207.065453 270.458327 207.143267 
C 270.458327 207.221081 270.489243 207.295718 270.544266 207.35074 
C 270.599288 207.405763 270.673925 207.436679 270.751739 207.436679 
z
" style="fill:#3a0ca3;fill-opacity:0.7;stroke:#3a0ca3;stroke-opacity:0.7;stroke-width:0.5;"/>
    <path clip-path="url(#p5c7f5ad9cf)" d="M 307.368064 181.972935 
C 308.243568 181.972935 309.083331 181.625094 309.702406 181.006019 
C 310.32148 180.386944 310.669322 179.547181 310.669322 178.671677 
C 310.669322 177.796173 310.32148 176.95641 309.702406 176.337335 
C 309.083331 175.71826 308.243568 175.370419 307.368064 175.370419 
C 306.49256 175.370419 305.652796 175.71826 305.033722 176.337335 
C 304.414647 176.95641 304.066806 177.796173 304.066806 178.671677 
C 304.066806 179.547181 304.414647 180.386944 305.033722 181.006019 
C 305.652796 181.625094 306.49256 181.972935 307.368064 181.972935 
z
" style="fill:#3a0ca3;fill-opacity:0.7;stroke:#3a0ca3;stroke-opacity:0.7;stroke-width:0.5;"/>
    <path clip-path="url(#p5c7f5ad9cf)" d="M 299.051697 172.605064 
C 299.277716 172.605064 299.494509 172.515266 299.654329 172.355446 
C 299.814148 172.195627 299.903947 171.978834 299.903947 171.752815 
C 299.903947 171.526796 299.814148 171.310003 299.654329 171.150184 
C 299.494509 170.990364 299.277716 170.900566 299.051697 170.900566 
C 298.825678 170.900566 298.608886 170.990364 298.449066 171.150184 
C 298.289246 171.310003 298.199448 171.526796 298.199448 171.752815 
C 298.199448 171.978834 298.289246 172.195627 298.449066 172.355446 
C 298.608886 172.515266 298.825678 172.605064 299.051697 172.605064 
z
" style="fill:#3a0ca3;fill-opacity:0.7;stroke:#3a0ca3;stroke-opacity:0.7;stroke-width:0.5;"/>
    <path clip-path="url(#p5c7f5ad9cf)" d="M 206.99284 268.659149 
C 207.283693 268.659149 207.562672 268.543592 207.768337 268.337928 
C 207.974001 268.132264 208.089558 267.853284 208.089558 267.562431 
C 208.089558 267.271578 207.974001 266.992598 207.768337 266.786934 
C 207.562672 266.58127 207.283693 266.465713 206.99284 266.465713 
C 206.701987 266.465713 206.423007 266.58127 206.217343 266.786934 
C 206.011679 266.992598 205.896122 267.271578 205.896122 267.562431 
C 205.896122 267.853284 206.011679 268.132264 206.217343 268.337928 
C 206.423007 268.543592 206.701987 268.659149 206.99284 268.659149 
z
" style="fill:#3a0ca3;fill-opacity:0.7;stroke:#3a0ca3;stroke-opacity:0.7;stroke-width:0.5;"/>
    <path clip-path="url(#p5c7f5ad9cf)" d="M 215.453156 259.051777 
C 215.891565 259.051777 216.312077 258.877596 216.622079 258.567593 
C 216.932081 258.257591 217.106263 257.837079 217.106263 257.39867 
C 217.106263 256.960261 216.932081 256.539749 216.622079 256.229747 
C 216.312077 255.919744 215.891565 255.745563 215.453156 255.745563 
C 215.014747 255.745563 214.594234 255.919744 214.284232 256.229747 
C 213.97423 256.539749 213.800048 256.960261 213.800048 257.39867 
C 213.800048 257.837079 213.97423 258.257591 214.284232 258.567593 
C 214.594234 258.877596 215.014747 259.051777 215.453156 259.051777 
z
" style="fill:#3a0ca3;fill-opacity:0.7;stroke:#3a0ca3;stroke-opacity:0.7;stroke-width:0.5;"/>
    <path clip-path="url(#p5c7f5ad9cf)" d="M 212.151616 286.717096 
C 212.526231 286.717096 212.885553 286.56826 213.150445 286.303368 
C 213.415338 286.038475 213.564174 285.679153 213.564174 285.304539 
C 213.564174 284.929924 213.415338 284.570602 213.150445 284.30571 
C 212.885553 284.040817 212.526231 283.891981 212.151616 283.891981 
C 211.777002 283.891981 211.41768 284.040817 211.152787 284.30571 
C 210.887895 284.570602 210.739059 284.929924 210.739059 285.304539 
C 210.739059 285.679153 210.887895 286.038475 211.152787 286.303368 
C 211.41768 286.56826 211.777002 286.717096 212.151616 286.717096 
z
" style="fill:#3a0ca3;fill-opacity:0.7;stroke:#3a0ca3;stroke-opacity:0.7;stroke-width:0.5;"/>
    <path clip-path="url(#p5c7f5ad9cf)" d="M 164.594458 256.193954 
C 165.262066 256.193954 165.90242 255.928711 166.37449 255.456641 
C 166.846561 254.98457 167.111804 254.344216 167.111804 253.676608 
C 167.111804 253.009 166.846561 252.368645 166.37449 251.896575 
C 165.90242 251.424505 165.262066 251.159262 164.594458 251.159262 
C 163.92685 251.159262 163.286495 251.424505 162.814425 251.896575 
C 162.342355 252.368645 162.077111 253.009 162.077111 253.676608 
C 162.077111 254.344216 162.342355 254.98457 162.814425 255.456641 
C 163.286495 255.928711 163.92685 256.193954 164.594458 256.193954 
z
" style="fill:#3a0ca3;fill-opacity:0.7;stroke:#3a0ca3;stroke-opacity:0.7;stroke-width:0.5;"/>
    <path clip-path="url(#p5c7f5ad9cf)" d="M 258.527189 184.463424 
C 259.107796 184.463424 259.664701 184.232746 260.075252 183.822195 
C 260.485802 183.411644 260.71648 182.854739 260.71648 182.274133 
C 260.71648 181.693526 260.485802 181.136621 260.075252 180.72607 
C 259.664701 180.315519 259.107796 180.084842 258.527189 180.084842 
C 257.946582 180.084842 257.389678 180.315519 256.979127 180.72607 
C 256.568576 181.136621 256.337898 181.693526 256.337898 182.274133 
C 256.337898 182.854739 256.568576 183.411644 256.979127 183.822195 
C 257.389678 184.232746 257.946582 184.463424 258.527189 184.463424 
z
" style="fill:#3a0ca3;fill-opacity:0.7;stroke:#3a0ca3;stroke-opacity:0.7;stroke-width:0.5;"/>
    <path clip-path="url(#p5c7f5ad9cf)" d="M 132.217014 318.191452 
C 133.194472 318.191452 134.132027 317.803104 134.823194 317.111937 
C 135.514361 316.42077 135.902709 315.483214 135.902709 314.505757 
C 135.902709 313.528299 135.514361 312.590744 134.823194 311.899577 
C 134.132027 311.20841 133.194472 310.820062 132.217014 310.820062 
C 131.239556 310.820062 130.302001 311.20841 129.610834 311.899577 
C 128.919667 312.590744 128.531319 313.528299 128.531319 314.505757 
C 128.531319 315.483214 128.919667 316.42077 129.610834 317.111937 
C 130.302001 317.803104 131.239556 318.191452 132.217014 318.191452 
z
" style="fill:#3a0ca3;fill-opacity:0.7;stroke:#3a0ca3;stroke-opacity:0.7;stroke-width:0.5;"/>
    <path clip-path="url(#p5c7f5ad9cf)" d="M 316.445364 183.780184 
C 316.657662 183.780184 316.861293 183.695837 317.01141 183.54572 
C 317.161527 183.395602 317.245874 183.191971 317.245874 182.979673 
C 317.245874 182.767375 317.161527 182.563744 317.01141 182.413627 
C 316.861293 182.26351 316.657662 182.179163 316.445364 182.179163 
C 316.233066 182.179163 316.029435 182.26351 315.879317 182.413627 
C 315.7292 182.563744 315.644853 182.767375 315.644853 182.979673 
C 315.644853 183.191971 315.7292 183.395602 315.879317 183.54572 
C 316.029435 183.695837 316.233066 183.780184 316.445364 183.780184 
z
" style="fill:#3a0ca3;fill-opacity:0.7;stroke:#3a0ca3;stroke-opacity:0.7;stroke-width:0.5;"/>
    <path clip-path="url(#p5c7f5ad9cf)" d="M 272.925127 172.984209 
C 273.625304 172.984209 274.296897 172.706026 274.791997 172.210926 
C 275.287097 171.715827 275.56528 171.044233 275.56528 170.344056 
C 275.56528 169.643879 275.287097 168.972285 274.791997 168.477186 
C 274.296897 167.982086 273.625304 167.703903 272.925127 167.703903 
C 272.22495 167.703903 271.553356 167.982086 271.058256 168.477186 
C 270.563156 168.972285 270.284973 169.643879 270.284973 170.344056 
C 270.284973 171.044233 270.563156 171.715827 271.058256 172.210926 
C 271.553356 172.706026 272.22495 172.984209 272.925127 172.984209 
z
" style="fill:#3a0ca3;fill-opacity:0.7;stroke:#3a0ca3;stroke-opacity:0.7;stroke-width:0.5;"/>
    <path clip-path="url(#p5c7f5ad9cf)" d="M 201.589568 249.214536 
C 201.694116 249.214536 201.794397 249.172998 201.868324 249.099071 
C 201.942251 249.025144 201.983788 248.924864 201.983788 248.820315 
C 201.983788 248.715767 201.942251 248.615486 201.868324 248.541559 
C 201.794397 248.467632 201.694116 248.426095 201.589568 248.426095 
C 201.485019 248.426095 201.384739 248.467632 201.310812 248.541559 
C 201.236885 248.615486 201.195347 248.715767 201.195347 248.820315 
C 201.195347 248.924864 201.236885 249.025144 201.310812 249.099071 
C 201.384739 249.172998 201.485019 249.214536 201.589568 249.214536 
z
" style="fill:#3a0ca3;fill-opacity:0.7;stroke:#3a0ca3;stroke-opacity:0.7;stroke-width:0.5;"/>
    <path clip-path="url(#p5c7f5ad9cf)" d="M 292.935361 190.164585 
C 293.688312 190.164585 294.410525 189.865434 294.942942 189.333017 
C 295.475359 188.8006 295.77451 188.078387 295.77451 187.325436 
C 295.77451 186.572485 295.475359 185.850271 294.942942 185.317854 
C 294.410525 184.785437 293.688312 184.486287 292.935361 184.486287 
C 292.18241 184.486287 291.460196 184.785437 290.927779 185.317854 
C 290.395363 185.850271 290.096212 186.572485 290.096212 187.325436 
C 290.096212 188.078387 290.395363 188.8006 290.927779 189.333017 
C 291.460196 189.865434 292.18241 190.164585 292.935361 190.164585 
z
" style="fill:#3a0ca3;fill-opacity:0.7;stroke:#3a0ca3;stroke-opacity:0.7;stroke-width:0.5;"/>
    <path clip-path="url(#p5c7f5ad9cf)" d="M 212.842345 304.953444 
C 213.313183 304.953444 213.764799 304.766379 214.097731 304.433446 
C 214.430664 304.100514 214.617729 303.648898 214.617729 303.17806 
C 214.617729 302.707223 214.430664 302.255607 214.097731 301.922674 
C 213.764799 301.589742 213.313183 301.402676 212.842345 301.402676 
C 212.371508 301.402676 211.919891 301.589742 211.586959 301.922674 
C 211.254027 302.255607 211.066961 302.707223 211.066961 303.17806 
C 211.066961 303.648898 211.254027 304.100514 211.586959 304.433446 
C 211.919891 304.766379 212.371508 304.953444 212.842345 304.953444 
z
" style="fill:#3a0ca3;fill-opacity:0.7;stroke:#3a0ca3;stroke-opacity:0.7;stroke-width:0.5;"/>
    <path clip-path="url(#p5c7f5ad9cf)" d="M 279.278965 221.864946 
C 279.547517 221.864946 279.805106 221.758249 279.995002 221.568354 
C 280.184897 221.378459 280.291594 221.12087 280.291594 220.852317 
C 280.291594 220.583765 280.184897 220.326176 279.995002 220.136281 
C 279.805106 219.946385 279.547517 219.839688 279.278965 219.839688 
C 279.010413 219.839688 278.752823 219.946385 278.562928 220.136281 
C 278.373033 220.326176 278.266336 220.583765 278.266336 220.852317 
C 278.266336 221.12087 278.373033 221.378459 278.562928 221.568354 
C 278.752823 221.758249 279.010413 221.864946 279.278965 221.864946 
z
" style="fill:#3a0ca3;fill-opacity:0.7;stroke:#3a0ca3;stroke-opacity:0.7;stroke-width:0.5;"/>
    <path clip-path="url(#p5c7f5ad9cf)" d="M 157.254134 293.763475 
C 157.596256 293.763475 157.924411 293.627548 158.166328 293.385632 
C 158.408244 293.143715 158.544171 292.81556 158.544171 292.473438 
C 158.544171 292.131316 158.408244 291.803161 158.166328 291.561244 
C 157.924411 291.319327 157.596256 291.183401 157.254134 291.183401 
C 156.912012 291.183401 156.583857 291.319327 156.34194 291.561244 
C 156.100024 291.803161 155.964097 292.131316 155.964097 292.473438 
C 155.964097 292.81556 156.100024 293.143715 156.34194 293.385632 
C 156.583857 293.627548 156.912012 293.763475 157.254134 293.763475 
z
" style="fill:#3a0ca3;fill-opacity:0.7;stroke:#3a0ca3;stroke-opacity:0.7;stroke-width:0.5;"/>
    <path clip-path="url(#p5c7f5ad9cf)" d="M 251.953946 181.963426 
C 252.213383 181.963426 252.46223 181.86035 252.64568 181.6769 
C 252.82913 181.49345 252.932205 181.244604 252.932205 180.985166 
C 252.932205 180.725729 252.82913 180.476882 252.64568 180.293432 
C 252.46223 180.109982 252.213383 180.006907 251.953946 180.006907 
C 251.694509 180.006907 251.445662 180.109982 251.262212 180.293432 
C 251.078762 180.476882 250.975687 180.725729 250.975687 180.985166 
C 250.975687 181.244604 251.078762 181.49345 251.262212 181.6769 
C 251.445662 181.86035 251.694509 181.963426 251.953946 181.963426 
z
" style="fill:#3a0ca3;fill-opacity:0.7;stroke:#3a0ca3;stroke-opacity:0.7;stroke-width:0.5;"/>
    <path clip-path="url(#p5c7f5ad9cf)" d="M 183.012932 301.198743 
C 183.266867 301.198743 183.510435 301.097854 183.689994 300.918295 
C 183.869553 300.738736 183.970442 300.495168 183.970442 300.241233 
C 183.970442 299.987298 183.869553 299.74373 183.689994 299.564171 
C 183.510435 299.384613 183.266867 299.283723 183.012932 299.283723 
C 182.758998 299.283723 182.515429 299.384613 182.335871 299.564171 
C 182.156312 299.74373 182.055422 299.987298 182.055422 300.241233 
C 182.055422 300.495168 182.156312 300.738736 182.335871 300.918295 
C 182.515429 301.097854 182.758998 301.198743 183.012932 301.198743 
z
" style="fill:#3a0ca3;fill-opacity:0.7;stroke:#3a0ca3;stroke-opacity:0.7;stroke-width:0.5;"/>
    <path clip-path="url(#p5c7f5ad9cf)" d="M 175.270792 315.240544 
C 175.547361 315.240544 175.812639 315.130662 176.008203 314.935098 
C 176.203767 314.739535 176.313649 314.474256 176.313649 314.197687 
C 176.313649 313.921118 176.203767 313.65584 176.008203 313.460276 
C 175.812639 313.264712 175.547361 313.15483 175.270792 313.15483 
C 174.994223 313.15483 174.728944 313.264712 174.53338 313.460276 
C 174.337817 313.65584 174.227935 313.921118 174.227935 314.197687 
C 174.227935 314.474256 174.337817 314.739535 174.53338 314.935098 
C 174.728944 315.130662 174.994223 315.240544 175.270792 315.240544 
z
" style="fill:#3a0ca3;fill-opacity:0.7;stroke:#3a0ca3;stroke-opacity:0.7;stroke-width:0.5;"/>
    <path clip-path="url(#p5c7f5ad9cf)" d="M 287.432318 237.201068 
C 287.714634 237.201068 287.985425 237.088903 288.185053 236.889275 
C 288.38468 236.689648 288.496845 236.418857 288.496845 236.136541 
C 288.496845 235.854225 288.38468 235.583434 288.185053 235.383807 
C 287.985425 235.184179 287.714634 235.072014 287.432318 235.072014 
C 287.150003 235.072014 286.879212 235.184179 286.679584 235.383807 
C 286.479957 235.583434 286.367791 235.854225 286.367791 236.136541 
C 286.367791 236.418857 286.479957 236.689648 286.679584 236.889275 
C 286.879212 237.088903 287.150003 237.201068 287.432318 237.201068 
z
" style="fill:#3a0ca3;fill-opacity:0.7;stroke:#3a0ca3;stroke-opacity:0.7;stroke-width:0.5;"/>
    <path clip-path="url(#p5c7f5ad9cf)" d="M 190.228061 292.404383 
C 191.697371 292.404383 193.1067 291.82062 194.14566 290.781661 
C 195.184619 289.742702 195.768382 288.333373 195.768382 286.864062 
C 195.768382 285.394752 195.184619 283.985423 194.14566 282.946463 
C 193.1067 281.907504 191.697371 281.323741 190.228061 281.323741 
C 188.75875 281.323741 187.349421 281.907504 186.310462 282.946463 
C 185.271503 283.985423 184.68774 285.394752 184.68774 286.864062 
C 184.68774 288.333373 185.271503 289.742702 186.310462 290.781661 
C 187.349421 291.82062 188.75875 292.404383 190.228061 292.404383 
z
" style="fill:#3a0ca3;fill-opacity:0.7;stroke:#3a0ca3;stroke-opacity:0.7;stroke-width:0.5;"/>
    <path clip-path="url(#p5c7f5ad9cf)" d="M 187.330022 306.535808 
C 190.256857 306.535808 193.06421 305.372964 195.133795 303.30338 
C 197.20338 301.233795 198.366224 298.426442 198.366224 295.499607 
C 198.366224 292.572772 197.20338 289.765419 195.133795 287.695834 
C 193.06421 285.626249 190.256857 284.463405 187.330022 284.463405 
C 184.403187 284.463405 181.595834 285.626249 179.526249 287.695834 
C 177.456664 289.765419 176.29382 292.572772 176.29382 295.499607 
C 176.29382 298.426442 177.456664 301.233795 179.526249 303.30338 
C 181.595834 305.372964 184.403187 306.535808 187.330022 306.535808 
z
" style="fill:#3a0ca3;fill-opacity:0.7;stroke:#3a0ca3;stroke-opacity:0.7;stroke-width:0.5;"/>
    <path clip-path="url(#p5c7f5ad9cf)" d="M 261.565236 37.872024 
C 261.758466 37.872024 261.943808 37.795253 262.080442 37.658619 
C 262.217076 37.521984 262.293847 37.336643 262.293847 37.143413 
C 262.293847 36.950183 262.217076 36.764841 262.080442 36.628207 
C 261.943808 36.491573 261.758466 36.414802 261.565236 36.414802 
C 261.372006 36.414802 261.186665 36.491573 261.05003 36.628207 
C 260.913396 36.764841 260.836625 36.950183 260.836625 37.143413 
C 260.836625 37.336643 260.913396 37.521984 261.05003 37.658619 
C 261.186665 37.795253 261.372006 37.872024 261.565236 37.872024 
z
" style="fill:#3a0ca3;fill-opacity:0.7;stroke:#3a0ca3;stroke-opacity:0.7;stroke-width:0.5;"/>
    <path clip-path="url(#p5c7f5ad9cf)" d="M 211.915992 253.921342 
C 212.565236 253.921342 213.187976 253.663395 213.64706 253.20431 
C 214.106145 252.745226 214.364092 252.122486 214.364092 251.473242 
C 214.364092 250.823999 214.106145 250.201259 213.64706 249.742174 
C 213.187976 249.28309 212.565236 249.025143 211.915992 249.025143 
C 211.266749 249.025143 210.644009 249.28309 210.184924 249.742174 
C 209.72584 250.201259 209.467893 250.823999 209.467893 251.473242 
C 209.467893 252.122486 209.72584 252.745226 210.184924 253.20431 
C 210.644009 253.663395 211.266749 253.921342 211.915992 253.921342 
z
" style="fill:#3a0ca3;fill-opacity:0.7;stroke:#3a0ca3;stroke-opacity:0.7;stroke-width:0.5;"/>
    <path clip-path="url(#p5c7f5ad9cf)" d="M 181.0179 244.721906 
C 181.397347 244.721906 181.761304 244.57115 182.029614 244.302841 
C 182.297923 244.034531 182.448679 243.670574 182.448679 243.291127 
C 182.448679 242.91168 182.297923 242.547723 182.029614 242.279413 
C 181.761304 242.011103 181.397347 241.860347 181.0179 241.860347 
C 180.638453 241.860347 180.274496 242.011103 180.006186 242.279413 
C 179.737876 242.547723 179.58712 242.91168 179.58712 243.291127 
C 179.58712 243.670574 179.737876 244.034531 180.006186 244.302841 
C 180.274496 244.57115 180.638453 244.721906 181.0179 244.721906 
z
" style="fill:#3a0ca3;fill-opacity:0.7;stroke:#3a0ca3;stroke-opacity:0.7;stroke-width:0.5;"/>
    <path clip-path="url(#p5c7f5ad9cf)" d="M 279.514905 194.268561 
C 279.573083 194.268561 279.628887 194.245446 279.670025 194.204308 
C 279.711163 194.163169 279.734278 194.107366 279.734278 194.049188 
C 279.734278 193.991009 279.711163 193.935206 279.670025 193.894068 
C 279.628887 193.852929 279.573083 193.829815 279.514905 193.829815 
C 279.456726 193.829815 279.400923 193.852929 279.359785 193.894068 
C 279.318646 193.935206 279.295532 193.991009 279.295532 194.049188 
C 279.295532 194.107366 279.318646 194.163169 279.359785 194.204308 
C 279.400923 194.245446 279.456726 194.268561 279.514905 194.268561 
z
" style="fill:#3a0ca3;fill-opacity:0.7;stroke:#3a0ca3;stroke-opacity:0.7;stroke-width:0.5;"/>
    <path clip-path="url(#p5c7f5ad9cf)" d="M 277.811699 206.533506 
C 278.079505 206.533506 278.336378 206.427106 278.525745 206.237738 
C 278.715112 206.048371 278.821513 205.791498 278.821513 205.523692 
C 278.821513 205.255887 278.715112 204.999013 278.525745 204.809646 
C 278.336378 204.620279 278.079505 204.513879 277.811699 204.513879 
C 277.543893 204.513879 277.28702 204.620279 277.097653 204.809646 
C 276.908286 204.999013 276.801885 205.255887 276.801885 205.523692 
C 276.801885 205.791498 276.908286 206.048371 277.097653 206.237738 
C 277.28702 206.427106 277.543893 206.533506 277.811699 206.533506 
z
" style="fill:#3a0ca3;fill-opacity:0.7;stroke:#3a0ca3;stroke-opacity:0.7;stroke-width:0.5;"/>
    <path clip-path="url(#p5c7f5ad9cf)" d="M 270.740284 181.825931 
C 271.405736 181.825931 272.044023 181.561544 272.514569 181.090998 
C 272.985114 180.620453 273.249501 179.982166 273.249501 179.316714 
C 273.249501 178.651261 272.985114 178.012975 272.514569 177.542429 
C 272.044023 177.071883 271.405736 176.807496 270.740284 176.807496 
C 270.074832 176.807496 269.436545 177.071883 268.965999 177.542429 
C 268.495454 178.012975 268.231067 178.651261 268.231067 179.316714 
C 268.231067 179.982166 268.495454 180.620453 268.965999 181.090998 
C 269.436545 181.561544 270.074832 181.825931 270.740284 181.825931 
z
" style="fill:#3a0ca3;fill-opacity:0.7;stroke:#3a0ca3;stroke-opacity:0.7;stroke-width:0.5;"/>
    <path clip-path="url(#p5c7f5ad9cf)" d="M 206.031995 291.728506 
C 206.177313 291.728506 206.316699 291.670771 206.419454 291.568015 
C 206.52221 291.46526 206.579945 291.325874 206.579945 291.180556 
C 206.579945 291.035237 206.52221 290.895852 206.419454 290.793096 
C 206.316699 290.69034 206.177313 290.632605 206.031995 290.632605 
C 205.886676 290.632605 205.74729 290.69034 205.644535 290.793096 
C 205.541779 290.895852 205.484044 291.035237 205.484044 291.180556 
C 205.484044 291.325874 205.541779 291.46526 205.644535 291.568015 
C 205.74729 291.670771 205.886676 291.728506 206.031995 291.728506 
z
" style="fill:#3a0ca3;fill-opacity:0.7;stroke:#3a0ca3;stroke-opacity:0.7;stroke-width:0.5;"/>
    <path clip-path="url(#p5c7f5ad9cf)" d="M 224.505349 256.228297 
C 224.707644 256.228297 224.901681 256.147925 225.044725 256.00488 
C 225.187769 255.861836 225.268142 255.667799 225.268142 255.465504 
C 225.268142 255.263209 225.187769 255.069173 225.044725 254.926128 
C 224.901681 254.783084 224.707644 254.702712 224.505349 254.702712 
C 224.303054 254.702712 224.109017 254.783084 223.965973 254.926128 
C 223.822929 255.069173 223.742556 255.263209 223.742556 255.465504 
C 223.742556 255.667799 223.822929 255.861836 223.965973 256.00488 
C 224.109017 256.147925 224.303054 256.228297 224.505349 256.228297 
z
" style="fill:#3a0ca3;fill-opacity:0.7;stroke:#3a0ca3;stroke-opacity:0.7;stroke-width:0.5;"/>
    <path clip-path="url(#p5c7f5ad9cf)" d="M 319.959567 216.671344 
C 321.055062 216.671344 322.105836 216.236099 322.880467 215.461467 
C 323.655099 214.686835 324.090344 213.636062 324.090344 212.540567 
C 324.090344 211.445072 323.655099 210.394299 322.880467 209.619667 
C 322.105836 208.845035 321.055062 208.40979 319.959567 208.40979 
C 318.864072 208.40979 317.813299 208.845035 317.038667 209.619667 
C 316.264035 210.394299 315.82879 211.445072 315.82879 212.540567 
C 315.82879 213.636062 316.264035 214.686835 317.038667 215.461467 
C 317.813299 216.236099 318.864072 216.671344 319.959567 216.671344 
z
" style="fill:#3a0ca3;fill-opacity:0.7;stroke:#3a0ca3;stroke-opacity:0.7;stroke-width:0.5;"/>
    <path clip-path="url(#p5c7f5ad9cf)" d="M 163.168559 310.117046 
C 163.811494 310.117046 164.428182 309.861605 164.882805 309.406982 
C 165.337429 308.952358 165.59287 308.33567 165.59287 307.692735 
C 165.59287 307.049801 165.337429 306.433112 164.882805 305.978489 
C 164.428182 305.523865 163.811494 305.268425 163.168559 305.268425 
C 162.525624 305.268425 161.908936 305.523865 161.454313 305.978489 
C 160.999689 306.433112 160.744248 307.049801 160.744248 307.692735 
C 160.744248 308.33567 160.999689 308.952358 161.454313 309.406982 
C 161.908936 309.861605 162.525624 310.117046 163.168559 310.117046 
z
" style="fill:#3a0ca3;fill-opacity:0.7;stroke:#3a0ca3;stroke-opacity:0.7;stroke-width:0.5;"/>
    <path clip-path="url(#p5c7f5ad9cf)" d="M 154.333709 310.829359 
C 154.719287 310.829359 155.089125 310.676168 155.36177 310.403523 
C 155.634414 310.130878 155.787606 309.761041 155.787606 309.375463 
C 155.787606 308.989885 155.634414 308.620048 155.36177 308.347403 
C 155.089125 308.074758 154.719287 307.921566 154.333709 307.921566 
C 153.948132 307.921566 153.578294 308.074758 153.305649 308.347403 
C 153.033005 308.620048 152.879813 308.989885 152.879813 309.375463 
C 152.879813 309.761041 153.033005 310.130878 153.305649 310.403523 
C 153.578294 310.676168 153.948132 310.829359 154.333709 310.829359 
z
" style="fill:#3a0ca3;fill-opacity:0.7;stroke:#3a0ca3;stroke-opacity:0.7;stroke-width:0.5;"/>
    <path clip-path="url(#p5c7f5ad9cf)" d="M 308.864189 208.245867 
C 309.547487 208.245867 310.20289 207.974389 310.686054 207.491225 
C 311.169219 207.008061 311.440696 206.352657 311.440696 205.66936 
C 311.440696 204.986062 311.169219 204.330659 310.686054 203.847494 
C 310.20289 203.36433 309.547487 203.092853 308.864189 203.092853 
C 308.180891 203.092853 307.525488 203.36433 307.042324 203.847494 
C 306.559159 204.330659 306.287682 204.986062 306.287682 205.66936 
C 306.287682 206.352657 306.559159 207.008061 307.042324 207.491225 
C 307.525488 207.974389 308.180891 208.245867 308.864189 208.245867 
z
" style="fill:#3a0ca3;fill-opacity:0.7;stroke:#3a0ca3;stroke-opacity:0.7;stroke-width:0.5;"/>
    <path clip-path="url(#p5c7f5ad9cf)" d="M 183.406706 176.041863 
C 183.607502 176.041863 183.800101 175.962086 183.942085 175.820102 
C 184.084069 175.678118 184.163846 175.485519 184.163846 175.284723 
C 184.163846 175.083927 184.084069 174.891329 183.942085 174.749345 
C 183.800101 174.60736 183.607502 174.527583 183.406706 174.527583 
C 183.20591 174.527583 183.013311 174.60736 182.871327 174.749345 
C 182.729343 174.891329 182.649566 175.083927 182.649566 175.284723 
C 182.649566 175.485519 182.729343 175.678118 182.871327 175.820102 
C 183.013311 175.962086 183.20591 176.041863 183.406706 176.041863 
z
" style="fill:#3a0ca3;fill-opacity:0.7;stroke:#3a0ca3;stroke-opacity:0.7;stroke-width:0.5;"/>
    <path clip-path="url(#p5c7f5ad9cf)" d="M 225.227577 273.968538 
C 225.607475 273.968538 225.971865 273.817602 226.240493 273.548974 
C 226.509122 273.280345 226.660057 272.915955 226.660057 272.536057 
C 226.660057 272.156159 226.509122 271.791769 226.240493 271.523141 
C 225.971865 271.254512 225.607475 271.103577 225.227577 271.103577 
C 224.847679 271.103577 224.483289 271.254512 224.21466 271.523141 
C 223.946032 271.791769 223.795097 272.156159 223.795097 272.536057 
C 223.795097 272.915955 223.946032 273.280345 224.21466 273.548974 
C 224.483289 273.817602 224.847679 273.968538 225.227577 273.968538 
z
" style="fill:#3a0ca3;fill-opacity:0.7;stroke:#3a0ca3;stroke-opacity:0.7;stroke-width:0.5;"/>
    <path clip-path="url(#p5c7f5ad9cf)" d="M 285.50654 138.078318 
C 285.593315 138.078318 285.676548 138.043841 285.737907 137.982482 
C 285.799267 137.921123 285.833743 137.83789 285.833743 137.751115 
C 285.833743 137.66434 285.799267 137.581107 285.737907 137.519747 
C 285.676548 137.458388 285.593315 137.423912 285.50654 137.423912 
C 285.419765 137.423912 285.336532 137.458388 285.275173 137.519747 
C 285.213813 137.581107 285.179337 137.66434 285.179337 137.751115 
C 285.179337 137.83789 285.213813 137.921123 285.275173 137.982482 
C 285.336532 138.043841 285.419765 138.078318 285.50654 138.078318 
z
" style="fill:#3a0ca3;fill-opacity:0.7;stroke:#3a0ca3;stroke-opacity:0.7;stroke-width:0.5;"/>
    <path clip-path="url(#p5c7f5ad9cf)" d="M 176.500443 286.795638 
C 176.944049 286.795638 177.369547 286.619391 177.683224 286.305714 
C 177.996901 285.992037 178.173147 285.56654 178.173147 285.122934 
C 178.173147 284.679327 177.996901 284.25383 177.683224 283.940153 
C 177.369547 283.626476 176.944049 283.450229 176.500443 283.450229 
C 176.056837 283.450229 175.63134 283.626476 175.317663 283.940153 
C 175.003986 284.25383 174.827739 284.679327 174.827739 285.122934 
C 174.827739 285.56654 175.003986 285.992037 175.317663 286.305714 
C 175.63134 286.619391 176.056837 286.795638 176.500443 286.795638 
z
" style="fill:#3a0ca3;fill-opacity:0.7;stroke:#3a0ca3;stroke-opacity:0.7;stroke-width:0.5;"/>
    <path clip-path="url(#p5c7f5ad9cf)" d="M 134.355188 317.43209 
C 134.834198 317.43209 135.293654 317.241777 135.632365 316.903066 
C 135.971076 316.564355 136.161389 316.1049 136.161389 315.62589 
C 136.161389 315.14688 135.971076 314.687424 135.632365 314.348713 
C 135.293654 314.010002 134.834198 313.819689 134.355188 313.819689 
C 133.876179 313.819689 133.416723 314.010002 133.078012 314.348713 
C 132.739301 314.687424 132.548988 315.14688 132.548988 315.62589 
C 132.548988 316.1049 132.739301 316.564355 133.078012 316.903066 
C 133.416723 317.241777 133.876179 317.43209 134.355188 317.43209 
z
" style="fill:#3a0ca3;fill-opacity:0.7;stroke:#3a0ca3;stroke-opacity:0.7;stroke-width:0.5;"/>
    <path clip-path="url(#p5c7f5ad9cf)" d="M 203.392014 258.1029 
C 204.351346 258.1029 205.271514 257.721754 205.949864 257.043404 
C 206.628213 256.365055 207.00936 255.444886 207.00936 254.485555 
C 207.00936 253.526224 206.628213 252.606055 205.949864 251.927705 
C 205.271514 251.249356 204.351346 250.868209 203.392014 250.868209 
C 202.432683 250.868209 201.512514 251.249356 200.834165 251.927705 
C 200.155815 252.606055 199.774669 253.526224 199.774669 254.485555 
C 199.774669 255.444886 200.155815 256.365055 200.834165 257.043404 
C 201.512514 257.721754 202.432683 258.1029 203.392014 258.1029 
z
" style="fill:#3a0ca3;fill-opacity:0.7;stroke:#3a0ca3;stroke-opacity:0.7;stroke-width:0.5;"/>
    <path clip-path="url(#p5c7f5ad9cf)" d="M 134.341415 311.456703 
C 134.666535 311.456703 134.978382 311.327532 135.208277 311.097637 
C 135.438171 310.867743 135.567343 310.555895 135.567343 310.230775 
C 135.567343 309.905655 135.438171 309.593807 135.208277 309.363913 
C 134.978382 309.134018 134.666535 309.004847 134.341415 309.004847 
C 134.016295 309.004847 133.704447 309.134018 133.474552 309.363913 
C 133.244658 309.593807 133.115486 309.905655 133.115486 310.230775 
C 133.115486 310.555895 133.244658 310.867743 133.474552 311.097637 
C 133.704447 311.327532 134.016295 311.456703 134.341415 311.456703 
z
" style="fill:#3a0ca3;fill-opacity:0.7;stroke:#3a0ca3;stroke-opacity:0.7;stroke-width:0.5;"/>
    <path clip-path="url(#p5c7f5ad9cf)" d="M 264.752653 212.057962 
C 264.812971 212.057962 264.870828 212.033997 264.91348 211.991345 
C 264.956132 211.948693 264.980097 211.890836 264.980097 211.830517 
C 264.980097 211.770198 264.956132 211.712342 264.91348 211.66969 
C 264.870828 211.627038 264.812971 211.603073 264.752653 211.603073 
C 264.692334 211.603073 264.634477 211.627038 264.591825 211.66969 
C 264.549173 211.712342 264.525208 211.770198 264.525208 211.830517 
C 264.525208 211.890836 264.549173 211.948693 264.591825 211.991345 
C 264.634477 212.033997 264.692334 212.057962 264.752653 212.057962 
z
" style="fill:#3a0ca3;fill-opacity:0.7;stroke:#3a0ca3;stroke-opacity:0.7;stroke-width:0.5;"/>
    <path clip-path="url(#p5c7f5ad9cf)" d="M 154.247502 305.750955 
C 154.86863 305.750955 155.464401 305.504179 155.903605 305.064975 
C 156.342808 304.625772 156.589585 304.03 156.589585 303.408873 
C 156.589585 302.787745 156.342808 302.191974 155.903605 301.75277 
C 155.464401 301.313567 154.86863 301.06679 154.247502 301.06679 
C 153.626375 301.06679 153.030604 301.313567 152.5914 301.75277 
C 152.152197 302.191974 151.90542 302.787745 151.90542 303.408873 
C 151.90542 304.03 152.152197 304.625772 152.5914 305.064975 
C 153.030604 305.504179 153.626375 305.750955 154.247502 305.750955 
z
" style="fill:#3a0ca3;fill-opacity:0.7;stroke:#3a0ca3;stroke-opacity:0.7;stroke-width:0.5;"/>
    <path clip-path="url(#p5c7f5ad9cf)" d="M 140.671111 316.771543 
C 141.097187 316.771543 141.505871 316.602261 141.807152 316.300979 
C 142.108434 315.999697 142.277716 315.591014 142.277716 315.164937 
C 142.277716 314.738861 142.108434 314.330178 141.807152 314.028896 
C 141.505871 313.727614 141.097187 313.558332 140.671111 313.558332 
C 140.245034 313.558332 139.836351 313.727614 139.535069 314.028896 
C 139.233788 314.330178 139.064505 314.738861 139.064505 315.164937 
C 139.064505 315.591014 139.233788 315.999697 139.535069 316.300979 
C 139.836351 316.602261 140.245034 316.771543 140.671111 316.771543 
z
" style="fill:#3a0ca3;fill-opacity:0.7;stroke:#3a0ca3;stroke-opacity:0.7;stroke-width:0.5;"/>
    <path clip-path="url(#p5c7f5ad9cf)" d="M 189.217732 249.046183 
C 189.318096 249.046183 189.414362 249.006308 189.48533 248.935341 
C 189.556298 248.864373 189.596173 248.768106 189.596173 248.667743 
C 189.596173 248.567379 189.556298 248.471113 189.48533 248.400145 
C 189.414362 248.329178 189.318096 248.289303 189.217732 248.289303 
C 189.117369 248.289303 189.021102 248.329178 188.950135 248.400145 
C 188.879167 248.471113 188.839292 248.567379 188.839292 248.667743 
C 188.839292 248.768106 188.879167 248.864373 188.950135 248.935341 
C 189.021102 249.006308 189.117369 249.046183 189.217732 249.046183 
z
" style="fill:#3a0ca3;fill-opacity:0.7;stroke:#3a0ca3;stroke-opacity:0.7;stroke-width:0.5;"/>
    <path clip-path="url(#p5c7f5ad9cf)" d="M 164.449811 317.675033 
C 164.811473 317.675033 165.158371 317.531343 165.414105 317.275609 
C 165.669839 317.019875 165.813529 316.672977 165.813529 316.311315 
C 165.813529 315.949653 165.669839 315.602755 165.414105 315.347021 
C 165.158371 315.091287 164.811473 314.947597 164.449811 314.947597 
C 164.088149 314.947597 163.74125 315.091287 163.485517 315.347021 
C 163.229783 315.602755 163.086093 315.949653 163.086093 316.311315 
C 163.086093 316.672977 163.229783 317.019875 163.485517 317.275609 
C 163.74125 317.531343 164.088149 317.675033 164.449811 317.675033 
z
" style="fill:#3a0ca3;fill-opacity:0.7;stroke:#3a0ca3;stroke-opacity:0.7;stroke-width:0.5;"/>
    <path clip-path="url(#p5c7f5ad9cf)" d="M 244.485379 246.427607 
C 244.989609 246.427607 245.473255 246.227275 245.829799 245.87073 
C 246.186343 245.514186 246.386676 245.03054 246.386676 244.526311 
C 246.386676 244.022081 246.186343 243.538435 245.829799 243.181891 
C 245.473255 242.825347 244.989609 242.625014 244.485379 242.625014 
C 243.98115 242.625014 243.497504 242.825347 243.14096 243.181891 
C 242.784415 243.538435 242.584083 244.022081 242.584083 244.526311 
C 242.584083 245.03054 242.784415 245.514186 243.14096 245.87073 
C 243.497504 246.227275 243.98115 246.427607 244.485379 246.427607 
z
" style="fill:#3a0ca3;fill-opacity:0.7;stroke:#3a0ca3;stroke-opacity:0.7;stroke-width:0.5;"/>
    <path clip-path="url(#p5c7f5ad9cf)" d="M 193.667063 271.195872 
C 193.778142 271.195872 193.884687 271.15174 193.963231 271.073195 
C 194.041776 270.99465 194.085908 270.888106 194.085908 270.777027 
C 194.085908 270.665948 194.041776 270.559403 193.963231 270.480858 
C 193.884687 270.402314 193.778142 270.358181 193.667063 270.358181 
C 193.555984 270.358181 193.449439 270.402314 193.370895 270.480858 
C 193.29235 270.559403 193.248218 270.665948 193.248218 270.777027 
C 193.248218 270.888106 193.29235 270.99465 193.370895 271.073195 
C 193.449439 271.15174 193.555984 271.195872 193.667063 271.195872 
z
" style="fill:#3a0ca3;fill-opacity:0.7;stroke:#3a0ca3;stroke-opacity:0.7;stroke-width:0.5;"/>
    <path clip-path="url(#p5c7f5ad9cf)" d="M 135.698029 317.381357 
C 136.077579 317.381357 136.441634 317.230561 136.710015 316.962179 
C 136.978397 316.693797 137.129194 316.329742 137.129194 315.950193 
C 137.129194 315.570644 136.978397 315.206589 136.710015 314.938207 
C 136.441634 314.669825 136.077579 314.519028 135.698029 314.519028 
C 135.31848 314.519028 134.954425 314.669825 134.686043 314.938207 
C 134.417662 315.206589 134.266865 315.570644 134.266865 315.950193 
C 134.266865 316.329742 134.417662 316.693797 134.686043 316.962179 
C 134.954425 317.230561 135.31848 317.381357 135.698029 317.381357 
z
" style="fill:#3a0ca3;fill-opacity:0.7;stroke:#3a0ca3;stroke-opacity:0.7;stroke-width:0.5;"/>
    <path clip-path="url(#p5c7f5ad9cf)" d="M 205.933773 304.055664 
C 207.035963 304.055664 208.093158 303.61776 208.872523 302.838394 
C 209.651889 302.059029 210.089794 301.001834 210.089794 299.899644 
C 210.089794 298.797455 209.651889 297.74026 208.872523 296.960894 
C 208.093158 296.181529 207.035963 295.743624 205.933773 295.743624 
C 204.831584 295.743624 203.774389 296.181529 202.995023 296.960894 
C 202.215658 297.74026 201.777753 298.797455 201.777753 299.899644 
C 201.777753 301.001834 202.215658 302.059029 202.995023 302.838394 
C 203.774389 303.61776 204.831584 304.055664 205.933773 304.055664 
z
" style="fill:#3a0ca3;fill-opacity:0.7;stroke:#3a0ca3;stroke-opacity:0.7;stroke-width:0.5;"/>
    <path clip-path="url(#p5c7f5ad9cf)" d="M 268.809659 173.873902 
C 269.209629 173.873902 269.593271 173.714993 269.876092 173.432171 
C 270.158913 173.14935 270.317823 172.765708 270.317823 172.365738 
C 270.317823 171.965769 270.158913 171.582127 269.876092 171.299306 
C 269.593271 171.016484 269.209629 170.857575 268.809659 170.857575 
C 268.40969 170.857575 268.026048 171.016484 267.743227 171.299306 
C 267.460405 171.582127 267.301496 171.965769 267.301496 172.365738 
C 267.301496 172.765708 267.460405 173.14935 267.743227 173.432171 
C 268.026048 173.714993 268.40969 173.873902 268.809659 173.873902 
z
" style="fill:#3a0ca3;fill-opacity:0.7;stroke:#3a0ca3;stroke-opacity:0.7;stroke-width:0.5;"/>
    <path clip-path="url(#p5c7f5ad9cf)" d="M 300.844076 126.257041 
C 301.06424 126.257041 301.275416 126.169569 301.431096 126.013889 
C 301.586775 125.85821 301.674247 125.647034 301.674247 125.42687 
C 301.674247 125.206707 301.586775 124.995531 301.431096 124.839851 
C 301.275416 124.684172 301.06424 124.5967 300.844076 124.5967 
C 300.623913 124.5967 300.412737 124.684172 300.257057 124.839851 
C 300.101378 124.995531 300.013906 125.206707 300.013906 125.42687 
C 300.013906 125.647034 300.101378 125.85821 300.257057 126.013889 
C 300.412737 126.169569 300.623913 126.257041 300.844076 126.257041 
z
" style="fill:#3a0ca3;fill-opacity:0.7;stroke:#3a0ca3;stroke-opacity:0.7;stroke-width:0.5;"/>
    <path clip-path="url(#p5c7f5ad9cf)" d="M 259.171932 211.896209 
C 259.381344 211.896209 259.582207 211.813009 259.730283 211.664933 
C 259.87836 211.516856 259.96156 211.315993 259.96156 211.106581 
C 259.96156 210.89717 259.87836 210.696307 259.730283 210.54823 
C 259.582207 210.400154 259.381344 210.316953 259.171932 210.316953 
C 258.96252 210.316953 258.761657 210.400154 258.613581 210.54823 
C 258.465504 210.696307 258.382304 210.89717 258.382304 211.106581 
C 258.382304 211.315993 258.465504 211.516856 258.613581 211.664933 
C 258.761657 211.813009 258.96252 211.896209 259.171932 211.896209 
z
" style="fill:#3a0ca3;fill-opacity:0.7;stroke:#3a0ca3;stroke-opacity:0.7;stroke-width:0.5;"/>
    <path clip-path="url(#p5c7f5ad9cf)" d="M 147.13378 300.303316 
C 148.16305 300.303316 149.150302 299.894383 149.878106 299.166579 
C 150.60591 298.438775 151.014843 297.451523 151.014843 296.422253 
C 151.014843 295.392983 150.60591 294.405731 149.878106 293.677927 
C 149.150302 292.950124 148.16305 292.54119 147.13378 292.54119 
C 146.10451 292.54119 145.117258 292.950124 144.389454 293.677927 
C 143.66165 294.405731 143.252717 295.392983 143.252717 296.422253 
C 143.252717 297.451523 143.66165 298.438775 144.389454 299.166579 
C 145.117258 299.894383 146.10451 300.303316 147.13378 300.303316 
z
" style="fill:#3a0ca3;fill-opacity:0.7;stroke:#3a0ca3;stroke-opacity:0.7;stroke-width:0.5;"/>
    <path clip-path="url(#p5c7f5ad9cf)" d="M 217.650398 222.221999 
C 217.827599 222.221999 217.997565 222.151597 218.122865 222.026297 
C 218.248165 221.900997 218.318567 221.731031 218.318567 221.55383 
C 218.318567 221.37663 218.248165 221.206663 218.122865 221.081363 
C 217.997565 220.956063 217.827599 220.885661 217.650398 220.885661 
C 217.473198 220.885661 217.303231 220.956063 217.177931 221.081363 
C 217.052632 221.206663 216.982229 221.37663 216.982229 221.55383 
C 216.982229 221.731031 217.052632 221.900997 217.177931 222.026297 
C 217.303231 222.151597 217.473198 222.221999 217.650398 222.221999 
z
" style="fill:#3a0ca3;fill-opacity:0.7;stroke:#3a0ca3;stroke-opacity:0.7;stroke-width:0.5;"/>
    <path clip-path="url(#p5c7f5ad9cf)" d="M 201.804322 288.789314 
C 202.340456 288.789314 202.854703 288.576306 203.233807 288.197202 
C 203.612911 287.818098 203.82592 287.30385 203.82592 286.767716 
C 203.82592 286.231582 203.612911 285.717335 203.233807 285.338231 
C 202.854703 284.959127 202.340456 284.746118 201.804322 284.746118 
C 201.268188 284.746118 200.75394 284.959127 200.374836 285.338231 
C 199.995732 285.717335 199.782724 286.231582 199.782724 286.767716 
C 199.782724 287.30385 199.995732 287.818098 200.374836 288.197202 
C 200.75394 288.576306 201.268188 288.789314 201.804322 288.789314 
z
" style="fill:#3a0ca3;fill-opacity:0.7;stroke:#3a0ca3;stroke-opacity:0.7;stroke-width:0.5;"/>
    <path clip-path="url(#p5c7f5ad9cf)" d="M 200.400075 293.589722 
C 201.242214 293.589722 202.049976 293.255136 202.645458 292.659654 
C 203.240941 292.064171 203.575527 291.256409 203.575527 290.41427 
C 203.575527 289.57213 203.240941 288.764368 202.645458 288.168886 
C 202.049976 287.573403 201.242214 287.238817 200.400075 287.238817 
C 199.557935 287.238817 198.750173 287.573403 198.154691 288.168886 
C 197.559208 288.764368 197.224622 289.57213 197.224622 290.41427 
C 197.224622 291.256409 197.559208 292.064171 198.154691 292.659654 
C 198.750173 293.255136 199.557935 293.589722 200.400075 293.589722 
z
" style="fill:#3a0ca3;fill-opacity:0.7;stroke:#3a0ca3;stroke-opacity:0.7;stroke-width:0.5;"/>
    <path clip-path="url(#p5c7f5ad9cf)" d="M 259.307426 222.764373 
C 259.840105 222.764373 260.351038 222.552737 260.727699 222.176076 
C 261.104359 221.799416 261.315995 221.288482 261.315995 220.755804 
C 261.315995 220.223125 261.104359 219.712191 260.727699 219.335531 
C 260.351038 218.95887 259.840105 218.747234 259.307426 218.747234 
C 258.774747 218.747234 258.263814 218.95887 257.887153 219.335531 
C 257.510492 219.712191 257.298857 220.223125 257.298857 220.755804 
C 257.298857 221.288482 257.510492 221.799416 257.887153 222.176076 
C 258.263814 222.552737 258.774747 222.764373 259.307426 222.764373 
z
" style="fill:#3a0ca3;fill-opacity:0.7;stroke:#3a0ca3;stroke-opacity:0.7;stroke-width:0.5;"/>
    <path clip-path="url(#p5c7f5ad9cf)" d="M 227.39876 226.84683 
C 227.690072 226.84683 227.969493 226.731091 228.175482 226.525102 
C 228.381471 226.319113 228.49721 226.039692 228.49721 225.74838 
C 228.49721 225.457068 228.381471 225.177647 228.175482 224.971658 
C 227.969493 224.765669 227.690072 224.64993 227.39876 224.64993 
C 227.107448 224.64993 226.828027 224.765669 226.622038 224.971658 
C 226.416049 225.177647 226.30031 225.457068 226.30031 225.74838 
C 226.30031 226.039692 226.416049 226.319113 226.622038 226.525102 
C 226.828027 226.731091 227.107448 226.84683 227.39876 226.84683 
z
" style="fill:#3a0ca3;fill-opacity:0.7;stroke:#3a0ca3;stroke-opacity:0.7;stroke-width:0.5;"/>
    <path clip-path="url(#p5c7f5ad9cf)" d="M 208.569808 282.301427 
C 208.806283 282.301427 209.033105 282.207475 209.200318 282.040262 
C 209.367531 281.873048 209.461483 281.646227 209.461483 281.409752 
C 209.461483 281.173277 209.367531 280.946456 209.200318 280.779243 
C 209.033105 280.61203 208.806283 280.518077 208.569808 280.518077 
C 208.333333 280.518077 208.106512 280.61203 207.939299 280.779243 
C 207.772086 280.946456 207.678133 281.173277 207.678133 281.409752 
C 207.678133 281.646227 207.772086 281.873048 207.939299 282.040262 
C 208.106512 282.207475 208.333333 282.301427 208.569808 282.301427 
z
" style="fill:#3a0ca3;fill-opacity:0.7;stroke:#3a0ca3;stroke-opacity:0.7;stroke-width:0.5;"/>
    <path clip-path="url(#p5c7f5ad9cf)" d="M 205.369039 104.619937 
C 205.557622 104.619937 205.738507 104.545012 205.871856 104.411664 
C 206.005204 104.278315 206.080129 104.09743 206.080129 103.908847 
C 206.080129 103.720263 206.005204 103.539378 205.871856 103.40603 
C 205.738507 103.272681 205.557622 103.197756 205.369039 103.197756 
C 205.180455 103.197756 204.99957 103.272681 204.866222 103.40603 
C 204.732873 103.539378 204.657948 103.720263 204.657948 103.908847 
C 204.657948 104.09743 204.732873 104.278315 204.866222 104.411664 
C 204.99957 104.545012 205.180455 104.619937 205.369039 104.619937 
z
" style="fill:#3a0ca3;fill-opacity:0.7;stroke:#3a0ca3;stroke-opacity:0.7;stroke-width:0.5;"/>
    <path clip-path="url(#p5c7f5ad9cf)" d="M 274.977208 237.800555 
C 275.367665 237.800555 275.742182 237.645425 276.018277 237.36933 
C 276.294372 237.093236 276.449502 236.718718 276.449502 236.328261 
C 276.449502 235.937804 276.294372 235.563287 276.018277 235.287192 
C 275.742182 235.011097 275.367665 234.855967 274.977208 234.855967 
C 274.586751 234.855967 274.212233 235.011097 273.936139 235.287192 
C 273.660044 235.563287 273.504914 235.937804 273.504914 236.328261 
C 273.504914 236.718718 273.660044 237.093236 273.936139 237.36933 
C 274.212233 237.645425 274.586751 237.800555 274.977208 237.800555 
z
" style="fill:#3a0ca3;fill-opacity:0.7;stroke:#3a0ca3;stroke-opacity:0.7;stroke-width:0.5;"/>
    <path clip-path="url(#p5c7f5ad9cf)" d="M 140.16243 314.020341 
C 140.455907 314.020341 140.737404 313.903742 140.944923 313.696222 
C 141.152443 313.488703 141.269042 313.207206 141.269042 312.91373 
C 141.269042 312.620253 141.152443 312.338756 140.944923 312.131237 
C 140.737404 311.923717 140.455907 311.807118 140.16243 311.807118 
C 139.868953 311.807118 139.587457 311.923717 139.379938 312.131237 
C 139.172418 312.338756 139.055818 312.620253 139.055818 312.91373 
C 139.055818 313.207206 139.172418 313.488703 139.379938 313.696222 
C 139.587457 313.903742 139.868953 314.020341 140.16243 314.020341 
z
" style="fill:#3a0ca3;fill-opacity:0.7;stroke:#3a0ca3;stroke-opacity:0.7;stroke-width:0.5;"/>
    <path clip-path="url(#p5c7f5ad9cf)" d="M 216.501182 140.524577 
C 216.976942 140.524577 217.43328 140.335555 217.769693 139.999142 
C 218.106106 139.662729 218.295128 139.206391 218.295128 138.730631 
C 218.295128 138.254871 218.106106 137.798533 217.769693 137.46212 
C 217.43328 137.125706 216.976942 136.936685 216.501182 136.936685 
C 216.025422 136.936685 215.569083 137.125706 215.23267 137.46212 
C 214.896257 137.798533 214.707236 138.254871 214.707236 138.730631 
C 214.707236 139.206391 214.896257 139.662729 215.23267 139.999142 
C 215.569083 140.335555 216.025422 140.524577 216.501182 140.524577 
z
" style="fill:#3a0ca3;fill-opacity:0.7;stroke:#3a0ca3;stroke-opacity:0.7;stroke-width:0.5;"/>
    <path clip-path="url(#p5c7f5ad9cf)" d="M 143.161083 242.97049 
C 143.57568 242.97049 143.973351 242.805768 144.266516 242.512604 
C 144.55968 242.21944 144.724401 241.821768 144.724401 241.407171 
C 144.724401 240.992574 144.55968 240.594902 144.266516 240.301738 
C 143.973351 240.008574 143.57568 239.843853 143.161083 239.843853 
C 142.746486 239.843853 142.348814 240.008574 142.05565 240.301738 
C 141.762485 240.594902 141.597764 240.992574 141.597764 241.407171 
C 141.597764 241.821768 141.762485 242.21944 142.05565 242.512604 
C 142.348814 242.805768 142.746486 242.97049 143.161083 242.97049 
z
" style="fill:#3a0ca3;fill-opacity:0.7;stroke:#3a0ca3;stroke-opacity:0.7;stroke-width:0.5;"/>
    <path clip-path="url(#p5c7f5ad9cf)" d="M 137.14217 309.274217 
C 137.460683 309.274217 137.766195 309.14767 137.991418 308.922447 
C 138.216641 308.697224 138.343188 308.391713 138.343188 308.073199 
C 138.343188 307.754686 138.216641 307.449174 137.991418 307.223951 
C 137.766195 306.998728 137.460683 306.872181 137.14217 306.872181 
C 136.823656 306.872181 136.518145 306.998728 136.292922 307.223951 
C 136.067699 307.449174 135.941152 307.754686 135.941152 308.073199 
C 135.941152 308.391713 136.067699 308.697224 136.292922 308.922447 
C 136.518145 309.14767 136.823656 309.274217 137.14217 309.274217 
z
" style="fill:#3a0ca3;fill-opacity:0.7;stroke:#3a0ca3;stroke-opacity:0.7;stroke-width:0.5;"/>
    <path clip-path="url(#p5c7f5ad9cf)" d="M 335.070599 136.400526 
C 335.324602 136.400526 335.568236 136.29961 335.747844 136.120002 
C 335.927451 135.940395 336.028368 135.696761 336.028368 135.442758 
C 336.028368 135.188754 335.927451 134.94512 335.747844 134.765513 
C 335.568236 134.585905 335.324602 134.484989 335.070599 134.484989 
C 334.816596 134.484989 334.572961 134.585905 334.393354 134.765513 
C 334.213747 134.94512 334.11283 135.188754 334.11283 135.442758 
C 334.11283 135.696761 334.213747 135.940395 334.393354 136.120002 
C 334.572961 136.29961 334.816596 136.400526 335.070599 136.400526 
z
" style="fill:#3a0ca3;fill-opacity:0.7;stroke:#3a0ca3;stroke-opacity:0.7;stroke-width:0.5;"/>
    <path clip-path="url(#p5c7f5ad9cf)" d="M 296.361088 169.457054 
C 296.655818 169.457054 296.938517 169.339956 297.146923 169.13155 
C 297.355328 168.923144 297.472426 168.640446 297.472426 168.345716 
C 297.472426 168.050985 297.355328 167.768287 297.146923 167.559881 
C 296.938517 167.351475 296.655818 167.234377 296.361088 167.234377 
C 296.066357 167.234377 295.783659 167.351475 295.575253 167.559881 
C 295.366847 167.768287 295.24975 168.050985 295.24975 168.345716 
C 295.24975 168.640446 295.366847 168.923144 295.575253 169.13155 
C 295.783659 169.339956 296.066357 169.457054 296.361088 169.457054 
z
" style="fill:#3a0ca3;fill-opacity:0.7;stroke:#3a0ca3;stroke-opacity:0.7;stroke-width:0.5;"/>
    <path clip-path="url(#p5c7f5ad9cf)" d="M 185.96984 286.260345 
C 186.257788 286.260345 186.533981 286.145942 186.737591 285.942332 
C 186.941201 285.738722 187.055604 285.462529 187.055604 285.174581 
C 187.055604 284.886633 186.941201 284.610439 186.737591 284.406829 
C 186.533981 284.203219 186.257788 284.088817 185.96984 284.088817 
C 185.681892 284.088817 185.405699 284.203219 185.202089 284.406829 
C 184.998479 284.610439 184.884076 284.886633 184.884076 285.174581 
C 184.884076 285.462529 184.998479 285.738722 185.202089 285.942332 
C 185.405699 286.145942 185.681892 286.260345 185.96984 286.260345 
z
" style="fill:#3a0ca3;fill-opacity:0.7;stroke:#3a0ca3;stroke-opacity:0.7;stroke-width:0.5;"/>
    <path clip-path="url(#p5c7f5ad9cf)" d="M 228.615256 278.374709 
C 229.425884 278.374709 230.20342 278.052643 230.77662 277.479442 
C 231.349821 276.906242 231.671887 276.128705 231.671887 275.318077 
C 231.671887 274.507449 231.349821 273.729913 230.77662 273.156712 
C 230.20342 272.583512 229.425884 272.261446 228.615256 272.261446 
C 227.804627 272.261446 227.027091 272.583512 226.453891 273.156712 
C 225.88069 273.729913 225.558624 274.507449 225.558624 275.318077 
C 225.558624 276.128705 225.88069 276.906242 226.453891 277.479442 
C 227.027091 278.052643 227.804627 278.374709 228.615256 278.374709 
z
" style="fill:#3a0ca3;fill-opacity:0.7;stroke:#3a0ca3;stroke-opacity:0.7;stroke-width:0.5;"/>
    <path clip-path="url(#p5c7f5ad9cf)" d="M 213.140101 234.919948 
C 213.24403 234.919948 213.343717 234.878657 213.417205 234.805168 
C 213.490694 234.731679 213.531986 234.631993 213.531986 234.528064 
C 213.531986 234.424135 213.490694 234.324449 213.417205 234.25096 
C 213.343717 234.177471 213.24403 234.136179 213.140101 234.136179 
C 213.036172 234.136179 212.936486 234.177471 212.862997 234.25096 
C 212.789508 234.324449 212.748217 234.424135 212.748217 234.528064 
C 212.748217 234.631993 212.789508 234.731679 212.862997 234.805168 
C 212.936486 234.878657 213.036172 234.919948 213.140101 234.919948 
z
" style="fill:#3a0ca3;fill-opacity:0.7;stroke:#3a0ca3;stroke-opacity:0.7;stroke-width:0.5;"/>
    <path clip-path="url(#p5c7f5ad9cf)" d="M 196.63744 271.121224 
C 196.889981 271.121224 197.132212 271.020889 197.310785 270.842316 
C 197.489359 270.663743 197.589694 270.421511 197.589694 270.168971 
C 197.589694 269.91643 197.489359 269.674199 197.310785 269.495626 
C 197.132212 269.317053 196.889981 269.216717 196.63744 269.216717 
C 196.3849 269.216717 196.142669 269.317053 195.964095 269.495626 
C 195.785522 269.674199 195.685187 269.91643 195.685187 270.168971 
C 195.685187 270.421511 195.785522 270.663743 195.964095 270.842316 
C 196.142669 271.020889 196.3849 271.121224 196.63744 271.121224 
z
" style="fill:#3a0ca3;fill-opacity:0.7;stroke:#3a0ca3;stroke-opacity:0.7;stroke-width:0.5;"/>
    <path clip-path="url(#p5c7f5ad9cf)" d="M 216.169681 211.399205 
C 216.873707 211.399205 217.548992 211.119492 218.046813 210.621671 
C 218.544634 210.12385 218.824347 209.448565 218.824347 208.744539 
C 218.824347 208.040514 218.544634 207.365228 218.046813 206.867407 
C 217.548992 206.369586 216.873707 206.089873 216.169681 206.089873 
C 215.465656 206.089873 214.79037 206.369586 214.292549 206.867407 
C 213.794728 207.365228 213.515015 208.040514 213.515015 208.744539 
C 213.515015 209.448565 213.794728 210.12385 214.292549 210.621671 
C 214.79037 211.119492 215.465656 211.399205 216.169681 211.399205 
z
" style="fill:#3a0ca3;fill-opacity:0.7;stroke:#3a0ca3;stroke-opacity:0.7;stroke-width:0.5;"/>
    <path clip-path="url(#p5c7f5ad9cf)" d="M 265.680949 184.740847 
C 266.1277 184.740847 266.556214 184.56335 266.872115 184.24745 
C 267.188015 183.931549 267.365512 183.503035 267.365512 183.056284 
C 267.365512 182.609533 267.188015 182.18102 266.872115 181.865119 
C 266.556214 181.549218 266.1277 181.371722 265.680949 181.371722 
C 265.234198 181.371722 264.805685 181.549218 264.489784 181.865119 
C 264.173883 182.18102 263.996387 182.609533 263.996387 183.056284 
C 263.996387 183.503035 264.173883 183.931549 264.489784 184.24745 
C 264.805685 184.56335 265.234198 184.740847 265.680949 184.740847 
z
" style="fill:#3a0ca3;fill-opacity:0.7;stroke:#3a0ca3;stroke-opacity:0.7;stroke-width:0.5;"/>
    <path clip-path="url(#p5c7f5ad9cf)" d="M 163.154652 314.606263 
C 163.779053 314.606263 164.377964 314.358186 164.819482 313.916668 
C 165.261001 313.47515 165.509078 312.876238 165.509078 312.251837 
C 165.509078 311.627436 165.261001 311.028525 164.819482 310.587006 
C 164.377964 310.145488 163.779053 309.897411 163.154652 309.897411 
C 162.53025 309.897411 161.931339 310.145488 161.489821 310.587006 
C 161.048302 311.028525 160.800225 311.627436 160.800225 312.251837 
C 160.800225 312.876238 161.048302 313.47515 161.489821 313.916668 
C 161.931339 314.358186 162.53025 314.606263 163.154652 314.606263 
z
" style="fill:#3a0ca3;fill-opacity:0.7;stroke:#3a0ca3;stroke-opacity:0.7;stroke-width:0.5;"/>
    <path clip-path="url(#p5c7f5ad9cf)" d="M 174.972596 314.04181 
C 175.472703 314.04181 175.952395 313.843115 176.306025 313.489485 
C 176.659654 313.135856 176.858349 312.656164 176.858349 312.156057 
C 176.858349 311.655949 176.659654 311.176258 176.306025 310.822628 
C 175.952395 310.468999 175.472703 310.270304 174.972596 310.270304 
C 174.472488 310.270304 173.992797 310.468999 173.639167 310.822628 
C 173.285538 311.176258 173.086843 311.655949 173.086843 312.156057 
C 173.086843 312.656164 173.285538 313.135856 173.639167 313.489485 
C 173.992797 313.843115 174.472488 314.04181 174.972596 314.04181 
z
" style="fill:#3a0ca3;fill-opacity:0.7;stroke:#3a0ca3;stroke-opacity:0.7;stroke-width:0.5;"/>
    <path clip-path="url(#p5c7f5ad9cf)" d="M 220.595766 257.715847 
C 220.765258 257.715847 220.927832 257.648507 221.047681 257.528658 
C 221.16753 257.408809 221.23487 257.246236 221.23487 257.076744 
C 221.23487 256.907252 221.16753 256.744679 221.047681 256.624829 
C 220.927832 256.50498 220.765258 256.43764 220.595766 256.43764 
C 220.426274 256.43764 220.263701 256.50498 220.143852 256.624829 
C 220.024003 256.744679 219.956663 256.907252 219.956663 257.076744 
C 219.956663 257.246236 220.024003 257.408809 220.143852 257.528658 
C 220.263701 257.648507 220.426274 257.715847 220.595766 257.715847 
z
" style="fill:#3a0ca3;fill-opacity:0.7;stroke:#3a0ca3;stroke-opacity:0.7;stroke-width:0.5;"/>
    <path clip-path="url(#p5c7f5ad9cf)" d="M 286.896757 142.336261 
C 288.545887 142.336261 290.127695 141.681055 291.293806 140.514944 
C 292.459917 139.348833 293.115123 137.767025 293.115123 136.117895 
C 293.115123 134.468765 292.459917 132.886957 291.293806 131.720846 
C 290.127695 130.554735 288.545887 129.899528 286.896757 129.899528 
C 285.247627 129.899528 283.665819 130.554735 282.499708 131.720846 
C 281.333597 132.886957 280.67839 134.468765 280.67839 136.117895 
C 280.67839 137.767025 281.333597 139.348833 282.499708 140.514944 
C 283.665819 141.681055 285.247627 142.336261 286.896757 142.336261 
z
" style="fill:#3a0ca3;fill-opacity:0.7;stroke:#3a0ca3;stroke-opacity:0.7;stroke-width:0.5;"/>
    <path clip-path="url(#p5c7f5ad9cf)" d="M 222.711885 320.555465 
C 223.179752 320.555465 223.628518 320.36958 223.95935 320.038748 
C 224.290181 319.707917 224.476067 319.25915 224.476067 318.791284 
C 224.476067 318.323417 224.290181 317.874651 223.95935 317.543819 
C 223.628518 317.212988 223.179752 317.027102 222.711885 317.027102 
C 222.244019 317.027102 221.795252 317.212988 221.464421 317.543819 
C 221.133589 317.874651 220.947704 318.323417 220.947704 318.791284 
C 220.947704 319.25915 221.133589 319.707917 221.464421 320.038748 
C 221.795252 320.36958 222.244019 320.555465 222.711885 320.555465 
z
" style="fill:#3a0ca3;fill-opacity:0.7;stroke:#3a0ca3;stroke-opacity:0.7;stroke-width:0.5;"/>
    <path clip-path="url(#p5c7f5ad9cf)" d="M 195.992923 306.379618 
C 196.964661 306.379618 197.896731 305.993542 198.583854 305.306419 
C 199.270977 304.619296 199.657053 303.687226 199.657053 302.715487 
C 199.657053 301.743749 199.270977 300.811679 198.583854 300.124556 
C 197.896731 299.437433 196.964661 299.051357 195.992923 299.051357 
C 195.021184 299.051357 194.089114 299.437433 193.401991 300.124556 
C 192.714868 300.811679 192.328793 301.743749 192.328793 302.715487 
C 192.328793 303.687226 192.714868 304.619296 193.401991 305.306419 
C 194.089114 305.993542 195.021184 306.379618 195.992923 306.379618 
z
" style="fill:#3a0ca3;fill-opacity:0.7;stroke:#3a0ca3;stroke-opacity:0.7;stroke-width:0.5;"/>
    <path clip-path="url(#p5c7f5ad9cf)" d="M 216.821236 264.63501 
C 217.388529 264.63501 217.932665 264.409622 218.333802 264.008485 
C 218.734939 263.607348 218.960327 263.063213 218.960327 262.495919 
C 218.960327 261.928626 218.734939 261.384491 218.333802 260.983353 
C 217.932665 260.582216 217.388529 260.356828 216.821236 260.356828 
C 216.253942 260.356828 215.709807 260.582216 215.30867 260.983353 
C 214.907533 261.384491 214.682145 261.928626 214.682145 262.495919 
C 214.682145 263.063213 214.907533 263.607348 215.30867 264.008485 
C 215.709807 264.409622 216.253942 264.63501 216.821236 264.63501 
z
" style="fill:#3a0ca3;fill-opacity:0.7;stroke:#3a0ca3;stroke-opacity:0.7;stroke-width:0.5;"/>
    <path clip-path="url(#p5c7f5ad9cf)" d="M 187.435405 305.892114 
C 187.732179 305.892114 188.016837 305.774205 188.226688 305.564354 
C 188.436539 305.354503 188.554448 305.069845 188.554448 304.773071 
C 188.554448 304.476297 188.436539 304.191639 188.226688 303.981788 
C 188.016837 303.771937 187.732179 303.654028 187.435405 303.654028 
C 187.138631 303.654028 186.853973 303.771937 186.644122 303.981788 
C 186.434271 304.191639 186.316362 304.476297 186.316362 304.773071 
C 186.316362 305.069845 186.434271 305.354503 186.644122 305.564354 
C 186.853973 305.774205 187.138631 305.892114 187.435405 305.892114 
z
" style="fill:#3a0ca3;fill-opacity:0.7;stroke:#3a0ca3;stroke-opacity:0.7;stroke-width:0.5;"/>
    <path clip-path="url(#p5c7f5ad9cf)" d="M 193.316027 311.804139 
C 193.65699 311.804139 193.984034 311.668673 194.225132 311.427575 
C 194.466229 311.186478 194.601695 310.859434 194.601695 310.518471 
C 194.601695 310.177507 194.466229 309.850463 194.225132 309.609366 
C 193.984034 309.368268 193.65699 309.232802 193.316027 309.232802 
C 192.975064 309.232802 192.64802 309.368268 192.406922 309.609366 
C 192.165825 309.850463 192.030359 310.177507 192.030359 310.518471 
C 192.030359 310.859434 192.165825 311.186478 192.406922 311.427575 
C 192.64802 311.668673 192.975064 311.804139 193.316027 311.804139 
z
" style="fill:#3a0ca3;fill-opacity:0.7;stroke:#3a0ca3;stroke-opacity:0.7;stroke-width:0.5;"/>
   </g>
   <g id="patch_3">
    <path d="M 49.524125 357.12 
L 49.524125 7.2 
" style="fill:none;stroke:#ffffff;stroke-linecap:square;stroke-linejoin:miter;stroke-width:3;"/>
   </g>
   <g id="patch_4">
    <path d="M 425.364125 357.12 
L 425.364125 7.2 
" style="fill:none;stroke:#ffffff;stroke-linecap:square;stroke-linejoin:miter;stroke-width:3;"/>
   </g>
   <g id="patch_5">
    <path d="M 49.524125 357.12 
L 425.364125 357.12 
" style="fill:none;stroke:#ffffff;stroke-linecap:square;stroke-linejoin:miter;stroke-width:3;"/>
   </g>
   <g id="patch_6">
    <path d="M 49.524125 7.2 
L 425.364125 7.2 
" style="fill:none;stroke:#ffffff;stroke-linecap:square;stroke-linejoin:miter;stroke-width:3;"/>
   </g>
   <g id="legend_1">
    <g id="PathCollection_2">
     <defs>
      <path d="M 0 9.995743 
C 2.650902 9.995743 5.193587 8.942529 7.068058 7.068058 
C 8.942529 5.193587 9.995743 2.650902 9.995743 0 
C 9.995743 -2.650902 8.942529 -5.193587 7.068058 -7.068058 
C 5.193587 -8.942529 2.650902 -9.995743 0 -9.995743 
C -2.650902 -9.995743 -5.193587 -8.942529 -7.068058 -7.068058 
C -8.942529 -5.193587 -9.995743 -2.650902 -9.995743 0 
C -9.995743 2.650902 -8.942529 5.193587 -7.068058 7.068058 
C -5.193587 8.942529 -2.650902 9.995743 0 9.995743 
z
" id="md071e5938a" style="stroke:#3a0ca3;stroke-opacity:0.7;stroke-width:0.5;"/>
     </defs>
     <g>
      <use style="fill:#3a0ca3;fill-opacity:0.7;stroke:#3a0ca3;stroke-opacity:0.7;stroke-width:0.5;" x="76.124125" xlink:href="#md071e5938a" y="26.765"/>
     </g>
    </g>
    <g id="text_13">
     <!-- $\gamma,n,h$ -->
     <defs>
      <path d="M 23.296875 46.09375 
L 28.71875 12.3125 
L 54 54.6875 
L 63.53125 54.6875 
L 30.8125 0 
L 26.765625 -20.796875 
L 17.78125 -20.796875 
L 21.828125 0 
L 15.4375 40.828125 
Q 14.453125 46.96875 9.8125 46.96875 
L 7.421875 46.96875 
L 8.890625 54.6875 
L 12.3125 54.6875 
Q 21.921875 54.6875 23.296875 46.09375 
z
" id="DejaVuSans-Oblique-947"/>
      <path d="M 11.71875 12.40625 
L 22.015625 12.40625 
L 22.015625 4 
L 14.015625 -11.625 
L 7.71875 -11.625 
L 11.71875 4 
z
" id="DejaVuSans-44"/>
      <path d="M 55.71875 33.015625 
L 49.3125 0 
L 40.28125 0 
L 46.6875 32.671875 
Q 47.125 34.96875 47.359375 36.71875 
Q 47.609375 38.484375 47.609375 39.5 
Q 47.609375 43.609375 45.015625 45.890625 
Q 42.4375 48.1875 37.796875 48.1875 
Q 30.5625 48.1875 25.34375 43.375 
Q 20.125 38.578125 18.5 30.328125 
L 12.5 0 
L 3.515625 0 
L 14.109375 54.6875 
L 23.09375 54.6875 
L 21.296875 46.09375 
Q 25.046875 50.828125 30.3125 53.40625 
Q 35.59375 56 41.40625 56 
Q 48.640625 56 52.609375 52.09375 
Q 56.59375 48.1875 56.59375 41.109375 
Q 56.59375 39.359375 56.375 37.359375 
Q 56.15625 35.359375 55.71875 33.015625 
z
" id="DejaVuSans-Oblique-110"/>
      <path d="M 55.71875 33.015625 
L 49.3125 0 
L 40.28125 0 
L 46.6875 32.671875 
Q 47.125 34.96875 47.359375 36.71875 
Q 47.609375 38.484375 47.609375 39.5 
Q 47.609375 43.609375 45.015625 45.890625 
Q 42.4375 48.1875 37.796875 48.1875 
Q 30.5625 48.1875 25.265625 43.296875 
Q 19.96875 38.421875 18.40625 30.328125 
L 12.5 0 
L 3.515625 0 
L 18.3125 75.984375 
L 27.296875 75.984375 
L 21.484375 46.09375 
Q 24.90625 50.6875 30.21875 53.34375 
Q 35.546875 56 41.40625 56 
Q 48.640625 56 52.609375 52.09375 
Q 56.59375 48.1875 56.59375 41.109375 
Q 56.59375 39.359375 56.375 37.359375 
Q 56.15625 35.359375 55.71875 33.015625 
z
" id="DejaVuSans-Oblique-104"/>
     </defs>
     <g transform="translate(101.324125 30.44)scale(0.14 -0.14)">
      <use transform="translate(0 0.015625)" xlink:href="#DejaVuSans-Oblique-947"/>
      <use transform="translate(59.179688 0.015625)" xlink:href="#DejaVuSans-44"/>
      <use transform="translate(110.449219 0.015625)" xlink:href="#DejaVuSans-Oblique-110"/>
      <use transform="translate(173.828125 0.015625)" xlink:href="#DejaVuSans-44"/>
      <use transform="translate(225.097656 0.015625)" xlink:href="#DejaVuSans-Oblique-104"/>
     </g>
    </g>
   </g>
  </g>
 </g>
 <defs>
  <clipPath id="p5c7f5ad9cf">
   <rect height="349.92" width="375.84" x="49.524125" y="7.2"/>
  </clipPath>
 </defs>
</svg>
