<?xml version="1.0" encoding="utf-8" standalone="no"?>
<!DOCTYPE svg PUBLIC "-//W3C//DTD SVG 1.1//EN"
  "http://www.w3.org/Graphics/SVG/1.1/DTD/svg11.dtd">
<!-- Created with matplotlib (https://matplotlib.org/) -->
<svg height="277.815489pt" version="1.1" viewBox="0 0 547.576318 277.815489" width="547.576318pt" xmlns="http://www.w3.org/2000/svg" xmlns:xlink="http://www.w3.org/1999/xlink">
 <defs>
  <style type="text/css">
*{stroke-linecap:butt;stroke-linejoin:round;}
  </style>
 </defs>
 <g id="figure_1">
  <g id="patch_1">
   <path d="M 0 277.815489 
L 547.576318 277.815489 
L 547.576318 0 
L 0 0 
z
" style="fill:#ffffff;"/>
  </g>
  <g id="axes_1">
   <g id="patch_2">
    <path d="M 55.8395 224.947926 
L 390.6395 224.947926 
L 390.6395 7.507926 
L 55.8395 7.507926 
z
" style="fill:#ffffff;"/>
   </g>
   <g id="matplotlib.axis_1">
    <g id="xtick_1">
     <g id="line2d_1">
      <path clip-path="url(#p5f3e874b4e)" d="M 62.603136 224.947926 
L 62.603136 7.507926 
" style="fill:none;stroke:#cccccc;stroke-linecap:round;stroke-opacity:0.9;"/>
     </g>
     <g id="text_1">
      <!-- 1980 -->
      <defs>
       <path d="M 37.25 0 
L 28.46875 0 
L 28.46875 56 
Q 25.296875 52.984375 20.140625 49.953125 
Q 14.984375 46.921875 10.890625 45.40625 
L 10.890625 53.90625 
Q 18.265625 57.375 23.78125 62.296875 
Q 29.296875 67.234375 31.59375 71.875 
L 37.25 71.875 
z
" id="ArialMT-49"/>
       <path d="M 5.46875 16.546875 
L 13.921875 17.328125 
Q 14.984375 11.375 18.015625 8.6875 
Q 21.046875 6 25.78125 6 
Q 29.828125 6 32.875 7.859375 
Q 35.9375 9.71875 37.890625 12.8125 
Q 39.84375 15.921875 41.15625 21.1875 
Q 42.484375 26.46875 42.484375 31.9375 
Q 42.484375 32.515625 42.4375 33.6875 
Q 39.796875 29.5 35.234375 26.875 
Q 30.671875 24.265625 25.34375 24.265625 
Q 16.453125 24.265625 10.296875 30.703125 
Q 4.15625 37.15625 4.15625 47.703125 
Q 4.15625 58.59375 10.578125 65.234375 
Q 17 71.875 26.65625 71.875 
Q 33.640625 71.875 39.421875 68.109375 
Q 45.21875 64.359375 48.21875 57.390625 
Q 51.21875 50.4375 51.21875 37.25 
Q 51.21875 23.53125 48.234375 15.40625 
Q 45.265625 7.28125 39.375 3.03125 
Q 33.5 -1.21875 25.59375 -1.21875 
Q 17.1875 -1.21875 11.859375 3.4375 
Q 6.546875 8.109375 5.46875 16.546875 
z
M 41.453125 48.140625 
Q 41.453125 55.71875 37.421875 60.15625 
Q 33.40625 64.59375 27.734375 64.59375 
Q 21.875 64.59375 17.53125 59.8125 
Q 13.1875 55.03125 13.1875 47.40625 
Q 13.1875 40.578125 17.3125 36.296875 
Q 21.4375 32.03125 27.484375 32.03125 
Q 33.59375 32.03125 37.515625 36.296875 
Q 41.453125 40.578125 41.453125 48.140625 
z
" id="ArialMT-57"/>
       <path d="M 17.671875 38.8125 
Q 12.203125 40.828125 9.5625 44.53125 
Q 6.9375 48.25 6.9375 53.421875 
Q 6.9375 61.234375 12.546875 66.546875 
Q 18.171875 71.875 27.484375 71.875 
Q 36.859375 71.875 42.578125 66.421875 
Q 48.296875 60.984375 48.296875 53.171875 
Q 48.296875 48.1875 45.671875 44.5 
Q 43.0625 40.828125 37.75 38.8125 
Q 44.34375 36.671875 47.78125 31.875 
Q 51.21875 27.09375 51.21875 20.453125 
Q 51.21875 11.28125 44.71875 5.03125 
Q 38.234375 -1.21875 27.640625 -1.21875 
Q 17.046875 -1.21875 10.546875 5.046875 
Q 4.046875 11.328125 4.046875 20.703125 
Q 4.046875 27.6875 7.59375 32.390625 
Q 11.140625 37.109375 17.671875 38.8125 
z
M 15.921875 53.71875 
Q 15.921875 48.640625 19.1875 45.40625 
Q 22.46875 42.1875 27.6875 42.1875 
Q 32.765625 42.1875 36.015625 45.375 
Q 39.265625 48.578125 39.265625 53.21875 
Q 39.265625 58.0625 35.90625 61.359375 
Q 32.5625 64.65625 27.59375 64.65625 
Q 22.5625 64.65625 19.234375 61.421875 
Q 15.921875 58.203125 15.921875 53.71875 
z
M 13.09375 20.65625 
Q 13.09375 16.890625 14.875 13.375 
Q 16.65625 9.859375 20.171875 7.921875 
Q 23.6875 6 27.734375 6 
Q 34.03125 6 38.125 10.046875 
Q 42.234375 14.109375 42.234375 20.359375 
Q 42.234375 26.703125 38.015625 30.859375 
Q 33.796875 35.015625 27.4375 35.015625 
Q 21.234375 35.015625 17.15625 30.90625 
Q 13.09375 26.8125 13.09375 20.65625 
z
" id="ArialMT-56"/>
       <path d="M 4.15625 35.296875 
Q 4.15625 48 6.765625 55.734375 
Q 9.375 63.484375 14.515625 67.671875 
Q 19.671875 71.875 27.484375 71.875 
Q 33.25 71.875 37.59375 69.546875 
Q 41.9375 67.234375 44.765625 62.859375 
Q 47.609375 58.5 49.21875 52.21875 
Q 50.828125 45.953125 50.828125 35.296875 
Q 50.828125 22.703125 48.234375 14.96875 
Q 45.65625 7.234375 40.5 3 
Q 35.359375 -1.21875 27.484375 -1.21875 
Q 17.140625 -1.21875 11.234375 6.203125 
Q 4.15625 15.140625 4.15625 35.296875 
z
M 13.1875 35.296875 
Q 13.1875 17.671875 17.3125 11.828125 
Q 21.4375 6 27.484375 6 
Q 33.546875 6 37.671875 11.859375 
Q 41.796875 17.71875 41.796875 35.296875 
Q 41.796875 52.984375 37.671875 58.78125 
Q 33.546875 64.59375 27.390625 64.59375 
Q 21.34375 64.59375 17.71875 59.46875 
Q 13.1875 52.9375 13.1875 35.296875 
z
" id="ArialMT-48"/>
      </defs>
      <g style="fill:#262626;" transform="translate(47.032511 248.468864)scale(0.14 -0.14)">
       <use xlink:href="#ArialMT-49"/>
       <use x="55.615234" xlink:href="#ArialMT-57"/>
       <use x="111.230469" xlink:href="#ArialMT-56"/>
       <use x="166.845703" xlink:href="#ArialMT-48"/>
      </g>
     </g>
    </g>
    <g id="xtick_2">
     <g id="line2d_2">
      <path clip-path="url(#p5f3e874b4e)" d="M 147.148591 224.947926 
L 147.148591 7.507926 
" style="fill:none;stroke:#cccccc;stroke-linecap:round;stroke-opacity:0.9;"/>
     </g>
     <g id="text_2">
      <!-- 1990 -->
      <g style="fill:#262626;" transform="translate(131.577966 248.468864)scale(0.14 -0.14)">
       <use xlink:href="#ArialMT-49"/>
       <use x="55.615234" xlink:href="#ArialMT-57"/>
       <use x="111.230469" xlink:href="#ArialMT-57"/>
       <use x="166.845703" xlink:href="#ArialMT-48"/>
      </g>
     </g>
    </g>
    <g id="xtick_3">
     <g id="line2d_3">
      <path clip-path="url(#p5f3e874b4e)" d="M 231.694045 224.947926 
L 231.694045 7.507926 
" style="fill:none;stroke:#cccccc;stroke-linecap:round;stroke-opacity:0.9;"/>
     </g>
     <g id="text_3">
      <!-- 2000 -->
      <defs>
       <path d="M 50.34375 8.453125 
L 50.34375 0 
L 3.03125 0 
Q 2.9375 3.171875 4.046875 6.109375 
Q 5.859375 10.9375 9.828125 15.625 
Q 13.8125 20.3125 21.34375 26.46875 
Q 33.015625 36.03125 37.109375 41.625 
Q 41.21875 47.21875 41.21875 52.203125 
Q 41.21875 57.421875 37.46875 61 
Q 33.734375 64.59375 27.734375 64.59375 
Q 21.390625 64.59375 17.578125 60.78125 
Q 13.765625 56.984375 13.71875 50.25 
L 4.6875 51.171875 
Q 5.609375 61.28125 11.65625 66.578125 
Q 17.71875 71.875 27.9375 71.875 
Q 38.234375 71.875 44.234375 66.15625 
Q 50.25 60.453125 50.25 52 
Q 50.25 47.703125 48.484375 43.546875 
Q 46.734375 39.40625 42.65625 34.8125 
Q 38.578125 30.21875 29.109375 22.21875 
Q 21.1875 15.578125 18.9375 13.203125 
Q 16.703125 10.84375 15.234375 8.453125 
z
" id="ArialMT-50"/>
      </defs>
      <g style="fill:#262626;" transform="translate(216.12342 248.468864)scale(0.14 -0.14)">
       <use xlink:href="#ArialMT-50"/>
       <use x="55.615234" xlink:href="#ArialMT-48"/>
       <use x="111.230469" xlink:href="#ArialMT-48"/>
       <use x="166.845703" xlink:href="#ArialMT-48"/>
      </g>
     </g>
    </g>
    <g id="xtick_4">
     <g id="line2d_4">
      <path clip-path="url(#p5f3e874b4e)" d="M 316.2395 224.947926 
L 316.2395 7.507926 
" style="fill:none;stroke:#cccccc;stroke-linecap:round;stroke-opacity:0.9;"/>
     </g>
     <g id="text_4">
      <!-- 2010 -->
      <g style="fill:#262626;" transform="translate(300.668875 248.468864)scale(0.14 -0.14)">
       <use xlink:href="#ArialMT-50"/>
       <use x="55.615234" xlink:href="#ArialMT-48"/>
       <use x="111.230469" xlink:href="#ArialMT-49"/>
       <use x="166.845703" xlink:href="#ArialMT-48"/>
      </g>
     </g>
    </g>
    <g id="text_5">
     <!-- Year -->
     <defs>
      <path d="M 27.875 0 
L 27.875 30.328125 
L 0.296875 71.578125 
L 11.8125 71.578125 
L 25.921875 50 
Q 29.828125 43.953125 33.203125 37.890625 
Q 36.421875 43.5 41.015625 50.53125 
L 54.890625 71.578125 
L 65.921875 71.578125 
L 37.359375 30.328125 
L 37.359375 0 
z
" id="ArialMT-89"/>
      <path d="M 42.09375 16.703125 
L 51.171875 15.578125 
Q 49.03125 7.625 43.21875 3.21875 
Q 37.40625 -1.171875 28.375 -1.171875 
Q 17 -1.171875 10.328125 5.828125 
Q 3.65625 12.84375 3.65625 25.484375 
Q 3.65625 38.578125 10.390625 45.796875 
Q 17.140625 53.03125 27.875 53.03125 
Q 38.28125 53.03125 44.875 45.953125 
Q 51.46875 38.875 51.46875 26.03125 
Q 51.46875 25.25 51.421875 23.6875 
L 12.75 23.6875 
Q 13.234375 15.140625 17.578125 10.59375 
Q 21.921875 6.0625 28.421875 6.0625 
Q 33.25 6.0625 36.671875 8.59375 
Q 40.09375 11.140625 42.09375 16.703125 
z
M 13.234375 30.90625 
L 42.1875 30.90625 
Q 41.609375 37.453125 38.875 40.71875 
Q 34.671875 45.796875 27.984375 45.796875 
Q 21.921875 45.796875 17.796875 41.75 
Q 13.671875 37.703125 13.234375 30.90625 
z
" id="ArialMT-101"/>
      <path d="M 40.4375 6.390625 
Q 35.546875 2.25 31.03125 0.53125 
Q 26.515625 -1.171875 21.34375 -1.171875 
Q 12.796875 -1.171875 8.203125 3 
Q 3.609375 7.171875 3.609375 13.671875 
Q 3.609375 17.484375 5.34375 20.625 
Q 7.078125 23.78125 9.890625 25.6875 
Q 12.703125 27.59375 16.21875 28.5625 
Q 18.796875 29.25 24.03125 29.890625 
Q 34.671875 31.15625 39.703125 32.90625 
Q 39.75 34.71875 39.75 35.203125 
Q 39.75 40.578125 37.25 42.78125 
Q 33.890625 45.75 27.25 45.75 
Q 21.046875 45.75 18.09375 43.578125 
Q 15.140625 41.40625 13.71875 35.890625 
L 5.125 37.0625 
Q 6.296875 42.578125 8.984375 45.96875 
Q 11.671875 49.359375 16.75 51.1875 
Q 21.828125 53.03125 28.515625 53.03125 
Q 35.15625 53.03125 39.296875 51.46875 
Q 43.453125 49.90625 45.40625 47.53125 
Q 47.359375 45.171875 48.140625 41.546875 
Q 48.578125 39.3125 48.578125 33.453125 
L 48.578125 21.734375 
Q 48.578125 9.46875 49.140625 6.21875 
Q 49.703125 2.984375 51.375 0 
L 42.1875 0 
Q 40.828125 2.734375 40.4375 6.390625 
z
M 39.703125 26.03125 
Q 34.90625 24.078125 25.34375 22.703125 
Q 19.921875 21.921875 17.671875 20.9375 
Q 15.4375 19.96875 14.203125 18.09375 
Q 12.984375 16.21875 12.984375 13.921875 
Q 12.984375 10.40625 15.640625 8.0625 
Q 18.3125 5.71875 23.4375 5.71875 
Q 28.515625 5.71875 32.46875 7.9375 
Q 36.421875 10.15625 38.28125 14.015625 
Q 39.703125 17 39.703125 22.796875 
z
" id="ArialMT-97"/>
      <path d="M 6.5 0 
L 6.5 51.859375 
L 14.40625 51.859375 
L 14.40625 44 
Q 17.4375 49.515625 20 51.265625 
Q 22.5625 53.03125 25.640625 53.03125 
Q 30.078125 53.03125 34.671875 50.203125 
L 31.640625 42.046875 
Q 28.421875 43.953125 25.203125 43.953125 
Q 22.3125 43.953125 20.015625 42.21875 
Q 17.71875 40.484375 16.75 37.40625 
Q 15.28125 32.71875 15.28125 27.15625 
L 15.28125 0 
z
" id="ArialMT-114"/>
     </defs>
     <g style="fill:#262626;" transform="translate(205.508938 267.276489)scale(0.168 -0.168)">
      <use xlink:href="#ArialMT-89"/>
      <use x="66.558594" xlink:href="#ArialMT-101"/>
      <use x="122.173828" xlink:href="#ArialMT-97"/>
      <use x="177.789062" xlink:href="#ArialMT-114"/>
     </g>
    </g>
   </g>
   <g id="matplotlib.axis_2">
    <g id="ytick_1">
     <g id="line2d_5">
      <path clip-path="url(#p5f3e874b4e)" d="M 55.8395 215.680093 
L 390.6395 215.680093 
" style="fill:none;stroke:#cccccc;stroke-linecap:round;stroke-opacity:0.9;"/>
     </g>
     <g id="text_6">
      <!-- 0 -->
      <g style="fill:#262626;" transform="translate(34.554188 220.690562)scale(0.14 -0.14)">
       <use xlink:href="#ArialMT-48"/>
      </g>
     </g>
    </g>
    <g id="ytick_2">
     <g id="line2d_6">
      <path clip-path="url(#p5f3e874b4e)" d="M 55.8395 169.798226 
L 390.6395 169.798226 
" style="fill:none;stroke:#cccccc;stroke-linecap:round;stroke-opacity:0.9;"/>
     </g>
     <g id="text_7">
      <!-- 10 -->
      <g style="fill:#262626;" transform="translate(26.768875 174.808695)scale(0.14 -0.14)">
       <use xlink:href="#ArialMT-49"/>
       <use x="55.615234" xlink:href="#ArialMT-48"/>
      </g>
     </g>
    </g>
    <g id="ytick_3">
     <g id="line2d_7">
      <path clip-path="url(#p5f3e874b4e)" d="M 55.8395 123.91636 
L 390.6395 123.91636 
" style="fill:none;stroke:#cccccc;stroke-linecap:round;stroke-opacity:0.9;"/>
     </g>
     <g id="text_8">
      <!-- 20 -->
      <g style="fill:#262626;" transform="translate(26.768875 128.926828)scale(0.14 -0.14)">
       <use xlink:href="#ArialMT-50"/>
       <use x="55.615234" xlink:href="#ArialMT-48"/>
      </g>
     </g>
    </g>
    <g id="ytick_4">
     <g id="line2d_8">
      <path clip-path="url(#p5f3e874b4e)" d="M 55.8395 78.034493 
L 390.6395 78.034493 
" style="fill:none;stroke:#cccccc;stroke-linecap:round;stroke-opacity:0.9;"/>
     </g>
     <g id="text_9">
      <!-- 30 -->
      <defs>
       <path d="M 4.203125 18.890625 
L 12.984375 20.0625 
Q 14.5 12.59375 18.140625 9.296875 
Q 21.78125 6 27 6 
Q 33.203125 6 37.46875 10.296875 
Q 41.75 14.59375 41.75 20.953125 
Q 41.75 27 37.796875 30.921875 
Q 33.84375 34.859375 27.734375 34.859375 
Q 25.25 34.859375 21.53125 33.890625 
L 22.515625 41.609375 
Q 23.390625 41.5 23.921875 41.5 
Q 29.546875 41.5 34.03125 44.421875 
Q 38.53125 47.359375 38.53125 53.46875 
Q 38.53125 58.296875 35.25 61.46875 
Q 31.984375 64.65625 26.8125 64.65625 
Q 21.6875 64.65625 18.265625 61.421875 
Q 14.84375 58.203125 13.875 51.765625 
L 5.078125 53.328125 
Q 6.6875 62.15625 12.390625 67.015625 
Q 18.109375 71.875 26.609375 71.875 
Q 32.46875 71.875 37.390625 69.359375 
Q 42.328125 66.84375 44.9375 62.5 
Q 47.5625 58.15625 47.5625 53.265625 
Q 47.5625 48.640625 45.0625 44.828125 
Q 42.578125 41.015625 37.703125 38.765625 
Q 44.046875 37.3125 47.5625 32.6875 
Q 51.078125 28.078125 51.078125 21.140625 
Q 51.078125 11.765625 44.234375 5.25 
Q 37.40625 -1.265625 26.953125 -1.265625 
Q 17.53125 -1.265625 11.296875 4.34375 
Q 5.078125 9.96875 4.203125 18.890625 
z
" id="ArialMT-51"/>
      </defs>
      <g style="fill:#262626;" transform="translate(26.768875 83.044962)scale(0.14 -0.14)">
       <use xlink:href="#ArialMT-51"/>
       <use x="55.615234" xlink:href="#ArialMT-48"/>
      </g>
     </g>
    </g>
    <g id="ytick_5">
     <g id="line2d_9">
      <path clip-path="url(#p5f3e874b4e)" d="M 55.8395 32.152626 
L 390.6395 32.152626 
" style="fill:none;stroke:#cccccc;stroke-linecap:round;stroke-opacity:0.9;"/>
     </g>
     <g id="text_10">
      <!-- 40 -->
      <defs>
       <path d="M 32.328125 0 
L 32.328125 17.140625 
L 1.265625 17.140625 
L 1.265625 25.203125 
L 33.9375 71.578125 
L 41.109375 71.578125 
L 41.109375 25.203125 
L 50.78125 25.203125 
L 50.78125 17.140625 
L 41.109375 17.140625 
L 41.109375 0 
z
M 32.328125 25.203125 
L 32.328125 57.46875 
L 9.90625 25.203125 
z
" id="ArialMT-52"/>
      </defs>
      <g style="fill:#262626;" transform="translate(26.768875 37.163095)scale(0.14 -0.14)">
       <use xlink:href="#ArialMT-52"/>
       <use x="55.615234" xlink:href="#ArialMT-48"/>
      </g>
     </g>
    </g>
    <g id="text_11">
     <!-- Billion USD, 2010-prices -->
     <defs>
      <path d="M 7.328125 0 
L 7.328125 71.578125 
L 34.1875 71.578125 
Q 42.390625 71.578125 47.34375 69.40625 
Q 52.296875 67.234375 55.09375 62.71875 
Q 57.90625 58.203125 57.90625 53.265625 
Q 57.90625 48.6875 55.421875 44.625 
Q 52.9375 40.578125 47.90625 38.09375 
Q 54.390625 36.1875 57.875 31.59375 
Q 61.375 27 61.375 20.75 
Q 61.375 15.71875 59.25 11.390625 
Q 57.125 7.078125 54 4.734375 
Q 50.875 2.390625 46.15625 1.1875 
Q 41.453125 0 34.625 0 
z
M 16.796875 41.5 
L 32.28125 41.5 
Q 38.578125 41.5 41.3125 42.328125 
Q 44.921875 43.40625 46.75 45.890625 
Q 48.578125 48.390625 48.578125 52.15625 
Q 48.578125 55.71875 46.875 58.421875 
Q 45.171875 61.140625 41.984375 62.140625 
Q 38.8125 63.140625 31.109375 63.140625 
L 16.796875 63.140625 
z
M 16.796875 8.453125 
L 34.625 8.453125 
Q 39.203125 8.453125 41.0625 8.796875 
Q 44.34375 9.375 46.53125 10.734375 
Q 48.734375 12.109375 50.140625 14.71875 
Q 51.5625 17.328125 51.5625 20.75 
Q 51.5625 24.75 49.515625 27.703125 
Q 47.46875 30.671875 43.828125 31.859375 
Q 40.1875 33.0625 33.34375 33.0625 
L 16.796875 33.0625 
z
" id="ArialMT-66"/>
      <path d="M 6.640625 61.46875 
L 6.640625 71.578125 
L 15.4375 71.578125 
L 15.4375 61.46875 
z
M 6.640625 0 
L 6.640625 51.859375 
L 15.4375 51.859375 
L 15.4375 0 
z
" id="ArialMT-105"/>
      <path d="M 6.390625 0 
L 6.390625 71.578125 
L 15.1875 71.578125 
L 15.1875 0 
z
" id="ArialMT-108"/>
      <path d="M 3.328125 25.921875 
Q 3.328125 40.328125 11.328125 47.265625 
Q 18.015625 53.03125 27.640625 53.03125 
Q 38.328125 53.03125 45.109375 46.015625 
Q 51.90625 39.015625 51.90625 26.65625 
Q 51.90625 16.65625 48.90625 10.90625 
Q 45.90625 5.171875 40.15625 2 
Q 34.421875 -1.171875 27.640625 -1.171875 
Q 16.75 -1.171875 10.03125 5.8125 
Q 3.328125 12.796875 3.328125 25.921875 
z
M 12.359375 25.921875 
Q 12.359375 15.96875 16.703125 11.015625 
Q 21.046875 6.0625 27.640625 6.0625 
Q 34.1875 6.0625 38.53125 11.03125 
Q 42.875 16.015625 42.875 26.21875 
Q 42.875 35.84375 38.5 40.796875 
Q 34.125 45.75 27.640625 45.75 
Q 21.046875 45.75 16.703125 40.8125 
Q 12.359375 35.890625 12.359375 25.921875 
z
" id="ArialMT-111"/>
      <path d="M 6.59375 0 
L 6.59375 51.859375 
L 14.5 51.859375 
L 14.5 44.484375 
Q 20.21875 53.03125 31 53.03125 
Q 35.6875 53.03125 39.625 51.34375 
Q 43.5625 49.65625 45.515625 46.921875 
Q 47.46875 44.1875 48.25 40.4375 
Q 48.734375 37.984375 48.734375 31.890625 
L 48.734375 0 
L 39.9375 0 
L 39.9375 31.546875 
Q 39.9375 36.921875 38.90625 39.578125 
Q 37.890625 42.234375 35.28125 43.8125 
Q 32.671875 45.40625 29.15625 45.40625 
Q 23.53125 45.40625 19.453125 41.84375 
Q 15.375 38.28125 15.375 28.328125 
L 15.375 0 
z
" id="ArialMT-110"/>
      <path id="ArialMT-32"/>
      <path d="M 54.6875 71.578125 
L 64.15625 71.578125 
L 64.15625 30.21875 
Q 64.15625 19.4375 61.71875 13.078125 
Q 59.28125 6.734375 52.90625 2.75 
Q 46.53125 -1.21875 36.1875 -1.21875 
Q 26.125 -1.21875 19.71875 2.25 
Q 13.328125 5.71875 10.59375 12.28125 
Q 7.859375 18.84375 7.859375 30.21875 
L 7.859375 71.578125 
L 17.328125 71.578125 
L 17.328125 30.28125 
Q 17.328125 20.953125 19.0625 16.53125 
Q 20.796875 12.109375 25.015625 9.71875 
Q 29.25 7.328125 35.359375 7.328125 
Q 45.796875 7.328125 50.234375 12.0625 
Q 54.6875 16.796875 54.6875 30.28125 
z
" id="ArialMT-85"/>
      <path d="M 4.5 23 
L 13.421875 23.78125 
Q 14.0625 18.40625 16.375 14.96875 
Q 18.703125 11.53125 23.578125 9.40625 
Q 28.46875 7.28125 34.578125 7.28125 
Q 39.984375 7.28125 44.140625 8.890625 
Q 48.296875 10.5 50.3125 13.296875 
Q 52.34375 16.109375 52.34375 19.4375 
Q 52.34375 22.796875 50.390625 25.3125 
Q 48.4375 27.828125 43.953125 29.546875 
Q 41.0625 30.671875 31.203125 33.03125 
Q 21.34375 35.40625 17.390625 37.5 
Q 12.25 40.1875 9.734375 44.15625 
Q 7.234375 48.140625 7.234375 53.078125 
Q 7.234375 58.5 10.296875 63.203125 
Q 13.375 67.921875 19.28125 70.359375 
Q 25.203125 72.796875 32.421875 72.796875 
Q 40.375 72.796875 46.453125 70.234375 
Q 52.546875 67.671875 55.8125 62.6875 
Q 59.078125 57.71875 59.328125 51.421875 
L 50.25 50.734375 
Q 49.515625 57.515625 45.28125 60.984375 
Q 41.0625 64.453125 32.8125 64.453125 
Q 24.21875 64.453125 20.28125 61.296875 
Q 16.359375 58.15625 16.359375 53.71875 
Q 16.359375 49.859375 19.140625 47.359375 
Q 21.875 44.875 33.421875 42.265625 
Q 44.96875 39.65625 49.265625 37.703125 
Q 55.515625 34.8125 58.484375 30.390625 
Q 61.46875 25.984375 61.46875 20.21875 
Q 61.46875 14.5 58.203125 9.4375 
Q 54.9375 4.390625 48.796875 1.578125 
Q 42.671875 -1.21875 35.015625 -1.21875 
Q 25.296875 -1.21875 18.71875 1.609375 
Q 12.15625 4.4375 8.421875 10.125 
Q 4.6875 15.828125 4.5 23 
z
" id="ArialMT-83"/>
      <path d="M 7.71875 0 
L 7.71875 71.578125 
L 32.375 71.578125 
Q 40.71875 71.578125 45.125 70.5625 
Q 51.265625 69.140625 55.609375 65.4375 
Q 61.28125 60.640625 64.078125 53.1875 
Q 66.890625 45.75 66.890625 36.1875 
Q 66.890625 28.03125 64.984375 21.734375 
Q 63.09375 15.4375 60.109375 11.296875 
Q 57.125 7.171875 53.578125 4.796875 
Q 50.046875 2.4375 45.046875 1.21875 
Q 40.046875 0 33.546875 0 
z
M 17.1875 8.453125 
L 32.46875 8.453125 
Q 39.546875 8.453125 43.578125 9.765625 
Q 47.609375 11.078125 50 13.484375 
Q 53.375 16.84375 55.25 22.53125 
Q 57.125 28.21875 57.125 36.328125 
Q 57.125 47.5625 53.4375 53.59375 
Q 49.75 59.625 44.484375 61.671875 
Q 40.671875 63.140625 32.234375 63.140625 
L 17.1875 63.140625 
z
" id="ArialMT-68"/>
      <path d="M 8.890625 0 
L 8.890625 10.015625 
L 18.890625 10.015625 
L 18.890625 0 
Q 18.890625 -5.515625 16.9375 -8.90625 
Q 14.984375 -12.3125 10.75 -14.15625 
L 8.296875 -10.40625 
Q 11.078125 -9.1875 12.390625 -6.8125 
Q 13.71875 -4.4375 13.875 0 
z
" id="ArialMT-44"/>
      <path d="M 3.171875 21.484375 
L 3.171875 30.328125 
L 30.171875 30.328125 
L 30.171875 21.484375 
z
" id="ArialMT-45"/>
      <path d="M 6.59375 -19.875 
L 6.59375 51.859375 
L 14.59375 51.859375 
L 14.59375 45.125 
Q 17.4375 49.078125 21 51.046875 
Q 24.5625 53.03125 29.640625 53.03125 
Q 36.28125 53.03125 41.359375 49.609375 
Q 46.4375 46.1875 49.015625 39.953125 
Q 51.609375 33.734375 51.609375 26.3125 
Q 51.609375 18.359375 48.75 11.984375 
Q 45.90625 5.609375 40.453125 2.21875 
Q 35.015625 -1.171875 29 -1.171875 
Q 24.609375 -1.171875 21.109375 0.6875 
Q 17.625 2.546875 15.375 5.375 
L 15.375 -19.875 
z
M 14.546875 25.640625 
Q 14.546875 15.625 18.59375 10.84375 
Q 22.65625 6.0625 28.421875 6.0625 
Q 34.28125 6.0625 38.453125 11.015625 
Q 42.625 15.96875 42.625 26.375 
Q 42.625 36.28125 38.546875 41.203125 
Q 34.46875 46.140625 28.8125 46.140625 
Q 23.1875 46.140625 18.859375 40.890625 
Q 14.546875 35.640625 14.546875 25.640625 
z
" id="ArialMT-112"/>
      <path d="M 40.4375 19 
L 49.078125 17.875 
Q 47.65625 8.9375 41.8125 3.875 
Q 35.984375 -1.171875 27.484375 -1.171875 
Q 16.84375 -1.171875 10.375 5.78125 
Q 3.90625 12.75 3.90625 25.734375 
Q 3.90625 34.125 6.6875 40.421875 
Q 9.46875 46.734375 15.15625 49.875 
Q 20.84375 53.03125 27.546875 53.03125 
Q 35.984375 53.03125 41.359375 48.75 
Q 46.734375 44.484375 48.25 36.625 
L 39.703125 35.296875 
Q 38.484375 40.53125 35.375 43.15625 
Q 32.28125 45.796875 27.875 45.796875 
Q 21.234375 45.796875 17.078125 41.03125 
Q 12.9375 36.28125 12.9375 25.984375 
Q 12.9375 15.53125 16.9375 10.796875 
Q 20.953125 6.0625 27.390625 6.0625 
Q 32.5625 6.0625 36.03125 9.234375 
Q 39.5 12.40625 40.4375 19 
z
" id="ArialMT-99"/>
      <path d="M 3.078125 15.484375 
L 11.765625 16.84375 
Q 12.5 11.625 15.84375 8.84375 
Q 19.1875 6.0625 25.203125 6.0625 
Q 31.25 6.0625 34.171875 8.515625 
Q 37.109375 10.984375 37.109375 14.3125 
Q 37.109375 17.28125 34.515625 19 
Q 32.71875 20.171875 25.53125 21.96875 
Q 15.875 24.421875 12.140625 26.203125 
Q 8.40625 27.984375 6.46875 31.125 
Q 4.546875 34.28125 4.546875 38.09375 
Q 4.546875 41.546875 6.125 44.5 
Q 7.71875 47.46875 10.453125 49.421875 
Q 12.5 50.921875 16.03125 51.96875 
Q 19.578125 53.03125 23.640625 53.03125 
Q 29.734375 53.03125 34.34375 51.265625 
Q 38.96875 49.515625 41.15625 46.5 
Q 43.359375 43.5 44.1875 38.484375 
L 35.59375 37.3125 
Q 35.015625 41.3125 32.203125 43.546875 
Q 29.390625 45.796875 24.265625 45.796875 
Q 18.21875 45.796875 15.625 43.796875 
Q 13.03125 41.796875 13.03125 39.109375 
Q 13.03125 37.40625 14.109375 36.03125 
Q 15.1875 34.625 17.484375 33.6875 
Q 18.796875 33.203125 25.25 31.453125 
Q 34.578125 28.953125 38.25 27.359375 
Q 41.9375 25.78125 44.03125 22.75 
Q 46.140625 19.734375 46.140625 15.234375 
Q 46.140625 10.84375 43.578125 6.953125 
Q 41.015625 3.078125 36.171875 0.953125 
Q 31.34375 -1.171875 25.25 -1.171875 
Q 15.140625 -1.171875 9.84375 3.03125 
Q 4.546875 7.234375 3.078125 15.484375 
z
" id="ArialMT-115"/>
     </defs>
     <g style="fill:#262626;" transform="translate(19.429875 207.262926)rotate(-90)scale(0.168 -0.168)">
      <use xlink:href="#ArialMT-66"/>
      <use x="66.699219" xlink:href="#ArialMT-105"/>
      <use x="88.916016" xlink:href="#ArialMT-108"/>
      <use x="111.132812" xlink:href="#ArialMT-108"/>
      <use x="133.349609" xlink:href="#ArialMT-105"/>
      <use x="155.566406" xlink:href="#ArialMT-111"/>
      <use x="211.181641" xlink:href="#ArialMT-110"/>
      <use x="266.796875" xlink:href="#ArialMT-32"/>
      <use x="294.580078" xlink:href="#ArialMT-85"/>
      <use x="366.796875" xlink:href="#ArialMT-83"/>
      <use x="433.496094" xlink:href="#ArialMT-68"/>
      <use x="505.712891" xlink:href="#ArialMT-44"/>
      <use x="533.496094" xlink:href="#ArialMT-32"/>
      <use x="561.279297" xlink:href="#ArialMT-50"/>
      <use x="616.894531" xlink:href="#ArialMT-48"/>
      <use x="672.509766" xlink:href="#ArialMT-49"/>
      <use x="728.125" xlink:href="#ArialMT-48"/>
      <use x="783.740234" xlink:href="#ArialMT-45"/>
      <use x="817.041016" xlink:href="#ArialMT-112"/>
      <use x="872.65625" xlink:href="#ArialMT-114"/>
      <use x="905.957031" xlink:href="#ArialMT-105"/>
      <use x="928.173828" xlink:href="#ArialMT-99"/>
      <use x="978.173828" xlink:href="#ArialMT-101"/>
      <use x="1033.789062" xlink:href="#ArialMT-115"/>
     </g>
    </g>
   </g>
   <g id="line2d_10">
    <path clip-path="url(#p5f3e874b4e)" d="M 71.057682 100.626573 
L 87.966773 102.976495 
L 104.875864 94.113174 
L 113.330409 89.455939 
L 121.784955 87.778755 
L 130.2395 84.499555 
L 138.694045 81.633077 
L 147.148591 81.074786 
L 155.603136 87.68701 
L 164.057682 89.449447 
L 172.512227 84.58134 
L 180.966773 81.467416 
L 189.421318 91.543546 
L 197.875864 93.841594 
L 206.330409 92.000984 
L 214.784955 86.659655 
L 223.2395 75.457992 
L 231.694045 71.960647 
L 240.148591 68.5559 
L 248.603136 64.284436 
L 257.057682 62.684494 
L 265.512227 63.742617 
L 273.966773 57.037712 
L 282.421318 50.738751 
L 290.875864 42.394312 
L 299.330409 42.842615 
L 307.784955 44.122673 
L 316.2395 43.454651 
L 324.694045 40.174451 
L 333.148591 45.233684 
L 341.603136 36.774486 
L 350.057682 29.27971 
L 358.512227 23.862525 
L 366.966773 18.79976 
L 375.421318 17.391563 
" style="fill:none;stroke:#165aa7;stroke-linecap:round;stroke-width:2;"/>
   </g>
   <g id="line2d_11">
    <path clip-path="url(#p5f3e874b4e)" d="M 71.057682 167.301647 
L 87.966773 167.065576 
L 104.875864 159.898916 
L 113.330409 156.073836 
L 121.784955 153.262131 
L 130.2395 148.174731 
L 138.694045 147.875481 
L 147.148591 148.910653 
L 155.603136 152.179402 
L 164.057682 150.972341 
L 172.512227 147.939972 
L 180.966773 148.14221 
L 189.421318 155.830772 
L 197.875864 157.738816 
L 206.330409 153.90467 
L 214.784955 154.266315 
L 223.2395 147.650081 
L 231.694045 146.253818 
L 240.148591 148.667218 
L 248.603136 149.807181 
L 257.057682 151.136699 
L 265.512227 148.733536 
L 273.966773 148.9552 
L 282.421318 141.131594 
L 290.875864 136.048548 
L 299.330409 137.172439 
L 307.784955 139.272713 
L 316.2395 139.816491 
L 324.694045 135.198527 
L 333.148591 137.940978 
L 341.603136 133.010806 
L 350.057682 126.125113 
L 358.512227 121.767969 
L 366.966773 113.757486 
" style="fill:none;stroke:#cb495c;stroke-linecap:round;stroke-width:2;"/>
   </g>
   <g id="line2d_12">
    <path clip-path="url(#p5f3e874b4e)" d="M 71.057682 207.778103 
L 87.966773 209.738621 
L 104.875864 205.981011 
L 113.330409 204.072096 
L 121.784955 204.125837 
L 130.2395 203.548996 
L 138.694045 202.092527 
L 147.148591 199.840874 
L 155.603136 200.498586 
L 164.057682 201.34139 
L 172.512227 200.169939 
L 180.966773 199.109719 
L 189.421318 197.731222 
L 197.875864 195.86349 
L 206.330409 197.658921 
L 214.784955 193.889221 
L 223.2395 191.422112 
L 231.694045 192.723753 
L 240.148591 186.659152 
L 248.603136 183.100715 
L 257.057682 184.635936 
L 265.512227 189.623937 
L 273.966773 185.107271 
L 282.421318 187.572724 
L 290.875864 185.737771 
L 299.330409 185.008666 
L 307.784955 187.134286 
L 316.2395 185.326027 
L 324.694045 184.503461 
L 333.148591 181.861574 
L 341.603136 182.267147 
L 350.057682 182.988937 
L 358.512227 182.892306 
L 366.966773 184.932993 
" style="fill:none;stroke:#bb60d5;stroke-linecap:round;stroke-width:2;"/>
   </g>
   <g id="line2d_13">
    <path clip-path="url(#p5f3e874b4e)" d="M 71.057682 160.343235 
L 87.966773 160.427094 
L 104.875864 162.801003 
L 113.330409 163.846656 
L 121.784955 165.190898 
L 130.2395 167.783182 
L 138.694045 166.864164 
L 147.148591 167.836891 
L 155.603136 170.863525 
L 164.057682 173.943135 
L 172.512227 173.574864 
L 180.966773 171.752661 
L 189.421318 174.907471 
L 197.875864 177.252864 
L 206.330409 177.71378 
L 214.784955 176.13832 
L 223.2395 174.732083 
L 231.694045 172.234934 
L 240.148591 173.214737 
L 248.603136 171.950641 
L 257.057682 167.105888 
L 265.512227 165.66734 
L 273.966773 163.759053 
L 282.421318 163.11562 
L 290.875864 162.096964 
L 299.330409 162.681908 
L 307.784955 159.831533 
L 316.2395 160.088463 
L 324.694045 162.234899 
L 333.148591 166.805664 
L 341.603136 163.576145 
L 350.057682 162.810528 
L 358.512227 162.608506 
L 366.966773 163.972978 
" style="fill:none;stroke:#f47915;stroke-linecap:round;stroke-width:2;"/>
   </g>
   <g id="line2d_14">
    <path clip-path="url(#p5f3e874b4e)" d="M 71.057682 214.245624 
L 87.966773 215.06429 
L 104.875864 214.931659 
L 113.330409 214.889636 
L 121.784955 214.778501 
L 130.2395 214.673528 
L 138.694045 214.699171 
L 147.148591 214.737147 
L 155.603136 214.730591 
L 164.057682 214.66543 
L 172.512227 214.660263 
L 180.966773 214.546306 
L 189.421318 214.62922 
L 197.875864 214.657689 
L 206.330409 214.644696 
L 214.784955 214.593042 
L 223.2395 214.499796 
L 231.694045 214.399287 
L 240.148591 214.199678 
L 248.603136 214.043918 
L 257.057682 214.0039 
L 265.512227 213.962478 
L 273.966773 213.733757 
L 282.421318 213.606517 
L 290.875864 213.545375 
L 299.330409 213.538447 
L 307.784955 213.482526 
L 316.2395 213.552556 
L 324.694045 213.650665 
L 333.148591 213.726705 
L 341.603136 213.40188 
L 350.057682 213.370161 
L 358.512227 213.052049 
L 366.966773 213.010026 
" style="fill:none;stroke:#06ab54;stroke-linecap:round;stroke-width:2;"/>
   </g>
   <g id="line2d_15">
    <path clip-path="url(#p5f3e874b4e)" d="M 71.057682 213.676423 
L 87.966773 213.401288 
L 104.875864 213.220954 
L 113.330409 213.294085 
L 121.784955 213.141762 
L 130.2395 213.039486 
L 138.694045 212.822103 
L 147.148591 212.458365 
L 155.603136 212.135279 
L 164.057682 211.238646 
L 172.512227 210.936794 
L 180.966773 210.635914 
L 189.421318 211.153732 
L 197.875864 211.042308 
L 206.330409 210.79929 
L 214.784955 210.493134 
L 223.2395 209.874294 
L 231.694045 209.069227 
L 240.148591 208.535488 
L 248.603136 208.102359 
L 257.057682 208.522444 
L 265.512227 208.475704 
L 273.966773 208.202803 
L 282.421318 208.032673 
L 290.875864 207.686027 
L 299.330409 207.161528 
L 307.784955 207.121987 
L 316.2395 207.391722 
L 324.694045 207.307267 
L 333.148591 207.61914 
L 341.603136 207.238876 
L 350.057682 206.705348 
L 358.512227 206.261468 
L 366.966773 205.846058 
" style="fill:none;stroke:#002070;stroke-linecap:round;stroke-width:2;"/>
   </g>
   <g id="text_12">
    <!-- Total funding -->
    <defs>
     <path d="M 25.921875 0 
L 25.921875 63.140625 
L 2.34375 63.140625 
L 2.34375 71.578125 
L 59.078125 71.578125 
L 59.078125 63.140625 
L 35.40625 63.140625 
L 35.40625 0 
z
" id="ArialMT-84"/>
     <path d="M 25.78125 7.859375 
L 27.046875 0.09375 
Q 23.34375 -0.6875 20.40625 -0.6875 
Q 15.625 -0.6875 12.984375 0.828125 
Q 10.359375 2.34375 9.28125 4.8125 
Q 8.203125 7.28125 8.203125 15.1875 
L 8.203125 45.015625 
L 1.765625 45.015625 
L 1.765625 51.859375 
L 8.203125 51.859375 
L 8.203125 64.703125 
L 16.9375 69.96875 
L 16.9375 51.859375 
L 25.78125 51.859375 
L 25.78125 45.015625 
L 16.9375 45.015625 
L 16.9375 14.703125 
Q 16.9375 10.9375 17.40625 9.859375 
Q 17.875 8.796875 18.921875 8.15625 
Q 19.96875 7.515625 21.921875 7.515625 
Q 23.390625 7.515625 25.78125 7.859375 
z
" id="ArialMT-116"/>
     <path d="M 8.6875 0 
L 8.6875 45.015625 
L 0.921875 45.015625 
L 0.921875 51.859375 
L 8.6875 51.859375 
L 8.6875 57.375 
Q 8.6875 62.59375 9.625 65.140625 
Q 10.890625 68.5625 14.078125 70.671875 
Q 17.28125 72.796875 23.046875 72.796875 
Q 26.765625 72.796875 31.25 71.921875 
L 29.9375 64.265625 
Q 27.203125 64.75 24.75 64.75 
Q 20.75 64.75 19.09375 63.03125 
Q 17.4375 61.328125 17.4375 56.640625 
L 17.4375 51.859375 
L 27.546875 51.859375 
L 27.546875 45.015625 
L 17.4375 45.015625 
L 17.4375 0 
z
" id="ArialMT-102"/>
     <path d="M 40.578125 0 
L 40.578125 7.625 
Q 34.515625 -1.171875 24.125 -1.171875 
Q 19.53125 -1.171875 15.546875 0.578125 
Q 11.578125 2.34375 9.640625 5 
Q 7.71875 7.671875 6.9375 11.53125 
Q 6.390625 14.109375 6.390625 19.734375 
L 6.390625 51.859375 
L 15.1875 51.859375 
L 15.1875 23.09375 
Q 15.1875 16.21875 15.71875 13.8125 
Q 16.546875 10.359375 19.234375 8.375 
Q 21.921875 6.390625 25.875 6.390625 
Q 29.828125 6.390625 33.296875 8.421875 
Q 36.765625 10.453125 38.203125 13.9375 
Q 39.65625 17.4375 39.65625 24.078125 
L 39.65625 51.859375 
L 48.4375 51.859375 
L 48.4375 0 
z
" id="ArialMT-117"/>
     <path d="M 40.234375 0 
L 40.234375 6.546875 
Q 35.296875 -1.171875 25.734375 -1.171875 
Q 19.53125 -1.171875 14.328125 2.25 
Q 9.125 5.671875 6.265625 11.796875 
Q 3.421875 17.921875 3.421875 25.875 
Q 3.421875 33.640625 6 39.96875 
Q 8.59375 46.296875 13.765625 49.65625 
Q 18.953125 53.03125 25.34375 53.03125 
Q 30.03125 53.03125 33.6875 51.046875 
Q 37.359375 49.078125 39.65625 45.90625 
L 39.65625 71.578125 
L 48.390625 71.578125 
L 48.390625 0 
z
M 12.453125 25.875 
Q 12.453125 15.921875 16.640625 10.984375 
Q 20.84375 6.0625 26.5625 6.0625 
Q 32.328125 6.0625 36.34375 10.765625 
Q 40.375 15.484375 40.375 25.140625 
Q 40.375 35.796875 36.265625 40.765625 
Q 32.171875 45.75 26.171875 45.75 
Q 20.3125 45.75 16.375 40.96875 
Q 12.453125 36.1875 12.453125 25.875 
z
" id="ArialMT-100"/>
     <path d="M 4.984375 -4.296875 
L 13.53125 -5.5625 
Q 14.0625 -9.515625 16.5 -11.328125 
Q 19.78125 -13.765625 25.4375 -13.765625 
Q 31.546875 -13.765625 34.859375 -11.328125 
Q 38.1875 -8.890625 39.359375 -4.5 
Q 40.046875 -1.8125 39.984375 6.78125 
Q 34.234375 0 25.640625 0 
Q 14.9375 0 9.078125 7.71875 
Q 3.21875 15.4375 3.21875 26.21875 
Q 3.21875 33.640625 5.90625 39.90625 
Q 8.59375 46.1875 13.6875 49.609375 
Q 18.796875 53.03125 25.6875 53.03125 
Q 34.859375 53.03125 40.828125 45.609375 
L 40.828125 51.859375 
L 48.921875 51.859375 
L 48.921875 7.03125 
Q 48.921875 -5.078125 46.453125 -10.125 
Q 44 -15.1875 38.640625 -18.109375 
Q 33.296875 -21.046875 25.484375 -21.046875 
Q 16.21875 -21.046875 10.5 -16.875 
Q 4.78125 -12.703125 4.984375 -4.296875 
z
M 12.25 26.859375 
Q 12.25 16.65625 16.296875 11.96875 
Q 20.359375 7.28125 26.46875 7.28125 
Q 32.515625 7.28125 36.609375 11.9375 
Q 40.71875 16.609375 40.71875 26.5625 
Q 40.71875 36.078125 36.5 40.90625 
Q 32.28125 45.75 26.3125 45.75 
Q 20.453125 45.75 16.34375 40.984375 
Q 12.25 36.234375 12.25 26.859375 
z
" id="ArialMT-103"/>
    </defs>
    <g style="fill:#165aa7;" transform="translate(383.875864 17.391563)scale(0.14 -0.14)">
     <use xlink:href="#ArialMT-84"/>
     <use x="60.912109" xlink:href="#ArialMT-111"/>
     <use x="116.527344" xlink:href="#ArialMT-116"/>
     <use x="144.310547" xlink:href="#ArialMT-97"/>
     <use x="199.925781" xlink:href="#ArialMT-108"/>
     <use x="222.142578" xlink:href="#ArialMT-32"/>
     <use x="249.925781" xlink:href="#ArialMT-102"/>
     <use x="277.708984" xlink:href="#ArialMT-117"/>
     <use x="333.324219" xlink:href="#ArialMT-110"/>
     <use x="388.939453" xlink:href="#ArialMT-100"/>
     <use x="444.554688" xlink:href="#ArialMT-105"/>
     <use x="466.771484" xlink:href="#ArialMT-110"/>
     <use x="522.386719" xlink:href="#ArialMT-103"/>
    </g>
   </g>
   <g id="text_13">
    <!-- Business enterprise sector -->
    <g style="fill:#cb495c;" transform="translate(375.421318 113.757486)scale(0.14 -0.14)">
     <use xlink:href="#ArialMT-66"/>
     <use x="66.699219" xlink:href="#ArialMT-117"/>
     <use x="122.314453" xlink:href="#ArialMT-115"/>
     <use x="172.314453" xlink:href="#ArialMT-105"/>
     <use x="194.53125" xlink:href="#ArialMT-110"/>
     <use x="250.146484" xlink:href="#ArialMT-101"/>
     <use x="305.761719" xlink:href="#ArialMT-115"/>
     <use x="355.761719" xlink:href="#ArialMT-115"/>
     <use x="405.761719" xlink:href="#ArialMT-32"/>
     <use x="433.544922" xlink:href="#ArialMT-101"/>
     <use x="489.160156" xlink:href="#ArialMT-110"/>
     <use x="544.775391" xlink:href="#ArialMT-116"/>
     <use x="572.558594" xlink:href="#ArialMT-101"/>
     <use x="628.173828" xlink:href="#ArialMT-114"/>
     <use x="661.474609" xlink:href="#ArialMT-112"/>
     <use x="717.089844" xlink:href="#ArialMT-114"/>
     <use x="750.390625" xlink:href="#ArialMT-105"/>
     <use x="772.607422" xlink:href="#ArialMT-115"/>
     <use x="822.607422" xlink:href="#ArialMT-101"/>
     <use x="878.222656" xlink:href="#ArialMT-32"/>
     <use x="906.005859" xlink:href="#ArialMT-115"/>
     <use x="956.005859" xlink:href="#ArialMT-101"/>
     <use x="1011.621094" xlink:href="#ArialMT-99"/>
     <use x="1061.621094" xlink:href="#ArialMT-116"/>
     <use x="1089.404297" xlink:href="#ArialMT-111"/>
     <use x="1145.019531" xlink:href="#ArialMT-114"/>
    </g>
   </g>
   <g id="text_14">
    <!-- Rest of the world (ROW) -->
    <defs>
     <path d="M 7.859375 0 
L 7.859375 71.578125 
L 39.59375 71.578125 
Q 49.171875 71.578125 54.140625 69.640625 
Q 59.125 67.71875 62.109375 62.828125 
Q 65.09375 57.953125 65.09375 52.046875 
Q 65.09375 44.4375 60.15625 39.203125 
Q 55.21875 33.984375 44.921875 32.5625 
Q 48.6875 30.765625 50.640625 29 
Q 54.78125 25.203125 58.5 19.484375 
L 70.953125 0 
L 59.03125 0 
L 49.5625 14.890625 
Q 45.40625 21.34375 42.71875 24.75 
Q 40.046875 28.171875 37.921875 29.53125 
Q 35.796875 30.90625 33.59375 31.453125 
Q 31.984375 31.78125 28.328125 31.78125 
L 17.328125 31.78125 
L 17.328125 0 
z
M 17.328125 39.984375 
L 37.703125 39.984375 
Q 44.1875 39.984375 47.84375 41.328125 
Q 51.515625 42.671875 53.421875 45.625 
Q 55.328125 48.578125 55.328125 52.046875 
Q 55.328125 57.125 51.640625 60.390625 
Q 47.953125 63.671875 39.984375 63.671875 
L 17.328125 63.671875 
z
" id="ArialMT-82"/>
     <path d="M 6.59375 0 
L 6.59375 71.578125 
L 15.375 71.578125 
L 15.375 45.90625 
Q 21.53125 53.03125 30.90625 53.03125 
Q 36.671875 53.03125 40.921875 50.75 
Q 45.171875 48.484375 47 44.484375 
Q 48.828125 40.484375 48.828125 32.859375 
L 48.828125 0 
L 40.046875 0 
L 40.046875 32.859375 
Q 40.046875 39.453125 37.1875 42.453125 
Q 34.328125 45.453125 29.109375 45.453125 
Q 25.203125 45.453125 21.75 43.421875 
Q 18.3125 41.40625 16.84375 37.9375 
Q 15.375 34.46875 15.375 28.375 
L 15.375 0 
z
" id="ArialMT-104"/>
     <path d="M 16.15625 0 
L 0.296875 51.859375 
L 9.375 51.859375 
L 17.625 21.921875 
L 20.703125 10.796875 
Q 20.90625 11.625 23.390625 21.484375 
L 31.640625 51.859375 
L 40.671875 51.859375 
L 48.4375 21.78125 
L 51.03125 11.859375 
L 54 21.875 
L 62.890625 51.859375 
L 71.4375 51.859375 
L 55.21875 0 
L 46.09375 0 
L 37.84375 31.0625 
L 35.84375 39.890625 
L 25.34375 0 
z
" id="ArialMT-119"/>
     <path d="M 23.390625 -21.046875 
Q 16.109375 -11.859375 11.078125 0.4375 
Q 6.0625 12.75 6.0625 25.921875 
Q 6.0625 37.546875 9.8125 48.1875 
Q 14.203125 60.546875 23.390625 72.796875 
L 29.6875 72.796875 
Q 23.78125 62.640625 21.875 58.296875 
Q 18.890625 51.5625 17.1875 44.234375 
Q 15.09375 35.109375 15.09375 25.875 
Q 15.09375 2.390625 29.6875 -21.046875 
z
" id="ArialMT-40"/>
     <path d="M 4.828125 34.859375 
Q 4.828125 52.6875 14.390625 62.765625 
Q 23.96875 72.859375 39.109375 72.859375 
Q 49.03125 72.859375 56.984375 68.109375 
Q 64.9375 63.375 69.109375 54.90625 
Q 73.296875 46.4375 73.296875 35.6875 
Q 73.296875 24.8125 68.890625 16.21875 
Q 64.5 7.625 56.4375 3.203125 
Q 48.390625 -1.21875 39.0625 -1.21875 
Q 28.953125 -1.21875 20.984375 3.65625 
Q 13.03125 8.546875 8.921875 16.984375 
Q 4.828125 25.4375 4.828125 34.859375 
z
M 14.59375 34.71875 
Q 14.59375 21.78125 21.546875 14.328125 
Q 28.515625 6.890625 39.015625 6.890625 
Q 49.703125 6.890625 56.609375 14.40625 
Q 63.53125 21.921875 63.53125 35.75 
Q 63.53125 44.484375 60.578125 51 
Q 57.625 57.515625 51.921875 61.109375 
Q 46.234375 64.703125 39.15625 64.703125 
Q 29.109375 64.703125 21.84375 57.78125 
Q 14.59375 50.875 14.59375 34.71875 
z
" id="ArialMT-79"/>
     <path d="M 20.21875 0 
L 1.21875 71.578125 
L 10.9375 71.578125 
L 21.828125 24.65625 
Q 23.578125 17.28125 24.859375 10.015625 
Q 27.59375 21.484375 28.078125 23.25 
L 41.703125 71.578125 
L 53.125 71.578125 
L 63.375 35.359375 
Q 67.234375 21.875 68.953125 10.015625 
Q 70.3125 16.796875 72.515625 25.59375 
L 83.734375 71.578125 
L 93.265625 71.578125 
L 73.640625 0 
L 64.5 0 
L 49.421875 54.546875 
Q 47.515625 61.375 47.171875 62.9375 
Q 46.046875 58.015625 45.0625 54.546875 
L 29.890625 0 
z
" id="ArialMT-87"/>
     <path d="M 12.359375 -21.046875 
L 6.0625 -21.046875 
Q 20.65625 2.390625 20.65625 25.875 
Q 20.65625 35.0625 18.5625 44.09375 
Q 16.890625 51.421875 13.921875 58.15625 
Q 12.015625 62.546875 6.0625 72.796875 
L 12.359375 72.796875 
Q 21.53125 60.546875 25.921875 48.1875 
Q 29.6875 37.546875 29.6875 25.921875 
Q 29.6875 12.75 24.625 0.4375 
Q 19.578125 -11.859375 12.359375 -21.046875 
z
" id="ArialMT-41"/>
    </defs>
    <g style="fill:#bb60d5;" transform="translate(375.421318 184.932993)scale(0.14 -0.14)">
     <use xlink:href="#ArialMT-82"/>
     <use x="72.216797" xlink:href="#ArialMT-101"/>
     <use x="127.832031" xlink:href="#ArialMT-115"/>
     <use x="177.832031" xlink:href="#ArialMT-116"/>
     <use x="205.615234" xlink:href="#ArialMT-32"/>
     <use x="233.398438" xlink:href="#ArialMT-111"/>
     <use x="289.013672" xlink:href="#ArialMT-102"/>
     <use x="316.796875" xlink:href="#ArialMT-32"/>
     <use x="344.580078" xlink:href="#ArialMT-116"/>
     <use x="372.363281" xlink:href="#ArialMT-104"/>
     <use x="427.978516" xlink:href="#ArialMT-101"/>
     <use x="483.59375" xlink:href="#ArialMT-32"/>
     <use x="511.376953" xlink:href="#ArialMT-119"/>
     <use x="583.59375" xlink:href="#ArialMT-111"/>
     <use x="639.208984" xlink:href="#ArialMT-114"/>
     <use x="672.509766" xlink:href="#ArialMT-108"/>
     <use x="694.726562" xlink:href="#ArialMT-100"/>
     <use x="750.341797" xlink:href="#ArialMT-32"/>
     <use x="778.125" xlink:href="#ArialMT-40"/>
     <use x="811.425781" xlink:href="#ArialMT-82"/>
     <use x="883.642578" xlink:href="#ArialMT-79"/>
     <use x="961.425781" xlink:href="#ArialMT-87"/>
     <use x="1055.810547" xlink:href="#ArialMT-41"/>
    </g>
   </g>
   <g id="text_15">
    <!-- Government sector -->
    <defs>
     <path d="M 41.21875 28.078125 
L 41.21875 36.46875 
L 71.53125 36.53125 
L 71.53125 9.96875 
Q 64.546875 4.390625 57.125 1.578125 
Q 49.703125 -1.21875 41.890625 -1.21875 
Q 31.34375 -1.21875 22.71875 3.296875 
Q 14.109375 7.8125 9.71875 16.359375 
Q 5.328125 24.90625 5.328125 35.453125 
Q 5.328125 45.90625 9.6875 54.953125 
Q 14.0625 64.015625 22.265625 68.40625 
Q 30.46875 72.796875 41.15625 72.796875 
Q 48.921875 72.796875 55.1875 70.28125 
Q 61.46875 67.78125 65.03125 63.28125 
Q 68.609375 58.796875 70.453125 51.5625 
L 61.921875 49.21875 
Q 60.296875 54.6875 57.90625 57.8125 
Q 55.515625 60.9375 51.0625 62.8125 
Q 46.625 64.703125 41.21875 64.703125 
Q 34.71875 64.703125 29.984375 62.71875 
Q 25.25 60.75 22.34375 57.515625 
Q 19.4375 54.296875 17.828125 50.4375 
Q 15.09375 43.796875 15.09375 36.03125 
Q 15.09375 26.46875 18.390625 20.015625 
Q 21.6875 13.578125 27.984375 10.453125 
Q 34.28125 7.328125 41.359375 7.328125 
Q 47.515625 7.328125 53.375 9.6875 
Q 59.234375 12.0625 62.25 14.75 
L 62.25 28.078125 
z
" id="ArialMT-71"/>
     <path d="M 21 0 
L 1.265625 51.859375 
L 10.546875 51.859375 
L 21.6875 20.796875 
Q 23.484375 15.765625 25 10.359375 
Q 26.171875 14.453125 28.265625 20.21875 
L 39.796875 51.859375 
L 48.828125 51.859375 
L 29.203125 0 
z
" id="ArialMT-118"/>
     <path d="M 6.59375 0 
L 6.59375 51.859375 
L 14.453125 51.859375 
L 14.453125 44.578125 
Q 16.890625 48.390625 20.9375 50.703125 
Q 25 53.03125 30.171875 53.03125 
Q 35.9375 53.03125 39.625 50.640625 
Q 43.3125 48.25 44.828125 43.953125 
Q 50.984375 53.03125 60.84375 53.03125 
Q 68.5625 53.03125 72.703125 48.75 
Q 76.859375 44.484375 76.859375 35.59375 
L 76.859375 0 
L 68.109375 0 
L 68.109375 32.671875 
Q 68.109375 37.9375 67.25 40.25 
Q 66.40625 42.578125 64.15625 43.984375 
Q 61.921875 45.40625 58.890625 45.40625 
Q 53.421875 45.40625 49.796875 41.765625 
Q 46.1875 38.140625 46.1875 30.125 
L 46.1875 0 
L 37.40625 0 
L 37.40625 33.6875 
Q 37.40625 39.546875 35.25 42.46875 
Q 33.109375 45.40625 28.21875 45.40625 
Q 24.515625 45.40625 21.359375 43.453125 
Q 18.21875 41.5 16.796875 37.734375 
Q 15.375 33.984375 15.375 26.90625 
L 15.375 0 
z
" id="ArialMT-109"/>
    </defs>
    <g style="fill:#f47915;" transform="translate(375.421318 163.972978)scale(0.14 -0.14)">
     <use xlink:href="#ArialMT-71"/>
     <use x="77.783203" xlink:href="#ArialMT-111"/>
     <use x="133.398438" xlink:href="#ArialMT-118"/>
     <use x="183.398438" xlink:href="#ArialMT-101"/>
     <use x="239.013672" xlink:href="#ArialMT-114"/>
     <use x="272.314453" xlink:href="#ArialMT-110"/>
     <use x="327.929688" xlink:href="#ArialMT-109"/>
     <use x="411.230469" xlink:href="#ArialMT-101"/>
     <use x="466.845703" xlink:href="#ArialMT-110"/>
     <use x="522.460938" xlink:href="#ArialMT-116"/>
     <use x="550.244141" xlink:href="#ArialMT-32"/>
     <use x="578.027344" xlink:href="#ArialMT-115"/>
     <use x="628.027344" xlink:href="#ArialMT-101"/>
     <use x="683.642578" xlink:href="#ArialMT-99"/>
     <use x="733.642578" xlink:href="#ArialMT-116"/>
     <use x="761.425781" xlink:href="#ArialMT-111"/>
     <use x="817.041016" xlink:href="#ArialMT-114"/>
    </g>
   </g>
   <g id="text_16">
    <!-- Higher education sector -->
    <defs>
     <path d="M 8.015625 0 
L 8.015625 71.578125 
L 17.484375 71.578125 
L 17.484375 42.1875 
L 54.6875 42.1875 
L 54.6875 71.578125 
L 64.15625 71.578125 
L 64.15625 0 
L 54.6875 0 
L 54.6875 33.734375 
L 17.484375 33.734375 
L 17.484375 0 
z
" id="ArialMT-72"/>
    </defs>
    <g style="fill:#06ab54;" transform="translate(375.421318 217.598212)scale(0.14 -0.14)">
     <use xlink:href="#ArialMT-72"/>
     <use x="72.216797" xlink:href="#ArialMT-105"/>
     <use x="94.433594" xlink:href="#ArialMT-103"/>
     <use x="150.048828" xlink:href="#ArialMT-104"/>
     <use x="205.664062" xlink:href="#ArialMT-101"/>
     <use x="261.279297" xlink:href="#ArialMT-114"/>
     <use x="294.580078" xlink:href="#ArialMT-32"/>
     <use x="322.363281" xlink:href="#ArialMT-101"/>
     <use x="377.978516" xlink:href="#ArialMT-100"/>
     <use x="433.59375" xlink:href="#ArialMT-117"/>
     <use x="489.208984" xlink:href="#ArialMT-99"/>
     <use x="539.208984" xlink:href="#ArialMT-97"/>
     <use x="594.824219" xlink:href="#ArialMT-116"/>
     <use x="622.607422" xlink:href="#ArialMT-105"/>
     <use x="644.824219" xlink:href="#ArialMT-111"/>
     <use x="700.439453" xlink:href="#ArialMT-110"/>
     <use x="756.054688" xlink:href="#ArialMT-32"/>
     <use x="783.837891" xlink:href="#ArialMT-115"/>
     <use x="833.837891" xlink:href="#ArialMT-101"/>
     <use x="889.453125" xlink:href="#ArialMT-99"/>
     <use x="939.453125" xlink:href="#ArialMT-116"/>
     <use x="967.236328" xlink:href="#ArialMT-111"/>
     <use x="1022.851562" xlink:href="#ArialMT-114"/>
    </g>
   </g>
   <g id="text_17">
    <!-- Private non-profit sector -->
    <defs>
     <path d="M 7.71875 0 
L 7.71875 71.578125 
L 34.71875 71.578125 
Q 41.84375 71.578125 45.609375 70.90625 
Q 50.875 70.015625 54.4375 67.546875 
Q 58.015625 65.09375 60.1875 60.640625 
Q 62.359375 56.203125 62.359375 50.875 
Q 62.359375 41.75 56.546875 35.421875 
Q 50.734375 29.109375 35.546875 29.109375 
L 17.1875 29.109375 
L 17.1875 0 
z
M 17.1875 37.546875 
L 35.6875 37.546875 
Q 44.875 37.546875 48.734375 40.96875 
Q 52.59375 44.390625 52.59375 50.59375 
Q 52.59375 55.078125 50.3125 58.265625 
Q 48.046875 61.46875 44.34375 62.5 
Q 41.9375 63.140625 35.5 63.140625 
L 17.1875 63.140625 
z
" id="ArialMT-80"/>
    </defs>
    <g style="fill:#002070;" transform="translate(375.421318 205.846058)scale(0.14 -0.14)">
     <use xlink:href="#ArialMT-80"/>
     <use x="66.699219" xlink:href="#ArialMT-114"/>
     <use x="100" xlink:href="#ArialMT-105"/>
     <use x="122.216797" xlink:href="#ArialMT-118"/>
     <use x="172.216797" xlink:href="#ArialMT-97"/>
     <use x="227.832031" xlink:href="#ArialMT-116"/>
     <use x="255.615234" xlink:href="#ArialMT-101"/>
     <use x="311.230469" xlink:href="#ArialMT-32"/>
     <use x="339.013672" xlink:href="#ArialMT-110"/>
     <use x="394.628906" xlink:href="#ArialMT-111"/>
     <use x="450.244141" xlink:href="#ArialMT-110"/>
     <use x="505.859375" xlink:href="#ArialMT-45"/>
     <use x="539.160156" xlink:href="#ArialMT-112"/>
     <use x="594.775391" xlink:href="#ArialMT-114"/>
     <use x="628.076172" xlink:href="#ArialMT-111"/>
     <use x="683.691406" xlink:href="#ArialMT-102"/>
     <use x="711.474609" xlink:href="#ArialMT-105"/>
     <use x="733.691406" xlink:href="#ArialMT-116"/>
     <use x="761.474609" xlink:href="#ArialMT-32"/>
     <use x="789.257812" xlink:href="#ArialMT-115"/>
     <use x="839.257812" xlink:href="#ArialMT-101"/>
     <use x="894.873047" xlink:href="#ArialMT-99"/>
     <use x="944.873047" xlink:href="#ArialMT-116"/>
     <use x="972.65625" xlink:href="#ArialMT-111"/>
     <use x="1028.271484" xlink:href="#ArialMT-114"/>
    </g>
   </g>
  </g>
 </g>
 <defs>
  <clipPath id="p5f3e874b4e">
   <rect height="217.44" width="334.8" x="55.8395" y="7.507926"/>
  </clipPath>
 </defs>
</svg>
