<?xml version="1.0" encoding="utf-8" standalone="no"?>
<!DOCTYPE svg PUBLIC "-//W3C//DTD SVG 1.1//EN"
  "http://www.w3.org/Graphics/SVG/1.1/DTD/svg11.dtd">
<!-- Created with matplotlib (https://matplotlib.org/) -->
<svg height="387.868625pt" version="1.1" viewBox="0 0 512.37425 387.868625" width="512.37425pt" xmlns="http://www.w3.org/2000/svg" xmlns:xlink="http://www.w3.org/1999/xlink">
 <defs>
  <style type="text/css">
*{stroke-linecap:butt;stroke-linejoin:round;white-space:pre;}
  </style>
 </defs>
 <g id="figure_1">
  <g id="patch_1">
   <path d="M 0 387.868625 
L 512.37425 387.868625 
L 512.37425 0 
L 0 0 
z
" style="fill:#ffffff;"/>
  </g>
  <g id="axes_1">
   <g id="patch_2">
    <path d="M 58.77425 333.36 
L 505.17425 333.36 
L 505.17425 7.2 
L 58.77425 7.2 
z
" style="fill:#ffffff;"/>
   </g>
   <g id="matplotlib.axis_1">
    <g id="xtick_1">
     <g id="line2d_1">
      <path clip-path="url(#p4971ba445f)" d="M 79.444624 333.36 
L 79.444624 7.2 
" style="fill:none;stroke:#cccccc;stroke-linecap:round;stroke-opacity:0.9;"/>
     </g>
     <g id="text_1">
      <!-- 0 -->
      <defs>
       <path d="M 31.78125 66.40625 
Q 24.171875 66.40625 20.328125 58.90625 
Q 16.5 51.421875 16.5 36.375 
Q 16.5 21.390625 20.328125 13.890625 
Q 24.171875 6.390625 31.78125 6.390625 
Q 39.453125 6.390625 43.28125 13.890625 
Q 47.125 21.390625 47.125 36.375 
Q 47.125 51.421875 43.28125 58.90625 
Q 39.453125 66.40625 31.78125 66.40625 
z
M 31.78125 74.21875 
Q 44.046875 74.21875 50.515625 64.515625 
Q 56.984375 54.828125 56.984375 36.375 
Q 56.984375 17.96875 50.515625 8.265625 
Q 44.046875 -1.421875 31.78125 -1.421875 
Q 19.53125 -1.421875 13.0625 8.265625 
Q 6.59375 17.96875 6.59375 36.375 
Q 6.59375 54.828125 13.0625 64.515625 
Q 19.53125 74.21875 31.78125 74.21875 
z
" id="DejaVuSans-48"/>
      </defs>
      <g style="fill:#262626;" transform="translate(74.990874 357.497812)scale(0.14 -0.14)">
       <use xlink:href="#DejaVuSans-48"/>
      </g>
     </g>
    </g>
    <g id="xtick_2">
     <g id="line2d_2">
      <path clip-path="url(#p4971ba445f)" d="M 129.551026 333.36 
L 129.551026 7.2 
" style="fill:none;stroke:#cccccc;stroke-linecap:round;stroke-opacity:0.9;"/>
     </g>
     <g id="text_2">
      <!-- 20 -->
      <defs>
       <path d="M 19.1875 8.296875 
L 53.609375 8.296875 
L 53.609375 0 
L 7.328125 0 
L 7.328125 8.296875 
Q 12.9375 14.109375 22.625 23.890625 
Q 32.328125 33.6875 34.8125 36.53125 
Q 39.546875 41.84375 41.421875 45.53125 
Q 43.3125 49.21875 43.3125 52.78125 
Q 43.3125 58.59375 39.234375 62.25 
Q 35.15625 65.921875 28.609375 65.921875 
Q 23.96875 65.921875 18.8125 64.3125 
Q 13.671875 62.703125 7.8125 59.421875 
L 7.8125 69.390625 
Q 13.765625 71.78125 18.9375 73 
Q 24.125 74.21875 28.421875 74.21875 
Q 39.75 74.21875 46.484375 68.546875 
Q 53.21875 62.890625 53.21875 53.421875 
Q 53.21875 48.921875 51.53125 44.890625 
Q 49.859375 40.875 45.40625 35.40625 
Q 44.1875 33.984375 37.640625 27.21875 
Q 31.109375 20.453125 19.1875 8.296875 
z
" id="DejaVuSans-50"/>
      </defs>
      <g style="fill:#262626;" transform="translate(120.643526 357.497812)scale(0.14 -0.14)">
       <use xlink:href="#DejaVuSans-50"/>
       <use x="63.623047" xlink:href="#DejaVuSans-48"/>
      </g>
     </g>
    </g>
    <g id="xtick_3">
     <g id="line2d_3">
      <path clip-path="url(#p4971ba445f)" d="M 179.657429 333.36 
L 179.657429 7.2 
" style="fill:none;stroke:#cccccc;stroke-linecap:round;stroke-opacity:0.9;"/>
     </g>
     <g id="text_3">
      <!-- 40 -->
      <defs>
       <path d="M 37.796875 64.3125 
L 12.890625 25.390625 
L 37.796875 25.390625 
z
M 35.203125 72.90625 
L 47.609375 72.90625 
L 47.609375 25.390625 
L 58.015625 25.390625 
L 58.015625 17.1875 
L 47.609375 17.1875 
L 47.609375 0 
L 37.796875 0 
L 37.796875 17.1875 
L 4.890625 17.1875 
L 4.890625 26.703125 
z
" id="DejaVuSans-52"/>
      </defs>
      <g style="fill:#262626;" transform="translate(170.749929 357.497812)scale(0.14 -0.14)">
       <use xlink:href="#DejaVuSans-52"/>
       <use x="63.623047" xlink:href="#DejaVuSans-48"/>
      </g>
     </g>
    </g>
    <g id="xtick_4">
     <g id="line2d_4">
      <path clip-path="url(#p4971ba445f)" d="M 229.763832 333.36 
L 229.763832 7.2 
" style="fill:none;stroke:#cccccc;stroke-linecap:round;stroke-opacity:0.9;"/>
     </g>
     <g id="text_4">
      <!-- 60 -->
      <defs>
       <path d="M 33.015625 40.375 
Q 26.375 40.375 22.484375 35.828125 
Q 18.609375 31.296875 18.609375 23.390625 
Q 18.609375 15.53125 22.484375 10.953125 
Q 26.375 6.390625 33.015625 6.390625 
Q 39.65625 6.390625 43.53125 10.953125 
Q 47.40625 15.53125 47.40625 23.390625 
Q 47.40625 31.296875 43.53125 35.828125 
Q 39.65625 40.375 33.015625 40.375 
z
M 52.59375 71.296875 
L 52.59375 62.3125 
Q 48.875 64.0625 45.09375 64.984375 
Q 41.3125 65.921875 37.59375 65.921875 
Q 27.828125 65.921875 22.671875 59.328125 
Q 17.53125 52.734375 16.796875 39.40625 
Q 19.671875 43.65625 24.015625 45.921875 
Q 28.375 48.1875 33.59375 48.1875 
Q 44.578125 48.1875 50.953125 41.515625 
Q 57.328125 34.859375 57.328125 23.390625 
Q 57.328125 12.15625 50.6875 5.359375 
Q 44.046875 -1.421875 33.015625 -1.421875 
Q 20.359375 -1.421875 13.671875 8.265625 
Q 6.984375 17.96875 6.984375 36.375 
Q 6.984375 53.65625 15.1875 63.9375 
Q 23.390625 74.21875 37.203125 74.21875 
Q 40.921875 74.21875 44.703125 73.484375 
Q 48.484375 72.75 52.59375 71.296875 
z
" id="DejaVuSans-54"/>
      </defs>
      <g style="fill:#262626;" transform="translate(220.856332 357.497812)scale(0.14 -0.14)">
       <use xlink:href="#DejaVuSans-54"/>
       <use x="63.623047" xlink:href="#DejaVuSans-48"/>
      </g>
     </g>
    </g>
    <g id="xtick_5">
     <g id="line2d_5">
      <path clip-path="url(#p4971ba445f)" d="M 279.870234 333.36 
L 279.870234 7.2 
" style="fill:none;stroke:#cccccc;stroke-linecap:round;stroke-opacity:0.9;"/>
     </g>
     <g id="text_5">
      <!-- 80 -->
      <defs>
       <path d="M 31.78125 34.625 
Q 24.75 34.625 20.71875 30.859375 
Q 16.703125 27.09375 16.703125 20.515625 
Q 16.703125 13.921875 20.71875 10.15625 
Q 24.75 6.390625 31.78125 6.390625 
Q 38.8125 6.390625 42.859375 10.171875 
Q 46.921875 13.96875 46.921875 20.515625 
Q 46.921875 27.09375 42.890625 30.859375 
Q 38.875 34.625 31.78125 34.625 
z
M 21.921875 38.8125 
Q 15.578125 40.375 12.03125 44.71875 
Q 8.5 49.078125 8.5 55.328125 
Q 8.5 64.0625 14.71875 69.140625 
Q 20.953125 74.21875 31.78125 74.21875 
Q 42.671875 74.21875 48.875 69.140625 
Q 55.078125 64.0625 55.078125 55.328125 
Q 55.078125 49.078125 51.53125 44.71875 
Q 48 40.375 41.703125 38.8125 
Q 48.828125 37.15625 52.796875 32.3125 
Q 56.78125 27.484375 56.78125 20.515625 
Q 56.78125 9.90625 50.3125 4.234375 
Q 43.84375 -1.421875 31.78125 -1.421875 
Q 19.734375 -1.421875 13.25 4.234375 
Q 6.78125 9.90625 6.78125 20.515625 
Q 6.78125 27.484375 10.78125 32.3125 
Q 14.796875 37.15625 21.921875 38.8125 
z
M 18.3125 54.390625 
Q 18.3125 48.734375 21.84375 45.5625 
Q 25.390625 42.390625 31.78125 42.390625 
Q 38.140625 42.390625 41.71875 45.5625 
Q 45.3125 48.734375 45.3125 54.390625 
Q 45.3125 60.0625 41.71875 63.234375 
Q 38.140625 66.40625 31.78125 66.40625 
Q 25.390625 66.40625 21.84375 63.234375 
Q 18.3125 60.0625 18.3125 54.390625 
z
" id="DejaVuSans-56"/>
      </defs>
      <g style="fill:#262626;" transform="translate(270.962734 357.497812)scale(0.14 -0.14)">
       <use xlink:href="#DejaVuSans-56"/>
       <use x="63.623047" xlink:href="#DejaVuSans-48"/>
      </g>
     </g>
    </g>
    <g id="xtick_6">
     <g id="line2d_6">
      <path clip-path="url(#p4971ba445f)" d="M 329.976637 333.36 
L 329.976637 7.2 
" style="fill:none;stroke:#cccccc;stroke-linecap:round;stroke-opacity:0.9;"/>
     </g>
     <g id="text_6">
      <!-- 100 -->
      <defs>
       <path d="M 12.40625 8.296875 
L 28.515625 8.296875 
L 28.515625 63.921875 
L 10.984375 60.40625 
L 10.984375 69.390625 
L 28.421875 72.90625 
L 38.28125 72.90625 
L 38.28125 8.296875 
L 54.390625 8.296875 
L 54.390625 0 
L 12.40625 0 
z
" id="DejaVuSans-49"/>
      </defs>
      <g style="fill:#262626;" transform="translate(316.615387 357.497812)scale(0.14 -0.14)">
       <use xlink:href="#DejaVuSans-49"/>
       <use x="63.623047" xlink:href="#DejaVuSans-48"/>
       <use x="127.246094" xlink:href="#DejaVuSans-48"/>
      </g>
     </g>
    </g>
    <g id="xtick_7">
     <g id="line2d_7">
      <path clip-path="url(#p4971ba445f)" d="M 380.08304 333.36 
L 380.08304 7.2 
" style="fill:none;stroke:#cccccc;stroke-linecap:round;stroke-opacity:0.9;"/>
     </g>
     <g id="text_7">
      <!-- 120 -->
      <g style="fill:#262626;" transform="translate(366.72179 357.497812)scale(0.14 -0.14)">
       <use xlink:href="#DejaVuSans-49"/>
       <use x="63.623047" xlink:href="#DejaVuSans-50"/>
       <use x="127.246094" xlink:href="#DejaVuSans-48"/>
      </g>
     </g>
    </g>
    <g id="xtick_8">
     <g id="line2d_8">
      <path clip-path="url(#p4971ba445f)" d="M 430.189442 333.36 
L 430.189442 7.2 
" style="fill:none;stroke:#cccccc;stroke-linecap:round;stroke-opacity:0.9;"/>
     </g>
     <g id="text_8">
      <!-- 140 -->
      <g style="fill:#262626;" transform="translate(416.828192 357.497812)scale(0.14 -0.14)">
       <use xlink:href="#DejaVuSans-49"/>
       <use x="63.623047" xlink:href="#DejaVuSans-52"/>
       <use x="127.246094" xlink:href="#DejaVuSans-48"/>
      </g>
     </g>
    </g>
    <g id="xtick_9">
     <g id="line2d_9">
      <path clip-path="url(#p4971ba445f)" d="M 480.295845 333.36 
L 480.295845 7.2 
" style="fill:none;stroke:#cccccc;stroke-linecap:round;stroke-opacity:0.9;"/>
     </g>
     <g id="text_9">
      <!-- 160 -->
      <g style="fill:#262626;" transform="translate(466.934595 357.497812)scale(0.14 -0.14)">
       <use xlink:href="#DejaVuSans-49"/>
       <use x="63.623047" xlink:href="#DejaVuSans-54"/>
       <use x="127.246094" xlink:href="#DejaVuSans-48"/>
      </g>
     </g>
    </g>
    <g id="text_10">
     <!-- Capital stock per capita, thousand 2011US$ -->
     <defs>
      <path d="M 64.40625 67.28125 
L 64.40625 56.890625 
Q 59.421875 61.53125 53.78125 63.8125 
Q 48.140625 66.109375 41.796875 66.109375 
Q 29.296875 66.109375 22.65625 58.46875 
Q 16.015625 50.828125 16.015625 36.375 
Q 16.015625 21.96875 22.65625 14.328125 
Q 29.296875 6.6875 41.796875 6.6875 
Q 48.140625 6.6875 53.78125 8.984375 
Q 59.421875 11.28125 64.40625 15.921875 
L 64.40625 5.609375 
Q 59.234375 2.09375 53.4375 0.328125 
Q 47.65625 -1.421875 41.21875 -1.421875 
Q 24.65625 -1.421875 15.125 8.703125 
Q 5.609375 18.84375 5.609375 36.375 
Q 5.609375 53.953125 15.125 64.078125 
Q 24.65625 74.21875 41.21875 74.21875 
Q 47.75 74.21875 53.53125 72.484375 
Q 59.328125 70.75 64.40625 67.28125 
z
" id="DejaVuSans-67"/>
      <path d="M 34.28125 27.484375 
Q 23.390625 27.484375 19.1875 25 
Q 14.984375 22.515625 14.984375 16.5 
Q 14.984375 11.71875 18.140625 8.90625 
Q 21.296875 6.109375 26.703125 6.109375 
Q 34.1875 6.109375 38.703125 11.40625 
Q 43.21875 16.703125 43.21875 25.484375 
L 43.21875 27.484375 
z
M 52.203125 31.203125 
L 52.203125 0 
L 43.21875 0 
L 43.21875 8.296875 
Q 40.140625 3.328125 35.546875 0.953125 
Q 30.953125 -1.421875 24.3125 -1.421875 
Q 15.921875 -1.421875 10.953125 3.296875 
Q 6 8.015625 6 15.921875 
Q 6 25.140625 12.171875 29.828125 
Q 18.359375 34.515625 30.609375 34.515625 
L 43.21875 34.515625 
L 43.21875 35.40625 
Q 43.21875 41.609375 39.140625 45 
Q 35.0625 48.390625 27.6875 48.390625 
Q 23 48.390625 18.546875 47.265625 
Q 14.109375 46.140625 10.015625 43.890625 
L 10.015625 52.203125 
Q 14.9375 54.109375 19.578125 55.046875 
Q 24.21875 56 28.609375 56 
Q 40.484375 56 46.34375 49.84375 
Q 52.203125 43.703125 52.203125 31.203125 
z
" id="DejaVuSans-97"/>
      <path d="M 18.109375 8.203125 
L 18.109375 -20.796875 
L 9.078125 -20.796875 
L 9.078125 54.6875 
L 18.109375 54.6875 
L 18.109375 46.390625 
Q 20.953125 51.265625 25.265625 53.625 
Q 29.59375 56 35.59375 56 
Q 45.5625 56 51.78125 48.09375 
Q 58.015625 40.1875 58.015625 27.296875 
Q 58.015625 14.40625 51.78125 6.484375 
Q 45.5625 -1.421875 35.59375 -1.421875 
Q 29.59375 -1.421875 25.265625 0.953125 
Q 20.953125 3.328125 18.109375 8.203125 
z
M 48.6875 27.296875 
Q 48.6875 37.203125 44.609375 42.84375 
Q 40.53125 48.484375 33.40625 48.484375 
Q 26.265625 48.484375 22.1875 42.84375 
Q 18.109375 37.203125 18.109375 27.296875 
Q 18.109375 17.390625 22.1875 11.75 
Q 26.265625 6.109375 33.40625 6.109375 
Q 40.53125 6.109375 44.609375 11.75 
Q 48.6875 17.390625 48.6875 27.296875 
z
" id="DejaVuSans-112"/>
      <path d="M 9.421875 54.6875 
L 18.40625 54.6875 
L 18.40625 0 
L 9.421875 0 
z
M 9.421875 75.984375 
L 18.40625 75.984375 
L 18.40625 64.59375 
L 9.421875 64.59375 
z
" id="DejaVuSans-105"/>
      <path d="M 18.3125 70.21875 
L 18.3125 54.6875 
L 36.8125 54.6875 
L 36.8125 47.703125 
L 18.3125 47.703125 
L 18.3125 18.015625 
Q 18.3125 11.328125 20.140625 9.421875 
Q 21.96875 7.515625 27.59375 7.515625 
L 36.8125 7.515625 
L 36.8125 0 
L 27.59375 0 
Q 17.1875 0 13.234375 3.875 
Q 9.28125 7.765625 9.28125 18.015625 
L 9.28125 47.703125 
L 2.6875 47.703125 
L 2.6875 54.6875 
L 9.28125 54.6875 
L 9.28125 70.21875 
z
" id="DejaVuSans-116"/>
      <path d="M 9.421875 75.984375 
L 18.40625 75.984375 
L 18.40625 0 
L 9.421875 0 
z
" id="DejaVuSans-108"/>
      <path id="DejaVuSans-32"/>
      <path d="M 44.28125 53.078125 
L 44.28125 44.578125 
Q 40.484375 46.53125 36.375 47.5 
Q 32.28125 48.484375 27.875 48.484375 
Q 21.1875 48.484375 17.84375 46.4375 
Q 14.5 44.390625 14.5 40.28125 
Q 14.5 37.15625 16.890625 35.375 
Q 19.28125 33.59375 26.515625 31.984375 
L 29.59375 31.296875 
Q 39.15625 29.25 43.1875 25.515625 
Q 47.21875 21.78125 47.21875 15.09375 
Q 47.21875 7.46875 41.1875 3.015625 
Q 35.15625 -1.421875 24.609375 -1.421875 
Q 20.21875 -1.421875 15.453125 -0.5625 
Q 10.6875 0.296875 5.421875 2 
L 5.421875 11.28125 
Q 10.40625 8.6875 15.234375 7.390625 
Q 20.0625 6.109375 24.8125 6.109375 
Q 31.15625 6.109375 34.5625 8.28125 
Q 37.984375 10.453125 37.984375 14.40625 
Q 37.984375 18.0625 35.515625 20.015625 
Q 33.0625 21.96875 24.703125 23.78125 
L 21.578125 24.515625 
Q 13.234375 26.265625 9.515625 29.90625 
Q 5.8125 33.546875 5.8125 39.890625 
Q 5.8125 47.609375 11.28125 51.796875 
Q 16.75 56 26.8125 56 
Q 31.78125 56 36.171875 55.265625 
Q 40.578125 54.546875 44.28125 53.078125 
z
" id="DejaVuSans-115"/>
      <path d="M 30.609375 48.390625 
Q 23.390625 48.390625 19.1875 42.75 
Q 14.984375 37.109375 14.984375 27.296875 
Q 14.984375 17.484375 19.15625 11.84375 
Q 23.34375 6.203125 30.609375 6.203125 
Q 37.796875 6.203125 41.984375 11.859375 
Q 46.1875 17.53125 46.1875 27.296875 
Q 46.1875 37.015625 41.984375 42.703125 
Q 37.796875 48.390625 30.609375 48.390625 
z
M 30.609375 56 
Q 42.328125 56 49.015625 48.375 
Q 55.71875 40.765625 55.71875 27.296875 
Q 55.71875 13.875 49.015625 6.21875 
Q 42.328125 -1.421875 30.609375 -1.421875 
Q 18.84375 -1.421875 12.171875 6.21875 
Q 5.515625 13.875 5.515625 27.296875 
Q 5.515625 40.765625 12.171875 48.375 
Q 18.84375 56 30.609375 56 
z
" id="DejaVuSans-111"/>
      <path d="M 48.78125 52.59375 
L 48.78125 44.1875 
Q 44.96875 46.296875 41.140625 47.34375 
Q 37.3125 48.390625 33.40625 48.390625 
Q 24.65625 48.390625 19.8125 42.84375 
Q 14.984375 37.3125 14.984375 27.296875 
Q 14.984375 17.28125 19.8125 11.734375 
Q 24.65625 6.203125 33.40625 6.203125 
Q 37.3125 6.203125 41.140625 7.25 
Q 44.96875 8.296875 48.78125 10.40625 
L 48.78125 2.09375 
Q 45.015625 0.34375 40.984375 -0.53125 
Q 36.96875 -1.421875 32.421875 -1.421875 
Q 20.0625 -1.421875 12.78125 6.34375 
Q 5.515625 14.109375 5.515625 27.296875 
Q 5.515625 40.671875 12.859375 48.328125 
Q 20.21875 56 33.015625 56 
Q 37.15625 56 41.109375 55.140625 
Q 45.0625 54.296875 48.78125 52.59375 
z
" id="DejaVuSans-99"/>
      <path d="M 9.078125 75.984375 
L 18.109375 75.984375 
L 18.109375 31.109375 
L 44.921875 54.6875 
L 56.390625 54.6875 
L 27.390625 29.109375 
L 57.625 0 
L 45.90625 0 
L 18.109375 26.703125 
L 18.109375 0 
L 9.078125 0 
z
" id="DejaVuSans-107"/>
      <path d="M 56.203125 29.59375 
L 56.203125 25.203125 
L 14.890625 25.203125 
Q 15.484375 15.921875 20.484375 11.0625 
Q 25.484375 6.203125 34.421875 6.203125 
Q 39.59375 6.203125 44.453125 7.46875 
Q 49.3125 8.734375 54.109375 11.28125 
L 54.109375 2.78125 
Q 49.265625 0.734375 44.1875 -0.34375 
Q 39.109375 -1.421875 33.890625 -1.421875 
Q 20.796875 -1.421875 13.15625 6.1875 
Q 5.515625 13.8125 5.515625 26.8125 
Q 5.515625 40.234375 12.765625 48.109375 
Q 20.015625 56 32.328125 56 
Q 43.359375 56 49.78125 48.890625 
Q 56.203125 41.796875 56.203125 29.59375 
z
M 47.21875 32.234375 
Q 47.125 39.59375 43.09375 43.984375 
Q 39.0625 48.390625 32.421875 48.390625 
Q 24.90625 48.390625 20.390625 44.140625 
Q 15.875 39.890625 15.1875 32.171875 
z
" id="DejaVuSans-101"/>
      <path d="M 41.109375 46.296875 
Q 39.59375 47.171875 37.8125 47.578125 
Q 36.03125 48 33.890625 48 
Q 26.265625 48 22.1875 43.046875 
Q 18.109375 38.09375 18.109375 28.8125 
L 18.109375 0 
L 9.078125 0 
L 9.078125 54.6875 
L 18.109375 54.6875 
L 18.109375 46.1875 
Q 20.953125 51.171875 25.484375 53.578125 
Q 30.03125 56 36.53125 56 
Q 37.453125 56 38.578125 55.875 
Q 39.703125 55.765625 41.0625 55.515625 
z
" id="DejaVuSans-114"/>
      <path d="M 11.71875 12.40625 
L 22.015625 12.40625 
L 22.015625 4 
L 14.015625 -11.625 
L 7.71875 -11.625 
L 11.71875 4 
z
" id="DejaVuSans-44"/>
      <path d="M 54.890625 33.015625 
L 54.890625 0 
L 45.90625 0 
L 45.90625 32.71875 
Q 45.90625 40.484375 42.875 44.328125 
Q 39.84375 48.1875 33.796875 48.1875 
Q 26.515625 48.1875 22.3125 43.546875 
Q 18.109375 38.921875 18.109375 30.90625 
L 18.109375 0 
L 9.078125 0 
L 9.078125 75.984375 
L 18.109375 75.984375 
L 18.109375 46.1875 
Q 21.34375 51.125 25.703125 53.5625 
Q 30.078125 56 35.796875 56 
Q 45.21875 56 50.046875 50.171875 
Q 54.890625 44.34375 54.890625 33.015625 
z
" id="DejaVuSans-104"/>
      <path d="M 8.5 21.578125 
L 8.5 54.6875 
L 17.484375 54.6875 
L 17.484375 21.921875 
Q 17.484375 14.15625 20.5 10.265625 
Q 23.53125 6.390625 29.59375 6.390625 
Q 36.859375 6.390625 41.078125 11.03125 
Q 45.3125 15.671875 45.3125 23.6875 
L 45.3125 54.6875 
L 54.296875 54.6875 
L 54.296875 0 
L 45.3125 0 
L 45.3125 8.40625 
Q 42.046875 3.421875 37.71875 1 
Q 33.40625 -1.421875 27.6875 -1.421875 
Q 18.265625 -1.421875 13.375 4.4375 
Q 8.5 10.296875 8.5 21.578125 
z
M 31.109375 56 
z
" id="DejaVuSans-117"/>
      <path d="M 54.890625 33.015625 
L 54.890625 0 
L 45.90625 0 
L 45.90625 32.71875 
Q 45.90625 40.484375 42.875 44.328125 
Q 39.84375 48.1875 33.796875 48.1875 
Q 26.515625 48.1875 22.3125 43.546875 
Q 18.109375 38.921875 18.109375 30.90625 
L 18.109375 0 
L 9.078125 0 
L 9.078125 54.6875 
L 18.109375 54.6875 
L 18.109375 46.1875 
Q 21.34375 51.125 25.703125 53.5625 
Q 30.078125 56 35.796875 56 
Q 45.21875 56 50.046875 50.171875 
Q 54.890625 44.34375 54.890625 33.015625 
z
" id="DejaVuSans-110"/>
      <path d="M 45.40625 46.390625 
L 45.40625 75.984375 
L 54.390625 75.984375 
L 54.390625 0 
L 45.40625 0 
L 45.40625 8.203125 
Q 42.578125 3.328125 38.25 0.953125 
Q 33.9375 -1.421875 27.875 -1.421875 
Q 17.96875 -1.421875 11.734375 6.484375 
Q 5.515625 14.40625 5.515625 27.296875 
Q 5.515625 40.1875 11.734375 48.09375 
Q 17.96875 56 27.875 56 
Q 33.9375 56 38.25 53.625 
Q 42.578125 51.265625 45.40625 46.390625 
z
M 14.796875 27.296875 
Q 14.796875 17.390625 18.875 11.75 
Q 22.953125 6.109375 30.078125 6.109375 
Q 37.203125 6.109375 41.296875 11.75 
Q 45.40625 17.390625 45.40625 27.296875 
Q 45.40625 37.203125 41.296875 42.84375 
Q 37.203125 48.484375 30.078125 48.484375 
Q 22.953125 48.484375 18.875 42.84375 
Q 14.796875 37.203125 14.796875 27.296875 
z
" id="DejaVuSans-100"/>
      <path d="M 8.6875 72.90625 
L 18.609375 72.90625 
L 18.609375 28.609375 
Q 18.609375 16.890625 22.84375 11.734375 
Q 27.09375 6.59375 36.625 6.59375 
Q 46.09375 6.59375 50.34375 11.734375 
Q 54.59375 16.890625 54.59375 28.609375 
L 54.59375 72.90625 
L 64.5 72.90625 
L 64.5 27.390625 
Q 64.5 13.140625 57.4375 5.859375 
Q 50.390625 -1.421875 36.625 -1.421875 
Q 22.796875 -1.421875 15.734375 5.859375 
Q 8.6875 13.140625 8.6875 27.390625 
z
" id="DejaVuSans-85"/>
      <path d="M 53.515625 70.515625 
L 53.515625 60.890625 
Q 47.90625 63.578125 42.921875 64.890625 
Q 37.9375 66.21875 33.296875 66.21875 
Q 25.25 66.21875 20.875 63.09375 
Q 16.5 59.96875 16.5 54.203125 
Q 16.5 49.359375 19.40625 46.890625 
Q 22.3125 44.4375 30.421875 42.921875 
L 36.375 41.703125 
Q 47.40625 39.59375 52.65625 34.296875 
Q 57.90625 29 57.90625 20.125 
Q 57.90625 9.515625 50.796875 4.046875 
Q 43.703125 -1.421875 29.984375 -1.421875 
Q 24.8125 -1.421875 18.96875 -0.25 
Q 13.140625 0.921875 6.890625 3.21875 
L 6.890625 13.375 
Q 12.890625 10.015625 18.65625 8.296875 
Q 24.421875 6.59375 29.984375 6.59375 
Q 38.421875 6.59375 43.015625 9.90625 
Q 47.609375 13.234375 47.609375 19.390625 
Q 47.609375 24.75 44.3125 27.78125 
Q 41.015625 30.8125 33.5 32.328125 
L 27.484375 33.5 
Q 16.453125 35.6875 11.515625 40.375 
Q 6.59375 45.0625 6.59375 53.421875 
Q 6.59375 63.09375 13.40625 68.65625 
Q 20.21875 74.21875 32.171875 74.21875 
Q 37.3125 74.21875 42.625 73.28125 
Q 47.953125 72.359375 53.515625 70.515625 
z
" id="DejaVuSans-83"/>
      <path d="M 33.796875 -14.703125 
L 28.90625 -14.703125 
L 28.859375 0 
Q 23.734375 0.09375 18.609375 1.1875 
Q 13.484375 2.296875 8.296875 4.5 
L 8.296875 13.28125 
Q 13.28125 10.15625 18.375 8.5625 
Q 23.484375 6.984375 28.90625 6.9375 
L 28.90625 29.203125 
Q 18.109375 30.953125 13.203125 35.15625 
Q 8.296875 39.359375 8.296875 46.6875 
Q 8.296875 54.640625 13.625 59.21875 
Q 18.953125 63.8125 28.90625 64.5 
L 28.90625 75.984375 
L 33.796875 75.984375 
L 33.796875 64.65625 
Q 38.328125 64.453125 42.578125 63.6875 
Q 46.828125 62.9375 50.875 61.625 
L 50.875 53.078125 
Q 46.828125 55.125 42.546875 56.25 
Q 38.28125 57.375 33.796875 57.5625 
L 33.796875 36.71875 
Q 44.875 35.015625 50.09375 30.609375 
Q 55.328125 26.21875 55.328125 18.609375 
Q 55.328125 10.359375 49.78125 5.59375 
Q 44.234375 0.828125 33.796875 0.09375 
z
M 28.90625 37.59375 
L 28.90625 57.625 
Q 23.25 56.984375 20.265625 54.390625 
Q 17.28125 51.8125 17.28125 47.515625 
Q 17.28125 43.3125 20.03125 40.96875 
Q 22.796875 38.625 28.90625 37.59375 
z
M 33.796875 28.21875 
L 33.796875 7.078125 
Q 39.984375 7.90625 43.140625 10.59375 
Q 46.296875 13.28125 46.296875 17.671875 
Q 46.296875 21.96875 43.28125 24.5 
Q 40.28125 27.046875 33.796875 28.21875 
z
" id="DejaVuSans-36"/>
     </defs>
     <g style="fill:#262626;" transform="translate(96.920937 377.17475)scale(0.168 -0.168)">
      <use xlink:href="#DejaVuSans-67"/>
      <use x="69.824219" xlink:href="#DejaVuSans-97"/>
      <use x="131.103516" xlink:href="#DejaVuSans-112"/>
      <use x="194.580078" xlink:href="#DejaVuSans-105"/>
      <use x="222.363281" xlink:href="#DejaVuSans-116"/>
      <use x="261.572266" xlink:href="#DejaVuSans-97"/>
      <use x="322.851562" xlink:href="#DejaVuSans-108"/>
      <use x="350.634766" xlink:href="#DejaVuSans-32"/>
      <use x="382.421875" xlink:href="#DejaVuSans-115"/>
      <use x="434.521484" xlink:href="#DejaVuSans-116"/>
      <use x="473.730469" xlink:href="#DejaVuSans-111"/>
      <use x="534.912109" xlink:href="#DejaVuSans-99"/>
      <use x="589.892578" xlink:href="#DejaVuSans-107"/>
      <use x="647.802734" xlink:href="#DejaVuSans-32"/>
      <use x="679.589844" xlink:href="#DejaVuSans-112"/>
      <use x="743.066406" xlink:href="#DejaVuSans-101"/>
      <use x="804.589844" xlink:href="#DejaVuSans-114"/>
      <use x="845.703125" xlink:href="#DejaVuSans-32"/>
      <use x="877.490234" xlink:href="#DejaVuSans-99"/>
      <use x="932.470703" xlink:href="#DejaVuSans-97"/>
      <use x="993.75" xlink:href="#DejaVuSans-112"/>
      <use x="1057.226562" xlink:href="#DejaVuSans-105"/>
      <use x="1085.009766" xlink:href="#DejaVuSans-116"/>
      <use x="1124.21875" xlink:href="#DejaVuSans-97"/>
      <use x="1185.498047" xlink:href="#DejaVuSans-44"/>
      <use x="1217.285156" xlink:href="#DejaVuSans-32"/>
      <use x="1249.072266" xlink:href="#DejaVuSans-116"/>
      <use x="1288.28125" xlink:href="#DejaVuSans-104"/>
      <use x="1351.660156" xlink:href="#DejaVuSans-111"/>
      <use x="1412.841797" xlink:href="#DejaVuSans-117"/>
      <use x="1476.220703" xlink:href="#DejaVuSans-115"/>
      <use x="1528.320312" xlink:href="#DejaVuSans-97"/>
      <use x="1589.599609" xlink:href="#DejaVuSans-110"/>
      <use x="1652.978516" xlink:href="#DejaVuSans-100"/>
      <use x="1716.455078" xlink:href="#DejaVuSans-32"/>
      <use x="1748.242188" xlink:href="#DejaVuSans-50"/>
      <use x="1811.865234" xlink:href="#DejaVuSans-48"/>
      <use x="1875.488281" xlink:href="#DejaVuSans-49"/>
      <use x="1939.111328" xlink:href="#DejaVuSans-49"/>
      <use x="2002.734375" xlink:href="#DejaVuSans-85"/>
      <use x="2075.927734" xlink:href="#DejaVuSans-83"/>
      <use x="2139.404297" xlink:href="#DejaVuSans-36"/>
     </g>
    </g>
   </g>
   <g id="matplotlib.axis_2">
    <g id="ytick_1">
     <g id="line2d_10">
      <path clip-path="url(#p4971ba445f)" d="M 58.77425 320.664156 
L 505.17425 320.664156 
" style="fill:none;stroke:#cccccc;stroke-linecap:round;stroke-opacity:0.9;"/>
     </g>
     <g id="text_11">
      <!-- 0 -->
      <g style="fill:#262626;" transform="translate(36.36675 325.983062)scale(0.14 -0.14)">
       <use xlink:href="#DejaVuSans-48"/>
      </g>
     </g>
    </g>
    <g id="ytick_2">
     <g id="line2d_11">
      <path clip-path="url(#p4971ba445f)" d="M 58.77425 252.594141 
L 505.17425 252.594141 
" style="fill:none;stroke:#cccccc;stroke-linecap:round;stroke-opacity:0.9;"/>
     </g>
     <g id="text_12">
      <!-- 10 -->
      <g style="fill:#262626;" transform="translate(27.45925 257.913047)scale(0.14 -0.14)">
       <use xlink:href="#DejaVuSans-49"/>
       <use x="63.623047" xlink:href="#DejaVuSans-48"/>
      </g>
     </g>
    </g>
    <g id="ytick_3">
     <g id="line2d_12">
      <path clip-path="url(#p4971ba445f)" d="M 58.77425 184.524126 
L 505.17425 184.524126 
" style="fill:none;stroke:#cccccc;stroke-linecap:round;stroke-opacity:0.9;"/>
     </g>
     <g id="text_13">
      <!-- 20 -->
      <g style="fill:#262626;" transform="translate(27.45925 189.843032)scale(0.14 -0.14)">
       <use xlink:href="#DejaVuSans-50"/>
       <use x="63.623047" xlink:href="#DejaVuSans-48"/>
      </g>
     </g>
    </g>
    <g id="ytick_4">
     <g id="line2d_13">
      <path clip-path="url(#p4971ba445f)" d="M 58.77425 116.454111 
L 505.17425 116.454111 
" style="fill:none;stroke:#cccccc;stroke-linecap:round;stroke-opacity:0.9;"/>
     </g>
     <g id="text_14">
      <!-- 30 -->
      <defs>
       <path d="M 40.578125 39.3125 
Q 47.65625 37.796875 51.625 33 
Q 55.609375 28.21875 55.609375 21.1875 
Q 55.609375 10.40625 48.1875 4.484375 
Q 40.765625 -1.421875 27.09375 -1.421875 
Q 22.515625 -1.421875 17.65625 -0.515625 
Q 12.796875 0.390625 7.625 2.203125 
L 7.625 11.71875 
Q 11.71875 9.328125 16.59375 8.109375 
Q 21.484375 6.890625 26.8125 6.890625 
Q 36.078125 6.890625 40.9375 10.546875 
Q 45.796875 14.203125 45.796875 21.1875 
Q 45.796875 27.640625 41.28125 31.265625 
Q 36.765625 34.90625 28.71875 34.90625 
L 20.21875 34.90625 
L 20.21875 43.015625 
L 29.109375 43.015625 
Q 36.375 43.015625 40.234375 45.921875 
Q 44.09375 48.828125 44.09375 54.296875 
Q 44.09375 59.90625 40.109375 62.90625 
Q 36.140625 65.921875 28.71875 65.921875 
Q 24.65625 65.921875 20.015625 65.03125 
Q 15.375 64.15625 9.8125 62.3125 
L 9.8125 71.09375 
Q 15.4375 72.65625 20.34375 73.4375 
Q 25.25 74.21875 29.59375 74.21875 
Q 40.828125 74.21875 47.359375 69.109375 
Q 53.90625 64.015625 53.90625 55.328125 
Q 53.90625 49.265625 50.4375 45.09375 
Q 46.96875 40.921875 40.578125 39.3125 
z
" id="DejaVuSans-51"/>
      </defs>
      <g style="fill:#262626;" transform="translate(27.45925 121.773017)scale(0.14 -0.14)">
       <use xlink:href="#DejaVuSans-51"/>
       <use x="63.623047" xlink:href="#DejaVuSans-48"/>
      </g>
     </g>
    </g>
    <g id="ytick_5">
     <g id="line2d_14">
      <path clip-path="url(#p4971ba445f)" d="M 58.77425 48.384096 
L 505.17425 48.384096 
" style="fill:none;stroke:#cccccc;stroke-linecap:round;stroke-opacity:0.9;"/>
     </g>
     <g id="text_15">
      <!-- 40 -->
      <g style="fill:#262626;" transform="translate(27.45925 53.703002)scale(0.14 -0.14)">
       <use xlink:href="#DejaVuSans-52"/>
       <use x="63.623047" xlink:href="#DejaVuSans-48"/>
      </g>
     </g>
    </g>
    <g id="text_16">
     <!-- GDP per capita, thousand 2011US$ -->
     <defs>
      <path d="M 59.515625 10.40625 
L 59.515625 29.984375 
L 43.40625 29.984375 
L 43.40625 38.09375 
L 69.28125 38.09375 
L 69.28125 6.78125 
Q 63.578125 2.734375 56.6875 0.65625 
Q 49.8125 -1.421875 42 -1.421875 
Q 24.90625 -1.421875 15.25 8.5625 
Q 5.609375 18.5625 5.609375 36.375 
Q 5.609375 54.25 15.25 64.234375 
Q 24.90625 74.21875 42 74.21875 
Q 49.125 74.21875 55.546875 72.453125 
Q 61.96875 70.703125 67.390625 67.28125 
L 67.390625 56.78125 
Q 61.921875 61.421875 55.765625 63.765625 
Q 49.609375 66.109375 42.828125 66.109375 
Q 29.4375 66.109375 22.71875 58.640625 
Q 16.015625 51.171875 16.015625 36.375 
Q 16.015625 21.625 22.71875 14.15625 
Q 29.4375 6.6875 42.828125 6.6875 
Q 48.046875 6.6875 52.140625 7.59375 
Q 56.25 8.5 59.515625 10.40625 
z
" id="DejaVuSans-71"/>
      <path d="M 19.671875 64.796875 
L 19.671875 8.109375 
L 31.59375 8.109375 
Q 46.6875 8.109375 53.6875 14.9375 
Q 60.6875 21.78125 60.6875 36.53125 
Q 60.6875 51.171875 53.6875 57.984375 
Q 46.6875 64.796875 31.59375 64.796875 
z
M 9.8125 72.90625 
L 30.078125 72.90625 
Q 51.265625 72.90625 61.171875 64.09375 
Q 71.09375 55.28125 71.09375 36.53125 
Q 71.09375 17.671875 61.125 8.828125 
Q 51.171875 0 30.078125 0 
L 9.8125 0 
z
" id="DejaVuSans-68"/>
      <path d="M 19.671875 64.796875 
L 19.671875 37.40625 
L 32.078125 37.40625 
Q 38.96875 37.40625 42.71875 40.96875 
Q 46.484375 44.53125 46.484375 51.125 
Q 46.484375 57.671875 42.71875 61.234375 
Q 38.96875 64.796875 32.078125 64.796875 
z
M 9.8125 72.90625 
L 32.078125 72.90625 
Q 44.34375 72.90625 50.609375 67.359375 
Q 56.890625 61.8125 56.890625 51.125 
Q 56.890625 40.328125 50.609375 34.8125 
Q 44.34375 29.296875 32.078125 29.296875 
L 19.671875 29.296875 
L 19.671875 0 
L 9.8125 0 
z
" id="DejaVuSans-80"/>
     </defs>
     <g style="fill:#262626;" transform="translate(19.965375 318.96)rotate(-90)scale(0.168 -0.168)">
      <use xlink:href="#DejaVuSans-71"/>
      <use x="77.490234" xlink:href="#DejaVuSans-68"/>
      <use x="154.492188" xlink:href="#DejaVuSans-80"/>
      <use x="214.794922" xlink:href="#DejaVuSans-32"/>
      <use x="246.582031" xlink:href="#DejaVuSans-112"/>
      <use x="310.058594" xlink:href="#DejaVuSans-101"/>
      <use x="371.582031" xlink:href="#DejaVuSans-114"/>
      <use x="412.695312" xlink:href="#DejaVuSans-32"/>
      <use x="444.482422" xlink:href="#DejaVuSans-99"/>
      <use x="499.462891" xlink:href="#DejaVuSans-97"/>
      <use x="560.742188" xlink:href="#DejaVuSans-112"/>
      <use x="624.21875" xlink:href="#DejaVuSans-105"/>
      <use x="652.001953" xlink:href="#DejaVuSans-116"/>
      <use x="691.210938" xlink:href="#DejaVuSans-97"/>
      <use x="752.490234" xlink:href="#DejaVuSans-44"/>
      <use x="784.277344" xlink:href="#DejaVuSans-32"/>
      <use x="816.064453" xlink:href="#DejaVuSans-116"/>
      <use x="855.273438" xlink:href="#DejaVuSans-104"/>
      <use x="918.652344" xlink:href="#DejaVuSans-111"/>
      <use x="979.833984" xlink:href="#DejaVuSans-117"/>
      <use x="1043.212891" xlink:href="#DejaVuSans-115"/>
      <use x="1095.3125" xlink:href="#DejaVuSans-97"/>
      <use x="1156.591797" xlink:href="#DejaVuSans-110"/>
      <use x="1219.970703" xlink:href="#DejaVuSans-100"/>
      <use x="1283.447266" xlink:href="#DejaVuSans-32"/>
      <use x="1315.234375" xlink:href="#DejaVuSans-50"/>
      <use x="1378.857422" xlink:href="#DejaVuSans-48"/>
      <use x="1442.480469" xlink:href="#DejaVuSans-49"/>
      <use x="1506.103516" xlink:href="#DejaVuSans-49"/>
      <use x="1569.726562" xlink:href="#DejaVuSans-85"/>
      <use x="1642.919922" xlink:href="#DejaVuSans-83"/>
      <use x="1706.396484" xlink:href="#DejaVuSans-36"/>
     </g>
    </g>
   </g>
   <g id="PathCollection_1">
    <defs>
     <path d="M 0 3 
C 0.795609 3 1.55874 2.683901 2.12132 2.12132 
C 2.683901 1.55874 3 0.795609 3 0 
C 3 -0.795609 2.683901 -1.55874 2.12132 -2.12132 
C 1.55874 -2.683901 0.795609 -3 0 -3 
C -0.795609 -3 -1.55874 -2.683901 -2.12132 -2.12132 
C -2.683901 -1.55874 -3 -0.795609 -3 0 
C -3 0.795609 -2.683901 1.55874 -2.12132 2.12132 
C -1.55874 2.683901 -0.795609 3 0 3 
z
" id="mdcf33a61c4" style="stroke:#165aa7;"/>
    </defs>
    <g clip-path="url(#p4971ba445f)">
     <use style="fill:#165aa7;stroke:#165aa7;" x="95.504288" xlink:href="#mdcf33a61c4" y="311.084398"/>
     <use style="fill:#165aa7;stroke:#165aa7;" x="95.19761" xlink:href="#mdcf33a61c4" y="310.962725"/>
     <use style="fill:#165aa7;stroke:#165aa7;" x="94.891192" xlink:href="#mdcf33a61c4" y="310.31215"/>
     <use style="fill:#165aa7;stroke:#165aa7;" x="94.452017" xlink:href="#mdcf33a61c4" y="310.070218"/>
     <use style="fill:#165aa7;stroke:#165aa7;" x="94.191518" xlink:href="#mdcf33a61c4" y="309.653817"/>
     <use style="fill:#165aa7;stroke:#165aa7;" x="93.832252" xlink:href="#mdcf33a61c4" y="309.584421"/>
     <use style="fill:#165aa7;stroke:#165aa7;" x="93.314606" xlink:href="#mdcf33a61c4" y="309.730216"/>
     <use style="fill:#165aa7;stroke:#165aa7;" x="92.818415" xlink:href="#mdcf33a61c4" y="309.959672"/>
     <use style="fill:#165aa7;stroke:#165aa7;" x="92.444145" xlink:href="#mdcf33a61c4" y="309.839305"/>
     <use style="fill:#165aa7;stroke:#165aa7;" x="92.094159" xlink:href="#mdcf33a61c4" y="309.925888"/>
     <use style="fill:#165aa7;stroke:#165aa7;" x="92.256749" xlink:href="#mdcf33a61c4" y="309.425648"/>
     <use style="fill:#165aa7;stroke:#165aa7;" x="92.165898" xlink:href="#mdcf33a61c4" y="308.872317"/>
     <use style="fill:#165aa7;stroke:#165aa7;" x="92.115504" xlink:href="#mdcf33a61c4" y="308.592861"/>
     <use style="fill:#165aa7;stroke:#165aa7;" x="92.56332" xlink:href="#mdcf33a61c4" y="307.54965"/>
     <use style="fill:#165aa7;stroke:#165aa7;" x="93.09077" xlink:href="#mdcf33a61c4" y="307.138485"/>
     <use style="fill:#165aa7;stroke:#165aa7;" x="93.966389" xlink:href="#mdcf33a61c4" y="306.044709"/>
     <use style="fill:#165aa7;stroke:#165aa7;" x="94.794223" xlink:href="#mdcf33a61c4" y="304.324224"/>
     <use style="fill:#165aa7;stroke:#165aa7;" x="95.483642" xlink:href="#mdcf33a61c4" y="303.332567"/>
     <use style="fill:#165aa7;stroke:#165aa7;" x="96.205274" xlink:href="#mdcf33a61c4" y="301.901795"/>
     <use style="fill:#165aa7;stroke:#165aa7;" x="96.880793" xlink:href="#mdcf33a61c4" y="300.952825"/>
     <use style="fill:#165aa7;stroke:#165aa7;" x="97.91998" xlink:href="#mdcf33a61c4" y="298.458194"/>
     <use style="fill:#165aa7;stroke:#165aa7;" x="99.1582" xlink:href="#mdcf33a61c4" y="296.794263"/>
     <use style="fill:#165aa7;stroke:#165aa7;" x="100.507323" xlink:href="#mdcf33a61c4" y="295.351308"/>
     <use style="fill:#165aa7;stroke:#165aa7;" x="102.404561" xlink:href="#mdcf33a61c4" y="292.479451"/>
     <use style="fill:#165aa7;stroke:#165aa7;" x="105.088626" xlink:href="#mdcf33a61c4" y="289.481068"/>
     <use style="fill:#165aa7;stroke:#165aa7;" x="108.871228" xlink:href="#mdcf33a61c4" y="286.603209"/>
     <use style="fill:#165aa7;stroke:#165aa7;" x="112.682152" xlink:href="#mdcf33a61c4" y="284.17677"/>
     <use style="fill:#165aa7;stroke:#165aa7;" x="115.403967" xlink:href="#mdcf33a61c4" y="285.300815"/>
     <use style="fill:#165aa7;stroke:#165aa7;" x="117.719908" xlink:href="#mdcf33a61c4" y="283.307793"/>
     <use style="fill:#165aa7;stroke:#165aa7;" x="120.333366" xlink:href="#mdcf33a61c4" y="280.81149"/>
     <use style="fill:#165aa7;stroke:#165aa7;" x="123.525088" xlink:href="#mdcf33a61c4" y="276.184105"/>
     <use style="fill:#165aa7;stroke:#165aa7;" x="127.139835" xlink:href="#mdcf33a61c4" y="272.207543"/>
     <use style="fill:#165aa7;stroke:#165aa7;" x="130.869475" xlink:href="#mdcf33a61c4" y="269.102499"/>
     <use style="fill:#165aa7;stroke:#165aa7;" x="135.302197" xlink:href="#mdcf33a61c4" y="263.955438"/>
     <use style="fill:#165aa7;stroke:#165aa7;" x="140.798613" xlink:href="#mdcf33a61c4" y="257.530251"/>
     <use style="fill:#165aa7;stroke:#165aa7;" x="147.058665" xlink:href="#mdcf33a61c4" y="250.686058"/>
     <use style="fill:#165aa7;stroke:#165aa7;" x="154.342126" xlink:href="#mdcf33a61c4" y="246.480077"/>
     <use style="fill:#165aa7;stroke:#165aa7;" x="163.742163" xlink:href="#mdcf33a61c4" y="240.012859"/>
     <use style="fill:#165aa7;stroke:#165aa7;" x="174.267662" xlink:href="#mdcf33a61c4" y="232.595759"/>
     <use style="fill:#165aa7;stroke:#165aa7;" x="184.201207" xlink:href="#mdcf33a61c4" y="228.170651"/>
     <use style="fill:#165aa7;stroke:#165aa7;" x="194.543151" xlink:href="#mdcf33a61c4" y="222.923534"/>
     <use style="fill:#165aa7;stroke:#165aa7;" x="206.396705" xlink:href="#mdcf33a61c4" y="215.08105"/>
     <use style="fill:#165aa7;stroke:#165aa7;" x="219.676089" xlink:href="#mdcf33a61c4" y="206.183399"/>
     <use style="fill:#165aa7;stroke:#165aa7;" x="233.530734" xlink:href="#mdcf33a61c4" y="198.724073"/>
     <use style="fill:#165aa7;stroke:#165aa7;" x="246.059512" xlink:href="#mdcf33a61c4" y="192.74724"/>
     <use style="fill:#165aa7;stroke:#165aa7;" x="253.070848" xlink:href="#mdcf33a61c4" y="200.847585"/>
     <use style="fill:#165aa7;stroke:#165aa7;" x="261.248421" xlink:href="#mdcf33a61c4" y="188.422336"/>
     <use style="fill:#165aa7;stroke:#165aa7;" x="271.301846" xlink:href="#mdcf33a61c4" y="177.722218"/>
     <use style="fill:#165aa7;stroke:#165aa7;" x="280.902666" xlink:href="#mdcf33a61c4" y="172.276011"/>
     <use style="fill:#165aa7;stroke:#165aa7;" x="291.317545" xlink:href="#mdcf33a61c4" y="162.216846"/>
     <use style="fill:#165aa7;stroke:#165aa7;" x="302.198815" xlink:href="#mdcf33a61c4" y="158.448631"/>
     <use style="fill:#165aa7;stroke:#165aa7;" x="313.177175" xlink:href="#mdcf33a61c4" y="151.318031"/>
     <use style="fill:#165aa7;stroke:#165aa7;" x="324.048056" xlink:href="#mdcf33a61c4" y="145.433709"/>
     <use style="fill:#165aa7;stroke:#165aa7;" x="335.19443" xlink:href="#mdcf33a61c4" y="137.069671"/>
     <use style="fill:#165aa7;stroke:#165aa7;" x="346.905362" xlink:href="#mdcf33a61c4" y="127.696599"/>
     <use style="fill:#165aa7;stroke:#165aa7;" x="357.672974" xlink:href="#mdcf33a61c4" y="122.868285"/>
     <use style="fill:#165aa7;stroke:#165aa7;" x="367.848281" xlink:href="#mdcf33a61c4" y="122.11519"/>
     <use style="fill:#165aa7;stroke:#165aa7;" x="378.613188" xlink:href="#mdcf33a61c4" y="109.956848"/>
     <use style="fill:#165aa7;stroke:#165aa7;" x="388.608029" xlink:href="#mdcf33a61c4" y="103.041617"/>
     <use style="fill:#165aa7;stroke:#165aa7;" x="397.568799" xlink:href="#mdcf33a61c4" y="98.977928"/>
     <use style="fill:#165aa7;stroke:#165aa7;" x="406.570189" xlink:href="#mdcf33a61c4" y="93.544079"/>
     <use style="fill:#165aa7;stroke:#165aa7;" x="415.75711" xlink:href="#mdcf33a61c4" y="86.962636"/>
     <use style="fill:#165aa7;stroke:#165aa7;" x="425.660176" xlink:href="#mdcf33a61c4" y="81.429903"/>
     <use style="fill:#165aa7;stroke:#165aa7;" x="436.544139" xlink:href="#mdcf33a61c4" y="75.383165"/>
     <use style="fill:#165aa7;stroke:#165aa7;" x="449.331524" xlink:href="#mdcf33a61c4" y="68.814343"/>
    </g>
   </g>
   <g id="PathCollection_2">
    <defs>
     <path d="M 0 3 
C 0.795609 3 1.55874 2.683901 2.12132 2.12132 
C 2.683901 1.55874 3 0.795609 3 0 
C 3 -0.795609 2.683901 -1.55874 2.12132 -2.12132 
C 1.55874 -2.683901 0.795609 -3 0 -3 
C -0.795609 -3 -1.55874 -2.683901 -2.12132 -2.12132 
C -2.683901 -1.55874 -3 -0.795609 -3 0 
C -3 0.795609 -2.683901 1.55874 -2.12132 2.12132 
C -1.55874 2.683901 -0.795609 3 0 3 
z
" id="mcaaf250d6f" style="stroke:#cb495c;"/>
    </defs>
    <g clip-path="url(#p4971ba445f)">
     <use style="fill:#cb495c;stroke:#cb495c;" x="81.706276" xlink:href="#mcaaf250d6f" y="315.363484"/>
     <use style="fill:#cb495c;stroke:#cb495c;" x="81.790064" xlink:href="#mcaaf250d6f" y="314.769966"/>
     <use style="fill:#cb495c;stroke:#cb495c;" x="81.894005" xlink:href="#mcaaf250d6f" y="315.296439"/>
     <use style="fill:#cb495c;stroke:#cb495c;" x="81.979797" xlink:href="#mcaaf250d6f" y="314.924081"/>
     <use style="fill:#cb495c;stroke:#cb495c;" x="82.091628" xlink:href="#mcaaf250d6f" y="314.557456"/>
     <use style="fill:#cb495c;stroke:#cb495c;" x="82.211473" xlink:href="#mcaaf250d6f" y="314.508717"/>
     <use style="fill:#cb495c;stroke:#cb495c;" x="82.45882" xlink:href="#mcaaf250d6f" y="314.601282"/>
     <use style="fill:#cb495c;stroke:#cb495c;" x="82.868863" xlink:href="#mcaaf250d6f" y="314.843834"/>
     <use style="fill:#cb495c;stroke:#cb495c;" x="83.278326" xlink:href="#mcaaf250d6f" y="315.115721"/>
     <use style="fill:#cb495c;stroke:#cb495c;" x="83.431304" xlink:href="#mcaaf250d6f" y="316.082055"/>
     <use style="fill:#cb495c;stroke:#cb495c;" x="83.414317" xlink:href="#mcaaf250d6f" y="315.837598"/>
     <use style="fill:#cb495c;stroke:#cb495c;" x="83.391958" xlink:href="#mcaaf250d6f" y="315.306014"/>
     <use style="fill:#cb495c;stroke:#cb495c;" x="83.430049" xlink:href="#mcaaf250d6f" y="314.742632"/>
     <use style="fill:#cb495c;stroke:#cb495c;" x="83.554737" xlink:href="#mcaaf250d6f" y="314.257707"/>
     <use style="fill:#cb495c;stroke:#cb495c;" x="83.734559" xlink:href="#mcaaf250d6f" y="314.211616"/>
     <use style="fill:#cb495c;stroke:#cb495c;" x="83.800926" xlink:href="#mcaaf250d6f" y="314.338729"/>
     <use style="fill:#cb495c;stroke:#cb495c;" x="83.849407" xlink:href="#mcaaf250d6f" y="314.6521"/>
     <use style="fill:#cb495c;stroke:#cb495c;" x="83.919048" xlink:href="#mcaaf250d6f" y="314.217413"/>
     <use style="fill:#cb495c;stroke:#cb495c;" x="84.140955" xlink:href="#mcaaf250d6f" y="313.528943"/>
     <use style="fill:#cb495c;stroke:#cb495c;" x="84.38928" xlink:href="#mcaaf250d6f" y="313.259719"/>
     <use style="fill:#cb495c;stroke:#cb495c;" x="84.624815" xlink:href="#mcaaf250d6f" y="313.326617"/>
     <use style="fill:#cb495c;stroke:#cb495c;" x="84.873743" xlink:href="#mcaaf250d6f" y="312.909182"/>
     <use style="fill:#cb495c;stroke:#cb495c;" x="85.167829" xlink:href="#mcaaf250d6f" y="312.87758"/>
     <use style="fill:#cb495c;stroke:#cb495c;" x="85.533782" xlink:href="#mcaaf250d6f" y="312.501597"/>
     <use style="fill:#cb495c;stroke:#cb495c;" x="85.861851" xlink:href="#mcaaf250d6f" y="312.901732"/>
     <use style="fill:#cb495c;stroke:#cb495c;" x="86.194529" xlink:href="#mcaaf250d6f" y="312.593555"/>
     <use style="fill:#cb495c;stroke:#cb495c;" x="86.612716" xlink:href="#mcaaf250d6f" y="311.778637"/>
     <use style="fill:#cb495c;stroke:#cb495c;" x="87.024973" xlink:href="#mcaaf250d6f" y="311.205794"/>
     <use style="fill:#cb495c;stroke:#cb495c;" x="87.500247" xlink:href="#mcaaf250d6f" y="310.85991"/>
     <use style="fill:#cb495c;stroke:#cb495c;" x="87.926671" xlink:href="#mcaaf250d6f" y="310.711148"/>
     <use style="fill:#cb495c;stroke:#cb495c;" x="88.401662" xlink:href="#mcaaf250d6f" y="309.947168"/>
     <use style="fill:#cb495c;stroke:#cb495c;" x="88.917351" xlink:href="#mcaaf250d6f" y="309.356085"/>
     <use style="fill:#cb495c;stroke:#cb495c;" x="89.504513" xlink:href="#mcaaf250d6f" y="308.281298"/>
     <use style="fill:#cb495c;stroke:#cb495c;" x="90.212375" xlink:href="#mcaaf250d6f" y="307.433601"/>
     <use style="fill:#cb495c;stroke:#cb495c;" x="90.940868" xlink:href="#mcaaf250d6f" y="306.816242"/>
     <use style="fill:#cb495c;stroke:#cb495c;" x="91.684262" xlink:href="#mcaaf250d6f" y="305.939185"/>
     <use style="fill:#cb495c;stroke:#cb495c;" x="92.529813" xlink:href="#mcaaf250d6f" y="305.420951"/>
     <use style="fill:#cb495c;stroke:#cb495c;" x="93.082431" xlink:href="#mcaaf250d6f" y="305.577971"/>
     <use style="fill:#cb495c;stroke:#cb495c;" x="93.551526" xlink:href="#mcaaf250d6f" y="305.802218"/>
     <use style="fill:#cb495c;stroke:#cb495c;" x="94.17221" xlink:href="#mcaaf250d6f" y="305.310358"/>
     <use style="fill:#cb495c;stroke:#cb495c;" x="95.152176" xlink:href="#mcaaf250d6f" y="304.252418"/>
     <use style="fill:#cb495c;stroke:#cb495c;" x="96.614689" xlink:href="#mcaaf250d6f" y="302.637477"/>
     <use style="fill:#cb495c;stroke:#cb495c;" x="98.257332" xlink:href="#mcaaf250d6f" y="301.240905"/>
     <use style="fill:#cb495c;stroke:#cb495c;" x="100.022316" xlink:href="#mcaaf250d6f" y="299.559507"/>
     <use style="fill:#cb495c;stroke:#cb495c;" x="101.942257" xlink:href="#mcaaf250d6f" y="298.077551"/>
     <use style="fill:#cb495c;stroke:#cb495c;" x="103.949215" xlink:href="#mcaaf250d6f" y="297.223196"/>
     <use style="fill:#cb495c;stroke:#cb495c;" x="106.287231" xlink:href="#mcaaf250d6f" y="296.853718"/>
     <use style="fill:#cb495c;stroke:#cb495c;" x="108.661548" xlink:href="#mcaaf250d6f" y="295.611785"/>
     <use style="fill:#cb495c;stroke:#cb495c;" x="111.129908" xlink:href="#mcaaf250d6f" y="293.917114"/>
     <use style="fill:#cb495c;stroke:#cb495c;" x="113.910614" xlink:href="#mcaaf250d6f" y="291.995034"/>
     <use style="fill:#cb495c;stroke:#cb495c;" x="117.049838" xlink:href="#mcaaf250d6f" y="289.495881"/>
     <use style="fill:#cb495c;stroke:#cb495c;" x="120.869409" xlink:href="#mcaaf250d6f" y="287.217817"/>
     <use style="fill:#cb495c;stroke:#cb495c;" x="125.182438" xlink:href="#mcaaf250d6f" y="284.1163"/>
     <use style="fill:#cb495c;stroke:#cb495c;" x="129.982631" xlink:href="#mcaaf250d6f" y="280.157195"/>
     <use style="fill:#cb495c;stroke:#cb495c;" x="135.362609" xlink:href="#mcaaf250d6f" y="275.495017"/>
     <use style="fill:#cb495c;stroke:#cb495c;" x="141.321973" xlink:href="#mcaaf250d6f" y="270.727844"/>
     <use style="fill:#cb495c;stroke:#cb495c;" x="147.896944" xlink:href="#mcaaf250d6f" y="267.261117"/>
     <use style="fill:#cb495c;stroke:#cb495c;" x="156.415276" xlink:href="#mcaaf250d6f" y="262.787083"/>
     <use style="fill:#cb495c;stroke:#cb495c;" x="165.839241" xlink:href="#mcaaf250d6f" y="255.635573"/>
     <use style="fill:#cb495c;stroke:#cb495c;" x="175.77826" xlink:href="#mcaaf250d6f" y="250.835053"/>
     <use style="fill:#cb495c;stroke:#cb495c;" x="186.347288" xlink:href="#mcaaf250d6f" y="247.348038"/>
     <use style="fill:#cb495c;stroke:#cb495c;" x="197.684726" xlink:href="#mcaaf250d6f" y="242.612084"/>
     <use style="fill:#cb495c;stroke:#cb495c;" x="209.493001" xlink:href="#mcaaf250d6f" y="238.10758"/>
     <use style="fill:#cb495c;stroke:#cb495c;" x="221.848068" xlink:href="#mcaaf250d6f" y="235.362331"/>
     <use style="fill:#cb495c;stroke:#cb495c;" x="234.867982" xlink:href="#mcaaf250d6f" y="232.432655"/>
     <use style="fill:#cb495c;stroke:#cb495c;" x="248.129459" xlink:href="#mcaaf250d6f" y="229.011022"/>
    </g>
   </g>
   <g id="PathCollection_3">
    <defs>
     <path d="M 0 3 
C 0.795609 3 1.55874 2.683901 2.12132 2.12132 
C 2.683901 1.55874 3 0.795609 3 0 
C 3 -0.795609 2.683901 -1.55874 2.12132 -2.12132 
C 1.55874 -2.683901 0.795609 -3 0 -3 
C -0.795609 -3 -1.55874 -2.683901 -2.12132 -2.12132 
C -2.683901 -1.55874 -3 -0.795609 -3 0 
C -3 0.795609 -2.683901 1.55874 -2.12132 2.12132 
C -1.55874 2.683901 -0.795609 3 0 3 
z
" id="m551086cd2b" style="stroke:#bb60d5;"/>
    </defs>
    <g clip-path="url(#p4971ba445f)">
     <use style="fill:#bb60d5;stroke:#bb60d5;" x="92.975801" xlink:href="#m551086cd2b" y="311.121289"/>
     <use style="fill:#bb60d5;stroke:#bb60d5;" x="92.840869" xlink:href="#m551086cd2b" y="310.374198"/>
     <use style="fill:#bb60d5;stroke:#bb60d5;" x="92.958866" xlink:href="#m551086cd2b" y="309.748401"/>
     <use style="fill:#bb60d5;stroke:#bb60d5;" x="93.090924" xlink:href="#m551086cd2b" y="309.09449"/>
     <use style="fill:#bb60d5;stroke:#bb60d5;" x="93.013657" xlink:href="#m551086cd2b" y="308.63553"/>
     <use style="fill:#bb60d5;stroke:#bb60d5;" x="92.994683" xlink:href="#m551086cd2b" y="308.43726"/>
     <use style="fill:#bb60d5;stroke:#bb60d5;" x="92.932552" xlink:href="#m551086cd2b" y="307.960012"/>
     <use style="fill:#bb60d5;stroke:#bb60d5;" x="92.981981" xlink:href="#m551086cd2b" y="307.529805"/>
     <use style="fill:#bb60d5;stroke:#bb60d5;" x="93.187004" xlink:href="#m551086cd2b" y="306.991894"/>
     <use style="fill:#bb60d5;stroke:#bb60d5;" x="93.613282" xlink:href="#m551086cd2b" y="306.571822"/>
     <use style="fill:#bb60d5;stroke:#bb60d5;" x="93.989547" xlink:href="#m551086cd2b" y="306.173997"/>
     <use style="fill:#bb60d5;stroke:#bb60d5;" x="94.407362" xlink:href="#m551086cd2b" y="305.506277"/>
     <use style="fill:#bb60d5;stroke:#bb60d5;" x="95.036454" xlink:href="#m551086cd2b" y="304.542081"/>
     <use style="fill:#bb60d5;stroke:#bb60d5;" x="95.645176" xlink:href="#m551086cd2b" y="303.231817"/>
     <use style="fill:#bb60d5;stroke:#bb60d5;" x="96.471639" xlink:href="#m551086cd2b" y="301.919668"/>
     <use style="fill:#bb60d5;stroke:#bb60d5;" x="97.600965" xlink:href="#m551086cd2b" y="300.859208"/>
     <use style="fill:#bb60d5;stroke:#bb60d5;" x="99.127451" xlink:href="#m551086cd2b" y="299.354056"/>
     <use style="fill:#bb60d5;stroke:#bb60d5;" x="101.013357" xlink:href="#m551086cd2b" y="298.016765"/>
     <use style="fill:#bb60d5;stroke:#bb60d5;" x="102.638074" xlink:href="#m551086cd2b" y="296.964906"/>
     <use style="fill:#bb60d5;stroke:#bb60d5;" x="104.324067" xlink:href="#m551086cd2b" y="295.37589"/>
     <use style="fill:#bb60d5;stroke:#bb60d5;" x="106.815971" xlink:href="#m551086cd2b" y="292.856832"/>
     <use style="fill:#bb60d5;stroke:#bb60d5;" x="109.764309" xlink:href="#m551086cd2b" y="289.834564"/>
     <use style="fill:#bb60d5;stroke:#bb60d5;" x="112.827375" xlink:href="#m551086cd2b" y="286.821285"/>
     <use style="fill:#bb60d5;stroke:#bb60d5;" x="116.08924" xlink:href="#m551086cd2b" y="286.80357"/>
     <use style="fill:#bb60d5;stroke:#bb60d5;" x="120.310013" xlink:href="#m551086cd2b" y="285.611138"/>
     <use style="fill:#bb60d5;stroke:#bb60d5;" x="124.329744" xlink:href="#m551086cd2b" y="281.687437"/>
     <use style="fill:#bb60d5;stroke:#bb60d5;" x="128.486237" xlink:href="#m551086cd2b" y="278.296332"/>
     <use style="fill:#bb60d5;stroke:#bb60d5;" x="133.35594" xlink:href="#m551086cd2b" y="273.459044"/>
     <use style="fill:#bb60d5;stroke:#bb60d5;" x="138.627757" xlink:href="#m551086cd2b" y="270.646149"/>
     <use style="fill:#bb60d5;stroke:#bb60d5;" x="144.50427" xlink:href="#m551086cd2b" y="267.988622"/>
     <use style="fill:#bb60d5;stroke:#bb60d5;" x="150.019176" xlink:href="#m551086cd2b" y="265.60004"/>
     <use style="fill:#bb60d5;stroke:#bb60d5;" x="154.970822" xlink:href="#m551086cd2b" y="263.979589"/>
     <use style="fill:#bb60d5;stroke:#bb60d5;" x="159.461417" xlink:href="#m551086cd2b" y="259.84173"/>
     <use style="fill:#bb60d5;stroke:#bb60d5;" x="164.21899" xlink:href="#m551086cd2b" y="254.708526"/>
     <use style="fill:#bb60d5;stroke:#bb60d5;" x="168.138155" xlink:href="#m551086cd2b" y="252.480424"/>
     <use style="fill:#bb60d5;stroke:#bb60d5;" x="173.250295" xlink:href="#m551086cd2b" y="245.490194"/>
     <use style="fill:#bb60d5;stroke:#bb60d5;" x="180.293498" xlink:href="#m551086cd2b" y="236.82914"/>
     <use style="fill:#bb60d5;stroke:#bb60d5;" x="188.595275" xlink:href="#m551086cd2b" y="231.12316"/>
     <use style="fill:#bb60d5;stroke:#bb60d5;" x="198.184373" xlink:href="#m551086cd2b" y="224.336663"/>
     <use style="fill:#bb60d5;stroke:#bb60d5;" x="208.226671" xlink:href="#m551086cd2b" y="220.019826"/>
     <use style="fill:#bb60d5;stroke:#bb60d5;" x="219.219553" xlink:href="#m551086cd2b" y="212.801308"/>
     <use style="fill:#bb60d5;stroke:#bb60d5;" x="231.542772" xlink:href="#m551086cd2b" y="204.988074"/>
     <use style="fill:#bb60d5;stroke:#bb60d5;" x="244.799062" xlink:href="#m551086cd2b" y="198.271029"/>
     <use style="fill:#bb60d5;stroke:#bb60d5;" x="259.124037" xlink:href="#m551086cd2b" y="190.269394"/>
     <use style="fill:#bb60d5;stroke:#bb60d5;" x="274.115893" xlink:href="#m551086cd2b" y="182.974074"/>
     <use style="fill:#bb60d5;stroke:#bb60d5;" x="288.690848" xlink:href="#m551086cd2b" y="175.656191"/>
     <use style="fill:#bb60d5;stroke:#bb60d5;" x="304.36891" xlink:href="#m551086cd2b" y="168.162246"/>
     <use style="fill:#bb60d5;stroke:#bb60d5;" x="320.577137" xlink:href="#m551086cd2b" y="163.207484"/>
     <use style="fill:#bb60d5;stroke:#bb60d5;" x="336.235461" xlink:href="#m551086cd2b" y="153.965479"/>
     <use style="fill:#bb60d5;stroke:#bb60d5;" x="352.764463" xlink:href="#m551086cd2b" y="144.65426"/>
     <use style="fill:#bb60d5;stroke:#bb60d5;" x="361.543829" xlink:href="#m551086cd2b" y="148.089952"/>
     <use style="fill:#bb60d5;stroke:#bb60d5;" x="370.202615" xlink:href="#m551086cd2b" y="139.459628"/>
     <use style="fill:#bb60d5;stroke:#bb60d5;" x="378.717828" xlink:href="#m551086cd2b" y="132.824866"/>
     <use style="fill:#bb60d5;stroke:#bb60d5;" x="390.11471" xlink:href="#m551086cd2b" y="121.347608"/>
     <use style="fill:#bb60d5;stroke:#bb60d5;" x="401.071808" xlink:href="#m551086cd2b" y="111.319375"/>
     <use style="fill:#bb60d5;stroke:#bb60d5;" x="411.431468" xlink:href="#m551086cd2b" y="100.454763"/>
     <use style="fill:#bb60d5;stroke:#bb60d5;" x="421.266503" xlink:href="#m551086cd2b" y="87.065852"/>
     <use style="fill:#bb60d5;stroke:#bb60d5;" x="427.154768" xlink:href="#m551086cd2b" y="86.241871"/>
     <use style="fill:#bb60d5;stroke:#bb60d5;" x="430.48719" xlink:href="#m551086cd2b" y="90.721295"/>
     <use style="fill:#bb60d5;stroke:#bb60d5;" x="438.503741" xlink:href="#m551086cd2b" y="66.96362"/>
     <use style="fill:#bb60d5;stroke:#bb60d5;" x="445.49248" xlink:href="#m551086cd2b" y="57.908368"/>
     <use style="fill:#bb60d5;stroke:#bb60d5;" x="450.711472" xlink:href="#m551086cd2b" y="53.371376"/>
     <use style="fill:#bb60d5;stroke:#bb60d5;" x="456.813291" xlink:href="#m551086cd2b" y="48.353905"/>
     <use style="fill:#bb60d5;stroke:#bb60d5;" x="463.208913" xlink:href="#m551086cd2b" y="38.117853"/>
     <use style="fill:#bb60d5;stroke:#bb60d5;" x="469.491988" xlink:href="#m551086cd2b" y="36.559028"/>
     <use style="fill:#bb60d5;stroke:#bb60d5;" x="476.082781" xlink:href="#m551086cd2b" y="32.914151"/>
     <use style="fill:#bb60d5;stroke:#bb60d5;" x="482.146032" xlink:href="#m551086cd2b" y="24.552691"/>
    </g>
   </g>
   <g id="text_17">
    <!-- China -->
    <g style="fill:#cb495c;" transform="translate(229.763832 252.594141)scale(0.16 -0.16)">
     <use xlink:href="#DejaVuSans-67"/>
     <use x="69.824219" xlink:href="#DejaVuSans-104"/>
     <use x="133.203125" xlink:href="#DejaVuSans-105"/>
     <use x="160.986328" xlink:href="#DejaVuSans-110"/>
     <use x="224.365234" xlink:href="#DejaVuSans-97"/>
    </g>
   </g>
   <g id="text_18">
    <!-- Taiwan -->
    <defs>
     <path d="M -0.296875 72.90625 
L 61.375 72.90625 
L 61.375 64.59375 
L 35.5 64.59375 
L 35.5 0 
L 25.59375 0 
L 25.59375 64.59375 
L -0.296875 64.59375 
z
" id="DejaVuSans-84"/>
     <path d="M 4.203125 54.6875 
L 13.1875 54.6875 
L 24.421875 12.015625 
L 35.59375 54.6875 
L 46.1875 54.6875 
L 57.421875 12.015625 
L 68.609375 54.6875 
L 77.59375 54.6875 
L 63.28125 0 
L 52.6875 0 
L 40.921875 44.828125 
L 29.109375 0 
L 18.5 0 
z
" id="DejaVuSans-119"/>
    </defs>
    <g style="fill:#bb60d5;" transform="translate(355.029838 170.910123)scale(0.16 -0.16)">
     <use xlink:href="#DejaVuSans-84"/>
     <use x="60.833984" xlink:href="#DejaVuSans-97"/>
     <use x="122.113281" xlink:href="#DejaVuSans-105"/>
     <use x="149.896484" xlink:href="#DejaVuSans-119"/>
     <use x="231.683594" xlink:href="#DejaVuSans-97"/>
     <use x="292.962891" xlink:href="#DejaVuSans-110"/>
    </g>
   </g>
   <g id="text_19">
    <!-- Korea -->
    <defs>
     <path d="M 9.8125 72.90625 
L 19.671875 72.90625 
L 19.671875 42.09375 
L 52.390625 72.90625 
L 65.09375 72.90625 
L 28.90625 38.921875 
L 67.671875 0 
L 54.6875 0 
L 19.671875 35.109375 
L 19.671875 0 
L 9.8125 0 
z
" id="DejaVuSans-75"/>
    </defs>
    <g style="fill:#165aa7;" transform="translate(355.029838 89.226105)scale(0.16 -0.16)">
     <use xlink:href="#DejaVuSans-75"/>
     <use x="65.498047" xlink:href="#DejaVuSans-111"/>
     <use x="126.679688" xlink:href="#DejaVuSans-114"/>
     <use x="167.761719" xlink:href="#DejaVuSans-101"/>
     <use x="229.285156" xlink:href="#DejaVuSans-97"/>
    </g>
   </g>
   <g id="patch_3">
    <path d="M 131.402626 239.762967 
Q 179.765253 205.909128 227.211951 172.696439 
" style="fill:none;stroke:#000000;stroke-linecap:round;"/>
    <path d="M 221.018558 173.613979 
L 227.211951 172.696439 
L 224.229947 178.201678 
" style="fill:none;stroke:#000000;stroke-linecap:round;"/>
   </g>
   <g id="text_20">
    <!-- From 1951  to 2017 -->
    <defs>
     <path d="M 9.8125 72.90625 
L 51.703125 72.90625 
L 51.703125 64.59375 
L 19.671875 64.59375 
L 19.671875 43.109375 
L 48.578125 43.109375 
L 48.578125 34.8125 
L 19.671875 34.8125 
L 19.671875 0 
L 9.8125 0 
z
" id="DejaVuSans-70"/>
     <path d="M 52 44.1875 
Q 55.375 50.25 60.0625 53.125 
Q 64.75 56 71.09375 56 
Q 79.640625 56 84.28125 50.015625 
Q 88.921875 44.046875 88.921875 33.015625 
L 88.921875 0 
L 79.890625 0 
L 79.890625 32.71875 
Q 79.890625 40.578125 77.09375 44.375 
Q 74.3125 48.1875 68.609375 48.1875 
Q 61.625 48.1875 57.5625 43.546875 
Q 53.515625 38.921875 53.515625 30.90625 
L 53.515625 0 
L 44.484375 0 
L 44.484375 32.71875 
Q 44.484375 40.625 41.703125 44.40625 
Q 38.921875 48.1875 33.109375 48.1875 
Q 26.21875 48.1875 22.15625 43.53125 
Q 18.109375 38.875 18.109375 30.90625 
L 18.109375 0 
L 9.078125 0 
L 9.078125 54.6875 
L 18.109375 54.6875 
L 18.109375 46.1875 
Q 21.1875 51.21875 25.484375 53.609375 
Q 29.78125 56 35.6875 56 
Q 41.65625 56 45.828125 52.96875 
Q 50 49.953125 52 44.1875 
z
" id="DejaVuSans-109"/>
     <path d="M 10.984375 1.515625 
L 10.984375 10.5 
Q 14.703125 8.734375 18.5 7.8125 
Q 22.3125 6.890625 25.984375 6.890625 
Q 35.75 6.890625 40.890625 13.453125 
Q 46.046875 20.015625 46.78125 33.40625 
Q 43.953125 29.203125 39.59375 26.953125 
Q 35.25 24.703125 29.984375 24.703125 
Q 19.046875 24.703125 12.671875 31.3125 
Q 6.296875 37.9375 6.296875 49.421875 
Q 6.296875 60.640625 12.9375 67.421875 
Q 19.578125 74.21875 30.609375 74.21875 
Q 43.265625 74.21875 49.921875 64.515625 
Q 56.59375 54.828125 56.59375 36.375 
Q 56.59375 19.140625 48.40625 8.859375 
Q 40.234375 -1.421875 26.421875 -1.421875 
Q 22.703125 -1.421875 18.890625 -0.6875 
Q 15.09375 0.046875 10.984375 1.515625 
z
M 30.609375 32.421875 
Q 37.25 32.421875 41.125 36.953125 
Q 45.015625 41.5 45.015625 49.421875 
Q 45.015625 57.28125 41.125 61.84375 
Q 37.25 66.40625 30.609375 66.40625 
Q 23.96875 66.40625 20.09375 61.84375 
Q 16.21875 57.28125 16.21875 49.421875 
Q 16.21875 41.5 20.09375 36.953125 
Q 23.96875 32.421875 30.609375 32.421875 
z
" id="DejaVuSans-57"/>
     <path d="M 10.796875 72.90625 
L 49.515625 72.90625 
L 49.515625 64.59375 
L 19.828125 64.59375 
L 19.828125 46.734375 
Q 21.96875 47.46875 24.109375 47.828125 
Q 26.265625 48.1875 28.421875 48.1875 
Q 40.625 48.1875 47.75 41.5 
Q 54.890625 34.8125 54.890625 23.390625 
Q 54.890625 11.625 47.5625 5.09375 
Q 40.234375 -1.421875 26.90625 -1.421875 
Q 22.3125 -1.421875 17.546875 -0.640625 
Q 12.796875 0.140625 7.71875 1.703125 
L 7.71875 11.625 
Q 12.109375 9.234375 16.796875 8.0625 
Q 21.484375 6.890625 26.703125 6.890625 
Q 35.15625 6.890625 40.078125 11.328125 
Q 45.015625 15.765625 45.015625 23.390625 
Q 45.015625 31 40.078125 35.4375 
Q 35.15625 39.890625 26.703125 39.890625 
Q 22.75 39.890625 18.8125 39.015625 
Q 14.890625 38.140625 10.796875 36.28125 
z
" id="DejaVuSans-53"/>
     <path d="M 8.203125 72.90625 
L 55.078125 72.90625 
L 55.078125 68.703125 
L 28.609375 0 
L 18.3125 0 
L 43.21875 64.59375 
L 8.203125 64.59375 
z
" id="DejaVuSans-55"/>
    </defs>
    <g transform="translate(79.444624 184.524126)scale(0.14 -0.14)">
     <use xlink:href="#DejaVuSans-70"/>
     <use x="57.410156" xlink:href="#DejaVuSans-114"/>
     <use x="98.492188" xlink:href="#DejaVuSans-111"/>
     <use x="159.673828" xlink:href="#DejaVuSans-109"/>
     <use x="257.085938" xlink:href="#DejaVuSans-32"/>
     <use x="288.873047" xlink:href="#DejaVuSans-49"/>
     <use x="352.496094" xlink:href="#DejaVuSans-57"/>
     <use x="416.119141" xlink:href="#DejaVuSans-53"/>
     <use x="479.742188" xlink:href="#DejaVuSans-49"/>
     <use x="543.365234" xlink:href="#DejaVuSans-32"/>
     <use x="575.152344" xlink:href="#DejaVuSans-32"/>
     <use x="606.939453" xlink:href="#DejaVuSans-116"/>
     <use x="646.148438" xlink:href="#DejaVuSans-111"/>
     <use x="707.330078" xlink:href="#DejaVuSans-32"/>
     <use x="739.117188" xlink:href="#DejaVuSans-50"/>
     <use x="802.740234" xlink:href="#DejaVuSans-48"/>
     <use x="866.363281" xlink:href="#DejaVuSans-49"/>
     <use x="929.986328" xlink:href="#DejaVuSans-55"/>
    </g>
   </g>
  </g>
 </g>
 <defs>
  <clipPath id="p4971ba445f">
   <rect height="326.16" width="446.4" x="58.77425" y="7.2"/>
  </clipPath>
 </defs>
</svg>
