<svg xmlns="http://www.w3.org/2000/svg" version="1.1" style="font-family:Lato, &#x27;Helvetica Neue&#x27;, Helvetica, Arial, sans-serif;font-size:18px;background-color:white;text-rendering:optimizeLegibility;-webkit-font-smoothing:antialiased" width="850" height="600" viewBox="0 0 850 600"><g class="HeaderView"><g transform="translate(774, 15) scale(0.29)"><svg width="210" height="120" viewBox="0 0 210 120" fill="none" xmlns="http://www.w3.org/2000/svg">
<g clip-path="url(#clip0)">
  <path d="M0 0h210v107.89H0V0z" fill="#002147" />
  <path
    d="M40.98 32.25c0 2.36-.38 4.53-1.12 6.51a14.26 14.26 0 0 1-8.1 8.4c-1.9.78-4.02 1.17-6.34 1.17-2.31 0-4.42-.39-6.33-1.17a14.31 14.31 0 0 1-8.08-8.4 18.29 18.29 0 0 1-1.12-6.51c0-2.36.38-4.53 1.12-6.5.75-1.97 1.8-3.67 3.17-5.1a14.32 14.32 0 0 1 4.9-3.34c1.92-.8 4.03-1.19 6.34-1.19 2.32 0 4.43.4 6.34 1.19 1.92.8 3.56 1.9 4.93 3.34a14.87 14.87 0 0 1 3.17 5.1 18.1 18.1 0 0 1 1.12 6.5zm-4.38 0c0-1.94-.26-3.68-.8-5.22a10.91 10.91 0 0 0-2.24-3.89 9.68 9.68 0 0 0-3.52-2.46 11.95 11.95 0 0 0-4.62-.86c-1.68 0-3.21.28-4.6.86a9.88 9.88 0 0 0-3.54 2.46 10.91 10.91 0 0 0-2.24 3.9c-.53 1.53-.8 3.27-.8 5.2 0 1.94.27 3.68.8 5.22a11.17 11.17 0 0 0 2.24 3.9 10.01 10.01 0 0 0 3.55 2.44c1.38.56 2.9.83 4.6.83s3.24-.27 4.61-.83a9.8 9.8 0 0 0 3.52-2.44 11.17 11.17 0 0 0 2.25-3.9c.53-1.54.8-3.28.8-5.21zm26.22-6.54V48H60.5c-.56 0-.9-.27-1.05-.81l-.31-2.4a12.45 12.45 0 0 1-3.26 2.6c-1.2.64-2.58.96-4.13.96-1.22 0-2.3-.2-3.24-.6a6.52 6.52 0 0 1-2.33-1.7 7.37 7.37 0 0 1-1.43-2.67c-.3-1.04-.46-2.2-.46-3.45V25.7h3.91v14.22c0 1.68.38 2.99 1.15 3.91.77.93 1.96 1.39 3.54 1.39 1.16 0 2.24-.27 3.23-.82a10.42 10.42 0 0 0 2.8-2.28V25.7h3.91zm8.61 4.47a9.94 9.94 0 0 1 2.6-3.56 5.64 5.64 0 0 1 3.76-1.3c.47 0 .92.05 1.34.15.44.1.83.27 1.17.49l-.3 2.92c-.09.37-.3.55-.66.55-.2 0-.5-.04-.9-.13a6.21 6.21 0 0 0-3.24.18 4.23 4.23 0 0 0-1.47.92c-.42.4-.81.9-1.17 1.5-.33.58-.64 1.26-.92 2.02V48H67.7V25.71h2.25c.42 0 .72.08.88.25.16.16.27.44.33.83l.26 3.39zm61.16-13.7L122.75 48h-3.82l-7.99-24.05a21.95 21.95 0 0 1-.42-1.58 38.36 38.36 0 0 1-.44 1.58L102.05 48h-3.83L88.4 16.47h3.54c.38 0 .7.1.95.29.26.2.43.43.5.73l6.52 21.9.28 1.28.29 1.46.3-1.46.38-1.27 7.41-21.91c.1-.25.26-.48.51-.69.27-.22.58-.33.95-.33h1.23c.38 0 .69.1.92.29a1.77 1.77 0 0 1 .53.73l7.4 21.9a28.4 28.4 0 0 1 .68 2.62 29.52 29.52 0 0 1 .52-2.61l6.54-21.91a1.31 1.31 0 0 1 .48-.7c.27-.21.58-.32.95-.32h3.32zm9.35 8.88c1.63 0 3.1.27 4.4.82a9.43 9.43 0 0 1 5.46 5.94c.5 1.4.74 2.98.74 4.73 0 1.76-.25 3.34-.74 4.75a9.43 9.43 0 0 1-5.46 5.92c-1.3.52-2.77.79-4.4.79-1.64 0-3.12-.27-4.44-.8a9.42 9.42 0 0 1-3.35-2.3c-.92-1-1.63-2.2-2.13-3.61-.49-1.41-.73-3-.73-4.75s.24-3.33.73-4.73c.5-1.43 1.2-2.64 2.13-3.63.93-1 2.04-1.77 3.35-2.31 1.32-.55 2.8-.82 4.44-.82zm0 19.89c2.2 0 3.84-.73 4.93-2.2 1.08-1.48 1.63-3.54 1.63-6.18 0-2.66-.55-4.72-1.63-6.2-1.09-1.49-2.73-2.23-4.93-2.23-1.12 0-2.09.2-2.93.57a5.71 5.71 0 0 0-2.06 1.65c-.55.72-.96 1.61-1.24 2.67-.26 1.04-.4 2.22-.4 3.54 0 2.64.55 4.7 1.64 6.18 1.1 1.47 2.76 2.2 4.99 2.2zm17.97-15.07a9.94 9.94 0 0 1 2.6-3.56 5.64 5.64 0 0 1 3.76-1.3c.47 0 .91.05 1.34.15.44.1.83.27 1.16.49l-.28 2.92c-.09.37-.31.55-.66.55-.2 0-.5-.04-.9-.13a6.2 6.2 0 0 0-3.24.18 4.23 4.23 0 0 0-1.47.92c-.43.4-.82.9-1.17 1.5a13.1 13.1 0 0 0-.92 2.02V48h-3.94V25.71h2.24c.43 0 .72.08.88.25.17.16.28.44.33.83l.27 3.39zm15.04-14.59V48h-3.92V15.6h3.92zm19.55 15.43a6.22 6.22 0 0 0-2.38-2.05 6.7 6.7 0 0 0-2.86-.6c-2.07 0-3.66.75-4.77 2.23-1.12 1.48-1.68 3.6-1.68 6.33 0 1.46.13 2.7.38 3.74a7.29 7.29 0 0 0 1.1 2.56 4.35 4.35 0 0 0 1.78 1.45c.7.3 1.5.46 2.4.46 1.29 0 2.41-.3 3.36-.88a9.6 9.6 0 0 0 2.67-2.49V31.02zm3.91-15.43V48h-2.33c-.56 0-.9-.27-1.06-.81l-.35-2.71a12.13 12.13 0 0 1-3.25 2.77 8.28 8.28 0 0 1-4.23 1.06 7.31 7.31 0 0 1-6.14-2.9c-.73-.96-1.3-2.15-1.69-3.57a18.35 18.35 0 0 1 .07-9.48 11.29 11.29 0 0 1 1.89-3.7 8.7 8.7 0 0 1 7.06-3.34 7.96 7.96 0 0 1 6.12 2.62V15.59h3.91zM46.61 70.71V93H42.7V70.71h3.91zm.84-7c0 .39-.08.75-.24 1.09-.15.32-.35.61-.62.88-.25.25-.55.44-.9.59a2.67 2.67 0 0 1-2.16 0 2.9 2.9 0 0 1-1.45-1.47 2.67 2.67 0 0 1 0-2.16c.15-.35.35-.65.6-.9.25-.27.53-.47.85-.62a2.67 2.67 0 0 1 2.16 0c.35.15.65.35.9.62.27.25.47.55.62.9.16.34.24.7.24 1.08zm7.97 10.24c.49-.54 1-1.04 1.54-1.48a9.85 9.85 0 0 1 3.66-1.84 8.96 8.96 0 0 1 5.43.35c.94.4 1.72.97 2.33 1.71.63.74 1.11 1.62 1.43 2.67.32 1.04.49 2.19.49 3.45V93h-3.94V78.81c0-1.69-.4-3-1.17-3.92-.76-.93-1.93-1.4-3.5-1.4-1.15 0-2.24.27-3.25.83-1 .56-1.92 1.31-2.77 2.27V93h-3.94V70.71h2.35c.56 0 .9.28 1.04.82l.3 2.42zm57.7 3.3c0 2.36-.37 4.5-1.11 6.44a14.3 14.3 0 0 1-3.17 4.98c-1.37 1.37-3 2.45-4.93 3.2-1.9.76-4.02 1.13-6.33 1.13H85.8V61.47h11.77c2.31 0 4.42.39 6.33 1.15a13.8 13.8 0 0 1 8.1 8.18 17.75 17.75 0 0 1 1.12 6.45zm-4.37 0c0-1.94-.26-3.67-.8-5.2a10.94 10.94 0 0 0-2.23-3.87 9.57 9.57 0 0 0-3.53-2.42 12.23 12.23 0 0 0-4.61-.83h-7.5v24.62h7.5c1.7 0 3.24-.28 4.61-.84a9.7 9.7 0 0 0 3.53-2.4 10.94 10.94 0 0 0 2.24-3.87c.53-1.53.8-3.26.8-5.2zm19.8 5.72c-1.8.06-3.34.2-4.62.44-1.26.22-2.3.51-3.1.88-.8.36-1.37.8-1.74 1.3-.35.5-.53 1.05-.53 1.67 0 .58.1 1.1.3 1.52a3 3 0 0 0 .76 1.05c.34.27.73.46 1.17.6a6.13 6.13 0 0 0 1.45.17 7.28 7.28 0 0 0 3.5-.81 11.95 11.95 0 0 0 2.82-2.2v-4.62zm-12.65-9.11a12.73 12.73 0 0 1 3.98-2.66c1.43-.59 3-.88 4.73-.88 1.25 0 2.36.2 3.33.61a6.81 6.81 0 0 1 3.94 4.38c.33 1.04.5 2.19.5 3.43V93h-1.74a1.8 1.8 0 0 1-.88-.18c-.2-.13-.36-.38-.48-.74l-.44-2.12-1.72 1.46a9.48 9.48 0 0 1-3.74 1.7c-.69.15-1.46.23-2.3.23-.87 0-1.69-.12-2.45-.35a5.34 5.34 0 0 1-3.34-2.93 6.64 6.64 0 0 1-.49-2.64c0-.88.25-1.72.73-2.53a6.33 6.33 0 0 1 2.35-2.17c1.09-.63 2.5-1.15 4.25-1.54 1.75-.41 3.89-.65 6.42-.7v-1.75c0-1.73-.37-3.03-1.12-3.91-.75-.9-1.84-1.34-3.28-1.34-.97 0-1.78.12-2.44.37-.64.23-1.2.5-1.7.81l-1.23.82c-.33.23-.67.35-1 .35-.27 0-.5-.07-.69-.2a2.1 2.1 0 0 1-.48-.53l-.7-1.25zm27.67 19.5c-1.76 0-3.12-.5-4.07-1.48-.94-.98-1.41-2.4-1.41-4.25V74h-2.68a.9.9 0 0 1-.6-.2c-.16-.14-.24-.36-.24-.66v-1.56l3.65-.46.9-6.89c.05-.22.14-.4.29-.52a.88.88 0 0 1 .62-.22H142v7.67h6.44V74H142v13.38c0 .94.22 1.63.68 2.09.45.45 1.04.68 1.76.68a3.21 3.21 0 0 0 1.85-.53l.55-.35c.16-.12.3-.18.41-.18.2 0 .4.13.55.38l1.15 1.87a7.45 7.45 0 0 1-2.44 1.5 8.53 8.53 0 0 1-2.95.52zm19.68-10.4c-1.8.07-3.34.21-4.62.45-1.26.22-2.3.51-3.1.88-.8.36-1.37.8-1.74 1.3-.35.5-.53 1.05-.53 1.67 0 .58.1 1.1.3 1.52a2.9 2.9 0 0 0 .76 1.05c.34.27.73.46 1.17.6a6.13 6.13 0 0 0 1.45.17 7.3 7.3 0 0 0 3.5-.81 12.04 12.04 0 0 0 2.82-2.2v-4.62zm-12.65-9.1a12.72 12.72 0 0 1 3.99-2.66c1.42-.59 3-.88 4.72-.88 1.25 0 2.36.2 3.33.61a6.81 6.81 0 0 1 3.94 4.38c.33 1.04.5 2.19.5 3.43V93h-1.74a1.8 1.8 0 0 1-.88-.18c-.2-.13-.36-.38-.48-.74l-.44-2.12-1.72 1.46a9.48 9.48 0 0 1-3.74 1.7c-.69.15-1.46.23-2.3.23-.87 0-1.69-.12-2.45-.35a5.33 5.33 0 0 1-3.34-2.93 6.62 6.62 0 0 1-.49-2.64c0-.88.25-1.72.73-2.53a6.33 6.33 0 0 1 2.35-2.17c1.09-.63 2.5-1.15 4.25-1.54 1.74-.41 3.89-.65 6.42-.7v-1.75c0-1.73-.37-3.03-1.12-3.91-.75-.9-1.84-1.34-3.28-1.34-.97 0-1.78.12-2.44.37-.64.23-1.2.5-1.7.81l-1.22.82c-.34.23-.68.35-1.02.35-.26 0-.49-.07-.68-.2a1.88 1.88 0 0 1-.48-.53l-.7-1.25zM40.98 32.25c0 2.36-.38 4.53-1.12 6.51a14.26 14.26 0 0 1-8.1 8.4c-1.9.78-4.02 1.17-6.34 1.17-2.31 0-4.42-.39-6.33-1.17a14.31 14.31 0 0 1-8.08-8.4 18.29 18.29 0 0 1-1.12-6.51c0-2.36.38-4.53 1.12-6.5.75-1.97 1.8-3.67 3.17-5.1a14.32 14.32 0 0 1 4.9-3.34c1.92-.8 4.03-1.19 6.34-1.19 2.32 0 4.43.4 6.34 1.19 1.92.8 3.56 1.9 4.93 3.34a14.87 14.87 0 0 1 3.17 5.1 18.1 18.1 0 0 1 1.12 6.5zm-4.38 0c0-1.94-.26-3.68-.8-5.22a10.91 10.91 0 0 0-2.24-3.89 9.68 9.68 0 0 0-3.52-2.46 11.95 11.95 0 0 0-4.62-.86c-1.68 0-3.21.28-4.6.86a9.88 9.88 0 0 0-3.54 2.46 10.91 10.91 0 0 0-2.24 3.9c-.53 1.53-.8 3.27-.8 5.2 0 1.94.27 3.68.8 5.22a11.17 11.17 0 0 0 2.24 3.9 10.01 10.01 0 0 0 3.55 2.44c1.38.56 2.9.83 4.6.83s3.24-.27 4.61-.83a9.8 9.8 0 0 0 3.52-2.44 11.17 11.17 0 0 0 2.25-3.9c.53-1.54.8-3.28.8-5.21zm26.22-6.54V48H60.5c-.56 0-.9-.27-1.05-.81l-.31-2.4a12.45 12.45 0 0 1-3.26 2.6c-1.2.64-2.58.96-4.13.96-1.22 0-2.3-.2-3.24-.6a6.52 6.52 0 0 1-2.33-1.7 7.37 7.37 0 0 1-1.43-2.67c-.3-1.04-.46-2.2-.46-3.45V25.7h3.91v14.22c0 1.68.38 2.99 1.15 3.91.77.93 1.96 1.39 3.54 1.39 1.16 0 2.24-.27 3.23-.82a10.42 10.42 0 0 0 2.8-2.28V25.7h3.91zm8.61 4.47a9.94 9.94 0 0 1 2.6-3.56 5.64 5.64 0 0 1 3.76-1.3c.47 0 .92.05 1.34.15.44.1.83.27 1.17.49l-.3 2.92c-.09.37-.3.55-.66.55-.2 0-.5-.04-.9-.13a6.21 6.21 0 0 0-3.24.18 4.23 4.23 0 0 0-1.47.92c-.42.4-.81.9-1.17 1.5-.33.58-.64 1.26-.92 2.02V48H67.7V25.71h2.25c.42 0 .72.08.88.25.16.16.27.44.33.83l.26 3.39zm61.16-13.7L122.75 48h-3.82l-7.99-24.05a21.95 21.95 0 0 1-.42-1.58 38.36 38.36 0 0 1-.44 1.58L102.05 48h-3.83L88.4 16.47h3.54c.38 0 .7.1.95.29.26.2.43.43.5.73l6.52 21.9.28 1.28.29 1.46.3-1.46.38-1.27 7.41-21.91c.1-.25.26-.48.51-.69.27-.22.58-.33.95-.33h1.23c.38 0 .69.1.92.29a1.77 1.77 0 0 1 .53.73l7.4 21.9a28.4 28.4 0 0 1 .68 2.62 29.52 29.52 0 0 1 .52-2.61l6.54-21.91a1.31 1.31 0 0 1 .48-.7c.27-.21.58-.32.95-.32h3.32zm9.35 8.88c1.63 0 3.1.27 4.4.82a9.43 9.43 0 0 1 5.46 5.94c.5 1.4.74 2.98.74 4.73 0 1.76-.25 3.34-.74 4.75a9.43 9.43 0 0 1-5.46 5.92c-1.3.52-2.77.79-4.4.79-1.64 0-3.12-.27-4.44-.8a9.42 9.42 0 0 1-3.35-2.3c-.92-1-1.63-2.2-2.13-3.61-.49-1.41-.73-3-.73-4.75s.24-3.33.73-4.73c.5-1.43 1.2-2.64 2.13-3.63.93-1 2.04-1.77 3.35-2.31 1.32-.55 2.8-.82 4.44-.82zm0 19.89c2.2 0 3.84-.73 4.93-2.2 1.08-1.48 1.63-3.54 1.63-6.18 0-2.66-.55-4.72-1.63-6.2-1.09-1.49-2.73-2.23-4.93-2.23-1.12 0-2.09.2-2.93.57a5.71 5.71 0 0 0-2.06 1.65c-.55.72-.96 1.61-1.24 2.67-.26 1.04-.4 2.22-.4 3.54 0 2.64.55 4.7 1.64 6.18 1.1 1.47 2.76 2.2 4.99 2.2zm17.97-15.07a9.94 9.94 0 0 1 2.6-3.56 5.64 5.64 0 0 1 3.76-1.3c.47 0 .91.05 1.34.15.44.1.83.27 1.16.49l-.28 2.92c-.09.37-.31.55-.66.55-.2 0-.5-.04-.9-.13a6.2 6.2 0 0 0-3.24.18 4.23 4.23 0 0 0-1.47.92c-.43.4-.82.9-1.17 1.5a13.1 13.1 0 0 0-.92 2.02V48h-3.94V25.71h2.24c.43 0 .72.08.88.25.17.16.28.44.33.83l.27 3.39zm15.04-14.59V48h-3.92V15.6h3.92zm19.55 15.43a6.22 6.22 0 0 0-2.38-2.05 6.7 6.7 0 0 0-2.86-.6c-2.07 0-3.66.75-4.77 2.23-1.12 1.48-1.68 3.6-1.68 6.33 0 1.46.13 2.7.38 3.74a7.29 7.29 0 0 0 1.1 2.56 4.35 4.35 0 0 0 1.78 1.45c.7.3 1.5.46 2.4.46 1.29 0 2.41-.3 3.36-.88a9.6 9.6 0 0 0 2.67-2.49V31.02zm3.91-15.43V48h-2.33c-.56 0-.9-.27-1.06-.81l-.35-2.71a12.13 12.13 0 0 1-3.25 2.77 8.28 8.28 0 0 1-4.23 1.06 7.31 7.31 0 0 1-6.14-2.9c-.73-.96-1.3-2.15-1.69-3.57a18.35 18.35 0 0 1 .07-9.48 11.29 11.29 0 0 1 1.89-3.7 8.7 8.7 0 0 1 7.06-3.34 7.96 7.96 0 0 1 6.12 2.62V15.59h3.91zM46.61 70.71V93H42.7V70.71h3.91zm.84-7c0 .39-.08.75-.24 1.09-.15.32-.35.61-.62.88-.25.25-.55.44-.9.59a2.67 2.67 0 0 1-2.16 0 2.9 2.9 0 0 1-1.45-1.47 2.67 2.67 0 0 1 0-2.16c.15-.35.35-.65.6-.9.25-.27.53-.47.85-.62a2.67 2.67 0 0 1 2.16 0c.35.15.65.35.9.62.27.25.47.55.62.9.16.34.24.7.24 1.08zm7.97 10.24c.49-.54 1-1.04 1.54-1.48a9.85 9.85 0 0 1 3.66-1.84 8.96 8.96 0 0 1 5.43.35c.94.4 1.72.97 2.33 1.71.63.74 1.11 1.62 1.43 2.67.32 1.04.49 2.19.49 3.45V93h-3.94V78.81c0-1.69-.4-3-1.17-3.92-.76-.93-1.93-1.4-3.5-1.4-1.15 0-2.24.27-3.25.83-1 .56-1.92 1.31-2.77 2.27V93h-3.94V70.71h2.35c.56 0 .9.28 1.04.82l.3 2.42zm57.7 3.3c0 2.36-.37 4.5-1.11 6.44a14.3 14.3 0 0 1-3.17 4.98c-1.37 1.37-3 2.45-4.93 3.2-1.9.76-4.02 1.13-6.33 1.13H85.8V61.47h11.77c2.31 0 4.42.39 6.33 1.15a13.8 13.8 0 0 1 8.1 8.18 17.75 17.75 0 0 1 1.12 6.45zm-4.37 0c0-1.94-.26-3.67-.8-5.2a10.94 10.94 0 0 0-2.23-3.87 9.57 9.57 0 0 0-3.53-2.42 12.23 12.23 0 0 0-4.61-.83h-7.5v24.62h7.5c1.7 0 3.24-.28 4.61-.84a9.7 9.7 0 0 0 3.53-2.4 10.94 10.94 0 0 0 2.24-3.87c.53-1.53.8-3.26.8-5.2zm19.8 5.72c-1.8.06-3.34.2-4.62.44-1.26.22-2.3.51-3.1.88-.8.36-1.37.8-1.74 1.3-.35.5-.53 1.05-.53 1.67 0 .58.1 1.1.3 1.52a3 3 0 0 0 .76 1.05c.34.27.73.46 1.17.6a6.13 6.13 0 0 0 1.45.17 7.28 7.28 0 0 0 3.5-.81 11.95 11.95 0 0 0 2.82-2.2v-4.62zm-12.65-9.11a12.73 12.73 0 0 1 3.98-2.66c1.43-.59 3-.88 4.73-.88 1.25 0 2.36.2 3.33.61a6.81 6.81 0 0 1 3.94 4.38c.33 1.04.5 2.19.5 3.43V93h-1.74a1.8 1.8 0 0 1-.88-.18c-.2-.13-.36-.38-.48-.74l-.44-2.12-1.72 1.46a9.48 9.48 0 0 1-3.74 1.7c-.69.15-1.46.23-2.3.23-.87 0-1.69-.12-2.45-.35a5.34 5.34 0 0 1-3.34-2.93 6.64 6.64 0 0 1-.49-2.64c0-.88.25-1.72.73-2.53a6.33 6.33 0 0 1 2.35-2.17c1.09-.63 2.5-1.15 4.25-1.54 1.75-.41 3.89-.65 6.42-.7v-1.75c0-1.73-.37-3.03-1.12-3.91-.75-.9-1.84-1.34-3.28-1.34-.97 0-1.78.12-2.44.37-.64.23-1.2.5-1.7.81l-1.23.82c-.33.23-.67.35-1 .35-.27 0-.5-.07-.69-.2a2.1 2.1 0 0 1-.48-.53l-.7-1.25zm27.67 19.5c-1.76 0-3.12-.5-4.07-1.48-.94-.98-1.41-2.4-1.41-4.25V74h-2.68a.9.9 0 0 1-.6-.2c-.16-.14-.24-.36-.24-.66v-1.56l3.65-.46.9-6.89c.05-.22.14-.4.29-.52a.88.88 0 0 1 .62-.22H142v7.67h6.44V74H142v13.38c0 .94.22 1.63.68 2.09.45.45 1.04.68 1.76.68a3.21 3.21 0 0 0 1.85-.53l.55-.35c.16-.12.3-.18.41-.18.2 0 .4.13.55.38l1.15 1.87a7.45 7.45 0 0 1-2.44 1.5 8.53 8.53 0 0 1-2.95.52zm19.68-10.4c-1.8.07-3.34.21-4.62.45-1.26.22-2.3.51-3.1.88-.8.36-1.37.8-1.74 1.3-.35.5-.53 1.05-.53 1.67 0 .58.1 1.1.3 1.52a2.9 2.9 0 0 0 .76 1.05c.34.27.73.46 1.17.6a6.13 6.13 0 0 0 1.45.17 7.3 7.3 0 0 0 3.5-.81 12.04 12.04 0 0 0 2.82-2.2v-4.62zm-12.65-9.1a12.72 12.72 0 0 1 3.99-2.66c1.42-.59 3-.88 4.72-.88 1.25 0 2.36.2 3.33.61a6.81 6.81 0 0 1 3.94 4.38c.33 1.04.5 2.19.5 3.43V93h-1.74a1.8 1.8 0 0 1-.88-.18c-.2-.13-.36-.38-.48-.74l-.44-2.12-1.72 1.46a9.48 9.48 0 0 1-3.74 1.7c-.69.15-1.46.23-2.3.23-.87 0-1.69-.12-2.45-.35a5.33 5.33 0 0 1-3.34-2.93 6.62 6.62 0 0 1-.49-2.64c0-.88.25-1.72.73-2.53a6.33 6.33 0 0 1 2.35-2.17c1.09-.63 2.5-1.15 4.25-1.54 1.74-.41 3.89-.65 6.42-.7v-1.75c0-1.73-.37-3.03-1.12-3.91-.75-.9-1.84-1.34-3.28-1.34-.97 0-1.78.12-2.44.37-.64.23-1.2.5-1.7.81l-1.22.82c-.34.23-.68.35-1.02.35-.26 0-.49-.07-.68-.2a1.88 1.88 0 0 1-.48-.53l-.7-1.25zM40.98 32.25c0 2.36-.38 4.53-1.12 6.51a14.26 14.26 0 0 1-8.1 8.4c-1.9.78-4.02 1.17-6.34 1.17-2.31 0-4.42-.39-6.33-1.17a14.31 14.31 0 0 1-8.08-8.4 18.29 18.29 0 0 1-1.12-6.51c0-2.36.38-4.53 1.12-6.5.75-1.97 1.8-3.67 3.17-5.1a14.32 14.32 0 0 1 4.9-3.34c1.92-.8 4.03-1.19 6.34-1.19 2.32 0 4.43.4 6.34 1.19 1.92.8 3.56 1.9 4.93 3.34a14.87 14.87 0 0 1 3.17 5.1 18.1 18.1 0 0 1 1.12 6.5zm-4.38 0c0-1.94-.26-3.68-.8-5.22a10.91 10.91 0 0 0-2.24-3.89 9.68 9.68 0 0 0-3.52-2.46 11.95 11.95 0 0 0-4.62-.86c-1.68 0-3.21.28-4.6.86a9.88 9.88 0 0 0-3.54 2.46 10.91 10.91 0 0 0-2.24 3.9c-.53 1.53-.8 3.27-.8 5.2 0 1.94.27 3.68.8 5.22a11.17 11.17 0 0 0 2.24 3.9 10.01 10.01 0 0 0 3.55 2.44c1.38.56 2.9.83 4.6.83s3.24-.27 4.61-.83a9.8 9.8 0 0 0 3.52-2.44 11.17 11.17 0 0 0 2.25-3.9c.53-1.54.8-3.28.8-5.21zm26.22-6.54V48H60.5c-.56 0-.9-.27-1.05-.81l-.31-2.4a12.45 12.45 0 0 1-3.26 2.6c-1.2.64-2.58.96-4.13.96-1.22 0-2.3-.2-3.24-.6a6.52 6.52 0 0 1-2.33-1.7 7.37 7.37 0 0 1-1.43-2.67c-.3-1.04-.46-2.2-.46-3.45V25.7h3.91v14.22c0 1.68.38 2.99 1.15 3.91.77.93 1.96 1.39 3.54 1.39 1.16 0 2.24-.27 3.23-.82a10.42 10.42 0 0 0 2.8-2.28V25.7h3.91zm8.61 4.47a9.94 9.94 0 0 1 2.6-3.56 5.64 5.64 0 0 1 3.76-1.3c.47 0 .92.05 1.34.15.44.1.83.27 1.17.49l-.3 2.92c-.09.37-.3.55-.66.55-.2 0-.5-.04-.9-.13a6.21 6.21 0 0 0-3.24.18 4.23 4.23 0 0 0-1.47.92c-.42.4-.81.9-1.17 1.5-.33.58-.64 1.26-.92 2.02V48H67.7V25.71h2.25c.42 0 .72.08.88.25.16.16.27.44.33.83l.26 3.39zm61.16-13.7L122.75 48h-3.82l-7.99-24.05a21.95 21.95 0 0 1-.42-1.58 38.36 38.36 0 0 1-.44 1.58L102.05 48h-3.83L88.4 16.47h3.54c.38 0 .7.1.95.29.26.2.43.43.5.73l6.52 21.9.28 1.28.29 1.46.3-1.46.38-1.27 7.41-21.91c.1-.25.26-.48.51-.69.27-.22.58-.33.95-.33h1.23c.38 0 .69.1.92.29a1.77 1.77 0 0 1 .53.73l7.4 21.9a28.4 28.4 0 0 1 .68 2.62 29.52 29.52 0 0 1 .52-2.61l6.54-21.91a1.31 1.31 0 0 1 .48-.7c.27-.21.58-.32.95-.32h3.32zm9.35 8.88c1.63 0 3.1.27 4.4.82a9.43 9.43 0 0 1 5.46 5.94c.5 1.4.74 2.98.74 4.73 0 1.76-.25 3.34-.74 4.75a9.43 9.43 0 0 1-5.46 5.92c-1.3.52-2.77.79-4.4.79-1.64 0-3.12-.27-4.44-.8a9.42 9.42 0 0 1-3.35-2.3c-.92-1-1.63-2.2-2.13-3.61-.49-1.41-.73-3-.73-4.75s.24-3.33.73-4.73c.5-1.43 1.2-2.64 2.13-3.63.93-1 2.04-1.77 3.35-2.31 1.32-.55 2.8-.82 4.44-.82zm0 19.89c2.2 0 3.84-.73 4.93-2.2 1.08-1.48 1.63-3.54 1.63-6.18 0-2.66-.55-4.72-1.63-6.2-1.09-1.49-2.73-2.23-4.93-2.23-1.12 0-2.09.2-2.93.57a5.71 5.71 0 0 0-2.06 1.65c-.55.72-.96 1.61-1.24 2.67-.26 1.04-.4 2.22-.4 3.54 0 2.64.55 4.7 1.64 6.18 1.1 1.47 2.76 2.2 4.99 2.2zm17.97-15.07a9.94 9.94 0 0 1 2.6-3.56 5.64 5.64 0 0 1 3.76-1.3c.47 0 .91.05 1.34.15.44.1.83.27 1.16.49l-.28 2.92c-.09.37-.31.55-.66.55-.2 0-.5-.04-.9-.13a6.2 6.2 0 0 0-3.24.18 4.23 4.23 0 0 0-1.47.92c-.43.4-.82.9-1.17 1.5a13.1 13.1 0 0 0-.92 2.02V48h-3.94V25.71h2.24c.43 0 .72.08.88.25.17.16.28.44.33.83l.27 3.39zm15.04-14.59V48h-3.92V15.6h3.92zm19.55 15.43a6.22 6.22 0 0 0-2.38-2.05 6.7 6.7 0 0 0-2.86-.6c-2.07 0-3.66.75-4.77 2.23-1.12 1.48-1.68 3.6-1.68 6.33 0 1.46.13 2.7.38 3.74a7.29 7.29 0 0 0 1.1 2.56 4.35 4.35 0 0 0 1.78 1.45c.7.3 1.5.46 2.4.46 1.29 0 2.41-.3 3.36-.88a9.6 9.6 0 0 0 2.67-2.49V31.02zm3.91-15.43V48h-2.33c-.56 0-.9-.27-1.06-.81l-.35-2.71a12.13 12.13 0 0 1-3.25 2.77 8.28 8.28 0 0 1-4.23 1.06 7.31 7.31 0 0 1-6.14-2.9c-.73-.96-1.3-2.15-1.69-3.57a18.35 18.35 0 0 1 .07-9.48 11.29 11.29 0 0 1 1.89-3.7 8.7 8.7 0 0 1 7.06-3.34 7.96 7.96 0 0 1 6.12 2.62V15.59h3.91zM46.61 70.71V93H42.7V70.71h3.91zm.84-7c0 .39-.08.75-.24 1.09-.15.32-.35.61-.62.88-.25.25-.55.44-.9.59a2.67 2.67 0 0 1-2.16 0 2.9 2.9 0 0 1-1.45-1.47 2.67 2.67 0 0 1 0-2.16c.15-.35.35-.65.6-.9.25-.27.53-.47.85-.62a2.67 2.67 0 0 1 2.16 0c.35.15.65.35.9.62.27.25.47.55.62.9.16.34.24.7.24 1.08zm7.97 10.24c.49-.54 1-1.04 1.54-1.48a9.85 9.85 0 0 1 3.66-1.84 8.96 8.96 0 0 1 5.43.35c.94.4 1.72.97 2.33 1.71.63.74 1.11 1.62 1.43 2.67.32 1.04.49 2.19.49 3.45V93h-3.94V78.81c0-1.69-.4-3-1.17-3.92-.76-.93-1.93-1.4-3.5-1.4-1.15 0-2.24.27-3.25.83-1 .56-1.92 1.31-2.77 2.27V93h-3.94V70.71h2.35c.56 0 .9.28 1.04.82l.3 2.42zm57.7 3.3c0 2.36-.37 4.5-1.11 6.44a14.3 14.3 0 0 1-3.17 4.98c-1.37 1.37-3 2.45-4.93 3.2-1.9.76-4.02 1.13-6.33 1.13H85.8V61.47h11.77c2.31 0 4.42.39 6.33 1.15a13.8 13.8 0 0 1 8.1 8.18 17.75 17.75 0 0 1 1.12 6.45zm-4.37 0c0-1.94-.26-3.67-.8-5.2a10.94 10.94 0 0 0-2.23-3.87 9.57 9.57 0 0 0-3.53-2.42 12.23 12.23 0 0 0-4.61-.83h-7.5v24.62h7.5c1.7 0 3.24-.28 4.61-.84a9.7 9.7 0 0 0 3.53-2.4 10.94 10.94 0 0 0 2.24-3.87c.53-1.53.8-3.26.8-5.2zm19.8 5.72c-1.8.06-3.34.2-4.62.44-1.26.22-2.3.51-3.1.88-.8.36-1.37.8-1.74 1.3-.35.5-.53 1.05-.53 1.67 0 .58.1 1.1.3 1.52a3 3 0 0 0 .76 1.05c.34.27.73.46 1.17.6a6.13 6.13 0 0 0 1.45.17 7.28 7.28 0 0 0 3.5-.81 11.95 11.95 0 0 0 2.82-2.2v-4.62zm-12.65-9.11a12.73 12.73 0 0 1 3.98-2.66c1.43-.59 3-.88 4.73-.88 1.25 0 2.36.2 3.33.61a6.81 6.81 0 0 1 3.94 4.38c.33 1.04.5 2.19.5 3.43V93h-1.74a1.8 1.8 0 0 1-.88-.18c-.2-.13-.36-.38-.48-.74l-.44-2.12-1.72 1.46a9.48 9.48 0 0 1-3.74 1.7c-.69.15-1.46.23-2.3.23-.87 0-1.69-.12-2.45-.35a5.34 5.34 0 0 1-3.34-2.93 6.64 6.64 0 0 1-.49-2.64c0-.88.25-1.72.73-2.53a6.33 6.33 0 0 1 2.35-2.17c1.09-.63 2.5-1.15 4.25-1.54 1.75-.41 3.89-.65 6.42-.7v-1.75c0-1.73-.37-3.03-1.12-3.91-.75-.9-1.84-1.34-3.28-1.34-.97 0-1.78.12-2.44.37-.64.23-1.2.5-1.7.81l-1.23.82c-.33.23-.67.35-1 .35-.27 0-.5-.07-.69-.2a2.1 2.1 0 0 1-.48-.53l-.7-1.25zm27.67 19.5c-1.76 0-3.12-.5-4.07-1.48-.94-.98-1.41-2.4-1.41-4.25V74h-2.68a.9.9 0 0 1-.6-.2c-.16-.14-.24-.36-.24-.66v-1.56l3.65-.46.9-6.89c.05-.22.14-.4.29-.52a.88.88 0 0 1 .62-.22H142v7.67h6.44V74H142v13.38c0 .94.22 1.63.68 2.09.45.45 1.04.68 1.76.68a3.21 3.21 0 0 0 1.85-.53l.55-.35c.16-.12.3-.18.41-.18.2 0 .4.13.55.38l1.15 1.87a7.45 7.45 0 0 1-2.44 1.5 8.53 8.53 0 0 1-2.95.52zm19.68-10.4c-1.8.07-3.34.21-4.62.45-1.26.22-2.3.51-3.1.88-.8.36-1.37.8-1.74 1.3-.35.5-.53 1.05-.53 1.67 0 .58.1 1.1.3 1.52a2.9 2.9 0 0 0 .76 1.05c.34.27.73.46 1.17.6a6.13 6.13 0 0 0 1.45.17 7.3 7.3 0 0 0 3.5-.81 12.04 12.04 0 0 0 2.82-2.2v-4.62zm-12.65-9.1a12.72 12.72 0 0 1 3.99-2.66c1.42-.59 3-.88 4.72-.88 1.25 0 2.36.2 3.33.61a6.81 6.81 0 0 1 3.94 4.38c.33 1.04.5 2.19.5 3.43V93h-1.74a1.8 1.8 0 0 1-.88-.18c-.2-.13-.36-.38-.48-.74l-.44-2.12-1.72 1.46a9.48 9.48 0 0 1-3.74 1.7c-.69.15-1.46.23-2.3.23-.87 0-1.69-.12-2.45-.35a5.33 5.33 0 0 1-3.34-2.93 6.62 6.62 0 0 1-.49-2.64c0-.88.25-1.72.73-2.53a6.33 6.33 0 0 1 2.35-2.17c1.09-.63 2.5-1.15 4.25-1.54 1.74-.41 3.89-.65 6.42-.7v-1.75c0-1.73-.37-3.03-1.12-3.91-.75-.9-1.84-1.34-3.28-1.34-.97 0-1.78.12-2.44.37-.64.23-1.2.5-1.7.81l-1.22.82c-.34.23-.68.35-1.02.35-.26 0-.49-.07-.68-.2a1.88 1.88 0 0 1-.48-.53l-.7-1.25z"
    fill="#fff"
  />
  <path fill="#D42B21" d="M0 106.79h210V120H0z" />
</g>
<defs>
  <clipPath id="clip0"><path fill="#fff" d="M0 0h210v120H0z" /></clipPath>
</defs>
</svg></g><a href="https://ourworldindata.org/grapher/population-by-broad-age-group?tab=chart&amp;stackMode=relative&amp;country=~JPN&amp;region=World" style="font-family:&quot;Playfair Display&quot;, Georgia, &quot;Times New Roman&quot;, serif" target="_blank" rel="noopener"><text font-size="25.20" x="15.0" y="35.2" fill="#555"><tspan x="15" y="35.160000000000004">Population by broad age group, Japan</tspan></text></a></g><g class="StackedArea"><defs><clipPath id="boundsClip-2"><rect x="61.634" y="0" width="820" height="977"></rect></clipPath></defs><g class="DualAxisView"><g class="HorizontalAxis"><line x1="61.6" y1="535.3" x2="61.6" y2="539.3" stroke="#ccc"></line><line x1="156.9" y1="535.3" x2="156.9" y2="539.3" stroke="#ccc"></line><line x1="252.2" y1="535.3" x2="252.2" y2="539.3" stroke="#ccc"></line><line x1="347.4" y1="535.3" x2="347.4" y2="539.3" stroke="#ccc"></line><line x1="442.7" y1="535.3" x2="442.7" y2="539.3" stroke="#ccc"></line><line x1="537.9" y1="535.3" x2="537.9" y2="539.3" stroke="#ccc"></line><line x1="633.2" y1="535.3" x2="633.2" y2="539.3" stroke="#ccc"></line><line x1="728.5" y1="535.3" x2="728.5" y2="539.3" stroke="#ccc"></line><text x="61.6" y="556.5" fill="#666" text-anchor="middle" font-size="16.2">1950</text><text x="156.9" y="556.5" fill="#666" text-anchor="middle" font-size="16.2">1960</text><text x="252.2" y="556.5" fill="#666" text-anchor="middle" font-size="16.2">1970</text><text x="347.4" y="556.5" fill="#666" text-anchor="middle" font-size="16.2">1980</text><text x="442.7" y="556.5" fill="#666" text-anchor="middle" font-size="16.2">1990</text><text x="537.9" y="556.5" fill="#666" text-anchor="middle" font-size="16.2">2000</text><text x="633.2" y="556.5" fill="#666" text-anchor="middle" font-size="16.2">2010</text><text x="728.5" y="556.5" fill="#666" text-anchor="middle" font-size="16.2">2020</text></g><g class="VerticalAxis"><text x="56.63" y="535.3" fill="#666" dominant-baseline="middle" text-anchor="end" font-size="16.2">0%</text><text x="56.63" y="441.8" fill="#666" dominant-baseline="middle" text-anchor="end" font-size="16.2">20%</text><text x="56.63" y="348.4" fill="#666" dominant-baseline="middle" text-anchor="end" font-size="16.2">40%</text><text x="56.63" y="254.9" fill="#666" dominant-baseline="middle" text-anchor="end" font-size="16.2">60%</text><text x="56.63" y="161.5" fill="#666" dominant-baseline="middle" text-anchor="end" font-size="16.2">80%</text><text x="56.63" y="68" fill="#666" dominant-baseline="middle" text-anchor="end" font-size="16.2">100%</text></g><g class="AxisGridLines horizontalLines"><line x1="61.63" y1="535.3" x2="728.45" y2="535.3" stroke="#ccc"></line><line x1="61.63" y1="441.8" x2="728.45" y2="441.8" stroke="#d3d3d3" stroke-dasharray="3,2"></line><line x1="61.63" y1="348.4" x2="728.45" y2="348.4" stroke="#d3d3d3" stroke-dasharray="3,2"></line><line x1="61.63" y1="254.9" x2="728.45" y2="254.9" stroke="#d3d3d3" stroke-dasharray="3,2"></line><line x1="61.63" y1="161.5" x2="728.45" y2="161.5" stroke="#d3d3d3" stroke-dasharray="3,2"></line><line x1="61.63" y1="68" x2="728.45" y2="68" stroke="#d3d3d3" stroke-dasharray="3,2"></line></g></g><g clip-path="url(#boundsClip-2)"><g class="LineLabels" style="cursor:default"><g class="legendMark"><rect x="728.45" y="127.65" width="94.805" height="13.5" fill="#fff" opacity="0"></rect><text font-size="13.50" x="732.5" y="138.5" fill="#2a939b"><tspan x="732.45" y="138.45000000000002">65+ years</tspan></text></g><g class="legendMark"><rect x="728.45" y="310.55" width="106.55000000000001" height="13.5" fill="#fff" opacity="0"></rect><text font-size="13.50" x="732.5" y="321.4" fill="#818282"><tspan x="732.45" y="321.35">25-64 years</tspan></text></g><g class="legendMark"><rect x="728.45" y="448.75" width="106.55000000000001" height="13.5" fill="#fff" opacity="0"></rect><text font-size="13.50" x="732.5" y="459.6" fill="#ca2628"><tspan x="732.45" y="459.55">15-24 years</tspan></text></g><g class="legendMark"><rect x="728.45" y="490.65" width="98.99000000000001" height="13.5" fill="#fff" opacity="0"></rect><text font-size="13.50" x="732.5" y="501.4" fill="#ed6c2d"><tspan x="732.45" y="501.45">5-14 years</tspan></text></g><g class="legendMark"><rect x="728.45" y="519.75" width="90.62" height="13.5" fill="#fff" opacity="0"></rect><text font-size="13.50" x="732.5" y="530.5" fill="#3360a9"><tspan x="732.45" y="530.55">Under-5s</tspan></text></g></g><g class="Areas"><rect x="61.634" y="68" width="666.816" height="467.29999999999995" opacity="0" fill="rgba(255,255,255,0)"></rect><path class="Japan_0-area" stroke-linecap="round" d="M61.6 472.1L71.2 473.2L80.7 476.2L90.2 479.4L99.7 482.4L109.3 485.2L118.8 489.2L128.3 491.8L137.8 493.3L147.4 494.5L156.9 495.5L166.4 496L175.9 496.4L185.5 496.6L195 496.6L204.5 496.5L214 495.7L223.6 495.5L233.1 495.5L242.6 495.5L252.2 495.1L261.7 494.8L271.2 494.1L280.7 493.2L290.3 492.7L299.8 493L309.3 493.2L318.8 494.6L328.4 496.9L337.9 499.3L347.4 501.1L356.9 503.7L366.5 505L376 505.3L385.5 505.5L395 506L404.6 506.1L414.1 506.8L423.6 507.9L433.1 509L442.7 509.9L452.2 510.6L461.7 511.3L471.2 511.8L480.8 512.2L490.3 512.6L499.8 512.9L509.4 513.1L518.9 513.2L528.4 513.3L537.9 513.5L547.5 513.5L557 513.7L566.5 514.1L576 514.4L585.6 514.7L595.1 515L604.6 515.1L614.1 515.1L623.7 515.1L633.2 515.1L642.7 515.1L652.2 515.1L661.8 515.2L671.3 515.4L680.8 515.6L690.3 515.8L699.9 516.3L709.4 516.7L718.9 517.2L728.5 517.6L728.45 535.3L61.634 535.3" fill="#3360a9" fill-opacity="0.7"></path><path class="Japan_1-area" stroke-linecap="round" d="M61.6 370L71.2 371L80.7 372.9L90.2 374.7L99.7 376.4L109.3 378.2L118.8 381.4L128.3 384.1L137.8 386.8L147.4 390L156.9 393.9L166.4 397.9L175.9 402.2L185.5 406.7L195 410.9L204.5 414.4L214 416.9L223.6 419.1L233.1 420.9L242.6 422.1L252.2 422.6L261.7 423L271.2 422.6L280.7 421.9L290.3 421.3L299.8 421.2L309.3 420.9L318.8 421.5L328.4 422.7L337.9 424L347.4 425.1L356.9 427.2L366.5 428.6L376 429.9L385.5 431.7L395 434.2L404.6 436.4L414.1 439.4L423.6 442.8L433.1 446.1L442.7 449L452.2 451.6L461.7 453.8L471.2 455.8L480.8 457.6L490.3 459.4L499.8 461L509.4 462.5L518.9 463.8L528.4 465L537.9 466.2L547.5 467.2L557 468.2L566.5 469.1L576 470L585.6 470.7L595.1 471.3L604.6 471.8L614.1 472.2L623.7 472.5L633.2 472.9L642.7 473.1L652.2 473.4L661.8 473.8L671.3 474.2L680.8 474.6L690.3 475L699.9 475.4L709.4 476L718.9 476.5L728.5 477.1L728.5 517.6L718.9 517.2L709.4 516.7L699.9 516.3L690.3 515.8L680.8 515.6L671.3 515.4L661.8 515.2L652.2 515.1L642.7 515.1L633.2 515.1L623.7 515.1L614.1 515.1L604.6 515.1L595.1 515L585.6 514.7L576 514.4L566.5 514.1L557 513.7L547.5 513.5L537.9 513.5L528.4 513.3L518.9 513.2L509.4 513.1L499.8 512.9L490.3 512.6L480.8 512.2L471.2 511.8L461.7 511.3L452.2 510.6L442.7 509.9L433.1 509L423.6 507.9L414.1 506.8L404.6 506.1L395 506L385.5 505.5L376 505.3L366.5 505L356.9 503.7L347.4 501.1L337.9 499.3L328.4 496.9L318.8 494.6L309.3 493.2L299.8 493L290.3 492.7L280.7 493.2L271.2 494.1L261.7 494.8L252.2 495.1L242.6 495.5L233.1 495.5L223.6 495.5L214 495.7L204.5 496.5L195 496.6L185.5 496.6L175.9 496.4L166.4 496L156.9 495.5L147.4 494.5L137.8 493.3L128.3 491.8L118.8 489.2L109.3 485.2L99.7 482.4L90.2 479.4L80.7 476.2L71.2 473.2L61.6 472.1" fill="#ed6c2d" fill-opacity="0.7"></path><path class="Japan_2-area" stroke-linecap="round" d="M61.6 278.5L71.2 279.7L80.7 282L90.2 284.4L99.7 286.7L109.3 289.2L118.8 292.6L128.3 295.6L137.8 298.7L147.4 301.7L156.9 304.9L166.4 307.8L175.9 310.6L185.5 313.4L195 316.2L204.5 319.1L214 321.5L223.6 324.1L233.1 326.9L242.6 329.8L252.2 332.8L261.7 336.2L271.2 339.5L280.7 342.7L290.3 345.9L299.8 348.9L309.3 351.2L318.8 353.8L328.4 356.4L337.9 358.7L347.4 360.5L356.9 362.8L366.5 364.2L376 365.2L385.5 366.4L395 368L404.6 369.4L414.1 371.3L423.6 373.5L433.1 375.8L442.7 378L452.2 380.1L461.7 382.3L471.2 384.6L480.8 387.1L490.3 390L499.8 393.3L509.4 396.9L518.9 400.6L528.4 404.1L537.9 407.4L547.5 410L557 412.4L566.5 414.5L576 416.5L585.6 418.4L595.1 420.2L604.6 421.9L614.1 423.4L623.7 424.8L633.2 426.1L642.7 427L652.2 427.9L661.8 428.8L671.3 429.6L680.8 430.4L690.3 431L699.9 431.7L709.4 432.4L718.9 433.1L728.5 433.9L728.5 477.1L718.9 476.5L709.4 476L699.9 475.4L690.3 475L680.8 474.6L671.3 474.2L661.8 473.8L652.2 473.4L642.7 473.1L633.2 472.9L623.7 472.5L614.1 472.2L604.6 471.8L595.1 471.3L585.6 470.7L576 470L566.5 469.1L557 468.2L547.5 467.2L537.9 466.2L528.4 465L518.9 463.8L509.4 462.5L499.8 461L490.3 459.4L480.8 457.6L471.2 455.8L461.7 453.8L452.2 451.6L442.7 449L433.1 446.1L423.6 442.8L414.1 439.4L404.6 436.4L395 434.2L385.5 431.7L376 429.9L366.5 428.6L356.9 427.2L347.4 425.1L337.9 424L328.4 422.7L318.8 421.5L309.3 420.9L299.8 421.2L290.3 421.3L280.7 421.9L271.2 422.6L261.7 423L252.2 422.6L242.6 422.1L233.1 420.9L223.6 419.1L214 416.9L204.5 414.4L195 410.9L185.5 406.7L175.9 402.2L166.4 397.9L156.9 393.9L147.4 390L137.8 386.8L128.3 384.1L118.8 381.4L109.3 378.2L99.7 376.4L90.2 374.7L80.7 372.9L71.2 371L61.6 370" fill="#ca2628" fill-opacity="0.7"></path><path class="Japan_3-area" stroke-linecap="round" d="M61.6 90.9L71.2 91.3L80.7 91.7L90.2 92L99.7 92.3L109.3 92.5L118.8 92.9L128.3 93.3L137.8 93.6L147.4 93.9L156.9 94.3L166.4 94.8L175.9 95.3L185.5 95.8L195 96.3L204.5 96.8L214 97.5L223.6 98.2L233.1 98.8L242.6 99.5L252.2 100.1L261.7 100.9L271.2 101.7L280.7 102.4L290.3 103.1L299.8 104L309.3 105L318.8 106.2L328.4 107.4L337.9 108.6L347.4 109.7L356.9 110.9L366.5 111.9L376 112.9L385.5 114L395 115.2L404.6 116.6L414.1 118.1L423.6 119.7L433.1 121.5L442.7 123.5L452.2 125.5L461.7 127.7L471.2 130L480.8 132.4L490.3 134.8L499.8 137.3L509.4 139.8L518.9 142.3L528.4 144.9L537.9 147.4L547.5 149.8L557 152.3L566.5 154.7L576 157.2L585.6 159.8L595.1 162.3L604.6 164.7L614.1 167.2L623.7 170L633.2 173.1L642.7 176.2L652.2 179.6L661.8 183.1L671.3 186.5L680.8 189.6L690.3 192.3L699.9 194.7L709.4 196.9L718.9 198.9L728.5 200.7L728.5 433.9L718.9 433.1L709.4 432.4L699.9 431.7L690.3 431L680.8 430.4L671.3 429.6L661.8 428.8L652.2 427.9L642.7 427L633.2 426.1L623.7 424.8L614.1 423.4L604.6 421.9L595.1 420.2L585.6 418.4L576 416.5L566.5 414.5L557 412.4L547.5 410L537.9 407.4L528.4 404.1L518.9 400.6L509.4 396.9L499.8 393.3L490.3 390L480.8 387.1L471.2 384.6L461.7 382.3L452.2 380.1L442.7 378L433.1 375.8L423.6 373.5L414.1 371.3L404.6 369.4L395 368L385.5 366.4L376 365.2L366.5 364.2L356.9 362.8L347.4 360.5L337.9 358.7L328.4 356.4L318.8 353.8L309.3 351.2L299.8 348.9L290.3 345.9L280.7 342.7L271.2 339.5L261.7 336.2L252.2 332.8L242.6 329.8L233.1 326.9L223.6 324.1L214 321.5L204.5 319.1L195 316.2L185.5 313.4L175.9 310.6L166.4 307.8L156.9 304.9L147.4 301.7L137.8 298.7L128.3 295.6L118.8 292.6L109.3 289.2L99.7 286.7L90.2 284.4L80.7 282L71.2 279.7L61.6 278.5" fill="#818282" fill-opacity="0.7"></path><path class="Japan_4-area" stroke-linecap="round" d="M61.6 68L71.2 68L80.7 68L90.2 68L99.7 68L109.3 68L118.8 68L128.3 68L137.8 68L147.4 68L156.9 68L166.4 68L175.9 68L185.5 68L195 68L204.5 68L214 68L223.6 68L233.1 68L242.6 68L252.2 68L261.7 68L271.2 68L280.7 68L290.3 68L299.8 68L309.3 68L318.8 68L328.4 68L337.9 68L347.4 68L356.9 68L366.5 68L376 68L385.5 68L395 68L404.6 68L414.1 68L423.6 68L433.1 68L442.7 68L452.2 68L461.7 68L471.2 68L480.8 68L490.3 68L499.8 68L509.4 68L518.9 68L528.4 68L537.9 68L547.5 68L557 68L566.5 68L576 68L585.6 68L595.1 68L604.6 68L614.1 68L623.7 68L633.2 68L642.7 68L652.2 68L661.8 68L671.3 68L680.8 68L690.3 68L699.9 68L709.4 68L718.9 68L728.5 68L728.5 200.7L718.9 198.9L709.4 196.9L699.9 194.7L690.3 192.3L680.8 189.6L671.3 186.5L661.8 183.1L652.2 179.6L642.7 176.2L633.2 173.1L623.7 170L614.1 167.2L604.6 164.7L595.1 162.3L585.6 159.8L576 157.2L566.5 154.7L557 152.3L547.5 149.8L537.9 147.4L528.4 144.9L518.9 142.3L509.4 139.8L499.8 137.3L490.3 134.8L480.8 132.4L471.2 130L461.7 127.7L452.2 125.5L442.7 123.5L433.1 121.5L423.6 119.7L414.1 118.1L404.6 116.6L395 115.2L385.5 114L376 112.9L366.5 111.9L356.9 110.9L347.4 109.7L337.9 108.6L328.4 107.4L318.8 106.2L309.3 105L299.8 104L290.3 103.1L280.7 102.4L271.2 101.7L261.7 100.9L252.2 100.1L242.6 99.5L233.1 98.8L223.6 98.2L214 97.5L204.5 96.8L195 96.3L185.5 95.8L175.9 95.3L166.4 94.8L156.9 94.3L147.4 93.9L137.8 93.6L128.3 93.3L118.8 92.9L109.3 92.5L99.7 92.3L90.2 92L80.7 91.7L71.2 91.3L61.6 90.9" fill="#2a939b" fill-opacity="0.7"></path><path class="Japan_0-border" stroke-linecap="round" d="M61.6 472.1L71.2 473.2L80.7 476.2L90.2 479.4L99.7 482.4L109.3 485.2L118.8 489.2L128.3 491.8L137.8 493.3L147.4 494.5L156.9 495.5L166.4 496L175.9 496.4L185.5 496.6L195 496.6L204.5 496.5L214 495.7L223.6 495.5L233.1 495.5L242.6 495.5L252.2 495.1L261.7 494.8L271.2 494.1L280.7 493.2L290.3 492.7L299.8 493L309.3 493.2L318.8 494.6L328.4 496.9L337.9 499.3L347.4 501.1L356.9 503.7L366.5 505L376 505.3L385.5 505.5L395 506L404.6 506.1L414.1 506.8L423.6 507.9L433.1 509L442.7 509.9L452.2 510.6L461.7 511.3L471.2 511.8L480.8 512.2L490.3 512.6L499.8 512.9L509.4 513.1L518.9 513.2L528.4 513.3L537.9 513.5L547.5 513.5L557 513.7L566.5 514.1L576 514.4L585.6 514.7L595.1 515L604.6 515.1L614.1 515.1L623.7 515.1L633.2 515.1L642.7 515.1L652.2 515.1L661.8 515.2L671.3 515.4L680.8 515.6L690.3 515.8L699.9 516.3L709.4 516.7L718.9 517.2L728.5 517.6" stroke="rgb(43, 80, 141)" stroke-opacity="0.7" stroke-width="0.5" fill="none"></path><path class="Japan_1-border" stroke-linecap="round" d="M61.6 370L71.2 371L80.7 372.9L90.2 374.7L99.7 376.4L109.3 378.2L118.8 381.4L128.3 384.1L137.8 386.8L147.4 390L156.9 393.9L166.4 397.9L175.9 402.2L185.5 406.7L195 410.9L204.5 414.4L214 416.9L223.6 419.1L233.1 420.9L242.6 422.1L252.2 422.6L261.7 423L271.2 422.6L280.7 421.9L290.3 421.3L299.8 421.2L309.3 420.9L318.8 421.5L328.4 422.7L337.9 424L347.4 425.1L356.9 427.2L366.5 428.6L376 429.9L385.5 431.7L395 434.2L404.6 436.4L414.1 439.4L423.6 442.8L433.1 446.1L442.7 449L452.2 451.6L461.7 453.8L471.2 455.8L480.8 457.6L490.3 459.4L499.8 461L509.4 462.5L518.9 463.8L528.4 465L537.9 466.2L547.5 467.2L557 468.2L566.5 469.1L576 470L585.6 470.7L595.1 471.3L604.6 471.8L614.1 472.2L623.7 472.5L633.2 472.9L642.7 473.1L652.2 473.4L661.8 473.8L671.3 474.2L680.8 474.6L690.3 475L699.9 475.4L709.4 476L718.9 476.5L728.5 477.1" stroke="rgb(198, 90, 38)" stroke-opacity="0.7" stroke-width="0.5" fill="none"></path><path class="Japan_2-border" stroke-linecap="round" d="M61.6 278.5L71.2 279.7L80.7 282L90.2 284.4L99.7 286.7L109.3 289.2L118.8 292.6L128.3 295.6L137.8 298.7L147.4 301.7L156.9 304.9L166.4 307.8L175.9 310.6L185.5 313.4L195 316.2L204.5 319.1L214 321.5L223.6 324.1L233.1 326.9L242.6 329.8L252.2 332.8L261.7 336.2L271.2 339.5L280.7 342.7L290.3 345.9L299.8 348.9L309.3 351.2L318.8 353.8L328.4 356.4L337.9 358.7L347.4 360.5L356.9 362.8L366.5 364.2L376 365.2L385.5 366.4L395 368L404.6 369.4L414.1 371.3L423.6 373.5L433.1 375.8L442.7 378L452.2 380.1L461.7 382.3L471.2 384.6L480.8 387.1L490.3 390L499.8 393.3L509.4 396.9L518.9 400.6L528.4 404.1L537.9 407.4L547.5 410L557 412.4L566.5 414.5L576 416.5L585.6 418.4L595.1 420.2L604.6 421.9L614.1 423.4L623.7 424.8L633.2 426.1L642.7 427L652.2 427.9L661.8 428.8L671.3 429.6L680.8 430.4L690.3 431L699.9 431.7L709.4 432.4L718.9 433.1L728.5 433.9" stroke="rgb(169, 32, 33)" stroke-opacity="0.7" stroke-width="0.5" fill="none"></path><path class="Japan_3-border" stroke-linecap="round" d="M61.6 90.9L71.2 91.3L80.7 91.7L90.2 92L99.7 92.3L109.3 92.5L118.8 92.9L128.3 93.3L137.8 93.6L147.4 93.9L156.9 94.3L166.4 94.8L175.9 95.3L185.5 95.8L195 96.3L204.5 96.8L214 97.5L223.6 98.2L233.1 98.8L242.6 99.5L252.2 100.1L261.7 100.9L271.2 101.7L280.7 102.4L290.3 103.1L299.8 104L309.3 105L318.8 106.2L328.4 107.4L337.9 108.6L347.4 109.7L356.9 110.9L366.5 111.9L376 112.9L385.5 114L395 115.2L404.6 116.6L414.1 118.1L423.6 119.7L433.1 121.5L442.7 123.5L452.2 125.5L461.7 127.7L471.2 130L480.8 132.4L490.3 134.8L499.8 137.3L509.4 139.8L518.9 142.3L528.4 144.9L537.9 147.4L547.5 149.8L557 152.3L566.5 154.7L576 157.2L585.6 159.8L595.1 162.3L604.6 164.7L614.1 167.2L623.7 170L633.2 173.1L642.7 176.2L652.2 179.6L661.8 183.1L671.3 186.5L680.8 189.6L690.3 192.3L699.9 194.7L709.4 196.9L718.9 198.9L728.5 200.7" stroke="rgb(108, 109, 109)" stroke-opacity="0.7" stroke-width="0.5" fill="none"></path><path class="Japan_4-border" stroke-linecap="round" d="M61.6 68L71.2 68L80.7 68L90.2 68L99.7 68L109.3 68L118.8 68L128.3 68L137.8 68L147.4 68L156.9 68L166.4 68L175.9 68L185.5 68L195 68L204.5 68L214 68L223.6 68L233.1 68L242.6 68L252.2 68L261.7 68L271.2 68L280.7 68L290.3 68L299.8 68L309.3 68L318.8 68L328.4 68L337.9 68L347.4 68L356.9 68L366.5 68L376 68L385.5 68L395 68L404.6 68L414.1 68L423.6 68L433.1 68L442.7 68L452.2 68L461.7 68L471.2 68L480.8 68L490.3 68L499.8 68L509.4 68L518.9 68L528.4 68L537.9 68L547.5 68L557 68L566.5 68L576 68L585.6 68L595.1 68L604.6 68L614.1 68L623.7 68L633.2 68L642.7 68L652.2 68L661.8 68L671.3 68L680.8 68L690.3 68L699.9 68L709.4 68L718.9 68L728.5 68" stroke="rgb(35, 123, 130)" stroke-opacity="0.7" stroke-width="0.5" fill="none"></path></g></g></g><g class="SourcesFooter" style="fill:#777"><g class="clickable" style="fill:#777"><text font-size="12.60" x="15.0" y="581.6"><tspan x="15" y="581.58">Source: United Nations – Population Division (2019 Revision)</tspan></text></g><text font-size="12.60" x="531.7" y="581.6"><tspan x="531.7180000000001" y="581.58"><a target='_blank' style='fill: #777;' href='https://ourworldindata.org/world-population-growth'>OurWorldInData.org/world-population-growth</a> • <a style="fill: #777;" class="cclogo" href="http://creativecommons.org/licenses/by/4.0/deed.en_US" target="_blank">CC BY</a></tspan></text></g></svg>