<svg xmlns="http://www.w3.org/2000/svg" version="1.1" style="font-family:Lato, &#x27;Helvetica Neue&#x27;, Helvetica, Arial, sans-serif;font-size:18px;background-color:white;text-rendering:optimizeLegibility;-webkit-font-smoothing:antialiased" width="850" height="600"><g class="HeaderView"><g transform="translate(774, 15) scale(0.29)"><svg width="210" height="120" viewBox="0 0 210 120" fill="none" xmlns="http://www.w3.org/2000/svg">
    <g clip-path="url(#clip0)">
        <path d="M0 0H210V107.89H0V0Z" fill="#002147"/>
        <path d="M40.9788 32.248C40.9788 34.6093 40.6048 36.78 39.8568 38.76C39.1088 40.7253 38.0528 42.4193 36.6888 43.842C35.3248 45.2647 33.6821 46.372 31.7608 47.164C29.8541 47.9413 27.7421 48.33 25.4248 48.33C23.1074 48.33 20.9954 47.9413 19.0888 47.164C17.1821 46.372 15.5468 45.2647 14.1828 43.842C12.8188 42.4193 11.7628 40.7253 11.0148 38.76C10.2668 36.78 9.89277 34.6093 9.89277 32.248C9.89277 29.8867 10.2668 27.7233 11.0148 25.758C11.7628 23.778 12.8188 22.0767 14.1828 20.654C15.5468 19.2167 17.1821 18.102 19.0888 17.31C20.9954 16.518 23.1074 16.122 25.4248 16.122C27.7421 16.122 29.8541 16.518 31.7608 17.31C33.6821 18.102 35.3248 19.2167 36.6888 20.654C38.0528 22.0767 39.1088 23.778 39.8568 25.758C40.6048 27.7233 40.9788 29.8867 40.9788 32.248ZM36.6008 32.248C36.6008 30.312 36.3368 28.574 35.8088 27.034C35.2808 25.494 34.5328 24.196 33.5648 23.14C32.5968 22.0693 31.4234 21.248 30.0448 20.676C28.6661 20.104 27.1261 19.818 25.4248 19.818C23.7381 19.818 22.2054 20.104 20.8268 20.676C19.4481 21.248 18.2674 22.0693 17.2848 23.14C16.3168 24.196 15.5688 25.494 15.0408 27.034C14.5128 28.574 14.2488 30.312 14.2488 32.248C14.2488 34.184 14.5128 35.922 15.0408 37.462C15.5688 38.9873 16.3168 40.2853 17.2848 41.356C18.2674 42.412 19.4481 43.226 20.8268 43.798C22.2054 44.3553 23.7381 44.634 25.4248 44.634C27.1261 44.634 28.6661 44.3553 30.0448 43.798C31.4234 43.226 32.5968 42.412 33.5648 41.356C34.5328 40.2853 35.2808 38.9873 35.8088 37.462C36.3368 35.922 36.6008 34.184 36.6008 32.248ZM62.8234 25.714V48H60.4914C59.9341 48 59.5821 47.7287 59.4354 47.186L59.1274 44.788C58.1594 45.8587 57.0741 46.724 55.8714 47.384C54.6687 48.0293 53.2901 48.352 51.7354 48.352C50.5181 48.352 49.4401 48.154 48.5014 47.758C47.5774 47.3473 46.8001 46.7753 46.1694 46.042C45.5387 45.3087 45.0621 44.4213 44.7394 43.38C44.4314 42.3387 44.2774 41.1873 44.2774 39.926V25.714H48.1934V39.926C48.1934 41.6127 48.5747 42.918 49.3374 43.842C50.1147 44.766 51.2954 45.228 52.8794 45.228C54.0381 45.228 55.1161 44.9567 56.1134 44.414C57.1254 43.8567 58.0567 43.094 58.9074 42.126V25.714H62.8234ZM71.4305 30.18C72.1346 28.6547 72.9999 27.4667 74.0266 26.616C75.0532 25.7507 76.3072 25.318 77.7886 25.318C78.2579 25.318 78.7052 25.3693 79.1306 25.472C79.5706 25.5747 79.9592 25.736 80.2966 25.956L80.0106 28.882C79.9226 29.2487 79.7026 29.432 79.3506 29.432C79.1452 29.432 78.8446 29.388 78.4486 29.3C78.0526 29.212 77.6052 29.168 77.1066 29.168C76.4026 29.168 75.7719 29.2707 75.2146 29.476C74.6719 29.6813 74.1806 29.9893 73.7406 30.4C73.3152 30.796 72.9266 31.2947 72.5746 31.896C72.2372 32.4827 71.9292 33.1573 71.6506 33.92V48H67.7125V25.714H69.9566C70.3819 25.714 70.6752 25.7947 70.8366 25.956C70.9979 26.1173 71.1079 26.396 71.1666 26.792L71.4305 30.18ZM132.589 16.474L122.755 48H118.927L110.941 23.954C110.867 23.7193 110.794 23.47 110.721 23.206C110.662 22.942 110.596 22.6633 110.523 22.37C110.449 22.6633 110.376 22.942 110.303 23.206C110.23 23.47 110.156 23.7193 110.083 23.954L102.053 48H98.2248L88.3908 16.474H91.9328C92.3142 16.474 92.6295 16.5693 92.8788 16.76C93.1428 16.9507 93.3115 17.1927 93.3848 17.486L99.8968 39.398C99.9995 39.794 100.095 40.2193 100.183 40.674C100.285 41.1287 100.381 41.6127 100.469 42.126C100.571 41.6127 100.674 41.1287 100.777 40.674C100.894 40.2047 101.019 39.7793 101.151 39.398L108.565 17.486C108.653 17.2367 108.821 17.0093 109.071 16.804C109.335 16.584 109.65 16.474 110.017 16.474H111.249C111.63 16.474 111.938 16.5693 112.173 16.76C112.407 16.9507 112.583 17.1927 112.701 17.486L120.093 39.398C120.225 39.7793 120.342 40.19 120.445 40.63C120.562 41.07 120.672 41.532 120.775 42.016C120.848 41.532 120.929 41.07 121.017 40.63C121.105 40.19 121.2 39.7793 121.303 39.398L127.837 17.486C127.91 17.222 128.072 16.9873 128.321 16.782C128.585 16.5767 128.9 16.474 129.267 16.474H132.589ZM141.94 25.362C143.568 25.362 145.034 25.6333 146.34 26.176C147.645 26.7187 148.76 27.4887 149.684 28.486C150.608 29.4833 151.312 30.6933 151.796 32.116C152.294 33.524 152.544 35.1007 152.544 36.846C152.544 38.606 152.294 40.19 151.796 41.598C151.312 43.006 150.608 44.2087 149.684 45.206C148.76 46.2033 147.645 46.9733 146.34 47.516C145.034 48.044 143.568 48.308 141.94 48.308C140.297 48.308 138.816 48.044 137.496 47.516C136.19 46.9733 135.076 46.2033 134.152 45.206C133.228 44.2087 132.516 43.006 132.018 41.598C131.534 40.19 131.292 38.606 131.292 36.846C131.292 35.1007 131.534 33.524 132.018 32.116C132.516 30.6933 133.228 29.4833 134.152 28.486C135.076 27.4887 136.19 26.7187 137.496 26.176C138.816 25.6333 140.297 25.362 141.94 25.362ZM141.94 45.25C144.14 45.25 145.782 44.5167 146.868 43.05C147.953 41.5687 148.496 39.508 148.496 36.868C148.496 34.2133 147.953 32.1453 146.868 30.664C145.782 29.1827 144.14 28.442 141.94 28.442C140.825 28.442 139.85 28.6327 139.014 29.014C138.192 29.3953 137.503 29.9453 136.946 30.664C136.403 31.3827 135.992 32.27 135.714 33.326C135.45 34.3673 135.318 35.548 135.318 36.868C135.318 39.508 135.86 41.5687 136.946 43.05C138.046 44.5167 139.71 45.25 141.94 45.25ZM159.908 30.18C160.612 28.6547 161.478 27.4667 162.504 26.616C163.531 25.7507 164.785 25.318 166.266 25.318C166.736 25.318 167.183 25.3693 167.608 25.472C168.048 25.5747 168.437 25.736 168.774 25.956L168.488 28.882C168.4 29.2487 168.18 29.432 167.828 29.432C167.623 29.432 167.322 29.388 166.926 29.3C166.53 29.212 166.083 29.168 165.584 29.168C164.88 29.168 164.25 29.2707 163.692 29.476C163.15 29.6813 162.658 29.9893 162.218 30.4C161.793 30.796 161.404 31.2947 161.052 31.896C160.715 32.4827 160.407 33.1573 160.128 33.92V48H156.19V25.714H158.434C158.86 25.714 159.153 25.7947 159.314 25.956C159.476 26.1173 159.586 26.396 159.644 26.792L159.908 30.18ZM174.946 15.594V48H171.03V15.594H174.946ZM194.496 31.016C193.763 30.0333 192.971 29.3513 192.12 28.97C191.269 28.574 190.316 28.376 189.26 28.376C187.192 28.376 185.601 29.1167 184.486 30.598C183.371 32.0793 182.814 34.1913 182.814 36.934C182.814 38.386 182.939 39.6327 183.188 40.674C183.437 41.7007 183.804 42.5513 184.288 43.226C184.772 43.886 185.366 44.37 186.07 44.678C186.774 44.986 187.573 45.14 188.468 45.14C189.759 45.14 190.881 44.8467 191.834 44.26C192.802 43.6733 193.689 42.8447 194.496 41.774V31.016ZM198.412 15.594V48H196.08C195.523 48 195.171 47.7287 195.024 47.186L194.672 44.48C193.719 45.624 192.633 46.548 191.416 47.252C190.199 47.956 188.791 48.308 187.192 48.308C185.916 48.308 184.757 48.066 183.716 47.582C182.675 47.0833 181.787 46.3573 181.054 45.404C180.321 44.4507 179.756 43.2627 179.36 41.84C178.964 40.4173 178.766 38.782 178.766 36.934C178.766 35.2913 178.986 33.766 179.426 32.358C179.866 30.9353 180.497 29.7033 181.318 28.662C182.139 27.6207 183.144 26.8067 184.332 26.22C185.535 25.6187 186.884 25.318 188.38 25.318C189.744 25.318 190.91 25.5527 191.878 26.022C192.861 26.4767 193.733 27.1147 194.496 27.936V15.594H198.412ZM46.6139 70.714V93H42.6979V70.714H46.6139ZM47.4499 63.718C47.4499 64.0993 47.3692 64.4587 47.2079 64.796C47.0612 65.1187 46.8559 65.412 46.5919 65.676C46.3425 65.9253 46.0419 66.1233 45.6899 66.27C45.3525 66.4167 44.9932 66.49 44.6119 66.49C44.2305 66.49 43.8712 66.4167 43.5339 66.27C43.2112 66.1233 42.9252 65.9253 42.6759 65.676C42.4265 65.412 42.2285 65.1187 42.0819 64.796C41.9352 64.4587 41.8619 64.0993 41.8619 63.718C41.8619 63.3367 41.9352 62.9773 42.0819 62.64C42.2285 62.288 42.4265 61.9873 42.6759 61.738C42.9252 61.474 43.2112 61.2687 43.5339 61.122C43.8712 60.9753 44.2305 60.902 44.6119 60.902C44.9932 60.902 45.3525 60.9753 45.6899 61.122C46.0419 61.2687 46.3425 61.474 46.5919 61.738C46.8559 61.9873 47.0612 62.288 47.2079 62.64C47.3692 62.9773 47.4499 63.3367 47.4499 63.718ZM55.4242 73.948C55.9082 73.4053 56.4215 72.914 56.9642 72.474C57.5068 72.034 58.0788 71.66 58.6802 71.352C59.2962 71.0293 59.9415 70.7873 60.6162 70.626C61.3055 70.45 62.0462 70.362 62.8382 70.362C64.0555 70.362 65.1262 70.5673 66.0502 70.978C66.9888 71.374 67.7662 71.946 68.3822 72.694C69.0128 73.4273 69.4895 74.3147 69.8122 75.356C70.1348 76.3973 70.2962 77.5487 70.2962 78.81V93H66.3582V78.81C66.3582 77.1233 65.9695 75.818 65.1922 74.894C64.4295 73.9553 63.2635 73.486 61.6942 73.486C60.5355 73.486 59.4502 73.7647 58.4382 74.322C57.4408 74.8793 56.5168 75.6347 55.6662 76.588V93H51.7282V70.714H54.0822C54.6395 70.714 54.9842 70.9853 55.1162 71.528L55.4242 73.948ZM113.129 77.248C113.129 79.6093 112.755 81.758 112.007 83.694C111.259 85.63 110.203 87.2873 108.839 88.666C107.475 90.0447 105.832 91.1153 103.911 91.878C102.004 92.626 99.8925 93 97.5751 93H85.8051V61.474H97.5751C99.8925 61.474 102.004 61.8553 103.911 62.618C105.832 63.366 107.475 64.4367 108.839 65.83C110.203 67.2087 111.259 68.866 112.007 70.802C112.755 72.738 113.129 74.8867 113.129 77.248ZM108.751 77.248C108.751 75.312 108.487 73.5813 107.959 72.056C107.431 70.5307 106.683 69.24 105.715 68.184C104.747 67.128 103.574 66.3213 102.195 65.764C100.816 65.2067 99.2765 64.928 97.5751 64.928H90.0731V89.546H97.5751C99.2765 89.546 100.816 89.2673 102.195 88.71C103.574 88.1527 104.747 87.3533 105.715 86.312C106.683 85.256 107.431 83.9653 107.959 82.44C108.487 80.9147 108.751 79.184 108.751 77.248ZM128.553 82.968C126.749 83.0267 125.209 83.1733 123.933 83.408C122.672 83.628 121.638 83.9213 120.831 84.288C120.039 84.6547 119.46 85.0873 119.093 85.586C118.741 86.0847 118.565 86.642 118.565 87.258C118.565 87.8447 118.661 88.3507 118.851 88.776C119.042 89.2013 119.299 89.5533 119.621 89.832C119.959 90.096 120.347 90.294 120.787 90.426C121.242 90.5433 121.726 90.602 122.239 90.602C122.929 90.602 123.559 90.536 124.131 90.404C124.703 90.2573 125.239 90.052 125.737 89.788C126.251 89.524 126.735 89.2087 127.189 88.842C127.659 88.4753 128.113 88.0573 128.553 87.588V82.968ZM115.903 73.86C117.135 72.672 118.463 71.7847 119.885 71.198C121.308 70.6113 122.885 70.318 124.615 70.318C125.862 70.318 126.969 70.5233 127.937 70.934C128.905 71.3447 129.719 71.9167 130.379 72.65C131.039 73.3833 131.538 74.2707 131.875 75.312C132.213 76.3533 132.381 77.4973 132.381 78.744V93H130.643C130.262 93 129.969 92.9413 129.763 92.824C129.558 92.692 129.397 92.4427 129.279 92.076L128.839 89.964C128.253 90.5067 127.681 90.9907 127.123 91.416C126.566 91.8267 125.979 92.1787 125.363 92.472C124.747 92.7507 124.087 92.9633 123.383 93.11C122.694 93.2713 121.924 93.352 121.073 93.352C120.208 93.352 119.394 93.2347 118.631 93C117.869 92.7507 117.201 92.384 116.629 91.9C116.072 91.416 115.625 90.8073 115.287 90.074C114.965 89.326 114.803 88.446 114.803 87.434C114.803 86.554 115.045 85.7107 115.529 84.904C116.013 84.0827 116.798 83.3567 117.883 82.726C118.969 82.0953 120.384 81.582 122.129 81.186C123.875 80.7753 126.016 80.5407 128.553 80.482V78.744C128.553 77.0133 128.179 75.708 127.431 74.828C126.683 73.9333 125.591 73.486 124.153 73.486C123.185 73.486 122.371 73.6107 121.711 73.86C121.066 74.0947 120.501 74.366 120.017 74.674C119.548 74.9673 119.137 75.2387 118.785 75.488C118.448 75.7227 118.111 75.84 117.773 75.84C117.509 75.84 117.282 75.774 117.091 75.642C116.901 75.4953 116.739 75.3193 116.607 75.114L115.903 73.86ZM143.568 93.352C141.808 93.352 140.451 92.8607 139.498 91.878C138.559 90.8953 138.09 89.48 138.09 87.632V73.992H135.406C135.171 73.992 134.973 73.926 134.812 73.794C134.65 73.6473 134.57 73.4273 134.57 73.134V71.572L138.222 71.11L139.124 64.224C139.168 64.004 139.263 63.828 139.41 63.696C139.571 63.5493 139.776 63.476 140.026 63.476H142.006V71.154H148.452V73.992H142.006V87.368C142.006 88.3067 142.233 89.0033 142.688 89.458C143.142 89.9127 143.729 90.14 144.448 90.14C144.858 90.14 145.21 90.0887 145.504 89.986C145.812 89.8687 146.076 89.744 146.296 89.612C146.516 89.48 146.699 89.3627 146.846 89.26C147.007 89.1427 147.146 89.084 147.264 89.084C147.469 89.084 147.652 89.2087 147.814 89.458L148.958 91.328C148.283 91.9587 147.469 92.4573 146.516 92.824C145.562 93.176 144.58 93.352 143.568 93.352ZM163.253 82.968C161.449 83.0267 159.909 83.1733 158.633 83.408C157.372 83.628 156.338 83.9213 155.531 84.288C154.739 84.6547 154.16 85.0873 153.793 85.586C153.441 86.0847 153.265 86.642 153.265 87.258C153.265 87.8447 153.36 88.3507 153.551 88.776C153.742 89.2013 153.998 89.5533 154.321 89.832C154.658 90.096 155.047 90.294 155.487 90.426C155.942 90.5433 156.426 90.602 156.939 90.602C157.628 90.602 158.259 90.536 158.831 90.404C159.403 90.2573 159.938 90.052 160.437 89.788C160.95 89.524 161.434 89.2087 161.889 88.842C162.358 88.4753 162.813 88.0573 163.253 87.588V82.968ZM150.603 73.86C151.835 72.672 153.162 71.7847 154.585 71.198C156.008 70.6113 157.584 70.318 159.315 70.318C160.562 70.318 161.669 70.5233 162.637 70.934C163.605 71.3447 164.419 71.9167 165.079 72.65C165.739 73.3833 166.238 74.2707 166.575 75.312C166.912 76.3533 167.081 77.4973 167.081 78.744V93H165.343C164.962 93 164.668 92.9413 164.463 92.824C164.258 92.692 164.096 92.4427 163.979 92.076L163.539 89.964C162.952 90.5067 162.38 90.9907 161.823 91.416C161.266 91.8267 160.679 92.1787 160.063 92.472C159.447 92.7507 158.787 92.9633 158.083 93.11C157.394 93.2713 156.624 93.352 155.773 93.352C154.908 93.352 154.094 93.2347 153.331 93C152.568 92.7507 151.901 92.384 151.329 91.9C150.772 91.416 150.324 90.8073 149.987 90.074C149.664 89.326 149.503 88.446 149.503 87.434C149.503 86.554 149.745 85.7107 150.229 84.904C150.713 84.0827 151.498 83.3567 152.583 82.726C153.668 82.0953 155.084 81.582 156.829 81.186C158.574 80.7753 160.716 80.5407 163.253 80.482V78.744C163.253 77.0133 162.879 75.708 162.131 74.828C161.383 73.9333 160.29 73.486 158.853 73.486C157.885 73.486 157.071 73.6107 156.411 73.86C155.766 74.0947 155.201 74.366 154.717 74.674C154.248 74.9673 153.837 75.2387 153.485 75.488C153.148 75.7227 152.81 75.84 152.473 75.84C152.209 75.84 151.982 75.774 151.791 75.642C151.6 75.4953 151.439 75.3193 151.307 75.114L150.603 73.86Z" fill="white"/>
        <rect y="106.789" width="210" height="13.211" fill="#D42B21"/>
    </g>
    <defs>
        <clipPath id="clip0">
            <rect width="210" height="120" fill="white"/>
        </clipPath>
    </defs>
</svg></g><a href="https://ourworldindata.org/grapher/projected-population-by-country" style="font-family:&quot;Playfair Display&quot;, Georgia, &quot;Times New Roman&quot;, serif" target="_blank"><text font-size="25.20" x="15.0" y="35.2" fill="#555"><tspan x="15" y="35.160000000000004">Population</tspan></text></a><text font-size="14.40" x="15.0" y="55.7" fill="#666"><tspan x="15" y="55.72">Historical estimates of population, combined with the projected population to 2100 based on the UN&#x27;s medium</tspan><tspan x="15" y="71.56">variant scenario.</tspan></text></g><g class="LineChart"><defs><clipPath id="boundsClip-5"><rect x="87.598" y="0" width="830" height="897.4"></rect></clipPath></defs><g class="AxisBoxView"><g class="HorizontalAxis"><text x="97.6" y="542.8" fill="#666" text-anchor="middle" font-size="16.2">1800</text><text x="201.1" y="542.8" fill="#666" text-anchor="middle" font-size="16.2">1850</text><text x="304.6" y="542.8" fill="#666" text-anchor="middle" font-size="16.2">1900</text><text x="408.1" y="542.8" fill="#666" text-anchor="middle" font-size="16.2">1950</text><text x="511.6" y="542.8" fill="#666" text-anchor="middle" font-size="16.2">2000</text><text x="615.1" y="542.8" fill="#666" text-anchor="middle" font-size="16.2">2050</text><text x="718.6" y="542.8" fill="#666" text-anchor="middle" font-size="16.2">2100</text></g><g class="VerticalAxis"><text x="92.60" y="521.6" fill="#666" dominant-baseline="middle" text-anchor="end" font-size="16.2">0</text><text x="92.60" y="469.8" fill="#666" dominant-baseline="middle" text-anchor="end" font-size="16.2">200 million</text><text x="92.60" y="418" fill="#666" dominant-baseline="middle" text-anchor="end" font-size="16.2">400 million</text><text x="92.60" y="366.3" fill="#666" dominant-baseline="middle" text-anchor="end" font-size="16.2">600 million</text><text x="92.60" y="314.5" fill="#666" dominant-baseline="middle" text-anchor="end" font-size="16.2">800 million</text><text x="92.60" y="262.7" fill="#666" dominant-baseline="middle" text-anchor="end" font-size="16.2">1 billion</text><text x="92.60" y="210.9" fill="#666" dominant-baseline="middle" text-anchor="end" font-size="16.2">1.2 billion</text><text x="92.60" y="159.2" fill="#666" dominant-baseline="middle" text-anchor="end" font-size="16.2">1.4 billion</text><text x="92.60" y="107.4" fill="#666" dominant-baseline="middle" text-anchor="end" font-size="16.2">1.6 billion</text></g><g class="AxisGridLines"><line x1="97.60" y1="521.6" x2="718.60" y2="521.6" stroke="#ccc"></line><line x1="97.60" y1="469.8" x2="718.60" y2="469.8" stroke="#ddd" stroke-dasharray="3,2"></line><line x1="97.60" y1="418" x2="718.60" y2="418" stroke="#ddd" stroke-dasharray="3,2"></line><line x1="97.60" y1="366.3" x2="718.60" y2="366.3" stroke="#ddd" stroke-dasharray="3,2"></line><line x1="97.60" y1="314.5" x2="718.60" y2="314.5" stroke="#ddd" stroke-dasharray="3,2"></line><line x1="97.60" y1="262.7" x2="718.60" y2="262.7" stroke="#ddd" stroke-dasharray="3,2"></line><line x1="97.60" y1="210.9" x2="718.60" y2="210.9" stroke="#ddd" stroke-dasharray="3,2"></line><line x1="97.60" y1="159.2" x2="718.60" y2="159.2" stroke="#ddd" stroke-dasharray="3,2"></line><line x1="97.60" y1="107.4" x2="718.60" y2="107.4" stroke="#ddd" stroke-dasharray="3,2"></line></g></g><g clip-path="url(#boundsClip-5)"><g class="HeightedLegend" style="cursor:pointer"><g class="legendMark"><rect x="718.595" y="140.25" width="64.43" height="13.5" fill="#fff" opacity="0"></rect><text font-size="13.50" x="722.6" y="151.1" fill="#2a939b"><tspan x="722.595" y="151.05">India</tspan></text></g><g class="legendMark"><rect x="718.595" y="239.15" width="70.37" height="13.5" fill="#fff" opacity="0"></rect><text font-size="13.50" x="722.6" y="250.0" fill="#a652ba"><tspan x="722.595" y="249.95000000000002">China</tspan></text></g><g class="legendMark"><rect x="718.595" y="325.15" width="77.795" height="13.5" fill="#fff" opacity="0"></rect><text font-size="13.50" x="722.6" y="335.9" fill="#f6a324"><tspan x="722.595" y="335.95">Nigeria</tspan></text></g><g class="legendMark"><rect x="718.595" y="402.55" width="116.405" height="13.5" fill="#fff" opacity="0"></rect><text font-size="13.50" x="722.6" y="413.4" fill="#34983f"><tspan x="722.595" y="413.35">United States</tspan></text></g><g class="legendMark"><rect x="718.595" y="468.05" width="68.75" height="13.5" fill="#fff" opacity="0"></rect><text font-size="13.50" x="722.6" y="478.9" fill="#ca2628"><tspan x="722.595" y="478.85">Brazil</tspan></text></g><g class="legendMark"><rect x="718.595" y="495.45" width="71.99000000000001" height="13.5" fill="#fff" opacity="0"></rect><text font-size="13.50" x="722.6" y="506.3" fill="#3360a9"><tspan x="722.595" y="506.25">Japan</tspan></text></g></g><g class="Lines"><rect x="98" y="94" width="621" height="428" fill="rgba(255,255,255,0)" opacity="0"></rect><g class="key-China_0"><path stroke="#a652ba" stroke-linecap="round" d="M98 438L100 438L102 437L104 436L106 436L108 435L110 434L112 433L114 433L116 432L118 431L120 430L122 429L125 429L127 428L129 427L131 426L133 426L135 425L137 424L139 423L141 423L143 422L145 421L147 421L149 420L151 419L154 419L156 418L158 418L160 417L162 417L164 417L166 416L168 416L170 416L172 416L174 416L176 415L178 415L180 415L183 415L185 415L187 415L189 416L191 416L193 416L195 416L197 417L199 417L201 417L203 418L205 418L207 419L209 419L211 420L214 420L216 421L218 422L220 422L222 423L224 424L226 424L228 425L230 425L232 426L234 426L236 426L238 427L240 427L243 427L245 427L247 427L249 427L251 427L253 427L255 427L257 427L259 427L261 427L263 426L265 426L267 426L269 425L272 425L274 425L276 424L278 424L280 424L282 423L284 423L286 422L288 422L290 422L292 421L294 421L296 420L298 420L301 419L303 418L305 418L307 417L309 417L311 416L313 416L315 415L317 414L319 414L321 413L323 412L325 412L327 411L329 410L332 408L334 407L336 406L338 405L340 403L342 402L344 401L346 400L348 399L350 398L352 398L354 398L356 397L358 397L361 396L363 396L365 395L367 395L369 394L371 393L373 392L375 391L377 391L379 390L381 389L383 389L385 388L387 387L390 386L392 386L394 385L396 384L398 384L400 383L402 382L404 381L406 380L408 378L410 374L412 371L414 368L416 366L418 363L421 361L423 358L425 356L427 353L429 351L431 348L433 345L435 342L437 338L439 334L441 329L443 324L445 319L447 313L450 307L452 302L454 297L456 291L458 286L460 282L462 278L464 274L466 270L468 266L470 263L472 259L474 256L476 252L479 248L481 243L483 238L485 233L487 227L489 222L491 217L493 213L495 209L497 206L499 203L501 200L503 198L505 195L508 192L510 190L512 188L514 185L516 183L518 181L520 179L522 177L524 175L526 173L528 171L530 169L532 167L534 165L536 163L539 161L541 159L543 157L545 156L547 154L549 152L551 150L553 149L555 148L557 147L559 146L561 145L563 144L565 144L568 143L570 143L572 143L574 143L576 143L578 143L580 143L582 143L584 143L586 144L588 144L590 145L592 146L594 147L597 147L599 148L601 149L603 150L605 152L607 153L609 154L611 156L613 157L615 159L617 160L619 162L621 164L623 165L625 167L628 169L630 171L632 173L634 175L636 177L638 179L640 180L642 182L644 184L646 186L648 188L650 190L652 192L654 194L657 196L659 198L661 200L663 202L665 204L667 205L669 207L671 209L673 211L675 213L677 215L679 216L681 218L683 220L686 222L688 223L690 225L692 227L694 228L696 230L698 232L700 233L702 235L704 236L706 238L708 239L710 240L712 242L715 243L717 245L719 246" fill="none" stroke-width="1.5"></path></g><g class="key-India_0"><path stroke="#2a939b" stroke-linecap="round" d="M98 478L100 478L102 478L104 478L106 478L108 478L110 477L112 477L114 477L116 477L118 477L120 477L122 477L125 477L127 477L129 477L131 477L133 476L135 476L137 476L139 476L141 476L143 476L145 476L147 475L149 475L151 475L154 475L156 475L158 475L160 474L162 474L164 474L166 474L168 474L170 474L172 473L174 473L176 473L178 473L180 473L183 472L185 472L187 472L189 472L191 472L193 472L195 471L197 471L199 471L201 471L203 471L205 470L207 470L209 470L211 470L214 469L216 469L218 469L220 469L222 469L224 468L226 468L228 468L230 468L232 467L234 467L236 467L238 467L240 467L243 466L245 466L247 466L249 466L251 465L253 465L255 465L257 465L259 464L261 464L263 464L265 464L267 463L269 463L272 463L274 463L276 462L278 462L280 462L282 462L284 461L286 461L288 461L290 461L292 460L294 460L296 460L298 460L301 459L303 459L305 459L307 458L309 458L311 458L313 458L315 457L317 457L319 457L321 457L323 456L325 456L327 456L329 455L332 455L334 455L336 454L338 454L340 453L342 453L344 453L346 452L348 452L350 452L352 451L354 451L356 450L358 450L361 450L363 449L365 449L367 448L369 447L371 446L373 445L375 444L377 443L379 442L381 441L383 440L385 439L387 438L390 437L392 436L394 435L396 434L398 433L400 431L402 430L404 429L406 427L408 424L410 423L412 421L414 419L416 417L418 416L421 414L423 412L425 409L427 407L429 405L431 403L433 400L435 398L437 395L439 392L441 390L443 387L445 384L447 381L450 378L452 375L454 371L456 368L458 364L460 360L462 357L464 353L466 349L468 345L470 341L472 336L474 332L476 328L479 323L481 319L483 314L485 309L487 305L489 300L491 296L493 291L495 286L497 282L499 277L501 272L503 267L505 263L508 258L510 253L512 248L514 243L516 239L518 234L520 229L522 225L524 220L526 215L528 211L530 206L532 202L534 198L536 194L539 190L541 186L543 182L545 179L547 175L549 171L551 168L553 164L555 161L557 158L559 154L561 151L563 148L565 144L568 141L570 138L572 135L574 132L576 130L578 127L580 124L582 122L584 119L586 117L588 115L590 113L592 111L594 109L597 108L599 106L601 105L603 103L605 102L607 101L609 100L611 99L613 98L615 97L617 97L619 96L621 95L623 95L625 95L628 94L630 94L632 94L634 94L636 94L638 94L640 95L642 95L644 95L646 96L648 97L650 97L652 98L654 99L657 100L659 101L661 102L663 103L665 104L667 106L669 107L671 108L673 110L675 111L677 113L679 114L681 116L683 117L686 119L688 121L690 122L692 124L694 126L696 127L698 129L700 131L702 133L704 134L706 136L708 138L710 140L712 142L715 143L717 145L719 147" fill="none" stroke-width="1.5"></path></g><g class="key-United-States_0"><path stroke="#34983f" stroke-linecap="round" d="M98 520L100 520L102 520L104 520L106 520L108 520L110 520L112 520L114 520L116 520L118 520L120 519L122 519L125 519L127 519L129 519L131 519L133 519L135 519L137 519L139 519L141 519L143 519L145 519L147 519L149 519L151 519L154 518L156 518L158 518L160 518L162 518L164 518L166 518L168 518L170 518L172 518L174 517L176 517L178 517L180 517L183 517L185 517L187 517L189 516L191 516L193 516L195 516L197 516L199 516L201 515L203 515L205 515L207 515L209 515L211 514L214 514L216 514L218 514L220 514L222 513L224 513L226 513L228 513L230 512L232 512L234 512L236 512L238 512L240 511L243 511L245 511L247 511L249 510L251 510L253 510L255 510L257 509L259 509L261 509L263 508L265 508L267 508L269 507L272 507L274 507L276 506L278 506L280 506L282 505L284 505L286 505L288 504L290 504L292 504L294 503L296 503L298 503L301 502L303 502L305 502L307 501L309 501L311 500L313 500L315 500L317 499L319 499L321 498L323 498L325 497L327 497L329 496L332 496L334 495L336 495L338 495L340 494L342 494L344 494L346 493L348 493L350 492L352 492L354 491L356 491L358 491L361 490L363 490L365 489L367 489L369 489L371 489L373 488L375 488L377 488L379 488L381 487L383 487L385 487L387 487L390 486L392 486L394 485L396 485L398 485L400 484L402 484L404 483L406 482L408 481L410 480L412 479L414 479L416 478L418 477L421 476L423 476L425 475L427 474L429 473L431 473L433 472L435 471L437 471L439 470L441 469L443 469L445 468L447 468L450 467L452 467L454 466L456 466L458 465L460 465L462 464L464 464L466 463L468 463L470 462L472 462L474 461L476 461L479 460L481 459L483 459L485 458L487 458L489 457L491 456L493 456L495 455L497 454L499 454L501 453L503 452L505 451L508 450L510 450L512 449L514 448L516 447L518 447L520 446L522 445L524 445L526 444L528 443L530 442L532 442L534 441L536 440L539 440L541 439L543 439L545 438L547 437L549 437L551 436L553 436L555 435L557 435L559 434L561 434L563 434L565 433L568 433L570 432L572 432L574 431L576 431L578 430L580 430L582 429L584 429L586 428L588 428L590 428L592 427L594 427L597 426L599 426L601 426L603 425L605 425L607 425L609 424L611 424L613 424L615 423L617 423L619 423L621 423L623 422L625 422L628 422L630 421L632 421L634 421L636 420L638 420L640 420L642 419L644 419L646 419L648 418L650 418L652 418L654 417L657 417L659 417L661 416L663 416L665 416L667 416L669 415L671 415L673 415L675 414L677 414L679 414L681 414L683 413L686 413L688 413L690 413L692 412L694 412L696 412L698 412L700 412L702 411L704 411L706 411L708 411L710 410L712 410L715 410L717 410L719 409" fill="none" stroke-width="1.5"></path></g><g class="key-Nigeria_0"><path stroke="#f6a324" stroke-linecap="round" d="M98 519L100 519L102 519L104 519L106 519L108 519L110 519L112 519L114 519L116 519L118 519L120 519L122 519L125 519L127 519L129 519L131 519L133 518L135 518L137 518L139 518L141 518L143 518L145 518L147 518L149 518L151 518L154 518L156 518L158 518L160 518L162 518L164 518L166 518L168 518L170 518L172 518L174 518L176 518L178 518L180 518L183 518L185 518L187 518L189 518L191 518L193 518L195 518L197 518L199 518L201 518L203 518L205 518L207 518L209 518L211 518L214 518L216 518L218 518L220 518L222 518L224 518L226 518L228 518L230 518L232 518L234 518L236 518L238 518L240 518L243 518L245 518L247 518L249 518L251 518L253 518L255 518L257 518L259 518L261 518L263 518L265 518L267 518L269 518L272 518L274 518L276 517L278 517L280 517L282 517L284 517L286 517L288 517L290 517L292 517L294 517L296 517L298 517L301 517L303 517L305 517L307 517L309 517L311 517L313 517L315 517L317 517L319 517L321 517L323 517L325 517L327 517L329 517L332 517L334 517L336 517L338 517L340 517L342 517L344 517L346 517L348 517L350 517L352 517L354 517L356 517L358 517L361 517L363 517L365 517L367 517L369 517L371 516L373 516L375 516L377 516L379 516L381 515L383 515L385 515L387 515L390 515L392 514L394 514L396 514L398 513L400 513L402 513L404 512L406 512L408 512L410 512L412 512L414 511L416 511L418 511L421 511L423 511L425 510L427 510L429 510L431 510L433 509L435 509L437 509L439 509L441 508L443 508L445 508L447 507L450 507L452 507L454 506L456 506L458 506L460 505L462 505L464 504L466 504L468 503L470 503L472 502L474 502L476 501L479 501L481 500L483 499L485 499L487 498L489 498L491 497L493 496L495 496L497 495L499 494L501 494L503 493L505 492L508 492L510 491L512 490L514 489L516 488L518 488L520 487L522 486L524 485L526 484L528 483L530 482L532 481L534 480L536 478L539 477L541 476L543 475L545 474L547 472L549 471L551 470L553 468L555 467L557 466L559 464L561 463L563 461L565 460L568 458L570 457L572 455L574 454L576 452L578 450L580 449L582 447L584 445L586 444L588 442L590 440L592 438L594 436L597 435L599 433L601 431L603 429L605 427L607 425L609 423L611 422L613 420L615 418L617 416L619 414L621 412L623 410L625 408L628 406L630 404L632 402L634 400L636 398L638 396L640 395L642 393L644 391L646 389L648 387L650 385L652 383L654 381L657 379L659 377L661 375L663 374L665 372L667 370L669 368L671 366L673 365L675 363L677 361L679 359L681 358L683 356L686 354L688 353L690 351L692 350L694 348L696 347L698 345L700 344L702 342L704 341L706 339L708 338L710 337L712 336L715 334L717 333L719 332" fill="none" stroke-width="1.5"></path></g><g class="key-Brazil_0"><path stroke="#ca2628" stroke-linecap="round" d="M98 521L100 521L102 521L104 521L106 521L108 521L110 521L112 521L114 521L116 521L118 521L120 521L122 521L125 521L127 521L129 521L131 521L133 521L135 520L137 520L139 520L141 520L143 520L145 520L147 520L149 520L151 520L154 520L156 520L158 520L160 520L162 520L164 520L166 520L168 520L170 520L172 520L174 520L176 520L178 520L180 520L183 520L185 520L187 520L189 520L191 520L193 520L195 520L197 520L199 520L201 520L203 520L205 520L207 520L209 520L211 520L214 520L216 520L218 520L220 519L222 519L224 519L226 519L228 519L230 519L232 519L234 519L236 519L238 519L240 519L243 519L245 519L247 519L249 519L251 519L253 519L255 519L257 519L259 519L261 519L263 519L265 519L267 518L269 518L272 518L274 518L276 518L278 518L280 518L282 518L284 518L286 518L288 518L290 518L292 518L294 517L296 517L298 517L301 517L303 517L305 517L307 517L309 517L311 517L313 517L315 516L317 516L319 516L321 516L323 516L325 516L327 516L329 516L332 515L334 515L336 515L338 515L340 515L342 515L344 515L346 514L348 514L350 514L352 514L354 514L356 514L358 514L361 513L363 513L365 513L367 513L369 513L371 513L373 512L375 512L377 512L379 512L381 512L383 511L385 511L387 511L390 511L392 510L394 510L396 510L398 510L400 509L402 509L404 509L406 508L408 508L410 507L412 507L414 506L416 506L418 505L421 505L423 505L425 504L427 503L429 503L431 502L433 502L435 501L437 501L439 500L441 499L443 499L445 498L447 498L450 497L452 496L454 496L456 495L458 495L460 494L462 493L464 493L466 492L468 491L470 490L472 490L474 489L476 488L479 487L481 487L483 486L485 485L487 484L489 484L491 483L493 482L495 482L497 481L499 480L501 480L503 479L505 478L508 478L510 477L512 476L514 476L516 475L518 475L520 474L522 473L524 473L526 472L528 472L530 471L532 471L534 471L536 470L539 470L541 469L543 469L545 468L547 468L549 467L551 467L553 467L555 466L557 466L559 466L561 465L563 465L565 465L568 464L570 464L572 464L574 464L576 463L578 463L580 463L582 463L584 463L586 463L588 463L590 463L592 462L594 462L597 462L599 462L601 462L603 462L605 462L607 462L609 462L611 462L613 462L615 462L617 462L619 463L621 463L623 463L625 463L628 463L630 463L632 463L634 463L636 464L638 464L640 464L642 464L644 464L646 465L648 465L650 465L652 465L654 466L657 466L659 466L661 466L663 467L665 467L667 467L669 467L671 468L673 468L675 468L677 469L679 469L681 469L683 470L686 470L688 470L690 471L692 471L694 471L696 472L698 472L700 472L702 472L704 473L706 473L708 473L710 474L712 474L715 474L717 475L719 475" fill="none" stroke-width="1.5"></path></g><g class="key-Japan_0"><path stroke="#3360a9" stroke-linecap="round" d="M98 514L100 514L102 514L104 514L106 514L108 514L110 514L112 514L114 514L116 514L118 514L120 514L122 514L125 514L127 514L129 514L131 514L133 514L135 514L137 514L139 514L141 514L143 514L145 514L147 514L149 514L151 514L154 514L156 514L158 514L160 514L162 514L164 514L166 514L168 514L170 513L172 513L174 513L176 513L178 513L180 513L183 513L185 513L187 513L189 513L191 513L193 513L195 513L197 513L199 513L201 513L203 513L205 513L207 513L209 513L211 513L214 513L216 513L218 513L220 513L222 513L224 513L226 513L228 513L230 513L232 513L234 513L236 513L238 513L240 513L243 513L245 513L247 513L249 513L251 512L253 512L255 512L257 512L259 512L261 512L263 512L265 512L267 512L269 512L272 512L274 512L276 512L278 512L280 511L282 511L284 511L286 511L288 511L290 511L292 511L294 511L296 511L298 511L301 510L303 510L305 510L307 510L309 510L311 510L313 510L315 510L317 509L319 509L321 509L323 509L325 509L327 509L329 508L332 508L334 508L336 508L338 508L340 508L342 507L344 507L346 507L348 507L350 507L352 507L354 506L356 506L358 506L361 506L363 505L365 505L367 505L369 505L371 504L373 504L375 504L377 504L379 503L381 503L383 503L385 503L387 503L390 502L392 502L394 502L396 502L398 502L400 502L402 501L404 501L406 501L408 500L410 500L412 499L414 499L416 499L418 499L421 498L423 498L425 498L427 498L429 497L431 497L433 497L435 497L437 496L439 496L441 496L443 496L445 495L447 495L450 494L452 494L454 494L456 493L458 493L460 493L462 492L464 492L466 492L468 491L470 491L472 491L474 491L476 490L479 490L481 490L483 490L485 490L487 490L489 490L491 489L493 489L495 489L497 489L499 489L501 489L503 489L505 489L508 489L510 489L512 489L514 489L516 489L518 488L520 488L522 488L524 488L526 488L528 488L530 488L532 488L534 488L536 488L539 488L541 488L543 489L545 489L547 489L549 489L551 489L553 489L555 489L557 489L559 489L561 489L563 490L565 490L568 490L570 490L572 490L574 490L576 491L578 491L580 491L582 491L584 491L586 492L588 492L590 492L592 492L594 492L597 493L599 493L601 493L603 493L605 493L607 493L609 494L611 494L613 494L615 494L617 494L619 495L621 495L623 495L625 495L628 495L630 496L632 496L634 496L636 496L638 496L640 497L642 497L644 497L646 497L648 497L650 498L652 498L654 498L657 498L659 498L661 499L663 499L665 499L667 499L669 499L671 499L673 500L675 500L677 500L679 500L681 500L683 500L686 500L688 501L690 501L692 501L694 501L696 501L698 501L700 501L702 501L704 502L706 502L708 502L710 502L712 502L715 502L717 502L719 502" fill="none" stroke-width="1.5"></path></g></g></g></g><g class="SourcesFooter" style="fill:#777"><g class="clickable" style="fill:#777"><text font-size="12.60" x="15.0" y="567.9"><tspan x="15" y="567.88">Source: Gapminder &amp; UN Population Revision (2017) Medium Scenario</tspan></text></g><text font-size="12.60" x="15.0" y="582.5"><tspan x="15" y="582.48">Note: Historical country data is shown based on today&#x27;s geographical borders.</tspan></text><text font-size="12.60" x="529.5" y="567.9"><tspan x="529.45" y="567.88"><a target='_blank' style='fill: #777;' href='https://ourworldindata.org/future-population-growth'>OurWorldInData.org/future-population-growth</a> • <a style="fill: #777;" class="cclogo" href="http://creativecommons.org/licenses/by/4.0/deed.en_US" target="_blank">CC BY</a></tspan></text></g></svg>