<svg xmlns="http://www.w3.org/2000/svg" version="1.1" style="font-family:Lato, &#x27;Helvetica Neue&#x27;, Helvetica, Arial, sans-serif;font-size:18px;background-color:white;text-rendering:optimizeLegibility;-webkit-font-smoothing:antialiased" width="850" height="600" viewBox="0 0 850 600"><g class="HeaderView"><g transform="translate(774, 15) scale(0.29)"><svg width="210" height="120" viewBox="0 0 210 120" fill="none" xmlns="http://www.w3.org/2000/svg">
<g clip-path="url(#clip0)">
  <path d="M0 0h210v107.89H0V0z" fill="#002147" />
  <path
    d="M40.98 32.25c0 2.36-.38 4.53-1.12 6.51a14.26 14.26 0 0 1-8.1 8.4c-1.9.78-4.02 1.17-6.34 1.17-2.31 0-4.42-.39-6.33-1.17a14.31 14.31 0 0 1-8.08-8.4 18.29 18.29 0 0 1-1.12-6.51c0-2.36.38-4.53 1.12-6.5.75-1.97 1.8-3.67 3.17-5.1a14.32 14.32 0 0 1 4.9-3.34c1.92-.8 4.03-1.19 6.34-1.19 2.32 0 4.43.4 6.34 1.19 1.92.8 3.56 1.9 4.93 3.34a14.87 14.87 0 0 1 3.17 5.1 18.1 18.1 0 0 1 1.12 6.5zm-4.38 0c0-1.94-.26-3.68-.8-5.22a10.91 10.91 0 0 0-2.24-3.89 9.68 9.68 0 0 0-3.52-2.46 11.95 11.95 0 0 0-4.62-.86c-1.68 0-3.21.28-4.6.86a9.88 9.88 0 0 0-3.54 2.46 10.91 10.91 0 0 0-2.24 3.9c-.53 1.53-.8 3.27-.8 5.2 0 1.94.27 3.68.8 5.22a11.17 11.17 0 0 0 2.24 3.9 10.01 10.01 0 0 0 3.55 2.44c1.38.56 2.9.83 4.6.83s3.24-.27 4.61-.83a9.8 9.8 0 0 0 3.52-2.44 11.17 11.17 0 0 0 2.25-3.9c.53-1.54.8-3.28.8-5.21zm26.22-6.54V48H60.5c-.56 0-.9-.27-1.05-.81l-.31-2.4a12.45 12.45 0 0 1-3.26 2.6c-1.2.64-2.58.96-4.13.96-1.22 0-2.3-.2-3.24-.6a6.52 6.52 0 0 1-2.33-1.7 7.37 7.37 0 0 1-1.43-2.67c-.3-1.04-.46-2.2-.46-3.45V25.7h3.91v14.22c0 1.68.38 2.99 1.15 3.91.77.93 1.96 1.39 3.54 1.39 1.16 0 2.24-.27 3.23-.82a10.42 10.42 0 0 0 2.8-2.28V25.7h3.91zm8.61 4.47a9.94 9.94 0 0 1 2.6-3.56 5.64 5.64 0 0 1 3.76-1.3c.47 0 .92.05 1.34.15.44.1.83.27 1.17.49l-.3 2.92c-.09.37-.3.55-.66.55-.2 0-.5-.04-.9-.13a6.21 6.21 0 0 0-3.24.18 4.23 4.23 0 0 0-1.47.92c-.42.4-.81.9-1.17 1.5-.33.58-.64 1.26-.92 2.02V48H67.7V25.71h2.25c.42 0 .72.08.88.25.16.16.27.44.33.83l.26 3.39zm61.16-13.7L122.75 48h-3.82l-7.99-24.05a21.95 21.95 0 0 1-.42-1.58 38.36 38.36 0 0 1-.44 1.58L102.05 48h-3.83L88.4 16.47h3.54c.38 0 .7.1.95.29.26.2.43.43.5.73l6.52 21.9.28 1.28.29 1.46.3-1.46.38-1.27 7.41-21.91c.1-.25.26-.48.51-.69.27-.22.58-.33.95-.33h1.23c.38 0 .69.1.92.29a1.77 1.77 0 0 1 .53.73l7.4 21.9a28.4 28.4 0 0 1 .68 2.62 29.52 29.52 0 0 1 .52-2.61l6.54-21.91a1.31 1.31 0 0 1 .48-.7c.27-.21.58-.32.95-.32h3.32zm9.35 8.88c1.63 0 3.1.27 4.4.82a9.43 9.43 0 0 1 5.46 5.94c.5 1.4.74 2.98.74 4.73 0 1.76-.25 3.34-.74 4.75a9.43 9.43 0 0 1-5.46 5.92c-1.3.52-2.77.79-4.4.79-1.64 0-3.12-.27-4.44-.8a9.42 9.42 0 0 1-3.35-2.3c-.92-1-1.63-2.2-2.13-3.61-.49-1.41-.73-3-.73-4.75s.24-3.33.73-4.73c.5-1.43 1.2-2.64 2.13-3.63.93-1 2.04-1.77 3.35-2.31 1.32-.55 2.8-.82 4.44-.82zm0 19.89c2.2 0 3.84-.73 4.93-2.2 1.08-1.48 1.63-3.54 1.63-6.18 0-2.66-.55-4.72-1.63-6.2-1.09-1.49-2.73-2.23-4.93-2.23-1.12 0-2.09.2-2.93.57a5.71 5.71 0 0 0-2.06 1.65c-.55.72-.96 1.61-1.24 2.67-.26 1.04-.4 2.22-.4 3.54 0 2.64.55 4.7 1.64 6.18 1.1 1.47 2.76 2.2 4.99 2.2zm17.97-15.07a9.94 9.94 0 0 1 2.6-3.56 5.64 5.64 0 0 1 3.76-1.3c.47 0 .91.05 1.34.15.44.1.83.27 1.16.49l-.28 2.92c-.09.37-.31.55-.66.55-.2 0-.5-.04-.9-.13a6.2 6.2 0 0 0-3.24.18 4.23 4.23 0 0 0-1.47.92c-.43.4-.82.9-1.17 1.5a13.1 13.1 0 0 0-.92 2.02V48h-3.94V25.71h2.24c.43 0 .72.08.88.25.17.16.28.44.33.83l.27 3.39zm15.04-14.59V48h-3.92V15.6h3.92zm19.55 15.43a6.22 6.22 0 0 0-2.38-2.05 6.7 6.7 0 0 0-2.86-.6c-2.07 0-3.66.75-4.77 2.23-1.12 1.48-1.68 3.6-1.68 6.33 0 1.46.13 2.7.38 3.74a7.29 7.29 0 0 0 1.1 2.56 4.35 4.35 0 0 0 1.78 1.45c.7.3 1.5.46 2.4.46 1.29 0 2.41-.3 3.36-.88a9.6 9.6 0 0 0 2.67-2.49V31.02zm3.91-15.43V48h-2.33c-.56 0-.9-.27-1.06-.81l-.35-2.71a12.13 12.13 0 0 1-3.25 2.77 8.28 8.28 0 0 1-4.23 1.06 7.31 7.31 0 0 1-6.14-2.9c-.73-.96-1.3-2.15-1.69-3.57a18.35 18.35 0 0 1 .07-9.48 11.29 11.29 0 0 1 1.89-3.7 8.7 8.7 0 0 1 7.06-3.34 7.96 7.96 0 0 1 6.12 2.62V15.59h3.91zM46.61 70.71V93H42.7V70.71h3.91zm.84-7c0 .39-.08.75-.24 1.09-.15.32-.35.61-.62.88-.25.25-.55.44-.9.59a2.67 2.67 0 0 1-2.16 0 2.9 2.9 0 0 1-1.45-1.47 2.67 2.67 0 0 1 0-2.16c.15-.35.35-.65.6-.9.25-.27.53-.47.85-.62a2.67 2.67 0 0 1 2.16 0c.35.15.65.35.9.62.27.25.47.55.62.9.16.34.24.7.24 1.08zm7.97 10.24c.49-.54 1-1.04 1.54-1.48a9.85 9.85 0 0 1 3.66-1.84 8.96 8.96 0 0 1 5.43.35c.94.4 1.72.97 2.33 1.71.63.74 1.11 1.62 1.43 2.67.32 1.04.49 2.19.49 3.45V93h-3.94V78.81c0-1.69-.4-3-1.17-3.92-.76-.93-1.93-1.4-3.5-1.4-1.15 0-2.24.27-3.25.83-1 .56-1.92 1.31-2.77 2.27V93h-3.94V70.71h2.35c.56 0 .9.28 1.04.82l.3 2.42zm57.7 3.3c0 2.36-.37 4.5-1.11 6.44a14.3 14.3 0 0 1-3.17 4.98c-1.37 1.37-3 2.45-4.93 3.2-1.9.76-4.02 1.13-6.33 1.13H85.8V61.47h11.77c2.31 0 4.42.39 6.33 1.15a13.8 13.8 0 0 1 8.1 8.18 17.75 17.75 0 0 1 1.12 6.45zm-4.37 0c0-1.94-.26-3.67-.8-5.2a10.94 10.94 0 0 0-2.23-3.87 9.57 9.57 0 0 0-3.53-2.42 12.23 12.23 0 0 0-4.61-.83h-7.5v24.62h7.5c1.7 0 3.24-.28 4.61-.84a9.7 9.7 0 0 0 3.53-2.4 10.94 10.94 0 0 0 2.24-3.87c.53-1.53.8-3.26.8-5.2zm19.8 5.72c-1.8.06-3.34.2-4.62.44-1.26.22-2.3.51-3.1.88-.8.36-1.37.8-1.74 1.3-.35.5-.53 1.05-.53 1.67 0 .58.1 1.1.3 1.52a3 3 0 0 0 .76 1.05c.34.27.73.46 1.17.6a6.13 6.13 0 0 0 1.45.17 7.28 7.28 0 0 0 3.5-.81 11.95 11.95 0 0 0 2.82-2.2v-4.62zm-12.65-9.11a12.73 12.73 0 0 1 3.98-2.66c1.43-.59 3-.88 4.73-.88 1.25 0 2.36.2 3.33.61a6.81 6.81 0 0 1 3.94 4.38c.33 1.04.5 2.19.5 3.43V93h-1.74a1.8 1.8 0 0 1-.88-.18c-.2-.13-.36-.38-.48-.74l-.44-2.12-1.72 1.46a9.48 9.48 0 0 1-3.74 1.7c-.69.15-1.46.23-2.3.23-.87 0-1.69-.12-2.45-.35a5.34 5.34 0 0 1-3.34-2.93 6.64 6.64 0 0 1-.49-2.64c0-.88.25-1.72.73-2.53a6.33 6.33 0 0 1 2.35-2.17c1.09-.63 2.5-1.15 4.25-1.54 1.75-.41 3.89-.65 6.42-.7v-1.75c0-1.73-.37-3.03-1.12-3.91-.75-.9-1.84-1.34-3.28-1.34-.97 0-1.78.12-2.44.37-.64.23-1.2.5-1.7.81l-1.23.82c-.33.23-.67.35-1 .35-.27 0-.5-.07-.69-.2a2.1 2.1 0 0 1-.48-.53l-.7-1.25zm27.67 19.5c-1.76 0-3.12-.5-4.07-1.48-.94-.98-1.41-2.4-1.41-4.25V74h-2.68a.9.9 0 0 1-.6-.2c-.16-.14-.24-.36-.24-.66v-1.56l3.65-.46.9-6.89c.05-.22.14-.4.29-.52a.88.88 0 0 1 .62-.22H142v7.67h6.44V74H142v13.38c0 .94.22 1.63.68 2.09.45.45 1.04.68 1.76.68a3.21 3.21 0 0 0 1.85-.53l.55-.35c.16-.12.3-.18.41-.18.2 0 .4.13.55.38l1.15 1.87a7.45 7.45 0 0 1-2.44 1.5 8.53 8.53 0 0 1-2.95.52zm19.68-10.4c-1.8.07-3.34.21-4.62.45-1.26.22-2.3.51-3.1.88-.8.36-1.37.8-1.74 1.3-.35.5-.53 1.05-.53 1.67 0 .58.1 1.1.3 1.52a2.9 2.9 0 0 0 .76 1.05c.34.27.73.46 1.17.6a6.13 6.13 0 0 0 1.45.17 7.3 7.3 0 0 0 3.5-.81 12.04 12.04 0 0 0 2.82-2.2v-4.62zm-12.65-9.1a12.72 12.72 0 0 1 3.99-2.66c1.42-.59 3-.88 4.72-.88 1.25 0 2.36.2 3.33.61a6.81 6.81 0 0 1 3.94 4.38c.33 1.04.5 2.19.5 3.43V93h-1.74a1.8 1.8 0 0 1-.88-.18c-.2-.13-.36-.38-.48-.74l-.44-2.12-1.72 1.46a9.48 9.48 0 0 1-3.74 1.7c-.69.15-1.46.23-2.3.23-.87 0-1.69-.12-2.45-.35a5.33 5.33 0 0 1-3.34-2.93 6.62 6.62 0 0 1-.49-2.64c0-.88.25-1.72.73-2.53a6.33 6.33 0 0 1 2.35-2.17c1.09-.63 2.5-1.15 4.25-1.54 1.74-.41 3.89-.65 6.42-.7v-1.75c0-1.73-.37-3.03-1.12-3.91-.75-.9-1.84-1.34-3.28-1.34-.97 0-1.78.12-2.44.37-.64.23-1.2.5-1.7.81l-1.22.82c-.34.23-.68.35-1.02.35-.26 0-.49-.07-.68-.2a1.88 1.88 0 0 1-.48-.53l-.7-1.25zM40.98 32.25c0 2.36-.38 4.53-1.12 6.51a14.26 14.26 0 0 1-8.1 8.4c-1.9.78-4.02 1.17-6.34 1.17-2.31 0-4.42-.39-6.33-1.17a14.31 14.31 0 0 1-8.08-8.4 18.29 18.29 0 0 1-1.12-6.51c0-2.36.38-4.53 1.12-6.5.75-1.97 1.8-3.67 3.17-5.1a14.32 14.32 0 0 1 4.9-3.34c1.92-.8 4.03-1.19 6.34-1.19 2.32 0 4.43.4 6.34 1.19 1.92.8 3.56 1.9 4.93 3.34a14.87 14.87 0 0 1 3.17 5.1 18.1 18.1 0 0 1 1.12 6.5zm-4.38 0c0-1.94-.26-3.68-.8-5.22a10.91 10.91 0 0 0-2.24-3.89 9.68 9.68 0 0 0-3.52-2.46 11.95 11.95 0 0 0-4.62-.86c-1.68 0-3.21.28-4.6.86a9.88 9.88 0 0 0-3.54 2.46 10.91 10.91 0 0 0-2.24 3.9c-.53 1.53-.8 3.27-.8 5.2 0 1.94.27 3.68.8 5.22a11.17 11.17 0 0 0 2.24 3.9 10.01 10.01 0 0 0 3.55 2.44c1.38.56 2.9.83 4.6.83s3.24-.27 4.61-.83a9.8 9.8 0 0 0 3.52-2.44 11.17 11.17 0 0 0 2.25-3.9c.53-1.54.8-3.28.8-5.21zm26.22-6.54V48H60.5c-.56 0-.9-.27-1.05-.81l-.31-2.4a12.45 12.45 0 0 1-3.26 2.6c-1.2.64-2.58.96-4.13.96-1.22 0-2.3-.2-3.24-.6a6.52 6.52 0 0 1-2.33-1.7 7.37 7.37 0 0 1-1.43-2.67c-.3-1.04-.46-2.2-.46-3.45V25.7h3.91v14.22c0 1.68.38 2.99 1.15 3.91.77.93 1.96 1.39 3.54 1.39 1.16 0 2.24-.27 3.23-.82a10.42 10.42 0 0 0 2.8-2.28V25.7h3.91zm8.61 4.47a9.94 9.94 0 0 1 2.6-3.56 5.64 5.64 0 0 1 3.76-1.3c.47 0 .92.05 1.34.15.44.1.83.27 1.17.49l-.3 2.92c-.09.37-.3.55-.66.55-.2 0-.5-.04-.9-.13a6.21 6.21 0 0 0-3.24.18 4.23 4.23 0 0 0-1.47.92c-.42.4-.81.9-1.17 1.5-.33.58-.64 1.26-.92 2.02V48H67.7V25.71h2.25c.42 0 .72.08.88.25.16.16.27.44.33.83l.26 3.39zm61.16-13.7L122.75 48h-3.82l-7.99-24.05a21.95 21.95 0 0 1-.42-1.58 38.36 38.36 0 0 1-.44 1.58L102.05 48h-3.83L88.4 16.47h3.54c.38 0 .7.1.95.29.26.2.43.43.5.73l6.52 21.9.28 1.28.29 1.46.3-1.46.38-1.27 7.41-21.91c.1-.25.26-.48.51-.69.27-.22.58-.33.95-.33h1.23c.38 0 .69.1.92.29a1.77 1.77 0 0 1 .53.73l7.4 21.9a28.4 28.4 0 0 1 .68 2.62 29.52 29.52 0 0 1 .52-2.61l6.54-21.91a1.31 1.31 0 0 1 .48-.7c.27-.21.58-.32.95-.32h3.32zm9.35 8.88c1.63 0 3.1.27 4.4.82a9.43 9.43 0 0 1 5.46 5.94c.5 1.4.74 2.98.74 4.73 0 1.76-.25 3.34-.74 4.75a9.43 9.43 0 0 1-5.46 5.92c-1.3.52-2.77.79-4.4.79-1.64 0-3.12-.27-4.44-.8a9.42 9.42 0 0 1-3.35-2.3c-.92-1-1.63-2.2-2.13-3.61-.49-1.41-.73-3-.73-4.75s.24-3.33.73-4.73c.5-1.43 1.2-2.64 2.13-3.63.93-1 2.04-1.77 3.35-2.31 1.32-.55 2.8-.82 4.44-.82zm0 19.89c2.2 0 3.84-.73 4.93-2.2 1.08-1.48 1.63-3.54 1.63-6.18 0-2.66-.55-4.72-1.63-6.2-1.09-1.49-2.73-2.23-4.93-2.23-1.12 0-2.09.2-2.93.57a5.71 5.71 0 0 0-2.06 1.65c-.55.72-.96 1.61-1.24 2.67-.26 1.04-.4 2.22-.4 3.54 0 2.64.55 4.7 1.64 6.18 1.1 1.47 2.76 2.2 4.99 2.2zm17.97-15.07a9.94 9.94 0 0 1 2.6-3.56 5.64 5.64 0 0 1 3.76-1.3c.47 0 .91.05 1.34.15.44.1.83.27 1.16.49l-.28 2.92c-.09.37-.31.55-.66.55-.2 0-.5-.04-.9-.13a6.2 6.2 0 0 0-3.24.18 4.23 4.23 0 0 0-1.47.92c-.43.4-.82.9-1.17 1.5a13.1 13.1 0 0 0-.92 2.02V48h-3.94V25.71h2.24c.43 0 .72.08.88.25.17.16.28.44.33.83l.27 3.39zm15.04-14.59V48h-3.92V15.6h3.92zm19.55 15.43a6.22 6.22 0 0 0-2.38-2.05 6.7 6.7 0 0 0-2.86-.6c-2.07 0-3.66.75-4.77 2.23-1.12 1.48-1.68 3.6-1.68 6.33 0 1.46.13 2.7.38 3.74a7.29 7.29 0 0 0 1.1 2.56 4.35 4.35 0 0 0 1.78 1.45c.7.3 1.5.46 2.4.46 1.29 0 2.41-.3 3.36-.88a9.6 9.6 0 0 0 2.67-2.49V31.02zm3.91-15.43V48h-2.33c-.56 0-.9-.27-1.06-.81l-.35-2.71a12.13 12.13 0 0 1-3.25 2.77 8.28 8.28 0 0 1-4.23 1.06 7.31 7.31 0 0 1-6.14-2.9c-.73-.96-1.3-2.15-1.69-3.57a18.35 18.35 0 0 1 .07-9.48 11.29 11.29 0 0 1 1.89-3.7 8.7 8.7 0 0 1 7.06-3.34 7.96 7.96 0 0 1 6.12 2.62V15.59h3.91zM46.61 70.71V93H42.7V70.71h3.91zm.84-7c0 .39-.08.75-.24 1.09-.15.32-.35.61-.62.88-.25.25-.55.44-.9.59a2.67 2.67 0 0 1-2.16 0 2.9 2.9 0 0 1-1.45-1.47 2.67 2.67 0 0 1 0-2.16c.15-.35.35-.65.6-.9.25-.27.53-.47.85-.62a2.67 2.67 0 0 1 2.16 0c.35.15.65.35.9.62.27.25.47.55.62.9.16.34.24.7.24 1.08zm7.97 10.24c.49-.54 1-1.04 1.54-1.48a9.85 9.85 0 0 1 3.66-1.84 8.96 8.96 0 0 1 5.43.35c.94.4 1.72.97 2.33 1.71.63.74 1.11 1.62 1.43 2.67.32 1.04.49 2.19.49 3.45V93h-3.94V78.81c0-1.69-.4-3-1.17-3.92-.76-.93-1.93-1.4-3.5-1.4-1.15 0-2.24.27-3.25.83-1 .56-1.92 1.31-2.77 2.27V93h-3.94V70.71h2.35c.56 0 .9.28 1.04.82l.3 2.42zm57.7 3.3c0 2.36-.37 4.5-1.11 6.44a14.3 14.3 0 0 1-3.17 4.98c-1.37 1.37-3 2.45-4.93 3.2-1.9.76-4.02 1.13-6.33 1.13H85.8V61.47h11.77c2.31 0 4.42.39 6.33 1.15a13.8 13.8 0 0 1 8.1 8.18 17.75 17.75 0 0 1 1.12 6.45zm-4.37 0c0-1.94-.26-3.67-.8-5.2a10.94 10.94 0 0 0-2.23-3.87 9.57 9.57 0 0 0-3.53-2.42 12.23 12.23 0 0 0-4.61-.83h-7.5v24.62h7.5c1.7 0 3.24-.28 4.61-.84a9.7 9.7 0 0 0 3.53-2.4 10.94 10.94 0 0 0 2.24-3.87c.53-1.53.8-3.26.8-5.2zm19.8 5.72c-1.8.06-3.34.2-4.62.44-1.26.22-2.3.51-3.1.88-.8.36-1.37.8-1.74 1.3-.35.5-.53 1.05-.53 1.67 0 .58.1 1.1.3 1.52a3 3 0 0 0 .76 1.05c.34.27.73.46 1.17.6a6.13 6.13 0 0 0 1.45.17 7.28 7.28 0 0 0 3.5-.81 11.95 11.95 0 0 0 2.82-2.2v-4.62zm-12.65-9.11a12.73 12.73 0 0 1 3.98-2.66c1.43-.59 3-.88 4.73-.88 1.25 0 2.36.2 3.33.61a6.81 6.81 0 0 1 3.94 4.38c.33 1.04.5 2.19.5 3.43V93h-1.74a1.8 1.8 0 0 1-.88-.18c-.2-.13-.36-.38-.48-.74l-.44-2.12-1.72 1.46a9.48 9.48 0 0 1-3.74 1.7c-.69.15-1.46.23-2.3.23-.87 0-1.69-.12-2.45-.35a5.34 5.34 0 0 1-3.34-2.93 6.64 6.64 0 0 1-.49-2.64c0-.88.25-1.72.73-2.53a6.33 6.33 0 0 1 2.35-2.17c1.09-.63 2.5-1.15 4.25-1.54 1.75-.41 3.89-.65 6.42-.7v-1.75c0-1.73-.37-3.03-1.12-3.91-.75-.9-1.84-1.34-3.28-1.34-.97 0-1.78.12-2.44.37-.64.23-1.2.5-1.7.81l-1.23.82c-.33.23-.67.35-1 .35-.27 0-.5-.07-.69-.2a2.1 2.1 0 0 1-.48-.53l-.7-1.25zm27.67 19.5c-1.76 0-3.12-.5-4.07-1.48-.94-.98-1.41-2.4-1.41-4.25V74h-2.68a.9.9 0 0 1-.6-.2c-.16-.14-.24-.36-.24-.66v-1.56l3.65-.46.9-6.89c.05-.22.14-.4.29-.52a.88.88 0 0 1 .62-.22H142v7.67h6.44V74H142v13.38c0 .94.22 1.63.68 2.09.45.45 1.04.68 1.76.68a3.21 3.21 0 0 0 1.85-.53l.55-.35c.16-.12.3-.18.41-.18.2 0 .4.13.55.38l1.15 1.87a7.45 7.45 0 0 1-2.44 1.5 8.53 8.53 0 0 1-2.95.52zm19.68-10.4c-1.8.07-3.34.21-4.62.45-1.26.22-2.3.51-3.1.88-.8.36-1.37.8-1.74 1.3-.35.5-.53 1.05-.53 1.67 0 .58.1 1.1.3 1.52a2.9 2.9 0 0 0 .76 1.05c.34.27.73.46 1.17.6a6.13 6.13 0 0 0 1.45.17 7.3 7.3 0 0 0 3.5-.81 12.04 12.04 0 0 0 2.82-2.2v-4.62zm-12.65-9.1a12.72 12.72 0 0 1 3.99-2.66c1.42-.59 3-.88 4.72-.88 1.25 0 2.36.2 3.33.61a6.81 6.81 0 0 1 3.94 4.38c.33 1.04.5 2.19.5 3.43V93h-1.74a1.8 1.8 0 0 1-.88-.18c-.2-.13-.36-.38-.48-.74l-.44-2.12-1.72 1.46a9.48 9.48 0 0 1-3.74 1.7c-.69.15-1.46.23-2.3.23-.87 0-1.69-.12-2.45-.35a5.33 5.33 0 0 1-3.34-2.93 6.62 6.62 0 0 1-.49-2.64c0-.88.25-1.72.73-2.53a6.33 6.33 0 0 1 2.35-2.17c1.09-.63 2.5-1.15 4.25-1.54 1.74-.41 3.89-.65 6.42-.7v-1.75c0-1.73-.37-3.03-1.12-3.91-.75-.9-1.84-1.34-3.28-1.34-.97 0-1.78.12-2.44.37-.64.23-1.2.5-1.7.81l-1.22.82c-.34.23-.68.35-1.02.35-.26 0-.49-.07-.68-.2a1.88 1.88 0 0 1-.48-.53l-.7-1.25zM40.98 32.25c0 2.36-.38 4.53-1.12 6.51a14.26 14.26 0 0 1-8.1 8.4c-1.9.78-4.02 1.17-6.34 1.17-2.31 0-4.42-.39-6.33-1.17a14.31 14.31 0 0 1-8.08-8.4 18.29 18.29 0 0 1-1.12-6.51c0-2.36.38-4.53 1.12-6.5.75-1.97 1.8-3.67 3.17-5.1a14.32 14.32 0 0 1 4.9-3.34c1.92-.8 4.03-1.19 6.34-1.19 2.32 0 4.43.4 6.34 1.19 1.92.8 3.56 1.9 4.93 3.34a14.87 14.87 0 0 1 3.17 5.1 18.1 18.1 0 0 1 1.12 6.5zm-4.38 0c0-1.94-.26-3.68-.8-5.22a10.91 10.91 0 0 0-2.24-3.89 9.68 9.68 0 0 0-3.52-2.46 11.95 11.95 0 0 0-4.62-.86c-1.68 0-3.21.28-4.6.86a9.88 9.88 0 0 0-3.54 2.46 10.91 10.91 0 0 0-2.24 3.9c-.53 1.53-.8 3.27-.8 5.2 0 1.94.27 3.68.8 5.22a11.17 11.17 0 0 0 2.24 3.9 10.01 10.01 0 0 0 3.55 2.44c1.38.56 2.9.83 4.6.83s3.24-.27 4.61-.83a9.8 9.8 0 0 0 3.52-2.44 11.17 11.17 0 0 0 2.25-3.9c.53-1.54.8-3.28.8-5.21zm26.22-6.54V48H60.5c-.56 0-.9-.27-1.05-.81l-.31-2.4a12.45 12.45 0 0 1-3.26 2.6c-1.2.64-2.58.96-4.13.96-1.22 0-2.3-.2-3.24-.6a6.52 6.52 0 0 1-2.33-1.7 7.37 7.37 0 0 1-1.43-2.67c-.3-1.04-.46-2.2-.46-3.45V25.7h3.91v14.22c0 1.68.38 2.99 1.15 3.91.77.93 1.96 1.39 3.54 1.39 1.16 0 2.24-.27 3.23-.82a10.42 10.42 0 0 0 2.8-2.28V25.7h3.91zm8.61 4.47a9.94 9.94 0 0 1 2.6-3.56 5.64 5.64 0 0 1 3.76-1.3c.47 0 .92.05 1.34.15.44.1.83.27 1.17.49l-.3 2.92c-.09.37-.3.55-.66.55-.2 0-.5-.04-.9-.13a6.21 6.21 0 0 0-3.24.18 4.23 4.23 0 0 0-1.47.92c-.42.4-.81.9-1.17 1.5-.33.58-.64 1.26-.92 2.02V48H67.7V25.71h2.25c.42 0 .72.08.88.25.16.16.27.44.33.83l.26 3.39zm61.16-13.7L122.75 48h-3.82l-7.99-24.05a21.95 21.95 0 0 1-.42-1.58 38.36 38.36 0 0 1-.44 1.58L102.05 48h-3.83L88.4 16.47h3.54c.38 0 .7.1.95.29.26.2.43.43.5.73l6.52 21.9.28 1.28.29 1.46.3-1.46.38-1.27 7.41-21.91c.1-.25.26-.48.51-.69.27-.22.58-.33.95-.33h1.23c.38 0 .69.1.92.29a1.77 1.77 0 0 1 .53.73l7.4 21.9a28.4 28.4 0 0 1 .68 2.62 29.52 29.52 0 0 1 .52-2.61l6.54-21.91a1.31 1.31 0 0 1 .48-.7c.27-.21.58-.32.95-.32h3.32zm9.35 8.88c1.63 0 3.1.27 4.4.82a9.43 9.43 0 0 1 5.46 5.94c.5 1.4.74 2.98.74 4.73 0 1.76-.25 3.34-.74 4.75a9.43 9.43 0 0 1-5.46 5.92c-1.3.52-2.77.79-4.4.79-1.64 0-3.12-.27-4.44-.8a9.42 9.42 0 0 1-3.35-2.3c-.92-1-1.63-2.2-2.13-3.61-.49-1.41-.73-3-.73-4.75s.24-3.33.73-4.73c.5-1.43 1.2-2.64 2.13-3.63.93-1 2.04-1.77 3.35-2.31 1.32-.55 2.8-.82 4.44-.82zm0 19.89c2.2 0 3.84-.73 4.93-2.2 1.08-1.48 1.63-3.54 1.63-6.18 0-2.66-.55-4.72-1.63-6.2-1.09-1.49-2.73-2.23-4.93-2.23-1.12 0-2.09.2-2.93.57a5.71 5.71 0 0 0-2.06 1.65c-.55.72-.96 1.61-1.24 2.67-.26 1.04-.4 2.22-.4 3.54 0 2.64.55 4.7 1.64 6.18 1.1 1.47 2.76 2.2 4.99 2.2zm17.97-15.07a9.94 9.94 0 0 1 2.6-3.56 5.64 5.64 0 0 1 3.76-1.3c.47 0 .91.05 1.34.15.44.1.83.27 1.16.49l-.28 2.92c-.09.37-.31.55-.66.55-.2 0-.5-.04-.9-.13a6.2 6.2 0 0 0-3.24.18 4.23 4.23 0 0 0-1.47.92c-.43.4-.82.9-1.17 1.5a13.1 13.1 0 0 0-.92 2.02V48h-3.94V25.71h2.24c.43 0 .72.08.88.25.17.16.28.44.33.83l.27 3.39zm15.04-14.59V48h-3.92V15.6h3.92zm19.55 15.43a6.22 6.22 0 0 0-2.38-2.05 6.7 6.7 0 0 0-2.86-.6c-2.07 0-3.66.75-4.77 2.23-1.12 1.48-1.68 3.6-1.68 6.33 0 1.46.13 2.7.38 3.74a7.29 7.29 0 0 0 1.1 2.56 4.35 4.35 0 0 0 1.78 1.45c.7.3 1.5.46 2.4.46 1.29 0 2.41-.3 3.36-.88a9.6 9.6 0 0 0 2.67-2.49V31.02zm3.91-15.43V48h-2.33c-.56 0-.9-.27-1.06-.81l-.35-2.71a12.13 12.13 0 0 1-3.25 2.77 8.28 8.28 0 0 1-4.23 1.06 7.31 7.31 0 0 1-6.14-2.9c-.73-.96-1.3-2.15-1.69-3.57a18.35 18.35 0 0 1 .07-9.48 11.29 11.29 0 0 1 1.89-3.7 8.7 8.7 0 0 1 7.06-3.34 7.96 7.96 0 0 1 6.12 2.62V15.59h3.91zM46.61 70.71V93H42.7V70.71h3.91zm.84-7c0 .39-.08.75-.24 1.09-.15.32-.35.61-.62.88-.25.25-.55.44-.9.59a2.67 2.67 0 0 1-2.16 0 2.9 2.9 0 0 1-1.45-1.47 2.67 2.67 0 0 1 0-2.16c.15-.35.35-.65.6-.9.25-.27.53-.47.85-.62a2.67 2.67 0 0 1 2.16 0c.35.15.65.35.9.62.27.25.47.55.62.9.16.34.24.7.24 1.08zm7.97 10.24c.49-.54 1-1.04 1.54-1.48a9.85 9.85 0 0 1 3.66-1.84 8.96 8.96 0 0 1 5.43.35c.94.4 1.72.97 2.33 1.71.63.74 1.11 1.62 1.43 2.67.32 1.04.49 2.19.49 3.45V93h-3.94V78.81c0-1.69-.4-3-1.17-3.92-.76-.93-1.93-1.4-3.5-1.4-1.15 0-2.24.27-3.25.83-1 .56-1.92 1.31-2.77 2.27V93h-3.94V70.71h2.35c.56 0 .9.28 1.04.82l.3 2.42zm57.7 3.3c0 2.36-.37 4.5-1.11 6.44a14.3 14.3 0 0 1-3.17 4.98c-1.37 1.37-3 2.45-4.93 3.2-1.9.76-4.02 1.13-6.33 1.13H85.8V61.47h11.77c2.31 0 4.42.39 6.33 1.15a13.8 13.8 0 0 1 8.1 8.18 17.75 17.75 0 0 1 1.12 6.45zm-4.37 0c0-1.94-.26-3.67-.8-5.2a10.94 10.94 0 0 0-2.23-3.87 9.57 9.57 0 0 0-3.53-2.42 12.23 12.23 0 0 0-4.61-.83h-7.5v24.62h7.5c1.7 0 3.24-.28 4.61-.84a9.7 9.7 0 0 0 3.53-2.4 10.94 10.94 0 0 0 2.24-3.87c.53-1.53.8-3.26.8-5.2zm19.8 5.72c-1.8.06-3.34.2-4.62.44-1.26.22-2.3.51-3.1.88-.8.36-1.37.8-1.74 1.3-.35.5-.53 1.05-.53 1.67 0 .58.1 1.1.3 1.52a3 3 0 0 0 .76 1.05c.34.27.73.46 1.17.6a6.13 6.13 0 0 0 1.45.17 7.28 7.28 0 0 0 3.5-.81 11.95 11.95 0 0 0 2.82-2.2v-4.62zm-12.65-9.11a12.73 12.73 0 0 1 3.98-2.66c1.43-.59 3-.88 4.73-.88 1.25 0 2.36.2 3.33.61a6.81 6.81 0 0 1 3.94 4.38c.33 1.04.5 2.19.5 3.43V93h-1.74a1.8 1.8 0 0 1-.88-.18c-.2-.13-.36-.38-.48-.74l-.44-2.12-1.72 1.46a9.48 9.48 0 0 1-3.74 1.7c-.69.15-1.46.23-2.3.23-.87 0-1.69-.12-2.45-.35a5.34 5.34 0 0 1-3.34-2.93 6.64 6.64 0 0 1-.49-2.64c0-.88.25-1.72.73-2.53a6.33 6.33 0 0 1 2.35-2.17c1.09-.63 2.5-1.15 4.25-1.54 1.75-.41 3.89-.65 6.42-.7v-1.75c0-1.73-.37-3.03-1.12-3.91-.75-.9-1.84-1.34-3.28-1.34-.97 0-1.78.12-2.44.37-.64.23-1.2.5-1.7.81l-1.23.82c-.33.23-.67.35-1 .35-.27 0-.5-.07-.69-.2a2.1 2.1 0 0 1-.48-.53l-.7-1.25zm27.67 19.5c-1.76 0-3.12-.5-4.07-1.48-.94-.98-1.41-2.4-1.41-4.25V74h-2.68a.9.9 0 0 1-.6-.2c-.16-.14-.24-.36-.24-.66v-1.56l3.65-.46.9-6.89c.05-.22.14-.4.29-.52a.88.88 0 0 1 .62-.22H142v7.67h6.44V74H142v13.38c0 .94.22 1.63.68 2.09.45.45 1.04.68 1.76.68a3.21 3.21 0 0 0 1.85-.53l.55-.35c.16-.12.3-.18.41-.18.2 0 .4.13.55.38l1.15 1.87a7.45 7.45 0 0 1-2.44 1.5 8.53 8.53 0 0 1-2.95.52zm19.68-10.4c-1.8.07-3.34.21-4.62.45-1.26.22-2.3.51-3.1.88-.8.36-1.37.8-1.74 1.3-.35.5-.53 1.05-.53 1.67 0 .58.1 1.1.3 1.52a2.9 2.9 0 0 0 .76 1.05c.34.27.73.46 1.17.6a6.13 6.13 0 0 0 1.45.17 7.3 7.3 0 0 0 3.5-.81 12.04 12.04 0 0 0 2.82-2.2v-4.62zm-12.65-9.1a12.72 12.72 0 0 1 3.99-2.66c1.42-.59 3-.88 4.72-.88 1.25 0 2.36.2 3.33.61a6.81 6.81 0 0 1 3.94 4.38c.33 1.04.5 2.19.5 3.43V93h-1.74a1.8 1.8 0 0 1-.88-.18c-.2-.13-.36-.38-.48-.74l-.44-2.12-1.72 1.46a9.48 9.48 0 0 1-3.74 1.7c-.69.15-1.46.23-2.3.23-.87 0-1.69-.12-2.45-.35a5.33 5.33 0 0 1-3.34-2.93 6.62 6.62 0 0 1-.49-2.64c0-.88.25-1.72.73-2.53a6.33 6.33 0 0 1 2.35-2.17c1.09-.63 2.5-1.15 4.25-1.54 1.74-.41 3.89-.65 6.42-.7v-1.75c0-1.73-.37-3.03-1.12-3.91-.75-.9-1.84-1.34-3.28-1.34-.97 0-1.78.12-2.44.37-.64.23-1.2.5-1.7.81l-1.22.82c-.34.23-.68.35-1.02.35-.26 0-.49-.07-.68-.2a1.88 1.88 0 0 1-.48-.53l-.7-1.25z"
    fill="#fff"
  />
  <path fill="#D42B21" d="M0 106.79h210V120H0z" />
</g>
<defs>
  <clipPath id="clip0"><path fill="#fff" d="M0 0h210v120H0z" /></clipPath>
</defs>
</svg></g><a href="https://ourworldindata.org/grapher/co2-emissions-vs-gdp?tab=chart&amp;country=&amp;region=World" style="font-family:&quot;Playfair Display&quot;, Georgia, &quot;Times New Roman&quot;, serif" target="_blank" rel="noopener"><text font-size="25.20" x="15.0" y="35.2" fill="#555"><tspan x="15" y="35.160000000000004">CO₂ emissions per capita vs GDP per capita, 2016</tspan></text></a><text font-size="14.40" x="15.0" y="55.7" fill="#666"><tspan x="15" y="55.72">This measures CO₂ emissions from fossil fuels and cement production only – land use change is not included.</tspan><tspan x="15" y="73">Gross domestic product (GDP) per capita is measured in international-$ in 2011 prices to adjust for price</tspan><tspan x="15" y="90.28">differences between countries and adjust for inflation.</tspan></text></g><g class="ScatterPlot"><g class="DualAxisView"><g class="HorizontalAxis"><text font-size="12.60" x="323.3" y="554.0"><tspan x="323.328" y="553.98">GDP per capita</tspan></text><text x="69.8" y="533.9" fill="#666" text-anchor="middle" font-size="16.2">$589</text><text x="139.2" y="533.9" fill="#666" text-anchor="middle" font-size="16.2">$1,000</text><text x="230" y="533.9" fill="#666" text-anchor="middle" font-size="16.2">$2,000</text><text x="350.2" y="533.9" fill="#666" text-anchor="middle" font-size="16.2">$5,000</text><text x="441" y="533.9" fill="#666" text-anchor="middle" font-size="16.2">$10,000</text><text x="531.9" y="533.9" fill="#666" text-anchor="middle" font-size="16.2">$20,000</text><text x="652" y="533.9" fill="#666" text-anchor="middle" font-size="16.2">$50,000</text></g><g class="VerticalAxis"><text font-size="12.60" x="-404.1" y="25.1" transform="rotate(-90)"><tspan x="-404.096" y="25.080000000000002">CO₂ emissions per capita</tspan></text><text x="64.82" y="512.7" fill="#666" dominant-baseline="middle" text-anchor="end" font-size="16.2">0 t</text><text x="64.82" y="443" fill="#666" dominant-baseline="middle" text-anchor="end" font-size="16.2">5 t</text><text x="64.82" y="373.4" fill="#666" dominant-baseline="middle" text-anchor="end" font-size="16.2">10 t</text><text x="64.82" y="303.7" fill="#666" dominant-baseline="middle" text-anchor="end" font-size="16.2">15 t</text><text x="64.82" y="234.1" fill="#666" dominant-baseline="middle" text-anchor="end" font-size="16.2">20 t</text><text x="64.82" y="164.4" fill="#666" dominant-baseline="middle" text-anchor="end" font-size="16.2">25 t</text></g><g class="AxisGridLines horizontalLines"><line x1="69.82" y1="512.7" x2="718.09" y2="512.7" stroke="#ccc"></line><line x1="69.82" y1="443" x2="718.09" y2="443" stroke="#d3d3d3" stroke-dasharray="3,2"></line><line x1="69.82" y1="373.4" x2="718.09" y2="373.4" stroke="#d3d3d3" stroke-dasharray="3,2"></line><line x1="69.82" y1="303.7" x2="718.09" y2="303.7" stroke="#d3d3d3" stroke-dasharray="3,2"></line><line x1="69.82" y1="234.1" x2="718.09" y2="234.1" stroke="#d3d3d3" stroke-dasharray="3,2"></line><line x1="69.82" y1="164.4" x2="718.09" y2="164.4" stroke="#d3d3d3" stroke-dasharray="3,2"></line></g><g class="AxisGridLines verticalLines"><line x1="139.2" y1="512.70" x2="139.2" y2="107.80" stroke="#d3d3d3" stroke-dasharray="3,2"></line><line x1="230" y1="512.70" x2="230" y2="107.80" stroke="#d3d3d3" stroke-dasharray="3,2"></line><line x1="350.2" y1="512.70" x2="350.2" y2="107.80" stroke="#d3d3d3" stroke-dasharray="3,2"></line><line x1="441" y1="512.70" x2="441" y2="107.80" stroke="#d3d3d3" stroke-dasharray="3,2"></line><line x1="531.9" y1="512.70" x2="531.9" y2="107.80" stroke="#d3d3d3" stroke-dasharray="3,2"></line><line x1="652" y1="512.70" x2="652" y2="107.80" stroke="#d3d3d3" stroke-dasharray="3,2"></line></g></g><g class="PointsWithLabels clickable" clip-path="url(#scatterBounds-2)" font-family="Arial, sans-serif"><rect x="69.816" y="107.8" width="648.276" height="404.9" fill="rgba(255,255,255,0)"></rect><defs><clipPath id="scatterBounds-2"><rect x="59.816" y="97.8" width="668.276" height="424.9"></rect></clipPath></defs><g class="key-China_0"><circle cx="471.00" cy="418.00" r="17.84" fill="#2D8587" opacity="0.8" stroke="#333" stroke-width="0.5"></circle></g><g class="key-India_0"><circle cx="376.00" cy="487.00" r="17.27" fill="#2D8587" opacity="0.8" stroke="#333" stroke-width="0.5"></circle></g><g class="key-United-States_0"><circle cx="659.00" cy="284.00" r="8.67" fill="#E04E4B" opacity="0.8" stroke="#333" stroke-width="0.5"></circle></g><g class="key-Indonesia_0"><circle cx="452.00" cy="482.00" r="7.84" fill="#2D8587" opacity="0.8" stroke="#333" stroke-width="0.5"></circle></g><g class="key-Brazil_0"><circle cx="483.00" cy="480.00" r="7.01" fill="#932834" opacity="0.8" stroke="#666" stroke-width="0.5"></circle></g><g class="key-Pakistan_0"><circle cx="355.00" cy="498.00" r="6.97" fill="#2D8587" opacity="0.8" stroke="#333" stroke-width="0.5"></circle></g><g class="key-Nigeria_0"><circle cx="359.00" cy="504.00" r="6.68" fill="#923E8B" opacity="0.8" stroke="#666" stroke-width="0.5"></circle></g><g class="key-Bangladesh_0"><circle cx="307.00" cy="506.00" r="6.20" fill="#2D8587" opacity="0.8" stroke="#666" stroke-width="0.5"></circle></g><g class="key-Russia_0"><circle cx="553.00" cy="357.00" r="5.96" fill="#4C5C78" opacity="0.8" stroke="#333" stroke-width="0.5"></circle></g><g class="key-Japan_0"><circle cx="614.00" cy="381.00" r="5.63" fill="#2D8587" opacity="0.8" stroke="#333" stroke-width="0.5"></circle></g><g class="key-Mexico_0"><circle cx="503.00" cy="458.00" r="5.54" fill="#E04E4B" opacity="0.8" stroke="#333" stroke-width="0.5"></circle></g><g class="key-Philippines_0"><circle cx="401.00" cy="496.00" r="5.13" fill="#2D8587" opacity="0.8" stroke="#666" stroke-width="0.5"></circle></g><g class="key-Ethiopia_0"><circle cx="203.00" cy="510.00" r="5.12" fill="#923E8B" opacity="0.8" stroke="#333" stroke-width="0.5"></circle></g><g class="key-Egypt_0"><circle cx="457.00" cy="478.00" r="4.92" fill="#923E8B" opacity="0.8" stroke="#666" stroke-width="0.5"></circle></g><g class="key-Vietnam_0"><circle cx="375.00" cy="485.00" r="4.90" fill="#2D8587" opacity="0.8" stroke="#666" stroke-width="0.5"></circle></g><g class="key-Germany_0"><circle cx="637.00" cy="377.00" r="4.64" fill="#4C5C78" opacity="0.8" stroke="#666" stroke-width="0.5"></circle></g><g class="key-Turkey_0"><circle cx="517.00" cy="442.00" r="4.58" fill="#2D8587" opacity="0.8" stroke="#666" stroke-width="0.5"></circle></g><g class="key-Iran_0"><circle cx="508.00" cy="399.00" r="4.57" fill="#2D8587" opacity="0.8" stroke="#666" stroke-width="0.5"></circle></g><g class="key-Democratic-Republic-of-Congo_0"><circle cx="115.00" cy="512.00" r="4.55" fill="#923E8B" opacity="0.8" stroke="#666" stroke-width="0.5"></circle></g><g class="key-Thailand_0"><circle cx="498.00" cy="455.00" r="4.31" fill="#2D8587" opacity="0.8" stroke="#666" stroke-width="0.5"></circle></g><g class="key-United-Kingdom_0"><circle cx="613.00" cy="428.00" r="4.24" fill="#4C5C78" opacity="0.8" stroke="#333" stroke-width="0.5"></circle></g><g class="key-France_0"><circle cx="612.00" cy="439.00" r="4.19" fill="#4C5C78" opacity="0.8" stroke="#666" stroke-width="0.5"></circle></g><g class="key-Italy_0"><circle cx="599.00" cy="430.00" r="4.09" fill="#4C5C78" opacity="0.8" stroke="#666" stroke-width="0.5"></circle></g><g class="key-South-Africa_0"><circle cx="466.00" cy="398.00" r="3.96" fill="#923E8B" opacity="0.8" stroke="#666" stroke-width="0.5"></circle></g><g class="key-Tanzania_0"><circle cx="267.00" cy="509.00" r="3.87" fill="#923E8B" opacity="0.8" stroke="#333" stroke-width="0.5"></circle></g><g class="key-Myanmar_0"><circle cx="357.00" cy="506.00" r="3.87" fill="#2D8587" opacity="0.8" stroke="#666" stroke-width="0.5"></circle></g><g class="key-South-Korea_0"><circle cx="609.00" cy="343.00" r="3.81" fill="#2D8587" opacity="0.8" stroke="#333" stroke-width="0.5"></circle></g><g class="key-Kenya_0"><circle cx="290.00" cy="507.00" r="3.76" fill="#923E8B" opacity="0.8" stroke="#666" stroke-width="0.5"></circle></g><g class="key-Colombia_0"><circle cx="478.00" cy="483.00" r="3.73" fill="#932834" opacity="0.8" stroke="#666" stroke-width="0.5"></circle></g><g class="key-Spain_0"><circle cx="585.00" cy="434.00" r="3.68" fill="#4C5C78" opacity="0.8" stroke="#666" stroke-width="0.5"></circle></g><g class="key-Ukraine_0"><circle cx="430.00" cy="439.00" r="3.62" fill="#4C5C78" opacity="0.8" stroke="#333" stroke-width="0.5"></circle></g><g class="key-Argentina_0"><circle cx="524.00" cy="451.00" r="3.59" fill="#932834" opacity="0.8" stroke="#666" stroke-width="0.5"></circle></g><g class="key-Algeria_0"><circle cx="488.00" cy="461.00" r="3.49" fill="#923E8B" opacity="0.8" stroke="#666" stroke-width="0.5"></circle></g><g class="key-Sudan_0"><circle cx="308.00" cy="505.00" r="3.47" fill="#923E8B" opacity="0.8" stroke="#666" stroke-width="0.5"></circle></g><g class="key-Uganda_0"><circle cx="228.00" cy="511.00" r="3.47" fill="#923E8B" opacity="0.8" stroke="#666" stroke-width="0.5"></circle></g><g class="key-Poland_0"><circle cx="560.00" cy="393.00" r="3.41" fill="#4C5C78" opacity="0.8" stroke="#333" stroke-width="0.5"></circle></g><g class="key-Iraq_0"><circle cx="484.00" cy="438.00" r="3.37" fill="#2D8587" opacity="0.8" stroke="#333" stroke-width="0.5"></circle></g><g class="key-Canada_0"><circle cx="634.00" cy="296.00" r="3.36" fill="#E04E4B" opacity="0.8" stroke="#333" stroke-width="0.5"></circle></g><g class="key-Afghanistan_0"><circle cx="225.00" cy="510.00" r="3.33" fill="#2D8587" opacity="0.8" stroke="#666" stroke-width="0.5"></circle></g><g class="key-Morocco_0"><circle cx="412.00" cy="488.00" r="3.32" fill="#923E8B" opacity="0.8" stroke="#666" stroke-width="0.5"></circle></g><g class="key-Saudi-Arabia_0"><circle cx="655.00" cy="269.00" r="3.23" fill="#2D8587" opacity="0.8" stroke="#666" stroke-width="0.5"></circle></g><g class="key-Uzbekistan_0"><circle cx="445.00" cy="466.00" r="3.19" fill="#2D8587" opacity="0.8" stroke="#666" stroke-width="0.5"></circle></g><g class="key-Peru_0"><circle cx="462.00" cy="489.00" r="3.17" fill="#932834" opacity="0.8" stroke="#666" stroke-width="0.5"></circle></g><g class="key-Malaysia_0"><circle cx="550.00" cy="400.00" r="3.16" fill="#2D8587" opacity="0.8" stroke="#666" stroke-width="0.5"></circle></g><g class="key-Venezuela_0"><circle cx="496.00" cy="436.00" r="3.13" fill="#932834" opacity="0.8" stroke="#666" stroke-width="0.5"></circle></g><g class="key-Angola_0"><circle cx="419.00" cy="496.00" r="3.10" fill="#923E8B" opacity="0.8" stroke="#333" stroke-width="0.5"></circle></g><g class="key-Ghana_0"><circle cx="316.00" cy="504.00" r="3.09" fill="#923E8B" opacity="0.8" stroke="#666" stroke-width="0.5"></circle></g><g class="key-Mozambique_0"><circle cx="153.00" cy="508.00" r="3.06" fill="#923E8B" opacity="0.8" stroke="#666" stroke-width="0.5"></circle></g><g class="key-Nepal_0"><circle cx="255.00" cy="508.00" r="3.04" fill="#2D8587" opacity="0.8" stroke="#666" stroke-width="0.5"></circle></g><g class="key-Yemen_0"><circle cx="259.00" cy="507.00" r="3.04" fill="#2D8587" opacity="0.8" stroke="#666" stroke-width="0.5"></circle></g><g class="key-Madagascar_0"><circle cx="181.00" cy="510.00" r="2.95" fill="#923E8B" opacity="0.8" stroke="#666" stroke-width="0.5"></circle></g><g class="key-Australia_0"><circle cx="648.00" cy="276.00" r="2.93" fill="#A8633C" opacity="0.8" stroke="#666" stroke-width="0.5"></circle></g><g class="key-Cameroon_0"><circle cx="275.00" cy="507.00" r="2.92" fill="#923E8B" opacity="0.8" stroke="#666" stroke-width="0.5"></circle></g><g class="key-Taiwan_0"><circle cx="629.00" cy="356.00" r="2.90" fill="#2D8587" opacity="0.8" stroke="#666" stroke-width="0.5"></circle></g><g class="key-Sri-Lanka_0"><circle cx="455.00" cy="497.00" r="2.80" fill="#2D8587" opacity="0.8" stroke="#666" stroke-width="0.5"></circle></g><g class="key-Niger_0"><circle cx="129.00" cy="511.00" r="2.79" fill="#923E8B" opacity="0.8" stroke="#333" stroke-width="0.5"></circle></g><g class="key-Romania_0"><circle cx="516.00" cy="459.00" r="2.75" fill="#4C5C78" opacity="0.8" stroke="#666" stroke-width="0.5"></circle></g><g class="key-Burkina-Faso_0"><circle cx="190.00" cy="510.00" r="2.71" fill="#923E8B" opacity="0.8" stroke="#666" stroke-width="0.5"></circle></g><g class="key-Chile_0"><circle cx="542.00" cy="448.00" r="2.69" fill="#932834" opacity="0.8" stroke="#666" stroke-width="0.5"></circle></g><g class="key-Mali_0"><circle cx="200.00" cy="510.00" r="2.68" fill="#923E8B" opacity="0.8" stroke="#666" stroke-width="0.5"></circle></g><g class="key-Kazakhstan_0"><circle cx="554.00" cy="287.00" r="2.67" fill="#2D8587" opacity="0.8" stroke="#666" stroke-width="0.5"></circle></g><g class="key-Syria_0"><circle cx="287.00" cy="490.00" r="2.66" fill="#2D8587" opacity="0.8" stroke="#333" stroke-width="0.5"></circle></g><g class="key-Malawi_0"><circle cx="153.00" cy="511.00" r="2.65" fill="#923E8B" opacity="0.8" stroke="#666" stroke-width="0.5"></circle></g><g class="key-Netherlands_0"><circle cx="639.00" cy="376.00" r="2.64" fill="#4C5C78" opacity="0.8" stroke="#666" stroke-width="0.5"></circle></g><g class="key-Guatemala_0"><circle cx="398.00" cy="498.00" r="2.62" fill="#E04E4B" opacity="0.8" stroke="#666" stroke-width="0.5"></circle></g><g class="key-Ecuador_0"><circle cx="447.00" cy="479.00" r="2.62" fill="#932834" opacity="0.8" stroke="#666" stroke-width="0.5"></circle></g><g class="key-Zambia_0"><circle cx="302.00" cy="508.00" r="2.61" fill="#923E8B" opacity="0.8" stroke="#666" stroke-width="0.5"></circle></g><g class="key-Cambodia_0"><circle cx="293.00" cy="504.00" r="2.59" fill="#2D8587" opacity="0.8" stroke="#666" stroke-width="0.5"></circle></g><g class="key-Senegal_0"><circle cx="254.00" cy="503.00" r="2.55" fill="#923E8B" opacity="0.8" stroke="#666" stroke-width="0.5"></circle></g><g class="key-Chad_0"><circle cx="241.00" cy="511.00" r="2.53" fill="#923E8B" opacity="0.8" stroke="#666" stroke-width="0.5"></circle></g><g class="key-Zimbabwe_0"><circle cx="195.00" cy="502.00" r="2.51" fill="#923E8B" opacity="0.8" stroke="#666" stroke-width="0.5"></circle></g><g class="key-Guinea_0"><circle cx="184.00" cy="509.00" r="2.41" fill="#923E8B" opacity="0.8" stroke="#666" stroke-width="0.5"></circle></g><g class="key-Rwanda_0"><circle cx="213.00" cy="511.00" r="2.40" fill="#923E8B" opacity="0.8" stroke="#666" stroke-width="0.5"></circle></g><g class="key-Belgium_0"><circle cx="618.00" cy="390.00" r="2.39" fill="#4C5C78" opacity="0.8" stroke="#666" stroke-width="0.5"></circle></g><g class="key-Tunisia_0"><circle cx="454.00" cy="477.00" r="2.39" fill="#923E8B" opacity="0.8" stroke="#666" stroke-width="0.5"></circle></g><g class="key-Bolivia_0"><circle cx="381.00" cy="486.00" r="2.37" fill="#932834" opacity="0.8" stroke="#666" stroke-width="0.5"></circle></g><g class="key-Benin_0"><circle cx="235.00" cy="504.00" r="2.37" fill="#923E8B" opacity="0.8" stroke="#666" stroke-width="0.5"></circle></g><g class="key-Haiti_0"><circle cx="210.00" cy="508.00" r="2.36" fill="#E04E4B" opacity="0.8" stroke="#666" stroke-width="0.5"></circle></g><g class="key-Czechia_0"><circle cx="579.00" cy="372.00" r="2.35" fill="#4C5C78" opacity="0.8" stroke="#666" stroke-width="0.5"></circle></g><g class="key-Greece_0"><circle cx="547.00" cy="419.00" r="2.35" fill="#4C5C78" opacity="0.8" stroke="#333" stroke-width="0.5"></circle></g><g class="key-Burundi_0"><circle cx="85.00" cy="512.00" r="2.35" fill="#923E8B" opacity="0.8" stroke="#666" stroke-width="0.5"></circle></g><g class="key-Dominican-Republic_0"><circle cx="489.00" cy="479.00" r="2.34" fill="#E04E4B" opacity="0.8" stroke="#666" stroke-width="0.5"></circle></g><g class="key-Portugal_0"><circle cx="562.00" cy="444.00" r="2.34" fill="#4C5C78" opacity="0.8" stroke="#333" stroke-width="0.5"></circle></g><g class="key-Sweden_0"><circle cx="637.00" cy="451.00" r="2.32" fill="#4C5C78" opacity="0.8" stroke="#333" stroke-width="0.5"></circle></g><g class="key-Hungary_0"><circle cx="551.00" cy="445.00" r="2.31" fill="#4C5C78" opacity="0.8" stroke="#666" stroke-width="0.5"></circle></g><g class="key-Azerbaijan_0"><circle cx="507.00" cy="459.00" r="2.31" fill="#2D8587" opacity="0.8" stroke="#666" stroke-width="0.5"></circle></g><g class="key-Jordan_0"><circle cx="459.00" cy="477.00" r="2.30" fill="#2D8587" opacity="0.8" stroke="#666" stroke-width="0.5"></circle></g><g class="key-Belarus_0"><circle cx="515.00" cy="423.00" r="2.30" fill="#4C5C78" opacity="0.8" stroke="#666" stroke-width="0.5"></circle></g><g class="key-United-Arab-Emirates_0"><circle cx="706.00" cy="172.00" r="2.29" fill="#2D8587" opacity="0.8" stroke="#333" stroke-width="0.5"></circle></g><g class="key-Honduras_0"><circle cx="344.00" cy="498.00" r="2.29" fill="#E04E4B" opacity="0.8" stroke="#666" stroke-width="0.5"></circle></g><g class="key-Serbia_0"><circle cx="477.00" cy="441.00" r="2.27" fill="#4C5C78" opacity="0.8" stroke="#666" stroke-width="0.5"></circle></g><g class="key-Austria_0"><circle cx="627.00" cy="405.00" r="2.26" fill="#4C5C78" opacity="0.8" stroke="#333" stroke-width="0.5"></circle></g><g class="key-Tajikistan_0"><circle cx="320.00" cy="502.00" r="2.26" fill="#2D8587" opacity="0.8" stroke="#666" stroke-width="0.5"></circle></g><g class="key-Switzerland_0"><circle cx="675.00" cy="447.00" r="2.25" fill="#4C5C78" opacity="0.8" stroke="#666" stroke-width="0.5"></circle></g><g class="key-Israel_0"><circle cx="592.00" cy="402.00" r="2.23" fill="#2D8587" opacity="0.8" stroke="#666" stroke-width="0.5"></circle></g><g class="key-Togo_0"><circle cx="183.00" cy="507.00" r="2.20" fill="#923E8B" opacity="0.8" stroke="#666" stroke-width="0.5"></circle></g><g class="key-Sierra-Leone_0"><circle cx="202.00" cy="510.00" r="2.19" fill="#923E8B" opacity="0.8" stroke="#666" stroke-width="0.5"></circle></g><g class="key-Hong-Kong_0"><circle cx="647.00" cy="429.00" r="2.19" fill="#2D8587" opacity="0.8" stroke="#666" stroke-width="0.5"></circle></g><g class="key-Bulgaria_0"><circle cx="510.00" cy="424.00" r="2.18" fill="#4C5C78" opacity="0.8" stroke="#666" stroke-width="0.5"></circle></g><g class="key-Laos_0"><circle cx="370.00" cy="483.00" r="2.17" fill="#2D8587" opacity="0.8" stroke="#666" stroke-width="0.5"></circle></g><g class="key-Paraguay_0"><circle cx="424.00" cy="498.00" r="2.16" fill="#932834" opacity="0.8" stroke="#666" stroke-width="0.5"></circle></g><g class="key-Lebanon_0"><circle cx="475.00" cy="457.00" r="2.16" fill="#2D8587" opacity="0.8" stroke="#666" stroke-width="0.5"></circle></g><g class="key-Libya_0"><circle cx="413.00" cy="420.00" r="2.15" fill="#923E8B" opacity="0.8" stroke="#333" stroke-width="0.5"></circle></g><g class="key-El-Salvador_0"><circle cx="416.00" cy="498.00" r="2.14" fill="#E04E4B" opacity="0.8" stroke="#666" stroke-width="0.5"></circle></g><g class="key-Nicaragua_0"><circle cx="351.00" cy="500.00" r="2.14" fill="#E04E4B" opacity="0.8" stroke="#666" stroke-width="0.5"></circle></g><g class="key-Kyrgyzstan_0"><circle cx="346.00" cy="490.00" r="2.13" fill="#2D8587" opacity="0.8" stroke="#666" stroke-width="0.5"></circle></g><g class="key-Denmark_0"><circle cx="637.00" cy="422.00" r="2.11" fill="#4C5C78" opacity="0.8" stroke="#666" stroke-width="0.5"></circle></g><g class="key-Turkmenistan_0"><circle cx="554.00" cy="340.00" r="2.11" fill="#2D8587" opacity="0.8" stroke="#666" stroke-width="0.5"></circle></g><g class="key-Singapore_0"><circle cx="687.00" cy="413.00" r="2.11" fill="#2D8587" opacity="0.8" stroke="#666" stroke-width="0.5"></circle></g><g class="key-Finland_0"><circle cx="613.00" cy="393.00" r="2.10" fill="#4C5C78" opacity="0.8" stroke="#666" stroke-width="0.5"></circle></g><g class="key-Slovakia_0"><circle cx="563.00" cy="423.00" r="2.09" fill="#4C5C78" opacity="0.8" stroke="#666" stroke-width="0.5"></circle></g><g class="key-Norway_0"><circle cx="718.00" cy="394.00" r="2.08" fill="#4C5C78" opacity="0.8" stroke="#333" stroke-width="0.5"></circle></g><g class="key-Congo_0"><circle cx="373.00" cy="502.00" r="2.07" fill="#923E8B" opacity="0.8" stroke="#666" stroke-width="0.5"></circle></g><g class="key-Costa-Rica_0"><circle cx="486.00" cy="490.00" r="2.07" fill="#E04E4B" opacity="0.8" stroke="#666" stroke-width="0.5"></circle></g><g class="key-Ireland_0"><circle cx="668.00" cy="394.00" r="2.05" fill="#4C5C78" opacity="0.8" stroke="#666" stroke-width="0.5"></circle></g><g class="key-New-Zealand_0"><circle cx="602.00" cy="410.00" r="2.05" fill="#A8633C" opacity="0.8" stroke="#666" stroke-width="0.5"></circle></g><g class="key-Liberia_0"><circle cx="114.00" cy="508.00" r="2.05" fill="#923E8B" opacity="0.8" stroke="#666" stroke-width="0.5"></circle></g><g class="key-Central-African-Republic_0"><circle cx="69.00" cy="511.00" r="2.05" fill="#923E8B" opacity="0.8" stroke="#666" stroke-width="0.5"></circle></g><g class="key-Oman_0"><circle cx="617.00" cy="326.00" r="2.04" fill="#2D8587" opacity="0.8" stroke="#666" stroke-width="0.5"></circle></g><g class="key-Croatia_0"><circle cx="534.00" cy="452.00" r="2.03" fill="#4C5C78" opacity="0.8" stroke="#666" stroke-width="0.5"></circle></g><g class="key-Mauritania_0"><circle cx="299.00" cy="503.00" r="2.03" fill="#923E8B" opacity="0.8" stroke="#666" stroke-width="0.5"></circle></g><g class="key-Moldova_0"><circle cx="375.00" cy="495.00" r="2.02" fill="#4C5C78" opacity="0.8" stroke="#666" stroke-width="0.5"></circle></g><g class="key-Panama_0"><circle cx="541.00" cy="476.00" r="2.02" fill="#E04E4B" opacity="0.8" stroke="#333" stroke-width="0.5"></circle></g><g class="key-Georgia_0"><circle cx="452.00" cy="478.00" r="2.02" fill="#2D8587" opacity="0.8" stroke="#666" stroke-width="0.5"></circle></g><g class="key-Kuwait_0"><circle cx="697.00" cy="155.00" r="2.01" fill="#2D8587" opacity="0.8" stroke="#666" stroke-width="0.5"></circle></g><g class="key-Uruguay_0"><circle cx="528.00" cy="486.00" r="1.98" fill="#932834" opacity="0.8" stroke="#666" stroke-width="0.5"></circle></g><g class="key-Bosnia-and-Herzegovina_0"><circle cx="437.00" cy="423.00" r="1.98" fill="#4C5C78" opacity="0.8" stroke="#666" stroke-width="0.5"></circle></g><g class="key-Mongolia_0"><circle cx="468.00" cy="397.00" r="1.96" fill="#2D8587" opacity="0.8" stroke="#666" stroke-width="0.5"></circle></g><g class="key-Armenia_0"><circle cx="442.00" cy="488.00" r="1.96" fill="#2D8587" opacity="0.8" stroke="#666" stroke-width="0.5"></circle></g><g class="key-Jamaica_0"><circle cx="395.00" cy="473.00" r="1.95" fill="#E04E4B" opacity="0.8" stroke="#666" stroke-width="0.5"></circle></g><g class="key-Lithuania_0"><circle cx="559.00" cy="448.00" r="1.95" fill="#4C5C78" opacity="0.8" stroke="#666" stroke-width="0.5"></circle></g><g class="key-Albania_0"><circle cx="445.00" cy="491.00" r="1.95" fill="#4C5C78" opacity="0.8" stroke="#666" stroke-width="0.5"></circle></g><g class="key-Namibia_0"><circle cx="432.00" cy="488.00" r="1.92" fill="#923E8B" opacity="0.8" stroke="#666" stroke-width="0.5"></circle></g><g class="key-Botswana_0"><circle cx="495.00" cy="471.00" r="1.91" fill="#923E8B" opacity="0.8" stroke="#666" stroke-width="0.5"></circle></g><g class="key-Gambia_0"><circle cx="215.00" cy="509.00" r="1.91" fill="#923E8B" opacity="0.8" stroke="#666" stroke-width="0.5"></circle></g><g class="key-North-Macedonia_0"><circle cx="471.00" cy="465.00" r="1.91" fill="#4C5C78" opacity="0.8" stroke="#666" stroke-width="0.5"></circle></g><g class="key-Lesotho_0"><circle cx="272.00" cy="496.00" r="1.91" fill="#923E8B" opacity="0.8" stroke="#666" stroke-width="0.5"></circle></g><g class="key-Slovenia_0"><circle cx="570.00" cy="415.00" r="1.91" fill="#4C5C78" opacity="0.8" stroke="#666" stroke-width="0.5"></circle></g><g class="key-Gabon_0"><circle cx="521.00" cy="475.00" r="1.90" fill="#923E8B" opacity="0.8" stroke="#666" stroke-width="0.5"></circle></g><g class="key-Latvia_0"><circle cx="544.00" cy="461.00" r="1.90" fill="#4C5C78" opacity="0.8" stroke="#666" stroke-width="0.5"></circle></g><g class="key-Guinea__002dBissau_0"><circle cx="186.00" cy="510.00" r="1.89" fill="#923E8B" opacity="0.8" stroke="#666" stroke-width="0.5"></circle></g><g class="key-Bahrain_0"><circle cx="626.00" cy="206.00" r="1.87" fill="#2D8587" opacity="0.8" stroke="#333" stroke-width="0.5"></circle></g><g class="key-Trinidad-and-Tobago_0"><circle cx="581.00" cy="107.00" r="1.87" fill="#E04E4B" opacity="0.8" stroke="#333" stroke-width="0.5"></circle></g><g class="key-Estonia_0"><circle cx="560.00" cy="328.00" r="1.86" fill="#4C5C78" opacity="0.8" stroke="#333" stroke-width="0.5"></circle></g><g class="key-Mauritius_0"><circle cx="524.00" cy="464.00" r="1.86" fill="#923E8B" opacity="0.8" stroke="#666" stroke-width="0.5"></circle></g><g class="key-Equatorial-Guinea_0"><circle cx="598.00" cy="441.00" r="1.86" fill="#923E8B" opacity="0.8" stroke="#666" stroke-width="0.5"></circle></g><g class="key-Cyprus_0"><circle cx="564.00" cy="425.00" r="1.85" fill="#4C5C78" opacity="0.8" stroke="#666" stroke-width="0.5"></circle></g><g class="key-Djibouti_0"><circle cx="286.00" cy="506.00" r="1.84" fill="#923E8B" opacity="0.8" stroke="#666" stroke-width="0.5"></circle></g><g class="key-Comoros_0"><circle cx="208.00" cy="509.00" r="1.83" fill="#923E8B" opacity="0.8" stroke="#666" stroke-width="0.5"></circle></g><g class="key-Montenegro_0"><circle cx="516.00" cy="467.00" r="1.82" fill="#4C5C78" opacity="0.8" stroke="#666" stroke-width="0.5"></circle></g><g class="key-Luxembourg_0"><circle cx="669.00" cy="294.00" r="1.82" fill="#4C5C78" opacity="0.8" stroke="#666" stroke-width="0.5"></circle></g><g class="key-Cape-Verde_0"><circle cx="382.00" cy="498.00" r="1.81" fill="#923E8B" opacity="0.8" stroke="#666" stroke-width="0.5"></circle></g><g class="key-Malta_0"><circle cx="584.00" cy="468.00" r="1.81" fill="#4C5C78" opacity="0.8" stroke="#666" stroke-width="0.5"></circle></g><g class="key-Iceland_0"><circle cx="629.00" cy="365.00" r="1.80" fill="#4C5C78" opacity="0.8" stroke="#666" stroke-width="0.5"></circle></g><g class="key-Barbados_0"><circle cx="464.00" cy="450.00" r="1.80" fill="#E04E4B" opacity="0.8" stroke="#666" stroke-width="0.5"></circle></g><g class="key-Sao-Tome-and-Principe_0"><circle cx="308.00" cy="504.00" r="1.79" fill="#923E8B" opacity="0.8" stroke="#666" stroke-width="0.5"></circle></g><g class="key-Saint-Lucia_0"><circle cx="444.00" cy="486.00" r="1.79" fill="#E04E4B" opacity="0.8" stroke="#666" stroke-width="0.5"></circle></g><g class="key-Seychelles_0"><circle cx="569.00" cy="426.00" r="1.79" fill="#923E8B" opacity="0.8" stroke="#666" stroke-width="0.5"></circle></g><g class="key-Dominica_0"><circle cx="435.00" cy="477.00" r="1.79" fill="#E04E4B" opacity="0.8" stroke="#666" stroke-width="0.5"></circle></g><g class="backgroundLabels" fill="#333"><text x="471.00" y="399.16" font-size="14.30" font-weight="400" fill="#2D8587" style="fill:#fff;stroke:#fff;stroke-linecap:round;stroke-linejoin:round;stroke-width:.25em">China</text><text x="471.00" y="399.16" font-size="14.30" font-weight="400" fill="#2D8587">China</text><text x="376.00" y="468.73" font-size="14.09" font-weight="400" fill="#2D8587" style="fill:#fff;stroke:#fff;stroke-linecap:round;stroke-linejoin:round;stroke-width:.25em">India</text><text x="376.00" y="468.73" font-size="14.09" font-weight="400" fill="#2D8587">India</text><text x="588.12" y="274.33" font-size="11.75" font-weight="400" fill="#E04E4B" style="fill:#fff;stroke:#fff;stroke-linecap:round;stroke-linejoin:round;stroke-width:.25em">United States</text><text x="588.12" y="274.33" font-size="11.75" font-weight="400" fill="#E04E4B">United States</text><text x="452.00" y="473.16" font-size="11.61" font-weight="400" fill="#2D8587" style="fill:#fff;stroke:#fff;stroke-linecap:round;stroke-linejoin:round;stroke-width:.25em">Indonesia</text><text x="452.00" y="473.16" font-size="11.61" font-weight="400" fill="#2D8587">Indonesia</text><text x="355.00" y="490.03" font-size="11.48" font-weight="400" fill="#2D8587" style="fill:#fff;stroke:#fff;stroke-linecap:round;stroke-linejoin:round;stroke-width:.25em">Pakistan</text><text x="355.00" y="490.03" font-size="11.48" font-weight="400" fill="#2D8587">Pakistan</text><text x="553.00" y="350.04" font-size="11.34" font-weight="400" fill="#4C5C78" style="fill:#fff;stroke:#fff;stroke-linecap:round;stroke-linejoin:round;stroke-width:.25em">Russia</text><text x="553.00" y="350.04" font-size="11.34" font-weight="400" fill="#4C5C78">Russia</text><text x="614.00" y="374.37" font-size="11.30" font-weight="400" fill="#2D8587" style="fill:#fff;stroke:#fff;stroke-linecap:round;stroke-linejoin:round;stroke-width:.25em">Japan</text><text x="614.00" y="374.37" font-size="11.30" font-weight="400" fill="#2D8587">Japan</text><text x="503.00" y="451.46" font-size="11.29" font-weight="400" fill="#E04E4B" style="fill:#fff;stroke:#fff;stroke-linecap:round;stroke-linejoin:round;stroke-width:.25em">Mexico</text><text x="503.00" y="451.46" font-size="11.29" font-weight="400" fill="#E04E4B">Mexico</text><text x="203.00" y="503.88" font-size="11.24" font-weight="400" fill="#923E8B" style="fill:#fff;stroke:#fff;stroke-linecap:round;stroke-linejoin:round;stroke-width:.25em">Ethiopia</text><text x="203.00" y="503.88" font-size="11.24" font-weight="400" fill="#923E8B">Ethiopia</text><text x="613.00" y="422.76" font-size="11.15" font-weight="400" fill="#4C5C78" style="fill:#fff;stroke:#fff;stroke-linecap:round;stroke-linejoin:round;stroke-width:.25em">United Kingdom</text><text x="613.00" y="422.76" font-size="11.15" font-weight="400" fill="#4C5C78">United Kingdom</text><text x="267.00" y="504.13" font-size="11.12" font-weight="400" fill="#923E8B" style="fill:#fff;stroke:#fff;stroke-linecap:round;stroke-linejoin:round;stroke-width:.25em">Tanzania</text><text x="267.00" y="504.13" font-size="11.12" font-weight="400" fill="#923E8B">Tanzania</text><text x="609.00" y="338.19" font-size="11.12" font-weight="400" fill="#2D8587" style="fill:#fff;stroke:#fff;stroke-linecap:round;stroke-linejoin:round;stroke-width:.25em">South Korea</text><text x="609.00" y="338.19" font-size="11.12" font-weight="400" fill="#2D8587">South Korea</text><text x="430.00" y="434.38" font-size="11.10" font-weight="400" fill="#4C5C78" style="fill:#fff;stroke:#fff;stroke-linecap:round;stroke-linejoin:round;stroke-width:.25em">Ukraine</text><text x="430.00" y="434.38" font-size="11.10" font-weight="400" fill="#4C5C78">Ukraine</text><text x="560.00" y="388.59" font-size="11.09" font-weight="400" fill="#4C5C78" style="fill:#fff;stroke:#fff;stroke-linecap:round;stroke-linejoin:round;stroke-width:.25em">Poland</text><text x="560.00" y="388.59" font-size="11.09" font-weight="400" fill="#4C5C78">Poland</text><text x="484.00" y="433.63" font-size="11.09" font-weight="400" fill="#2D8587" style="fill:#fff;stroke:#fff;stroke-linecap:round;stroke-linejoin:round;stroke-width:.25em">Iraq</text><text x="484.00" y="433.63" font-size="11.09" font-weight="400" fill="#2D8587">Iraq</text><text x="634.00" y="291.64" font-size="11.08" font-weight="400" fill="#E04E4B" style="fill:#fff;stroke:#fff;stroke-linecap:round;stroke-linejoin:round;stroke-width:.25em">Canada</text><text x="634.00" y="291.64" font-size="11.08" font-weight="400" fill="#E04E4B">Canada</text><text x="419.00" y="491.90" font-size="11.07" font-weight="400" fill="#923E8B" style="fill:#fff;stroke:#fff;stroke-linecap:round;stroke-linejoin:round;stroke-width:.25em">Angola</text><text x="419.00" y="491.90" font-size="11.07" font-weight="400" fill="#923E8B">Angola</text><text x="129.00" y="507.21" font-size="11.05" font-weight="400" fill="#923E8B" style="fill:#fff;stroke:#fff;stroke-linecap:round;stroke-linejoin:round;stroke-width:.25em">Niger</text><text x="129.00" y="507.21" font-size="11.05" font-weight="400" fill="#923E8B">Niger</text><text x="287.00" y="486.34" font-size="11.04" font-weight="400" fill="#2D8587" style="fill:#fff;stroke:#fff;stroke-linecap:round;stroke-linejoin:round;stroke-width:.25em">Syria</text><text x="287.00" y="486.34" font-size="11.04" font-weight="400" fill="#2D8587">Syria</text><text x="547.00" y="415.65" font-size="11.02" font-weight="400" fill="#4C5C78" style="fill:#fff;stroke:#fff;stroke-linecap:round;stroke-linejoin:round;stroke-width:.25em">Greece</text><text x="547.00" y="415.65" font-size="11.02" font-weight="400" fill="#4C5C78">Greece</text><text x="562.00" y="440.66" font-size="11.02" font-weight="400" fill="#4C5C78" style="fill:#fff;stroke:#fff;stroke-linecap:round;stroke-linejoin:round;stroke-width:.25em">Portugal</text><text x="562.00" y="440.66" font-size="11.02" font-weight="400" fill="#4C5C78">Portugal</text><text x="637.00" y="447.68" font-size="11.02" font-weight="400" fill="#4C5C78" style="fill:#fff;stroke:#fff;stroke-linecap:round;stroke-linejoin:round;stroke-width:.25em">Sweden</text><text x="637.00" y="447.68" font-size="11.02" font-weight="400" fill="#4C5C78">Sweden</text><text x="600.96" y="168.71" font-size="11.02" font-weight="400" fill="#2D8587" style="fill:#fff;stroke:#fff;stroke-linecap:round;stroke-linejoin:round;stroke-width:.25em">United Arab Emirates</text><text x="600.96" y="168.71" font-size="11.02" font-weight="400" fill="#2D8587">United Arab Emirates</text><text x="627.00" y="401.74" font-size="11.02" font-weight="400" fill="#4C5C78" style="fill:#fff;stroke:#fff;stroke-linecap:round;stroke-linejoin:round;stroke-width:.25em">Austria</text><text x="627.00" y="401.74" font-size="11.02" font-weight="400" fill="#4C5C78">Austria</text><text x="413.00" y="416.85" font-size="11.02" font-weight="400" fill="#923E8B" style="fill:#fff;stroke:#fff;stroke-linecap:round;stroke-linejoin:round;stroke-width:.25em">Libya</text><text x="413.00" y="416.85" font-size="11.02" font-weight="400" fill="#923E8B">Libya</text><text x="680.67" y="390.92" font-size="11.01" font-weight="400" fill="#4C5C78" style="fill:#fff;stroke:#fff;stroke-linecap:round;stroke-linejoin:round;stroke-width:.25em">Norway</text><text x="680.67" y="390.92" font-size="11.01" font-weight="400" fill="#4C5C78">Norway</text><text x="541.00" y="472.98" font-size="11.01" font-weight="400" fill="#E04E4B" style="fill:#fff;stroke:#fff;stroke-linecap:round;stroke-linejoin:round;stroke-width:.25em">Panama</text><text x="541.00" y="472.98" font-size="11.01" font-weight="400" fill="#E04E4B">Panama</text><text x="626.00" y="203.13" font-size="11.00" font-weight="400" fill="#2D8587" style="fill:#fff;stroke:#fff;stroke-linecap:round;stroke-linejoin:round;stroke-width:.25em">Bahrain</text><text x="626.00" y="203.13" font-size="11.00" font-weight="400" fill="#2D8587">Bahrain</text><text x="581.00" y="118.80" font-size="11.00" font-weight="400" fill="#E04E4B" style="fill:#fff;stroke:#fff;stroke-linecap:round;stroke-linejoin:round;stroke-width:.25em">Trinidad and Tobago</text><text x="581.00" y="118.80" font-size="11.00" font-weight="400" fill="#E04E4B">Trinidad and Tobago</text><text x="560.00" y="325.14" font-size="11.00" font-weight="400" fill="#4C5C78" style="fill:#fff;stroke:#fff;stroke-linecap:round;stroke-linejoin:round;stroke-width:.25em">Estonia</text><text x="560.00" y="325.14" font-size="11.00" font-weight="400" fill="#4C5C78">Estonia</text></g></g><g class="ScatterColorLegend clickable" style="cursor:pointer"><g class="legendMark"><rect x="738.092" y="105.3" width="46.256" height="17.6" fill="#fff" opacity="0"></rect><rect x="738.092" y="109.6" width="9" height="9" fill="#923E8B"></rect><text font-size="12.60" x="752.1" y="117.9"><tspan x="752.092" y="117.88">Africa</tspan></text></g><g class="legendMark"><rect x="738.092" y="122.9" width="38.57" height="17.6" fill="#fff" opacity="0"></rect><rect x="738.092" y="127.2" width="9" height="9" fill="#2D8587"></rect><text font-size="12.60" x="752.1" y="135.5"><tspan x="752.092" y="135.48">Asia</tspan></text></g><g class="legendMark"><rect x="738.092" y="140.5" width="54.824" height="17.6" fill="#fff" opacity="0"></rect><rect x="738.092" y="144.8" width="9" height="9" fill="#4C5C78"></rect><text font-size="12.60" x="752.1" y="153.1"><tspan x="752.092" y="153.07999999999998">Europe</tspan></text></g><g class="legendMark"><rect x="738.092" y="158.1" width="94.64" height="17.6" fill="#fff" opacity="0"></rect><rect x="738.092" y="162.4" width="9" height="9" fill="#E04E4B"></rect><text font-size="12.60" x="752.1" y="170.7"><tspan x="752.092" y="170.67999999999998">North America</tspan></text></g><g class="legendMark"><rect x="738.092" y="175.7" width="61.124" height="17.6" fill="#fff" opacity="0"></rect><rect x="738.092" y="180" width="9" height="9" fill="#A8633C"></rect><text font-size="12.60" x="752.1" y="188.3"><tspan x="752.092" y="188.27999999999997">Oceania</tspan></text></g><g class="legendMark"><rect x="738.092" y="193.3" width="96.908" height="17.6" fill="#fff" opacity="0"></rect><rect x="738.092" y="197.60000000000002" width="9" height="9" fill="#932834"></rect><text font-size="12.60" x="752.1" y="205.9"><tspan x="752.092" y="205.88">South America</tspan></text></g></g></g><g class="SourcesFooter" style="fill:#777"><g class="clickable" style="fill:#777"><text font-size="12.60" x="15.0" y="581.6"><tspan x="15" y="581.58">Source: Global Carbon Project; Maddison (2017)</tspan></text></g><text font-size="12.60" x="428.4" y="581.6"><tspan x="428.398" y="581.58"><a target='_blank' style='fill: #777;' href='https://ourworldindata.org/co2-and-other-greenhouse-gas-emissions/'>OurWorldInData.org/co2-and-other-greenhouse-gas-emissions/</a> • <a style="fill: #777;" class="cclogo" href="http://creativecommons.org/licenses/by/4.0/deed.en_US" target="_blank">CC BY</a></tspan></text></g></svg>