<?xml version="1.0" encoding="utf-8" standalone="no"?>
<!DOCTYPE svg PUBLIC "-//W3C//DTD SVG 1.1//EN"
  "http://www.w3.org/Graphics/SVG/1.1/DTD/svg11.dtd">
<!-- Created with matplotlib (https://matplotlib.org/) -->
<svg height="550.506223pt" version="1.1" viewBox="0 0 558.048875 550.506223" width="558.048875pt" xmlns="http://www.w3.org/2000/svg" xmlns:xlink="http://www.w3.org/1999/xlink">
 <defs>
  <style type="text/css">
*{stroke-linecap:butt;stroke-linejoin:round;}
  </style>
 </defs>
 <g id="figure_1">
  <g id="patch_1">
   <path d="M 0 550.506223 
L 558.048875 550.506223 
L 558.048875 0 
L 0 0 
z
" style="fill:#ffffff;"/>
  </g>
  <g id="axes_1">
   <g id="patch_2">
    <path d="M 49.728875 473.76 
L 550.848875 473.76 
L 550.848875 7.2 
L 49.728875 7.2 
z
" style="fill:#ffffff;"/>
   </g>
   <g id="matplotlib.axis_1">
    <g id="xtick_1">
     <g id="line2d_1">
      <path clip-path="url(#pb89f889b68)" d="M 85.269301 473.76 
L 85.269301 7.2 
" style="fill:none;stroke:#000000;stroke-dasharray:6.4,1.6,1,1.6;stroke-dashoffset:0;stroke-opacity:0.2;"/>
     </g>
     <g id="line2d_2"/>
     <g id="text_1">
      <!-- 0.0 -->
      <defs>
       <path d="M 4.15625 35.296875 
Q 4.15625 48 6.765625 55.734375 
Q 9.375 63.484375 14.515625 67.671875 
Q 19.671875 71.875 27.484375 71.875 
Q 33.25 71.875 37.59375 69.546875 
Q 41.9375 67.234375 44.765625 62.859375 
Q 47.609375 58.5 49.21875 52.21875 
Q 50.828125 45.953125 50.828125 35.296875 
Q 50.828125 22.703125 48.234375 14.96875 
Q 45.65625 7.234375 40.5 3 
Q 35.359375 -1.21875 27.484375 -1.21875 
Q 17.140625 -1.21875 11.234375 6.203125 
Q 4.15625 15.140625 4.15625 35.296875 
z
M 13.1875 35.296875 
Q 13.1875 17.671875 17.3125 11.828125 
Q 21.4375 6 27.484375 6 
Q 33.546875 6 37.671875 11.859375 
Q 41.796875 17.71875 41.796875 35.296875 
Q 41.796875 52.984375 37.671875 58.78125 
Q 33.546875 64.59375 27.390625 64.59375 
Q 21.34375 64.59375 17.71875 59.46875 
Q 13.1875 52.9375 13.1875 35.296875 
z
" id="ArialMT-48"/>
       <path d="M 9.078125 0 
L 9.078125 10.015625 
L 19.09375 10.015625 
L 19.09375 0 
z
" id="ArialMT-46"/>
      </defs>
      <g transform="translate(75.539301 487.280937)scale(0.14 -0.14)">
       <use xlink:href="#ArialMT-48"/>
       <use x="55.615234" xlink:href="#ArialMT-46"/>
       <use x="83.398438" xlink:href="#ArialMT-48"/>
      </g>
     </g>
    </g>
    <g id="xtick_2">
     <g id="line2d_3">
      <path clip-path="url(#pb89f889b68)" d="M 156.350152 473.76 
L 156.350152 7.2 
" style="fill:none;stroke:#000000;stroke-dasharray:6.4,1.6,1,1.6;stroke-dashoffset:0;stroke-opacity:0.2;"/>
     </g>
     <g id="line2d_4"/>
     <g id="text_2">
      <!-- 0.2 -->
      <defs>
       <path d="M 50.34375 8.453125 
L 50.34375 0 
L 3.03125 0 
Q 2.9375 3.171875 4.046875 6.109375 
Q 5.859375 10.9375 9.828125 15.625 
Q 13.8125 20.3125 21.34375 26.46875 
Q 33.015625 36.03125 37.109375 41.625 
Q 41.21875 47.21875 41.21875 52.203125 
Q 41.21875 57.421875 37.46875 61 
Q 33.734375 64.59375 27.734375 64.59375 
Q 21.390625 64.59375 17.578125 60.78125 
Q 13.765625 56.984375 13.71875 50.25 
L 4.6875 51.171875 
Q 5.609375 61.28125 11.65625 66.578125 
Q 17.71875 71.875 27.9375 71.875 
Q 38.234375 71.875 44.234375 66.15625 
Q 50.25 60.453125 50.25 52 
Q 50.25 47.703125 48.484375 43.546875 
Q 46.734375 39.40625 42.65625 34.8125 
Q 38.578125 30.21875 29.109375 22.21875 
Q 21.1875 15.578125 18.9375 13.203125 
Q 16.703125 10.84375 15.234375 8.453125 
z
" id="ArialMT-50"/>
      </defs>
      <g transform="translate(146.620152 487.280937)scale(0.14 -0.14)">
       <use xlink:href="#ArialMT-48"/>
       <use x="55.615234" xlink:href="#ArialMT-46"/>
       <use x="83.398438" xlink:href="#ArialMT-50"/>
      </g>
     </g>
    </g>
    <g id="xtick_3">
     <g id="line2d_5">
      <path clip-path="url(#pb89f889b68)" d="M 227.431003 473.76 
L 227.431003 7.2 
" style="fill:none;stroke:#000000;stroke-dasharray:6.4,1.6,1,1.6;stroke-dashoffset:0;stroke-opacity:0.2;"/>
     </g>
     <g id="line2d_6"/>
     <g id="text_3">
      <!-- 0.4 -->
      <defs>
       <path d="M 32.328125 0 
L 32.328125 17.140625 
L 1.265625 17.140625 
L 1.265625 25.203125 
L 33.9375 71.578125 
L 41.109375 71.578125 
L 41.109375 25.203125 
L 50.78125 25.203125 
L 50.78125 17.140625 
L 41.109375 17.140625 
L 41.109375 0 
z
M 32.328125 25.203125 
L 32.328125 57.46875 
L 9.90625 25.203125 
z
" id="ArialMT-52"/>
      </defs>
      <g transform="translate(217.701003 487.280937)scale(0.14 -0.14)">
       <use xlink:href="#ArialMT-48"/>
       <use x="55.615234" xlink:href="#ArialMT-46"/>
       <use x="83.398438" xlink:href="#ArialMT-52"/>
      </g>
     </g>
    </g>
    <g id="xtick_4">
     <g id="line2d_7">
      <path clip-path="url(#pb89f889b68)" d="M 298.511854 473.76 
L 298.511854 7.2 
" style="fill:none;stroke:#000000;stroke-dasharray:6.4,1.6,1,1.6;stroke-dashoffset:0;stroke-opacity:0.2;"/>
     </g>
     <g id="line2d_8"/>
     <g id="text_4">
      <!-- 0.6 -->
      <defs>
       <path d="M 49.75 54.046875 
L 41.015625 53.375 
Q 39.84375 58.546875 37.703125 60.890625 
Q 34.125 64.65625 28.90625 64.65625 
Q 24.703125 64.65625 21.53125 62.3125 
Q 17.390625 59.28125 14.984375 53.46875 
Q 12.59375 47.65625 12.5 36.921875 
Q 15.671875 41.75 20.265625 44.09375 
Q 24.859375 46.4375 29.890625 46.4375 
Q 38.671875 46.4375 44.84375 39.96875 
Q 51.03125 33.5 51.03125 23.25 
Q 51.03125 16.5 48.125 10.71875 
Q 45.21875 4.9375 40.140625 1.859375 
Q 35.0625 -1.21875 28.609375 -1.21875 
Q 17.625 -1.21875 10.6875 6.859375 
Q 3.765625 14.9375 3.765625 33.5 
Q 3.765625 54.25 11.421875 63.671875 
Q 18.109375 71.875 29.4375 71.875 
Q 37.890625 71.875 43.28125 67.140625 
Q 48.6875 62.40625 49.75 54.046875 
z
M 13.875 23.1875 
Q 13.875 18.65625 15.796875 14.5 
Q 17.71875 10.359375 21.1875 8.171875 
Q 24.65625 6 28.46875 6 
Q 34.03125 6 38.03125 10.484375 
Q 42.046875 14.984375 42.046875 22.703125 
Q 42.046875 30.125 38.078125 34.390625 
Q 34.125 38.671875 28.125 38.671875 
Q 22.171875 38.671875 18.015625 34.390625 
Q 13.875 30.125 13.875 23.1875 
z
" id="ArialMT-54"/>
      </defs>
      <g transform="translate(288.781854 487.280937)scale(0.14 -0.14)">
       <use xlink:href="#ArialMT-48"/>
       <use x="55.615234" xlink:href="#ArialMT-46"/>
       <use x="83.398438" xlink:href="#ArialMT-54"/>
      </g>
     </g>
    </g>
    <g id="xtick_5">
     <g id="line2d_9">
      <path clip-path="url(#pb89f889b68)" d="M 369.592705 473.76 
L 369.592705 7.2 
" style="fill:none;stroke:#000000;stroke-dasharray:6.4,1.6,1,1.6;stroke-dashoffset:0;stroke-opacity:0.2;"/>
     </g>
     <g id="line2d_10"/>
     <g id="text_5">
      <!-- 0.8 -->
      <defs>
       <path d="M 17.671875 38.8125 
Q 12.203125 40.828125 9.5625 44.53125 
Q 6.9375 48.25 6.9375 53.421875 
Q 6.9375 61.234375 12.546875 66.546875 
Q 18.171875 71.875 27.484375 71.875 
Q 36.859375 71.875 42.578125 66.421875 
Q 48.296875 60.984375 48.296875 53.171875 
Q 48.296875 48.1875 45.671875 44.5 
Q 43.0625 40.828125 37.75 38.8125 
Q 44.34375 36.671875 47.78125 31.875 
Q 51.21875 27.09375 51.21875 20.453125 
Q 51.21875 11.28125 44.71875 5.03125 
Q 38.234375 -1.21875 27.640625 -1.21875 
Q 17.046875 -1.21875 10.546875 5.046875 
Q 4.046875 11.328125 4.046875 20.703125 
Q 4.046875 27.6875 7.59375 32.390625 
Q 11.140625 37.109375 17.671875 38.8125 
z
M 15.921875 53.71875 
Q 15.921875 48.640625 19.1875 45.40625 
Q 22.46875 42.1875 27.6875 42.1875 
Q 32.765625 42.1875 36.015625 45.375 
Q 39.265625 48.578125 39.265625 53.21875 
Q 39.265625 58.0625 35.90625 61.359375 
Q 32.5625 64.65625 27.59375 64.65625 
Q 22.5625 64.65625 19.234375 61.421875 
Q 15.921875 58.203125 15.921875 53.71875 
z
M 13.09375 20.65625 
Q 13.09375 16.890625 14.875 13.375 
Q 16.65625 9.859375 20.171875 7.921875 
Q 23.6875 6 27.734375 6 
Q 34.03125 6 38.125 10.046875 
Q 42.234375 14.109375 42.234375 20.359375 
Q 42.234375 26.703125 38.015625 30.859375 
Q 33.796875 35.015625 27.4375 35.015625 
Q 21.234375 35.015625 17.15625 30.90625 
Q 13.09375 26.8125 13.09375 20.65625 
z
" id="ArialMT-56"/>
      </defs>
      <g transform="translate(359.862705 487.280937)scale(0.14 -0.14)">
       <use xlink:href="#ArialMT-48"/>
       <use x="55.615234" xlink:href="#ArialMT-46"/>
       <use x="83.398438" xlink:href="#ArialMT-56"/>
      </g>
     </g>
    </g>
    <g id="xtick_6">
     <g id="line2d_11">
      <path clip-path="url(#pb89f889b68)" d="M 440.673556 473.76 
L 440.673556 7.2 
" style="fill:none;stroke:#000000;stroke-dasharray:6.4,1.6,1,1.6;stroke-dashoffset:0;stroke-opacity:0.2;"/>
     </g>
     <g id="line2d_12"/>
     <g id="text_6">
      <!-- 1.0 -->
      <defs>
       <path d="M 37.25 0 
L 28.46875 0 
L 28.46875 56 
Q 25.296875 52.984375 20.140625 49.953125 
Q 14.984375 46.921875 10.890625 45.40625 
L 10.890625 53.90625 
Q 18.265625 57.375 23.78125 62.296875 
Q 29.296875 67.234375 31.59375 71.875 
L 37.25 71.875 
z
" id="ArialMT-49"/>
      </defs>
      <g transform="translate(430.943556 487.280937)scale(0.14 -0.14)">
       <use xlink:href="#ArialMT-49"/>
       <use x="55.615234" xlink:href="#ArialMT-46"/>
       <use x="83.398438" xlink:href="#ArialMT-48"/>
      </g>
     </g>
    </g>
    <g id="xtick_7">
     <g id="line2d_13">
      <path clip-path="url(#pb89f889b68)" d="M 511.754407 473.76 
L 511.754407 7.2 
" style="fill:none;stroke:#000000;stroke-dasharray:6.4,1.6,1,1.6;stroke-dashoffset:0;stroke-opacity:0.2;"/>
     </g>
     <g id="line2d_14"/>
     <g id="text_7">
      <!-- 1.2 -->
      <g transform="translate(502.024407 487.280937)scale(0.14 -0.14)">
       <use xlink:href="#ArialMT-49"/>
       <use x="55.615234" xlink:href="#ArialMT-46"/>
       <use x="83.398438" xlink:href="#ArialMT-50"/>
      </g>
     </g>
    </g>
    <g id="text_8">
     <!-- GDP per capita relative to the US in 1960 -->
     <defs>
      <path d="M 41.21875 28.078125 
L 41.21875 36.46875 
L 71.53125 36.53125 
L 71.53125 9.96875 
Q 64.546875 4.390625 57.125 1.578125 
Q 49.703125 -1.21875 41.890625 -1.21875 
Q 31.34375 -1.21875 22.71875 3.296875 
Q 14.109375 7.8125 9.71875 16.359375 
Q 5.328125 24.90625 5.328125 35.453125 
Q 5.328125 45.90625 9.6875 54.953125 
Q 14.0625 64.015625 22.265625 68.40625 
Q 30.46875 72.796875 41.15625 72.796875 
Q 48.921875 72.796875 55.1875 70.28125 
Q 61.46875 67.78125 65.03125 63.28125 
Q 68.609375 58.796875 70.453125 51.5625 
L 61.921875 49.21875 
Q 60.296875 54.6875 57.90625 57.8125 
Q 55.515625 60.9375 51.0625 62.8125 
Q 46.625 64.703125 41.21875 64.703125 
Q 34.71875 64.703125 29.984375 62.71875 
Q 25.25 60.75 22.34375 57.515625 
Q 19.4375 54.296875 17.828125 50.4375 
Q 15.09375 43.796875 15.09375 36.03125 
Q 15.09375 26.46875 18.390625 20.015625 
Q 21.6875 13.578125 27.984375 10.453125 
Q 34.28125 7.328125 41.359375 7.328125 
Q 47.515625 7.328125 53.375 9.6875 
Q 59.234375 12.0625 62.25 14.75 
L 62.25 28.078125 
z
" id="ArialMT-71"/>
      <path d="M 7.71875 0 
L 7.71875 71.578125 
L 32.375 71.578125 
Q 40.71875 71.578125 45.125 70.5625 
Q 51.265625 69.140625 55.609375 65.4375 
Q 61.28125 60.640625 64.078125 53.1875 
Q 66.890625 45.75 66.890625 36.1875 
Q 66.890625 28.03125 64.984375 21.734375 
Q 63.09375 15.4375 60.109375 11.296875 
Q 57.125 7.171875 53.578125 4.796875 
Q 50.046875 2.4375 45.046875 1.21875 
Q 40.046875 0 33.546875 0 
z
M 17.1875 8.453125 
L 32.46875 8.453125 
Q 39.546875 8.453125 43.578125 9.765625 
Q 47.609375 11.078125 50 13.484375 
Q 53.375 16.84375 55.25 22.53125 
Q 57.125 28.21875 57.125 36.328125 
Q 57.125 47.5625 53.4375 53.59375 
Q 49.75 59.625 44.484375 61.671875 
Q 40.671875 63.140625 32.234375 63.140625 
L 17.1875 63.140625 
z
" id="ArialMT-68"/>
      <path d="M 7.71875 0 
L 7.71875 71.578125 
L 34.71875 71.578125 
Q 41.84375 71.578125 45.609375 70.90625 
Q 50.875 70.015625 54.4375 67.546875 
Q 58.015625 65.09375 60.1875 60.640625 
Q 62.359375 56.203125 62.359375 50.875 
Q 62.359375 41.75 56.546875 35.421875 
Q 50.734375 29.109375 35.546875 29.109375 
L 17.1875 29.109375 
L 17.1875 0 
z
M 17.1875 37.546875 
L 35.6875 37.546875 
Q 44.875 37.546875 48.734375 40.96875 
Q 52.59375 44.390625 52.59375 50.59375 
Q 52.59375 55.078125 50.3125 58.265625 
Q 48.046875 61.46875 44.34375 62.5 
Q 41.9375 63.140625 35.5 63.140625 
L 17.1875 63.140625 
z
" id="ArialMT-80"/>
      <path id="ArialMT-32"/>
      <path d="M 6.59375 -19.875 
L 6.59375 51.859375 
L 14.59375 51.859375 
L 14.59375 45.125 
Q 17.4375 49.078125 21 51.046875 
Q 24.5625 53.03125 29.640625 53.03125 
Q 36.28125 53.03125 41.359375 49.609375 
Q 46.4375 46.1875 49.015625 39.953125 
Q 51.609375 33.734375 51.609375 26.3125 
Q 51.609375 18.359375 48.75 11.984375 
Q 45.90625 5.609375 40.453125 2.21875 
Q 35.015625 -1.171875 29 -1.171875 
Q 24.609375 -1.171875 21.109375 0.6875 
Q 17.625 2.546875 15.375 5.375 
L 15.375 -19.875 
z
M 14.546875 25.640625 
Q 14.546875 15.625 18.59375 10.84375 
Q 22.65625 6.0625 28.421875 6.0625 
Q 34.28125 6.0625 38.453125 11.015625 
Q 42.625 15.96875 42.625 26.375 
Q 42.625 36.28125 38.546875 41.203125 
Q 34.46875 46.140625 28.8125 46.140625 
Q 23.1875 46.140625 18.859375 40.890625 
Q 14.546875 35.640625 14.546875 25.640625 
z
" id="ArialMT-112"/>
      <path d="M 42.09375 16.703125 
L 51.171875 15.578125 
Q 49.03125 7.625 43.21875 3.21875 
Q 37.40625 -1.171875 28.375 -1.171875 
Q 17 -1.171875 10.328125 5.828125 
Q 3.65625 12.84375 3.65625 25.484375 
Q 3.65625 38.578125 10.390625 45.796875 
Q 17.140625 53.03125 27.875 53.03125 
Q 38.28125 53.03125 44.875 45.953125 
Q 51.46875 38.875 51.46875 26.03125 
Q 51.46875 25.25 51.421875 23.6875 
L 12.75 23.6875 
Q 13.234375 15.140625 17.578125 10.59375 
Q 21.921875 6.0625 28.421875 6.0625 
Q 33.25 6.0625 36.671875 8.59375 
Q 40.09375 11.140625 42.09375 16.703125 
z
M 13.234375 30.90625 
L 42.1875 30.90625 
Q 41.609375 37.453125 38.875 40.71875 
Q 34.671875 45.796875 27.984375 45.796875 
Q 21.921875 45.796875 17.796875 41.75 
Q 13.671875 37.703125 13.234375 30.90625 
z
" id="ArialMT-101"/>
      <path d="M 6.5 0 
L 6.5 51.859375 
L 14.40625 51.859375 
L 14.40625 44 
Q 17.4375 49.515625 20 51.265625 
Q 22.5625 53.03125 25.640625 53.03125 
Q 30.078125 53.03125 34.671875 50.203125 
L 31.640625 42.046875 
Q 28.421875 43.953125 25.203125 43.953125 
Q 22.3125 43.953125 20.015625 42.21875 
Q 17.71875 40.484375 16.75 37.40625 
Q 15.28125 32.71875 15.28125 27.15625 
L 15.28125 0 
z
" id="ArialMT-114"/>
      <path d="M 40.4375 19 
L 49.078125 17.875 
Q 47.65625 8.9375 41.8125 3.875 
Q 35.984375 -1.171875 27.484375 -1.171875 
Q 16.84375 -1.171875 10.375 5.78125 
Q 3.90625 12.75 3.90625 25.734375 
Q 3.90625 34.125 6.6875 40.421875 
Q 9.46875 46.734375 15.15625 49.875 
Q 20.84375 53.03125 27.546875 53.03125 
Q 35.984375 53.03125 41.359375 48.75 
Q 46.734375 44.484375 48.25 36.625 
L 39.703125 35.296875 
Q 38.484375 40.53125 35.375 43.15625 
Q 32.28125 45.796875 27.875 45.796875 
Q 21.234375 45.796875 17.078125 41.03125 
Q 12.9375 36.28125 12.9375 25.984375 
Q 12.9375 15.53125 16.9375 10.796875 
Q 20.953125 6.0625 27.390625 6.0625 
Q 32.5625 6.0625 36.03125 9.234375 
Q 39.5 12.40625 40.4375 19 
z
" id="ArialMT-99"/>
      <path d="M 40.4375 6.390625 
Q 35.546875 2.25 31.03125 0.53125 
Q 26.515625 -1.171875 21.34375 -1.171875 
Q 12.796875 -1.171875 8.203125 3 
Q 3.609375 7.171875 3.609375 13.671875 
Q 3.609375 17.484375 5.34375 20.625 
Q 7.078125 23.78125 9.890625 25.6875 
Q 12.703125 27.59375 16.21875 28.5625 
Q 18.796875 29.25 24.03125 29.890625 
Q 34.671875 31.15625 39.703125 32.90625 
Q 39.75 34.71875 39.75 35.203125 
Q 39.75 40.578125 37.25 42.78125 
Q 33.890625 45.75 27.25 45.75 
Q 21.046875 45.75 18.09375 43.578125 
Q 15.140625 41.40625 13.71875 35.890625 
L 5.125 37.0625 
Q 6.296875 42.578125 8.984375 45.96875 
Q 11.671875 49.359375 16.75 51.1875 
Q 21.828125 53.03125 28.515625 53.03125 
Q 35.15625 53.03125 39.296875 51.46875 
Q 43.453125 49.90625 45.40625 47.53125 
Q 47.359375 45.171875 48.140625 41.546875 
Q 48.578125 39.3125 48.578125 33.453125 
L 48.578125 21.734375 
Q 48.578125 9.46875 49.140625 6.21875 
Q 49.703125 2.984375 51.375 0 
L 42.1875 0 
Q 40.828125 2.734375 40.4375 6.390625 
z
M 39.703125 26.03125 
Q 34.90625 24.078125 25.34375 22.703125 
Q 19.921875 21.921875 17.671875 20.9375 
Q 15.4375 19.96875 14.203125 18.09375 
Q 12.984375 16.21875 12.984375 13.921875 
Q 12.984375 10.40625 15.640625 8.0625 
Q 18.3125 5.71875 23.4375 5.71875 
Q 28.515625 5.71875 32.46875 7.9375 
Q 36.421875 10.15625 38.28125 14.015625 
Q 39.703125 17 39.703125 22.796875 
z
" id="ArialMT-97"/>
      <path d="M 6.640625 61.46875 
L 6.640625 71.578125 
L 15.4375 71.578125 
L 15.4375 61.46875 
z
M 6.640625 0 
L 6.640625 51.859375 
L 15.4375 51.859375 
L 15.4375 0 
z
" id="ArialMT-105"/>
      <path d="M 25.78125 7.859375 
L 27.046875 0.09375 
Q 23.34375 -0.6875 20.40625 -0.6875 
Q 15.625 -0.6875 12.984375 0.828125 
Q 10.359375 2.34375 9.28125 4.8125 
Q 8.203125 7.28125 8.203125 15.1875 
L 8.203125 45.015625 
L 1.765625 45.015625 
L 1.765625 51.859375 
L 8.203125 51.859375 
L 8.203125 64.703125 
L 16.9375 69.96875 
L 16.9375 51.859375 
L 25.78125 51.859375 
L 25.78125 45.015625 
L 16.9375 45.015625 
L 16.9375 14.703125 
Q 16.9375 10.9375 17.40625 9.859375 
Q 17.875 8.796875 18.921875 8.15625 
Q 19.96875 7.515625 21.921875 7.515625 
Q 23.390625 7.515625 25.78125 7.859375 
z
" id="ArialMT-116"/>
      <path d="M 6.390625 0 
L 6.390625 71.578125 
L 15.1875 71.578125 
L 15.1875 0 
z
" id="ArialMT-108"/>
      <path d="M 21 0 
L 1.265625 51.859375 
L 10.546875 51.859375 
L 21.6875 20.796875 
Q 23.484375 15.765625 25 10.359375 
Q 26.171875 14.453125 28.265625 20.21875 
L 39.796875 51.859375 
L 48.828125 51.859375 
L 29.203125 0 
z
" id="ArialMT-118"/>
      <path d="M 3.328125 25.921875 
Q 3.328125 40.328125 11.328125 47.265625 
Q 18.015625 53.03125 27.640625 53.03125 
Q 38.328125 53.03125 45.109375 46.015625 
Q 51.90625 39.015625 51.90625 26.65625 
Q 51.90625 16.65625 48.90625 10.90625 
Q 45.90625 5.171875 40.15625 2 
Q 34.421875 -1.171875 27.640625 -1.171875 
Q 16.75 -1.171875 10.03125 5.8125 
Q 3.328125 12.796875 3.328125 25.921875 
z
M 12.359375 25.921875 
Q 12.359375 15.96875 16.703125 11.015625 
Q 21.046875 6.0625 27.640625 6.0625 
Q 34.1875 6.0625 38.53125 11.03125 
Q 42.875 16.015625 42.875 26.21875 
Q 42.875 35.84375 38.5 40.796875 
Q 34.125 45.75 27.640625 45.75 
Q 21.046875 45.75 16.703125 40.8125 
Q 12.359375 35.890625 12.359375 25.921875 
z
" id="ArialMT-111"/>
      <path d="M 6.59375 0 
L 6.59375 71.578125 
L 15.375 71.578125 
L 15.375 45.90625 
Q 21.53125 53.03125 30.90625 53.03125 
Q 36.671875 53.03125 40.921875 50.75 
Q 45.171875 48.484375 47 44.484375 
Q 48.828125 40.484375 48.828125 32.859375 
L 48.828125 0 
L 40.046875 0 
L 40.046875 32.859375 
Q 40.046875 39.453125 37.1875 42.453125 
Q 34.328125 45.453125 29.109375 45.453125 
Q 25.203125 45.453125 21.75 43.421875 
Q 18.3125 41.40625 16.84375 37.9375 
Q 15.375 34.46875 15.375 28.375 
L 15.375 0 
z
" id="ArialMT-104"/>
      <path d="M 54.6875 71.578125 
L 64.15625 71.578125 
L 64.15625 30.21875 
Q 64.15625 19.4375 61.71875 13.078125 
Q 59.28125 6.734375 52.90625 2.75 
Q 46.53125 -1.21875 36.1875 -1.21875 
Q 26.125 -1.21875 19.71875 2.25 
Q 13.328125 5.71875 10.59375 12.28125 
Q 7.859375 18.84375 7.859375 30.21875 
L 7.859375 71.578125 
L 17.328125 71.578125 
L 17.328125 30.28125 
Q 17.328125 20.953125 19.0625 16.53125 
Q 20.796875 12.109375 25.015625 9.71875 
Q 29.25 7.328125 35.359375 7.328125 
Q 45.796875 7.328125 50.234375 12.0625 
Q 54.6875 16.796875 54.6875 30.28125 
z
" id="ArialMT-85"/>
      <path d="M 4.5 23 
L 13.421875 23.78125 
Q 14.0625 18.40625 16.375 14.96875 
Q 18.703125 11.53125 23.578125 9.40625 
Q 28.46875 7.28125 34.578125 7.28125 
Q 39.984375 7.28125 44.140625 8.890625 
Q 48.296875 10.5 50.3125 13.296875 
Q 52.34375 16.109375 52.34375 19.4375 
Q 52.34375 22.796875 50.390625 25.3125 
Q 48.4375 27.828125 43.953125 29.546875 
Q 41.0625 30.671875 31.203125 33.03125 
Q 21.34375 35.40625 17.390625 37.5 
Q 12.25 40.1875 9.734375 44.15625 
Q 7.234375 48.140625 7.234375 53.078125 
Q 7.234375 58.5 10.296875 63.203125 
Q 13.375 67.921875 19.28125 70.359375 
Q 25.203125 72.796875 32.421875 72.796875 
Q 40.375 72.796875 46.453125 70.234375 
Q 52.546875 67.671875 55.8125 62.6875 
Q 59.078125 57.71875 59.328125 51.421875 
L 50.25 50.734375 
Q 49.515625 57.515625 45.28125 60.984375 
Q 41.0625 64.453125 32.8125 64.453125 
Q 24.21875 64.453125 20.28125 61.296875 
Q 16.359375 58.15625 16.359375 53.71875 
Q 16.359375 49.859375 19.140625 47.359375 
Q 21.875 44.875 33.421875 42.265625 
Q 44.96875 39.65625 49.265625 37.703125 
Q 55.515625 34.8125 58.484375 30.390625 
Q 61.46875 25.984375 61.46875 20.21875 
Q 61.46875 14.5 58.203125 9.4375 
Q 54.9375 4.390625 48.796875 1.578125 
Q 42.671875 -1.21875 35.015625 -1.21875 
Q 25.296875 -1.21875 18.71875 1.609375 
Q 12.15625 4.4375 8.421875 10.125 
Q 4.6875 15.828125 4.5 23 
z
" id="ArialMT-83"/>
      <path d="M 6.59375 0 
L 6.59375 51.859375 
L 14.5 51.859375 
L 14.5 44.484375 
Q 20.21875 53.03125 31 53.03125 
Q 35.6875 53.03125 39.625 51.34375 
Q 43.5625 49.65625 45.515625 46.921875 
Q 47.46875 44.1875 48.25 40.4375 
Q 48.734375 37.984375 48.734375 31.890625 
L 48.734375 0 
L 39.9375 0 
L 39.9375 31.546875 
Q 39.9375 36.921875 38.90625 39.578125 
Q 37.890625 42.234375 35.28125 43.8125 
Q 32.671875 45.40625 29.15625 45.40625 
Q 23.53125 45.40625 19.453125 41.84375 
Q 15.375 38.28125 15.375 28.328125 
L 15.375 0 
z
" id="ArialMT-110"/>
      <path d="M 5.46875 16.546875 
L 13.921875 17.328125 
Q 14.984375 11.375 18.015625 8.6875 
Q 21.046875 6 25.78125 6 
Q 29.828125 6 32.875 7.859375 
Q 35.9375 9.71875 37.890625 12.8125 
Q 39.84375 15.921875 41.15625 21.1875 
Q 42.484375 26.46875 42.484375 31.9375 
Q 42.484375 32.515625 42.4375 33.6875 
Q 39.796875 29.5 35.234375 26.875 
Q 30.671875 24.265625 25.34375 24.265625 
Q 16.453125 24.265625 10.296875 30.703125 
Q 4.15625 37.15625 4.15625 47.703125 
Q 4.15625 58.59375 10.578125 65.234375 
Q 17 71.875 26.65625 71.875 
Q 33.640625 71.875 39.421875 68.109375 
Q 45.21875 64.359375 48.21875 57.390625 
Q 51.21875 50.4375 51.21875 37.25 
Q 51.21875 23.53125 48.234375 15.40625 
Q 45.265625 7.28125 39.375 3.03125 
Q 33.5 -1.21875 25.59375 -1.21875 
Q 17.1875 -1.21875 11.859375 3.4375 
Q 6.546875 8.109375 5.46875 16.546875 
z
M 41.453125 48.140625 
Q 41.453125 55.71875 37.421875 60.15625 
Q 33.40625 64.59375 27.734375 64.59375 
Q 21.875 64.59375 17.53125 59.8125 
Q 13.1875 55.03125 13.1875 47.40625 
Q 13.1875 40.578125 17.3125 36.296875 
Q 21.4375 32.03125 27.484375 32.03125 
Q 33.59375 32.03125 37.515625 36.296875 
Q 41.453125 40.578125 41.453125 48.140625 
z
" id="ArialMT-57"/>
     </defs>
     <g transform="translate(146.215812 506.293312)scale(0.168 -0.168)">
      <use xlink:href="#ArialMT-71"/>
      <use x="77.783203" xlink:href="#ArialMT-68"/>
      <use x="150" xlink:href="#ArialMT-80"/>
      <use x="216.683594" xlink:href="#ArialMT-32"/>
      <use x="244.466797" xlink:href="#ArialMT-112"/>
      <use x="300.082031" xlink:href="#ArialMT-101"/>
      <use x="355.697266" xlink:href="#ArialMT-114"/>
      <use x="388.998047" xlink:href="#ArialMT-32"/>
      <use x="416.78125" xlink:href="#ArialMT-99"/>
      <use x="466.78125" xlink:href="#ArialMT-97"/>
      <use x="522.396484" xlink:href="#ArialMT-112"/>
      <use x="578.011719" xlink:href="#ArialMT-105"/>
      <use x="600.228516" xlink:href="#ArialMT-116"/>
      <use x="628.011719" xlink:href="#ArialMT-97"/>
      <use x="683.626953" xlink:href="#ArialMT-32"/>
      <use x="711.410156" xlink:href="#ArialMT-114"/>
      <use x="744.710938" xlink:href="#ArialMT-101"/>
      <use x="800.326172" xlink:href="#ArialMT-108"/>
      <use x="822.542969" xlink:href="#ArialMT-97"/>
      <use x="878.158203" xlink:href="#ArialMT-116"/>
      <use x="905.941406" xlink:href="#ArialMT-105"/>
      <use x="928.158203" xlink:href="#ArialMT-118"/>
      <use x="978.158203" xlink:href="#ArialMT-101"/>
      <use x="1033.773438" xlink:href="#ArialMT-32"/>
      <use x="1061.556641" xlink:href="#ArialMT-116"/>
      <use x="1089.339844" xlink:href="#ArialMT-111"/>
      <use x="1144.955078" xlink:href="#ArialMT-32"/>
      <use x="1172.738281" xlink:href="#ArialMT-116"/>
      <use x="1200.521484" xlink:href="#ArialMT-104"/>
      <use x="1256.136719" xlink:href="#ArialMT-101"/>
      <use x="1311.751953" xlink:href="#ArialMT-32"/>
      <use x="1339.535156" xlink:href="#ArialMT-85"/>
      <use x="1411.751953" xlink:href="#ArialMT-83"/>
      <use x="1478.451172" xlink:href="#ArialMT-32"/>
      <use x="1506.234375" xlink:href="#ArialMT-105"/>
      <use x="1528.451172" xlink:href="#ArialMT-110"/>
      <use x="1584.066406" xlink:href="#ArialMT-32"/>
      <use x="1611.849609" xlink:href="#ArialMT-49"/>
      <use x="1667.464844" xlink:href="#ArialMT-57"/>
      <use x="1723.080078" xlink:href="#ArialMT-54"/>
      <use x="1778.695312" xlink:href="#ArialMT-48"/>
     </g>
    </g>
   </g>
   <g id="matplotlib.axis_2">
    <g id="ytick_1">
     <g id="line2d_15">
      <path clip-path="url(#pb89f889b68)" d="M 49.728875 440.670638 
L 550.848875 440.670638 
" style="fill:none;stroke:#000000;stroke-dasharray:6.4,1.6,1,1.6;stroke-dashoffset:0;stroke-opacity:0.2;"/>
     </g>
     <g id="line2d_16"/>
     <g id="text_9">
      <!-- 0.0 -->
      <g transform="translate(26.768875 445.681107)scale(0.14 -0.14)">
       <use xlink:href="#ArialMT-48"/>
       <use x="55.615234" xlink:href="#ArialMT-46"/>
       <use x="83.398438" xlink:href="#ArialMT-48"/>
      </g>
     </g>
    </g>
    <g id="ytick_2">
     <g id="line2d_17">
      <path clip-path="url(#pb89f889b68)" d="M 49.728875 374.491915 
L 550.848875 374.491915 
" style="fill:none;stroke:#000000;stroke-dasharray:6.4,1.6,1,1.6;stroke-dashoffset:0;stroke-opacity:0.2;"/>
     </g>
     <g id="line2d_18"/>
     <g id="text_10">
      <!-- 0.2 -->
      <g transform="translate(26.768875 379.502384)scale(0.14 -0.14)">
       <use xlink:href="#ArialMT-48"/>
       <use x="55.615234" xlink:href="#ArialMT-46"/>
       <use x="83.398438" xlink:href="#ArialMT-50"/>
      </g>
     </g>
    </g>
    <g id="ytick_3">
     <g id="line2d_19">
      <path clip-path="url(#pb89f889b68)" d="M 49.728875 308.313191 
L 550.848875 308.313191 
" style="fill:none;stroke:#000000;stroke-dasharray:6.4,1.6,1,1.6;stroke-dashoffset:0;stroke-opacity:0.2;"/>
     </g>
     <g id="line2d_20"/>
     <g id="text_11">
      <!-- 0.4 -->
      <g transform="translate(26.768875 313.32366)scale(0.14 -0.14)">
       <use xlink:href="#ArialMT-48"/>
       <use x="55.615234" xlink:href="#ArialMT-46"/>
       <use x="83.398438" xlink:href="#ArialMT-52"/>
      </g>
     </g>
    </g>
    <g id="ytick_4">
     <g id="line2d_21">
      <path clip-path="url(#pb89f889b68)" d="M 49.728875 242.134468 
L 550.848875 242.134468 
" style="fill:none;stroke:#000000;stroke-dasharray:6.4,1.6,1,1.6;stroke-dashoffset:0;stroke-opacity:0.2;"/>
     </g>
     <g id="line2d_22"/>
     <g id="text_12">
      <!-- 0.6 -->
      <g transform="translate(26.768875 247.144937)scale(0.14 -0.14)">
       <use xlink:href="#ArialMT-48"/>
       <use x="55.615234" xlink:href="#ArialMT-46"/>
       <use x="83.398438" xlink:href="#ArialMT-54"/>
      </g>
     </g>
    </g>
    <g id="ytick_5">
     <g id="line2d_23">
      <path clip-path="url(#pb89f889b68)" d="M 49.728875 175.955745 
L 550.848875 175.955745 
" style="fill:none;stroke:#000000;stroke-dasharray:6.4,1.6,1,1.6;stroke-dashoffset:0;stroke-opacity:0.2;"/>
     </g>
     <g id="line2d_24"/>
     <g id="text_13">
      <!-- 0.8 -->
      <g transform="translate(26.768875 180.966213)scale(0.14 -0.14)">
       <use xlink:href="#ArialMT-48"/>
       <use x="55.615234" xlink:href="#ArialMT-46"/>
       <use x="83.398438" xlink:href="#ArialMT-56"/>
      </g>
     </g>
    </g>
    <g id="ytick_6">
     <g id="line2d_25">
      <path clip-path="url(#pb89f889b68)" d="M 49.728875 109.777021 
L 550.848875 109.777021 
" style="fill:none;stroke:#000000;stroke-dasharray:6.4,1.6,1,1.6;stroke-dashoffset:0;stroke-opacity:0.2;"/>
     </g>
     <g id="line2d_26"/>
     <g id="text_14">
      <!-- 1.0 -->
      <g transform="translate(26.768875 114.78749)scale(0.14 -0.14)">
       <use xlink:href="#ArialMT-49"/>
       <use x="55.615234" xlink:href="#ArialMT-46"/>
       <use x="83.398438" xlink:href="#ArialMT-48"/>
      </g>
     </g>
    </g>
    <g id="ytick_7">
     <g id="line2d_27">
      <path clip-path="url(#pb89f889b68)" d="M 49.728875 43.598298 
L 550.848875 43.598298 
" style="fill:none;stroke:#000000;stroke-dasharray:6.4,1.6,1,1.6;stroke-dashoffset:0;stroke-opacity:0.2;"/>
     </g>
     <g id="line2d_28"/>
     <g id="text_15">
      <!-- 1.2 -->
      <g transform="translate(26.768875 48.608767)scale(0.14 -0.14)">
       <use xlink:href="#ArialMT-49"/>
       <use x="55.615234" xlink:href="#ArialMT-46"/>
       <use x="83.398438" xlink:href="#ArialMT-50"/>
      </g>
     </g>
    </g>
    <g id="text_16">
     <!-- GDP per capita relative to the US in 2016 -->
     <g transform="translate(19.429875 394.553062)rotate(-90)scale(0.168 -0.168)">
      <use xlink:href="#ArialMT-71"/>
      <use x="77.783203" xlink:href="#ArialMT-68"/>
      <use x="150" xlink:href="#ArialMT-80"/>
      <use x="216.683594" xlink:href="#ArialMT-32"/>
      <use x="244.466797" xlink:href="#ArialMT-112"/>
      <use x="300.082031" xlink:href="#ArialMT-101"/>
      <use x="355.697266" xlink:href="#ArialMT-114"/>
      <use x="388.998047" xlink:href="#ArialMT-32"/>
      <use x="416.78125" xlink:href="#ArialMT-99"/>
      <use x="466.78125" xlink:href="#ArialMT-97"/>
      <use x="522.396484" xlink:href="#ArialMT-112"/>
      <use x="578.011719" xlink:href="#ArialMT-105"/>
      <use x="600.228516" xlink:href="#ArialMT-116"/>
      <use x="628.011719" xlink:href="#ArialMT-97"/>
      <use x="683.626953" xlink:href="#ArialMT-32"/>
      <use x="711.410156" xlink:href="#ArialMT-114"/>
      <use x="744.710938" xlink:href="#ArialMT-101"/>
      <use x="800.326172" xlink:href="#ArialMT-108"/>
      <use x="822.542969" xlink:href="#ArialMT-97"/>
      <use x="878.158203" xlink:href="#ArialMT-116"/>
      <use x="905.941406" xlink:href="#ArialMT-105"/>
      <use x="928.158203" xlink:href="#ArialMT-118"/>
      <use x="978.158203" xlink:href="#ArialMT-101"/>
      <use x="1033.773438" xlink:href="#ArialMT-32"/>
      <use x="1061.556641" xlink:href="#ArialMT-116"/>
      <use x="1089.339844" xlink:href="#ArialMT-111"/>
      <use x="1144.955078" xlink:href="#ArialMT-32"/>
      <use x="1172.738281" xlink:href="#ArialMT-116"/>
      <use x="1200.521484" xlink:href="#ArialMT-104"/>
      <use x="1256.136719" xlink:href="#ArialMT-101"/>
      <use x="1311.751953" xlink:href="#ArialMT-32"/>
      <use x="1339.535156" xlink:href="#ArialMT-85"/>
      <use x="1411.751953" xlink:href="#ArialMT-83"/>
      <use x="1478.451172" xlink:href="#ArialMT-32"/>
      <use x="1506.234375" xlink:href="#ArialMT-105"/>
      <use x="1528.451172" xlink:href="#ArialMT-110"/>
      <use x="1584.066406" xlink:href="#ArialMT-32"/>
      <use x="1611.849609" xlink:href="#ArialMT-50"/>
      <use x="1667.464844" xlink:href="#ArialMT-48"/>
      <use x="1723.080078" xlink:href="#ArialMT-49"/>
      <use x="1778.695312" xlink:href="#ArialMT-54"/>
     </g>
    </g>
   </g>
   <g id="PathCollection_1">
    <defs>
     <path d="M 0 3 
C 0.795609 3 1.55874 2.683901 2.12132 2.12132 
C 2.683901 1.55874 3 0.795609 3 0 
C 3 -0.795609 2.683901 -1.55874 2.12132 -2.12132 
C 1.55874 -2.683901 0.795609 -3 0 -3 
C -0.795609 -3 -1.55874 -2.683901 -2.12132 -2.12132 
C -2.683901 -1.55874 -3 -0.795609 -3 0 
C -3 0.795609 -2.683901 1.55874 -2.12132 2.12132 
C -1.55874 2.683901 -0.795609 3 0 3 
z
" id="ma493716b52" style="stroke:#000000;stroke-width:0.5;"/>
    </defs>
    <g clip-path="url(#pb89f889b68)">
     <use style="stroke:#000000;stroke-width:0.5;" x="139.274687" xlink:href="#ma493716b52" y="428.630767"/>
     <use style="stroke:#000000;stroke-width:0.5;" x="127.426567" xlink:href="#ma493716b52" y="370.235206"/>
     <use style="stroke:#000000;stroke-width:0.5;" x="260.983621" xlink:href="#ma493716b52" y="323.985621"/>
     <use style="stroke:#000000;stroke-width:0.5;" x="384.34578" xlink:href="#ma493716b52" y="161.157126"/>
     <use style="stroke:#000000;stroke-width:0.5;" x="252.71749" xlink:href="#ma493716b52" y="159.740303"/>
     <use style="stroke:#000000;stroke-width:0.5;" x="107.922435" xlink:href="#ma493716b52" y="420.385733"/>
     <use style="stroke:#000000;stroke-width:0.5;" x="226.482366" xlink:href="#ma493716b52" y="377.256904"/>
     <use style="stroke:#000000;stroke-width:0.5;" x="264.624654" xlink:href="#ma493716b52" y="192.676748"/>
     <use style="stroke:#000000;stroke-width:0.5;" x="110.480999" xlink:href="#ma493716b52" y="427.151529"/>
     <use style="stroke:#000000;stroke-width:0.5;" x="109.615023" xlink:href="#ma493716b52" y="402.485084"/>
     <use style="stroke:#000000;stroke-width:0.5;" x="104.202676" xlink:href="#ma493716b52" y="374.660436"/>
     <use style="stroke:#000000;stroke-width:0.5;" x="108.886817" xlink:href="#ma493716b52" y="346.954376"/>
     <use style="stroke:#000000;stroke-width:0.5;" x="130.142581" xlink:href="#ma493716b52" y="356.541334"/>
     <use style="stroke:#000000;stroke-width:0.5;" x="186.686851" xlink:href="#ma493716b52" y="328.616821"/>
     <use style="stroke:#000000;stroke-width:0.5;" x="115.913028" xlink:href="#ma493716b52" y="430.927642"/>
     <use style="stroke:#000000;stroke-width:0.5;" x="104.41917" xlink:href="#ma493716b52" y="436.351514"/>
     <use style="stroke:#000000;stroke-width:0.5;" x="110.540043" xlink:href="#ma493716b52" y="400.02593"/>
     <use style="stroke:#000000;stroke-width:0.5;" x="100.404192" xlink:href="#ma493716b52" y="420.029967"/>
     <use style="stroke:#000000;stroke-width:0.5;" x="106.269209" xlink:href="#ma493716b52" y="423.175688"/>
     <use style="stroke:#000000;stroke-width:0.5;" x="353.446196" xlink:href="#ma493716b52" y="172.479224"/>
     <use style="stroke:#000000;stroke-width:0.5;" x="112.724663" xlink:href="#ma493716b52" y="436.807144"/>
     <use style="stroke:#000000;stroke-width:0.5;" x="114.436933" xlink:href="#ma493716b52" y="426.98925"/>
     <use style="stroke:#000000;stroke-width:0.5;" x="182.888367" xlink:href="#ma493716b52" y="306.815229"/>
     <use style="stroke:#000000;stroke-width:0.5;" x="103.435107" xlink:href="#ma493716b52" y="363.775243"/>
     <use style="stroke:#000000;stroke-width:0.5;" x="183.71498" xlink:href="#ma493716b52" y="147.051315"/>
     <use style="stroke:#000000;stroke-width:0.5;" x="151.732927" xlink:href="#ma493716b52" y="359.761953"/>
     <use style="stroke:#000000;stroke-width:0.5;" x="106.977734" xlink:href="#ma493716b52" y="429.978933"/>
     <use style="stroke:#000000;stroke-width:0.5;" x="112.744344" xlink:href="#ma493716b52" y="413.769733"/>
     <use style="stroke:#000000;stroke-width:0.5;" x="160.510771" xlink:href="#ma493716b52" y="353.376889"/>
     <use style="stroke:#000000;stroke-width:0.5;" x="199.656804" xlink:href="#ma493716b52" y="305.697999"/>
     <use style="stroke:#000000;stroke-width:0.5;" x="174.327018" xlink:href="#ma493716b52" y="275.020981"/>
     <use style="stroke:#000000;stroke-width:0.5;" x="273.245048" xlink:href="#ma493716b52" y="252.68886"/>
     <use style="stroke:#000000;stroke-width:0.5;" x="126.009516" xlink:href="#ma493716b52" y="417.801748"/>
     <use style="stroke:#000000;stroke-width:0.5;" x="126.973898" xlink:href="#ma493716b52" y="435.452736"/>
     <use style="stroke:#000000;stroke-width:0.5;" x="322.487569" xlink:href="#ma493716b52" y="158.922666"/>
     <use style="stroke:#000000;stroke-width:0.5;" x="184.207012" xlink:href="#ma493716b52" y="419.486956"/>
     <use style="stroke:#000000;stroke-width:0.5;" x="145.277473" xlink:href="#ma493716b52" y="379.672368"/>
     <use style="stroke:#000000;stroke-width:0.5;" x="125.320672" xlink:href="#ma493716b52" y="352.740255"/>
     <use style="stroke:#000000;stroke-width:0.5;" x="142.856677" xlink:href="#ma493716b52" y="374.910096"/>
     <use style="stroke:#000000;stroke-width:0.5;" x="117.920517" xlink:href="#ma493716b52" y="369.330187"/>
     <use style="stroke:#000000;stroke-width:0.5;" x="115.302909" xlink:href="#ma493716b52" y="388.647658"/>
     <use style="stroke:#000000;stroke-width:0.5;" x="107.902753" xlink:href="#ma493716b52" y="244.150476"/>
     <use style="stroke:#000000;stroke-width:0.5;" x="100.030248" xlink:href="#ma493716b52" y="430.315974"/>
     <use style="stroke:#000000;stroke-width:0.5;" x="251.142989" xlink:href="#ma493716b52" y="201.402378"/>
     <use style="stroke:#000000;stroke-width:0.5;" x="250.316376" xlink:href="#ma493716b52" y="327.668112"/>
     <use style="stroke:#000000;stroke-width:0.5;" x="126.954217" xlink:href="#ma493716b52" y="338.553304"/>
     <use style="stroke:#000000;stroke-width:0.5;" x="287.671414" xlink:href="#ma493716b52" y="198.76222"/>
     <use style="stroke:#000000;stroke-width:0.5;" x="190.40661" xlink:href="#ma493716b52" y="351.204844"/>
     <use style="stroke:#000000;stroke-width:0.5;" x="124.51374" xlink:href="#ma493716b52" y="428.499695"/>
     <use style="stroke:#000000;stroke-width:0.5;" x="313.3161" xlink:href="#ma493716b52" y="148.3121"/>
     <use style="stroke:#000000;stroke-width:0.5;" x="139.451819" xlink:href="#ma493716b52" y="417.246254"/>
     <use style="stroke:#000000;stroke-width:0.5;" x="173.638173" xlink:href="#ma493716b52" y="286.574015"/>
     <use style="stroke:#000000;stroke-width:0.5;" x="127.524973" xlink:href="#ma493716b52" y="396.124986"/>
     <use style="stroke:#000000;stroke-width:0.5;" x="113.197013" xlink:href="#ma493716b52" y="430.259801"/>
     <use style="stroke:#000000;stroke-width:0.5;" x="101.821243" xlink:href="#ma493716b52" y="432.219635"/>
     <use style="stroke:#000000;stroke-width:0.5;" x="138.211899" xlink:href="#ma493716b52" y="430.459529"/>
     <use style="stroke:#000000;stroke-width:0.5;" x="124.080752" xlink:href="#ma493716b52" y="412.989544"/>
     <use style="stroke:#000000;stroke-width:0.5;" x="173.972755" xlink:href="#ma493716b52" y="290.581063"/>
     <use style="stroke:#000000;stroke-width:0.5;" x="307.943115" xlink:href="#ma493716b52" y="172.410567"/>
     <use style="stroke:#000000;stroke-width:0.5;" x="112.882113" xlink:href="#ma493716b52" y="403.465001"/>
     <use style="stroke:#000000;stroke-width:0.5;" x="114.299164" xlink:href="#ma493716b52" y="375.066134"/>
     <use style="stroke:#000000;stroke-width:0.5;" x="148.209981" xlink:href="#ma493716b52" y="343.74624"/>
     <use style="stroke:#000000;stroke-width:0.5;" x="204.399988" xlink:href="#ma493716b52" y="353.439304"/>
     <use style="stroke:#000000;stroke-width:0.5;" x="199.59776" xlink:href="#ma493716b52" y="93.31192"/>
     <use style="stroke:#000000;stroke-width:0.5;" x="215.736396" xlink:href="#ma493716b52" y="237.859034"/>
     <use style="stroke:#000000;stroke-width:0.5;" x="224.356789" xlink:href="#ma493716b52" y="222.286468"/>
     <use style="stroke:#000000;stroke-width:0.5;" x="167.497619" xlink:href="#ma493716b52" y="395.887809"/>
     <use style="stroke:#000000;stroke-width:0.5;" x="187.316652" xlink:href="#ma493716b52" y="213.15514"/>
     <use style="stroke:#000000;stroke-width:0.5;" x="136.893255" xlink:href="#ma493716b52" y="367.345387"/>
     <use style="stroke:#000000;stroke-width:0.5;" x="112.744344" xlink:href="#ma493716b52" y="420.610427"/>
     <use style="stroke:#000000;stroke-width:0.5;" x="98.81001" xlink:href="#ma493716b52" y="401.199333"/>
     <use style="stroke:#000000;stroke-width:0.5;" x="266.533737" xlink:href="#ma493716b52" y="361.509575"/>
     <use style="stroke:#000000;stroke-width:0.5;" x="95.38547" xlink:href="#ma493716b52" y="421.852488"/>
     <use style="stroke:#000000;stroke-width:0.5;" x="102.726581" xlink:href="#ma493716b52" y="435.902125"/>
     <use style="stroke:#000000;stroke-width:0.5;" x="210.304367" xlink:href="#ma493716b52" y="390.139379"/>
     <use style="stroke:#000000;stroke-width:0.5;" x="397.807764" xlink:href="#ma493716b52" y="9.650729"/>
     <use style="stroke:#000000;stroke-width:0.5;" x="107.331997" xlink:href="#ma493716b52" y="432.512986"/>
     <use style="stroke:#000000;stroke-width:0.5;" x="106.76124" xlink:href="#ma493716b52" y="434.741204"/>
     <use style="stroke:#000000;stroke-width:0.5;" x="134.078834" xlink:href="#ma493716b52" y="299.069516"/>
     <use style="stroke:#000000;stroke-width:0.5;" x="108.178291" xlink:href="#ma493716b52" y="430.659257"/>
     <use style="stroke:#000000;stroke-width:0.5;" x="132.130389" xlink:href="#ma493716b52" y="268.330083"/>
     <use style="stroke:#000000;stroke-width:0.5;" x="105.678771" xlink:href="#ma493716b52" y="420.029967"/>
     <use style="stroke:#000000;stroke-width:0.5;" x="153.464878" xlink:href="#ma493716b52" y="323.005704"/>
     <use style="stroke:#000000;stroke-width:0.5;" x="151.791971" xlink:href="#ma493716b52" y="342.036066"/>
     <use style="stroke:#000000;stroke-width:0.5;" x="102.982438" xlink:href="#ma493716b52" y="371.358677"/>
     <use style="stroke:#000000;stroke-width:0.5;" x="170.666303" xlink:href="#ma493716b52" y="326.800542"/>
     <use style="stroke:#000000;stroke-width:0.5;" x="134.000109" xlink:href="#ma493716b52" y="393.154028"/>
     <use style="stroke:#000000;stroke-width:0.5;" x="96.01527" xlink:href="#ma493716b52" y="432.631574"/>
     <use style="stroke:#000000;stroke-width:0.5;" x="100.817499" xlink:href="#ma493716b52" y="402.354013"/>
     <use style="stroke:#000000;stroke-width:0.5;" x="162.931566" xlink:href="#ma493716b52" y="367.389077"/>
     <use style="stroke:#000000;stroke-width:0.5;" x="98.829691" xlink:href="#ma493716b52" y="424.530095"/>
     <use style="stroke:#000000;stroke-width:0.5;" x="297.236508" xlink:href="#ma493716b52" y="133.251338"/>
     <use style="stroke:#000000;stroke-width:0.5;" x="334.768677" xlink:href="#ma493716b52" y="228.209661"/>
     <use style="stroke:#000000;stroke-width:0.5;" x="126.954217" xlink:href="#ma493716b52" y="410.262005"/>
     <use style="stroke:#000000;stroke-width:0.5;" x="112.0555" xlink:href="#ma493716b52" y="435.015831"/>
     <use style="stroke:#000000;stroke-width:0.5;" x="128.154774" xlink:href="#ma493716b52" y="407.447084"/>
     <use style="stroke:#000000;stroke-width:0.5;" x="274.411463" xlink:href="#ma493716b52" y="-1"/>
     <use style="stroke:#000000;stroke-width:0.5;" x="263.729413" xlink:href="#ma493716b52" y="-1"/>
     <use style="stroke:#000000;stroke-width:0.5;" x="123.765852" xlink:href="#ma493716b52" y="210.46505"/>
     <use style="stroke:#000000;stroke-width:0.5;" x="106.839965" xlink:href="#ma493716b52" y="407.902714"/>
     <use style="stroke:#000000;stroke-width:0.5;" x="132.110708" xlink:href="#ma493716b52" y="306.24101"/>
     <use style="stroke:#000000;stroke-width:0.5;" x="108.709685" xlink:href="#ma493716b52" y="386.962451"/>
     <use style="stroke:#000000;stroke-width:0.5;" x="134.196921" xlink:href="#ma493716b52" y="368.643621"/>
     <use style="stroke:#000000;stroke-width:0.5;" x="120.282268" xlink:href="#ma493716b52" y="395.588216"/>
     <use style="stroke:#000000;stroke-width:0.5;" x="166.474194" xlink:href="#ma493716b52" y="278.378913"/>
     <use style="stroke:#000000;stroke-width:0.5;" x="162.026228" xlink:href="#ma493716b52" y="267.618551"/>
     <use style="stroke:#000000;stroke-width:0.5;" x="234.17774" xlink:href="#ma493716b52" y="221.706008"/>
     <use style="stroke:#000000;stroke-width:0.5;" x="114.535339" xlink:href="#ma493716b52" y="215.033835"/>
     <use style="stroke:#000000;stroke-width:0.5;" x="121.738682" xlink:href="#ma493716b52" y="322.624972"/>
     <use style="stroke:#000000;stroke-width:0.5;" x="246.891836" xlink:href="#ma493716b52" y="296.716467"/>
     <use style="stroke:#000000;stroke-width:0.5;" x="99.59726" xlink:href="#ma493716b52" y="429.804171"/>
     <use style="stroke:#000000;stroke-width:0.5;" x="138.546481" xlink:href="#ma493716b52" y="373.655553"/>
     <use style="stroke:#000000;stroke-width:0.5;" x="109.044267" xlink:href="#ma493716b52" y="417.951544"/>
     <use style="stroke:#000000;stroke-width:0.5;" x="233.075589" xlink:href="#ma493716b52" y="144.361224"/>
     <use style="stroke:#000000;stroke-width:0.5;" x="131.264413" xlink:href="#ma493716b52" y="424.792239"/>
     <use style="stroke:#000000;stroke-width:0.5;" x="143.604565" xlink:href="#ma493716b52" y="353.283266"/>
     <use style="stroke:#000000;stroke-width:0.5;" x="205.384051" xlink:href="#ma493716b52" y="285.531682"/>
     <use style="stroke:#000000;stroke-width:0.5;" x="123.883939" xlink:href="#ma493716b52" y="433.992223"/>
     <use style="stroke:#000000;stroke-width:0.5;" x="131.815489" xlink:href="#ma493716b52" y="21.366042"/>
     <use style="stroke:#000000;stroke-width:0.5;" x="215.244364" xlink:href="#ma493716b52" y="261.158589"/>
     <use style="stroke:#000000;stroke-width:0.5;" x="199.459991" xlink:href="#ma493716b52" y="366.090843"/>
     <use style="stroke:#000000;stroke-width:0.5;" x="192.965174" xlink:href="#ma493716b52" y="243.71357"/>
     <use style="stroke:#000000;stroke-width:0.5;" x="114.948646" xlink:href="#ma493716b52" y="371.277538"/>
     <use style="stroke:#000000;stroke-width:0.5;" x="126.718041" xlink:href="#ma493716b52" y="417.264978"/>
     <use style="stroke:#000000;stroke-width:0.5;" x="104.084588" xlink:href="#ma493716b52" y="392.979266"/>
     <use style="stroke:#000000;stroke-width:0.5;" x="309.458572" xlink:href="#ma493716b52" y="163.728628"/>
     <use style="stroke:#000000;stroke-width:0.5;" x="373.147141" xlink:href="#ma493716b52" y="54.670735"/>
     <use style="stroke:#000000;stroke-width:0.5;" x="139.7864" xlink:href="#ma493716b52" y="418.46959"/>
     <use style="stroke:#000000;stroke-width:0.5;" x="146.340261" xlink:href="#ma493716b52" y="353.994798"/>
     <use style="stroke:#000000;stroke-width:0.5;" x="126.895173" xlink:href="#ma493716b52" y="176.629828"/>
     <use style="stroke:#000000;stroke-width:0.5;" x="112.193269" xlink:href="#ma493716b52" y="351.161153"/>
     <use style="stroke:#000000;stroke-width:0.5;" x="106.958053" xlink:href="#ma493716b52" y="431.214752"/>
     <use style="stroke:#000000;stroke-width:0.5;" x="238.251761" xlink:href="#ma493716b52" y="257.432407"/>
     <use style="stroke:#000000;stroke-width:0.5;" x="123.647764" xlink:href="#ma493716b52" y="374.379568"/>
     <use style="stroke:#000000;stroke-width:0.5;" x="145.474285" xlink:href="#ma493716b52" y="323.430127"/>
     <use style="stroke:#000000;stroke-width:0.5;" x="112.035819" xlink:href="#ma493716b52" y="424.954518"/>
     <use style="stroke:#000000;stroke-width:0.5;" x="109.083629" xlink:href="#ma493716b52" y="428.755597"/>
     <use style="stroke:#000000;stroke-width:0.5;" x="321.444462" xlink:href="#ma493716b52" y="196.24065"/>
     <use style="stroke:#000000;stroke-width:0.5;" x="440.673556" xlink:href="#ma493716b52" y="109.777021"/>
     <use style="stroke:#000000;stroke-width:0.5;" x="220.420537" xlink:href="#ma493716b52" y="316.489569"/>
     <use style="stroke:#000000;stroke-width:0.5;" x="197.590271" xlink:href="#ma493716b52" y="358.538617"/>
     <use style="stroke:#000000;stroke-width:0.5;" x="106.525065" xlink:href="#ma493716b52" y="403.028096"/>
     <use style="stroke:#000000;stroke-width:0.5;" x="107.233591" xlink:href="#ma493716b52" y="426.945559"/>
     <use style="stroke:#000000;stroke-width:0.5;" x="118.845536" xlink:href="#ma493716b52" y="418.588178"/>
     <use style="stroke:#000000;stroke-width:0.5;" x="138.605524" xlink:href="#ma493716b52" y="429.879069"/>
    </g>
   </g>
   <g id="line2d_29">
    <path clip-path="url(#pb89f889b68)" d="M 85.269301 440.670638 
L 93.973078 432.567121 
L 102.676856 424.463604 
L 111.380634 416.360087 
L 120.084411 408.25657 
L 128.788189 400.153053 
L 137.491967 392.049535 
L 146.195744 383.946018 
L 154.899522 375.842501 
L 163.6033 367.738984 
L 172.307077 359.635467 
L 181.010855 351.53195 
L 189.714633 343.428432 
L 198.41841 335.324915 
L 207.122188 327.221398 
L 215.825966 319.117881 
L 224.529743 311.014364 
L 233.233521 302.910847 
L 241.937299 294.80733 
L 250.641076 286.703812 
L 259.344854 278.600295 
L 268.048632 270.496778 
L 276.75241 262.393261 
L 285.456187 254.289744 
L 294.159965 246.186227 
L 302.863743 238.08271 
L 311.56752 229.979192 
L 320.271298 221.875675 
L 328.975076 213.772158 
L 337.678853 205.668641 
L 346.382631 197.565124 
L 355.086409 189.461607 
L 363.790186 181.358089 
L 372.493964 173.254572 
L 381.197742 165.151055 
L 389.901519 157.047538 
L 398.605297 148.944021 
L 407.309075 140.840504 
L 416.012852 132.736987 
L 424.71663 124.633469 
L 433.420408 116.529952 
L 442.124185 108.426435 
L 450.827963 100.322918 
L 459.531741 92.219401 
L 468.235519 84.115884 
L 476.939296 76.012366 
L 485.643074 67.908849 
L 494.346852 59.805332 
L 503.050629 51.701815 
L 511.754407 43.598298 
" style="fill:none;stroke:#ff0000;stroke-width:2;"/>
   </g>
   <g id="text_17">
    <!-- $45^\circ$ -->
    <defs>
     <path d="M 37.796875 64.3125 
L 12.890625 25.390625 
L 37.796875 25.390625 
z
M 35.203125 72.90625 
L 47.609375 72.90625 
L 47.609375 25.390625 
L 58.015625 25.390625 
L 58.015625 17.1875 
L 47.609375 17.1875 
L 47.609375 0 
L 37.796875 0 
L 37.796875 17.1875 
L 4.890625 17.1875 
L 4.890625 26.703125 
z
" id="DejaVuSans-52"/>
     <path d="M 10.796875 72.90625 
L 49.515625 72.90625 
L 49.515625 64.59375 
L 19.828125 64.59375 
L 19.828125 46.734375 
Q 21.96875 47.46875 24.109375 47.828125 
Q 26.265625 48.1875 28.421875 48.1875 
Q 40.625 48.1875 47.75 41.5 
Q 54.890625 34.8125 54.890625 23.390625 
Q 54.890625 11.625 47.5625 5.09375 
Q 40.234375 -1.421875 26.90625 -1.421875 
Q 22.3125 -1.421875 17.546875 -0.640625 
Q 12.796875 0.140625 7.71875 1.703125 
L 7.71875 11.625 
Q 12.109375 9.234375 16.796875 8.0625 
Q 21.484375 6.890625 26.703125 6.890625 
Q 35.15625 6.890625 40.078125 11.328125 
Q 45.015625 15.765625 45.015625 23.390625 
Q 45.015625 31 40.078125 35.4375 
Q 35.15625 39.890625 26.703125 39.890625 
Q 22.75 39.890625 18.8125 39.015625 
Q 14.890625 38.140625 10.796875 36.28125 
z
" id="DejaVuSans-53"/>
     <path d="M 31.296875 40.671875 
Q 27.390625 40.671875 24.703125 37.953125 
Q 22.015625 35.25 22.015625 31.34375 
Q 22.015625 27.484375 24.703125 24.828125 
Q 27.390625 22.171875 31.296875 22.171875 
Q 35.203125 22.171875 37.890625 24.828125 
Q 40.578125 27.484375 40.578125 31.34375 
Q 40.578125 35.203125 37.859375 37.9375 
Q 35.15625 40.671875 31.296875 40.671875 
z
M 31.296875 46.96875 
Q 34.421875 46.96875 37.296875 45.765625 
Q 40.1875 44.578125 42.28125 42.328125 
Q 44.53125 40.140625 45.65625 37.34375 
Q 46.78125 34.5625 46.78125 31.34375 
Q 46.78125 24.90625 42.265625 20.4375 
Q 37.75 15.96875 31.203125 15.96875 
Q 24.609375 15.96875 20.21875 20.359375 
Q 15.828125 24.75 15.828125 31.34375 
Q 15.828125 37.890625 20.3125 42.421875 
Q 24.8125 46.96875 31.296875 46.96875 
z
" id="DejaVuSans-8728"/>
    </defs>
    <g style="fill:#ff0000;" transform="translate(511.754407 43.598298)scale(0.14 -0.14)">
     <use transform="translate(0 0.09375)" xlink:href="#DejaVuSans-52"/>
     <use transform="translate(63.623047 0.09375)" xlink:href="#DejaVuSans-53"/>
     <use transform="translate(141.84082 38.375)scale(0.7)" xlink:href="#DejaVuSans-8728"/>
    </g>
   </g>
   <g id="text_18">
    <!-- Source: Maddison Project Database (MPD) 2018 -->
    <defs>
     <path d="M 40.578125 0 
L 40.578125 7.625 
Q 34.515625 -1.171875 24.125 -1.171875 
Q 19.53125 -1.171875 15.546875 0.578125 
Q 11.578125 2.34375 9.640625 5 
Q 7.71875 7.671875 6.9375 11.53125 
Q 6.390625 14.109375 6.390625 19.734375 
L 6.390625 51.859375 
L 15.1875 51.859375 
L 15.1875 23.09375 
Q 15.1875 16.21875 15.71875 13.8125 
Q 16.546875 10.359375 19.234375 8.375 
Q 21.921875 6.390625 25.875 6.390625 
Q 29.828125 6.390625 33.296875 8.421875 
Q 36.765625 10.453125 38.203125 13.9375 
Q 39.65625 17.4375 39.65625 24.078125 
L 39.65625 51.859375 
L 48.4375 51.859375 
L 48.4375 0 
z
" id="ArialMT-117"/>
     <path d="M 9.03125 41.84375 
L 9.03125 51.859375 
L 19.046875 51.859375 
L 19.046875 41.84375 
z
M 9.03125 0 
L 9.03125 10.015625 
L 19.046875 10.015625 
L 19.046875 0 
z
" id="ArialMT-58"/>
     <path d="M 7.421875 0 
L 7.421875 71.578125 
L 21.6875 71.578125 
L 38.625 20.90625 
Q 40.96875 13.8125 42.046875 10.296875 
Q 43.265625 14.203125 45.84375 21.78125 
L 62.984375 71.578125 
L 75.734375 71.578125 
L 75.734375 0 
L 66.609375 0 
L 66.609375 59.90625 
L 45.796875 0 
L 37.25 0 
L 16.546875 60.9375 
L 16.546875 0 
z
" id="ArialMT-77"/>
     <path d="M 40.234375 0 
L 40.234375 6.546875 
Q 35.296875 -1.171875 25.734375 -1.171875 
Q 19.53125 -1.171875 14.328125 2.25 
Q 9.125 5.671875 6.265625 11.796875 
Q 3.421875 17.921875 3.421875 25.875 
Q 3.421875 33.640625 6 39.96875 
Q 8.59375 46.296875 13.765625 49.65625 
Q 18.953125 53.03125 25.34375 53.03125 
Q 30.03125 53.03125 33.6875 51.046875 
Q 37.359375 49.078125 39.65625 45.90625 
L 39.65625 71.578125 
L 48.390625 71.578125 
L 48.390625 0 
z
M 12.453125 25.875 
Q 12.453125 15.921875 16.640625 10.984375 
Q 20.84375 6.0625 26.5625 6.0625 
Q 32.328125 6.0625 36.34375 10.765625 
Q 40.375 15.484375 40.375 25.140625 
Q 40.375 35.796875 36.265625 40.765625 
Q 32.171875 45.75 26.171875 45.75 
Q 20.3125 45.75 16.375 40.96875 
Q 12.453125 36.1875 12.453125 25.875 
z
" id="ArialMT-100"/>
     <path d="M 3.078125 15.484375 
L 11.765625 16.84375 
Q 12.5 11.625 15.84375 8.84375 
Q 19.1875 6.0625 25.203125 6.0625 
Q 31.25 6.0625 34.171875 8.515625 
Q 37.109375 10.984375 37.109375 14.3125 
Q 37.109375 17.28125 34.515625 19 
Q 32.71875 20.171875 25.53125 21.96875 
Q 15.875 24.421875 12.140625 26.203125 
Q 8.40625 27.984375 6.46875 31.125 
Q 4.546875 34.28125 4.546875 38.09375 
Q 4.546875 41.546875 6.125 44.5 
Q 7.71875 47.46875 10.453125 49.421875 
Q 12.5 50.921875 16.03125 51.96875 
Q 19.578125 53.03125 23.640625 53.03125 
Q 29.734375 53.03125 34.34375 51.265625 
Q 38.96875 49.515625 41.15625 46.5 
Q 43.359375 43.5 44.1875 38.484375 
L 35.59375 37.3125 
Q 35.015625 41.3125 32.203125 43.546875 
Q 29.390625 45.796875 24.265625 45.796875 
Q 18.21875 45.796875 15.625 43.796875 
Q 13.03125 41.796875 13.03125 39.109375 
Q 13.03125 37.40625 14.109375 36.03125 
Q 15.1875 34.625 17.484375 33.6875 
Q 18.796875 33.203125 25.25 31.453125 
Q 34.578125 28.953125 38.25 27.359375 
Q 41.9375 25.78125 44.03125 22.75 
Q 46.140625 19.734375 46.140625 15.234375 
Q 46.140625 10.84375 43.578125 6.953125 
Q 41.015625 3.078125 36.171875 0.953125 
Q 31.34375 -1.171875 25.25 -1.171875 
Q 15.140625 -1.171875 9.84375 3.03125 
Q 4.546875 7.234375 3.078125 15.484375 
z
" id="ArialMT-115"/>
     <path d="M 6.546875 61.375 
L 6.546875 71.578125 
L 15.328125 71.578125 
L 15.328125 61.375 
z
M -4.59375 -20.125 
L -2.9375 -12.640625 
Q -0.296875 -13.328125 1.21875 -13.328125 
Q 3.90625 -13.328125 5.21875 -11.546875 
Q 6.546875 -9.765625 6.546875 -2.640625 
L 6.546875 51.859375 
L 15.328125 51.859375 
L 15.328125 -2.828125 
Q 15.328125 -12.40625 12.84375 -16.15625 
Q 9.671875 -21.046875 2.296875 -21.046875 
Q -1.265625 -21.046875 -4.59375 -20.125 
z
" id="ArialMT-106"/>
     <path d="M 14.703125 0 
L 6.546875 0 
L 6.546875 71.578125 
L 15.328125 71.578125 
L 15.328125 46.046875 
Q 20.90625 53.03125 29.546875 53.03125 
Q 34.328125 53.03125 38.59375 51.09375 
Q 42.875 49.171875 45.625 45.671875 
Q 48.390625 42.1875 49.953125 37.25 
Q 51.515625 32.328125 51.515625 26.703125 
Q 51.515625 13.375 44.921875 6.09375 
Q 38.328125 -1.171875 29.109375 -1.171875 
Q 19.921875 -1.171875 14.703125 6.5 
z
M 14.59375 26.3125 
Q 14.59375 17 17.140625 12.84375 
Q 21.296875 6.0625 28.375 6.0625 
Q 34.125 6.0625 38.328125 11.0625 
Q 42.53125 16.0625 42.53125 25.984375 
Q 42.53125 36.140625 38.5 40.96875 
Q 34.46875 45.796875 28.765625 45.796875 
Q 23 45.796875 18.796875 40.796875 
Q 14.59375 35.796875 14.59375 26.3125 
z
" id="ArialMT-98"/>
     <path d="M 23.390625 -21.046875 
Q 16.109375 -11.859375 11.078125 0.4375 
Q 6.0625 12.75 6.0625 25.921875 
Q 6.0625 37.546875 9.8125 48.1875 
Q 14.203125 60.546875 23.390625 72.796875 
L 29.6875 72.796875 
Q 23.78125 62.640625 21.875 58.296875 
Q 18.890625 51.5625 17.1875 44.234375 
Q 15.09375 35.109375 15.09375 25.875 
Q 15.09375 2.390625 29.6875 -21.046875 
z
" id="ArialMT-40"/>
     <path d="M 12.359375 -21.046875 
L 6.0625 -21.046875 
Q 20.65625 2.390625 20.65625 25.875 
Q 20.65625 35.0625 18.5625 44.09375 
Q 16.890625 51.421875 13.921875 58.15625 
Q 12.015625 62.546875 6.0625 72.796875 
L 12.359375 72.796875 
Q 21.53125 60.546875 25.921875 48.1875 
Q 29.6875 37.546875 29.6875 25.921875 
Q 29.6875 12.75 24.625 0.4375 
Q 19.578125 -11.859375 12.359375 -21.046875 
z
" id="ArialMT-41"/>
    </defs>
    <g transform="translate(85.269301 539.938723)scale(0.16 -0.16)">
     <use xlink:href="#ArialMT-83"/>
     <use x="66.699219" xlink:href="#ArialMT-111"/>
     <use x="122.314453" xlink:href="#ArialMT-117"/>
     <use x="177.929688" xlink:href="#ArialMT-114"/>
     <use x="211.230469" xlink:href="#ArialMT-99"/>
     <use x="261.230469" xlink:href="#ArialMT-101"/>
     <use x="316.845703" xlink:href="#ArialMT-58"/>
     <use x="344.628906" xlink:href="#ArialMT-32"/>
     <use x="372.412109" xlink:href="#ArialMT-77"/>
     <use x="455.712891" xlink:href="#ArialMT-97"/>
     <use x="511.328125" xlink:href="#ArialMT-100"/>
     <use x="566.943359" xlink:href="#ArialMT-100"/>
     <use x="622.558594" xlink:href="#ArialMT-105"/>
     <use x="644.775391" xlink:href="#ArialMT-115"/>
     <use x="694.775391" xlink:href="#ArialMT-111"/>
     <use x="750.390625" xlink:href="#ArialMT-110"/>
     <use x="806.005859" xlink:href="#ArialMT-32"/>
     <use x="833.789062" xlink:href="#ArialMT-80"/>
     <use x="900.488281" xlink:href="#ArialMT-114"/>
     <use x="933.789062" xlink:href="#ArialMT-111"/>
     <use x="989.404297" xlink:href="#ArialMT-106"/>
     <use x="1011.621094" xlink:href="#ArialMT-101"/>
     <use x="1067.236328" xlink:href="#ArialMT-99"/>
     <use x="1117.236328" xlink:href="#ArialMT-116"/>
     <use x="1145.019531" xlink:href="#ArialMT-32"/>
     <use x="1172.802734" xlink:href="#ArialMT-68"/>
     <use x="1245.019531" xlink:href="#ArialMT-97"/>
     <use x="1300.634766" xlink:href="#ArialMT-116"/>
     <use x="1328.417969" xlink:href="#ArialMT-97"/>
     <use x="1384.033203" xlink:href="#ArialMT-98"/>
     <use x="1439.648438" xlink:href="#ArialMT-97"/>
     <use x="1495.263672" xlink:href="#ArialMT-115"/>
     <use x="1545.263672" xlink:href="#ArialMT-101"/>
     <use x="1600.878906" xlink:href="#ArialMT-32"/>
     <use x="1628.662109" xlink:href="#ArialMT-40"/>
     <use x="1661.962891" xlink:href="#ArialMT-77"/>
     <use x="1745.263672" xlink:href="#ArialMT-80"/>
     <use x="1811.962891" xlink:href="#ArialMT-68"/>
     <use x="1884.179688" xlink:href="#ArialMT-41"/>
     <use x="1917.480469" xlink:href="#ArialMT-32"/>
     <use x="1945.263672" xlink:href="#ArialMT-50"/>
     <use x="2000.878906" xlink:href="#ArialMT-48"/>
     <use x="2056.494141" xlink:href="#ArialMT-49"/>
     <use x="2112.109375" xlink:href="#ArialMT-56"/>
    </g>
   </g>
  </g>
 </g>
 <defs>
  <clipPath id="pb89f889b68">
   <rect height="466.56" width="501.12" x="49.728875" y="7.2"/>
  </clipPath>
 </defs>
</svg>
