<?xml version="1.0" encoding="utf-8" standalone="no"?>
<!DOCTYPE svg PUBLIC "-//W3C//DTD SVG 1.1//EN"
  "http://www.w3.org/Graphics/SVG/1.1/DTD/svg11.dtd">
<!-- Created with matplotlib (https://matplotlib.org/) -->
<svg height="386.227562pt" version="1.1" viewBox="0 0 510.3425 386.227562" width="510.3425pt" xmlns="http://www.w3.org/2000/svg" xmlns:xlink="http://www.w3.org/1999/xlink">
 <defs>
  <style type="text/css">
*{stroke-linecap:butt;stroke-linejoin:round;}
  </style>
 </defs>
 <g id="figure_1">
  <g id="patch_1">
   <path d="M 0 386.227562 
L 510.3425 386.227562 
L 510.3425 0 
L 0 0 
z
" style="fill:#ffffff;"/>
  </g>
  <g id="axes_1">
   <g id="patch_2">
    <path d="M 56.7425 333.36 
L 503.1425 333.36 
L 503.1425 7.2 
L 56.7425 7.2 
z
" style="fill:#ffffff;"/>
   </g>
   <g id="matplotlib.axis_1">
    <g id="xtick_1">
     <g id="line2d_1">
      <path clip-path="url(#p22df2d972e)" d="M 75.050823 333.36 
L 75.050823 7.2 
" style="fill:none;stroke:#cccccc;stroke-linecap:round;stroke-opacity:0.9;"/>
     </g>
     <g id="text_1">
      <!-- 1880 -->
      <defs>
       <path d="M 37.25 0 
L 28.46875 0 
L 28.46875 56 
Q 25.296875 52.984375 20.140625 49.953125 
Q 14.984375 46.921875 10.890625 45.40625 
L 10.890625 53.90625 
Q 18.265625 57.375 23.78125 62.296875 
Q 29.296875 67.234375 31.59375 71.875 
L 37.25 71.875 
z
" id="ArialMT-49"/>
       <path d="M 17.671875 38.8125 
Q 12.203125 40.828125 9.5625 44.53125 
Q 6.9375 48.25 6.9375 53.421875 
Q 6.9375 61.234375 12.546875 66.546875 
Q 18.171875 71.875 27.484375 71.875 
Q 36.859375 71.875 42.578125 66.421875 
Q 48.296875 60.984375 48.296875 53.171875 
Q 48.296875 48.1875 45.671875 44.5 
Q 43.0625 40.828125 37.75 38.8125 
Q 44.34375 36.671875 47.78125 31.875 
Q 51.21875 27.09375 51.21875 20.453125 
Q 51.21875 11.28125 44.71875 5.03125 
Q 38.234375 -1.21875 27.640625 -1.21875 
Q 17.046875 -1.21875 10.546875 5.046875 
Q 4.046875 11.328125 4.046875 20.703125 
Q 4.046875 27.6875 7.59375 32.390625 
Q 11.140625 37.109375 17.671875 38.8125 
z
M 15.921875 53.71875 
Q 15.921875 48.640625 19.1875 45.40625 
Q 22.46875 42.1875 27.6875 42.1875 
Q 32.765625 42.1875 36.015625 45.375 
Q 39.265625 48.578125 39.265625 53.21875 
Q 39.265625 58.0625 35.90625 61.359375 
Q 32.5625 64.65625 27.59375 64.65625 
Q 22.5625 64.65625 19.234375 61.421875 
Q 15.921875 58.203125 15.921875 53.71875 
z
M 13.09375 20.65625 
Q 13.09375 16.890625 14.875 13.375 
Q 16.65625 9.859375 20.171875 7.921875 
Q 23.6875 6 27.734375 6 
Q 34.03125 6 38.125 10.046875 
Q 42.234375 14.109375 42.234375 20.359375 
Q 42.234375 26.703125 38.015625 30.859375 
Q 33.796875 35.015625 27.4375 35.015625 
Q 21.234375 35.015625 17.15625 30.90625 
Q 13.09375 26.8125 13.09375 20.65625 
z
" id="ArialMT-56"/>
       <path d="M 4.15625 35.296875 
Q 4.15625 48 6.765625 55.734375 
Q 9.375 63.484375 14.515625 67.671875 
Q 19.671875 71.875 27.484375 71.875 
Q 33.25 71.875 37.59375 69.546875 
Q 41.9375 67.234375 44.765625 62.859375 
Q 47.609375 58.5 49.21875 52.21875 
Q 50.828125 45.953125 50.828125 35.296875 
Q 50.828125 22.703125 48.234375 14.96875 
Q 45.65625 7.234375 40.5 3 
Q 35.359375 -1.21875 27.484375 -1.21875 
Q 17.140625 -1.21875 11.234375 6.203125 
Q 4.15625 15.140625 4.15625 35.296875 
z
M 13.1875 35.296875 
Q 13.1875 17.671875 17.3125 11.828125 
Q 21.4375 6 27.484375 6 
Q 33.546875 6 37.671875 11.859375 
Q 41.796875 17.71875 41.796875 35.296875 
Q 41.796875 52.984375 37.671875 58.78125 
Q 33.546875 64.59375 27.390625 64.59375 
Q 21.34375 64.59375 17.71875 59.46875 
Q 13.1875 52.9375 13.1875 35.296875 
z
" id="ArialMT-48"/>
      </defs>
      <g style="fill:#262626;" transform="translate(59.480198 356.880937)scale(0.14 -0.14)">
       <use xlink:href="#ArialMT-49"/>
       <use x="55.615234" xlink:href="#ArialMT-56"/>
       <use x="111.230469" xlink:href="#ArialMT-56"/>
       <use x="166.845703" xlink:href="#ArialMT-48"/>
      </g>
     </g>
    </g>
    <g id="xtick_2">
     <g id="line2d_2">
      <path clip-path="url(#p22df2d972e)" d="M 128.898833 333.36 
L 128.898833 7.2 
" style="fill:none;stroke:#cccccc;stroke-linecap:round;stroke-opacity:0.9;"/>
     </g>
     <g id="text_2">
      <!-- 1900 -->
      <defs>
       <path d="M 5.46875 16.546875 
L 13.921875 17.328125 
Q 14.984375 11.375 18.015625 8.6875 
Q 21.046875 6 25.78125 6 
Q 29.828125 6 32.875 7.859375 
Q 35.9375 9.71875 37.890625 12.8125 
Q 39.84375 15.921875 41.15625 21.1875 
Q 42.484375 26.46875 42.484375 31.9375 
Q 42.484375 32.515625 42.4375 33.6875 
Q 39.796875 29.5 35.234375 26.875 
Q 30.671875 24.265625 25.34375 24.265625 
Q 16.453125 24.265625 10.296875 30.703125 
Q 4.15625 37.15625 4.15625 47.703125 
Q 4.15625 58.59375 10.578125 65.234375 
Q 17 71.875 26.65625 71.875 
Q 33.640625 71.875 39.421875 68.109375 
Q 45.21875 64.359375 48.21875 57.390625 
Q 51.21875 50.4375 51.21875 37.25 
Q 51.21875 23.53125 48.234375 15.40625 
Q 45.265625 7.28125 39.375 3.03125 
Q 33.5 -1.21875 25.59375 -1.21875 
Q 17.1875 -1.21875 11.859375 3.4375 
Q 6.546875 8.109375 5.46875 16.546875 
z
M 41.453125 48.140625 
Q 41.453125 55.71875 37.421875 60.15625 
Q 33.40625 64.59375 27.734375 64.59375 
Q 21.875 64.59375 17.53125 59.8125 
Q 13.1875 55.03125 13.1875 47.40625 
Q 13.1875 40.578125 17.3125 36.296875 
Q 21.4375 32.03125 27.484375 32.03125 
Q 33.59375 32.03125 37.515625 36.296875 
Q 41.453125 40.578125 41.453125 48.140625 
z
" id="ArialMT-57"/>
      </defs>
      <g style="fill:#262626;" transform="translate(113.328208 356.880937)scale(0.14 -0.14)">
       <use xlink:href="#ArialMT-49"/>
       <use x="55.615234" xlink:href="#ArialMT-57"/>
       <use x="111.230469" xlink:href="#ArialMT-48"/>
       <use x="166.845703" xlink:href="#ArialMT-48"/>
      </g>
     </g>
    </g>
    <g id="xtick_3">
     <g id="line2d_3">
      <path clip-path="url(#p22df2d972e)" d="M 182.746843 333.36 
L 182.746843 7.2 
" style="fill:none;stroke:#cccccc;stroke-linecap:round;stroke-opacity:0.9;"/>
     </g>
     <g id="text_3">
      <!-- 1920 -->
      <defs>
       <path d="M 50.34375 8.453125 
L 50.34375 0 
L 3.03125 0 
Q 2.9375 3.171875 4.046875 6.109375 
Q 5.859375 10.9375 9.828125 15.625 
Q 13.8125 20.3125 21.34375 26.46875 
Q 33.015625 36.03125 37.109375 41.625 
Q 41.21875 47.21875 41.21875 52.203125 
Q 41.21875 57.421875 37.46875 61 
Q 33.734375 64.59375 27.734375 64.59375 
Q 21.390625 64.59375 17.578125 60.78125 
Q 13.765625 56.984375 13.71875 50.25 
L 4.6875 51.171875 
Q 5.609375 61.28125 11.65625 66.578125 
Q 17.71875 71.875 27.9375 71.875 
Q 38.234375 71.875 44.234375 66.15625 
Q 50.25 60.453125 50.25 52 
Q 50.25 47.703125 48.484375 43.546875 
Q 46.734375 39.40625 42.65625 34.8125 
Q 38.578125 30.21875 29.109375 22.21875 
Q 21.1875 15.578125 18.9375 13.203125 
Q 16.703125 10.84375 15.234375 8.453125 
z
" id="ArialMT-50"/>
      </defs>
      <g style="fill:#262626;" transform="translate(167.176218 356.880937)scale(0.14 -0.14)">
       <use xlink:href="#ArialMT-49"/>
       <use x="55.615234" xlink:href="#ArialMT-57"/>
       <use x="111.230469" xlink:href="#ArialMT-50"/>
       <use x="166.845703" xlink:href="#ArialMT-48"/>
      </g>
     </g>
    </g>
    <g id="xtick_4">
     <g id="line2d_4">
      <path clip-path="url(#p22df2d972e)" d="M 236.594852 333.36 
L 236.594852 7.2 
" style="fill:none;stroke:#cccccc;stroke-linecap:round;stroke-opacity:0.9;"/>
     </g>
     <g id="text_4">
      <!-- 1940 -->
      <defs>
       <path d="M 32.328125 0 
L 32.328125 17.140625 
L 1.265625 17.140625 
L 1.265625 25.203125 
L 33.9375 71.578125 
L 41.109375 71.578125 
L 41.109375 25.203125 
L 50.78125 25.203125 
L 50.78125 17.140625 
L 41.109375 17.140625 
L 41.109375 0 
z
M 32.328125 25.203125 
L 32.328125 57.46875 
L 9.90625 25.203125 
z
" id="ArialMT-52"/>
      </defs>
      <g style="fill:#262626;" transform="translate(221.024227 356.880937)scale(0.14 -0.14)">
       <use xlink:href="#ArialMT-49"/>
       <use x="55.615234" xlink:href="#ArialMT-57"/>
       <use x="111.230469" xlink:href="#ArialMT-52"/>
       <use x="166.845703" xlink:href="#ArialMT-48"/>
      </g>
     </g>
    </g>
    <g id="xtick_5">
     <g id="line2d_5">
      <path clip-path="url(#p22df2d972e)" d="M 290.442862 333.36 
L 290.442862 7.2 
" style="fill:none;stroke:#cccccc;stroke-linecap:round;stroke-opacity:0.9;"/>
     </g>
     <g id="text_5">
      <!-- 1960 -->
      <defs>
       <path d="M 49.75 54.046875 
L 41.015625 53.375 
Q 39.84375 58.546875 37.703125 60.890625 
Q 34.125 64.65625 28.90625 64.65625 
Q 24.703125 64.65625 21.53125 62.3125 
Q 17.390625 59.28125 14.984375 53.46875 
Q 12.59375 47.65625 12.5 36.921875 
Q 15.671875 41.75 20.265625 44.09375 
Q 24.859375 46.4375 29.890625 46.4375 
Q 38.671875 46.4375 44.84375 39.96875 
Q 51.03125 33.5 51.03125 23.25 
Q 51.03125 16.5 48.125 10.71875 
Q 45.21875 4.9375 40.140625 1.859375 
Q 35.0625 -1.21875 28.609375 -1.21875 
Q 17.625 -1.21875 10.6875 6.859375 
Q 3.765625 14.9375 3.765625 33.5 
Q 3.765625 54.25 11.421875 63.671875 
Q 18.109375 71.875 29.4375 71.875 
Q 37.890625 71.875 43.28125 67.140625 
Q 48.6875 62.40625 49.75 54.046875 
z
M 13.875 23.1875 
Q 13.875 18.65625 15.796875 14.5 
Q 17.71875 10.359375 21.1875 8.171875 
Q 24.65625 6 28.46875 6 
Q 34.03125 6 38.03125 10.484375 
Q 42.046875 14.984375 42.046875 22.703125 
Q 42.046875 30.125 38.078125 34.390625 
Q 34.125 38.671875 28.125 38.671875 
Q 22.171875 38.671875 18.015625 34.390625 
Q 13.875 30.125 13.875 23.1875 
z
" id="ArialMT-54"/>
      </defs>
      <g style="fill:#262626;" transform="translate(274.872237 356.880937)scale(0.14 -0.14)">
       <use xlink:href="#ArialMT-49"/>
       <use x="55.615234" xlink:href="#ArialMT-57"/>
       <use x="111.230469" xlink:href="#ArialMT-54"/>
       <use x="166.845703" xlink:href="#ArialMT-48"/>
      </g>
     </g>
    </g>
    <g id="xtick_6">
     <g id="line2d_6">
      <path clip-path="url(#p22df2d972e)" d="M 344.290872 333.36 
L 344.290872 7.2 
" style="fill:none;stroke:#cccccc;stroke-linecap:round;stroke-opacity:0.9;"/>
     </g>
     <g id="text_6">
      <!-- 1980 -->
      <g style="fill:#262626;" transform="translate(328.720247 356.880937)scale(0.14 -0.14)">
       <use xlink:href="#ArialMT-49"/>
       <use x="55.615234" xlink:href="#ArialMT-57"/>
       <use x="111.230469" xlink:href="#ArialMT-56"/>
       <use x="166.845703" xlink:href="#ArialMT-48"/>
      </g>
     </g>
    </g>
    <g id="xtick_7">
     <g id="line2d_7">
      <path clip-path="url(#p22df2d972e)" d="M 398.138881 333.36 
L 398.138881 7.2 
" style="fill:none;stroke:#cccccc;stroke-linecap:round;stroke-opacity:0.9;"/>
     </g>
     <g id="text_7">
      <!-- 2000 -->
      <g style="fill:#262626;" transform="translate(382.568256 356.880937)scale(0.14 -0.14)">
       <use xlink:href="#ArialMT-50"/>
       <use x="55.615234" xlink:href="#ArialMT-48"/>
       <use x="111.230469" xlink:href="#ArialMT-48"/>
       <use x="166.845703" xlink:href="#ArialMT-48"/>
      </g>
     </g>
    </g>
    <g id="xtick_8">
     <g id="line2d_8">
      <path clip-path="url(#p22df2d972e)" d="M 451.986891 333.36 
L 451.986891 7.2 
" style="fill:none;stroke:#cccccc;stroke-linecap:round;stroke-opacity:0.9;"/>
     </g>
     <g id="text_8">
      <!-- 2020 -->
      <g style="fill:#262626;" transform="translate(436.416266 356.880937)scale(0.14 -0.14)">
       <use xlink:href="#ArialMT-50"/>
       <use x="55.615234" xlink:href="#ArialMT-48"/>
       <use x="111.230469" xlink:href="#ArialMT-50"/>
       <use x="166.845703" xlink:href="#ArialMT-48"/>
      </g>
     </g>
    </g>
    <g id="text_9">
     <!-- Year -->
     <defs>
      <path d="M 27.875 0 
L 27.875 30.328125 
L 0.296875 71.578125 
L 11.8125 71.578125 
L 25.921875 50 
Q 29.828125 43.953125 33.203125 37.890625 
Q 36.421875 43.5 41.015625 50.53125 
L 54.890625 71.578125 
L 65.921875 71.578125 
L 37.359375 30.328125 
L 37.359375 0 
z
" id="ArialMT-89"/>
      <path d="M 42.09375 16.703125 
L 51.171875 15.578125 
Q 49.03125 7.625 43.21875 3.21875 
Q 37.40625 -1.171875 28.375 -1.171875 
Q 17 -1.171875 10.328125 5.828125 
Q 3.65625 12.84375 3.65625 25.484375 
Q 3.65625 38.578125 10.390625 45.796875 
Q 17.140625 53.03125 27.875 53.03125 
Q 38.28125 53.03125 44.875 45.953125 
Q 51.46875 38.875 51.46875 26.03125 
Q 51.46875 25.25 51.421875 23.6875 
L 12.75 23.6875 
Q 13.234375 15.140625 17.578125 10.59375 
Q 21.921875 6.0625 28.421875 6.0625 
Q 33.25 6.0625 36.671875 8.59375 
Q 40.09375 11.140625 42.09375 16.703125 
z
M 13.234375 30.90625 
L 42.1875 30.90625 
Q 41.609375 37.453125 38.875 40.71875 
Q 34.671875 45.796875 27.984375 45.796875 
Q 21.921875 45.796875 17.796875 41.75 
Q 13.671875 37.703125 13.234375 30.90625 
z
" id="ArialMT-101"/>
      <path d="M 40.4375 6.390625 
Q 35.546875 2.25 31.03125 0.53125 
Q 26.515625 -1.171875 21.34375 -1.171875 
Q 12.796875 -1.171875 8.203125 3 
Q 3.609375 7.171875 3.609375 13.671875 
Q 3.609375 17.484375 5.34375 20.625 
Q 7.078125 23.78125 9.890625 25.6875 
Q 12.703125 27.59375 16.21875 28.5625 
Q 18.796875 29.25 24.03125 29.890625 
Q 34.671875 31.15625 39.703125 32.90625 
Q 39.75 34.71875 39.75 35.203125 
Q 39.75 40.578125 37.25 42.78125 
Q 33.890625 45.75 27.25 45.75 
Q 21.046875 45.75 18.09375 43.578125 
Q 15.140625 41.40625 13.71875 35.890625 
L 5.125 37.0625 
Q 6.296875 42.578125 8.984375 45.96875 
Q 11.671875 49.359375 16.75 51.1875 
Q 21.828125 53.03125 28.515625 53.03125 
Q 35.15625 53.03125 39.296875 51.46875 
Q 43.453125 49.90625 45.40625 47.53125 
Q 47.359375 45.171875 48.140625 41.546875 
Q 48.578125 39.3125 48.578125 33.453125 
L 48.578125 21.734375 
Q 48.578125 9.46875 49.140625 6.21875 
Q 49.703125 2.984375 51.375 0 
L 42.1875 0 
Q 40.828125 2.734375 40.4375 6.390625 
z
M 39.703125 26.03125 
Q 34.90625 24.078125 25.34375 22.703125 
Q 19.921875 21.921875 17.671875 20.9375 
Q 15.4375 19.96875 14.203125 18.09375 
Q 12.984375 16.21875 12.984375 13.921875 
Q 12.984375 10.40625 15.640625 8.0625 
Q 18.3125 5.71875 23.4375 5.71875 
Q 28.515625 5.71875 32.46875 7.9375 
Q 36.421875 10.15625 38.28125 14.015625 
Q 39.703125 17 39.703125 22.796875 
z
" id="ArialMT-97"/>
      <path d="M 6.5 0 
L 6.5 51.859375 
L 14.40625 51.859375 
L 14.40625 44 
Q 17.4375 49.515625 20 51.265625 
Q 22.5625 53.03125 25.640625 53.03125 
Q 30.078125 53.03125 34.671875 50.203125 
L 31.640625 42.046875 
Q 28.421875 43.953125 25.203125 43.953125 
Q 22.3125 43.953125 20.015625 42.21875 
Q 17.71875 40.484375 16.75 37.40625 
Q 15.28125 32.71875 15.28125 27.15625 
L 15.28125 0 
z
" id="ArialMT-114"/>
     </defs>
     <g style="fill:#262626;" transform="translate(262.211937 375.688562)scale(0.168 -0.168)">
      <use xlink:href="#ArialMT-89"/>
      <use x="66.558594" xlink:href="#ArialMT-101"/>
      <use x="122.173828" xlink:href="#ArialMT-97"/>
      <use x="177.789062" xlink:href="#ArialMT-114"/>
     </g>
    </g>
   </g>
   <g id="matplotlib.axis_2">
    <g id="ytick_1">
     <g id="line2d_9">
      <path clip-path="url(#p22df2d972e)" d="M 56.7425 286.914128 
L 503.1425 286.914128 
" style="fill:none;stroke:#cccccc;stroke-linecap:round;stroke-opacity:0.9;"/>
     </g>
     <g id="text_10">
      <!-- 1 -->
      <g style="fill:#262626;" transform="translate(35.457188 291.924596)scale(0.14 -0.14)">
       <use xlink:href="#ArialMT-49"/>
      </g>
     </g>
    </g>
    <g id="ytick_2">
     <g id="line2d_10">
      <path clip-path="url(#p22df2d972e)" d="M 56.7425 179.070151 
L 503.1425 179.070151 
" style="fill:none;stroke:#cccccc;stroke-linecap:round;stroke-opacity:0.9;"/>
     </g>
     <g id="text_11">
      <!-- 5 -->
      <defs>
       <path d="M 4.15625 18.75 
L 13.375 19.53125 
Q 14.40625 12.796875 18.140625 9.390625 
Q 21.875 6 27.15625 6 
Q 33.5 6 37.890625 10.78125 
Q 42.28125 15.578125 42.28125 23.484375 
Q 42.28125 31 38.0625 35.34375 
Q 33.84375 39.703125 27 39.703125 
Q 22.75 39.703125 19.328125 37.765625 
Q 15.921875 35.84375 13.96875 32.765625 
L 5.71875 33.84375 
L 12.640625 70.609375 
L 48.25 70.609375 
L 48.25 62.203125 
L 19.671875 62.203125 
L 15.828125 42.96875 
Q 22.265625 47.46875 29.34375 47.46875 
Q 38.71875 47.46875 45.15625 40.96875 
Q 51.609375 34.46875 51.609375 24.265625 
Q 51.609375 14.546875 45.953125 7.46875 
Q 39.0625 -1.21875 27.15625 -1.21875 
Q 17.390625 -1.21875 11.203125 4.25 
Q 5.03125 9.71875 4.15625 18.75 
z
" id="ArialMT-53"/>
      </defs>
      <g style="fill:#262626;" transform="translate(35.457188 184.08062)scale(0.14 -0.14)">
       <use xlink:href="#ArialMT-53"/>
      </g>
     </g>
    </g>
    <g id="ytick_3">
     <g id="line2d_11">
      <path clip-path="url(#p22df2d972e)" d="M 56.7425 59.009313 
L 503.1425 59.009313 
" style="fill:none;stroke:#cccccc;stroke-linecap:round;stroke-opacity:0.9;"/>
     </g>
     <g id="text_12">
      <!-- 30 -->
      <defs>
       <path d="M 4.203125 18.890625 
L 12.984375 20.0625 
Q 14.5 12.59375 18.140625 9.296875 
Q 21.78125 6 27 6 
Q 33.203125 6 37.46875 10.296875 
Q 41.75 14.59375 41.75 20.953125 
Q 41.75 27 37.796875 30.921875 
Q 33.84375 34.859375 27.734375 34.859375 
Q 25.25 34.859375 21.53125 33.890625 
L 22.515625 41.609375 
Q 23.390625 41.5 23.921875 41.5 
Q 29.546875 41.5 34.03125 44.421875 
Q 38.53125 47.359375 38.53125 53.46875 
Q 38.53125 58.296875 35.25 61.46875 
Q 31.984375 64.65625 26.8125 64.65625 
Q 21.6875 64.65625 18.265625 61.421875 
Q 14.84375 58.203125 13.875 51.765625 
L 5.078125 53.328125 
Q 6.6875 62.15625 12.390625 67.015625 
Q 18.109375 71.875 26.609375 71.875 
Q 32.46875 71.875 37.390625 69.359375 
Q 42.328125 66.84375 44.9375 62.5 
Q 47.5625 58.15625 47.5625 53.265625 
Q 47.5625 48.640625 45.0625 44.828125 
Q 42.578125 41.015625 37.703125 38.765625 
Q 44.046875 37.3125 47.5625 32.6875 
Q 51.078125 28.078125 51.078125 21.140625 
Q 51.078125 11.765625 44.234375 5.25 
Q 37.40625 -1.265625 26.953125 -1.265625 
Q 17.53125 -1.265625 11.296875 4.34375 
Q 5.078125 9.96875 4.203125 18.890625 
z
" id="ArialMT-51"/>
      </defs>
      <g style="fill:#262626;" transform="translate(27.671875 64.019781)scale(0.14 -0.14)">
       <use xlink:href="#ArialMT-51"/>
       <use x="55.615234" xlink:href="#ArialMT-48"/>
      </g>
     </g>
    </g>
    <g id="ytick_4">
     <g id="line2d_12">
      <path clip-path="url(#p22df2d972e)" d="M 56.7425 12.56344 
L 503.1425 12.56344 
" style="fill:none;stroke:#cccccc;stroke-linecap:round;stroke-opacity:0.9;"/>
     </g>
     <g id="text_13">
      <!-- 60 -->
      <g style="fill:#262626;" transform="translate(27.671875 17.573909)scale(0.14 -0.14)">
       <use xlink:href="#ArialMT-54"/>
       <use x="55.615234" xlink:href="#ArialMT-48"/>
      </g>
     </g>
    </g>
    <g id="ytick_5"/>
    <g id="ytick_6"/>
    <g id="ytick_7"/>
    <g id="ytick_8"/>
    <g id="ytick_9"/>
    <g id="ytick_10"/>
    <g id="ytick_11"/>
    <g id="ytick_12"/>
    <g id="ytick_13"/>
    <g id="ytick_14"/>
    <g id="ytick_15"/>
    <g id="ytick_16"/>
    <g id="ytick_17"/>
    <g id="ytick_18"/>
    <g id="ytick_19"/>
    <g id="text_14">
     <!-- GDP per capita in thousand 2011US$ -->
     <defs>
      <path d="M 41.21875 28.078125 
L 41.21875 36.46875 
L 71.53125 36.53125 
L 71.53125 9.96875 
Q 64.546875 4.390625 57.125 1.578125 
Q 49.703125 -1.21875 41.890625 -1.21875 
Q 31.34375 -1.21875 22.71875 3.296875 
Q 14.109375 7.8125 9.71875 16.359375 
Q 5.328125 24.90625 5.328125 35.453125 
Q 5.328125 45.90625 9.6875 54.953125 
Q 14.0625 64.015625 22.265625 68.40625 
Q 30.46875 72.796875 41.15625 72.796875 
Q 48.921875 72.796875 55.1875 70.28125 
Q 61.46875 67.78125 65.03125 63.28125 
Q 68.609375 58.796875 70.453125 51.5625 
L 61.921875 49.21875 
Q 60.296875 54.6875 57.90625 57.8125 
Q 55.515625 60.9375 51.0625 62.8125 
Q 46.625 64.703125 41.21875 64.703125 
Q 34.71875 64.703125 29.984375 62.71875 
Q 25.25 60.75 22.34375 57.515625 
Q 19.4375 54.296875 17.828125 50.4375 
Q 15.09375 43.796875 15.09375 36.03125 
Q 15.09375 26.46875 18.390625 20.015625 
Q 21.6875 13.578125 27.984375 10.453125 
Q 34.28125 7.328125 41.359375 7.328125 
Q 47.515625 7.328125 53.375 9.6875 
Q 59.234375 12.0625 62.25 14.75 
L 62.25 28.078125 
z
" id="ArialMT-71"/>
      <path d="M 7.71875 0 
L 7.71875 71.578125 
L 32.375 71.578125 
Q 40.71875 71.578125 45.125 70.5625 
Q 51.265625 69.140625 55.609375 65.4375 
Q 61.28125 60.640625 64.078125 53.1875 
Q 66.890625 45.75 66.890625 36.1875 
Q 66.890625 28.03125 64.984375 21.734375 
Q 63.09375 15.4375 60.109375 11.296875 
Q 57.125 7.171875 53.578125 4.796875 
Q 50.046875 2.4375 45.046875 1.21875 
Q 40.046875 0 33.546875 0 
z
M 17.1875 8.453125 
L 32.46875 8.453125 
Q 39.546875 8.453125 43.578125 9.765625 
Q 47.609375 11.078125 50 13.484375 
Q 53.375 16.84375 55.25 22.53125 
Q 57.125 28.21875 57.125 36.328125 
Q 57.125 47.5625 53.4375 53.59375 
Q 49.75 59.625 44.484375 61.671875 
Q 40.671875 63.140625 32.234375 63.140625 
L 17.1875 63.140625 
z
" id="ArialMT-68"/>
      <path d="M 7.71875 0 
L 7.71875 71.578125 
L 34.71875 71.578125 
Q 41.84375 71.578125 45.609375 70.90625 
Q 50.875 70.015625 54.4375 67.546875 
Q 58.015625 65.09375 60.1875 60.640625 
Q 62.359375 56.203125 62.359375 50.875 
Q 62.359375 41.75 56.546875 35.421875 
Q 50.734375 29.109375 35.546875 29.109375 
L 17.1875 29.109375 
L 17.1875 0 
z
M 17.1875 37.546875 
L 35.6875 37.546875 
Q 44.875 37.546875 48.734375 40.96875 
Q 52.59375 44.390625 52.59375 50.59375 
Q 52.59375 55.078125 50.3125 58.265625 
Q 48.046875 61.46875 44.34375 62.5 
Q 41.9375 63.140625 35.5 63.140625 
L 17.1875 63.140625 
z
" id="ArialMT-80"/>
      <path id="ArialMT-32"/>
      <path d="M 6.59375 -19.875 
L 6.59375 51.859375 
L 14.59375 51.859375 
L 14.59375 45.125 
Q 17.4375 49.078125 21 51.046875 
Q 24.5625 53.03125 29.640625 53.03125 
Q 36.28125 53.03125 41.359375 49.609375 
Q 46.4375 46.1875 49.015625 39.953125 
Q 51.609375 33.734375 51.609375 26.3125 
Q 51.609375 18.359375 48.75 11.984375 
Q 45.90625 5.609375 40.453125 2.21875 
Q 35.015625 -1.171875 29 -1.171875 
Q 24.609375 -1.171875 21.109375 0.6875 
Q 17.625 2.546875 15.375 5.375 
L 15.375 -19.875 
z
M 14.546875 25.640625 
Q 14.546875 15.625 18.59375 10.84375 
Q 22.65625 6.0625 28.421875 6.0625 
Q 34.28125 6.0625 38.453125 11.015625 
Q 42.625 15.96875 42.625 26.375 
Q 42.625 36.28125 38.546875 41.203125 
Q 34.46875 46.140625 28.8125 46.140625 
Q 23.1875 46.140625 18.859375 40.890625 
Q 14.546875 35.640625 14.546875 25.640625 
z
" id="ArialMT-112"/>
      <path d="M 40.4375 19 
L 49.078125 17.875 
Q 47.65625 8.9375 41.8125 3.875 
Q 35.984375 -1.171875 27.484375 -1.171875 
Q 16.84375 -1.171875 10.375 5.78125 
Q 3.90625 12.75 3.90625 25.734375 
Q 3.90625 34.125 6.6875 40.421875 
Q 9.46875 46.734375 15.15625 49.875 
Q 20.84375 53.03125 27.546875 53.03125 
Q 35.984375 53.03125 41.359375 48.75 
Q 46.734375 44.484375 48.25 36.625 
L 39.703125 35.296875 
Q 38.484375 40.53125 35.375 43.15625 
Q 32.28125 45.796875 27.875 45.796875 
Q 21.234375 45.796875 17.078125 41.03125 
Q 12.9375 36.28125 12.9375 25.984375 
Q 12.9375 15.53125 16.9375 10.796875 
Q 20.953125 6.0625 27.390625 6.0625 
Q 32.5625 6.0625 36.03125 9.234375 
Q 39.5 12.40625 40.4375 19 
z
" id="ArialMT-99"/>
      <path d="M 6.640625 61.46875 
L 6.640625 71.578125 
L 15.4375 71.578125 
L 15.4375 61.46875 
z
M 6.640625 0 
L 6.640625 51.859375 
L 15.4375 51.859375 
L 15.4375 0 
z
" id="ArialMT-105"/>
      <path d="M 25.78125 7.859375 
L 27.046875 0.09375 
Q 23.34375 -0.6875 20.40625 -0.6875 
Q 15.625 -0.6875 12.984375 0.828125 
Q 10.359375 2.34375 9.28125 4.8125 
Q 8.203125 7.28125 8.203125 15.1875 
L 8.203125 45.015625 
L 1.765625 45.015625 
L 1.765625 51.859375 
L 8.203125 51.859375 
L 8.203125 64.703125 
L 16.9375 69.96875 
L 16.9375 51.859375 
L 25.78125 51.859375 
L 25.78125 45.015625 
L 16.9375 45.015625 
L 16.9375 14.703125 
Q 16.9375 10.9375 17.40625 9.859375 
Q 17.875 8.796875 18.921875 8.15625 
Q 19.96875 7.515625 21.921875 7.515625 
Q 23.390625 7.515625 25.78125 7.859375 
z
" id="ArialMT-116"/>
      <path d="M 6.59375 0 
L 6.59375 51.859375 
L 14.5 51.859375 
L 14.5 44.484375 
Q 20.21875 53.03125 31 53.03125 
Q 35.6875 53.03125 39.625 51.34375 
Q 43.5625 49.65625 45.515625 46.921875 
Q 47.46875 44.1875 48.25 40.4375 
Q 48.734375 37.984375 48.734375 31.890625 
L 48.734375 0 
L 39.9375 0 
L 39.9375 31.546875 
Q 39.9375 36.921875 38.90625 39.578125 
Q 37.890625 42.234375 35.28125 43.8125 
Q 32.671875 45.40625 29.15625 45.40625 
Q 23.53125 45.40625 19.453125 41.84375 
Q 15.375 38.28125 15.375 28.328125 
L 15.375 0 
z
" id="ArialMT-110"/>
      <path d="M 6.59375 0 
L 6.59375 71.578125 
L 15.375 71.578125 
L 15.375 45.90625 
Q 21.53125 53.03125 30.90625 53.03125 
Q 36.671875 53.03125 40.921875 50.75 
Q 45.171875 48.484375 47 44.484375 
Q 48.828125 40.484375 48.828125 32.859375 
L 48.828125 0 
L 40.046875 0 
L 40.046875 32.859375 
Q 40.046875 39.453125 37.1875 42.453125 
Q 34.328125 45.453125 29.109375 45.453125 
Q 25.203125 45.453125 21.75 43.421875 
Q 18.3125 41.40625 16.84375 37.9375 
Q 15.375 34.46875 15.375 28.375 
L 15.375 0 
z
" id="ArialMT-104"/>
      <path d="M 3.328125 25.921875 
Q 3.328125 40.328125 11.328125 47.265625 
Q 18.015625 53.03125 27.640625 53.03125 
Q 38.328125 53.03125 45.109375 46.015625 
Q 51.90625 39.015625 51.90625 26.65625 
Q 51.90625 16.65625 48.90625 10.90625 
Q 45.90625 5.171875 40.15625 2 
Q 34.421875 -1.171875 27.640625 -1.171875 
Q 16.75 -1.171875 10.03125 5.8125 
Q 3.328125 12.796875 3.328125 25.921875 
z
M 12.359375 25.921875 
Q 12.359375 15.96875 16.703125 11.015625 
Q 21.046875 6.0625 27.640625 6.0625 
Q 34.1875 6.0625 38.53125 11.03125 
Q 42.875 16.015625 42.875 26.21875 
Q 42.875 35.84375 38.5 40.796875 
Q 34.125 45.75 27.640625 45.75 
Q 21.046875 45.75 16.703125 40.8125 
Q 12.359375 35.890625 12.359375 25.921875 
z
" id="ArialMT-111"/>
      <path d="M 40.578125 0 
L 40.578125 7.625 
Q 34.515625 -1.171875 24.125 -1.171875 
Q 19.53125 -1.171875 15.546875 0.578125 
Q 11.578125 2.34375 9.640625 5 
Q 7.71875 7.671875 6.9375 11.53125 
Q 6.390625 14.109375 6.390625 19.734375 
L 6.390625 51.859375 
L 15.1875 51.859375 
L 15.1875 23.09375 
Q 15.1875 16.21875 15.71875 13.8125 
Q 16.546875 10.359375 19.234375 8.375 
Q 21.921875 6.390625 25.875 6.390625 
Q 29.828125 6.390625 33.296875 8.421875 
Q 36.765625 10.453125 38.203125 13.9375 
Q 39.65625 17.4375 39.65625 24.078125 
L 39.65625 51.859375 
L 48.4375 51.859375 
L 48.4375 0 
z
" id="ArialMT-117"/>
      <path d="M 3.078125 15.484375 
L 11.765625 16.84375 
Q 12.5 11.625 15.84375 8.84375 
Q 19.1875 6.0625 25.203125 6.0625 
Q 31.25 6.0625 34.171875 8.515625 
Q 37.109375 10.984375 37.109375 14.3125 
Q 37.109375 17.28125 34.515625 19 
Q 32.71875 20.171875 25.53125 21.96875 
Q 15.875 24.421875 12.140625 26.203125 
Q 8.40625 27.984375 6.46875 31.125 
Q 4.546875 34.28125 4.546875 38.09375 
Q 4.546875 41.546875 6.125 44.5 
Q 7.71875 47.46875 10.453125 49.421875 
Q 12.5 50.921875 16.03125 51.96875 
Q 19.578125 53.03125 23.640625 53.03125 
Q 29.734375 53.03125 34.34375 51.265625 
Q 38.96875 49.515625 41.15625 46.5 
Q 43.359375 43.5 44.1875 38.484375 
L 35.59375 37.3125 
Q 35.015625 41.3125 32.203125 43.546875 
Q 29.390625 45.796875 24.265625 45.796875 
Q 18.21875 45.796875 15.625 43.796875 
Q 13.03125 41.796875 13.03125 39.109375 
Q 13.03125 37.40625 14.109375 36.03125 
Q 15.1875 34.625 17.484375 33.6875 
Q 18.796875 33.203125 25.25 31.453125 
Q 34.578125 28.953125 38.25 27.359375 
Q 41.9375 25.78125 44.03125 22.75 
Q 46.140625 19.734375 46.140625 15.234375 
Q 46.140625 10.84375 43.578125 6.953125 
Q 41.015625 3.078125 36.171875 0.953125 
Q 31.34375 -1.171875 25.25 -1.171875 
Q 15.140625 -1.171875 9.84375 3.03125 
Q 4.546875 7.234375 3.078125 15.484375 
z
" id="ArialMT-115"/>
      <path d="M 40.234375 0 
L 40.234375 6.546875 
Q 35.296875 -1.171875 25.734375 -1.171875 
Q 19.53125 -1.171875 14.328125 2.25 
Q 9.125 5.671875 6.265625 11.796875 
Q 3.421875 17.921875 3.421875 25.875 
Q 3.421875 33.640625 6 39.96875 
Q 8.59375 46.296875 13.765625 49.65625 
Q 18.953125 53.03125 25.34375 53.03125 
Q 30.03125 53.03125 33.6875 51.046875 
Q 37.359375 49.078125 39.65625 45.90625 
L 39.65625 71.578125 
L 48.390625 71.578125 
L 48.390625 0 
z
M 12.453125 25.875 
Q 12.453125 15.921875 16.640625 10.984375 
Q 20.84375 6.0625 26.5625 6.0625 
Q 32.328125 6.0625 36.34375 10.765625 
Q 40.375 15.484375 40.375 25.140625 
Q 40.375 35.796875 36.265625 40.765625 
Q 32.171875 45.75 26.171875 45.75 
Q 20.3125 45.75 16.375 40.96875 
Q 12.453125 36.1875 12.453125 25.875 
z
" id="ArialMT-100"/>
      <path d="M 54.6875 71.578125 
L 64.15625 71.578125 
L 64.15625 30.21875 
Q 64.15625 19.4375 61.71875 13.078125 
Q 59.28125 6.734375 52.90625 2.75 
Q 46.53125 -1.21875 36.1875 -1.21875 
Q 26.125 -1.21875 19.71875 2.25 
Q 13.328125 5.71875 10.59375 12.28125 
Q 7.859375 18.84375 7.859375 30.21875 
L 7.859375 71.578125 
L 17.328125 71.578125 
L 17.328125 30.28125 
Q 17.328125 20.953125 19.0625 16.53125 
Q 20.796875 12.109375 25.015625 9.71875 
Q 29.25 7.328125 35.359375 7.328125 
Q 45.796875 7.328125 50.234375 12.0625 
Q 54.6875 16.796875 54.6875 30.28125 
z
" id="ArialMT-85"/>
      <path d="M 4.5 23 
L 13.421875 23.78125 
Q 14.0625 18.40625 16.375 14.96875 
Q 18.703125 11.53125 23.578125 9.40625 
Q 28.46875 7.28125 34.578125 7.28125 
Q 39.984375 7.28125 44.140625 8.890625 
Q 48.296875 10.5 50.3125 13.296875 
Q 52.34375 16.109375 52.34375 19.4375 
Q 52.34375 22.796875 50.390625 25.3125 
Q 48.4375 27.828125 43.953125 29.546875 
Q 41.0625 30.671875 31.203125 33.03125 
Q 21.34375 35.40625 17.390625 37.5 
Q 12.25 40.1875 9.734375 44.15625 
Q 7.234375 48.140625 7.234375 53.078125 
Q 7.234375 58.5 10.296875 63.203125 
Q 13.375 67.921875 19.28125 70.359375 
Q 25.203125 72.796875 32.421875 72.796875 
Q 40.375 72.796875 46.453125 70.234375 
Q 52.546875 67.671875 55.8125 62.6875 
Q 59.078125 57.71875 59.328125 51.421875 
L 50.25 50.734375 
Q 49.515625 57.515625 45.28125 60.984375 
Q 41.0625 64.453125 32.8125 64.453125 
Q 24.21875 64.453125 20.28125 61.296875 
Q 16.359375 58.15625 16.359375 53.71875 
Q 16.359375 49.859375 19.140625 47.359375 
Q 21.875 44.875 33.421875 42.265625 
Q 44.96875 39.65625 49.265625 37.703125 
Q 55.515625 34.8125 58.484375 30.390625 
Q 61.46875 25.984375 61.46875 20.21875 
Q 61.46875 14.5 58.203125 9.4375 
Q 54.9375 4.390625 48.796875 1.578125 
Q 42.671875 -1.21875 35.015625 -1.21875 
Q 25.296875 -1.21875 18.71875 1.609375 
Q 12.15625 4.4375 8.421875 10.125 
Q 4.6875 15.828125 4.5 23 
z
" id="ArialMT-83"/>
      <path d="M 24.90625 -10.296875 
L 24.90625 -1.515625 
Q 18.3125 -0.6875 14.1875 1.4375 
Q 10.0625 3.5625 7.046875 8.296875 
Q 4.046875 13.03125 3.5625 19.875 
L 12.40625 21.53125 
Q 13.421875 14.453125 16.015625 11.140625 
Q 19.734375 6.453125 24.90625 5.90625 
L 24.90625 33.890625 
Q 19.484375 34.90625 13.8125 38.09375 
Q 9.625 40.4375 7.34375 44.578125 
Q 5.078125 48.734375 5.078125 54 
Q 5.078125 63.375 11.71875 69.1875 
Q 16.15625 73.09375 24.90625 73.96875 
L 24.90625 78.171875 
L 30.078125 78.171875 
L 30.078125 73.96875 
Q 37.75 73.25 42.234375 69.484375 
Q 48 64.703125 49.171875 56.34375 
L 40.09375 54.984375 
Q 39.3125 60.15625 36.84375 62.90625 
Q 34.375 65.671875 30.078125 66.546875 
L 30.078125 41.21875 
Q 36.71875 39.546875 38.875 38.625 
Q 42.96875 36.8125 45.546875 34.21875 
Q 48.140625 31.640625 49.53125 28.078125 
Q 50.921875 24.515625 50.921875 20.359375 
Q 50.921875 11.234375 45.109375 5.125 
Q 39.3125 -0.984375 30.078125 -1.421875 
L 30.078125 -10.296875 
z
M 24.90625 66.65625 
Q 19.78125 65.875 16.828125 62.546875 
Q 13.875 59.234375 13.875 54.6875 
Q 13.875 50.203125 16.375 47.171875 
Q 18.890625 44.140625 24.90625 42.328125 
z
M 30.078125 5.90625 
Q 35.203125 6.546875 38.546875 10.34375 
Q 41.890625 14.15625 41.890625 19.78125 
Q 41.890625 24.5625 39.515625 27.46875 
Q 37.15625 30.375 30.078125 32.671875 
z
" id="ArialMT-36"/>
     </defs>
     <g style="fill:#262626;" transform="translate(20.332875 310.81725)rotate(-90)scale(0.168 -0.168)">
      <use xlink:href="#ArialMT-71"/>
      <use x="77.783203" xlink:href="#ArialMT-68"/>
      <use x="150" xlink:href="#ArialMT-80"/>
      <use x="216.683594" xlink:href="#ArialMT-32"/>
      <use x="244.466797" xlink:href="#ArialMT-112"/>
      <use x="300.082031" xlink:href="#ArialMT-101"/>
      <use x="355.697266" xlink:href="#ArialMT-114"/>
      <use x="388.998047" xlink:href="#ArialMT-32"/>
      <use x="416.78125" xlink:href="#ArialMT-99"/>
      <use x="466.78125" xlink:href="#ArialMT-97"/>
      <use x="522.396484" xlink:href="#ArialMT-112"/>
      <use x="578.011719" xlink:href="#ArialMT-105"/>
      <use x="600.228516" xlink:href="#ArialMT-116"/>
      <use x="628.011719" xlink:href="#ArialMT-97"/>
      <use x="683.626953" xlink:href="#ArialMT-32"/>
      <use x="711.410156" xlink:href="#ArialMT-105"/>
      <use x="733.626953" xlink:href="#ArialMT-110"/>
      <use x="789.242188" xlink:href="#ArialMT-32"/>
      <use x="817.025391" xlink:href="#ArialMT-116"/>
      <use x="844.808594" xlink:href="#ArialMT-104"/>
      <use x="900.423828" xlink:href="#ArialMT-111"/>
      <use x="956.039062" xlink:href="#ArialMT-117"/>
      <use x="1011.654297" xlink:href="#ArialMT-115"/>
      <use x="1061.654297" xlink:href="#ArialMT-97"/>
      <use x="1117.269531" xlink:href="#ArialMT-110"/>
      <use x="1172.884766" xlink:href="#ArialMT-100"/>
      <use x="1228.5" xlink:href="#ArialMT-32"/>
      <use x="1256.283203" xlink:href="#ArialMT-50"/>
      <use x="1311.898438" xlink:href="#ArialMT-48"/>
      <use x="1367.513672" xlink:href="#ArialMT-49"/>
      <use x="1423.019531" xlink:href="#ArialMT-49"/>
      <use x="1478.634766" xlink:href="#ArialMT-85"/>
      <use x="1550.851562" xlink:href="#ArialMT-83"/>
      <use x="1617.550781" xlink:href="#ArialMT-36"/>
     </g>
    </g>
   </g>
   <g id="line2d_13">
    <path clip-path="url(#p22df2d972e)" d="M 75.050823 180.890447 
L 77.743224 180.232702 
L 80.435624 177.730095 
L 83.128025 177.71696 
L 85.820425 178.085711 
L 88.512826 179.110368 
L 91.205226 178.616044 
L 93.897627 177.128543 
L 96.590027 178.869431 
L 99.282428 176.23622 
L 101.974828 176.648574 
L 104.667229 175.178357 
L 107.359629 170.325587 
L 110.05203 174.963732 
L 112.74443 178.217902 
L 115.436831 171.848273 
L 118.129231 174.461426 
L 120.821631 169.577025 
L 123.514032 169.402784 
L 126.206432 164.753473 
L 128.898833 164.096481 
L 131.591233 158.250015 
L 134.283634 158.901438 
L 136.976034 156.95623 
L 139.668435 159.07026 
L 142.360835 155.630255 
L 145.053236 149.600229 
L 147.745636 149.790419 
L 150.438037 156.81187 
L 153.130437 150.41666 
L 155.822838 151.13708 
L 158.515238 150.041951 
L 161.207639 148.013479 
L 163.900039 146.735839 
L 166.59244 153.40081 
L 169.28484 152.493331 
L 171.977241 144.77149 
L 174.669641 147.409201 
L 177.362042 142.357549 
L 180.054442 142.102342 
L 182.746843 143.632575 
L 185.439243 146.463435 
L 188.131644 143.782788 
L 190.824044 136.627961 
L 193.516445 135.885197 
L 196.208845 135.352668 
L 198.901245 132.023911 
L 201.593646 132.290077 
L 204.286046 132.356785 
L 206.978447 129.081135 
L 209.670847 136.131871 
L 212.363248 140.704477 
L 215.055648 151.678072 
L 217.748049 153.988114 
L 220.440449 148.623256 
L 223.13285 140.810394 
L 225.82525 134.541038 
L 228.517651 129.674829 
L 231.210051 133.998522 
L 233.902452 129.617145 
L 236.594852 124.393318 
L 239.287253 115.852926 
L 241.979653 109.245808 
L 244.672054 103.726553 
L 247.364454 99.471968 
L 250.056855 101.16415 
L 252.749255 107.860983 
L 255.441656 109.805945 
L 258.134056 107.454737 
L 260.826457 109.544281 
L 263.518857 104.387159 
L 266.211258 100.605023 
L 268.903658 99.300594 
L 271.596059 97.396304 
L 274.288459 99.015941 
L 276.980859 95.625601 
L 282.36566 95.48302 
L 285.058061 97.285489 
L 287.750461 93.60788 
L 290.442862 93.022758 
L 293.135262 92.59001 
L 295.827663 89.696591 
L 298.520063 87.823358 
L 301.212464 84.983003 
L 306.597265 78.199782 
L 309.289665 77.275245 
L 311.982066 74.827035 
L 314.674466 73.416541 
L 317.366867 74.078909 
L 320.059267 72.867694 
L 322.751668 70.122986 
L 325.444068 67.061799 
L 330.828869 68.711597 
L 333.52127 65.922965 
L 336.21367 63.629941 
L 338.906071 60.621081 
L 341.598471 59.118847 
L 344.290872 59.87933 
L 346.983272 58.884349 
L 349.675672 60.795191 
L 352.368073 58.655112 
L 355.060473 54.525812 
L 357.752874 52.574127 
L 363.137675 49.19902 
L 365.830075 47.0442 
L 368.522476 45.398047 
L 371.214876 44.989127 
L 373.907277 45.93432 
L 376.599677 44.521484 
L 379.292078 43.590552 
L 381.984478 41.759706 
L 384.676879 40.760565 
L 387.369279 39.042573 
L 392.75408 34.772867 
L 395.446481 32.474569 
L 398.138881 30.53228 
L 400.831282 30.545424 
L 403.523682 29.979664 
L 406.216083 28.701521 
L 408.908483 26.830962 
L 411.600884 25.244255 
L 414.293284 24.126829 
L 416.985685 23.582266 
L 419.678085 24.41144 
L 422.370486 26.886256 
L 425.062886 25.7699 
L 427.755286 25.217271 
L 430.447687 24.254355 
L 433.140087 23.633625 
L 435.832488 22.586606 
L 438.524888 21.394964 
L 441.217289 20.856903 
L 441.217289 20.856903 
" style="fill:none;stroke:#165aa7;stroke-linecap:round;stroke-opacity:0.3;stroke-width:2;"/>
   </g>
   <g id="line2d_14">
    <path clip-path="url(#p22df2d972e)" d="M 75.050823 192.531431 
L 77.743224 190.577823 
L 80.435624 188.989639 
L 83.128025 188.772435 
L 85.820425 188.974101 
L 88.512826 189.6612 
L 91.205226 188.958567 
L 93.897627 186.683293 
L 96.590027 184.077169 
L 99.282428 180.890447 
L 101.974828 180.945552 
L 104.667229 181.318698 
L 107.359629 183.330403 
L 110.05203 183.745842 
L 112.74443 179.824867 
L 115.436831 178.164994 
L 118.129231 175.877481 
L 120.821631 175.444435 
L 123.514032 172.72024 
L 126.206432 170.455092 
L 128.898833 171.380654 
L 131.591233 171.812187 
L 134.283634 170.502247 
L 136.976034 171.596073 
L 139.668435 171.596073 
L 142.360835 170.020474 
L 145.053236 168.218413 
L 147.745636 167.346486 
L 150.438037 170.537635 
L 153.130437 169.437596 
L 158.515238 166.098145 
L 161.207639 165.078962 
L 163.900039 162.602071 
L 166.59244 162.927783 
L 169.28484 158.535467 
L 171.977241 157.721703 
L 177.362042 157.604864 
L 180.054442 165.756692 
L 182.746843 170.809566 
L 185.439243 172.671498 
L 188.131644 166.68598 
L 190.824044 164.612917 
L 193.516445 162.059245 
L 196.208845 158.762727 
L 198.901245 161.212087 
L 201.593646 155.942688 
L 204.286046 155.103378 
L 206.978447 152.981843 
L 209.670847 153.702996 
L 212.363248 157.488228 
L 215.055648 157.313654 
L 217.748049 155.601925 
L 220.440449 151.491335 
L 223.13285 149.195715 
L 225.82525 146.479913 
L 228.517651 144.434971 
L 231.210051 143.861984 
L 233.902452 143.861984 
L 239.287253 131.851469 
L 241.979653 130.409834 
L 244.672054 129.450778 
L 247.364454 132.396841 
L 250.056855 135.590382 
L 252.749255 138.561968 
L 255.441656 139.93034 
L 258.134056 138.466854 
L 260.826457 136.365285 
L 263.518857 136.478748 
L 266.211258 135.366628 
L 268.903658 136.011945 
L 271.596059 132.913031 
L 274.288459 129.996207 
L 276.980859 127.597751 
L 282.36566 125.468611 
L 285.058061 125.438507 
L 287.750461 123.113708 
L 290.442862 120.407416 
L 293.135262 118.291367 
L 295.827663 118.069909 
L 298.520063 115.826846 
L 301.212464 112.450607 
L 306.597265 109.606037 
L 309.289665 108.004681 
L 311.982066 107.220422 
L 314.674466 104.387159 
L 317.366867 102.334962 
L 320.059267 102.386148 
L 322.751668 100.909043 
L 325.444068 96.612677 
L 328.136469 97.765688 
L 330.828869 98.081073 
L 333.52127 95.517674 
L 336.21367 92.72656 
L 341.598471 85.747598 
L 344.290872 84.220526 
L 346.983272 86.262218 
L 349.675672 86.632239 
L 352.368073 85.827539 
L 355.060473 85.27986 
L 357.752874 83.834428 
L 360.445274 81.949203 
L 363.137675 79.046831 
L 365.830075 76.595199 
L 368.522476 74.968598 
L 371.214876 73.95596 
L 373.907277 74.815723 
L 376.599677 74.4885 
L 379.292078 72.631887 
L 381.984478 70.286651 
L 384.676879 67.321737 
L 387.369279 64.17296 
L 390.06168 59.367641 
L 392.75408 56.859728 
L 395.446481 54.173695 
L 398.138881 49.85824 
L 400.831282 48.332568 
L 403.523682 47.948941 
L 406.216083 48.005777 
L 408.908483 46.199462 
L 411.600884 43.658016 
L 414.293284 42.72841 
L 416.985685 43.044474 
L 419.678085 43.77713 
L 422.370486 47.296898 
L 425.062886 48.458389 
L 427.755286 48.735646 
L 430.447687 47.195704 
L 433.140087 43.697104 
L 438.524888 41.861655 
L 441.217289 41.151249 
L 441.217289 41.151249 
" style="fill:none;stroke:#cb495c;stroke-linecap:round;stroke-opacity:0.3;stroke-width:2;"/>
   </g>
   <g id="line2d_15">
    <path clip-path="url(#p22df2d972e)" d="M 75.050823 277.374493 
L 77.743224 280.042095 
L 80.435624 278.902794 
L 83.128025 279.440049 
L 85.820425 279.560026 
L 88.512826 277.607359 
L 91.205226 273.370346 
L 93.897627 270.845526 
L 96.590027 274.641449 
L 99.282428 272.176663 
L 101.974828 266.755333 
L 104.667229 270.52995 
L 107.359629 266.705754 
L 110.05203 266.954021 
L 112.74443 259.968764 
L 115.436831 259.745034 
L 118.129231 264.176879 
L 120.821631 263.512025 
L 123.514032 252.631533 
L 126.206432 258.54963 
L 128.898833 256.47574 
L 131.591233 254.961388 
L 134.283634 259.388612 
L 136.976034 255.714286 
L 139.668435 255.967144 
L 142.360835 257.76438 
L 145.053236 250.10861 
L 147.745636 248.65437 
L 150.438037 248.995954 
L 153.130437 249.91545 
L 155.822838 249.761322 
L 158.515238 247.156939 
L 161.207639 245.764721 
L 163.900039 245.619841 
L 166.59244 248.578698 
L 169.28484 243.588623 
L 171.977241 234.786002 
L 174.669641 233.354754 
L 177.362042 233.234346 
L 180.054442 227.14381 
L 182.746843 232.130708 
L 185.439243 225.973229 
L 188.131644 226.97924 
L 190.824044 227.80616 
L 193.516445 226.815074 
L 196.208845 225.0353 
L 198.901245 225.516024 
L 201.593646 225.596481 
L 204.286046 221.334018 
L 206.978447 220.235105 
L 209.670847 226.297851 
L 212.363248 226.760441 
L 215.055648 222.374485 
L 217.748049 217.089784 
L 220.440449 217.874337 
L 223.13285 217.160729 
L 225.82525 213.43331 
L 228.517651 211.448745 
L 231.210051 207.750419 
L 233.902452 198.472127 
L 236.594852 197.195423 
L 239.287253 197.30089 
L 241.979653 198.669339 
L 244.672054 198.669339 
L 247.364454 202.740605 
L 250.056855 248.427611 
L 252.749255 243.799559 
L 255.441656 239.53666 
L 258.134056 232.042015 
L 260.826457 229.292466 
L 263.518857 225.008694 
L 266.211258 216.665686 
L 268.903658 211.405305 
L 274.288459 205.765175 
L 276.980859 200.507762 
L 282.36566 192.909308 
L 285.058061 188.803421 
L 287.750461 183.904098 
L 290.442862 176.635649 
L 293.135262 169.938566 
L 295.827663 164.000091 
L 298.520063 159.779972 
L 301.212464 153.063609 
L 303.904864 149.677969 
L 309.289665 137.027494 
L 311.982066 129.125639 
L 314.674466 121.801041 
L 317.366867 115.540635 
L 320.059267 112.410949 
L 322.751668 107.505383 
L 325.444068 103.461522 
L 328.136469 105.005515 
L 330.828869 102.386148 
L 333.52127 99.036233 
L 336.21367 95.49842 
L 338.906071 91.387907 
L 341.598471 87.909254 
L 344.290872 84.825215 
L 346.983272 86.3327 
L 349.675672 87.525297 
L 352.368073 89.43229 
L 355.060473 89.979666 
L 357.752874 89.555501 
L 360.445274 84.940232 
L 363.137675 81.276324 
L 365.830075 75.65802 
L 368.522476 71.578216 
L 371.214876 67.724991 
L 373.907277 63.367223 
L 376.599677 61.133247 
L 379.292078 59.083061 
L 381.984478 57.402686 
L 384.676879 54.37974 
L 387.369279 53.563453 
L 390.06168 53.312697 
L 392.75408 54.408929 
L 395.446481 54.726658 
L 398.138881 52.028512 
L 400.831282 52.448444 
L 403.523682 52.187695 
L 406.216083 51.463351 
L 408.908483 49.928421 
L 411.600884 48.12339 
L 414.293284 47.593865 
L 416.985685 46.692015 
L 419.678085 48.189876 
L 422.370486 51.021766 
L 425.062886 47.773057 
L 427.755286 48.720319 
L 430.447687 48.406888 
L 433.140087 47.740956 
L 435.832488 47.635319 
L 438.524888 46.736634 
L 441.217289 45.956375 
L 441.217289 45.956375 
" style="fill:none;stroke:#bb60d5;stroke-linecap:round;stroke-opacity:0.3;stroke-width:2;"/>
   </g>
   <g id="line2d_16">
    <path clip-path="url(#p22df2d972e)" d="M 158.515238 316.089677 
L 161.207639 313.74902 
L 163.900039 311.778077 
L 166.59244 309.299575 
L 169.28484 299.238287 
L 171.977241 301.116736 
L 174.669641 294.873483 
L 177.362042 290.351149 
L 180.054442 286.646633 
L 182.746843 296.477152 
L 185.439243 291.921145 
L 188.131644 298.120143 
L 190.824044 294.123114 
L 193.516445 294.272517 
L 196.208845 294.798067 
L 198.901245 292.866461 
L 201.593646 290.63388 
L 204.286046 290.70475 
L 206.978447 294.873483 
L 209.670847 299.157798 
L 212.363248 299.318873 
L 215.055648 299.804435 
L 217.748049 287.587573 
L 220.440449 288.199515 
L 223.13285 282.88338 
L 225.82525 278.428824 
L 228.517651 273.151725 
L 231.210051 271.109647 
L 233.902452 279.320286 
L 236.594852 272.608273 
M 263.518857 279.200737 
L 266.211258 284.998561 
L 268.903658 281.385949 
L 271.596059 265.089863 
L 274.288459 263.701311 
L 276.980859 260.0136 
L 279.67326 263.182055 
L 282.36566 260.553984 
L 285.058061 259.299801 
L 287.750461 259.25544 
L 290.442862 260.328294 
L 293.135262 258.54963 
L 295.827663 256.560883 
L 298.520063 253.847669 
L 301.212464 251.674271 
L 303.904864 250.965193 
L 306.597265 244.971727 
L 309.289665 241.753643 
L 311.982066 234.387057 
L 314.674466 226.651309 
L 317.366867 223.717774 
L 320.059267 214.721298 
L 322.751668 207.545127 
L 325.444068 194.206906 
L 328.136469 184.482748 
L 330.828869 177.141563 
L 333.52127 172.952247 
L 336.21367 169.763383 
L 338.906071 165.646916 
L 341.598471 164.602117 
L 344.290872 170.940011 
L 346.983272 168.641462 
L 349.675672 164.905171 
L 352.368073 159.319302 
L 355.060473 155.234709 
L 357.752874 153.510538 
L 360.445274 143.364608 
L 363.137675 135.359648 
L 365.830075 127.890564 
L 368.522476 122.846793 
L 371.214876 116.893938 
L 373.907277 109.596532 
L 376.599677 105.53117 
L 379.292078 100.596713 
L 381.984478 94.839415 
L 384.676879 88.924246 
L 387.369279 86.037839 
L 390.06168 83.482718 
L 392.75408 89.898159 
L 395.446481 82.686127 
L 398.138881 77.017592 
L 400.831282 75.623666 
L 403.523682 70.570047 
L 406.216083 68.492522 
L 408.908483 65.052026 
L 411.600884 61.292516 
L 414.293284 59.345189 
L 416.985685 56.501619 
L 419.678085 58.095342 
L 422.370486 58.482035 
L 425.062886 54.007656 
L 427.755286 54.215269 
L 430.447687 53.676806 
L 433.140087 51.972183 
L 435.832488 49.570488 
L 438.524888 48.077838 
L 441.217289 46.51198 
" style="fill:none;stroke:#f47915;stroke-linecap:round;stroke-opacity:0.3;stroke-width:2;"/>
   </g>
   <g id="line2d_17">
    <path clip-path="url(#p22df2d972e)" d="M 75.050823 219.178303 
L 77.743224 219.594118 
L 80.435624 206.085305 
L 83.128025 200.637066 
L 85.820425 198.400557 
L 88.512826 190.816936 
L 91.205226 193.140367 
L 93.897627 191.911744 
L 96.590027 185.640474 
L 99.282428 184.540889 
L 101.974828 191.733426 
L 104.667229 195.667335 
L 107.359629 185.125088 
L 110.05203 182.676668 
L 112.74443 174.661897 
L 115.436831 169.286875 
L 118.129231 165.275017 
L 120.821631 181.318698 
L 123.514032 177.822111 
L 126.206432 168.951867 
L 128.898833 180.082874 
L 131.591233 179.960536 
L 134.283634 183.889696 
L 136.976034 177.402494 
L 139.668435 173.099192 
L 142.360835 167.312743 
L 145.053236 166.552433 
L 147.745636 167.68485 
L 150.438037 163.957295 
L 153.130437 163.202186 
L 155.822838 161.007078 
L 158.515238 162.350989 
L 161.207639 159.589312 
L 163.900039 161.438324 
L 166.59244 170.79772 
L 169.28484 172.004875 
L 171.977241 175.228957 
L 174.669641 182.09932 
L 177.362042 171.908461 
L 180.054442 170.691199 
L 182.746843 167.425285 
L 185.439243 167.459084 
L 188.131644 164.354202 
L 190.824044 159.689592 
L 193.516445 157.03335 
L 196.208845 159.319302 
L 198.901245 158.053858 
L 201.593646 155.39453 
L 204.286046 153.245669 
L 206.978447 152.071025 
L 209.670847 156.639047 
L 212.363248 162.969925 
L 215.055648 166.485759 
L 217.748049 164.623719 
L 220.440449 160.609105 
L 223.13285 158.80233 
L 225.82525 159.449171 
L 228.517651 155.885774 
L 231.210051 156.763819 
L 233.902452 155.526434 
L 236.594852 155.309872 
L 239.287253 153.04543 
L 241.979653 153.355143 
L 244.672054 154.972303 
L 247.364454 148.896059 
L 250.056855 152.241424 
L 252.749255 147.651936 
L 255.441656 141.817352 
L 258.134056 139.713983 
L 260.826457 142.373047 
L 266.211258 144.108086 
L 268.903658 151.252007 
L 271.596059 147.702267 
L 274.288459 145.522709 
L 276.980859 142.102342 
L 279.67326 141.986659 
L 282.36566 139.172432 
L 285.058061 135.681496 
L 287.750461 142.225957 
L 290.442862 140.222409 
L 293.135262 136.379457 
L 295.827663 138.233303 
L 298.520063 140.606276 
L 301.212464 134.768966 
L 303.904864 129.623551 
L 306.597265 129.854611 
L 309.289665 128.732485 
L 311.982066 126.58593 
L 314.674466 121.755446 
L 317.366867 118.976563 
L 320.059267 116.613695 
L 322.751668 115.385033 
L 325.444068 112.26244 
L 328.136469 108.892207 
L 330.828869 110.303538 
L 333.52127 111.305072 
L 336.21367 108.195207 
L 338.906071 112.015654 
L 341.598471 108.190554 
L 344.290872 108.046457 
L 346.983272 112.80859 
L 349.675672 115.743459 
L 352.368073 114.127633 
L 355.060473 113.449764 
L 357.752874 118.68205 
L 360.445274 114.648258 
L 363.137675 113.636252 
L 365.830075 115.576994 
L 368.522476 120.524782 
L 371.214876 121.092143 
L 376.599677 109.024 
L 379.292078 105.486462 
L 381.984478 102.194401 
L 384.676879 104.602935 
L 387.369279 101.428644 
L 390.06168 99.668363 
L 392.75408 100.22796 
L 395.446481 104.788441 
L 398.138881 105.822496 
L 400.831282 110.495908 
L 403.523682 121.131644 
L 406.216083 116.946946 
L 408.908483 111.705992 
L 411.600884 106.2099 
L 414.293284 101.673073 
L 416.985685 95.884563 
L 419.678085 92.193016 
L 422.370486 97.491434 
L 425.062886 90.825363 
L 427.755286 86.168356 
L 430.447687 86.713243 
L 433.140087 86.595144 
L 435.832488 89.615428 
L 438.524888 88.510158 
L 441.217289 90.699797 
L 441.217289 90.699797 
" style="fill:none;stroke:#06ab54;stroke-linecap:round;stroke-width:2;"/>
   </g>
   <g id="text_15">
    <!-- United States -->
    <g style="fill:#165aa7;opacity:0.3;" transform="translate(223.13285 71.226175)scale(0.14 -0.14)">
     <use xlink:href="#ArialMT-85"/>
     <use x="72.216797" xlink:href="#ArialMT-110"/>
     <use x="127.832031" xlink:href="#ArialMT-105"/>
     <use x="150.048828" xlink:href="#ArialMT-116"/>
     <use x="177.832031" xlink:href="#ArialMT-101"/>
     <use x="233.447266" xlink:href="#ArialMT-100"/>
     <use x="289.0625" xlink:href="#ArialMT-32"/>
     <use x="316.845703" xlink:href="#ArialMT-83"/>
     <use x="383.544922" xlink:href="#ArialMT-116"/>
     <use x="411.328125" xlink:href="#ArialMT-97"/>
     <use x="466.943359" xlink:href="#ArialMT-116"/>
     <use x="494.726562" xlink:href="#ArialMT-101"/>
     <use x="550.341797" xlink:href="#ArialMT-115"/>
    </g>
   </g>
   <g id="text_16">
    <!-- United Kingdom -->
    <defs>
     <path d="M 7.328125 0 
L 7.328125 71.578125 
L 16.796875 71.578125 
L 16.796875 36.078125 
L 52.34375 71.578125 
L 65.1875 71.578125 
L 35.15625 42.578125 
L 66.5 0 
L 54 0 
L 28.515625 36.234375 
L 16.796875 24.8125 
L 16.796875 0 
z
" id="ArialMT-75"/>
     <path d="M 4.984375 -4.296875 
L 13.53125 -5.5625 
Q 14.0625 -9.515625 16.5 -11.328125 
Q 19.78125 -13.765625 25.4375 -13.765625 
Q 31.546875 -13.765625 34.859375 -11.328125 
Q 38.1875 -8.890625 39.359375 -4.5 
Q 40.046875 -1.8125 39.984375 6.78125 
Q 34.234375 0 25.640625 0 
Q 14.9375 0 9.078125 7.71875 
Q 3.21875 15.4375 3.21875 26.21875 
Q 3.21875 33.640625 5.90625 39.90625 
Q 8.59375 46.1875 13.6875 49.609375 
Q 18.796875 53.03125 25.6875 53.03125 
Q 34.859375 53.03125 40.828125 45.609375 
L 40.828125 51.859375 
L 48.921875 51.859375 
L 48.921875 7.03125 
Q 48.921875 -5.078125 46.453125 -10.125 
Q 44 -15.1875 38.640625 -18.109375 
Q 33.296875 -21.046875 25.484375 -21.046875 
Q 16.21875 -21.046875 10.5 -16.875 
Q 4.78125 -12.703125 4.984375 -4.296875 
z
M 12.25 26.859375 
Q 12.25 16.65625 16.296875 11.96875 
Q 20.359375 7.28125 26.46875 7.28125 
Q 32.515625 7.28125 36.609375 11.9375 
Q 40.71875 16.609375 40.71875 26.5625 
Q 40.71875 36.078125 36.5 40.90625 
Q 32.28125 45.75 26.3125 45.75 
Q 20.453125 45.75 16.34375 40.984375 
Q 12.25 36.234375 12.25 26.859375 
z
" id="ArialMT-103"/>
     <path d="M 6.59375 0 
L 6.59375 51.859375 
L 14.453125 51.859375 
L 14.453125 44.578125 
Q 16.890625 48.390625 20.9375 50.703125 
Q 25 53.03125 30.171875 53.03125 
Q 35.9375 53.03125 39.625 50.640625 
Q 43.3125 48.25 44.828125 43.953125 
Q 50.984375 53.03125 60.84375 53.03125 
Q 68.5625 53.03125 72.703125 48.75 
Q 76.859375 44.484375 76.859375 35.59375 
L 76.859375 0 
L 68.109375 0 
L 68.109375 32.671875 
Q 68.109375 37.9375 67.25 40.25 
Q 66.40625 42.578125 64.15625 43.984375 
Q 61.921875 45.40625 58.890625 45.40625 
Q 53.421875 45.40625 49.796875 41.765625 
Q 46.1875 38.140625 46.1875 30.125 
L 46.1875 0 
L 37.40625 0 
L 37.40625 33.6875 
Q 37.40625 39.546875 35.25 42.46875 
Q 33.109375 45.40625 28.21875 45.40625 
Q 24.515625 45.40625 21.359375 43.453125 
Q 18.21875 41.5 16.796875 37.734375 
Q 15.375 33.984375 15.375 26.90625 
L 15.375 0 
z
" id="ArialMT-109"/>
    </defs>
    <g style="fill:#cb495c;opacity:0.3;" transform="translate(155.822838 186.130068)scale(0.14 -0.14)">
     <use xlink:href="#ArialMT-85"/>
     <use x="72.216797" xlink:href="#ArialMT-110"/>
     <use x="127.832031" xlink:href="#ArialMT-105"/>
     <use x="150.048828" xlink:href="#ArialMT-116"/>
     <use x="177.832031" xlink:href="#ArialMT-101"/>
     <use x="233.447266" xlink:href="#ArialMT-100"/>
     <use x="289.0625" xlink:href="#ArialMT-32"/>
     <use x="316.845703" xlink:href="#ArialMT-75"/>
     <use x="383.544922" xlink:href="#ArialMT-105"/>
     <use x="405.761719" xlink:href="#ArialMT-110"/>
     <use x="461.376953" xlink:href="#ArialMT-103"/>
     <use x="516.992188" xlink:href="#ArialMT-100"/>
     <use x="572.607422" xlink:href="#ArialMT-111"/>
     <use x="628.222656" xlink:href="#ArialMT-109"/>
    </g>
   </g>
   <g id="text_17">
    <!-- Japan -->
    <defs>
     <path d="M 2.875 20.3125 
L 11.421875 21.484375 
Q 11.765625 13.28125 14.5 10.25 
Q 17.234375 7.234375 22.078125 7.234375 
Q 25.640625 7.234375 28.21875 8.859375 
Q 30.8125 10.5 31.78125 13.296875 
Q 32.765625 16.109375 32.765625 22.265625 
L 32.765625 71.578125 
L 42.234375 71.578125 
L 42.234375 22.796875 
Q 42.234375 13.8125 40.0625 8.875 
Q 37.890625 3.953125 33.171875 1.359375 
Q 28.46875 -1.21875 22.125 -1.21875 
Q 12.703125 -1.21875 7.6875 4.203125 
Q 2.6875 9.625 2.875 20.3125 
z
" id="ArialMT-74"/>
    </defs>
    <g style="fill:#bb60d5;opacity:0.3;" transform="translate(128.898833 234.081784)scale(0.14 -0.14)">
     <use xlink:href="#ArialMT-74"/>
     <use x="50" xlink:href="#ArialMT-97"/>
     <use x="105.615234" xlink:href="#ArialMT-112"/>
     <use x="161.230469" xlink:href="#ArialMT-97"/>
     <use x="216.845703" xlink:href="#ArialMT-110"/>
    </g>
   </g>
   <g id="text_18">
    <!-- Republic of Korea -->
    <defs>
     <path d="M 7.859375 0 
L 7.859375 71.578125 
L 39.59375 71.578125 
Q 49.171875 71.578125 54.140625 69.640625 
Q 59.125 67.71875 62.109375 62.828125 
Q 65.09375 57.953125 65.09375 52.046875 
Q 65.09375 44.4375 60.15625 39.203125 
Q 55.21875 33.984375 44.921875 32.5625 
Q 48.6875 30.765625 50.640625 29 
Q 54.78125 25.203125 58.5 19.484375 
L 70.953125 0 
L 59.03125 0 
L 49.5625 14.890625 
Q 45.40625 21.34375 42.71875 24.75 
Q 40.046875 28.171875 37.921875 29.53125 
Q 35.796875 30.90625 33.59375 31.453125 
Q 31.984375 31.78125 28.328125 31.78125 
L 17.328125 31.78125 
L 17.328125 0 
z
M 17.328125 39.984375 
L 37.703125 39.984375 
Q 44.1875 39.984375 47.84375 41.328125 
Q 51.515625 42.671875 53.421875 45.625 
Q 55.328125 48.578125 55.328125 52.046875 
Q 55.328125 57.125 51.640625 60.390625 
Q 47.953125 63.671875 39.984375 63.671875 
L 17.328125 63.671875 
z
" id="ArialMT-82"/>
     <path d="M 14.703125 0 
L 6.546875 0 
L 6.546875 71.578125 
L 15.328125 71.578125 
L 15.328125 46.046875 
Q 20.90625 53.03125 29.546875 53.03125 
Q 34.328125 53.03125 38.59375 51.09375 
Q 42.875 49.171875 45.625 45.671875 
Q 48.390625 42.1875 49.953125 37.25 
Q 51.515625 32.328125 51.515625 26.703125 
Q 51.515625 13.375 44.921875 6.09375 
Q 38.328125 -1.171875 29.109375 -1.171875 
Q 19.921875 -1.171875 14.703125 6.5 
z
M 14.59375 26.3125 
Q 14.59375 17 17.140625 12.84375 
Q 21.296875 6.0625 28.375 6.0625 
Q 34.125 6.0625 38.328125 11.0625 
Q 42.53125 16.0625 42.53125 25.984375 
Q 42.53125 36.140625 38.5 40.96875 
Q 34.46875 45.796875 28.765625 45.796875 
Q 23 45.796875 18.796875 40.796875 
Q 14.59375 35.796875 14.59375 26.3125 
z
" id="ArialMT-98"/>
     <path d="M 6.390625 0 
L 6.390625 71.578125 
L 15.1875 71.578125 
L 15.1875 0 
z
" id="ArialMT-108"/>
     <path d="M 8.6875 0 
L 8.6875 45.015625 
L 0.921875 45.015625 
L 0.921875 51.859375 
L 8.6875 51.859375 
L 8.6875 57.375 
Q 8.6875 62.59375 9.625 65.140625 
Q 10.890625 68.5625 14.078125 70.671875 
Q 17.28125 72.796875 23.046875 72.796875 
Q 26.765625 72.796875 31.25 71.921875 
L 29.9375 64.265625 
Q 27.203125 64.75 24.75 64.75 
Q 20.75 64.75 19.09375 63.03125 
Q 17.4375 61.328125 17.4375 56.640625 
L 17.4375 51.859375 
L 27.546875 51.859375 
L 27.546875 45.015625 
L 17.4375 45.015625 
L 17.4375 0 
z
" id="ArialMT-102"/>
    </defs>
    <g style="fill:#f47915;opacity:0.3;" transform="translate(349.675672 179.070151)scale(0.14 -0.14)">
     <use xlink:href="#ArialMT-82"/>
     <use x="72.216797" xlink:href="#ArialMT-101"/>
     <use x="127.832031" xlink:href="#ArialMT-112"/>
     <use x="183.447266" xlink:href="#ArialMT-117"/>
     <use x="239.0625" xlink:href="#ArialMT-98"/>
     <use x="294.677734" xlink:href="#ArialMT-108"/>
     <use x="316.894531" xlink:href="#ArialMT-105"/>
     <use x="339.111328" xlink:href="#ArialMT-99"/>
     <use x="389.111328" xlink:href="#ArialMT-32"/>
     <use x="416.894531" xlink:href="#ArialMT-111"/>
     <use x="472.509766" xlink:href="#ArialMT-102"/>
     <use x="500.292969" xlink:href="#ArialMT-32"/>
     <use x="528.076172" xlink:href="#ArialMT-75"/>
     <use x="594.775391" xlink:href="#ArialMT-111"/>
     <use x="650.390625" xlink:href="#ArialMT-114"/>
     <use x="683.691406" xlink:href="#ArialMT-101"/>
     <use x="739.306641" xlink:href="#ArialMT-97"/>
    </g>
   </g>
   <g id="text_19">
    <!-- Argentina -->
    <defs>
     <path d="M -0.140625 0 
L 27.34375 71.578125 
L 37.546875 71.578125 
L 66.84375 0 
L 56.0625 0 
L 47.703125 21.6875 
L 17.78125 21.6875 
L 9.90625 0 
z
M 20.515625 29.390625 
L 44.78125 29.390625 
L 37.3125 49.21875 
Q 33.890625 58.25 32.234375 64.0625 
Q 30.859375 57.171875 28.375 50.390625 
z
" id="ArialMT-65"/>
    </defs>
    <g style="fill:#06ab54;" transform="translate(425.062886 105.455185)scale(0.14 -0.14)">
     <use xlink:href="#ArialMT-65"/>
     <use x="66.699219" xlink:href="#ArialMT-114"/>
     <use x="100" xlink:href="#ArialMT-103"/>
     <use x="155.615234" xlink:href="#ArialMT-101"/>
     <use x="211.230469" xlink:href="#ArialMT-110"/>
     <use x="266.845703" xlink:href="#ArialMT-116"/>
     <use x="294.628906" xlink:href="#ArialMT-105"/>
     <use x="316.845703" xlink:href="#ArialMT-110"/>
     <use x="372.460938" xlink:href="#ArialMT-97"/>
    </g>
   </g>
  </g>
 </g>
 <defs>
  <clipPath id="p22df2d972e">
   <rect height="326.16" width="446.4" x="56.7425" y="7.2"/>
  </clipPath>
 </defs>
</svg>
