<?xml version="1.0" encoding="utf-8" standalone="no"?>
<!DOCTYPE svg PUBLIC "-//W3C//DTD SVG 1.1//EN"
  "http://www.w3.org/Graphics/SVG/1.1/DTD/svg11.dtd">
<!-- Created with matplotlib (https://matplotlib.org/) -->
<svg height="323.505676pt" version="1.1" viewBox="0 0 557.556929 323.505676" width="557.556929pt" xmlns="http://www.w3.org/2000/svg" xmlns:xlink="http://www.w3.org/1999/xlink">
 <defs>
  <style type="text/css">
*{stroke-linecap:butt;stroke-linejoin:round;}
  </style>
 </defs>
 <g id="figure_1">
  <g id="patch_1">
   <path d="M 0 323.505676 
L 557.556929 323.505676 
L 557.556929 0 
L 0 0 
z
" style="fill:#ffffff;"/>
  </g>
  <g id="axes_1">
   <g id="patch_2">
    <path d="M 75.49675 240.514176 
L 451.33675 240.514176 
L 451.33675 7.234176 
L 75.49675 7.234176 
z
" style="fill:#ffffff;"/>
   </g>
   <g id="matplotlib.axis_1">
    <g id="xtick_1">
     <g id="line2d_1">
      <path clip-path="url(#pdb94f53640)" d="M 139.256988 240.514176 
L 139.256988 7.234176 
" style="fill:none;stroke:#000000;stroke-dasharray:6.4,1.6,1,1.6;stroke-dashoffset:0;stroke-opacity:0.2;"/>
     </g>
     <g id="line2d_2"/>
     <g id="text_1">
      <!-- 1700 -->
      <defs>
       <path d="M 12.40625 8.296875 
L 28.515625 8.296875 
L 28.515625 63.921875 
L 10.984375 60.40625 
L 10.984375 69.390625 
L 28.421875 72.90625 
L 38.28125 72.90625 
L 38.28125 8.296875 
L 54.390625 8.296875 
L 54.390625 0 
L 12.40625 0 
z
" id="DejaVuSans-49"/>
       <path d="M 8.203125 72.90625 
L 55.078125 72.90625 
L 55.078125 68.703125 
L 28.609375 0 
L 18.3125 0 
L 43.21875 64.59375 
L 8.203125 64.59375 
z
" id="DejaVuSans-55"/>
       <path d="M 31.78125 66.40625 
Q 24.171875 66.40625 20.328125 58.90625 
Q 16.5 51.421875 16.5 36.375 
Q 16.5 21.390625 20.328125 13.890625 
Q 24.171875 6.390625 31.78125 6.390625 
Q 39.453125 6.390625 43.28125 13.890625 
Q 47.125 21.390625 47.125 36.375 
Q 47.125 51.421875 43.28125 58.90625 
Q 39.453125 66.40625 31.78125 66.40625 
z
M 31.78125 74.21875 
Q 44.046875 74.21875 50.515625 64.515625 
Q 56.984375 54.828125 56.984375 36.375 
Q 56.984375 17.96875 50.515625 8.265625 
Q 44.046875 -1.421875 31.78125 -1.421875 
Q 19.53125 -1.421875 13.0625 8.265625 
Q 6.59375 17.96875 6.59375 36.375 
Q 6.59375 54.828125 13.0625 64.515625 
Q 19.53125 74.21875 31.78125 74.21875 
z
" id="DejaVuSans-48"/>
      </defs>
      <g transform="translate(121.441988 254.651989)scale(0.14 -0.14)">
       <use xlink:href="#DejaVuSans-49"/>
       <use x="63.623047" xlink:href="#DejaVuSans-55"/>
       <use x="127.246094" xlink:href="#DejaVuSans-48"/>
       <use x="190.869141" xlink:href="#DejaVuSans-48"/>
      </g>
     </g>
    </g>
    <g id="xtick_2">
     <g id="line2d_3">
      <path clip-path="url(#pdb94f53640)" d="M 232.610193 240.514176 
L 232.610193 7.234176 
" style="fill:none;stroke:#000000;stroke-dasharray:6.4,1.6,1,1.6;stroke-dashoffset:0;stroke-opacity:0.2;"/>
     </g>
     <g id="line2d_4"/>
     <g id="text_2">
      <!-- 1800 -->
      <defs>
       <path d="M 31.78125 34.625 
Q 24.75 34.625 20.71875 30.859375 
Q 16.703125 27.09375 16.703125 20.515625 
Q 16.703125 13.921875 20.71875 10.15625 
Q 24.75 6.390625 31.78125 6.390625 
Q 38.8125 6.390625 42.859375 10.171875 
Q 46.921875 13.96875 46.921875 20.515625 
Q 46.921875 27.09375 42.890625 30.859375 
Q 38.875 34.625 31.78125 34.625 
z
M 21.921875 38.8125 
Q 15.578125 40.375 12.03125 44.71875 
Q 8.5 49.078125 8.5 55.328125 
Q 8.5 64.0625 14.71875 69.140625 
Q 20.953125 74.21875 31.78125 74.21875 
Q 42.671875 74.21875 48.875 69.140625 
Q 55.078125 64.0625 55.078125 55.328125 
Q 55.078125 49.078125 51.53125 44.71875 
Q 48 40.375 41.703125 38.8125 
Q 48.828125 37.15625 52.796875 32.3125 
Q 56.78125 27.484375 56.78125 20.515625 
Q 56.78125 9.90625 50.3125 4.234375 
Q 43.84375 -1.421875 31.78125 -1.421875 
Q 19.734375 -1.421875 13.25 4.234375 
Q 6.78125 9.90625 6.78125 20.515625 
Q 6.78125 27.484375 10.78125 32.3125 
Q 14.796875 37.15625 21.921875 38.8125 
z
M 18.3125 54.390625 
Q 18.3125 48.734375 21.84375 45.5625 
Q 25.390625 42.390625 31.78125 42.390625 
Q 38.140625 42.390625 41.71875 45.5625 
Q 45.3125 48.734375 45.3125 54.390625 
Q 45.3125 60.0625 41.71875 63.234375 
Q 38.140625 66.40625 31.78125 66.40625 
Q 25.390625 66.40625 21.84375 63.234375 
Q 18.3125 60.0625 18.3125 54.390625 
z
" id="DejaVuSans-56"/>
      </defs>
      <g transform="translate(214.795193 254.651989)scale(0.14 -0.14)">
       <use xlink:href="#DejaVuSans-49"/>
       <use x="63.623047" xlink:href="#DejaVuSans-56"/>
       <use x="127.246094" xlink:href="#DejaVuSans-48"/>
       <use x="190.869141" xlink:href="#DejaVuSans-48"/>
      </g>
     </g>
    </g>
    <g id="xtick_3">
     <g id="line2d_5">
      <path clip-path="url(#pdb94f53640)" d="M 325.963397 240.514176 
L 325.963397 7.234176 
" style="fill:none;stroke:#000000;stroke-dasharray:6.4,1.6,1,1.6;stroke-dashoffset:0;stroke-opacity:0.2;"/>
     </g>
     <g id="line2d_6"/>
     <g id="text_3">
      <!-- 1900 -->
      <defs>
       <path d="M 10.984375 1.515625 
L 10.984375 10.5 
Q 14.703125 8.734375 18.5 7.8125 
Q 22.3125 6.890625 25.984375 6.890625 
Q 35.75 6.890625 40.890625 13.453125 
Q 46.046875 20.015625 46.78125 33.40625 
Q 43.953125 29.203125 39.59375 26.953125 
Q 35.25 24.703125 29.984375 24.703125 
Q 19.046875 24.703125 12.671875 31.3125 
Q 6.296875 37.9375 6.296875 49.421875 
Q 6.296875 60.640625 12.9375 67.421875 
Q 19.578125 74.21875 30.609375 74.21875 
Q 43.265625 74.21875 49.921875 64.515625 
Q 56.59375 54.828125 56.59375 36.375 
Q 56.59375 19.140625 48.40625 8.859375 
Q 40.234375 -1.421875 26.421875 -1.421875 
Q 22.703125 -1.421875 18.890625 -0.6875 
Q 15.09375 0.046875 10.984375 1.515625 
z
M 30.609375 32.421875 
Q 37.25 32.421875 41.125 36.953125 
Q 45.015625 41.5 45.015625 49.421875 
Q 45.015625 57.28125 41.125 61.84375 
Q 37.25 66.40625 30.609375 66.40625 
Q 23.96875 66.40625 20.09375 61.84375 
Q 16.21875 57.28125 16.21875 49.421875 
Q 16.21875 41.5 20.09375 36.953125 
Q 23.96875 32.421875 30.609375 32.421875 
z
" id="DejaVuSans-57"/>
      </defs>
      <g transform="translate(308.148397 254.651989)scale(0.14 -0.14)">
       <use xlink:href="#DejaVuSans-49"/>
       <use x="63.623047" xlink:href="#DejaVuSans-57"/>
       <use x="127.246094" xlink:href="#DejaVuSans-48"/>
       <use x="190.869141" xlink:href="#DejaVuSans-48"/>
      </g>
     </g>
    </g>
    <g id="xtick_4">
     <g id="line2d_7">
      <path clip-path="url(#pdb94f53640)" d="M 419.316601 240.514176 
L 419.316601 7.234176 
" style="fill:none;stroke:#000000;stroke-dasharray:6.4,1.6,1,1.6;stroke-dashoffset:0;stroke-opacity:0.2;"/>
     </g>
     <g id="line2d_8"/>
     <g id="text_4">
      <!-- 2000 -->
      <defs>
       <path d="M 19.1875 8.296875 
L 53.609375 8.296875 
L 53.609375 0 
L 7.328125 0 
L 7.328125 8.296875 
Q 12.9375 14.109375 22.625 23.890625 
Q 32.328125 33.6875 34.8125 36.53125 
Q 39.546875 41.84375 41.421875 45.53125 
Q 43.3125 49.21875 43.3125 52.78125 
Q 43.3125 58.59375 39.234375 62.25 
Q 35.15625 65.921875 28.609375 65.921875 
Q 23.96875 65.921875 18.8125 64.3125 
Q 13.671875 62.703125 7.8125 59.421875 
L 7.8125 69.390625 
Q 13.765625 71.78125 18.9375 73 
Q 24.125 74.21875 28.421875 74.21875 
Q 39.75 74.21875 46.484375 68.546875 
Q 53.21875 62.890625 53.21875 53.421875 
Q 53.21875 48.921875 51.53125 44.890625 
Q 49.859375 40.875 45.40625 35.40625 
Q 44.1875 33.984375 37.640625 27.21875 
Q 31.109375 20.453125 19.1875 8.296875 
z
" id="DejaVuSans-50"/>
      </defs>
      <g transform="translate(401.501601 254.651989)scale(0.14 -0.14)">
       <use xlink:href="#DejaVuSans-50"/>
       <use x="63.623047" xlink:href="#DejaVuSans-48"/>
       <use x="127.246094" xlink:href="#DejaVuSans-48"/>
       <use x="190.869141" xlink:href="#DejaVuSans-48"/>
      </g>
     </g>
    </g>
    <g id="text_5">
     <!-- Year -->
     <defs>
      <path d="M -0.203125 72.90625 
L 10.40625 72.90625 
L 30.609375 42.921875 
L 50.6875 72.90625 
L 61.28125 72.90625 
L 35.5 34.71875 
L 35.5 0 
L 25.59375 0 
L 25.59375 34.71875 
z
" id="DejaVuSans-89"/>
      <path d="M 56.203125 29.59375 
L 56.203125 25.203125 
L 14.890625 25.203125 
Q 15.484375 15.921875 20.484375 11.0625 
Q 25.484375 6.203125 34.421875 6.203125 
Q 39.59375 6.203125 44.453125 7.46875 
Q 49.3125 8.734375 54.109375 11.28125 
L 54.109375 2.78125 
Q 49.265625 0.734375 44.1875 -0.34375 
Q 39.109375 -1.421875 33.890625 -1.421875 
Q 20.796875 -1.421875 13.15625 6.1875 
Q 5.515625 13.8125 5.515625 26.8125 
Q 5.515625 40.234375 12.765625 48.109375 
Q 20.015625 56 32.328125 56 
Q 43.359375 56 49.78125 48.890625 
Q 56.203125 41.796875 56.203125 29.59375 
z
M 47.21875 32.234375 
Q 47.125 39.59375 43.09375 43.984375 
Q 39.0625 48.390625 32.421875 48.390625 
Q 24.90625 48.390625 20.390625 44.140625 
Q 15.875 39.890625 15.1875 32.171875 
z
" id="DejaVuSans-101"/>
      <path d="M 34.28125 27.484375 
Q 23.390625 27.484375 19.1875 25 
Q 14.984375 22.515625 14.984375 16.5 
Q 14.984375 11.71875 18.140625 8.90625 
Q 21.296875 6.109375 26.703125 6.109375 
Q 34.1875 6.109375 38.703125 11.40625 
Q 43.21875 16.703125 43.21875 25.484375 
L 43.21875 27.484375 
z
M 52.203125 31.203125 
L 52.203125 0 
L 43.21875 0 
L 43.21875 8.296875 
Q 40.140625 3.328125 35.546875 0.953125 
Q 30.953125 -1.421875 24.3125 -1.421875 
Q 15.921875 -1.421875 10.953125 3.296875 
Q 6 8.015625 6 15.921875 
Q 6 25.140625 12.171875 29.828125 
Q 18.359375 34.515625 30.609375 34.515625 
L 43.21875 34.515625 
L 43.21875 35.40625 
Q 43.21875 41.609375 39.140625 45 
Q 35.0625 48.390625 27.6875 48.390625 
Q 23 48.390625 18.546875 47.265625 
Q 14.109375 46.140625 10.015625 43.890625 
L 10.015625 52.203125 
Q 14.9375 54.109375 19.578125 55.046875 
Q 24.21875 56 28.609375 56 
Q 40.484375 56 46.34375 49.84375 
Q 52.203125 43.703125 52.203125 31.203125 
z
" id="DejaVuSans-97"/>
      <path d="M 41.109375 46.296875 
Q 39.59375 47.171875 37.8125 47.578125 
Q 36.03125 48 33.890625 48 
Q 26.265625 48 22.1875 43.046875 
Q 18.109375 38.09375 18.109375 28.8125 
L 18.109375 0 
L 9.078125 0 
L 9.078125 54.6875 
L 18.109375 54.6875 
L 18.109375 46.1875 
Q 20.953125 51.171875 25.484375 53.578125 
Q 30.03125 56 36.53125 56 
Q 37.453125 56 38.578125 55.875 
Q 39.703125 55.765625 41.0625 55.515625 
z
" id="DejaVuSans-114"/>
     </defs>
     <g transform="translate(245.62975 274.328926)scale(0.168 -0.168)">
      <use xlink:href="#DejaVuSans-89"/>
      <use x="47.833984" xlink:href="#DejaVuSans-101"/>
      <use x="109.357422" xlink:href="#DejaVuSans-97"/>
      <use x="170.636719" xlink:href="#DejaVuSans-114"/>
     </g>
    </g>
   </g>
   <g id="matplotlib.axis_2">
    <g id="ytick_1">
     <g id="line2d_9">
      <path clip-path="url(#pdb94f53640)" d="M 75.49675 232.43642 
L 451.33675 232.43642 
" style="fill:none;stroke:#000000;stroke-dasharray:6.4,1.6,1,1.6;stroke-dashoffset:0;stroke-opacity:0.2;"/>
     </g>
     <g id="line2d_10"/>
     <g id="text_6">
      <!-- 0 -->
      <g transform="translate(63.08925 237.755326)scale(0.14 -0.14)">
       <use xlink:href="#DejaVuSans-48"/>
      </g>
     </g>
    </g>
    <g id="ytick_2">
     <g id="line2d_11">
      <path clip-path="url(#pdb94f53640)" d="M 75.49675 191.957573 
L 451.33675 191.957573 
" style="fill:none;stroke:#000000;stroke-dasharray:6.4,1.6,1,1.6;stroke-dashoffset:0;stroke-opacity:0.2;"/>
     </g>
     <g id="line2d_12"/>
     <g id="text_7">
      <!-- 10000 -->
      <g transform="translate(27.45925 197.276479)scale(0.14 -0.14)">
       <use xlink:href="#DejaVuSans-49"/>
       <use x="63.623047" xlink:href="#DejaVuSans-48"/>
       <use x="127.246094" xlink:href="#DejaVuSans-48"/>
       <use x="190.869141" xlink:href="#DejaVuSans-48"/>
       <use x="254.492188" xlink:href="#DejaVuSans-48"/>
      </g>
     </g>
    </g>
    <g id="ytick_3">
     <g id="line2d_13">
      <path clip-path="url(#pdb94f53640)" d="M 75.49675 151.478726 
L 451.33675 151.478726 
" style="fill:none;stroke:#000000;stroke-dasharray:6.4,1.6,1,1.6;stroke-dashoffset:0;stroke-opacity:0.2;"/>
     </g>
     <g id="line2d_14"/>
     <g id="text_8">
      <!-- 20000 -->
      <g transform="translate(27.45925 156.797632)scale(0.14 -0.14)">
       <use xlink:href="#DejaVuSans-50"/>
       <use x="63.623047" xlink:href="#DejaVuSans-48"/>
       <use x="127.246094" xlink:href="#DejaVuSans-48"/>
       <use x="190.869141" xlink:href="#DejaVuSans-48"/>
       <use x="254.492188" xlink:href="#DejaVuSans-48"/>
      </g>
     </g>
    </g>
    <g id="ytick_4">
     <g id="line2d_15">
      <path clip-path="url(#pdb94f53640)" d="M 75.49675 110.999879 
L 451.33675 110.999879 
" style="fill:none;stroke:#000000;stroke-dasharray:6.4,1.6,1,1.6;stroke-dashoffset:0;stroke-opacity:0.2;"/>
     </g>
     <g id="line2d_16"/>
     <g id="text_9">
      <!-- 30000 -->
      <defs>
       <path d="M 40.578125 39.3125 
Q 47.65625 37.796875 51.625 33 
Q 55.609375 28.21875 55.609375 21.1875 
Q 55.609375 10.40625 48.1875 4.484375 
Q 40.765625 -1.421875 27.09375 -1.421875 
Q 22.515625 -1.421875 17.65625 -0.515625 
Q 12.796875 0.390625 7.625 2.203125 
L 7.625 11.71875 
Q 11.71875 9.328125 16.59375 8.109375 
Q 21.484375 6.890625 26.8125 6.890625 
Q 36.078125 6.890625 40.9375 10.546875 
Q 45.796875 14.203125 45.796875 21.1875 
Q 45.796875 27.640625 41.28125 31.265625 
Q 36.765625 34.90625 28.71875 34.90625 
L 20.21875 34.90625 
L 20.21875 43.015625 
L 29.109375 43.015625 
Q 36.375 43.015625 40.234375 45.921875 
Q 44.09375 48.828125 44.09375 54.296875 
Q 44.09375 59.90625 40.109375 62.90625 
Q 36.140625 65.921875 28.71875 65.921875 
Q 24.65625 65.921875 20.015625 65.03125 
Q 15.375 64.15625 9.8125 62.3125 
L 9.8125 71.09375 
Q 15.4375 72.65625 20.34375 73.4375 
Q 25.25 74.21875 29.59375 74.21875 
Q 40.828125 74.21875 47.359375 69.109375 
Q 53.90625 64.015625 53.90625 55.328125 
Q 53.90625 49.265625 50.4375 45.09375 
Q 46.96875 40.921875 40.578125 39.3125 
z
" id="DejaVuSans-51"/>
      </defs>
      <g transform="translate(27.45925 116.318785)scale(0.14 -0.14)">
       <use xlink:href="#DejaVuSans-51"/>
       <use x="63.623047" xlink:href="#DejaVuSans-48"/>
       <use x="127.246094" xlink:href="#DejaVuSans-48"/>
       <use x="190.869141" xlink:href="#DejaVuSans-48"/>
       <use x="254.492188" xlink:href="#DejaVuSans-48"/>
      </g>
     </g>
    </g>
    <g id="ytick_5">
     <g id="line2d_17">
      <path clip-path="url(#pdb94f53640)" d="M 75.49675 70.521032 
L 451.33675 70.521032 
" style="fill:none;stroke:#000000;stroke-dasharray:6.4,1.6,1,1.6;stroke-dashoffset:0;stroke-opacity:0.2;"/>
     </g>
     <g id="line2d_18"/>
     <g id="text_10">
      <!-- 40000 -->
      <defs>
       <path d="M 37.796875 64.3125 
L 12.890625 25.390625 
L 37.796875 25.390625 
z
M 35.203125 72.90625 
L 47.609375 72.90625 
L 47.609375 25.390625 
L 58.015625 25.390625 
L 58.015625 17.1875 
L 47.609375 17.1875 
L 47.609375 0 
L 37.796875 0 
L 37.796875 17.1875 
L 4.890625 17.1875 
L 4.890625 26.703125 
z
" id="DejaVuSans-52"/>
      </defs>
      <g transform="translate(27.45925 75.839938)scale(0.14 -0.14)">
       <use xlink:href="#DejaVuSans-52"/>
       <use x="63.623047" xlink:href="#DejaVuSans-48"/>
       <use x="127.246094" xlink:href="#DejaVuSans-48"/>
       <use x="190.869141" xlink:href="#DejaVuSans-48"/>
       <use x="254.492188" xlink:href="#DejaVuSans-48"/>
      </g>
     </g>
    </g>
    <g id="ytick_6">
     <g id="line2d_19">
      <path clip-path="url(#pdb94f53640)" d="M 75.49675 30.042185 
L 451.33675 30.042185 
" style="fill:none;stroke:#000000;stroke-dasharray:6.4,1.6,1,1.6;stroke-dashoffset:0;stroke-opacity:0.2;"/>
     </g>
     <g id="line2d_20"/>
     <g id="text_11">
      <!-- 50000 -->
      <defs>
       <path d="M 10.796875 72.90625 
L 49.515625 72.90625 
L 49.515625 64.59375 
L 19.828125 64.59375 
L 19.828125 46.734375 
Q 21.96875 47.46875 24.109375 47.828125 
Q 26.265625 48.1875 28.421875 48.1875 
Q 40.625 48.1875 47.75 41.5 
Q 54.890625 34.8125 54.890625 23.390625 
Q 54.890625 11.625 47.5625 5.09375 
Q 40.234375 -1.421875 26.90625 -1.421875 
Q 22.3125 -1.421875 17.546875 -0.640625 
Q 12.796875 0.140625 7.71875 1.703125 
L 7.71875 11.625 
Q 12.109375 9.234375 16.796875 8.0625 
Q 21.484375 6.890625 26.703125 6.890625 
Q 35.15625 6.890625 40.078125 11.328125 
Q 45.015625 15.765625 45.015625 23.390625 
Q 45.015625 31 40.078125 35.4375 
Q 35.15625 39.890625 26.703125 39.890625 
Q 22.75 39.890625 18.8125 39.015625 
Q 14.890625 38.140625 10.796875 36.28125 
z
" id="DejaVuSans-53"/>
      </defs>
      <g transform="translate(27.45925 35.361091)scale(0.14 -0.14)">
       <use xlink:href="#DejaVuSans-53"/>
       <use x="63.623047" xlink:href="#DejaVuSans-48"/>
       <use x="127.246094" xlink:href="#DejaVuSans-48"/>
       <use x="190.869141" xlink:href="#DejaVuSans-48"/>
       <use x="254.492188" xlink:href="#DejaVuSans-48"/>
      </g>
     </g>
    </g>
    <g id="text_12">
     <!-- GDP per capita -->
     <defs>
      <path d="M 59.515625 10.40625 
L 59.515625 29.984375 
L 43.40625 29.984375 
L 43.40625 38.09375 
L 69.28125 38.09375 
L 69.28125 6.78125 
Q 63.578125 2.734375 56.6875 0.65625 
Q 49.8125 -1.421875 42 -1.421875 
Q 24.90625 -1.421875 15.25 8.5625 
Q 5.609375 18.5625 5.609375 36.375 
Q 5.609375 54.25 15.25 64.234375 
Q 24.90625 74.21875 42 74.21875 
Q 49.125 74.21875 55.546875 72.453125 
Q 61.96875 70.703125 67.390625 67.28125 
L 67.390625 56.78125 
Q 61.921875 61.421875 55.765625 63.765625 
Q 49.609375 66.109375 42.828125 66.109375 
Q 29.4375 66.109375 22.71875 58.640625 
Q 16.015625 51.171875 16.015625 36.375 
Q 16.015625 21.625 22.71875 14.15625 
Q 29.4375 6.6875 42.828125 6.6875 
Q 48.046875 6.6875 52.140625 7.59375 
Q 56.25 8.5 59.515625 10.40625 
z
" id="DejaVuSans-71"/>
      <path d="M 19.671875 64.796875 
L 19.671875 8.109375 
L 31.59375 8.109375 
Q 46.6875 8.109375 53.6875 14.9375 
Q 60.6875 21.78125 60.6875 36.53125 
Q 60.6875 51.171875 53.6875 57.984375 
Q 46.6875 64.796875 31.59375 64.796875 
z
M 9.8125 72.90625 
L 30.078125 72.90625 
Q 51.265625 72.90625 61.171875 64.09375 
Q 71.09375 55.28125 71.09375 36.53125 
Q 71.09375 17.671875 61.125 8.828125 
Q 51.171875 0 30.078125 0 
L 9.8125 0 
z
" id="DejaVuSans-68"/>
      <path d="M 19.671875 64.796875 
L 19.671875 37.40625 
L 32.078125 37.40625 
Q 38.96875 37.40625 42.71875 40.96875 
Q 46.484375 44.53125 46.484375 51.125 
Q 46.484375 57.671875 42.71875 61.234375 
Q 38.96875 64.796875 32.078125 64.796875 
z
M 9.8125 72.90625 
L 32.078125 72.90625 
Q 44.34375 72.90625 50.609375 67.359375 
Q 56.890625 61.8125 56.890625 51.125 
Q 56.890625 40.328125 50.609375 34.8125 
Q 44.34375 29.296875 32.078125 29.296875 
L 19.671875 29.296875 
L 19.671875 0 
L 9.8125 0 
z
" id="DejaVuSans-80"/>
      <path id="DejaVuSans-32"/>
      <path d="M 18.109375 8.203125 
L 18.109375 -20.796875 
L 9.078125 -20.796875 
L 9.078125 54.6875 
L 18.109375 54.6875 
L 18.109375 46.390625 
Q 20.953125 51.265625 25.265625 53.625 
Q 29.59375 56 35.59375 56 
Q 45.5625 56 51.78125 48.09375 
Q 58.015625 40.1875 58.015625 27.296875 
Q 58.015625 14.40625 51.78125 6.484375 
Q 45.5625 -1.421875 35.59375 -1.421875 
Q 29.59375 -1.421875 25.265625 0.953125 
Q 20.953125 3.328125 18.109375 8.203125 
z
M 48.6875 27.296875 
Q 48.6875 37.203125 44.609375 42.84375 
Q 40.53125 48.484375 33.40625 48.484375 
Q 26.265625 48.484375 22.1875 42.84375 
Q 18.109375 37.203125 18.109375 27.296875 
Q 18.109375 17.390625 22.1875 11.75 
Q 26.265625 6.109375 33.40625 6.109375 
Q 40.53125 6.109375 44.609375 11.75 
Q 48.6875 17.390625 48.6875 27.296875 
z
" id="DejaVuSans-112"/>
      <path d="M 48.78125 52.59375 
L 48.78125 44.1875 
Q 44.96875 46.296875 41.140625 47.34375 
Q 37.3125 48.390625 33.40625 48.390625 
Q 24.65625 48.390625 19.8125 42.84375 
Q 14.984375 37.3125 14.984375 27.296875 
Q 14.984375 17.28125 19.8125 11.734375 
Q 24.65625 6.203125 33.40625 6.203125 
Q 37.3125 6.203125 41.140625 7.25 
Q 44.96875 8.296875 48.78125 10.40625 
L 48.78125 2.09375 
Q 45.015625 0.34375 40.984375 -0.53125 
Q 36.96875 -1.421875 32.421875 -1.421875 
Q 20.0625 -1.421875 12.78125 6.34375 
Q 5.515625 14.109375 5.515625 27.296875 
Q 5.515625 40.671875 12.859375 48.328125 
Q 20.21875 56 33.015625 56 
Q 37.15625 56 41.109375 55.140625 
Q 45.0625 54.296875 48.78125 52.59375 
z
" id="DejaVuSans-99"/>
      <path d="M 9.421875 54.6875 
L 18.40625 54.6875 
L 18.40625 0 
L 9.421875 0 
z
M 9.421875 75.984375 
L 18.40625 75.984375 
L 18.40625 64.59375 
L 9.421875 64.59375 
z
" id="DejaVuSans-105"/>
      <path d="M 18.3125 70.21875 
L 18.3125 54.6875 
L 36.8125 54.6875 
L 36.8125 47.703125 
L 18.3125 47.703125 
L 18.3125 18.015625 
Q 18.3125 11.328125 20.140625 9.421875 
Q 21.96875 7.515625 27.59375 7.515625 
L 36.8125 7.515625 
L 36.8125 0 
L 27.59375 0 
Q 17.1875 0 13.234375 3.875 
Q 9.28125 7.765625 9.28125 18.015625 
L 9.28125 47.703125 
L 2.6875 47.703125 
L 2.6875 54.6875 
L 9.28125 54.6875 
L 9.28125 70.21875 
z
" id="DejaVuSans-116"/>
     </defs>
     <g transform="translate(19.965375 187.082864)rotate(-90)scale(0.168 -0.168)">
      <use xlink:href="#DejaVuSans-71"/>
      <use x="77.490234" xlink:href="#DejaVuSans-68"/>
      <use x="154.492188" xlink:href="#DejaVuSans-80"/>
      <use x="214.794922" xlink:href="#DejaVuSans-32"/>
      <use x="246.582031" xlink:href="#DejaVuSans-112"/>
      <use x="310.058594" xlink:href="#DejaVuSans-101"/>
      <use x="371.582031" xlink:href="#DejaVuSans-114"/>
      <use x="412.695312" xlink:href="#DejaVuSans-32"/>
      <use x="444.482422" xlink:href="#DejaVuSans-99"/>
      <use x="499.462891" xlink:href="#DejaVuSans-97"/>
      <use x="560.742188" xlink:href="#DejaVuSans-112"/>
      <use x="624.21875" xlink:href="#DejaVuSans-105"/>
      <use x="652.001953" xlink:href="#DejaVuSans-116"/>
      <use x="691.210938" xlink:href="#DejaVuSans-97"/>
     </g>
    </g>
   </g>
   <g id="line2d_21">
    <path clip-path="url(#pdb94f53640)" d="M 102.849239 228.631408 
L 200.870103 229.659571 
L 243.812577 229.91054 
L 251.280833 229.436937 
L 255.948494 229.538134 
L 279.286795 229.83363 
L 297.957436 229.396458 
L 313.82748 229.360027 
L 316.628076 229.157633 
L 325.963397 229.036197 
L 336.232249 229.181921 
L 337.165781 229.028101 
L 338.099313 228.870233 
L 353.035826 228.590929 
L 353.969358 228.542355 
L 354.90289 228.518067 
L 355.836422 228.412822 
L 356.769954 228.849994 
L 357.703486 228.785228 
L 358.637018 228.497828 
L 359.57055 228.275194 
L 360.504082 228.400679 
L 361.437614 228.530211 
L 372.639999 229.372171 
L 373.573531 228.797371 
L 374.507063 228.433062 
L 375.440595 227.991842 
L 376.374127 228.433062 
L 377.307659 228.137566 
L 378.241191 227.979699 
L 379.174723 227.971603 
L 380.108255 228.09304 
L 381.041787 228.43711 
L 381.975319 228.700222 
L 382.908851 229.20216 
L 383.842383 228.930952 
L 384.775915 228.590929 
L 385.709447 228.186141 
L 386.64298 227.846119 
L 387.576512 227.793496 
L 388.510044 227.777305 
L 389.443576 228.012082 
L 390.377108 227.692299 
L 391.31064 227.210601 
L 392.244172 226.951536 
L 393.177704 227.145835 
L 394.111236 226.882722 
L 395.044768 226.858435 
L 395.9783 226.668184 
L 396.911832 226.834147 
L 397.845364 226.716759 
L 398.778896 226.028618 
L 399.712428 225.765506 
L 400.64596 225.595495 
L 401.579492 225.656213 
L 402.513024 225.044982 
L 403.446556 224.717104 
L 404.380088 223.854904 
L 405.31362 223.085806 
L 406.247152 222.685066 
L 407.180684 222.276229 
L 408.114216 222.029308 
L 409.047749 222.280277 
L 409.981281 222.478623 
L 410.914813 222.114314 
L 411.848345 221.381647 
L 412.781877 220.304909 
L 413.715409 219.746301 
L 414.648941 219.070305 
L 415.582473 218.293111 
L 416.516005 218.106908 
L 417.449537 218.050238 
L 418.383069 217.196134 
L 419.316601 215.957481 
L 420.250133 214.625727 
L 421.183665 213.034908 
L 422.117197 211.703154 
L 423.050729 209.788505 
L 423.984261 206.780927 
L 424.917793 204.356244 
L 425.851325 202.150147 
L 426.784857 201.101744 
L 427.718389 198.458476 
L 428.651921 194.082712 
L 429.585453 191.06299 
L 430.518985 189.310256 
L 431.452518 187.553474 
L 432.38605 185.043786 
L 433.319582 183.853708 
L 434.253114 182.56648 
" style="fill:none;stroke:#f47915;stroke-width:2;"/>
   </g>
   <g id="line2d_22">
    <path clip-path="url(#pdb94f53640)" d="M 139.256988 225.996235 
L 140.19052 225.461914 
L 141.124053 225.688596 
L 142.057585 226.17839 
L 142.991117 225.020695 
L 143.924649 225.41334 
L 144.858181 226.510317 
L 145.791713 225.801937 
L 146.725245 225.397148 
L 147.658777 226.352449 
L 148.592309 226.919153 
L 149.525841 226.417215 
L 150.459373 226.40912 
L 151.392905 226.680328 
L 152.326437 226.125768 
L 153.259969 226.307922 
L 154.193501 226.117672 
L 156.060565 225.478106 
L 156.994097 225.648117 
L 157.927629 225.190706 
L 158.861161 225.465962 
L 159.794693 225.397148 
L 161.661757 225.684548 
L 162.595289 225.534776 
L 163.528822 225.801937 
L 164.462354 225.882894 
L 165.395886 225.615734 
L 166.329418 225.89099 
L 167.26295 225.660261 
L 168.196482 225.761458 
L 169.130014 225.348574 
L 170.063546 225.231185 
L 170.997078 225.328334 
L 171.93061 225.559064 
L 172.864142 225.105701 
L 173.797674 225.542872 
L 174.731206 225.445723 
L 176.59827 225.688596 
L 178.465334 225.275712 
L 180.332398 225.587399 
L 181.26593 225.555016 
L 182.199462 225.385005 
L 183.132994 225.093557 
L 185.000058 225.27976 
L 185.933591 225.223089 
L 186.867123 225.421436 
L 187.800655 225.121892 
L 188.734187 225.109749 
L 189.667719 225.364765 
L 190.601251 225.198802 
L 191.534783 225.376909 
L 192.468315 225.004504 
L 195.268911 224.652338 
L 196.202443 224.397321 
L 197.135975 224.64829 
L 199.003039 224.696864 
L 199.936571 224.818301 
L 202.737167 224.664481 
L 203.670699 224.275884 
L 204.604231 224.555188 
L 205.537763 224.458039 
L 206.471295 224.717104 
L 207.404827 224.640194 
L 208.33836 224.866875 
L 211.138956 224.377081 
L 213.00602 224.611859 
L 213.939552 224.296124 
L 214.873084 224.154448 
L 216.740148 224.356842 
L 219.540744 224.474231 
L 220.474276 224.696864 
L 221.407808 224.794014 
L 222.34134 224.725199 
L 223.274872 224.235405 
L 224.208404 224.300172 
L 225.141936 224.069442 
L 227.009 224.624002 
L 227.942532 223.871096 
L 228.876064 223.80633 
L 229.809596 223.980389 
L 230.743129 223.99658 
L 231.676661 223.875144 
L 232.610193 223.510834 
L 234.477257 223.462259 
L 235.410789 223.753707 
L 236.344321 223.883239 
L 237.277853 223.494643 
L 238.211385 223.660606 
L 239.144917 223.215338 
L 240.078449 223.757755 
L 241.011981 223.603935 
L 241.945513 223.150572 
L 242.879045 223.36511 
L 243.812577 223.871096 
L 244.746109 223.547265 
L 245.679641 223.879192 
L 246.613173 223.118189 
L 247.546705 223.757755 
L 248.480237 223.749659 
L 249.413769 223.887287 
L 250.347301 224.1504 
L 251.280833 223.607983 
L 253.147898 223.583696 
L 254.08143 223.466307 
L 255.014962 223.110093 
L 255.948494 223.033184 
L 256.882026 223.65251 
L 257.815558 223.093902 
L 259.682622 223.243674 
L 260.616154 222.956274 
L 261.549686 222.968418 
L 262.483218 222.790311 
L 263.41675 222.826742 
L 264.350282 222.717449 
L 265.283814 222.126457 
L 266.217346 221.924063 
L 267.150878 222.138601 
L 268.08441 221.855249 
L 269.017942 222.073835 
L 269.951474 221.705477 
L 271.818538 222.268133 
L 272.75207 221.89168 
L 273.685602 221.102343 
L 274.619135 220.721842 
L 275.552667 220.863517 
L 276.486199 221.130678 
L 277.419731 220.790656 
L 278.353263 220.62874 
L 279.286795 220.867565 
L 283.020923 219.325321 
L 283.954455 219.758445 
L 284.887987 219.050065 
L 285.821519 219.033874 
L 286.755051 219.410327 
L 287.688583 219.001491 
L 288.622115 218.855767 
L 289.555647 219.02173 
L 290.489179 219.713918 
L 291.422711 218.645277 
L 294.223307 217.880226 
L 295.156839 217.953088 
L 296.090371 217.386385 
L 297.023904 217.390432 
L 297.957436 216.868255 
L 299.8245 217.034219 
L 302.625096 216.346078 
L 305.425692 216.337982 
L 306.359224 216.524185 
L 307.292756 215.880571 
L 309.15982 214.981941 
L 311.026884 214.977893 
L 311.960416 215.156 
L 312.893948 214.973845 
L 314.761012 213.654235 
L 315.694544 212.739413 
L 317.561608 212.864897 
L 318.49514 213.443745 
L 319.428673 213.561133 
L 320.362205 212.423678 
L 321.295737 211.92174 
L 322.229269 211.209312 
L 323.162801 211.071684 
L 325.029865 209.420147 
L 325.963397 209.735882 
L 326.896929 209.881606 
L 327.830461 209.436339 
L 328.763993 209.808744 
L 329.697525 209.808744 
L 331.564589 208.638906 
L 332.498121 208.327219 
L 333.431653 209.448483 
L 334.365185 209.067981 
L 336.232249 207.873855 
L 337.165781 207.497402 
L 338.099313 206.558293 
L 339.032845 206.683777 
L 339.966377 204.939139 
L 340.899909 204.603165 
L 342.766974 204.55459 
L 343.700506 207.748371 
L 344.634038 209.541584 
L 345.56757 210.169006 
L 346.501102 208.088393 
L 347.434634 207.323343 
L 348.368166 206.347803 
L 349.301698 205.03224 
L 350.23523 206.015876 
L 351.168762 203.854306 
L 352.102294 203.494044 
L 353.035826 202.563031 
L 353.969358 202.882814 
L 354.90289 204.506015 
L 355.836422 204.433153 
L 356.769954 203.708582 
L 357.703486 201.891082 
L 358.637018 200.826488 
L 359.57055 199.519021 
L 360.504082 198.498955 
L 361.437614 198.207507 
L 362.371146 198.207507 
L 364.238211 191.488018 
L 365.171743 190.597484 
L 366.105275 189.994349 
L 368.905871 195.390179 
L 369.839403 196.139038 
L 370.772935 195.337557 
L 371.706467 194.155574 
L 372.639999 194.22034 
L 373.573531 193.580775 
L 374.507063 193.95318 
L 376.374127 190.338419 
L 377.307659 188.804271 
L 379.174723 187.395607 
L 380.108255 187.375367 
L 381.041787 185.784549 
L 381.975319 183.861803 
L 382.908851 182.303368 
L 383.842383 182.137405 
L 384.775915 180.425149 
L 385.709447 177.737354 
L 387.576512 175.365293 
L 388.510044 173.984965 
L 389.443576 173.296824 
L 390.377108 170.742609 
L 391.31064 168.823912 
L 392.244172 168.872486 
L 393.177704 167.455727 
L 394.111236 163.152825 
L 395.044768 164.334808 
L 395.9783 164.654591 
L 396.911832 162.011322 
L 397.845364 159.015887 
L 399.712428 150.956549 
L 400.64596 149.07833 
L 401.579492 151.579923 
L 402.513024 152.02519 
L 403.446556 151.053698 
L 404.380088 150.385797 
L 405.31362 148.596632 
L 406.247152 146.204332 
L 408.114216 139.03148 
L 409.047749 136.73633 
L 409.981281 135.279091 
L 410.914813 136.517744 
L 411.848345 136.048189 
L 412.781877 133.340155 
L 413.715409 129.810399 
L 415.582473 120.006422 
L 416.516005 111.64754 
L 418.383069 101.912378 
L 419.316601 93.229665 
L 420.250133 90.02374 
L 421.183665 89.206068 
L 422.117197 89.327504 
L 423.050729 85.417248 
L 423.984261 79.734017 
L 424.917793 77.600782 
L 425.851325 78.329401 
L 426.784857 80.005226 
L 427.718389 87.8055 
L 428.651921 90.290901 
L 429.585453 90.877844 
L 430.518985 87.586914 
L 431.452518 79.823071 
L 433.319582 75.584936 
L 434.253114 73.913159 
L 434.253114 73.913159 
" style="fill:none;stroke:#165aa7;stroke-width:2;"/>
   </g>
   <g id="line2d_23">
    <path clip-path="url(#pdb94f53640)" d="M 92.580386 227.465617 
L 139.256988 227.578958 
L 185.933591 227.971603 
L 233.543725 228.117327 
L 252.214365 228.518067 
L 280.220327 228.477589 
L 297.957436 228.882377 
L 312.893948 228.497828 
L 313.82748 228.307577 
L 314.761012 228.259003 
L 315.694544 228.364248 
L 316.628076 228.161854 
L 317.561608 228.546403 
L 318.49514 228.222572 
L 320.362205 228.024226 
L 321.295737 228.121375 
L 322.229269 228.429014 
L 323.162801 227.684203 
L 324.096333 227.663964 
L 325.029865 228.024226 
L 326.896929 227.773257 
L 327.830461 227.392755 
L 329.697525 227.315846 
L 330.631057 227.417043 
L 331.564589 227.283463 
L 332.498121 227.607293 
L 333.431653 227.546575 
L 334.365185 226.88677 
L 337.165781 226.902961 
L 338.099313 227.012254 
L 339.032845 226.700567 
L 339.966377 226.822004 
L 340.899909 226.639849 
L 341.833442 226.728902 
L 342.766974 227.44133 
L 343.700506 226.73295 
L 344.634038 227.170122 
L 345.56757 226.781525 
L 346.501102 226.579131 
L 347.434634 226.805812 
L 348.368166 226.562939 
L 349.301698 226.530556 
L 350.23523 226.384832 
L 352.102294 226.396976 
L 353.035826 226.186486 
L 355.836422 226.279587 
L 358.637018 226.461742 
L 359.57055 226.291731 
L 360.504082 226.453646 
L 361.437614 226.502221 
L 366.105275 226.125768 
L 367.972339 226.38888 
L 368.905871 226.75319 
L 370.772935 226.757238 
L 371.706467 226.668184 
L 375.440595 226.724855 
L 376.374127 226.692471 
L 377.307659 226.801764 
L 378.241191 226.647945 
L 379.174723 226.935345 
L 380.108255 226.797716 
L 381.041787 226.959632 
L 381.975319 226.757238 
L 383.842383 226.947488 
L 384.775915 226.947488 
L 385.709447 226.813908 
L 386.64298 227.267271 
L 387.576512 227.445378 
L 388.510044 227.28751 
L 389.443576 227.445378 
L 393.177704 227.425139 
L 394.111236 227.170122 
L 395.044768 227.319894 
L 395.9783 226.923201 
L 396.911832 227.157978 
L 398.778896 227.425139 
L 399.712428 227.858262 
L 400.64596 227.809688 
L 403.446556 228.14971 
L 405.31362 228.30353 
L 407.180684 228.008034 
L 409.047749 227.465617 
L 409.981281 227.242984 
L 410.914813 227.186313 
L 413.715409 226.429359 
L 414.648941 226.10148 
L 415.582473 225.648117 
L 416.516005 225.385005 
L 418.383069 224.603763 
L 420.250133 223.992532 
L 421.183665 223.624175 
L 423.050729 222.308612 
L 425.851325 218.94482 
L 426.784857 217.240661 
L 427.718389 216.503946 
L 429.585453 213.136106 
L 430.518985 212.302241 
L 431.452518 211.986506 
L 432.38605 210.934056 
L 434.253114 208.306979 
L 434.253114 208.306979 
" style="fill:none;stroke:#06ab54;stroke-width:2;"/>
   </g>
   <g id="line2d_24">
    <path clip-path="url(#pdb94f53640)" d="M 92.580386 229.416698 
L 139.256988 229.036197 
L 185.933591 229.20216 
L 279.286795 228.752845 
L 301.691564 228.348056 
L 302.625096 228.056609 
L 303.558628 228.194237 
L 304.49216 228.097087 
L 305.425692 228.145662 
L 307.292756 227.769209 
L 308.226288 227.951364 
L 309.15982 227.874454 
L 311.026884 227.918981 
L 311.960416 227.7854 
L 313.82748 227.291558 
L 314.761012 227.57491 
L 315.694544 227.392755 
L 316.628076 226.967728 
L 317.561608 227.267271 
L 318.49514 226.96368 
L 319.428673 226.983919 
L 320.362205 226.384832 
L 321.295737 226.364593 
L 322.229269 226.75319 
L 323.162801 226.696519 
L 324.096333 225.684548 
L 325.029865 226.2553 
L 326.896929 225.915278 
L 327.830461 226.33221 
L 328.763993 225.988139 
L 329.697525 226.012427 
L 330.631057 226.182438 
L 331.564589 225.425484 
L 332.498121 225.271664 
L 335.298717 225.389053 
L 336.232249 225.109749 
L 337.165781 224.955929 
L 338.099313 224.939737 
L 339.032845 225.263568 
L 339.966377 224.709008 
L 340.899909 223.624175 
L 341.833442 223.433924 
L 342.766974 223.417733 
L 343.700506 222.559581 
L 344.634038 223.267961 
L 345.56757 222.385522 
L 347.434634 222.65673 
L 348.368166 222.511007 
L 349.301698 222.243846 
L 351.168762 222.328852 
L 352.102294 221.664999 
L 353.035826 221.486892 
L 353.969358 222.434097 
L 354.90289 222.502911 
L 355.836422 221.830962 
L 356.769954 220.960667 
L 357.703486 221.094247 
L 358.637018 220.97281 
L 359.57055 220.317053 
L 360.504082 219.952743 
L 361.437614 219.244364 
L 362.371146 217.285187 
L 363.304678 216.99374 
L 364.238211 217.018027 
L 365.171743 217.329714 
L 366.105275 217.329714 
L 367.038807 218.220249 
L 367.972339 225.247377 
L 369.839403 224.22731 
L 370.772935 223.255817 
L 371.706467 222.871268 
L 372.639999 222.239798 
L 373.573531 220.887805 
L 374.507063 219.944648 
L 376.374127 218.847671 
L 377.307659 217.73855 
L 379.174723 215.973673 
L 380.108255 214.933366 
L 381.041787 213.60566 
L 383.842383 207.092614 
L 384.775915 205.445125 
L 385.709447 202.599462 
L 386.64298 201.05317 
L 388.510044 194.532028 
L 391.31064 180.202516 
L 392.244172 177.704971 
L 394.111236 169.884458 
L 395.044768 171.309313 
L 395.9783 168.872486 
L 397.845364 161.991082 
L 399.712428 153.543147 
L 400.64596 149.827189 
L 401.579492 151.664929 
L 402.513024 153.089784 
L 403.446556 155.316121 
L 404.380088 155.943543 
L 405.31362 155.457797 
L 406.247152 149.968865 
L 407.180684 145.334037 
L 408.114216 137.715918 
L 409.981281 125.811089 
L 410.914813 118.646333 
L 412.781877 111.133459 
L 413.715409 108.053019 
L 414.648941 102.313118 
L 415.582473 100.718252 
L 416.516005 100.22441 
L 417.449537 102.369789 
L 418.383069 102.985067 
L 419.316601 97.666147 
L 420.250133 98.508107 
L 421.183665 97.98593 
L 422.117197 96.524643 
L 423.050729 93.375389 
L 423.984261 89.578473 
L 424.917793 88.445065 
L 425.851325 86.493985 
L 426.784857 89.720149 
L 427.718389 95.626013 
L 428.651921 88.829614 
L 429.585453 90.845461 
L 430.518985 90.181608 
L 431.452518 88.7608 
L 432.38605 88.534119 
L 434.253114 84.882927 
L 434.253114 84.882927 
" style="fill:none;stroke:#bb60d5;stroke-width:2;"/>
   </g>
   <g id="line2d_25">
    <path clip-path="url(#pdb94f53640)" d="M 92.580386 228.805467 
L 157.927629 226.870578 
L 209.271892 224.814253 
L 232.610193 224.421608 
L 234.477257 224.138256 
L 235.410789 224.279932 
L 236.344321 224.28398 
L 239.144917 223.879192 
L 240.078449 224.482326 
L 241.011981 224.089682 
L 242.879045 223.680845 
L 243.812577 223.834665 
L 246.613173 223.612031 
L 247.546705 223.968245 
L 252.214365 223.883239 
L 253.147898 223.648462 
L 254.08143 223.745611 
L 255.948494 223.312488 
L 258.74909 223.211291 
L 259.682622 223.514882 
L 261.549686 222.280277 
L 263.41675 221.543562 
L 264.350282 222.065739 
L 265.283814 221.669047 
L 266.217346 221.511179 
L 267.150878 221.855249 
L 268.08441 221.948351 
L 269.017942 221.438317 
L 269.951474 221.980734 
L 270.885006 222.199319 
L 271.818538 222.288373 
L 272.75207 222.126457 
L 273.685602 221.567849 
L 274.619135 221.39379 
L 275.552667 221.333072 
L 277.419731 220.746129 
L 278.353263 221.045672 
L 279.286795 221.001146 
L 280.220327 220.535639 
L 281.153859 219.932504 
L 282.087391 219.0784 
L 283.020923 219.037921 
L 283.954455 219.333417 
L 284.887987 219.058161 
L 285.821519 219.349609 
L 286.755051 219.28889 
L 288.622115 218.572415 
L 289.555647 218.859815 
L 290.489179 218.434787 
L 291.422711 217.52806 
L 292.356243 217.038266 
L 293.289775 217.8357 
L 294.223307 217.94904 
L 295.156839 217.47139 
L 296.090371 217.277092 
L 297.023904 216.872303 
L 297.957436 217.313523 
L 298.890968 216.953261 
L 299.8245 216.718484 
L 300.758032 216.325839 
L 301.691564 216.803489 
L 302.625096 216.36227 
L 303.558628 216.536329 
L 304.49216 216.382509 
L 305.425692 216.066774 
L 307.292756 212.739413 
L 308.226288 212.545114 
L 309.15982 211.78816 
L 310.093352 211.784112 
L 311.026884 211.897453 
L 311.960416 212.20914 
L 312.893948 212.059368 
L 313.82748 211.601957 
L 314.761012 212.136278 
L 315.694544 211.322653 
L 316.628076 211.452186 
L 317.561608 210.986679 
L 318.49514 209.375621 
L 319.428673 210.917865 
L 320.362205 211.937932 
L 321.295737 209.89375 
L 322.229269 210.755949 
L 323.162801 209.116556 
L 324.096333 209.055838 
L 325.029865 207.375966 
L 325.963397 207.129045 
L 326.896929 204.82175 
L 327.830461 205.088911 
L 328.763993 204.283382 
L 329.697525 205.157725 
L 330.631057 203.720726 
L 331.564589 201.016739 
L 332.498121 201.105792 
L 333.431653 204.222663 
L 334.365185 201.39724 
L 335.298717 201.729166 
L 336.232249 201.223181 
L 337.165781 200.263832 
L 338.099313 199.644506 
L 339.032845 202.749233 
L 339.966377 202.344445 
L 340.899909 198.668966 
L 341.833442 199.972385 
L 342.766974 197.430313 
L 343.700506 197.296733 
L 344.634038 198.090118 
L 345.56757 199.510926 
L 346.501102 198.167028 
L 347.434634 194.305346 
L 349.301698 193.572679 
L 350.23523 191.593263 
L 351.168762 191.755179 
L 352.102294 191.795657 
L 353.035826 189.759571 
L 353.969358 194.021994 
L 354.90289 196.55597 
L 355.836422 201.976087 
L 356.769954 203.008298 
L 357.703486 200.55528 
L 359.57055 193.099076 
L 360.504082 190.136025 
L 361.437614 192.779293 
L 362.371146 190.099594 
L 363.304678 186.666988 
L 364.238211 180.445389 
L 366.105275 170.131379 
L 367.038807 166.047063 
L 367.972339 167.702648 
L 368.905871 173.85948 
L 369.839403 175.535305 
L 370.772935 173.503266 
L 371.706467 175.312671 
L 372.639999 170.742609 
L 373.573531 167.160231 
L 374.507063 165.877052 
L 375.440595 163.958354 
L 376.374127 165.5937 
L 377.307659 162.124663 
L 379.174723 161.974891 
L 380.108255 163.845014 
L 381.041787 159.975236 
L 381.975319 159.339718 
L 382.908851 158.866115 
L 383.842383 155.619712 
L 384.775915 153.44195 
L 385.709447 150.021487 
L 387.576512 141.241625 
L 388.510044 139.974638 
L 389.443576 136.533936 
L 390.377108 134.493802 
L 391.31064 135.457198 
L 392.244172 133.688273 
L 393.177704 129.55943 
L 394.111236 124.750543 
L 395.9783 127.369525 
L 396.911832 122.904708 
L 397.845364 119.0916 
L 398.778896 113.886021 
L 399.712428 111.198225 
L 400.64596 112.56641 
L 401.579492 110.773197 
L 402.513024 114.19366 
L 403.446556 110.356265 
L 404.380088 102.59647 
L 405.31362 98.759076 
L 407.180684 91.853384 
L 408.114216 87.259035 
L 409.047749 83.648322 
L 409.981281 82.737548 
L 410.914813 84.834352 
L 411.848345 81.689146 
L 412.781877 79.580198 
L 413.715409 75.34611 
L 414.648941 72.986194 
L 415.582473 68.845208 
L 417.449537 58.081882 
L 418.383069 51.997911 
L 419.316601 46.691135 
L 420.250133 46.727566 
L 421.183665 45.152938 
L 422.117197 41.546273 
L 423.050729 36.142347 
L 423.984261 31.438705 
L 424.917793 28.058721 
L 425.851325 26.390993 
L 426.784857 28.924969 
L 427.718389 36.304262 
L 428.651921 33.009284 
L 429.585453 31.357747 
L 430.518985 28.447318 
L 431.452518 26.54886 
L 432.38605 23.306505 
L 433.319582 19.554116 
L 434.253114 17.837812 
L 434.253114 17.837812 
" style="fill:none;stroke:#cb495c;stroke-width:2;"/>
   </g>
   <g id="text_13">
    <!-- United Kingdom -->
    <defs>
     <path d="M 8.6875 72.90625 
L 18.609375 72.90625 
L 18.609375 28.609375 
Q 18.609375 16.890625 22.84375 11.734375 
Q 27.09375 6.59375 36.625 6.59375 
Q 46.09375 6.59375 50.34375 11.734375 
Q 54.59375 16.890625 54.59375 28.609375 
L 54.59375 72.90625 
L 64.5 72.90625 
L 64.5 27.390625 
Q 64.5 13.140625 57.4375 5.859375 
Q 50.390625 -1.421875 36.625 -1.421875 
Q 22.796875 -1.421875 15.734375 5.859375 
Q 8.6875 13.140625 8.6875 27.390625 
z
" id="DejaVuSans-85"/>
     <path d="M 54.890625 33.015625 
L 54.890625 0 
L 45.90625 0 
L 45.90625 32.71875 
Q 45.90625 40.484375 42.875 44.328125 
Q 39.84375 48.1875 33.796875 48.1875 
Q 26.515625 48.1875 22.3125 43.546875 
Q 18.109375 38.921875 18.109375 30.90625 
L 18.109375 0 
L 9.078125 0 
L 9.078125 54.6875 
L 18.109375 54.6875 
L 18.109375 46.1875 
Q 21.34375 51.125 25.703125 53.5625 
Q 30.078125 56 35.796875 56 
Q 45.21875 56 50.046875 50.171875 
Q 54.890625 44.34375 54.890625 33.015625 
z
" id="DejaVuSans-110"/>
     <path d="M 45.40625 46.390625 
L 45.40625 75.984375 
L 54.390625 75.984375 
L 54.390625 0 
L 45.40625 0 
L 45.40625 8.203125 
Q 42.578125 3.328125 38.25 0.953125 
Q 33.9375 -1.421875 27.875 -1.421875 
Q 17.96875 -1.421875 11.734375 6.484375 
Q 5.515625 14.40625 5.515625 27.296875 
Q 5.515625 40.1875 11.734375 48.09375 
Q 17.96875 56 27.875 56 
Q 33.9375 56 38.25 53.625 
Q 42.578125 51.265625 45.40625 46.390625 
z
M 14.796875 27.296875 
Q 14.796875 17.390625 18.875 11.75 
Q 22.953125 6.109375 30.078125 6.109375 
Q 37.203125 6.109375 41.296875 11.75 
Q 45.40625 17.390625 45.40625 27.296875 
Q 45.40625 37.203125 41.296875 42.84375 
Q 37.203125 48.484375 30.078125 48.484375 
Q 22.953125 48.484375 18.875 42.84375 
Q 14.796875 37.203125 14.796875 27.296875 
z
" id="DejaVuSans-100"/>
     <path d="M 9.8125 72.90625 
L 19.671875 72.90625 
L 19.671875 42.09375 
L 52.390625 72.90625 
L 65.09375 72.90625 
L 28.90625 38.921875 
L 67.671875 0 
L 54.6875 0 
L 19.671875 35.109375 
L 19.671875 0 
L 9.8125 0 
z
" id="DejaVuSans-75"/>
     <path d="M 45.40625 27.984375 
Q 45.40625 37.75 41.375 43.109375 
Q 37.359375 48.484375 30.078125 48.484375 
Q 22.859375 48.484375 18.828125 43.109375 
Q 14.796875 37.75 14.796875 27.984375 
Q 14.796875 18.265625 18.828125 12.890625 
Q 22.859375 7.515625 30.078125 7.515625 
Q 37.359375 7.515625 41.375 12.890625 
Q 45.40625 18.265625 45.40625 27.984375 
z
M 54.390625 6.78125 
Q 54.390625 -7.171875 48.1875 -13.984375 
Q 42 -20.796875 29.203125 -20.796875 
Q 24.46875 -20.796875 20.265625 -20.09375 
Q 16.0625 -19.390625 12.109375 -17.921875 
L 12.109375 -9.1875 
Q 16.0625 -11.328125 19.921875 -12.34375 
Q 23.78125 -13.375 27.78125 -13.375 
Q 36.625 -13.375 41.015625 -8.765625 
Q 45.40625 -4.15625 45.40625 5.171875 
L 45.40625 9.625 
Q 42.625 4.78125 38.28125 2.390625 
Q 33.9375 0 27.875 0 
Q 17.828125 0 11.671875 7.65625 
Q 5.515625 15.328125 5.515625 27.984375 
Q 5.515625 40.671875 11.671875 48.328125 
Q 17.828125 56 27.875 56 
Q 33.9375 56 38.28125 53.609375 
Q 42.625 51.21875 45.40625 46.390625 
L 45.40625 54.6875 
L 54.390625 54.6875 
z
" id="DejaVuSans-103"/>
     <path d="M 30.609375 48.390625 
Q 23.390625 48.390625 19.1875 42.75 
Q 14.984375 37.109375 14.984375 27.296875 
Q 14.984375 17.484375 19.15625 11.84375 
Q 23.34375 6.203125 30.609375 6.203125 
Q 37.796875 6.203125 41.984375 11.859375 
Q 46.1875 17.53125 46.1875 27.296875 
Q 46.1875 37.015625 41.984375 42.703125 
Q 37.796875 48.390625 30.609375 48.390625 
z
M 30.609375 56 
Q 42.328125 56 49.015625 48.375 
Q 55.71875 40.765625 55.71875 27.296875 
Q 55.71875 13.875 49.015625 6.21875 
Q 42.328125 -1.421875 30.609375 -1.421875 
Q 18.84375 -1.421875 12.171875 6.21875 
Q 5.515625 13.875 5.515625 27.296875 
Q 5.515625 40.765625 12.171875 48.375 
Q 18.84375 56 30.609375 56 
z
" id="DejaVuSans-111"/>
     <path d="M 52 44.1875 
Q 55.375 50.25 60.0625 53.125 
Q 64.75 56 71.09375 56 
Q 79.640625 56 84.28125 50.015625 
Q 88.921875 44.046875 88.921875 33.015625 
L 88.921875 0 
L 79.890625 0 
L 79.890625 32.71875 
Q 79.890625 40.578125 77.09375 44.375 
Q 74.3125 48.1875 68.609375 48.1875 
Q 61.625 48.1875 57.5625 43.546875 
Q 53.515625 38.921875 53.515625 30.90625 
L 53.515625 0 
L 44.484375 0 
L 44.484375 32.71875 
Q 44.484375 40.625 41.703125 44.40625 
Q 38.921875 48.1875 33.109375 48.1875 
Q 26.21875 48.1875 22.15625 43.53125 
Q 18.109375 38.875 18.109375 30.90625 
L 18.109375 0 
L 9.078125 0 
L 9.078125 54.6875 
L 18.109375 54.6875 
L 18.109375 46.1875 
Q 21.1875 51.21875 25.484375 53.609375 
Q 29.78125 56 35.6875 56 
Q 41.65625 56 45.828125 52.96875 
Q 50 49.953125 52 44.1875 
z
" id="DejaVuSans-109"/>
    </defs>
    <g style="fill:#165aa7;" transform="translate(437.987242 73.913159)scale(0.14 -0.14)">
     <use xlink:href="#DejaVuSans-85"/>
     <use x="73.193359" xlink:href="#DejaVuSans-110"/>
     <use x="136.572266" xlink:href="#DejaVuSans-105"/>
     <use x="164.355469" xlink:href="#DejaVuSans-116"/>
     <use x="203.564453" xlink:href="#DejaVuSans-101"/>
     <use x="265.087891" xlink:href="#DejaVuSans-100"/>
     <use x="328.564453" xlink:href="#DejaVuSans-32"/>
     <use x="360.351562" xlink:href="#DejaVuSans-75"/>
     <use x="425.927734" xlink:href="#DejaVuSans-105"/>
     <use x="453.710938" xlink:href="#DejaVuSans-110"/>
     <use x="517.089844" xlink:href="#DejaVuSans-103"/>
     <use x="580.566406" xlink:href="#DejaVuSans-100"/>
     <use x="644.042969" xlink:href="#DejaVuSans-111"/>
     <use x="705.224609" xlink:href="#DejaVuSans-109"/>
    </g>
   </g>
   <g id="text_14">
    <!-- United States -->
    <defs>
     <path d="M 53.515625 70.515625 
L 53.515625 60.890625 
Q 47.90625 63.578125 42.921875 64.890625 
Q 37.9375 66.21875 33.296875 66.21875 
Q 25.25 66.21875 20.875 63.09375 
Q 16.5 59.96875 16.5 54.203125 
Q 16.5 49.359375 19.40625 46.890625 
Q 22.3125 44.4375 30.421875 42.921875 
L 36.375 41.703125 
Q 47.40625 39.59375 52.65625 34.296875 
Q 57.90625 29 57.90625 20.125 
Q 57.90625 9.515625 50.796875 4.046875 
Q 43.703125 -1.421875 29.984375 -1.421875 
Q 24.8125 -1.421875 18.96875 -0.25 
Q 13.140625 0.921875 6.890625 3.21875 
L 6.890625 13.375 
Q 12.890625 10.015625 18.65625 8.296875 
Q 24.421875 6.59375 29.984375 6.59375 
Q 38.421875 6.59375 43.015625 9.90625 
Q 47.609375 13.234375 47.609375 19.390625 
Q 47.609375 24.75 44.3125 27.78125 
Q 41.015625 30.8125 33.5 32.328125 
L 27.484375 33.5 
Q 16.453125 35.6875 11.515625 40.375 
Q 6.59375 45.0625 6.59375 53.421875 
Q 6.59375 63.09375 13.40625 68.65625 
Q 20.21875 74.21875 32.171875 74.21875 
Q 37.3125 74.21875 42.625 73.28125 
Q 47.953125 72.359375 53.515625 70.515625 
z
" id="DejaVuSans-83"/>
     <path d="M 44.28125 53.078125 
L 44.28125 44.578125 
Q 40.484375 46.53125 36.375 47.5 
Q 32.28125 48.484375 27.875 48.484375 
Q 21.1875 48.484375 17.84375 46.4375 
Q 14.5 44.390625 14.5 40.28125 
Q 14.5 37.15625 16.890625 35.375 
Q 19.28125 33.59375 26.515625 31.984375 
L 29.59375 31.296875 
Q 39.15625 29.25 43.1875 25.515625 
Q 47.21875 21.78125 47.21875 15.09375 
Q 47.21875 7.46875 41.1875 3.015625 
Q 35.15625 -1.421875 24.609375 -1.421875 
Q 20.21875 -1.421875 15.453125 -0.5625 
Q 10.6875 0.296875 5.421875 2 
L 5.421875 11.28125 
Q 10.40625 8.6875 15.234375 7.390625 
Q 20.0625 6.109375 24.8125 6.109375 
Q 31.15625 6.109375 34.5625 8.28125 
Q 37.984375 10.453125 37.984375 14.40625 
Q 37.984375 18.0625 35.515625 20.015625 
Q 33.0625 21.96875 24.703125 23.78125 
L 21.578125 24.515625 
Q 13.234375 26.265625 9.515625 29.90625 
Q 5.8125 33.546875 5.8125 39.890625 
Q 5.8125 47.609375 11.28125 51.796875 
Q 16.75 56 26.8125 56 
Q 31.78125 56 36.171875 55.265625 
Q 40.578125 54.546875 44.28125 53.078125 
z
" id="DejaVuSans-115"/>
    </defs>
    <g style="fill:#cb495c;" transform="translate(437.987242 17.837812)scale(0.14 -0.14)">
     <use xlink:href="#DejaVuSans-85"/>
     <use x="73.193359" xlink:href="#DejaVuSans-110"/>
     <use x="136.572266" xlink:href="#DejaVuSans-105"/>
     <use x="164.355469" xlink:href="#DejaVuSans-116"/>
     <use x="203.564453" xlink:href="#DejaVuSans-101"/>
     <use x="265.087891" xlink:href="#DejaVuSans-100"/>
     <use x="328.564453" xlink:href="#DejaVuSans-32"/>
     <use x="360.351562" xlink:href="#DejaVuSans-83"/>
     <use x="423.828125" xlink:href="#DejaVuSans-116"/>
     <use x="463.037109" xlink:href="#DejaVuSans-97"/>
     <use x="524.316406" xlink:href="#DejaVuSans-116"/>
     <use x="563.525391" xlink:href="#DejaVuSans-101"/>
     <use x="625.048828" xlink:href="#DejaVuSans-115"/>
    </g>
   </g>
   <g id="text_15">
    <!-- Japan -->
    <defs>
     <path d="M 9.8125 72.90625 
L 19.671875 72.90625 
L 19.671875 5.078125 
Q 19.671875 -8.109375 14.671875 -14.0625 
Q 9.671875 -20.015625 -1.421875 -20.015625 
L -5.171875 -20.015625 
L -5.171875 -11.71875 
L -2.09375 -11.71875 
Q 4.4375 -11.71875 7.125 -8.046875 
Q 9.8125 -4.390625 9.8125 5.078125 
z
" id="DejaVuSans-74"/>
    </defs>
    <g style="fill:#bb60d5;" transform="translate(437.987242 88.930811)scale(0.14 -0.14)">
     <use xlink:href="#DejaVuSans-74"/>
     <use x="29.492188" xlink:href="#DejaVuSans-97"/>
     <use x="90.771484" xlink:href="#DejaVuSans-112"/>
     <use x="154.248047" xlink:href="#DejaVuSans-97"/>
     <use x="215.527344" xlink:href="#DejaVuSans-110"/>
    </g>
   </g>
   <g id="text_16">
    <!-- China -->
    <defs>
     <path d="M 64.40625 67.28125 
L 64.40625 56.890625 
Q 59.421875 61.53125 53.78125 63.8125 
Q 48.140625 66.109375 41.796875 66.109375 
Q 29.296875 66.109375 22.65625 58.46875 
Q 16.015625 50.828125 16.015625 36.375 
Q 16.015625 21.96875 22.65625 14.328125 
Q 29.296875 6.6875 41.796875 6.6875 
Q 48.140625 6.6875 53.78125 8.984375 
Q 59.421875 11.28125 64.40625 15.921875 
L 64.40625 5.609375 
Q 59.234375 2.09375 53.4375 0.328125 
Q 47.65625 -1.421875 41.21875 -1.421875 
Q 24.65625 -1.421875 15.125 8.703125 
Q 5.609375 18.84375 5.609375 36.375 
Q 5.609375 53.953125 15.125 64.078125 
Q 24.65625 74.21875 41.21875 74.21875 
Q 47.75 74.21875 53.53125 72.484375 
Q 59.328125 70.75 64.40625 67.28125 
z
" id="DejaVuSans-67"/>
     <path d="M 54.890625 33.015625 
L 54.890625 0 
L 45.90625 0 
L 45.90625 32.71875 
Q 45.90625 40.484375 42.875 44.328125 
Q 39.84375 48.1875 33.796875 48.1875 
Q 26.515625 48.1875 22.3125 43.546875 
Q 18.109375 38.921875 18.109375 30.90625 
L 18.109375 0 
L 9.078125 0 
L 9.078125 75.984375 
L 18.109375 75.984375 
L 18.109375 46.1875 
Q 21.34375 51.125 25.703125 53.5625 
Q 30.078125 56 35.796875 56 
Q 45.21875 56 50.046875 50.171875 
Q 54.890625 44.34375 54.890625 33.015625 
z
" id="DejaVuSans-104"/>
    </defs>
    <g style="fill:#f47915;" transform="translate(437.987242 182.56648)scale(0.14 -0.14)">
     <use xlink:href="#DejaVuSans-67"/>
     <use x="69.824219" xlink:href="#DejaVuSans-104"/>
     <use x="133.203125" xlink:href="#DejaVuSans-105"/>
     <use x="160.986328" xlink:href="#DejaVuSans-110"/>
     <use x="224.365234" xlink:href="#DejaVuSans-97"/>
    </g>
   </g>
   <g id="text_17">
    <!-- India -->
    <defs>
     <path d="M 9.8125 72.90625 
L 19.671875 72.90625 
L 19.671875 0 
L 9.8125 0 
z
" id="DejaVuSans-73"/>
    </defs>
    <g style="fill:#06ab54;" transform="translate(437.987242 208.306979)scale(0.14 -0.14)">
     <use xlink:href="#DejaVuSans-73"/>
     <use x="29.492188" xlink:href="#DejaVuSans-110"/>
     <use x="92.871094" xlink:href="#DejaVuSans-100"/>
     <use x="156.347656" xlink:href="#DejaVuSans-105"/>
     <use x="184.130859" xlink:href="#DejaVuSans-97"/>
    </g>
   </g>
   <g id="text_18">
    <!-- Source: Maddison Project Database (MPD) 2018 -->
    <defs>
     <path d="M 8.5 21.578125 
L 8.5 54.6875 
L 17.484375 54.6875 
L 17.484375 21.921875 
Q 17.484375 14.15625 20.5 10.265625 
Q 23.53125 6.390625 29.59375 6.390625 
Q 36.859375 6.390625 41.078125 11.03125 
Q 45.3125 15.671875 45.3125 23.6875 
L 45.3125 54.6875 
L 54.296875 54.6875 
L 54.296875 0 
L 45.3125 0 
L 45.3125 8.40625 
Q 42.046875 3.421875 37.71875 1 
Q 33.40625 -1.421875 27.6875 -1.421875 
Q 18.265625 -1.421875 13.375 4.4375 
Q 8.5 10.296875 8.5 21.578125 
z
M 31.109375 56 
z
" id="DejaVuSans-117"/>
     <path d="M 11.71875 12.40625 
L 22.015625 12.40625 
L 22.015625 0 
L 11.71875 0 
z
M 11.71875 51.703125 
L 22.015625 51.703125 
L 22.015625 39.3125 
L 11.71875 39.3125 
z
" id="DejaVuSans-58"/>
     <path d="M 9.8125 72.90625 
L 24.515625 72.90625 
L 43.109375 23.296875 
L 61.8125 72.90625 
L 76.515625 72.90625 
L 76.515625 0 
L 66.890625 0 
L 66.890625 64.015625 
L 48.09375 14.015625 
L 38.1875 14.015625 
L 19.390625 64.015625 
L 19.390625 0 
L 9.8125 0 
z
" id="DejaVuSans-77"/>
     <path d="M 9.421875 54.6875 
L 18.40625 54.6875 
L 18.40625 -0.984375 
Q 18.40625 -11.421875 14.421875 -16.109375 
Q 10.453125 -20.796875 1.609375 -20.796875 
L -1.8125 -20.796875 
L -1.8125 -13.1875 
L 0.59375 -13.1875 
Q 5.71875 -13.1875 7.5625 -10.8125 
Q 9.421875 -8.453125 9.421875 -0.984375 
z
M 9.421875 75.984375 
L 18.40625 75.984375 
L 18.40625 64.59375 
L 9.421875 64.59375 
z
" id="DejaVuSans-106"/>
     <path d="M 48.6875 27.296875 
Q 48.6875 37.203125 44.609375 42.84375 
Q 40.53125 48.484375 33.40625 48.484375 
Q 26.265625 48.484375 22.1875 42.84375 
Q 18.109375 37.203125 18.109375 27.296875 
Q 18.109375 17.390625 22.1875 11.75 
Q 26.265625 6.109375 33.40625 6.109375 
Q 40.53125 6.109375 44.609375 11.75 
Q 48.6875 17.390625 48.6875 27.296875 
z
M 18.109375 46.390625 
Q 20.953125 51.265625 25.265625 53.625 
Q 29.59375 56 35.59375 56 
Q 45.5625 56 51.78125 48.09375 
Q 58.015625 40.1875 58.015625 27.296875 
Q 58.015625 14.40625 51.78125 6.484375 
Q 45.5625 -1.421875 35.59375 -1.421875 
Q 29.59375 -1.421875 25.265625 0.953125 
Q 20.953125 3.328125 18.109375 8.203125 
L 18.109375 0 
L 9.078125 0 
L 9.078125 75.984375 
L 18.109375 75.984375 
z
" id="DejaVuSans-98"/>
     <path d="M 31 75.875 
Q 24.46875 64.65625 21.28125 53.65625 
Q 18.109375 42.671875 18.109375 31.390625 
Q 18.109375 20.125 21.3125 9.0625 
Q 24.515625 -2 31 -13.1875 
L 23.1875 -13.1875 
Q 15.875 -1.703125 12.234375 9.375 
Q 8.59375 20.453125 8.59375 31.390625 
Q 8.59375 42.28125 12.203125 53.3125 
Q 15.828125 64.359375 23.1875 75.875 
z
" id="DejaVuSans-40"/>
     <path d="M 8.015625 75.875 
L 15.828125 75.875 
Q 23.140625 64.359375 26.78125 53.3125 
Q 30.421875 42.28125 30.421875 31.390625 
Q 30.421875 20.453125 26.78125 9.375 
Q 23.140625 -1.703125 15.828125 -13.1875 
L 8.015625 -13.1875 
Q 14.5 -2 17.703125 9.0625 
Q 20.90625 20.125 20.90625 31.390625 
Q 20.90625 42.671875 17.703125 53.65625 
Q 14.5 64.65625 8.015625 75.875 
z
" id="DejaVuSans-41"/>
    </defs>
    <g transform="translate(120.586348 313.394114)scale(0.14 -0.14)">
     <use xlink:href="#DejaVuSans-83"/>
     <use x="63.476562" xlink:href="#DejaVuSans-111"/>
     <use x="124.658203" xlink:href="#DejaVuSans-117"/>
     <use x="188.037109" xlink:href="#DejaVuSans-114"/>
     <use x="226.900391" xlink:href="#DejaVuSans-99"/>
     <use x="281.880859" xlink:href="#DejaVuSans-101"/>
     <use x="343.404297" xlink:href="#DejaVuSans-58"/>
     <use x="377.095703" xlink:href="#DejaVuSans-32"/>
     <use x="408.882812" xlink:href="#DejaVuSans-77"/>
     <use x="495.162109" xlink:href="#DejaVuSans-97"/>
     <use x="556.441406" xlink:href="#DejaVuSans-100"/>
     <use x="619.917969" xlink:href="#DejaVuSans-100"/>
     <use x="683.394531" xlink:href="#DejaVuSans-105"/>
     <use x="711.177734" xlink:href="#DejaVuSans-115"/>
     <use x="763.277344" xlink:href="#DejaVuSans-111"/>
     <use x="824.458984" xlink:href="#DejaVuSans-110"/>
     <use x="887.837891" xlink:href="#DejaVuSans-32"/>
     <use x="919.625" xlink:href="#DejaVuSans-80"/>
     <use x="978.177734" xlink:href="#DejaVuSans-114"/>
     <use x="1017.041016" xlink:href="#DejaVuSans-111"/>
     <use x="1078.222656" xlink:href="#DejaVuSans-106"/>
     <use x="1106.005859" xlink:href="#DejaVuSans-101"/>
     <use x="1167.529297" xlink:href="#DejaVuSans-99"/>
     <use x="1222.509766" xlink:href="#DejaVuSans-116"/>
     <use x="1261.71875" xlink:href="#DejaVuSans-32"/>
     <use x="1293.505859" xlink:href="#DejaVuSans-68"/>
     <use x="1370.507812" xlink:href="#DejaVuSans-97"/>
     <use x="1431.787109" xlink:href="#DejaVuSans-116"/>
     <use x="1470.996094" xlink:href="#DejaVuSans-97"/>
     <use x="1532.275391" xlink:href="#DejaVuSans-98"/>
     <use x="1595.751953" xlink:href="#DejaVuSans-97"/>
     <use x="1657.03125" xlink:href="#DejaVuSans-115"/>
     <use x="1709.130859" xlink:href="#DejaVuSans-101"/>
     <use x="1770.654297" xlink:href="#DejaVuSans-32"/>
     <use x="1802.441406" xlink:href="#DejaVuSans-40"/>
     <use x="1841.455078" xlink:href="#DejaVuSans-77"/>
     <use x="1927.734375" xlink:href="#DejaVuSans-80"/>
     <use x="1988.037109" xlink:href="#DejaVuSans-68"/>
     <use x="2065.039062" xlink:href="#DejaVuSans-41"/>
     <use x="2104.052734" xlink:href="#DejaVuSans-32"/>
     <use x="2135.839844" xlink:href="#DejaVuSans-50"/>
     <use x="2199.462891" xlink:href="#DejaVuSans-48"/>
     <use x="2263.085938" xlink:href="#DejaVuSans-49"/>
     <use x="2326.708984" xlink:href="#DejaVuSans-56"/>
    </g>
   </g>
  </g>
 </g>
 <defs>
  <clipPath id="pdb94f53640">
   <rect height="233.28" width="375.84" x="75.49675" y="7.234176"/>
  </clipPath>
 </defs>
</svg>
