<?xml version="1.0" encoding="utf-8" standalone="no"?>
<!DOCTYPE svg PUBLIC "-//W3C//DTD SVG 1.1//EN"
  "http://www.w3.org/Graphics/SVG/1.1/DTD/svg11.dtd">
<!-- Created with matplotlib (https://matplotlib.org/) -->
<svg height="323.015692pt" version="1.1" viewBox="0 0 557.181677 323.015692" width="557.181677pt" xmlns="http://www.w3.org/2000/svg" xmlns:xlink="http://www.w3.org/1999/xlink">
 <defs>
  <style type="text/css">
*{stroke-linecap:butt;stroke-linejoin:round;}
  </style>
 </defs>
 <g id="figure_1">
  <g id="patch_1">
   <path d="M 0 323.015692 
L 557.181677 323.015692 
L 557.181677 0 
L 0 0 
z
" style="fill:#ffffff;"/>
  </g>
  <g id="axes_1">
   <g id="patch_2">
    <path d="M 77.79288 240.514176 
L 453.63288 240.514176 
L 453.63288 7.234176 
L 77.79288 7.234176 
z
" style="fill:#ffffff;"/>
   </g>
   <g id="matplotlib.axis_1">
    <g id="xtick_1">
     <g id="line2d_1">
      <path clip-path="url(#p74c7ba5d70)" d="M 113.474565 240.514176 
L 113.474565 7.234176 
" style="fill:none;stroke:#000000;stroke-dasharray:6.4,1.6,1,1.6;stroke-dashoffset:0;stroke-opacity:0.2;"/>
     </g>
     <g id="line2d_2"/>
     <g id="text_1">
      <!-- 800 -->
      <defs>
       <path d="M 31.78125 34.625 
Q 24.75 34.625 20.71875 30.859375 
Q 16.703125 27.09375 16.703125 20.515625 
Q 16.703125 13.921875 20.71875 10.15625 
Q 24.75 6.390625 31.78125 6.390625 
Q 38.8125 6.390625 42.859375 10.171875 
Q 46.921875 13.96875 46.921875 20.515625 
Q 46.921875 27.09375 42.890625 30.859375 
Q 38.875 34.625 31.78125 34.625 
z
M 21.921875 38.8125 
Q 15.578125 40.375 12.03125 44.71875 
Q 8.5 49.078125 8.5 55.328125 
Q 8.5 64.0625 14.71875 69.140625 
Q 20.953125 74.21875 31.78125 74.21875 
Q 42.671875 74.21875 48.875 69.140625 
Q 55.078125 64.0625 55.078125 55.328125 
Q 55.078125 49.078125 51.53125 44.71875 
Q 48 40.375 41.703125 38.8125 
Q 48.828125 37.15625 52.796875 32.3125 
Q 56.78125 27.484375 56.78125 20.515625 
Q 56.78125 9.90625 50.3125 4.234375 
Q 43.84375 -1.421875 31.78125 -1.421875 
Q 19.734375 -1.421875 13.25 4.234375 
Q 6.78125 9.90625 6.78125 20.515625 
Q 6.78125 27.484375 10.78125 32.3125 
Q 14.796875 37.15625 21.921875 38.8125 
z
M 18.3125 54.390625 
Q 18.3125 48.734375 21.84375 45.5625 
Q 25.390625 42.390625 31.78125 42.390625 
Q 38.140625 42.390625 41.71875 45.5625 
Q 45.3125 48.734375 45.3125 54.390625 
Q 45.3125 60.0625 41.71875 63.234375 
Q 38.140625 66.40625 31.78125 66.40625 
Q 25.390625 66.40625 21.84375 63.234375 
Q 18.3125 60.0625 18.3125 54.390625 
z
" id="DejaVuSans-56"/>
       <path d="M 31.78125 66.40625 
Q 24.171875 66.40625 20.328125 58.90625 
Q 16.5 51.421875 16.5 36.375 
Q 16.5 21.390625 20.328125 13.890625 
Q 24.171875 6.390625 31.78125 6.390625 
Q 39.453125 6.390625 43.28125 13.890625 
Q 47.125 21.390625 47.125 36.375 
Q 47.125 51.421875 43.28125 58.90625 
Q 39.453125 66.40625 31.78125 66.40625 
z
M 31.78125 74.21875 
Q 44.046875 74.21875 50.515625 64.515625 
Q 56.984375 54.828125 56.984375 36.375 
Q 56.984375 17.96875 50.515625 8.265625 
Q 44.046875 -1.421875 31.78125 -1.421875 
Q 19.53125 -1.421875 13.0625 8.265625 
Q 6.59375 17.96875 6.59375 36.375 
Q 6.59375 54.828125 13.0625 64.515625 
Q 19.53125 74.21875 31.78125 74.21875 
z
" id="DejaVuSans-48"/>
      </defs>
      <g transform="translate(100.113315 254.651989)scale(0.14 -0.14)">
       <use xlink:href="#DejaVuSans-56"/>
       <use x="63.623047" xlink:href="#DejaVuSans-48"/>
       <use x="127.246094" xlink:href="#DejaVuSans-48"/>
      </g>
     </g>
    </g>
    <g id="xtick_2">
     <g id="line2d_3">
      <path clip-path="url(#p74c7ba5d70)" d="M 166.611848 240.514176 
L 166.611848 7.234176 
" style="fill:none;stroke:#000000;stroke-dasharray:6.4,1.6,1,1.6;stroke-dashoffset:0;stroke-opacity:0.2;"/>
     </g>
     <g id="line2d_4"/>
     <g id="text_2">
      <!-- 1000 -->
      <defs>
       <path d="M 12.40625 8.296875 
L 28.515625 8.296875 
L 28.515625 63.921875 
L 10.984375 60.40625 
L 10.984375 69.390625 
L 28.421875 72.90625 
L 38.28125 72.90625 
L 38.28125 8.296875 
L 54.390625 8.296875 
L 54.390625 0 
L 12.40625 0 
z
" id="DejaVuSans-49"/>
      </defs>
      <g transform="translate(148.796848 254.651989)scale(0.14 -0.14)">
       <use xlink:href="#DejaVuSans-49"/>
       <use x="63.623047" xlink:href="#DejaVuSans-48"/>
       <use x="127.246094" xlink:href="#DejaVuSans-48"/>
       <use x="190.869141" xlink:href="#DejaVuSans-48"/>
      </g>
     </g>
    </g>
    <g id="xtick_3">
     <g id="line2d_5">
      <path clip-path="url(#p74c7ba5d70)" d="M 219.74913 240.514176 
L 219.74913 7.234176 
" style="fill:none;stroke:#000000;stroke-dasharray:6.4,1.6,1,1.6;stroke-dashoffset:0;stroke-opacity:0.2;"/>
     </g>
     <g id="line2d_6"/>
     <g id="text_3">
      <!-- 1200 -->
      <defs>
       <path d="M 19.1875 8.296875 
L 53.609375 8.296875 
L 53.609375 0 
L 7.328125 0 
L 7.328125 8.296875 
Q 12.9375 14.109375 22.625 23.890625 
Q 32.328125 33.6875 34.8125 36.53125 
Q 39.546875 41.84375 41.421875 45.53125 
Q 43.3125 49.21875 43.3125 52.78125 
Q 43.3125 58.59375 39.234375 62.25 
Q 35.15625 65.921875 28.609375 65.921875 
Q 23.96875 65.921875 18.8125 64.3125 
Q 13.671875 62.703125 7.8125 59.421875 
L 7.8125 69.390625 
Q 13.765625 71.78125 18.9375 73 
Q 24.125 74.21875 28.421875 74.21875 
Q 39.75 74.21875 46.484375 68.546875 
Q 53.21875 62.890625 53.21875 53.421875 
Q 53.21875 48.921875 51.53125 44.890625 
Q 49.859375 40.875 45.40625 35.40625 
Q 44.1875 33.984375 37.640625 27.21875 
Q 31.109375 20.453125 19.1875 8.296875 
z
" id="DejaVuSans-50"/>
      </defs>
      <g transform="translate(201.93413 254.651989)scale(0.14 -0.14)">
       <use xlink:href="#DejaVuSans-49"/>
       <use x="63.623047" xlink:href="#DejaVuSans-50"/>
       <use x="127.246094" xlink:href="#DejaVuSans-48"/>
       <use x="190.869141" xlink:href="#DejaVuSans-48"/>
      </g>
     </g>
    </g>
    <g id="xtick_4">
     <g id="line2d_7">
      <path clip-path="url(#p74c7ba5d70)" d="M 272.886413 240.514176 
L 272.886413 7.234176 
" style="fill:none;stroke:#000000;stroke-dasharray:6.4,1.6,1,1.6;stroke-dashoffset:0;stroke-opacity:0.2;"/>
     </g>
     <g id="line2d_8"/>
     <g id="text_4">
      <!-- 1400 -->
      <defs>
       <path d="M 37.796875 64.3125 
L 12.890625 25.390625 
L 37.796875 25.390625 
z
M 35.203125 72.90625 
L 47.609375 72.90625 
L 47.609375 25.390625 
L 58.015625 25.390625 
L 58.015625 17.1875 
L 47.609375 17.1875 
L 47.609375 0 
L 37.796875 0 
L 37.796875 17.1875 
L 4.890625 17.1875 
L 4.890625 26.703125 
z
" id="DejaVuSans-52"/>
      </defs>
      <g transform="translate(255.071413 254.651989)scale(0.14 -0.14)">
       <use xlink:href="#DejaVuSans-49"/>
       <use x="63.623047" xlink:href="#DejaVuSans-52"/>
       <use x="127.246094" xlink:href="#DejaVuSans-48"/>
       <use x="190.869141" xlink:href="#DejaVuSans-48"/>
      </g>
     </g>
    </g>
    <g id="xtick_5">
     <g id="line2d_9">
      <path clip-path="url(#p74c7ba5d70)" d="M 326.023696 240.514176 
L 326.023696 7.234176 
" style="fill:none;stroke:#000000;stroke-dasharray:6.4,1.6,1,1.6;stroke-dashoffset:0;stroke-opacity:0.2;"/>
     </g>
     <g id="line2d_10"/>
     <g id="text_5">
      <!-- 1600 -->
      <defs>
       <path d="M 33.015625 40.375 
Q 26.375 40.375 22.484375 35.828125 
Q 18.609375 31.296875 18.609375 23.390625 
Q 18.609375 15.53125 22.484375 10.953125 
Q 26.375 6.390625 33.015625 6.390625 
Q 39.65625 6.390625 43.53125 10.953125 
Q 47.40625 15.53125 47.40625 23.390625 
Q 47.40625 31.296875 43.53125 35.828125 
Q 39.65625 40.375 33.015625 40.375 
z
M 52.59375 71.296875 
L 52.59375 62.3125 
Q 48.875 64.0625 45.09375 64.984375 
Q 41.3125 65.921875 37.59375 65.921875 
Q 27.828125 65.921875 22.671875 59.328125 
Q 17.53125 52.734375 16.796875 39.40625 
Q 19.671875 43.65625 24.015625 45.921875 
Q 28.375 48.1875 33.59375 48.1875 
Q 44.578125 48.1875 50.953125 41.515625 
Q 57.328125 34.859375 57.328125 23.390625 
Q 57.328125 12.15625 50.6875 5.359375 
Q 44.046875 -1.421875 33.015625 -1.421875 
Q 20.359375 -1.421875 13.671875 8.265625 
Q 6.984375 17.96875 6.984375 36.375 
Q 6.984375 53.65625 15.1875 63.9375 
Q 23.390625 74.21875 37.203125 74.21875 
Q 40.921875 74.21875 44.703125 73.484375 
Q 48.484375 72.75 52.59375 71.296875 
z
" id="DejaVuSans-54"/>
      </defs>
      <g transform="translate(308.208696 254.651989)scale(0.14 -0.14)">
       <use xlink:href="#DejaVuSans-49"/>
       <use x="63.623047" xlink:href="#DejaVuSans-54"/>
       <use x="127.246094" xlink:href="#DejaVuSans-48"/>
       <use x="190.869141" xlink:href="#DejaVuSans-48"/>
      </g>
     </g>
    </g>
    <g id="xtick_6">
     <g id="line2d_11">
      <path clip-path="url(#p74c7ba5d70)" d="M 379.160978 240.514176 
L 379.160978 7.234176 
" style="fill:none;stroke:#000000;stroke-dasharray:6.4,1.6,1,1.6;stroke-dashoffset:0;stroke-opacity:0.2;"/>
     </g>
     <g id="line2d_12"/>
     <g id="text_6">
      <!-- 1800 -->
      <g transform="translate(361.345978 254.651989)scale(0.14 -0.14)">
       <use xlink:href="#DejaVuSans-49"/>
       <use x="63.623047" xlink:href="#DejaVuSans-56"/>
       <use x="127.246094" xlink:href="#DejaVuSans-48"/>
       <use x="190.869141" xlink:href="#DejaVuSans-48"/>
      </g>
     </g>
    </g>
    <g id="xtick_7">
     <g id="line2d_13">
      <path clip-path="url(#p74c7ba5d70)" d="M 432.298261 240.514176 
L 432.298261 7.234176 
" style="fill:none;stroke:#000000;stroke-dasharray:6.4,1.6,1,1.6;stroke-dashoffset:0;stroke-opacity:0.2;"/>
     </g>
     <g id="line2d_14"/>
     <g id="text_7">
      <!-- 2000 -->
      <g transform="translate(414.483261 254.651989)scale(0.14 -0.14)">
       <use xlink:href="#DejaVuSans-50"/>
       <use x="63.623047" xlink:href="#DejaVuSans-48"/>
       <use x="127.246094" xlink:href="#DejaVuSans-48"/>
       <use x="190.869141" xlink:href="#DejaVuSans-48"/>
      </g>
     </g>
    </g>
    <g id="text_8">
     <!-- Year -->
     <defs>
      <path d="M -0.203125 72.90625 
L 10.40625 72.90625 
L 30.609375 42.921875 
L 50.6875 72.90625 
L 61.28125 72.90625 
L 35.5 34.71875 
L 35.5 0 
L 25.59375 0 
L 25.59375 34.71875 
z
" id="DejaVuSans-89"/>
      <path d="M 56.203125 29.59375 
L 56.203125 25.203125 
L 14.890625 25.203125 
Q 15.484375 15.921875 20.484375 11.0625 
Q 25.484375 6.203125 34.421875 6.203125 
Q 39.59375 6.203125 44.453125 7.46875 
Q 49.3125 8.734375 54.109375 11.28125 
L 54.109375 2.78125 
Q 49.265625 0.734375 44.1875 -0.34375 
Q 39.109375 -1.421875 33.890625 -1.421875 
Q 20.796875 -1.421875 13.15625 6.1875 
Q 5.515625 13.8125 5.515625 26.8125 
Q 5.515625 40.234375 12.765625 48.109375 
Q 20.015625 56 32.328125 56 
Q 43.359375 56 49.78125 48.890625 
Q 56.203125 41.796875 56.203125 29.59375 
z
M 47.21875 32.234375 
Q 47.125 39.59375 43.09375 43.984375 
Q 39.0625 48.390625 32.421875 48.390625 
Q 24.90625 48.390625 20.390625 44.140625 
Q 15.875 39.890625 15.1875 32.171875 
z
" id="DejaVuSans-101"/>
      <path d="M 34.28125 27.484375 
Q 23.390625 27.484375 19.1875 25 
Q 14.984375 22.515625 14.984375 16.5 
Q 14.984375 11.71875 18.140625 8.90625 
Q 21.296875 6.109375 26.703125 6.109375 
Q 34.1875 6.109375 38.703125 11.40625 
Q 43.21875 16.703125 43.21875 25.484375 
L 43.21875 27.484375 
z
M 52.203125 31.203125 
L 52.203125 0 
L 43.21875 0 
L 43.21875 8.296875 
Q 40.140625 3.328125 35.546875 0.953125 
Q 30.953125 -1.421875 24.3125 -1.421875 
Q 15.921875 -1.421875 10.953125 3.296875 
Q 6 8.015625 6 15.921875 
Q 6 25.140625 12.171875 29.828125 
Q 18.359375 34.515625 30.609375 34.515625 
L 43.21875 34.515625 
L 43.21875 35.40625 
Q 43.21875 41.609375 39.140625 45 
Q 35.0625 48.390625 27.6875 48.390625 
Q 23 48.390625 18.546875 47.265625 
Q 14.109375 46.140625 10.015625 43.890625 
L 10.015625 52.203125 
Q 14.9375 54.109375 19.578125 55.046875 
Q 24.21875 56 28.609375 56 
Q 40.484375 56 46.34375 49.84375 
Q 52.203125 43.703125 52.203125 31.203125 
z
" id="DejaVuSans-97"/>
      <path d="M 41.109375 46.296875 
Q 39.59375 47.171875 37.8125 47.578125 
Q 36.03125 48 33.890625 48 
Q 26.265625 48 22.1875 43.046875 
Q 18.109375 38.09375 18.109375 28.8125 
L 18.109375 0 
L 9.078125 0 
L 9.078125 54.6875 
L 18.109375 54.6875 
L 18.109375 46.1875 
Q 20.953125 51.171875 25.484375 53.578125 
Q 30.03125 56 36.53125 56 
Q 37.453125 56 38.578125 55.875 
Q 39.703125 55.765625 41.0625 55.515625 
z
" id="DejaVuSans-114"/>
     </defs>
     <g transform="translate(247.92588 274.328926)scale(0.168 -0.168)">
      <use xlink:href="#DejaVuSans-89"/>
      <use x="47.833984" xlink:href="#DejaVuSans-101"/>
      <use x="109.357422" xlink:href="#DejaVuSans-97"/>
      <use x="170.636719" xlink:href="#DejaVuSans-114"/>
     </g>
    </g>
   </g>
   <g id="matplotlib.axis_2">
    <g id="ytick_1">
     <g id="line2d_15">
      <path clip-path="url(#p74c7ba5d70)" d="M 77.79288 232.08065 
L 453.63288 232.08065 
" style="fill:none;stroke:#000000;stroke-dasharray:6.4,1.6,1,1.6;stroke-dashoffset:0;stroke-opacity:0.2;"/>
     </g>
     <g id="line2d_16"/>
     <g id="text_9">
      <!-- 0 -->
      <g transform="translate(65.38538 237.399556)scale(0.14 -0.14)">
       <use xlink:href="#DejaVuSans-48"/>
      </g>
     </g>
    </g>
    <g id="ytick_2">
     <g id="line2d_17">
      <path clip-path="url(#p74c7ba5d70)" d="M 77.79288 191.668911 
L 453.63288 191.668911 
" style="fill:none;stroke:#000000;stroke-dasharray:6.4,1.6,1,1.6;stroke-dashoffset:0;stroke-opacity:0.2;"/>
     </g>
     <g id="line2d_18"/>
     <g id="text_10">
      <!-- 10000 -->
      <g transform="translate(29.75538 196.987817)scale(0.14 -0.14)">
       <use xlink:href="#DejaVuSans-49"/>
       <use x="63.623047" xlink:href="#DejaVuSans-48"/>
       <use x="127.246094" xlink:href="#DejaVuSans-48"/>
       <use x="190.869141" xlink:href="#DejaVuSans-48"/>
       <use x="254.492188" xlink:href="#DejaVuSans-48"/>
      </g>
     </g>
    </g>
    <g id="ytick_3">
     <g id="line2d_19">
      <path clip-path="url(#p74c7ba5d70)" d="M 77.79288 151.257171 
L 453.63288 151.257171 
" style="fill:none;stroke:#000000;stroke-dasharray:6.4,1.6,1,1.6;stroke-dashoffset:0;stroke-opacity:0.2;"/>
     </g>
     <g id="line2d_20"/>
     <g id="text_11">
      <!-- 20000 -->
      <g transform="translate(29.75538 156.576077)scale(0.14 -0.14)">
       <use xlink:href="#DejaVuSans-50"/>
       <use x="63.623047" xlink:href="#DejaVuSans-48"/>
       <use x="127.246094" xlink:href="#DejaVuSans-48"/>
       <use x="190.869141" xlink:href="#DejaVuSans-48"/>
       <use x="254.492188" xlink:href="#DejaVuSans-48"/>
      </g>
     </g>
    </g>
    <g id="ytick_4">
     <g id="line2d_21">
      <path clip-path="url(#p74c7ba5d70)" d="M 77.79288 110.845431 
L 453.63288 110.845431 
" style="fill:none;stroke:#000000;stroke-dasharray:6.4,1.6,1,1.6;stroke-dashoffset:0;stroke-opacity:0.2;"/>
     </g>
     <g id="line2d_22"/>
     <g id="text_12">
      <!-- 30000 -->
      <defs>
       <path d="M 40.578125 39.3125 
Q 47.65625 37.796875 51.625 33 
Q 55.609375 28.21875 55.609375 21.1875 
Q 55.609375 10.40625 48.1875 4.484375 
Q 40.765625 -1.421875 27.09375 -1.421875 
Q 22.515625 -1.421875 17.65625 -0.515625 
Q 12.796875 0.390625 7.625 2.203125 
L 7.625 11.71875 
Q 11.71875 9.328125 16.59375 8.109375 
Q 21.484375 6.890625 26.8125 6.890625 
Q 36.078125 6.890625 40.9375 10.546875 
Q 45.796875 14.203125 45.796875 21.1875 
Q 45.796875 27.640625 41.28125 31.265625 
Q 36.765625 34.90625 28.71875 34.90625 
L 20.21875 34.90625 
L 20.21875 43.015625 
L 29.109375 43.015625 
Q 36.375 43.015625 40.234375 45.921875 
Q 44.09375 48.828125 44.09375 54.296875 
Q 44.09375 59.90625 40.109375 62.90625 
Q 36.140625 65.921875 28.71875 65.921875 
Q 24.65625 65.921875 20.015625 65.03125 
Q 15.375 64.15625 9.8125 62.3125 
L 9.8125 71.09375 
Q 15.4375 72.65625 20.34375 73.4375 
Q 25.25 74.21875 29.59375 74.21875 
Q 40.828125 74.21875 47.359375 69.109375 
Q 53.90625 64.015625 53.90625 55.328125 
Q 53.90625 49.265625 50.4375 45.09375 
Q 46.96875 40.921875 40.578125 39.3125 
z
" id="DejaVuSans-51"/>
      </defs>
      <g transform="translate(29.75538 116.164338)scale(0.14 -0.14)">
       <use xlink:href="#DejaVuSans-51"/>
       <use x="63.623047" xlink:href="#DejaVuSans-48"/>
       <use x="127.246094" xlink:href="#DejaVuSans-48"/>
       <use x="190.869141" xlink:href="#DejaVuSans-48"/>
       <use x="254.492188" xlink:href="#DejaVuSans-48"/>
      </g>
     </g>
    </g>
    <g id="ytick_5">
     <g id="line2d_23">
      <path clip-path="url(#p74c7ba5d70)" d="M 77.79288 70.433692 
L 453.63288 70.433692 
" style="fill:none;stroke:#000000;stroke-dasharray:6.4,1.6,1,1.6;stroke-dashoffset:0;stroke-opacity:0.2;"/>
     </g>
     <g id="line2d_24"/>
     <g id="text_13">
      <!-- 40000 -->
      <g transform="translate(29.75538 75.752598)scale(0.14 -0.14)">
       <use xlink:href="#DejaVuSans-52"/>
       <use x="63.623047" xlink:href="#DejaVuSans-48"/>
       <use x="127.246094" xlink:href="#DejaVuSans-48"/>
       <use x="190.869141" xlink:href="#DejaVuSans-48"/>
       <use x="254.492188" xlink:href="#DejaVuSans-48"/>
      </g>
     </g>
    </g>
    <g id="ytick_6">
     <g id="line2d_25">
      <path clip-path="url(#p74c7ba5d70)" d="M 77.79288 30.021952 
L 453.63288 30.021952 
" style="fill:none;stroke:#000000;stroke-dasharray:6.4,1.6,1,1.6;stroke-dashoffset:0;stroke-opacity:0.2;"/>
     </g>
     <g id="line2d_26"/>
     <g id="text_14">
      <!-- 50000 -->
      <defs>
       <path d="M 10.796875 72.90625 
L 49.515625 72.90625 
L 49.515625 64.59375 
L 19.828125 64.59375 
L 19.828125 46.734375 
Q 21.96875 47.46875 24.109375 47.828125 
Q 26.265625 48.1875 28.421875 48.1875 
Q 40.625 48.1875 47.75 41.5 
Q 54.890625 34.8125 54.890625 23.390625 
Q 54.890625 11.625 47.5625 5.09375 
Q 40.234375 -1.421875 26.90625 -1.421875 
Q 22.3125 -1.421875 17.546875 -0.640625 
Q 12.796875 0.140625 7.71875 1.703125 
L 7.71875 11.625 
Q 12.109375 9.234375 16.796875 8.0625 
Q 21.484375 6.890625 26.703125 6.890625 
Q 35.15625 6.890625 40.078125 11.328125 
Q 45.015625 15.765625 45.015625 23.390625 
Q 45.015625 31 40.078125 35.4375 
Q 35.15625 39.890625 26.703125 39.890625 
Q 22.75 39.890625 18.8125 39.015625 
Q 14.890625 38.140625 10.796875 36.28125 
z
" id="DejaVuSans-53"/>
      </defs>
      <g transform="translate(29.75538 35.340858)scale(0.14 -0.14)">
       <use xlink:href="#DejaVuSans-53"/>
       <use x="63.623047" xlink:href="#DejaVuSans-48"/>
       <use x="127.246094" xlink:href="#DejaVuSans-48"/>
       <use x="190.869141" xlink:href="#DejaVuSans-48"/>
       <use x="254.492188" xlink:href="#DejaVuSans-48"/>
      </g>
     </g>
    </g>
    <g id="text_15">
     <!-- GDP per capita -->
     <defs>
      <path d="M 59.515625 10.40625 
L 59.515625 29.984375 
L 43.40625 29.984375 
L 43.40625 38.09375 
L 69.28125 38.09375 
L 69.28125 6.78125 
Q 63.578125 2.734375 56.6875 0.65625 
Q 49.8125 -1.421875 42 -1.421875 
Q 24.90625 -1.421875 15.25 8.5625 
Q 5.609375 18.5625 5.609375 36.375 
Q 5.609375 54.25 15.25 64.234375 
Q 24.90625 74.21875 42 74.21875 
Q 49.125 74.21875 55.546875 72.453125 
Q 61.96875 70.703125 67.390625 67.28125 
L 67.390625 56.78125 
Q 61.921875 61.421875 55.765625 63.765625 
Q 49.609375 66.109375 42.828125 66.109375 
Q 29.4375 66.109375 22.71875 58.640625 
Q 16.015625 51.171875 16.015625 36.375 
Q 16.015625 21.625 22.71875 14.15625 
Q 29.4375 6.6875 42.828125 6.6875 
Q 48.046875 6.6875 52.140625 7.59375 
Q 56.25 8.5 59.515625 10.40625 
z
" id="DejaVuSans-71"/>
      <path d="M 19.671875 64.796875 
L 19.671875 8.109375 
L 31.59375 8.109375 
Q 46.6875 8.109375 53.6875 14.9375 
Q 60.6875 21.78125 60.6875 36.53125 
Q 60.6875 51.171875 53.6875 57.984375 
Q 46.6875 64.796875 31.59375 64.796875 
z
M 9.8125 72.90625 
L 30.078125 72.90625 
Q 51.265625 72.90625 61.171875 64.09375 
Q 71.09375 55.28125 71.09375 36.53125 
Q 71.09375 17.671875 61.125 8.828125 
Q 51.171875 0 30.078125 0 
L 9.8125 0 
z
" id="DejaVuSans-68"/>
      <path d="M 19.671875 64.796875 
L 19.671875 37.40625 
L 32.078125 37.40625 
Q 38.96875 37.40625 42.71875 40.96875 
Q 46.484375 44.53125 46.484375 51.125 
Q 46.484375 57.671875 42.71875 61.234375 
Q 38.96875 64.796875 32.078125 64.796875 
z
M 9.8125 72.90625 
L 32.078125 72.90625 
Q 44.34375 72.90625 50.609375 67.359375 
Q 56.890625 61.8125 56.890625 51.125 
Q 56.890625 40.328125 50.609375 34.8125 
Q 44.34375 29.296875 32.078125 29.296875 
L 19.671875 29.296875 
L 19.671875 0 
L 9.8125 0 
z
" id="DejaVuSans-80"/>
      <path id="DejaVuSans-32"/>
      <path d="M 18.109375 8.203125 
L 18.109375 -20.796875 
L 9.078125 -20.796875 
L 9.078125 54.6875 
L 18.109375 54.6875 
L 18.109375 46.390625 
Q 20.953125 51.265625 25.265625 53.625 
Q 29.59375 56 35.59375 56 
Q 45.5625 56 51.78125 48.09375 
Q 58.015625 40.1875 58.015625 27.296875 
Q 58.015625 14.40625 51.78125 6.484375 
Q 45.5625 -1.421875 35.59375 -1.421875 
Q 29.59375 -1.421875 25.265625 0.953125 
Q 20.953125 3.328125 18.109375 8.203125 
z
M 48.6875 27.296875 
Q 48.6875 37.203125 44.609375 42.84375 
Q 40.53125 48.484375 33.40625 48.484375 
Q 26.265625 48.484375 22.1875 42.84375 
Q 18.109375 37.203125 18.109375 27.296875 
Q 18.109375 17.390625 22.1875 11.75 
Q 26.265625 6.109375 33.40625 6.109375 
Q 40.53125 6.109375 44.609375 11.75 
Q 48.6875 17.390625 48.6875 27.296875 
z
" id="DejaVuSans-112"/>
      <path d="M 48.78125 52.59375 
L 48.78125 44.1875 
Q 44.96875 46.296875 41.140625 47.34375 
Q 37.3125 48.390625 33.40625 48.390625 
Q 24.65625 48.390625 19.8125 42.84375 
Q 14.984375 37.3125 14.984375 27.296875 
Q 14.984375 17.28125 19.8125 11.734375 
Q 24.65625 6.203125 33.40625 6.203125 
Q 37.3125 6.203125 41.140625 7.25 
Q 44.96875 8.296875 48.78125 10.40625 
L 48.78125 2.09375 
Q 45.015625 0.34375 40.984375 -0.53125 
Q 36.96875 -1.421875 32.421875 -1.421875 
Q 20.0625 -1.421875 12.78125 6.34375 
Q 5.515625 14.109375 5.515625 27.296875 
Q 5.515625 40.671875 12.859375 48.328125 
Q 20.21875 56 33.015625 56 
Q 37.15625 56 41.109375 55.140625 
Q 45.0625 54.296875 48.78125 52.59375 
z
" id="DejaVuSans-99"/>
      <path d="M 9.421875 54.6875 
L 18.40625 54.6875 
L 18.40625 0 
L 9.421875 0 
z
M 9.421875 75.984375 
L 18.40625 75.984375 
L 18.40625 64.59375 
L 9.421875 64.59375 
z
" id="DejaVuSans-105"/>
      <path d="M 18.3125 70.21875 
L 18.3125 54.6875 
L 36.8125 54.6875 
L 36.8125 47.703125 
L 18.3125 47.703125 
L 18.3125 18.015625 
Q 18.3125 11.328125 20.140625 9.421875 
Q 21.96875 7.515625 27.59375 7.515625 
L 36.8125 7.515625 
L 36.8125 0 
L 27.59375 0 
Q 17.1875 0 13.234375 3.875 
Q 9.28125 7.765625 9.28125 18.015625 
L 9.28125 47.703125 
L 2.6875 47.703125 
L 2.6875 54.6875 
L 9.28125 54.6875 
L 9.28125 70.21875 
z
" id="DejaVuSans-116"/>
     </defs>
     <g transform="translate(22.261505 187.082864)rotate(-90)scale(0.168 -0.168)">
      <use xlink:href="#DejaVuSans-71"/>
      <use x="77.490234" xlink:href="#DejaVuSans-68"/>
      <use x="154.492188" xlink:href="#DejaVuSans-80"/>
      <use x="214.794922" xlink:href="#DejaVuSans-32"/>
      <use x="246.582031" xlink:href="#DejaVuSans-112"/>
      <use x="310.058594" xlink:href="#DejaVuSans-101"/>
      <use x="371.582031" xlink:href="#DejaVuSans-114"/>
      <use x="412.695312" xlink:href="#DejaVuSans-32"/>
      <use x="444.482422" xlink:href="#DejaVuSans-99"/>
      <use x="499.462891" xlink:href="#DejaVuSans-97"/>
      <use x="560.742188" xlink:href="#DejaVuSans-112"/>
      <use x="624.21875" xlink:href="#DejaVuSans-105"/>
      <use x="652.001953" xlink:href="#DejaVuSans-116"/>
      <use x="691.210938" xlink:href="#DejaVuSans-97"/>
     </g>
    </g>
   </g>
   <g id="line2d_27">
    <path clip-path="url(#p74c7ba5d70)" d="M 342.230567 228.281947 
L 370.12764 229.308405 
L 382.349215 229.558958 
L 384.474707 229.08614 
L 385.803139 229.18717 
L 392.445299 229.482175 
L 397.759027 229.045729 
L 402.275696 229.009358 
L 403.072756 228.807299 
L 405.72962 228.686064 
L 408.65217 228.831546 
L 408.917857 228.677982 
L 409.183543 228.520376 
L 413.434526 228.241535 
L 413.700212 228.193041 
L 413.965898 228.168794 
L 414.231585 228.063723 
L 414.497271 228.50017 
L 414.762958 228.435511 
L 415.028644 228.148588 
L 415.294331 227.926323 
L 415.560017 228.0516 
L 415.825703 228.180917 
L 419.01394 229.021482 
L 419.279627 228.447635 
L 419.545313 228.083929 
L 419.811 227.643441 
L 420.076686 228.083929 
L 420.342372 227.788923 
L 420.608059 227.631318 
L 420.873745 227.623235 
L 421.139432 227.744471 
L 421.405118 228.08797 
L 421.670804 228.350647 
L 421.936491 228.851752 
L 422.202177 228.580994 
L 422.467864 228.241535 
L 422.73355 227.837418 
L 422.999237 227.497959 
L 423.264923 227.445424 
L 423.530609 227.429259 
L 423.796296 227.663647 
L 424.061982 227.344394 
L 424.327669 226.863495 
L 424.593355 226.604859 
L 424.859041 226.798836 
L 425.124728 226.53616 
L 425.390414 226.511912 
L 425.656101 226.321977 
L 425.921787 226.487665 
L 426.187473 226.370471 
L 426.45316 225.683472 
L 426.718846 225.420795 
L 426.984533 225.251066 
L 427.250219 225.311684 
L 427.515906 224.701467 
L 427.781592 224.374131 
L 428.047278 223.513361 
L 428.312965 222.745538 
L 428.578651 222.345462 
L 428.844338 221.937304 
L 429.110024 221.690792 
L 429.37571 221.941345 
L 429.641397 222.139362 
L 429.907083 221.775657 
L 430.17277 221.044204 
L 430.438456 219.969252 
L 430.704143 219.41157 
L 430.969829 218.736694 
L 431.235515 217.960788 
L 431.501202 217.774894 
L 431.766888 217.718318 
L 432.032575 216.86563 
L 432.298261 215.629031 
L 432.563947 214.299485 
L 432.829634 212.711303 
L 433.09532 211.381757 
L 433.361007 209.470282 
L 433.626693 206.46769 
L 433.892379 204.047026 
L 434.158066 201.844587 
L 434.423752 200.797923 
L 434.689439 198.159036 
L 434.955125 193.790527 
L 435.220812 190.775811 
L 435.486498 189.025983 
L 435.752184 187.272113 
L 436.017871 184.766585 
L 436.283557 183.57848 
L 436.549244 182.293387 
" style="fill:none;stroke:#f47915;stroke-width:2;"/>
   </g>
   <g id="line2d_28">
    <path clip-path="url(#p74c7ba5d70)" d="M 166.611848 229.013399 
L 352.592337 225.651142 
L 352.858023 225.117707 
L 353.12371 225.344013 
L 353.389396 225.832995 
L 353.655083 224.677219 
L 353.920769 225.069213 
L 354.186456 226.164372 
L 354.717828 225.053049 
L 355.249201 226.57253 
L 355.514888 226.071425 
L 355.780574 226.063342 
L 356.04626 226.334101 
L 356.311947 225.78046 
L 356.577633 225.962313 
L 357.109006 225.461207 
L 357.374692 225.133872 
L 357.640379 225.303601 
L 357.906065 224.846949 
L 358.171752 225.121749 
L 358.437438 225.053049 
L 358.968811 225.339972 
L 359.234497 225.190449 
L 359.500184 225.457166 
L 359.76587 225.53799 
L 360.031557 225.271272 
L 360.297243 225.546072 
L 360.562929 225.315725 
L 360.828616 225.416754 
L 361.094302 225.004555 
L 361.359989 224.887361 
L 361.625675 224.984349 
L 361.891362 225.214696 
L 362.157048 224.762084 
L 362.422734 225.198531 
L 362.688421 225.101543 
L 363.219794 225.344013 
L 363.751166 224.931813 
L 364.282539 225.242984 
L 364.548226 225.210654 
L 365.079598 224.749961 
L 365.610971 224.935855 
L 365.876658 224.879278 
L 366.142344 225.077296 
L 366.408031 224.778249 
L 366.673717 224.766125 
L 366.939403 225.020719 
L 367.20509 224.855031 
L 367.470776 225.032843 
L 367.736463 224.661055 
L 368.533522 224.309473 
L 368.799208 224.054879 
L 369.064895 224.305431 
L 369.596267 224.353926 
L 369.861954 224.475161 
L 370.659013 224.321596 
L 370.9247 223.933643 
L 371.190386 224.212484 
L 371.456072 224.115496 
L 371.721759 224.374131 
L 371.987445 224.297349 
L 372.253132 224.523655 
L 373.050191 224.034673 
L 373.581564 224.269061 
L 373.84725 223.953849 
L 374.112937 223.812408 
L 374.644309 224.014467 
L 375.441369 224.131661 
L 375.972741 224.450914 
L 376.238428 224.382214 
L 376.504114 223.893232 
L 376.769801 223.957891 
L 377.035487 223.727544 
L 377.56686 224.281184 
L 377.832546 223.529526 
L 378.098233 223.464867 
L 378.363919 223.638638 
L 378.629606 223.654802 
L 378.895292 223.533567 
L 379.160978 223.169862 
L 379.692351 223.121368 
L 380.223724 223.54165 
L 380.48941 223.153697 
L 380.755097 223.319385 
L 381.020783 222.874856 
L 381.28647 223.416373 
L 381.552156 223.262809 
L 381.817842 222.810197 
L 382.083529 223.024379 
L 382.349215 223.529526 
L 382.614902 223.206232 
L 382.880588 223.537608 
L 383.146275 222.777868 
L 383.411961 223.416373 
L 383.677647 223.408291 
L 383.943334 223.545691 
L 384.20902 223.808367 
L 384.474707 223.26685 
L 385.006079 223.242603 
L 385.271766 223.125409 
L 385.537452 222.769785 
L 385.803139 222.693003 
L 386.068825 223.311303 
L 386.334512 222.753621 
L 386.865884 222.903144 
L 387.131571 222.616221 
L 387.397257 222.628344 
L 387.662944 222.450533 
L 387.92863 222.486903 
L 388.194316 222.377792 
L 388.460003 221.78778 
L 388.725689 221.585721 
L 388.991376 221.799904 
L 389.257062 221.517021 
L 389.522748 221.735245 
L 389.788435 221.367498 
L 390.319808 221.929221 
L 390.585494 221.553392 
L 390.851181 220.765363 
L 391.116867 220.385493 
L 391.64824 220.793651 
L 392.179613 220.292546 
L 392.445299 220.530975 
L 393.508045 218.991288 
L 393.773731 219.423693 
L 394.039418 218.716488 
L 394.305104 218.700323 
L 394.57079 219.076152 
L 394.836477 218.667994 
L 395.102163 218.522512 
L 395.36785 218.6882 
L 395.633536 219.37924 
L 395.899222 218.31237 
L 396.696282 217.548589 
L 396.961968 217.62133 
L 397.227654 217.055565 
L 397.493341 217.059607 
L 397.759027 216.538295 
L 398.2904 216.703983 
L 399.087459 216.016984 
L 399.884519 216.008901 
L 400.150205 216.194795 
L 400.681578 215.063267 
L 400.947264 214.655108 
L 401.478637 214.651067 
L 401.744323 214.828879 
L 402.01001 214.647026 
L 402.541383 213.329603 
L 402.807069 212.416298 
L 403.338442 212.541574 
L 403.604128 213.119462 
L 403.869815 213.236656 
L 404.135501 212.101086 
L 405.198247 209.866317 
L 405.463933 209.102535 
L 405.995306 209.563229 
L 406.260993 209.1187 
L 406.526679 209.490488 
L 406.792365 209.490488 
L 407.589425 208.011418 
L 407.855111 209.130823 
L 408.120797 208.750953 
L 409.183543 206.245425 
L 409.449229 206.370701 
L 409.714916 204.628955 
L 409.980602 204.293538 
L 410.511975 204.245044 
L 410.777662 207.43353 
L 411.043348 209.22377 
L 411.309034 209.850152 
L 411.574721 207.772989 
L 412.106094 206.035284 
L 412.37178 204.721902 
L 412.637466 205.703908 
L 412.903153 203.545921 
L 413.168839 203.186256 
L 413.434526 202.256786 
L 413.700212 202.576039 
L 413.965898 204.19655 
L 414.231585 204.123809 
L 414.497271 203.400439 
L 415.028644 200.523123 
L 415.560017 198.199448 
L 415.825703 197.908483 
L 416.09139 197.908483 
L 416.622763 191.200134 
L 417.154135 189.708941 
L 417.951195 195.095826 
L 418.216881 195.843443 
L 418.482568 195.043291 
L 418.748254 193.863268 
L 419.01394 193.927927 
L 419.279627 193.289421 
L 419.545313 193.661209 
L 420.342372 188.520836 
L 420.873745 187.114507 
L 421.139432 187.094302 
L 421.936491 182.030711 
L 422.202177 181.865023 
L 422.467864 180.155606 
L 422.73355 177.472266 
L 423.796296 173.039099 
L 424.327669 168.573601 
L 424.593355 168.622095 
L 424.859041 167.207685 
L 425.124728 162.911917 
L 425.390414 164.091939 
L 425.656101 164.411192 
L 426.187473 158.781837 
L 426.718846 150.735859 
L 426.984533 148.860755 
L 427.250219 151.3582 
L 427.515906 151.802729 
L 428.047278 150.166054 
L 428.578651 145.991521 
L 429.110024 138.830561 
L 429.641397 135.084393 
L 429.907083 136.320992 
L 430.17277 135.852216 
L 430.704143 129.624767 
L 431.235515 119.837043 
L 431.501202 111.492019 
L 432.032575 101.772996 
L 432.298261 93.104678 
L 432.563947 89.904068 
L 432.829634 89.087751 
L 433.09532 89.208986 
L 433.361007 85.305212 
L 433.626693 79.631404 
L 433.892379 77.501705 
L 434.158066 78.229116 
L 434.423752 79.902162 
L 434.689439 87.689504 
L 434.955125 90.170785 
L 435.220812 90.756756 
L 435.486498 87.471281 
L 435.752184 79.720309 
L 436.549244 73.820195 
L 436.549244 73.820195 
" style="fill:none;stroke:#165aa7;stroke-width:2;"/>
   </g>
   <g id="line2d_29">
    <path clip-path="url(#p74c7ba5d70)" d="M 326.023696 226.806918 
L 339.308016 227.118089 
L 352.592337 227.231241 
L 365.876658 227.623235 
L 379.426665 227.768718 
L 384.740393 228.168794 
L 392.710985 228.128382 
L 397.759027 228.532499 
L 402.01001 228.148588 
L 402.275696 227.958653 
L 402.541383 227.910159 
L 402.807069 228.015229 
L 403.072756 227.81317 
L 403.338442 228.197082 
L 403.604128 227.873788 
L 404.135501 227.675771 
L 404.401188 227.772759 
L 404.666874 228.079888 
L 404.93256 227.336312 
L 405.198247 227.316106 
L 405.463933 227.675771 
L 405.995306 227.425218 
L 406.260993 227.045347 
L 406.792365 226.968565 
L 407.058052 227.069594 
L 407.323738 226.936236 
L 407.589425 227.25953 
L 407.855111 227.198912 
L 408.120797 226.540201 
L 408.917857 226.556365 
L 409.183543 226.665477 
L 409.449229 226.354307 
L 409.714916 226.475542 
L 409.980602 226.293689 
L 410.246289 226.382595 
L 410.511975 227.093842 
L 410.777662 226.386636 
L 411.043348 226.823083 
L 411.574721 226.233071 
L 411.840407 226.459377 
L 412.106094 226.216907 
L 412.37178 226.184577 
L 412.637466 226.039095 
L 413.168839 226.051219 
L 413.434526 225.841078 
L 414.231585 225.934025 
L 415.028644 226.115877 
L 415.294331 225.946148 
L 415.825703 226.156289 
L 417.154135 225.78046 
L 417.685508 226.043136 
L 417.951195 226.406842 
L 418.482568 226.410883 
L 418.748254 226.321977 
L 419.811 226.378554 
L 420.076686 226.346224 
L 420.342372 226.455336 
L 420.608059 226.301771 
L 420.873745 226.588695 
L 421.139432 226.451295 
L 421.405118 226.612942 
L 421.670804 226.410883 
L 422.467864 226.600818 
L 422.73355 226.46746 
L 422.999237 226.920071 
L 423.264923 227.097883 
L 423.530609 226.940277 
L 423.796296 227.097883 
L 424.859041 227.077677 
L 425.124728 226.823083 
L 425.390414 226.972606 
L 425.656101 226.576571 
L 425.921787 226.810959 
L 426.45316 227.077677 
L 426.718846 227.510082 
L 426.984533 227.461588 
L 428.047278 227.898035 
L 428.312965 227.954612 
L 428.844338 227.659606 
L 429.641397 226.895824 
L 429.907083 226.839248 
L 430.704143 226.083548 
L 431.766888 224.624684 
L 432.829634 223.283014 
L 433.361007 221.969633 
L 434.689439 216.174589 
L 435.220812 212.812333 
L 435.486498 211.979851 
L 435.752184 211.664639 
L 436.283557 209.29247 
L 436.549244 207.991212 
L 436.549244 207.991212 
" style="fill:none;stroke:#06ab54;stroke-width:2;"/>
   </g>
   <g id="line2d_30">
    <path clip-path="url(#p74c7ba5d70)" d="M 94.876516 229.91054 
L 206.46481 229.276075 
L 286.170734 229.239705 
L 326.023696 228.985111 
L 339.308016 229.065934 
L 352.592337 228.686064 
L 365.876658 228.851752 
L 392.445299 228.403182 
L 398.821773 227.999064 
L 399.087459 227.7081 
L 399.353146 227.8455 
L 399.618832 227.748512 
L 399.884519 227.797006 
L 400.415891 227.421177 
L 400.681578 227.603029 
L 401.212951 227.562618 
L 401.478637 227.5707 
L 401.744323 227.437341 
L 402.275696 226.944318 
L 402.541383 227.2272 
L 402.807069 227.045347 
L 403.072756 226.621024 
L 403.338442 226.920071 
L 403.604128 226.616983 
L 403.869815 226.637189 
L 404.135501 226.039095 
L 404.401188 226.018889 
L 404.666874 226.406842 
L 404.93256 226.350266 
L 405.198247 225.339972 
L 405.463933 225.909778 
L 405.995306 225.570319 
L 406.260993 225.98656 
L 406.526679 225.64306 
L 406.792365 225.667307 
L 407.058052 225.837036 
L 407.323738 225.081337 
L 407.589425 224.927772 
L 408.386484 225.044966 
L 408.917857 224.612561 
L 409.183543 224.596396 
L 409.449229 224.91969 
L 409.714916 224.366049 
L 409.980602 223.283014 
L 410.246289 223.093079 
L 410.511975 223.076915 
L 410.777662 222.220186 
L 411.043348 222.927391 
L 411.309034 222.046415 
L 411.840407 222.317174 
L 412.637466 221.977715 
L 412.903153 221.989839 
L 413.168839 221.327086 
L 413.434526 221.149275 
L 413.700212 222.094909 
L 413.965898 222.163609 
L 414.497271 220.623922 
L 414.762958 220.757281 
L 415.028644 220.636046 
L 415.825703 218.910464 
L 416.09139 216.954536 
L 416.357076 216.663572 
L 416.622763 216.687819 
L 416.888449 216.998989 
L 417.154135 216.998989 
L 417.419822 217.888047 
L 417.685508 224.903525 
L 418.216881 223.885149 
L 418.482568 222.915268 
L 418.748254 222.531356 
L 419.01394 221.900933 
L 419.545313 219.609587 
L 420.076686 218.514429 
L 420.873745 215.645196 
L 421.405118 213.281109 
L 423.264923 197.625601 
L 423.796296 189.502841 
L 424.327669 179.933341 
L 424.593355 177.439937 
L 425.124728 169.632389 
L 425.390414 171.054882 
L 425.921787 165.36895 
L 426.984533 149.608372 
L 427.781592 155.088204 
L 428.047278 155.714586 
L 428.312965 155.229645 
L 429.641397 125.632087 
L 429.907083 118.479209 
L 431.235515 100.580849 
L 431.501202 100.087826 
L 431.766888 102.229648 
L 432.032575 102.843907 
L 432.298261 97.533804 
L 432.563947 98.374368 
L 432.829634 97.853057 
L 433.09532 96.394193 
L 433.626693 89.459539 
L 433.892379 88.32801 
L 434.158066 86.380164 
L 434.423752 89.60098 
L 434.689439 95.497053 
L 434.955125 88.711921 
L 435.220812 90.724426 
L 435.486498 90.061674 
L 435.752184 88.643222 
L 436.017871 88.416916 
L 436.549244 84.771777 
L 436.549244 84.771777 
" style="fill:none;stroke:#bb60d5;stroke-width:2;"/>
   </g>
   <g id="line2d_31">
    <path clip-path="url(#p74c7ba5d70)" d="M 339.308016 228.455717 
L 357.906065 226.524036 
L 372.518818 224.47112 
L 379.160978 224.079126 
L 379.692351 223.796244 
L 379.958038 223.937685 
L 380.223724 223.941726 
L 381.020783 223.537608 
L 381.28647 224.139743 
L 381.817842 223.513361 
L 382.083529 223.339591 
L 382.349215 223.493156 
L 383.146275 223.270891 
L 383.411961 223.626514 
L 384.740393 223.54165 
L 385.006079 223.307262 
L 385.271766 223.40425 
L 385.803139 222.971844 
L 386.600198 222.870815 
L 386.865884 223.173903 
L 387.397257 221.941345 
L 387.92863 221.205851 
L 388.194316 221.727162 
L 388.460003 221.331127 
L 388.725689 221.173522 
L 388.991376 221.517021 
L 389.257062 221.609968 
L 389.522748 221.100781 
L 389.788435 221.642298 
L 390.319808 221.949427 
L 390.585494 221.78778 
L 390.851181 221.230098 
L 391.913926 220.40974 
L 392.179613 220.708787 
L 392.445299 220.664334 
L 392.976672 219.597464 
L 393.242358 218.744776 
L 393.508045 218.704364 
L 393.773731 218.99937 
L 394.039418 218.72457 
L 394.305104 219.015535 
L 394.57079 218.954917 
L 395.102163 218.239629 
L 395.36785 218.526553 
L 395.633536 218.102229 
L 395.899222 217.197006 
L 396.164909 216.708024 
L 396.430595 217.504136 
L 396.696282 217.617289 
L 396.961968 217.14043 
L 397.227654 216.946454 
L 397.493341 216.542336 
L 397.759027 216.982824 
L 398.556087 215.996778 
L 398.821773 216.473636 
L 399.087459 216.033148 
L 399.353146 216.206919 
L 399.618832 216.053354 
L 399.884519 215.738143 
L 400.415891 212.416298 
L 400.681578 212.222321 
L 400.947264 211.466622 
L 401.212951 211.462581 
L 401.478637 211.575733 
L 401.744323 211.886904 
L 402.01001 211.73738 
L 402.275696 211.280728 
L 402.541383 211.814163 
L 402.807069 211.001887 
L 403.072756 211.131204 
L 403.338442 210.666469 
L 403.604128 209.058082 
L 404.135501 211.616145 
L 404.401188 209.575352 
L 404.666874 210.436122 
L 404.93256 208.799447 
L 405.198247 208.738829 
L 405.463933 207.061742 
L 405.72962 206.815231 
L 405.995306 204.511761 
L 406.260993 204.778479 
L 406.526679 203.974285 
L 406.792365 204.847179 
L 407.058052 203.412562 
L 407.323738 200.713058 
L 407.589425 200.801964 
L 407.855111 203.913668 
L 408.120797 201.092928 
L 408.386484 201.424305 
L 408.65217 200.919158 
L 409.183543 199.3431 
L 409.449229 202.44268 
L 409.714916 202.038563 
L 409.980602 198.369177 
L 410.246289 199.670435 
L 410.511975 197.132578 
L 410.777662 196.999219 
L 411.043348 197.791289 
L 411.309034 199.209741 
L 411.574721 197.868071 
L 411.840407 194.012791 
L 412.37178 193.281339 
L 412.637466 191.305205 
L 413.168839 191.507264 
L 413.434526 189.474553 
L 414.231585 201.670816 
L 414.497271 202.701315 
L 414.762958 200.252364 
L 415.560017 189.850382 
L 415.825703 192.489269 
L 416.357076 186.387096 
L 417.154135 169.878901 
L 417.419822 165.801356 
L 417.685508 167.454196 
L 417.951195 173.600822 
L 418.216881 175.273868 
L 418.482568 173.245198 
L 418.748254 175.051603 
L 419.279627 166.912679 
L 419.545313 165.631627 
L 419.811 163.71611 
L 420.076686 165.348745 
L 420.342372 161.885458 
L 420.873745 161.735935 
L 421.139432 163.602957 
L 421.405118 159.739595 
L 421.936491 158.632313 
L 422.999237 145.639939 
L 423.264923 141.037042 
L 423.530609 139.772155 
L 424.061982 134.300405 
L 424.327669 135.262204 
L 424.593355 133.496211 
L 425.124728 124.573299 
L 425.656101 127.187939 
L 426.718846 111.043449 
L 426.984533 112.409366 
L 427.250219 110.619126 
L 427.515906 114.033918 
L 427.781592 110.202885 
L 428.047278 102.455954 
L 429.37571 83.539219 
L 429.641397 82.629955 
L 429.907083 84.723283 
L 431.235515 68.760646 
L 432.298261 46.643301 
L 432.563947 46.679671 
L 432.829634 45.107654 
L 433.09532 41.506968 
L 433.626693 31.416157 
L 433.892379 28.041777 
L 434.158066 26.376813 
L 434.423752 28.906588 
L 434.689439 36.273648 
L 434.955125 32.984133 
L 435.220812 31.335334 
L 436.549244 17.837812 
L 436.549244 17.837812 
" style="fill:none;stroke:#cb495c;stroke-width:2;"/>
   </g>
   <g id="text_16">
    <!-- United Kingdom -->
    <defs>
     <path d="M 8.6875 72.90625 
L 18.609375 72.90625 
L 18.609375 28.609375 
Q 18.609375 16.890625 22.84375 11.734375 
Q 27.09375 6.59375 36.625 6.59375 
Q 46.09375 6.59375 50.34375 11.734375 
Q 54.59375 16.890625 54.59375 28.609375 
L 54.59375 72.90625 
L 64.5 72.90625 
L 64.5 27.390625 
Q 64.5 13.140625 57.4375 5.859375 
Q 50.390625 -1.421875 36.625 -1.421875 
Q 22.796875 -1.421875 15.734375 5.859375 
Q 8.6875 13.140625 8.6875 27.390625 
z
" id="DejaVuSans-85"/>
     <path d="M 54.890625 33.015625 
L 54.890625 0 
L 45.90625 0 
L 45.90625 32.71875 
Q 45.90625 40.484375 42.875 44.328125 
Q 39.84375 48.1875 33.796875 48.1875 
Q 26.515625 48.1875 22.3125 43.546875 
Q 18.109375 38.921875 18.109375 30.90625 
L 18.109375 0 
L 9.078125 0 
L 9.078125 54.6875 
L 18.109375 54.6875 
L 18.109375 46.1875 
Q 21.34375 51.125 25.703125 53.5625 
Q 30.078125 56 35.796875 56 
Q 45.21875 56 50.046875 50.171875 
Q 54.890625 44.34375 54.890625 33.015625 
z
" id="DejaVuSans-110"/>
     <path d="M 45.40625 46.390625 
L 45.40625 75.984375 
L 54.390625 75.984375 
L 54.390625 0 
L 45.40625 0 
L 45.40625 8.203125 
Q 42.578125 3.328125 38.25 0.953125 
Q 33.9375 -1.421875 27.875 -1.421875 
Q 17.96875 -1.421875 11.734375 6.484375 
Q 5.515625 14.40625 5.515625 27.296875 
Q 5.515625 40.1875 11.734375 48.09375 
Q 17.96875 56 27.875 56 
Q 33.9375 56 38.25 53.625 
Q 42.578125 51.265625 45.40625 46.390625 
z
M 14.796875 27.296875 
Q 14.796875 17.390625 18.875 11.75 
Q 22.953125 6.109375 30.078125 6.109375 
Q 37.203125 6.109375 41.296875 11.75 
Q 45.40625 17.390625 45.40625 27.296875 
Q 45.40625 37.203125 41.296875 42.84375 
Q 37.203125 48.484375 30.078125 48.484375 
Q 22.953125 48.484375 18.875 42.84375 
Q 14.796875 37.203125 14.796875 27.296875 
z
" id="DejaVuSans-100"/>
     <path d="M 9.8125 72.90625 
L 19.671875 72.90625 
L 19.671875 42.09375 
L 52.390625 72.90625 
L 65.09375 72.90625 
L 28.90625 38.921875 
L 67.671875 0 
L 54.6875 0 
L 19.671875 35.109375 
L 19.671875 0 
L 9.8125 0 
z
" id="DejaVuSans-75"/>
     <path d="M 45.40625 27.984375 
Q 45.40625 37.75 41.375 43.109375 
Q 37.359375 48.484375 30.078125 48.484375 
Q 22.859375 48.484375 18.828125 43.109375 
Q 14.796875 37.75 14.796875 27.984375 
Q 14.796875 18.265625 18.828125 12.890625 
Q 22.859375 7.515625 30.078125 7.515625 
Q 37.359375 7.515625 41.375 12.890625 
Q 45.40625 18.265625 45.40625 27.984375 
z
M 54.390625 6.78125 
Q 54.390625 -7.171875 48.1875 -13.984375 
Q 42 -20.796875 29.203125 -20.796875 
Q 24.46875 -20.796875 20.265625 -20.09375 
Q 16.0625 -19.390625 12.109375 -17.921875 
L 12.109375 -9.1875 
Q 16.0625 -11.328125 19.921875 -12.34375 
Q 23.78125 -13.375 27.78125 -13.375 
Q 36.625 -13.375 41.015625 -8.765625 
Q 45.40625 -4.15625 45.40625 5.171875 
L 45.40625 9.625 
Q 42.625 4.78125 38.28125 2.390625 
Q 33.9375 0 27.875 0 
Q 17.828125 0 11.671875 7.65625 
Q 5.515625 15.328125 5.515625 27.984375 
Q 5.515625 40.671875 11.671875 48.328125 
Q 17.828125 56 27.875 56 
Q 33.9375 56 38.28125 53.609375 
Q 42.625 51.21875 45.40625 46.390625 
L 45.40625 54.6875 
L 54.390625 54.6875 
z
" id="DejaVuSans-103"/>
     <path d="M 30.609375 48.390625 
Q 23.390625 48.390625 19.1875 42.75 
Q 14.984375 37.109375 14.984375 27.296875 
Q 14.984375 17.484375 19.15625 11.84375 
Q 23.34375 6.203125 30.609375 6.203125 
Q 37.796875 6.203125 41.984375 11.859375 
Q 46.1875 17.53125 46.1875 27.296875 
Q 46.1875 37.015625 41.984375 42.703125 
Q 37.796875 48.390625 30.609375 48.390625 
z
M 30.609375 56 
Q 42.328125 56 49.015625 48.375 
Q 55.71875 40.765625 55.71875 27.296875 
Q 55.71875 13.875 49.015625 6.21875 
Q 42.328125 -1.421875 30.609375 -1.421875 
Q 18.84375 -1.421875 12.171875 6.21875 
Q 5.515625 13.875 5.515625 27.296875 
Q 5.515625 40.765625 12.171875 48.375 
Q 18.84375 56 30.609375 56 
z
" id="DejaVuSans-111"/>
     <path d="M 52 44.1875 
Q 55.375 50.25 60.0625 53.125 
Q 64.75 56 71.09375 56 
Q 79.640625 56 84.28125 50.015625 
Q 88.921875 44.046875 88.921875 33.015625 
L 88.921875 0 
L 79.890625 0 
L 79.890625 32.71875 
Q 79.890625 40.578125 77.09375 44.375 
Q 74.3125 48.1875 68.609375 48.1875 
Q 61.625 48.1875 57.5625 43.546875 
Q 53.515625 38.921875 53.515625 30.90625 
L 53.515625 0 
L 44.484375 0 
L 44.484375 32.71875 
Q 44.484375 40.625 41.703125 44.40625 
Q 38.921875 48.1875 33.109375 48.1875 
Q 26.21875 48.1875 22.15625 43.53125 
Q 18.109375 38.875 18.109375 30.90625 
L 18.109375 0 
L 9.078125 0 
L 9.078125 54.6875 
L 18.109375 54.6875 
L 18.109375 46.1875 
Q 21.1875 51.21875 25.484375 53.609375 
Q 29.78125 56 35.6875 56 
Q 41.65625 56 45.828125 52.96875 
Q 50 49.953125 52 44.1875 
z
" id="DejaVuSans-109"/>
    </defs>
    <g style="fill:#165aa7;" transform="translate(437.611989 73.820195)scale(0.14 -0.14)">
     <use xlink:href="#DejaVuSans-85"/>
     <use x="73.193359" xlink:href="#DejaVuSans-110"/>
     <use x="136.572266" xlink:href="#DejaVuSans-105"/>
     <use x="164.355469" xlink:href="#DejaVuSans-116"/>
     <use x="203.564453" xlink:href="#DejaVuSans-101"/>
     <use x="265.087891" xlink:href="#DejaVuSans-100"/>
     <use x="328.564453" xlink:href="#DejaVuSans-32"/>
     <use x="360.351562" xlink:href="#DejaVuSans-75"/>
     <use x="425.927734" xlink:href="#DejaVuSans-105"/>
     <use x="453.710938" xlink:href="#DejaVuSans-110"/>
     <use x="517.089844" xlink:href="#DejaVuSans-103"/>
     <use x="580.566406" xlink:href="#DejaVuSans-100"/>
     <use x="644.042969" xlink:href="#DejaVuSans-111"/>
     <use x="705.224609" xlink:href="#DejaVuSans-109"/>
    </g>
   </g>
   <g id="text_17">
    <!-- United States -->
    <defs>
     <path d="M 53.515625 70.515625 
L 53.515625 60.890625 
Q 47.90625 63.578125 42.921875 64.890625 
Q 37.9375 66.21875 33.296875 66.21875 
Q 25.25 66.21875 20.875 63.09375 
Q 16.5 59.96875 16.5 54.203125 
Q 16.5 49.359375 19.40625 46.890625 
Q 22.3125 44.4375 30.421875 42.921875 
L 36.375 41.703125 
Q 47.40625 39.59375 52.65625 34.296875 
Q 57.90625 29 57.90625 20.125 
Q 57.90625 9.515625 50.796875 4.046875 
Q 43.703125 -1.421875 29.984375 -1.421875 
Q 24.8125 -1.421875 18.96875 -0.25 
Q 13.140625 0.921875 6.890625 3.21875 
L 6.890625 13.375 
Q 12.890625 10.015625 18.65625 8.296875 
Q 24.421875 6.59375 29.984375 6.59375 
Q 38.421875 6.59375 43.015625 9.90625 
Q 47.609375 13.234375 47.609375 19.390625 
Q 47.609375 24.75 44.3125 27.78125 
Q 41.015625 30.8125 33.5 32.328125 
L 27.484375 33.5 
Q 16.453125 35.6875 11.515625 40.375 
Q 6.59375 45.0625 6.59375 53.421875 
Q 6.59375 63.09375 13.40625 68.65625 
Q 20.21875 74.21875 32.171875 74.21875 
Q 37.3125 74.21875 42.625 73.28125 
Q 47.953125 72.359375 53.515625 70.515625 
z
" id="DejaVuSans-83"/>
     <path d="M 44.28125 53.078125 
L 44.28125 44.578125 
Q 40.484375 46.53125 36.375 47.5 
Q 32.28125 48.484375 27.875 48.484375 
Q 21.1875 48.484375 17.84375 46.4375 
Q 14.5 44.390625 14.5 40.28125 
Q 14.5 37.15625 16.890625 35.375 
Q 19.28125 33.59375 26.515625 31.984375 
L 29.59375 31.296875 
Q 39.15625 29.25 43.1875 25.515625 
Q 47.21875 21.78125 47.21875 15.09375 
Q 47.21875 7.46875 41.1875 3.015625 
Q 35.15625 -1.421875 24.609375 -1.421875 
Q 20.21875 -1.421875 15.453125 -0.5625 
Q 10.6875 0.296875 5.421875 2 
L 5.421875 11.28125 
Q 10.40625 8.6875 15.234375 7.390625 
Q 20.0625 6.109375 24.8125 6.109375 
Q 31.15625 6.109375 34.5625 8.28125 
Q 37.984375 10.453125 37.984375 14.40625 
Q 37.984375 18.0625 35.515625 20.015625 
Q 33.0625 21.96875 24.703125 23.78125 
L 21.578125 24.515625 
Q 13.234375 26.265625 9.515625 29.90625 
Q 5.8125 33.546875 5.8125 39.890625 
Q 5.8125 47.609375 11.28125 51.796875 
Q 16.75 56 26.8125 56 
Q 31.78125 56 36.171875 55.265625 
Q 40.578125 54.546875 44.28125 53.078125 
z
" id="DejaVuSans-115"/>
    </defs>
    <g style="fill:#cb495c;" transform="translate(437.611989 17.837812)scale(0.14 -0.14)">
     <use xlink:href="#DejaVuSans-85"/>
     <use x="73.193359" xlink:href="#DejaVuSans-110"/>
     <use x="136.572266" xlink:href="#DejaVuSans-105"/>
     <use x="164.355469" xlink:href="#DejaVuSans-116"/>
     <use x="203.564453" xlink:href="#DejaVuSans-101"/>
     <use x="265.087891" xlink:href="#DejaVuSans-100"/>
     <use x="328.564453" xlink:href="#DejaVuSans-32"/>
     <use x="360.351562" xlink:href="#DejaVuSans-83"/>
     <use x="423.828125" xlink:href="#DejaVuSans-116"/>
     <use x="463.037109" xlink:href="#DejaVuSans-97"/>
     <use x="524.316406" xlink:href="#DejaVuSans-116"/>
     <use x="563.525391" xlink:href="#DejaVuSans-101"/>
     <use x="625.048828" xlink:href="#DejaVuSans-115"/>
    </g>
   </g>
   <g id="text_18">
    <!-- Japan -->
    <defs>
     <path d="M 9.8125 72.90625 
L 19.671875 72.90625 
L 19.671875 5.078125 
Q 19.671875 -8.109375 14.671875 -14.0625 
Q 9.671875 -20.015625 -1.421875 -20.015625 
L -5.171875 -20.015625 
L -5.171875 -11.71875 
L -2.09375 -11.71875 
Q 4.4375 -11.71875 7.125 -8.046875 
Q 9.8125 -4.390625 9.8125 5.078125 
z
" id="DejaVuSans-74"/>
    </defs>
    <g style="fill:#bb60d5;" transform="translate(437.611989 88.812951)scale(0.14 -0.14)">
     <use xlink:href="#DejaVuSans-74"/>
     <use x="29.492188" xlink:href="#DejaVuSans-97"/>
     <use x="90.771484" xlink:href="#DejaVuSans-112"/>
     <use x="154.248047" xlink:href="#DejaVuSans-97"/>
     <use x="215.527344" xlink:href="#DejaVuSans-110"/>
    </g>
   </g>
   <g id="text_19">
    <!-- China -->
    <defs>
     <path d="M 64.40625 67.28125 
L 64.40625 56.890625 
Q 59.421875 61.53125 53.78125 63.8125 
Q 48.140625 66.109375 41.796875 66.109375 
Q 29.296875 66.109375 22.65625 58.46875 
Q 16.015625 50.828125 16.015625 36.375 
Q 16.015625 21.96875 22.65625 14.328125 
Q 29.296875 6.6875 41.796875 6.6875 
Q 48.140625 6.6875 53.78125 8.984375 
Q 59.421875 11.28125 64.40625 15.921875 
L 64.40625 5.609375 
Q 59.234375 2.09375 53.4375 0.328125 
Q 47.65625 -1.421875 41.21875 -1.421875 
Q 24.65625 -1.421875 15.125 8.703125 
Q 5.609375 18.84375 5.609375 36.375 
Q 5.609375 53.953125 15.125 64.078125 
Q 24.65625 74.21875 41.21875 74.21875 
Q 47.75 74.21875 53.53125 72.484375 
Q 59.328125 70.75 64.40625 67.28125 
z
" id="DejaVuSans-67"/>
     <path d="M 54.890625 33.015625 
L 54.890625 0 
L 45.90625 0 
L 45.90625 32.71875 
Q 45.90625 40.484375 42.875 44.328125 
Q 39.84375 48.1875 33.796875 48.1875 
Q 26.515625 48.1875 22.3125 43.546875 
Q 18.109375 38.921875 18.109375 30.90625 
L 18.109375 0 
L 9.078125 0 
L 9.078125 75.984375 
L 18.109375 75.984375 
L 18.109375 46.1875 
Q 21.34375 51.125 25.703125 53.5625 
Q 30.078125 56 35.796875 56 
Q 45.21875 56 50.046875 50.171875 
Q 54.890625 44.34375 54.890625 33.015625 
z
" id="DejaVuSans-104"/>
    </defs>
    <g style="fill:#f47915;" transform="translate(437.611989 182.293387)scale(0.14 -0.14)">
     <use xlink:href="#DejaVuSans-67"/>
     <use x="69.824219" xlink:href="#DejaVuSans-104"/>
     <use x="133.203125" xlink:href="#DejaVuSans-105"/>
     <use x="160.986328" xlink:href="#DejaVuSans-110"/>
     <use x="224.365234" xlink:href="#DejaVuSans-97"/>
    </g>
   </g>
   <g id="text_20">
    <!-- India -->
    <defs>
     <path d="M 9.8125 72.90625 
L 19.671875 72.90625 
L 19.671875 0 
L 9.8125 0 
z
" id="DejaVuSans-73"/>
    </defs>
    <g style="fill:#06ab54;" transform="translate(437.611989 207.991212)scale(0.14 -0.14)">
     <use xlink:href="#DejaVuSans-73"/>
     <use x="29.492188" xlink:href="#DejaVuSans-110"/>
     <use x="92.871094" xlink:href="#DejaVuSans-100"/>
     <use x="156.347656" xlink:href="#DejaVuSans-105"/>
     <use x="184.130859" xlink:href="#DejaVuSans-97"/>
    </g>
   </g>
   <g id="text_21">
    <!-- Source: Maddison Project Database (MPD) 2018 -->
    <defs>
     <path d="M 8.5 21.578125 
L 8.5 54.6875 
L 17.484375 54.6875 
L 17.484375 21.921875 
Q 17.484375 14.15625 20.5 10.265625 
Q 23.53125 6.390625 29.59375 6.390625 
Q 36.859375 6.390625 41.078125 11.03125 
Q 45.3125 15.671875 45.3125 23.6875 
L 45.3125 54.6875 
L 54.296875 54.6875 
L 54.296875 0 
L 45.3125 0 
L 45.3125 8.40625 
Q 42.046875 3.421875 37.71875 1 
Q 33.40625 -1.421875 27.6875 -1.421875 
Q 18.265625 -1.421875 13.375 4.4375 
Q 8.5 10.296875 8.5 21.578125 
z
M 31.109375 56 
z
" id="DejaVuSans-117"/>
     <path d="M 11.71875 12.40625 
L 22.015625 12.40625 
L 22.015625 0 
L 11.71875 0 
z
M 11.71875 51.703125 
L 22.015625 51.703125 
L 22.015625 39.3125 
L 11.71875 39.3125 
z
" id="DejaVuSans-58"/>
     <path d="M 9.8125 72.90625 
L 24.515625 72.90625 
L 43.109375 23.296875 
L 61.8125 72.90625 
L 76.515625 72.90625 
L 76.515625 0 
L 66.890625 0 
L 66.890625 64.015625 
L 48.09375 14.015625 
L 38.1875 14.015625 
L 19.390625 64.015625 
L 19.390625 0 
L 9.8125 0 
z
" id="DejaVuSans-77"/>
     <path d="M 9.421875 54.6875 
L 18.40625 54.6875 
L 18.40625 -0.984375 
Q 18.40625 -11.421875 14.421875 -16.109375 
Q 10.453125 -20.796875 1.609375 -20.796875 
L -1.8125 -20.796875 
L -1.8125 -13.1875 
L 0.59375 -13.1875 
Q 5.71875 -13.1875 7.5625 -10.8125 
Q 9.421875 -8.453125 9.421875 -0.984375 
z
M 9.421875 75.984375 
L 18.40625 75.984375 
L 18.40625 64.59375 
L 9.421875 64.59375 
z
" id="DejaVuSans-106"/>
     <path d="M 48.6875 27.296875 
Q 48.6875 37.203125 44.609375 42.84375 
Q 40.53125 48.484375 33.40625 48.484375 
Q 26.265625 48.484375 22.1875 42.84375 
Q 18.109375 37.203125 18.109375 27.296875 
Q 18.109375 17.390625 22.1875 11.75 
Q 26.265625 6.109375 33.40625 6.109375 
Q 40.53125 6.109375 44.609375 11.75 
Q 48.6875 17.390625 48.6875 27.296875 
z
M 18.109375 46.390625 
Q 20.953125 51.265625 25.265625 53.625 
Q 29.59375 56 35.59375 56 
Q 45.5625 56 51.78125 48.09375 
Q 58.015625 40.1875 58.015625 27.296875 
Q 58.015625 14.40625 51.78125 6.484375 
Q 45.5625 -1.421875 35.59375 -1.421875 
Q 29.59375 -1.421875 25.265625 0.953125 
Q 20.953125 3.328125 18.109375 8.203125 
L 18.109375 0 
L 9.078125 0 
L 9.078125 75.984375 
L 18.109375 75.984375 
z
" id="DejaVuSans-98"/>
     <path d="M 31 75.875 
Q 24.46875 64.65625 21.28125 53.65625 
Q 18.109375 42.671875 18.109375 31.390625 
Q 18.109375 20.125 21.3125 9.0625 
Q 24.515625 -2 31 -13.1875 
L 23.1875 -13.1875 
Q 15.875 -1.703125 12.234375 9.375 
Q 8.59375 20.453125 8.59375 31.390625 
Q 8.59375 42.28125 12.203125 53.3125 
Q 15.828125 64.359375 23.1875 75.875 
z
" id="DejaVuSans-40"/>
     <path d="M 8.015625 75.875 
L 15.828125 75.875 
Q 23.140625 64.359375 26.78125 53.3125 
Q 30.421875 42.28125 30.421875 31.390625 
Q 30.421875 20.453125 26.78125 9.375 
Q 23.140625 -1.703125 15.828125 -13.1875 
L 8.015625 -13.1875 
Q 14.5 -2 17.703125 9.0625 
Q 20.90625 20.125 20.90625 31.390625 
Q 20.90625 42.671875 17.703125 53.65625 
Q 14.5 64.65625 8.015625 75.875 
z
" id="DejaVuSans-41"/>
    </defs>
    <g transform="translate(7.2 312.904129)scale(0.14 -0.14)">
     <use xlink:href="#DejaVuSans-83"/>
     <use x="63.476562" xlink:href="#DejaVuSans-111"/>
     <use x="124.658203" xlink:href="#DejaVuSans-117"/>
     <use x="188.037109" xlink:href="#DejaVuSans-114"/>
     <use x="226.900391" xlink:href="#DejaVuSans-99"/>
     <use x="281.880859" xlink:href="#DejaVuSans-101"/>
     <use x="343.404297" xlink:href="#DejaVuSans-58"/>
     <use x="377.095703" xlink:href="#DejaVuSans-32"/>
     <use x="408.882812" xlink:href="#DejaVuSans-77"/>
     <use x="495.162109" xlink:href="#DejaVuSans-97"/>
     <use x="556.441406" xlink:href="#DejaVuSans-100"/>
     <use x="619.917969" xlink:href="#DejaVuSans-100"/>
     <use x="683.394531" xlink:href="#DejaVuSans-105"/>
     <use x="711.177734" xlink:href="#DejaVuSans-115"/>
     <use x="763.277344" xlink:href="#DejaVuSans-111"/>
     <use x="824.458984" xlink:href="#DejaVuSans-110"/>
     <use x="887.837891" xlink:href="#DejaVuSans-32"/>
     <use x="919.625" xlink:href="#DejaVuSans-80"/>
     <use x="978.177734" xlink:href="#DejaVuSans-114"/>
     <use x="1017.041016" xlink:href="#DejaVuSans-111"/>
     <use x="1078.222656" xlink:href="#DejaVuSans-106"/>
     <use x="1106.005859" xlink:href="#DejaVuSans-101"/>
     <use x="1167.529297" xlink:href="#DejaVuSans-99"/>
     <use x="1222.509766" xlink:href="#DejaVuSans-116"/>
     <use x="1261.71875" xlink:href="#DejaVuSans-32"/>
     <use x="1293.505859" xlink:href="#DejaVuSans-68"/>
     <use x="1370.507812" xlink:href="#DejaVuSans-97"/>
     <use x="1431.787109" xlink:href="#DejaVuSans-116"/>
     <use x="1470.996094" xlink:href="#DejaVuSans-97"/>
     <use x="1532.275391" xlink:href="#DejaVuSans-98"/>
     <use x="1595.751953" xlink:href="#DejaVuSans-97"/>
     <use x="1657.03125" xlink:href="#DejaVuSans-115"/>
     <use x="1709.130859" xlink:href="#DejaVuSans-101"/>
     <use x="1770.654297" xlink:href="#DejaVuSans-32"/>
     <use x="1802.441406" xlink:href="#DejaVuSans-40"/>
     <use x="1841.455078" xlink:href="#DejaVuSans-77"/>
     <use x="1927.734375" xlink:href="#DejaVuSans-80"/>
     <use x="1988.037109" xlink:href="#DejaVuSans-68"/>
     <use x="2065.039062" xlink:href="#DejaVuSans-41"/>
     <use x="2104.052734" xlink:href="#DejaVuSans-32"/>
     <use x="2135.839844" xlink:href="#DejaVuSans-50"/>
     <use x="2199.462891" xlink:href="#DejaVuSans-48"/>
     <use x="2263.085938" xlink:href="#DejaVuSans-49"/>
     <use x="2326.708984" xlink:href="#DejaVuSans-56"/>
    </g>
   </g>
  </g>
 </g>
 <defs>
  <clipPath id="p74c7ba5d70">
   <rect height="233.28" width="375.84" x="77.79288" y="7.234176"/>
  </clipPath>
 </defs>
</svg>
