<?xml version="1.0" encoding="utf-8" standalone="no"?>
<!DOCTYPE svg PUBLIC "-//W3C//DTD SVG 1.1//EN"
  "http://www.w3.org/Graphics/SVG/1.1/DTD/svg11.dtd">
<!-- Created with matplotlib (https://matplotlib.org/) -->
<svg height="302.855164pt" version="1.1" viewBox="0 0 508.911447 302.855164" width="508.911447pt" xmlns="http://www.w3.org/2000/svg" xmlns:xlink="http://www.w3.org/1999/xlink">
 <defs>
  <style type="text/css">
*{stroke-linecap:butt;stroke-linejoin:round;}
  </style>
 </defs>
 <g id="figure_1">
  <g id="patch_1">
   <path d="M 0 302.855164 
L 508.911447 302.855164 
L 508.911447 0 
L 0 0 
z
" style="fill:#ffffff;"/>
  </g>
  <g id="axes_1">
   <g id="patch_2">
    <path d="M 79.195438 224.777301 
L 413.995438 224.777301 
L 413.995438 7.337301 
L 79.195438 7.337301 
z
" style="fill:#ffffff;"/>
   </g>
   <g id="matplotlib.axis_1">
    <g id="xtick_1">
     <g id="line2d_1">
      <path clip-path="url(#pe032163b2f)" d="M 135.993351 224.777301 
L 135.993351 7.337301 
" style="fill:none;stroke:#cccccc;stroke-linecap:round;stroke-opacity:0.9;"/>
     </g>
     <g id="text_1">
      <!-- 1700 -->
      <defs>
       <path d="M 37.25 0 
L 28.46875 0 
L 28.46875 56 
Q 25.296875 52.984375 20.140625 49.953125 
Q 14.984375 46.921875 10.890625 45.40625 
L 10.890625 53.90625 
Q 18.265625 57.375 23.78125 62.296875 
Q 29.296875 67.234375 31.59375 71.875 
L 37.25 71.875 
z
" id="ArialMT-49"/>
       <path d="M 4.734375 62.203125 
L 4.734375 70.65625 
L 51.078125 70.65625 
L 51.078125 63.8125 
Q 44.234375 56.546875 37.515625 44.484375 
Q 30.8125 32.421875 27.15625 19.671875 
Q 24.515625 10.6875 23.78125 0 
L 14.75 0 
Q 14.890625 8.453125 18.0625 20.40625 
Q 21.234375 32.375 27.171875 43.484375 
Q 33.109375 54.59375 39.796875 62.203125 
z
" id="ArialMT-55"/>
       <path d="M 4.15625 35.296875 
Q 4.15625 48 6.765625 55.734375 
Q 9.375 63.484375 14.515625 67.671875 
Q 19.671875 71.875 27.484375 71.875 
Q 33.25 71.875 37.59375 69.546875 
Q 41.9375 67.234375 44.765625 62.859375 
Q 47.609375 58.5 49.21875 52.21875 
Q 50.828125 45.953125 50.828125 35.296875 
Q 50.828125 22.703125 48.234375 14.96875 
Q 45.65625 7.234375 40.5 3 
Q 35.359375 -1.21875 27.484375 -1.21875 
Q 17.140625 -1.21875 11.234375 6.203125 
Q 4.15625 15.140625 4.15625 35.296875 
z
M 13.1875 35.296875 
Q 13.1875 17.671875 17.3125 11.828125 
Q 21.4375 6 27.484375 6 
Q 33.546875 6 37.671875 11.859375 
Q 41.796875 17.71875 41.796875 35.296875 
Q 41.796875 52.984375 37.671875 58.78125 
Q 33.546875 64.59375 27.390625 64.59375 
Q 21.34375 64.59375 17.71875 59.46875 
Q 13.1875 52.9375 13.1875 35.296875 
z
" id="ArialMT-48"/>
      </defs>
      <g style="fill:#262626;" transform="translate(120.422726 248.298239)scale(0.14 -0.14)">
       <use xlink:href="#ArialMT-49"/>
       <use x="55.615234" xlink:href="#ArialMT-55"/>
       <use x="111.230469" xlink:href="#ArialMT-48"/>
       <use x="166.845703" xlink:href="#ArialMT-48"/>
      </g>
     </g>
    </g>
    <g id="xtick_2">
     <g id="line2d_2">
      <path clip-path="url(#pe032163b2f)" d="M 219.152815 224.777301 
L 219.152815 7.337301 
" style="fill:none;stroke:#cccccc;stroke-linecap:round;stroke-opacity:0.9;"/>
     </g>
     <g id="text_2">
      <!-- 1800 -->
      <defs>
       <path d="M 17.671875 38.8125 
Q 12.203125 40.828125 9.5625 44.53125 
Q 6.9375 48.25 6.9375 53.421875 
Q 6.9375 61.234375 12.546875 66.546875 
Q 18.171875 71.875 27.484375 71.875 
Q 36.859375 71.875 42.578125 66.421875 
Q 48.296875 60.984375 48.296875 53.171875 
Q 48.296875 48.1875 45.671875 44.5 
Q 43.0625 40.828125 37.75 38.8125 
Q 44.34375 36.671875 47.78125 31.875 
Q 51.21875 27.09375 51.21875 20.453125 
Q 51.21875 11.28125 44.71875 5.03125 
Q 38.234375 -1.21875 27.640625 -1.21875 
Q 17.046875 -1.21875 10.546875 5.046875 
Q 4.046875 11.328125 4.046875 20.703125 
Q 4.046875 27.6875 7.59375 32.390625 
Q 11.140625 37.109375 17.671875 38.8125 
z
M 15.921875 53.71875 
Q 15.921875 48.640625 19.1875 45.40625 
Q 22.46875 42.1875 27.6875 42.1875 
Q 32.765625 42.1875 36.015625 45.375 
Q 39.265625 48.578125 39.265625 53.21875 
Q 39.265625 58.0625 35.90625 61.359375 
Q 32.5625 64.65625 27.59375 64.65625 
Q 22.5625 64.65625 19.234375 61.421875 
Q 15.921875 58.203125 15.921875 53.71875 
z
M 13.09375 20.65625 
Q 13.09375 16.890625 14.875 13.375 
Q 16.65625 9.859375 20.171875 7.921875 
Q 23.6875 6 27.734375 6 
Q 34.03125 6 38.125 10.046875 
Q 42.234375 14.109375 42.234375 20.359375 
Q 42.234375 26.703125 38.015625 30.859375 
Q 33.796875 35.015625 27.4375 35.015625 
Q 21.234375 35.015625 17.15625 30.90625 
Q 13.09375 26.8125 13.09375 20.65625 
z
" id="ArialMT-56"/>
      </defs>
      <g style="fill:#262626;" transform="translate(203.58219 248.298239)scale(0.14 -0.14)">
       <use xlink:href="#ArialMT-49"/>
       <use x="55.615234" xlink:href="#ArialMT-56"/>
       <use x="111.230469" xlink:href="#ArialMT-48"/>
       <use x="166.845703" xlink:href="#ArialMT-48"/>
      </g>
     </g>
    </g>
    <g id="xtick_3">
     <g id="line2d_3">
      <path clip-path="url(#pe032163b2f)" d="M 302.312278 224.777301 
L 302.312278 7.337301 
" style="fill:none;stroke:#cccccc;stroke-linecap:round;stroke-opacity:0.9;"/>
     </g>
     <g id="text_3">
      <!-- 1900 -->
      <defs>
       <path d="M 5.46875 16.546875 
L 13.921875 17.328125 
Q 14.984375 11.375 18.015625 8.6875 
Q 21.046875 6 25.78125 6 
Q 29.828125 6 32.875 7.859375 
Q 35.9375 9.71875 37.890625 12.8125 
Q 39.84375 15.921875 41.15625 21.1875 
Q 42.484375 26.46875 42.484375 31.9375 
Q 42.484375 32.515625 42.4375 33.6875 
Q 39.796875 29.5 35.234375 26.875 
Q 30.671875 24.265625 25.34375 24.265625 
Q 16.453125 24.265625 10.296875 30.703125 
Q 4.15625 37.15625 4.15625 47.703125 
Q 4.15625 58.59375 10.578125 65.234375 
Q 17 71.875 26.65625 71.875 
Q 33.640625 71.875 39.421875 68.109375 
Q 45.21875 64.359375 48.21875 57.390625 
Q 51.21875 50.4375 51.21875 37.25 
Q 51.21875 23.53125 48.234375 15.40625 
Q 45.265625 7.28125 39.375 3.03125 
Q 33.5 -1.21875 25.59375 -1.21875 
Q 17.1875 -1.21875 11.859375 3.4375 
Q 6.546875 8.109375 5.46875 16.546875 
z
M 41.453125 48.140625 
Q 41.453125 55.71875 37.421875 60.15625 
Q 33.40625 64.59375 27.734375 64.59375 
Q 21.875 64.59375 17.53125 59.8125 
Q 13.1875 55.03125 13.1875 47.40625 
Q 13.1875 40.578125 17.3125 36.296875 
Q 21.4375 32.03125 27.484375 32.03125 
Q 33.59375 32.03125 37.515625 36.296875 
Q 41.453125 40.578125 41.453125 48.140625 
z
" id="ArialMT-57"/>
      </defs>
      <g style="fill:#262626;" transform="translate(286.741653 248.298239)scale(0.14 -0.14)">
       <use xlink:href="#ArialMT-49"/>
       <use x="55.615234" xlink:href="#ArialMT-57"/>
       <use x="111.230469" xlink:href="#ArialMT-48"/>
       <use x="166.845703" xlink:href="#ArialMT-48"/>
      </g>
     </g>
    </g>
    <g id="xtick_4">
     <g id="line2d_4">
      <path clip-path="url(#pe032163b2f)" d="M 385.471742 224.777301 
L 385.471742 7.337301 
" style="fill:none;stroke:#cccccc;stroke-linecap:round;stroke-opacity:0.9;"/>
     </g>
     <g id="text_4">
      <!-- 2000 -->
      <defs>
       <path d="M 50.34375 8.453125 
L 50.34375 0 
L 3.03125 0 
Q 2.9375 3.171875 4.046875 6.109375 
Q 5.859375 10.9375 9.828125 15.625 
Q 13.8125 20.3125 21.34375 26.46875 
Q 33.015625 36.03125 37.109375 41.625 
Q 41.21875 47.21875 41.21875 52.203125 
Q 41.21875 57.421875 37.46875 61 
Q 33.734375 64.59375 27.734375 64.59375 
Q 21.390625 64.59375 17.578125 60.78125 
Q 13.765625 56.984375 13.71875 50.25 
L 4.6875 51.171875 
Q 5.609375 61.28125 11.65625 66.578125 
Q 17.71875 71.875 27.9375 71.875 
Q 38.234375 71.875 44.234375 66.15625 
Q 50.25 60.453125 50.25 52 
Q 50.25 47.703125 48.484375 43.546875 
Q 46.734375 39.40625 42.65625 34.8125 
Q 38.578125 30.21875 29.109375 22.21875 
Q 21.1875 15.578125 18.9375 13.203125 
Q 16.703125 10.84375 15.234375 8.453125 
z
" id="ArialMT-50"/>
      </defs>
      <g style="fill:#262626;" transform="translate(369.901117 248.298239)scale(0.14 -0.14)">
       <use xlink:href="#ArialMT-50"/>
       <use x="55.615234" xlink:href="#ArialMT-48"/>
       <use x="111.230469" xlink:href="#ArialMT-48"/>
       <use x="166.845703" xlink:href="#ArialMT-48"/>
      </g>
     </g>
    </g>
    <g id="text_5">
     <!-- Year -->
     <defs>
      <path d="M 27.875 0 
L 27.875 30.328125 
L 0.296875 71.578125 
L 11.8125 71.578125 
L 25.921875 50 
Q 29.828125 43.953125 33.203125 37.890625 
Q 36.421875 43.5 41.015625 50.53125 
L 54.890625 71.578125 
L 65.921875 71.578125 
L 37.359375 30.328125 
L 37.359375 0 
z
" id="ArialMT-89"/>
      <path d="M 42.09375 16.703125 
L 51.171875 15.578125 
Q 49.03125 7.625 43.21875 3.21875 
Q 37.40625 -1.171875 28.375 -1.171875 
Q 17 -1.171875 10.328125 5.828125 
Q 3.65625 12.84375 3.65625 25.484375 
Q 3.65625 38.578125 10.390625 45.796875 
Q 17.140625 53.03125 27.875 53.03125 
Q 38.28125 53.03125 44.875 45.953125 
Q 51.46875 38.875 51.46875 26.03125 
Q 51.46875 25.25 51.421875 23.6875 
L 12.75 23.6875 
Q 13.234375 15.140625 17.578125 10.59375 
Q 21.921875 6.0625 28.421875 6.0625 
Q 33.25 6.0625 36.671875 8.59375 
Q 40.09375 11.140625 42.09375 16.703125 
z
M 13.234375 30.90625 
L 42.1875 30.90625 
Q 41.609375 37.453125 38.875 40.71875 
Q 34.671875 45.796875 27.984375 45.796875 
Q 21.921875 45.796875 17.796875 41.75 
Q 13.671875 37.703125 13.234375 30.90625 
z
" id="ArialMT-101"/>
      <path d="M 40.4375 6.390625 
Q 35.546875 2.25 31.03125 0.53125 
Q 26.515625 -1.171875 21.34375 -1.171875 
Q 12.796875 -1.171875 8.203125 3 
Q 3.609375 7.171875 3.609375 13.671875 
Q 3.609375 17.484375 5.34375 20.625 
Q 7.078125 23.78125 9.890625 25.6875 
Q 12.703125 27.59375 16.21875 28.5625 
Q 18.796875 29.25 24.03125 29.890625 
Q 34.671875 31.15625 39.703125 32.90625 
Q 39.75 34.71875 39.75 35.203125 
Q 39.75 40.578125 37.25 42.78125 
Q 33.890625 45.75 27.25 45.75 
Q 21.046875 45.75 18.09375 43.578125 
Q 15.140625 41.40625 13.71875 35.890625 
L 5.125 37.0625 
Q 6.296875 42.578125 8.984375 45.96875 
Q 11.671875 49.359375 16.75 51.1875 
Q 21.828125 53.03125 28.515625 53.03125 
Q 35.15625 53.03125 39.296875 51.46875 
Q 43.453125 49.90625 45.40625 47.53125 
Q 47.359375 45.171875 48.140625 41.546875 
Q 48.578125 39.3125 48.578125 33.453125 
L 48.578125 21.734375 
Q 48.578125 9.46875 49.140625 6.21875 
Q 49.703125 2.984375 51.375 0 
L 42.1875 0 
Q 40.828125 2.734375 40.4375 6.390625 
z
M 39.703125 26.03125 
Q 34.90625 24.078125 25.34375 22.703125 
Q 19.921875 21.921875 17.671875 20.9375 
Q 15.4375 19.96875 14.203125 18.09375 
Q 12.984375 16.21875 12.984375 13.921875 
Q 12.984375 10.40625 15.640625 8.0625 
Q 18.3125 5.71875 23.4375 5.71875 
Q 28.515625 5.71875 32.46875 7.9375 
Q 36.421875 10.15625 38.28125 14.015625 
Q 39.703125 17 39.703125 22.796875 
z
" id="ArialMT-97"/>
      <path d="M 6.5 0 
L 6.5 51.859375 
L 14.40625 51.859375 
L 14.40625 44 
Q 17.4375 49.515625 20 51.265625 
Q 22.5625 53.03125 25.640625 53.03125 
Q 30.078125 53.03125 34.671875 50.203125 
L 31.640625 42.046875 
Q 28.421875 43.953125 25.203125 43.953125 
Q 22.3125 43.953125 20.015625 42.21875 
Q 17.71875 40.484375 16.75 37.40625 
Q 15.28125 32.71875 15.28125 27.15625 
L 15.28125 0 
z
" id="ArialMT-114"/>
     </defs>
     <g style="fill:#262626;" transform="translate(228.864875 267.105864)scale(0.168 -0.168)">
      <use xlink:href="#ArialMT-89"/>
      <use x="66.558594" xlink:href="#ArialMT-101"/>
      <use x="122.173828" xlink:href="#ArialMT-97"/>
      <use x="177.789062" xlink:href="#ArialMT-114"/>
     </g>
    </g>
   </g>
   <g id="matplotlib.axis_2">
    <g id="ytick_1">
     <g id="line2d_5">
      <path clip-path="url(#pe032163b2f)" d="M 79.195438 217.248034 
L 413.995438 217.248034 
" style="fill:none;stroke:#cccccc;stroke-linecap:round;stroke-opacity:0.9;"/>
     </g>
     <g id="text_6">
      <!-- 0 -->
      <g style="fill:#262626;" transform="translate(57.910125 222.258503)scale(0.14 -0.14)">
       <use xlink:href="#ArialMT-48"/>
      </g>
     </g>
    </g>
    <g id="ytick_2">
     <g id="line2d_6">
      <path clip-path="url(#pe032163b2f)" d="M 79.195438 179.517751 
L 413.995438 179.517751 
" style="fill:none;stroke:#cccccc;stroke-linecap:round;stroke-opacity:0.9;"/>
     </g>
     <g id="text_7">
      <!-- 10000 -->
      <g style="fill:#262626;" transform="translate(26.768875 184.52822)scale(0.14 -0.14)">
       <use xlink:href="#ArialMT-49"/>
       <use x="55.615234" xlink:href="#ArialMT-48"/>
       <use x="111.230469" xlink:href="#ArialMT-48"/>
       <use x="166.845703" xlink:href="#ArialMT-48"/>
       <use x="222.460938" xlink:href="#ArialMT-48"/>
      </g>
     </g>
    </g>
    <g id="ytick_3">
     <g id="line2d_7">
      <path clip-path="url(#pe032163b2f)" d="M 79.195438 141.787468 
L 413.995438 141.787468 
" style="fill:none;stroke:#cccccc;stroke-linecap:round;stroke-opacity:0.9;"/>
     </g>
     <g id="text_8">
      <!-- 20000 -->
      <g style="fill:#262626;" transform="translate(26.768875 146.797937)scale(0.14 -0.14)">
       <use xlink:href="#ArialMT-50"/>
       <use x="55.615234" xlink:href="#ArialMT-48"/>
       <use x="111.230469" xlink:href="#ArialMT-48"/>
       <use x="166.845703" xlink:href="#ArialMT-48"/>
       <use x="222.460938" xlink:href="#ArialMT-48"/>
      </g>
     </g>
    </g>
    <g id="ytick_4">
     <g id="line2d_8">
      <path clip-path="url(#pe032163b2f)" d="M 79.195438 104.057185 
L 413.995438 104.057185 
" style="fill:none;stroke:#cccccc;stroke-linecap:round;stroke-opacity:0.9;"/>
     </g>
     <g id="text_9">
      <!-- 30000 -->
      <defs>
       <path d="M 4.203125 18.890625 
L 12.984375 20.0625 
Q 14.5 12.59375 18.140625 9.296875 
Q 21.78125 6 27 6 
Q 33.203125 6 37.46875 10.296875 
Q 41.75 14.59375 41.75 20.953125 
Q 41.75 27 37.796875 30.921875 
Q 33.84375 34.859375 27.734375 34.859375 
Q 25.25 34.859375 21.53125 33.890625 
L 22.515625 41.609375 
Q 23.390625 41.5 23.921875 41.5 
Q 29.546875 41.5 34.03125 44.421875 
Q 38.53125 47.359375 38.53125 53.46875 
Q 38.53125 58.296875 35.25 61.46875 
Q 31.984375 64.65625 26.8125 64.65625 
Q 21.6875 64.65625 18.265625 61.421875 
Q 14.84375 58.203125 13.875 51.765625 
L 5.078125 53.328125 
Q 6.6875 62.15625 12.390625 67.015625 
Q 18.109375 71.875 26.609375 71.875 
Q 32.46875 71.875 37.390625 69.359375 
Q 42.328125 66.84375 44.9375 62.5 
Q 47.5625 58.15625 47.5625 53.265625 
Q 47.5625 48.640625 45.0625 44.828125 
Q 42.578125 41.015625 37.703125 38.765625 
Q 44.046875 37.3125 47.5625 32.6875 
Q 51.078125 28.078125 51.078125 21.140625 
Q 51.078125 11.765625 44.234375 5.25 
Q 37.40625 -1.265625 26.953125 -1.265625 
Q 17.53125 -1.265625 11.296875 4.34375 
Q 5.078125 9.96875 4.203125 18.890625 
z
" id="ArialMT-51"/>
      </defs>
      <g style="fill:#262626;" transform="translate(26.768875 109.067653)scale(0.14 -0.14)">
       <use xlink:href="#ArialMT-51"/>
       <use x="55.615234" xlink:href="#ArialMT-48"/>
       <use x="111.230469" xlink:href="#ArialMT-48"/>
       <use x="166.845703" xlink:href="#ArialMT-48"/>
       <use x="222.460938" xlink:href="#ArialMT-48"/>
      </g>
     </g>
    </g>
    <g id="ytick_5">
     <g id="line2d_9">
      <path clip-path="url(#pe032163b2f)" d="M 79.195438 66.326901 
L 413.995438 66.326901 
" style="fill:none;stroke:#cccccc;stroke-linecap:round;stroke-opacity:0.9;"/>
     </g>
     <g id="text_10">
      <!-- 40000 -->
      <defs>
       <path d="M 32.328125 0 
L 32.328125 17.140625 
L 1.265625 17.140625 
L 1.265625 25.203125 
L 33.9375 71.578125 
L 41.109375 71.578125 
L 41.109375 25.203125 
L 50.78125 25.203125 
L 50.78125 17.140625 
L 41.109375 17.140625 
L 41.109375 0 
z
M 32.328125 25.203125 
L 32.328125 57.46875 
L 9.90625 25.203125 
z
" id="ArialMT-52"/>
      </defs>
      <g style="fill:#262626;" transform="translate(26.768875 71.33737)scale(0.14 -0.14)">
       <use xlink:href="#ArialMT-52"/>
       <use x="55.615234" xlink:href="#ArialMT-48"/>
       <use x="111.230469" xlink:href="#ArialMT-48"/>
       <use x="166.845703" xlink:href="#ArialMT-48"/>
       <use x="222.460938" xlink:href="#ArialMT-48"/>
      </g>
     </g>
    </g>
    <g id="ytick_6">
     <g id="line2d_10">
      <path clip-path="url(#pe032163b2f)" d="M 79.195438 28.596618 
L 413.995438 28.596618 
" style="fill:none;stroke:#cccccc;stroke-linecap:round;stroke-opacity:0.9;"/>
     </g>
     <g id="text_11">
      <!-- 50000 -->
      <defs>
       <path d="M 4.15625 18.75 
L 13.375 19.53125 
Q 14.40625 12.796875 18.140625 9.390625 
Q 21.875 6 27.15625 6 
Q 33.5 6 37.890625 10.78125 
Q 42.28125 15.578125 42.28125 23.484375 
Q 42.28125 31 38.0625 35.34375 
Q 33.84375 39.703125 27 39.703125 
Q 22.75 39.703125 19.328125 37.765625 
Q 15.921875 35.84375 13.96875 32.765625 
L 5.71875 33.84375 
L 12.640625 70.609375 
L 48.25 70.609375 
L 48.25 62.203125 
L 19.671875 62.203125 
L 15.828125 42.96875 
Q 22.265625 47.46875 29.34375 47.46875 
Q 38.71875 47.46875 45.15625 40.96875 
Q 51.609375 34.46875 51.609375 24.265625 
Q 51.609375 14.546875 45.953125 7.46875 
Q 39.0625 -1.21875 27.15625 -1.21875 
Q 17.390625 -1.21875 11.203125 4.25 
Q 5.03125 9.71875 4.15625 18.75 
z
" id="ArialMT-53"/>
      </defs>
      <g style="fill:#262626;" transform="translate(26.768875 33.607087)scale(0.14 -0.14)">
       <use xlink:href="#ArialMT-53"/>
       <use x="55.615234" xlink:href="#ArialMT-48"/>
       <use x="111.230469" xlink:href="#ArialMT-48"/>
       <use x="166.845703" xlink:href="#ArialMT-48"/>
       <use x="222.460938" xlink:href="#ArialMT-48"/>
      </g>
     </g>
    </g>
    <g id="text_12">
     <!-- GDP per capita -->
     <defs>
      <path d="M 41.21875 28.078125 
L 41.21875 36.46875 
L 71.53125 36.53125 
L 71.53125 9.96875 
Q 64.546875 4.390625 57.125 1.578125 
Q 49.703125 -1.21875 41.890625 -1.21875 
Q 31.34375 -1.21875 22.71875 3.296875 
Q 14.109375 7.8125 9.71875 16.359375 
Q 5.328125 24.90625 5.328125 35.453125 
Q 5.328125 45.90625 9.6875 54.953125 
Q 14.0625 64.015625 22.265625 68.40625 
Q 30.46875 72.796875 41.15625 72.796875 
Q 48.921875 72.796875 55.1875 70.28125 
Q 61.46875 67.78125 65.03125 63.28125 
Q 68.609375 58.796875 70.453125 51.5625 
L 61.921875 49.21875 
Q 60.296875 54.6875 57.90625 57.8125 
Q 55.515625 60.9375 51.0625 62.8125 
Q 46.625 64.703125 41.21875 64.703125 
Q 34.71875 64.703125 29.984375 62.71875 
Q 25.25 60.75 22.34375 57.515625 
Q 19.4375 54.296875 17.828125 50.4375 
Q 15.09375 43.796875 15.09375 36.03125 
Q 15.09375 26.46875 18.390625 20.015625 
Q 21.6875 13.578125 27.984375 10.453125 
Q 34.28125 7.328125 41.359375 7.328125 
Q 47.515625 7.328125 53.375 9.6875 
Q 59.234375 12.0625 62.25 14.75 
L 62.25 28.078125 
z
" id="ArialMT-71"/>
      <path d="M 7.71875 0 
L 7.71875 71.578125 
L 32.375 71.578125 
Q 40.71875 71.578125 45.125 70.5625 
Q 51.265625 69.140625 55.609375 65.4375 
Q 61.28125 60.640625 64.078125 53.1875 
Q 66.890625 45.75 66.890625 36.1875 
Q 66.890625 28.03125 64.984375 21.734375 
Q 63.09375 15.4375 60.109375 11.296875 
Q 57.125 7.171875 53.578125 4.796875 
Q 50.046875 2.4375 45.046875 1.21875 
Q 40.046875 0 33.546875 0 
z
M 17.1875 8.453125 
L 32.46875 8.453125 
Q 39.546875 8.453125 43.578125 9.765625 
Q 47.609375 11.078125 50 13.484375 
Q 53.375 16.84375 55.25 22.53125 
Q 57.125 28.21875 57.125 36.328125 
Q 57.125 47.5625 53.4375 53.59375 
Q 49.75 59.625 44.484375 61.671875 
Q 40.671875 63.140625 32.234375 63.140625 
L 17.1875 63.140625 
z
" id="ArialMT-68"/>
      <path d="M 7.71875 0 
L 7.71875 71.578125 
L 34.71875 71.578125 
Q 41.84375 71.578125 45.609375 70.90625 
Q 50.875 70.015625 54.4375 67.546875 
Q 58.015625 65.09375 60.1875 60.640625 
Q 62.359375 56.203125 62.359375 50.875 
Q 62.359375 41.75 56.546875 35.421875 
Q 50.734375 29.109375 35.546875 29.109375 
L 17.1875 29.109375 
L 17.1875 0 
z
M 17.1875 37.546875 
L 35.6875 37.546875 
Q 44.875 37.546875 48.734375 40.96875 
Q 52.59375 44.390625 52.59375 50.59375 
Q 52.59375 55.078125 50.3125 58.265625 
Q 48.046875 61.46875 44.34375 62.5 
Q 41.9375 63.140625 35.5 63.140625 
L 17.1875 63.140625 
z
" id="ArialMT-80"/>
      <path id="ArialMT-32"/>
      <path d="M 6.59375 -19.875 
L 6.59375 51.859375 
L 14.59375 51.859375 
L 14.59375 45.125 
Q 17.4375 49.078125 21 51.046875 
Q 24.5625 53.03125 29.640625 53.03125 
Q 36.28125 53.03125 41.359375 49.609375 
Q 46.4375 46.1875 49.015625 39.953125 
Q 51.609375 33.734375 51.609375 26.3125 
Q 51.609375 18.359375 48.75 11.984375 
Q 45.90625 5.609375 40.453125 2.21875 
Q 35.015625 -1.171875 29 -1.171875 
Q 24.609375 -1.171875 21.109375 0.6875 
Q 17.625 2.546875 15.375 5.375 
L 15.375 -19.875 
z
M 14.546875 25.640625 
Q 14.546875 15.625 18.59375 10.84375 
Q 22.65625 6.0625 28.421875 6.0625 
Q 34.28125 6.0625 38.453125 11.015625 
Q 42.625 15.96875 42.625 26.375 
Q 42.625 36.28125 38.546875 41.203125 
Q 34.46875 46.140625 28.8125 46.140625 
Q 23.1875 46.140625 18.859375 40.890625 
Q 14.546875 35.640625 14.546875 25.640625 
z
" id="ArialMT-112"/>
      <path d="M 40.4375 19 
L 49.078125 17.875 
Q 47.65625 8.9375 41.8125 3.875 
Q 35.984375 -1.171875 27.484375 -1.171875 
Q 16.84375 -1.171875 10.375 5.78125 
Q 3.90625 12.75 3.90625 25.734375 
Q 3.90625 34.125 6.6875 40.421875 
Q 9.46875 46.734375 15.15625 49.875 
Q 20.84375 53.03125 27.546875 53.03125 
Q 35.984375 53.03125 41.359375 48.75 
Q 46.734375 44.484375 48.25 36.625 
L 39.703125 35.296875 
Q 38.484375 40.53125 35.375 43.15625 
Q 32.28125 45.796875 27.875 45.796875 
Q 21.234375 45.796875 17.078125 41.03125 
Q 12.9375 36.28125 12.9375 25.984375 
Q 12.9375 15.53125 16.9375 10.796875 
Q 20.953125 6.0625 27.390625 6.0625 
Q 32.5625 6.0625 36.03125 9.234375 
Q 39.5 12.40625 40.4375 19 
z
" id="ArialMT-99"/>
      <path d="M 6.640625 61.46875 
L 6.640625 71.578125 
L 15.4375 71.578125 
L 15.4375 61.46875 
z
M 6.640625 0 
L 6.640625 51.859375 
L 15.4375 51.859375 
L 15.4375 0 
z
" id="ArialMT-105"/>
      <path d="M 25.78125 7.859375 
L 27.046875 0.09375 
Q 23.34375 -0.6875 20.40625 -0.6875 
Q 15.625 -0.6875 12.984375 0.828125 
Q 10.359375 2.34375 9.28125 4.8125 
Q 8.203125 7.28125 8.203125 15.1875 
L 8.203125 45.015625 
L 1.765625 45.015625 
L 1.765625 51.859375 
L 8.203125 51.859375 
L 8.203125 64.703125 
L 16.9375 69.96875 
L 16.9375 51.859375 
L 25.78125 51.859375 
L 25.78125 45.015625 
L 16.9375 45.015625 
L 16.9375 14.703125 
Q 16.9375 10.9375 17.40625 9.859375 
Q 17.875 8.796875 18.921875 8.15625 
Q 19.96875 7.515625 21.921875 7.515625 
Q 23.390625 7.515625 25.78125 7.859375 
z
" id="ArialMT-116"/>
     </defs>
     <g style="fill:#262626;" transform="translate(19.429875 173.479176)rotate(-90)scale(0.168 -0.168)">
      <use xlink:href="#ArialMT-71"/>
      <use x="77.783203" xlink:href="#ArialMT-68"/>
      <use x="150" xlink:href="#ArialMT-80"/>
      <use x="216.683594" xlink:href="#ArialMT-32"/>
      <use x="244.466797" xlink:href="#ArialMT-112"/>
      <use x="300.082031" xlink:href="#ArialMT-101"/>
      <use x="355.697266" xlink:href="#ArialMT-114"/>
      <use x="388.998047" xlink:href="#ArialMT-32"/>
      <use x="416.78125" xlink:href="#ArialMT-99"/>
      <use x="466.78125" xlink:href="#ArialMT-97"/>
      <use x="522.396484" xlink:href="#ArialMT-112"/>
      <use x="578.011719" xlink:href="#ArialMT-105"/>
      <use x="600.228516" xlink:href="#ArialMT-116"/>
      <use x="628.011719" xlink:href="#ArialMT-97"/>
     </g>
    </g>
   </g>
   <g id="line2d_11">
    <path clip-path="url(#pe032163b2f)" d="M 103.56116 213.701388 
L 190.878597 214.659737 
L 229.13195 214.893665 
L 235.784707 214.45222 
L 239.94268 214.546546 
L 260.732546 214.821977 
L 277.364439 214.41449 
L 291.501548 214.380533 
L 293.996332 214.191882 
L 302.312278 214.078691 
L 311.459819 214.21452 
L 312.291414 214.071145 
L 313.123008 213.923996 
L 326.428522 213.663658 
L 327.260117 213.618381 
L 328.091712 213.595743 
L 328.923306 213.497644 
L 329.754901 213.905131 
L 330.586496 213.844763 
L 331.41809 213.576878 
L 332.249685 213.369361 
L 333.08128 213.486325 
L 333.912874 213.607062 
L 343.89201 214.391852 
L 344.723604 213.856082 
L 345.555199 213.516509 
L 346.386794 213.105249 
L 347.218388 213.516509 
L 348.049983 213.241078 
L 348.881578 213.09393 
L 349.713172 213.086384 
L 350.544767 213.199575 
L 351.376361 213.520282 
L 352.207956 213.765529 
L 353.039551 214.233385 
L 353.871145 213.980592 
L 354.70274 213.663658 
L 355.534335 213.286355 
L 356.365929 212.96942 
L 357.197524 212.920371 
L 358.029119 212.905279 
L 358.860713 213.124114 
L 359.692308 212.826045 
L 360.523902 212.377055 
L 361.355497 212.135581 
L 362.187092 212.316686 
L 363.018686 212.07144 
L 363.850281 212.048801 
L 364.681876 211.871469 
L 365.51347 212.026163 
L 366.345065 211.916745 
L 367.17666 211.275331 
L 368.008254 211.030084 
L 368.839849 210.871617 
L 369.671443 210.928212 
L 370.503038 210.358485 
L 371.334633 210.052869 
L 372.166227 209.249214 
L 372.997822 208.532339 
L 373.829417 208.158809 
L 374.661011 207.777733 
L 375.492606 207.547579 
L 376.324201 207.781506 
L 377.155795 207.966385 
L 377.98739 207.626812 
L 378.818984 206.943894 
L 379.650579 205.940269 
L 380.482174 205.419591 
L 381.313768 204.789495 
L 382.145363 204.065073 
L 382.976958 203.891514 
L 383.808552 203.838692 
L 384.640147 203.042583 
L 385.471742 201.888036 
L 386.303336 200.64671 
L 387.134931 199.16391 
L 387.966525 197.922583 
L 388.79812 196.137941 
L 389.629715 193.334581 
L 390.461309 191.074537 
L 391.292904 189.018236 
L 392.124499 188.041022 
L 392.956093 185.577235 
L 393.787688 181.498591 
L 394.619283 178.683912 
L 395.450877 177.050191 
L 396.282472 175.412696 
L 397.114066 173.073419 
L 397.945661 171.964148 
L 398.777256 170.764325 
" style="fill:none;stroke:#f47915;stroke-linecap:round;stroke-width:2;"/>
   </g>
   <g id="line2d_12">
    <path clip-path="url(#pe032163b2f)" d="M 135.993351 211.245146 
L 136.824946 210.747107 
L 137.65654 210.958396 
L 138.488135 211.414933 
L 139.31973 210.335847 
L 140.151324 210.70183 
L 140.982919 211.724321 
L 141.814514 211.064041 
L 142.646108 210.686738 
L 143.477703 211.577173 
L 144.309297 212.105397 
L 145.140892 211.637541 
L 145.972487 211.629995 
L 146.804081 211.882788 
L 147.635676 211.365883 
L 148.467271 211.53567 
L 150.13046 211.067814 
L 150.962054 210.762199 
L 151.793649 210.920666 
L 152.625244 210.494314 
L 153.456838 210.75088 
L 154.288433 210.686738 
L 155.951622 210.954623 
L 156.783217 210.815021 
L 157.614812 211.064041 
L 158.446406 211.139502 
L 159.278001 210.890482 
L 160.109595 211.147048 
L 160.94119 210.931985 
L 161.772785 211.026311 
L 162.604379 210.641462 
L 163.435974 210.532044 
L 164.267569 210.622597 
L 165.099163 210.837659 
L 165.930758 210.41508 
L 166.762353 210.822567 
L 167.593947 210.732015 
L 169.257136 210.958396 
L 170.920326 210.573547 
L 172.583515 210.864071 
L 173.41511 210.833886 
L 174.246704 210.675419 
L 175.078299 210.403761 
L 176.741488 210.57732 
L 177.573083 210.524498 
L 178.404677 210.709376 
L 179.236272 210.430172 
L 180.067867 210.418853 
L 180.899461 210.656554 
L 181.731056 210.50186 
L 182.562651 210.667873 
L 183.394245 210.320754 
L 185.889029 209.992501 
L 186.720624 209.7548 
L 187.552218 209.988728 
L 189.215408 210.034004 
L 190.047002 210.147195 
L 192.541786 210.00382 
L 193.373381 209.641609 
L 194.204976 209.901948 
L 195.03657 209.811396 
L 195.868165 210.052869 
L 196.699759 209.981182 
L 197.531354 210.192471 
L 200.026138 209.735935 
L 201.689327 209.954771 
L 202.520922 209.660474 
L 203.352516 209.528418 
L 205.015706 209.71707 
L 207.51049 209.826488 
L 208.342084 210.034004 
L 209.173679 210.124557 
L 210.005274 210.060415 
L 210.836868 209.603879 
L 211.668463 209.664248 
L 212.500057 209.449185 
L 214.163247 209.96609 
L 214.994841 209.264307 
L 215.826436 209.203938 
L 216.658031 209.366178 
L 217.489625 209.38127 
L 218.32122 209.26808 
L 219.152815 208.928507 
L 220.816004 208.883231 
L 221.647598 209.154889 
L 222.479193 209.275626 
L 223.310788 208.913415 
L 224.142382 209.068109 
L 224.973977 208.653076 
L 225.805572 209.158662 
L 226.637166 209.015287 
L 227.468761 208.592707 
L 228.300356 208.792678 
L 229.13195 209.264307 
L 229.963545 208.962464 
L 230.795139 209.271853 
L 231.626734 208.562523 
L 232.458329 209.158662 
L 233.289923 209.151116 
L 234.121518 209.279399 
L 234.953113 209.524645 
L 235.784707 209.01906 
L 237.447897 208.996421 
L 238.279491 208.887004 
L 239.111086 208.554977 
L 239.94268 208.48329 
L 240.774275 209.060563 
L 241.60587 208.539885 
L 243.269059 208.679487 
L 244.100654 208.411602 
L 244.932248 208.422921 
L 245.763843 208.256908 
L 246.595437 208.290865 
L 247.427032 208.188993 
L 248.258627 207.638131 
L 249.090221 207.44948 
L 249.921816 207.64945 
L 250.753411 207.385338 
L 251.585005 207.589082 
L 252.4166 207.245736 
L 254.079789 207.770187 
L 254.911384 207.419296 
L 255.742978 206.683555 
L 256.574573 206.32889 
L 257.406168 206.460946 
L 258.237762 206.709966 
L 259.069357 206.393032 
L 259.900952 206.242111 
L 260.732546 206.464719 
L 264.058925 205.027196 
L 264.890519 205.43091 
L 265.722114 204.77063 
L 266.553709 204.755538 
L 267.385303 205.106429 
L 268.216898 204.725353 
L 269.048493 204.589524 
L 269.880087 204.744219 
L 270.711682 205.389406 
L 271.543277 204.393327 
L 274.03806 203.680225 
L 274.869655 203.748139 
L 275.70125 203.219915 
L 276.532844 203.223688 
L 277.364439 202.736967 
L 279.027628 202.891662 
L 281.522412 202.250247 
L 284.017196 202.242701 
L 284.848791 202.41626 
L 285.680385 201.816349 
L 287.343575 200.978736 
L 289.006764 200.974963 
L 289.838359 201.140977 
L 290.669953 200.97119 
L 292.333142 199.741183 
L 293.164737 198.888479 
L 294.827926 199.005442 
L 295.659521 199.544986 
L 296.491116 199.654403 
L 297.32271 198.594182 
L 298.154305 198.126327 
L 298.985899 197.462274 
L 299.817494 197.333991 
L 301.480683 195.794595 
L 302.312278 196.088892 
L 303.143873 196.224721 
L 303.975467 195.809687 
L 304.807062 196.156806 
L 305.638657 196.156806 
L 308.13344 194.775878 
L 308.965035 195.821007 
L 309.79663 195.466342 
L 311.459819 194.353299 
L 312.291414 194.002407 
L 313.123008 193.127064 
L 313.954603 193.244028 
L 314.786198 191.617853 
L 315.617792 191.304692 
L 317.280981 191.259415 
L 318.112576 194.236335 
L 318.944171 195.907786 
L 319.775765 196.492606 
L 320.60736 194.553269 
L 321.438955 193.840167 
L 322.270549 192.930867 
L 323.102144 191.704633 
L 323.933739 192.621479 
L 324.765333 190.606681 
L 325.596928 190.270882 
L 326.428522 189.403085 
L 327.260117 189.701155 
L 328.091712 191.214139 
L 328.923306 191.146224 
L 329.754901 190.470852 
L 330.586496 188.776763 
L 331.41809 187.784456 
L 332.249685 186.565768 
L 333.08128 185.614965 
L 333.912874 185.343307 
L 334.744469 185.343307 
L 336.407658 179.08008 
L 337.239253 178.250014 
L 338.070847 177.687832 
L 340.565631 182.717279 
L 341.397226 183.415289 
L 342.228821 182.66823 
L 343.060415 181.566506 
L 343.89201 181.626874 
L 344.723604 181.030736 
L 345.555199 181.377854 
L 347.218388 178.00854 
L 348.049983 176.578562 
L 349.713172 175.265548 
L 350.544767 175.246683 
L 351.376361 173.763883 
L 352.207956 171.971694 
L 353.039551 170.519079 
L 353.871145 170.364384 
L 354.70274 168.768393 
L 355.534335 166.263103 
L 357.197524 164.052108 
L 358.029119 162.765505 
L 358.860713 162.124091 
L 359.692308 159.74331 
L 360.523902 157.954894 
L 361.355497 158.000171 
L 362.187092 156.679611 
L 363.018686 152.668882 
L 363.850281 153.770606 
L 364.681876 154.068675 
L 366.345065 148.812847 
L 368.008254 141.300747 
L 368.839849 139.550062 
L 369.671443 141.881794 
L 370.503038 142.296827 
L 371.334633 141.3913 
L 372.166227 140.76875 
L 372.997822 139.101072 
L 373.829417 136.871212 
L 375.492606 130.185406 
L 376.324201 128.046099 
L 377.155795 126.687808 
L 377.98739 127.842355 
L 378.818984 127.404684 
L 379.650579 124.880528 
L 380.482174 121.590447 
L 382.145363 112.452173 
L 382.976958 104.660869 
L 384.640147 95.586736 
L 385.471742 87.49359 
L 386.303336 84.505352 
L 387.134931 83.7432 
L 387.966525 83.856391 
L 388.79812 80.211645 
L 389.629715 74.914314 
L 390.461309 72.925928 
L 391.292904 73.605073 
L 392.124499 75.167107 
L 392.956093 82.437732 
L 393.787688 84.754372 
L 394.619283 85.301461 
L 395.450877 82.233989 
L 396.282472 74.99732 
L 397.945661 71.04696 
L 398.777256 69.488699 
L 398.777256 69.488699 
" style="fill:none;stroke:#165aa7;stroke-linecap:round;stroke-width:2;"/>
   </g>
   <g id="line2d_13">
    <path clip-path="url(#pe032163b2f)" d="M 94.413619 212.614756 
L 135.993351 212.7204 
L 177.573083 213.086384 
L 219.984409 213.222213 
L 236.616302 213.595743 
L 261.564141 213.558013 
L 277.364439 213.935316 
L 290.669953 213.576878 
L 291.501548 213.399546 
L 292.333142 213.354269 
L 293.164737 213.452368 
L 293.996332 213.263717 
L 294.827926 213.622154 
L 295.659521 213.320312 
L 297.32271 213.135434 
L 298.154305 213.225986 
L 298.985899 213.512736 
L 299.817494 212.818499 
L 300.649089 212.799634 
L 301.480683 213.135434 
L 303.143873 212.901506 
L 303.975467 212.546841 
L 305.638657 212.475154 
L 306.470251 212.569479 
L 307.301846 212.444969 
L 308.13344 212.746812 
L 308.965035 212.690216 
L 309.79663 212.075213 
L 312.291414 212.090305 
L 313.123008 212.192176 
L 313.954603 211.901653 
L 314.786198 212.014844 
L 315.617792 211.845058 
L 316.449387 211.928065 
L 317.280981 212.592117 
L 318.112576 211.931838 
L 318.944171 212.339325 
L 319.775765 211.977114 
L 320.60736 211.788462 
L 321.438955 211.999752 
L 322.270549 211.77337 
L 325.596928 211.618676 
L 326.428522 211.422479 
L 328.923306 211.509258 
L 331.41809 211.679045 
L 332.249685 211.520577 
L 333.912874 211.716775 
L 338.070847 211.365883 
L 339.734037 211.61113 
L 340.565631 211.950703 
L 342.228821 211.954476 
L 343.060415 211.871469 
L 346.386794 211.924291 
L 347.218388 211.894107 
L 348.049983 211.995979 
L 348.881578 211.852604 
L 349.713172 212.120489 
L 350.544767 211.992206 
L 351.376361 212.143127 
L 352.207956 211.954476 
L 354.70274 212.131808 
L 355.534335 212.007298 
L 356.365929 212.429877 
L 357.197524 212.595891 
L 358.029119 212.448742 
L 358.860713 212.595891 
L 362.187092 212.577025 
L 363.018686 212.339325 
L 363.850281 212.478927 
L 364.681876 212.10917 
L 365.51347 212.328006 
L 367.17666 212.577025 
L 368.008254 212.980739 
L 368.839849 212.935463 
L 372.166227 213.34295 
L 372.997822 213.395773 
L 374.661011 213.120341 
L 376.324201 212.614756 
L 377.155795 212.407239 
L 377.98739 212.354417 
L 380.482174 211.64886 
L 382.976958 210.675419 
L 384.640147 209.947225 
L 386.303336 209.377497 
L 387.134931 209.034152 
L 388.79812 207.807918 
L 391.292904 204.672531 
L 392.124499 203.084086 
L 392.956093 202.397395 
L 394.619283 199.258235 
L 395.450877 198.480992 
L 396.282472 198.186695 
L 397.114066 197.205708 
L 398.777256 194.757013 
L 398.777256 194.757013 
" style="fill:none;stroke:#06ab54;stroke-linecap:round;stroke-width:2;"/>
   </g>
   <g id="line2d_14">
    <path clip-path="url(#pe032163b2f)" d="M 94.413619 214.433355 
L 135.993351 214.078691 
L 177.573083 214.233385 
L 260.732546 213.814579 
L 280.690818 213.437276 
L 281.522412 213.165618 
L 282.354007 213.293901 
L 283.185601 213.203348 
L 284.017196 213.248624 
L 285.680385 212.897733 
L 286.51198 213.067519 
L 288.175169 213.029789 
L 289.006764 213.037335 
L 289.838359 212.912825 
L 291.501548 212.452515 
L 292.333142 212.716627 
L 293.164737 212.546841 
L 293.996332 212.150673 
L 294.827926 212.429877 
L 295.659521 212.1469 
L 296.491116 212.165765 
L 297.32271 211.607357 
L 298.154305 211.588492 
L 298.985899 211.950703 
L 299.817494 211.89788 
L 300.649089 210.954623 
L 301.480683 211.48662 
L 303.143873 211.169686 
L 303.975467 211.558308 
L 304.807062 211.2376 
L 305.638657 211.260238 
L 306.470251 211.418706 
L 307.301846 210.713149 
L 308.13344 210.569774 
L 310.628224 210.679192 
L 311.459819 210.418853 
L 312.291414 210.275478 
L 313.123008 210.260386 
L 313.954603 210.562228 
L 314.786198 210.045323 
L 315.617792 209.034152 
L 316.449387 208.856819 
L 317.280981 208.841727 
L 318.112576 208.041845 
L 318.944171 208.702125 
L 319.775765 207.879605 
L 321.438955 208.132398 
L 322.270549 207.996569 
L 323.102144 207.747549 
L 324.765333 207.826783 
L 325.596928 207.208006 
L 326.428522 207.041993 
L 327.260117 207.924881 
L 328.091712 207.989023 
L 328.923306 207.3627 
L 329.754901 206.551499 
L 330.586496 206.676009 
L 331.41809 206.562818 
L 332.249685 205.951588 
L 333.08128 205.612015 
L 333.912874 204.951735 
L 334.744469 203.125589 
L 335.576063 202.853931 
L 336.407658 202.87657 
L 337.239253 203.167093 
L 338.070847 203.167093 
L 338.902442 203.997159 
L 339.734037 210.547136 
L 341.397226 209.596333 
L 342.228821 208.690806 
L 343.060415 208.332369 
L 343.89201 207.743776 
L 344.723604 206.483585 
L 345.555199 205.604469 
L 347.218388 204.581978 
L 348.049983 203.548169 
L 349.713172 201.903128 
L 350.544767 200.93346 
L 351.376361 199.695907 
L 353.871145 193.625104 
L 354.70274 192.089482 
L 355.534335 189.437043 
L 356.365929 187.995746 
L 358.029119 181.917397 
L 360.523902 168.560877 
L 361.355497 166.232918 
L 363.018686 158.943428 
L 363.850281 160.271534 
L 364.681876 158.000171 
L 366.345065 151.586022 
L 368.008254 143.711712 
L 368.839849 140.248072 
L 369.671443 141.961027 
L 370.503038 143.289133 
L 371.334633 145.364299 
L 372.166227 145.949118 
L 372.997822 145.496355 
L 373.829417 140.380128 
L 374.661011 136.060011 
L 375.492606 128.959172 
L 377.155795 117.862695 
L 377.98739 111.184435 
L 379.650579 104.181694 
L 380.482174 101.31042 
L 381.313768 95.960266 
L 382.145363 94.473693 
L 382.976958 94.013383 
L 383.808552 96.013088 
L 384.640147 96.586588 
L 385.471742 91.628829 
L 386.303336 92.413619 
L 387.134931 91.926898 
L 387.966525 90.564835 
L 388.79812 87.629419 
L 389.629715 84.090319 
L 390.461309 83.033871 
L 391.292904 81.215271 
L 392.124499 84.222375 
L 392.956093 89.727223 
L 393.787688 83.392308 
L 394.619283 85.271276 
L 395.450877 84.6525 
L 396.282472 83.328167 
L 397.114066 83.116877 
L 398.777256 79.713606 
L 398.777256 79.713606 
" style="fill:none;stroke:#bb60d5;stroke-linecap:round;stroke-width:2;"/>
   </g>
   <g id="line2d_15">
    <path clip-path="url(#pe032163b2f)" d="M 94.413619 213.863628 
L 152.625244 212.06012 
L 198.362949 210.143422 
L 219.152815 209.777438 
L 220.816004 209.513326 
L 221.647598 209.645382 
L 222.479193 209.649155 
L 224.973977 209.271853 
L 225.805572 209.834034 
L 226.637166 209.46805 
L 228.300356 209.086974 
L 229.13195 209.230349 
L 231.626734 209.022833 
L 232.458329 209.354859 
L 236.616302 209.275626 
L 237.447897 209.05679 
L 238.279491 209.147343 
L 239.94268 208.743629 
L 242.437464 208.649303 
L 243.269059 208.93228 
L 244.932248 207.781506 
L 246.595437 207.094815 
L 247.427032 207.581536 
L 248.258627 207.211779 
L 249.090221 207.064631 
L 249.921816 207.385338 
L 250.753411 207.472118 
L 251.585005 206.996716 
L 252.4166 207.502302 
L 253.248195 207.706046 
L 254.079789 207.789052 
L 254.911384 207.638131 
L 255.742978 207.117453 
L 258.237762 206.623187 
L 259.069357 206.351529 
L 259.900952 206.630733 
L 260.732546 206.589229 
L 261.564141 206.155331 
L 262.395736 205.59315 
L 263.22733 204.797041 
L 264.058925 204.759311 
L 264.890519 205.034742 
L 265.722114 204.778176 
L 266.553709 205.049834 
L 267.385303 204.993238 
L 269.048493 204.325412 
L 269.880087 204.593297 
L 270.711682 204.197129 
L 271.543277 203.351971 
L 272.374871 202.895435 
L 273.206466 203.638721 
L 274.03806 203.744366 
L 274.869655 203.299149 
L 275.70125 203.118043 
L 276.532844 202.740741 
L 277.364439 203.152001 
L 279.859223 202.231382 
L 280.690818 202.676599 
L 281.522412 202.265339 
L 282.354007 202.427579 
L 283.185601 202.284204 
L 284.017196 201.989908 
L 285.680385 198.888479 
L 286.51198 198.707373 
L 287.343575 198.001817 
L 289.006764 198.103689 
L 289.838359 198.394212 
L 290.669953 198.25461 
L 291.501548 197.828258 
L 292.333142 198.326297 
L 293.164737 197.567919 
L 293.996332 197.688656 
L 294.827926 197.254757 
L 295.659521 195.753092 
L 296.491116 197.190616 
L 297.32271 198.141419 
L 298.154305 196.23604 
L 298.985899 197.039695 
L 299.817494 195.511618 
L 300.649089 195.455023 
L 301.480683 193.889216 
L 302.312278 193.659061 
L 303.143873 191.508435 
L 303.975467 191.757455 
L 304.807062 191.006622 
L 305.638657 191.821597 
L 306.470251 190.482171 
L 307.301846 187.961789 
L 308.13344 188.044795 
L 308.965035 190.950027 
L 309.79663 188.316453 
L 310.628224 188.625842 
L 311.459819 188.154213 
L 312.291414 187.260005 
L 313.123008 186.682732 
L 313.954603 189.576645 
L 314.786198 189.199342 
L 315.617792 185.773432 
L 316.449387 186.988347 
L 317.280981 184.618885 
L 318.112576 184.494376 
L 318.944171 185.233889 
L 319.775765 186.558222 
L 320.60736 185.305577 
L 321.438955 181.706108 
L 323.102144 181.023189 
L 323.933739 179.178179 
L 324.765333 179.3291 
L 325.596928 179.36683 
L 326.428522 177.468997 
L 327.260117 181.441996 
L 328.091712 183.803911 
L 328.923306 188.855996 
L 329.754901 189.818118 
L 330.586496 187.531663 
L 332.249685 180.581745 
L 333.08128 177.819888 
L 333.912874 180.283676 
L 334.744469 177.785931 
L 335.576063 174.586403 
L 337.239253 163.765358 
L 338.070847 159.173582 
L 338.902442 155.366597 
L 339.734037 156.909765 
L 340.565631 162.648541 
L 341.397226 164.210575 
L 342.228821 162.316515 
L 343.060415 164.003059 
L 343.89201 159.74331 
L 344.723604 156.40418 
L 345.555199 155.20813 
L 346.386794 153.419714 
L 347.218388 154.944018 
L 348.049983 151.710532 
L 349.713172 151.57093 
L 350.544767 153.314069 
L 351.376361 149.707054 
L 352.207956 149.114689 
L 353.039551 148.673245 
L 353.871145 145.647276 
L 354.70274 143.617387 
L 355.534335 140.429178 
L 357.197524 132.245479 
L 358.029119 131.064521 
L 358.860713 127.857447 
L 359.692308 125.955841 
L 360.523902 126.853822 
L 361.355497 125.205008 
L 362.187092 121.356519 
L 363.018686 116.874162 
L 364.681876 119.315311 
L 365.51347 115.153661 
L 366.345065 111.599468 
L 367.17666 106.747354 
L 368.008254 104.242063 
L 368.839849 105.517346 
L 369.671443 103.845895 
L 370.503038 107.034104 
L 371.334633 103.457273 
L 372.166227 96.224378 
L 373.829417 89.527252 
L 374.661011 86.210761 
L 375.492606 81.928373 
L 376.324201 78.562832 
L 377.155795 77.713901 
L 377.98739 79.668329 
L 378.818984 76.736686 
L 379.650579 74.770939 
L 380.482174 70.824351 
L 381.313768 68.624675 
L 382.145363 64.764867 
L 383.808552 54.732385 
L 385.471742 44.115083 
L 386.303336 44.149041 
L 387.134931 42.681333 
L 387.966525 39.319564 
L 389.629715 29.898313 
L 390.461309 26.747834 
L 391.292904 25.193346 
L 392.124499 27.555262 
L 392.956093 34.433493 
L 393.787688 31.362248 
L 394.619283 29.822852 
L 395.450877 27.110045 
L 396.282472 25.340494 
L 397.114066 22.318299 
L 397.945661 18.820702 
L 398.777256 17.220937 
L 398.777256 17.220937 
" style="fill:none;stroke:#cb495c;stroke-linecap:round;stroke-width:2;"/>
   </g>
   <g id="text_13">
    <!-- United Kingdom -->
    <defs>
     <path d="M 54.6875 71.578125 
L 64.15625 71.578125 
L 64.15625 30.21875 
Q 64.15625 19.4375 61.71875 13.078125 
Q 59.28125 6.734375 52.90625 2.75 
Q 46.53125 -1.21875 36.1875 -1.21875 
Q 26.125 -1.21875 19.71875 2.25 
Q 13.328125 5.71875 10.59375 12.28125 
Q 7.859375 18.84375 7.859375 30.21875 
L 7.859375 71.578125 
L 17.328125 71.578125 
L 17.328125 30.28125 
Q 17.328125 20.953125 19.0625 16.53125 
Q 20.796875 12.109375 25.015625 9.71875 
Q 29.25 7.328125 35.359375 7.328125 
Q 45.796875 7.328125 50.234375 12.0625 
Q 54.6875 16.796875 54.6875 30.28125 
z
" id="ArialMT-85"/>
     <path d="M 6.59375 0 
L 6.59375 51.859375 
L 14.5 51.859375 
L 14.5 44.484375 
Q 20.21875 53.03125 31 53.03125 
Q 35.6875 53.03125 39.625 51.34375 
Q 43.5625 49.65625 45.515625 46.921875 
Q 47.46875 44.1875 48.25 40.4375 
Q 48.734375 37.984375 48.734375 31.890625 
L 48.734375 0 
L 39.9375 0 
L 39.9375 31.546875 
Q 39.9375 36.921875 38.90625 39.578125 
Q 37.890625 42.234375 35.28125 43.8125 
Q 32.671875 45.40625 29.15625 45.40625 
Q 23.53125 45.40625 19.453125 41.84375 
Q 15.375 38.28125 15.375 28.328125 
L 15.375 0 
z
" id="ArialMT-110"/>
     <path d="M 40.234375 0 
L 40.234375 6.546875 
Q 35.296875 -1.171875 25.734375 -1.171875 
Q 19.53125 -1.171875 14.328125 2.25 
Q 9.125 5.671875 6.265625 11.796875 
Q 3.421875 17.921875 3.421875 25.875 
Q 3.421875 33.640625 6 39.96875 
Q 8.59375 46.296875 13.765625 49.65625 
Q 18.953125 53.03125 25.34375 53.03125 
Q 30.03125 53.03125 33.6875 51.046875 
Q 37.359375 49.078125 39.65625 45.90625 
L 39.65625 71.578125 
L 48.390625 71.578125 
L 48.390625 0 
z
M 12.453125 25.875 
Q 12.453125 15.921875 16.640625 10.984375 
Q 20.84375 6.0625 26.5625 6.0625 
Q 32.328125 6.0625 36.34375 10.765625 
Q 40.375 15.484375 40.375 25.140625 
Q 40.375 35.796875 36.265625 40.765625 
Q 32.171875 45.75 26.171875 45.75 
Q 20.3125 45.75 16.375 40.96875 
Q 12.453125 36.1875 12.453125 25.875 
z
" id="ArialMT-100"/>
     <path d="M 7.328125 0 
L 7.328125 71.578125 
L 16.796875 71.578125 
L 16.796875 36.078125 
L 52.34375 71.578125 
L 65.1875 71.578125 
L 35.15625 42.578125 
L 66.5 0 
L 54 0 
L 28.515625 36.234375 
L 16.796875 24.8125 
L 16.796875 0 
z
" id="ArialMT-75"/>
     <path d="M 4.984375 -4.296875 
L 13.53125 -5.5625 
Q 14.0625 -9.515625 16.5 -11.328125 
Q 19.78125 -13.765625 25.4375 -13.765625 
Q 31.546875 -13.765625 34.859375 -11.328125 
Q 38.1875 -8.890625 39.359375 -4.5 
Q 40.046875 -1.8125 39.984375 6.78125 
Q 34.234375 0 25.640625 0 
Q 14.9375 0 9.078125 7.71875 
Q 3.21875 15.4375 3.21875 26.21875 
Q 3.21875 33.640625 5.90625 39.90625 
Q 8.59375 46.1875 13.6875 49.609375 
Q 18.796875 53.03125 25.6875 53.03125 
Q 34.859375 53.03125 40.828125 45.609375 
L 40.828125 51.859375 
L 48.921875 51.859375 
L 48.921875 7.03125 
Q 48.921875 -5.078125 46.453125 -10.125 
Q 44 -15.1875 38.640625 -18.109375 
Q 33.296875 -21.046875 25.484375 -21.046875 
Q 16.21875 -21.046875 10.5 -16.875 
Q 4.78125 -12.703125 4.984375 -4.296875 
z
M 12.25 26.859375 
Q 12.25 16.65625 16.296875 11.96875 
Q 20.359375 7.28125 26.46875 7.28125 
Q 32.515625 7.28125 36.609375 11.9375 
Q 40.71875 16.609375 40.71875 26.5625 
Q 40.71875 36.078125 36.5 40.90625 
Q 32.28125 45.75 26.3125 45.75 
Q 20.453125 45.75 16.34375 40.984375 
Q 12.25 36.234375 12.25 26.859375 
z
" id="ArialMT-103"/>
     <path d="M 3.328125 25.921875 
Q 3.328125 40.328125 11.328125 47.265625 
Q 18.015625 53.03125 27.640625 53.03125 
Q 38.328125 53.03125 45.109375 46.015625 
Q 51.90625 39.015625 51.90625 26.65625 
Q 51.90625 16.65625 48.90625 10.90625 
Q 45.90625 5.171875 40.15625 2 
Q 34.421875 -1.171875 27.640625 -1.171875 
Q 16.75 -1.171875 10.03125 5.8125 
Q 3.328125 12.796875 3.328125 25.921875 
z
M 12.359375 25.921875 
Q 12.359375 15.96875 16.703125 11.015625 
Q 21.046875 6.0625 27.640625 6.0625 
Q 34.1875 6.0625 38.53125 11.03125 
Q 42.875 16.015625 42.875 26.21875 
Q 42.875 35.84375 38.5 40.796875 
Q 34.125 45.75 27.640625 45.75 
Q 21.046875 45.75 16.703125 40.8125 
Q 12.359375 35.890625 12.359375 25.921875 
z
" id="ArialMT-111"/>
     <path d="M 6.59375 0 
L 6.59375 51.859375 
L 14.453125 51.859375 
L 14.453125 44.578125 
Q 16.890625 48.390625 20.9375 50.703125 
Q 25 53.03125 30.171875 53.03125 
Q 35.9375 53.03125 39.625 50.640625 
Q 43.3125 48.25 44.828125 43.953125 
Q 50.984375 53.03125 60.84375 53.03125 
Q 68.5625 53.03125 72.703125 48.75 
Q 76.859375 44.484375 76.859375 35.59375 
L 76.859375 0 
L 68.109375 0 
L 68.109375 32.671875 
Q 68.109375 37.9375 67.25 40.25 
Q 66.40625 42.578125 64.15625 43.984375 
Q 61.921875 45.40625 58.890625 45.40625 
Q 53.421875 45.40625 49.796875 41.765625 
Q 46.1875 38.140625 46.1875 30.125 
L 46.1875 0 
L 37.40625 0 
L 37.40625 33.6875 
Q 37.40625 39.546875 35.25 42.46875 
Q 33.109375 45.40625 28.21875 45.40625 
Q 24.515625 45.40625 21.359375 43.453125 
Q 18.21875 41.5 16.796875 37.734375 
Q 15.375 33.984375 15.375 26.90625 
L 15.375 0 
z
" id="ArialMT-109"/>
    </defs>
    <g style="fill:#165aa7;" transform="translate(402.103634 69.488699)scale(0.14 -0.14)">
     <use xlink:href="#ArialMT-85"/>
     <use x="72.216797" xlink:href="#ArialMT-110"/>
     <use x="127.832031" xlink:href="#ArialMT-105"/>
     <use x="150.048828" xlink:href="#ArialMT-116"/>
     <use x="177.832031" xlink:href="#ArialMT-101"/>
     <use x="233.447266" xlink:href="#ArialMT-100"/>
     <use x="289.0625" xlink:href="#ArialMT-32"/>
     <use x="316.845703" xlink:href="#ArialMT-75"/>
     <use x="383.544922" xlink:href="#ArialMT-105"/>
     <use x="405.761719" xlink:href="#ArialMT-110"/>
     <use x="461.376953" xlink:href="#ArialMT-103"/>
     <use x="516.992188" xlink:href="#ArialMT-100"/>
     <use x="572.607422" xlink:href="#ArialMT-111"/>
     <use x="628.222656" xlink:href="#ArialMT-109"/>
    </g>
   </g>
   <g id="text_14">
    <!-- United States -->
    <defs>
     <path d="M 4.5 23 
L 13.421875 23.78125 
Q 14.0625 18.40625 16.375 14.96875 
Q 18.703125 11.53125 23.578125 9.40625 
Q 28.46875 7.28125 34.578125 7.28125 
Q 39.984375 7.28125 44.140625 8.890625 
Q 48.296875 10.5 50.3125 13.296875 
Q 52.34375 16.109375 52.34375 19.4375 
Q 52.34375 22.796875 50.390625 25.3125 
Q 48.4375 27.828125 43.953125 29.546875 
Q 41.0625 30.671875 31.203125 33.03125 
Q 21.34375 35.40625 17.390625 37.5 
Q 12.25 40.1875 9.734375 44.15625 
Q 7.234375 48.140625 7.234375 53.078125 
Q 7.234375 58.5 10.296875 63.203125 
Q 13.375 67.921875 19.28125 70.359375 
Q 25.203125 72.796875 32.421875 72.796875 
Q 40.375 72.796875 46.453125 70.234375 
Q 52.546875 67.671875 55.8125 62.6875 
Q 59.078125 57.71875 59.328125 51.421875 
L 50.25 50.734375 
Q 49.515625 57.515625 45.28125 60.984375 
Q 41.0625 64.453125 32.8125 64.453125 
Q 24.21875 64.453125 20.28125 61.296875 
Q 16.359375 58.15625 16.359375 53.71875 
Q 16.359375 49.859375 19.140625 47.359375 
Q 21.875 44.875 33.421875 42.265625 
Q 44.96875 39.65625 49.265625 37.703125 
Q 55.515625 34.8125 58.484375 30.390625 
Q 61.46875 25.984375 61.46875 20.21875 
Q 61.46875 14.5 58.203125 9.4375 
Q 54.9375 4.390625 48.796875 1.578125 
Q 42.671875 -1.21875 35.015625 -1.21875 
Q 25.296875 -1.21875 18.71875 1.609375 
Q 12.15625 4.4375 8.421875 10.125 
Q 4.6875 15.828125 4.5 23 
z
" id="ArialMT-83"/>
     <path d="M 3.078125 15.484375 
L 11.765625 16.84375 
Q 12.5 11.625 15.84375 8.84375 
Q 19.1875 6.0625 25.203125 6.0625 
Q 31.25 6.0625 34.171875 8.515625 
Q 37.109375 10.984375 37.109375 14.3125 
Q 37.109375 17.28125 34.515625 19 
Q 32.71875 20.171875 25.53125 21.96875 
Q 15.875 24.421875 12.140625 26.203125 
Q 8.40625 27.984375 6.46875 31.125 
Q 4.546875 34.28125 4.546875 38.09375 
Q 4.546875 41.546875 6.125 44.5 
Q 7.71875 47.46875 10.453125 49.421875 
Q 12.5 50.921875 16.03125 51.96875 
Q 19.578125 53.03125 23.640625 53.03125 
Q 29.734375 53.03125 34.34375 51.265625 
Q 38.96875 49.515625 41.15625 46.5 
Q 43.359375 43.5 44.1875 38.484375 
L 35.59375 37.3125 
Q 35.015625 41.3125 32.203125 43.546875 
Q 29.390625 45.796875 24.265625 45.796875 
Q 18.21875 45.796875 15.625 43.796875 
Q 13.03125 41.796875 13.03125 39.109375 
Q 13.03125 37.40625 14.109375 36.03125 
Q 15.1875 34.625 17.484375 33.6875 
Q 18.796875 33.203125 25.25 31.453125 
Q 34.578125 28.953125 38.25 27.359375 
Q 41.9375 25.78125 44.03125 22.75 
Q 46.140625 19.734375 46.140625 15.234375 
Q 46.140625 10.84375 43.578125 6.953125 
Q 41.015625 3.078125 36.171875 0.953125 
Q 31.34375 -1.171875 25.25 -1.171875 
Q 15.140625 -1.171875 9.84375 3.03125 
Q 4.546875 7.234375 3.078125 15.484375 
z
" id="ArialMT-115"/>
    </defs>
    <g style="fill:#cb495c;" transform="translate(402.103634 17.220937)scale(0.14 -0.14)">
     <use xlink:href="#ArialMT-85"/>
     <use x="72.216797" xlink:href="#ArialMT-110"/>
     <use x="127.832031" xlink:href="#ArialMT-105"/>
     <use x="150.048828" xlink:href="#ArialMT-116"/>
     <use x="177.832031" xlink:href="#ArialMT-101"/>
     <use x="233.447266" xlink:href="#ArialMT-100"/>
     <use x="289.0625" xlink:href="#ArialMT-32"/>
     <use x="316.845703" xlink:href="#ArialMT-83"/>
     <use x="383.544922" xlink:href="#ArialMT-116"/>
     <use x="411.328125" xlink:href="#ArialMT-97"/>
     <use x="466.943359" xlink:href="#ArialMT-116"/>
     <use x="494.726562" xlink:href="#ArialMT-101"/>
     <use x="550.341797" xlink:href="#ArialMT-115"/>
    </g>
   </g>
   <g id="text_15">
    <!-- Japan -->
    <defs>
     <path d="M 2.875 20.3125 
L 11.421875 21.484375 
Q 11.765625 13.28125 14.5 10.25 
Q 17.234375 7.234375 22.078125 7.234375 
Q 25.640625 7.234375 28.21875 8.859375 
Q 30.8125 10.5 31.78125 13.296875 
Q 32.765625 16.109375 32.765625 22.265625 
L 32.765625 71.578125 
L 42.234375 71.578125 
L 42.234375 22.796875 
Q 42.234375 13.8125 40.0625 8.875 
Q 37.890625 3.953125 33.171875 1.359375 
Q 28.46875 -1.21875 22.125 -1.21875 
Q 12.703125 -1.21875 7.6875 4.203125 
Q 2.6875 9.625 2.875 20.3125 
z
" id="ArialMT-74"/>
    </defs>
    <g style="fill:#bb60d5;" transform="translate(402.103634 83.486634)scale(0.14 -0.14)">
     <use xlink:href="#ArialMT-74"/>
     <use x="50" xlink:href="#ArialMT-97"/>
     <use x="105.615234" xlink:href="#ArialMT-112"/>
     <use x="161.230469" xlink:href="#ArialMT-97"/>
     <use x="216.845703" xlink:href="#ArialMT-110"/>
    </g>
   </g>
   <g id="text_16">
    <!-- China -->
    <defs>
     <path d="M 58.796875 25.09375 
L 68.265625 22.703125 
Q 65.28125 11.03125 57.546875 4.90625 
Q 49.8125 -1.21875 38.625 -1.21875 
Q 27.046875 -1.21875 19.796875 3.484375 
Q 12.546875 8.203125 8.765625 17.140625 
Q 4.984375 26.078125 4.984375 36.328125 
Q 4.984375 47.515625 9.25 55.828125 
Q 13.53125 64.15625 21.40625 68.46875 
Q 29.296875 72.796875 38.765625 72.796875 
Q 49.515625 72.796875 56.828125 67.328125 
Q 64.15625 61.859375 67.046875 51.953125 
L 57.71875 49.75 
Q 55.21875 57.5625 50.484375 61.125 
Q 45.75 64.703125 38.578125 64.703125 
Q 30.328125 64.703125 24.78125 60.734375 
Q 19.234375 56.78125 16.984375 50.109375 
Q 14.75 43.453125 14.75 36.375 
Q 14.75 27.25 17.40625 20.4375 
Q 20.0625 13.625 25.671875 10.25 
Q 31.296875 6.890625 37.84375 6.890625 
Q 45.796875 6.890625 51.3125 11.46875 
Q 56.84375 16.0625 58.796875 25.09375 
z
" id="ArialMT-67"/>
     <path d="M 6.59375 0 
L 6.59375 71.578125 
L 15.375 71.578125 
L 15.375 45.90625 
Q 21.53125 53.03125 30.90625 53.03125 
Q 36.671875 53.03125 40.921875 50.75 
Q 45.171875 48.484375 47 44.484375 
Q 48.828125 40.484375 48.828125 32.859375 
L 48.828125 0 
L 40.046875 0 
L 40.046875 32.859375 
Q 40.046875 39.453125 37.1875 42.453125 
Q 34.328125 45.453125 29.109375 45.453125 
Q 25.203125 45.453125 21.75 43.421875 
Q 18.3125 41.40625 16.84375 37.9375 
Q 15.375 34.46875 15.375 28.375 
L 15.375 0 
z
" id="ArialMT-104"/>
    </defs>
    <g style="fill:#f47915;" transform="translate(402.103634 170.764325)scale(0.14 -0.14)">
     <use xlink:href="#ArialMT-67"/>
     <use x="72.216797" xlink:href="#ArialMT-104"/>
     <use x="127.832031" xlink:href="#ArialMT-105"/>
     <use x="150.048828" xlink:href="#ArialMT-110"/>
     <use x="205.664062" xlink:href="#ArialMT-97"/>
    </g>
   </g>
   <g id="text_17">
    <!-- India -->
    <defs>
     <path d="M 9.328125 0 
L 9.328125 71.578125 
L 18.796875 71.578125 
L 18.796875 0 
z
" id="ArialMT-73"/>
    </defs>
    <g style="fill:#06ab54;" transform="translate(402.103634 194.757013)scale(0.14 -0.14)">
     <use xlink:href="#ArialMT-73"/>
     <use x="27.783203" xlink:href="#ArialMT-110"/>
     <use x="83.398438" xlink:href="#ArialMT-100"/>
     <use x="139.013672" xlink:href="#ArialMT-105"/>
     <use x="161.230469" xlink:href="#ArialMT-97"/>
    </g>
   </g>
   <g id="text_18">
    <!-- Source: Maddison Project Database (MPD) 2018 -->
    <defs>
     <path d="M 40.578125 0 
L 40.578125 7.625 
Q 34.515625 -1.171875 24.125 -1.171875 
Q 19.53125 -1.171875 15.546875 0.578125 
Q 11.578125 2.34375 9.640625 5 
Q 7.71875 7.671875 6.9375 11.53125 
Q 6.390625 14.109375 6.390625 19.734375 
L 6.390625 51.859375 
L 15.1875 51.859375 
L 15.1875 23.09375 
Q 15.1875 16.21875 15.71875 13.8125 
Q 16.546875 10.359375 19.234375 8.375 
Q 21.921875 6.390625 25.875 6.390625 
Q 29.828125 6.390625 33.296875 8.421875 
Q 36.765625 10.453125 38.203125 13.9375 
Q 39.65625 17.4375 39.65625 24.078125 
L 39.65625 51.859375 
L 48.4375 51.859375 
L 48.4375 0 
z
" id="ArialMT-117"/>
     <path d="M 9.03125 41.84375 
L 9.03125 51.859375 
L 19.046875 51.859375 
L 19.046875 41.84375 
z
M 9.03125 0 
L 9.03125 10.015625 
L 19.046875 10.015625 
L 19.046875 0 
z
" id="ArialMT-58"/>
     <path d="M 7.421875 0 
L 7.421875 71.578125 
L 21.6875 71.578125 
L 38.625 20.90625 
Q 40.96875 13.8125 42.046875 10.296875 
Q 43.265625 14.203125 45.84375 21.78125 
L 62.984375 71.578125 
L 75.734375 71.578125 
L 75.734375 0 
L 66.609375 0 
L 66.609375 59.90625 
L 45.796875 0 
L 37.25 0 
L 16.546875 60.9375 
L 16.546875 0 
z
" id="ArialMT-77"/>
     <path d="M 6.546875 61.375 
L 6.546875 71.578125 
L 15.328125 71.578125 
L 15.328125 61.375 
z
M -4.59375 -20.125 
L -2.9375 -12.640625 
Q -0.296875 -13.328125 1.21875 -13.328125 
Q 3.90625 -13.328125 5.21875 -11.546875 
Q 6.546875 -9.765625 6.546875 -2.640625 
L 6.546875 51.859375 
L 15.328125 51.859375 
L 15.328125 -2.828125 
Q 15.328125 -12.40625 12.84375 -16.15625 
Q 9.671875 -21.046875 2.296875 -21.046875 
Q -1.265625 -21.046875 -4.59375 -20.125 
z
" id="ArialMT-106"/>
     <path d="M 14.703125 0 
L 6.546875 0 
L 6.546875 71.578125 
L 15.328125 71.578125 
L 15.328125 46.046875 
Q 20.90625 53.03125 29.546875 53.03125 
Q 34.328125 53.03125 38.59375 51.09375 
Q 42.875 49.171875 45.625 45.671875 
Q 48.390625 42.1875 49.953125 37.25 
Q 51.515625 32.328125 51.515625 26.703125 
Q 51.515625 13.375 44.921875 6.09375 
Q 38.328125 -1.171875 29.109375 -1.171875 
Q 19.921875 -1.171875 14.703125 6.5 
z
M 14.59375 26.3125 
Q 14.59375 17 17.140625 12.84375 
Q 21.296875 6.0625 28.375 6.0625 
Q 34.125 6.0625 38.328125 11.0625 
Q 42.53125 16.0625 42.53125 25.984375 
Q 42.53125 36.140625 38.5 40.96875 
Q 34.46875 45.796875 28.765625 45.796875 
Q 23 45.796875 18.796875 40.796875 
Q 14.59375 35.796875 14.59375 26.3125 
z
" id="ArialMT-98"/>
     <path d="M 23.390625 -21.046875 
Q 16.109375 -11.859375 11.078125 0.4375 
Q 6.0625 12.75 6.0625 25.921875 
Q 6.0625 37.546875 9.8125 48.1875 
Q 14.203125 60.546875 23.390625 72.796875 
L 29.6875 72.796875 
Q 23.78125 62.640625 21.875 58.296875 
Q 18.890625 51.5625 17.1875 44.234375 
Q 15.09375 35.109375 15.09375 25.875 
Q 15.09375 2.390625 29.6875 -21.046875 
z
" id="ArialMT-40"/>
     <path d="M 12.359375 -21.046875 
L 6.0625 -21.046875 
Q 20.65625 2.390625 20.65625 25.875 
Q 20.65625 35.0625 18.5625 44.09375 
Q 16.890625 51.421875 13.921875 58.15625 
Q 12.015625 62.546875 6.0625 72.796875 
L 12.359375 72.796875 
Q 21.53125 60.546875 25.921875 48.1875 
Q 29.6875 37.546875 29.6875 25.921875 
Q 29.6875 12.75 24.625 0.4375 
Q 19.578125 -11.859375 12.359375 -21.046875 
z
" id="ArialMT-41"/>
    </defs>
    <g style="fill:#262626;" transform="translate(119.361458 292.708601)scale(0.14 -0.14)">
     <use xlink:href="#ArialMT-83"/>
     <use x="66.699219" xlink:href="#ArialMT-111"/>
     <use x="122.314453" xlink:href="#ArialMT-117"/>
     <use x="177.929688" xlink:href="#ArialMT-114"/>
     <use x="211.230469" xlink:href="#ArialMT-99"/>
     <use x="261.230469" xlink:href="#ArialMT-101"/>
     <use x="316.845703" xlink:href="#ArialMT-58"/>
     <use x="344.628906" xlink:href="#ArialMT-32"/>
     <use x="372.412109" xlink:href="#ArialMT-77"/>
     <use x="455.712891" xlink:href="#ArialMT-97"/>
     <use x="511.328125" xlink:href="#ArialMT-100"/>
     <use x="566.943359" xlink:href="#ArialMT-100"/>
     <use x="622.558594" xlink:href="#ArialMT-105"/>
     <use x="644.775391" xlink:href="#ArialMT-115"/>
     <use x="694.775391" xlink:href="#ArialMT-111"/>
     <use x="750.390625" xlink:href="#ArialMT-110"/>
     <use x="806.005859" xlink:href="#ArialMT-32"/>
     <use x="833.789062" xlink:href="#ArialMT-80"/>
     <use x="900.488281" xlink:href="#ArialMT-114"/>
     <use x="933.789062" xlink:href="#ArialMT-111"/>
     <use x="989.404297" xlink:href="#ArialMT-106"/>
     <use x="1011.621094" xlink:href="#ArialMT-101"/>
     <use x="1067.236328" xlink:href="#ArialMT-99"/>
     <use x="1117.236328" xlink:href="#ArialMT-116"/>
     <use x="1145.019531" xlink:href="#ArialMT-32"/>
     <use x="1172.802734" xlink:href="#ArialMT-68"/>
     <use x="1245.019531" xlink:href="#ArialMT-97"/>
     <use x="1300.634766" xlink:href="#ArialMT-116"/>
     <use x="1328.417969" xlink:href="#ArialMT-97"/>
     <use x="1384.033203" xlink:href="#ArialMT-98"/>
     <use x="1439.648438" xlink:href="#ArialMT-97"/>
     <use x="1495.263672" xlink:href="#ArialMT-115"/>
     <use x="1545.263672" xlink:href="#ArialMT-101"/>
     <use x="1600.878906" xlink:href="#ArialMT-32"/>
     <use x="1628.662109" xlink:href="#ArialMT-40"/>
     <use x="1661.962891" xlink:href="#ArialMT-77"/>
     <use x="1745.263672" xlink:href="#ArialMT-80"/>
     <use x="1811.962891" xlink:href="#ArialMT-68"/>
     <use x="1884.179688" xlink:href="#ArialMT-41"/>
     <use x="1917.480469" xlink:href="#ArialMT-32"/>
     <use x="1945.263672" xlink:href="#ArialMT-50"/>
     <use x="2000.878906" xlink:href="#ArialMT-48"/>
     <use x="2056.494141" xlink:href="#ArialMT-49"/>
     <use x="2112.109375" xlink:href="#ArialMT-56"/>
    </g>
   </g>
  </g>
 </g>
 <defs>
  <clipPath id="pe032163b2f">
   <rect height="217.44" width="334.8" x="79.195438" y="7.337301"/>
  </clipPath>
 </defs>
</svg>
