<?xml version="1.0" encoding="utf-8" standalone="no"?>
<!DOCTYPE svg PUBLIC "-//W3C//DTD SVG 1.1//EN"
  "http://www.w3.org/Graphics/SVG/1.1/DTD/svg11.dtd">
<!-- Created with matplotlib (http://matplotlib.org/) -->
<svg height="505.152312pt" version="1.1" viewBox="0 0 523.328875 505.152312" width="523.328875pt" xmlns="http://www.w3.org/2000/svg" xmlns:xlink="http://www.w3.org/1999/xlink">
 <defs>
  <style type="text/css">
*{stroke-linecap:butt;stroke-linejoin:round;}
  </style>
 </defs>
 <g id="figure_1">
  <g id="patch_1">
   <path d="M 0 505.152312 
L 523.328875 505.152312 
L 523.328875 0 
L 0 0 
z
" style="fill:#ffffff;"/>
  </g>
  <g id="axes_1">
   <g id="patch_2">
    <path d="M 59.728875 452.08 
L 506.128875 452.08 
L 506.128875 17.2 
L 59.728875 17.2 
z
" style="fill:#ffffff;"/>
   </g>
   <g id="matplotlib.axis_1">
    <g id="xtick_1">
     <g id="line2d_1">
      <path clip-path="url(#p1d5afd4b23)" d="M 91.388449 452.08 
L 91.388449 17.2 
" style="fill:none;opacity:0.9;stroke:#cccccc;stroke-linecap:round;"/>
     </g>
     <g id="text_1">
      <!-- 0.0 -->
      <defs>
       <path d="M 4.15625 35.296875 
Q 4.15625 48 6.765625 55.734375 
Q 9.375 63.484375 14.515625 67.671875 
Q 19.671875 71.875 27.484375 71.875 
Q 33.25 71.875 37.59375 69.546875 
Q 41.9375 67.234375 44.765625 62.859375 
Q 47.609375 58.5 49.21875 52.21875 
Q 50.828125 45.953125 50.828125 35.296875 
Q 50.828125 22.703125 48.234375 14.96875 
Q 45.65625 7.234375 40.5 3 
Q 35.359375 -1.21875 27.484375 -1.21875 
Q 17.140625 -1.21875 11.234375 6.203125 
Q 4.15625 15.140625 4.15625 35.296875 
z
M 13.1875 35.296875 
Q 13.1875 17.671875 17.3125 11.828125 
Q 21.4375 6 27.484375 6 
Q 33.546875 6 37.671875 11.859375 
Q 41.796875 17.71875 41.796875 35.296875 
Q 41.796875 52.984375 37.671875 58.78125 
Q 33.546875 64.59375 27.390625 64.59375 
Q 21.34375 64.59375 17.71875 59.46875 
Q 13.1875 52.9375 13.1875 35.296875 
z
" id="ArialMT-30"/>
       <path d="M 9.078125 0 
L 9.078125 10.015625 
L 19.09375 10.015625 
L 19.09375 0 
z
" id="ArialMT-2e"/>
      </defs>
      <g style="fill:#262626;" transform="translate(81.658449 475.600937)scale(0.14 -0.14)">
       <use xlink:href="#ArialMT-30"/>
       <use x="55.615234" xlink:href="#ArialMT-2e"/>
       <use x="83.398438" xlink:href="#ArialMT-30"/>
      </g>
     </g>
    </g>
    <g id="xtick_2">
     <g id="line2d_2">
      <path clip-path="url(#p1d5afd4b23)" d="M 154.707598 452.08 
L 154.707598 17.2 
" style="fill:none;opacity:0.9;stroke:#cccccc;stroke-linecap:round;"/>
     </g>
     <g id="text_2">
      <!-- 0.2 -->
      <defs>
       <path d="M 50.34375 8.453125 
L 50.34375 0 
L 3.03125 0 
Q 2.9375 3.171875 4.046875 6.109375 
Q 5.859375 10.9375 9.828125 15.625 
Q 13.8125 20.3125 21.34375 26.46875 
Q 33.015625 36.03125 37.109375 41.625 
Q 41.21875 47.21875 41.21875 52.203125 
Q 41.21875 57.421875 37.46875 61 
Q 33.734375 64.59375 27.734375 64.59375 
Q 21.390625 64.59375 17.578125 60.78125 
Q 13.765625 56.984375 13.71875 50.25 
L 4.6875 51.171875 
Q 5.609375 61.28125 11.65625 66.578125 
Q 17.71875 71.875 27.9375 71.875 
Q 38.234375 71.875 44.234375 66.15625 
Q 50.25 60.453125 50.25 52 
Q 50.25 47.703125 48.484375 43.546875 
Q 46.734375 39.40625 42.65625 34.8125 
Q 38.578125 30.21875 29.109375 22.21875 
Q 21.1875 15.578125 18.9375 13.203125 
Q 16.703125 10.84375 15.234375 8.453125 
z
" id="ArialMT-32"/>
      </defs>
      <g style="fill:#262626;" transform="translate(144.977598 475.600937)scale(0.14 -0.14)">
       <use xlink:href="#ArialMT-30"/>
       <use x="55.615234" xlink:href="#ArialMT-2e"/>
       <use x="83.398438" xlink:href="#ArialMT-32"/>
      </g>
     </g>
    </g>
    <g id="xtick_3">
     <g id="line2d_3">
      <path clip-path="url(#p1d5afd4b23)" d="M 218.026747 452.08 
L 218.026747 17.2 
" style="fill:none;opacity:0.9;stroke:#cccccc;stroke-linecap:round;"/>
     </g>
     <g id="text_3">
      <!-- 0.4 -->
      <defs>
       <path d="M 32.328125 0 
L 32.328125 17.140625 
L 1.265625 17.140625 
L 1.265625 25.203125 
L 33.9375 71.578125 
L 41.109375 71.578125 
L 41.109375 25.203125 
L 50.78125 25.203125 
L 50.78125 17.140625 
L 41.109375 17.140625 
L 41.109375 0 
z
M 32.328125 25.203125 
L 32.328125 57.46875 
L 9.90625 25.203125 
z
" id="ArialMT-34"/>
      </defs>
      <g style="fill:#262626;" transform="translate(208.296747 475.600937)scale(0.14 -0.14)">
       <use xlink:href="#ArialMT-30"/>
       <use x="55.615234" xlink:href="#ArialMT-2e"/>
       <use x="83.398438" xlink:href="#ArialMT-34"/>
      </g>
     </g>
    </g>
    <g id="xtick_4">
     <g id="line2d_4">
      <path clip-path="url(#p1d5afd4b23)" d="M 281.345896 452.08 
L 281.345896 17.2 
" style="fill:none;opacity:0.9;stroke:#cccccc;stroke-linecap:round;"/>
     </g>
     <g id="text_4">
      <!-- 0.6 -->
      <defs>
       <path d="M 49.75 54.046875 
L 41.015625 53.375 
Q 39.84375 58.546875 37.703125 60.890625 
Q 34.125 64.65625 28.90625 64.65625 
Q 24.703125 64.65625 21.53125 62.3125 
Q 17.390625 59.28125 14.984375 53.46875 
Q 12.59375 47.65625 12.5 36.921875 
Q 15.671875 41.75 20.265625 44.09375 
Q 24.859375 46.4375 29.890625 46.4375 
Q 38.671875 46.4375 44.84375 39.96875 
Q 51.03125 33.5 51.03125 23.25 
Q 51.03125 16.5 48.125 10.71875 
Q 45.21875 4.9375 40.140625 1.859375 
Q 35.0625 -1.21875 28.609375 -1.21875 
Q 17.625 -1.21875 10.6875 6.859375 
Q 3.765625 14.9375 3.765625 33.5 
Q 3.765625 54.25 11.421875 63.671875 
Q 18.109375 71.875 29.4375 71.875 
Q 37.890625 71.875 43.28125 67.140625 
Q 48.6875 62.40625 49.75 54.046875 
z
M 13.875 23.1875 
Q 13.875 18.65625 15.796875 14.5 
Q 17.71875 10.359375 21.1875 8.171875 
Q 24.65625 6 28.46875 6 
Q 34.03125 6 38.03125 10.484375 
Q 42.046875 14.984375 42.046875 22.703125 
Q 42.046875 30.125 38.078125 34.390625 
Q 34.125 38.671875 28.125 38.671875 
Q 22.171875 38.671875 18.015625 34.390625 
Q 13.875 30.125 13.875 23.1875 
z
" id="ArialMT-36"/>
      </defs>
      <g style="fill:#262626;" transform="translate(271.615896 475.600937)scale(0.14 -0.14)">
       <use xlink:href="#ArialMT-30"/>
       <use x="55.615234" xlink:href="#ArialMT-2e"/>
       <use x="83.398438" xlink:href="#ArialMT-36"/>
      </g>
     </g>
    </g>
    <g id="xtick_5">
     <g id="line2d_5">
      <path clip-path="url(#p1d5afd4b23)" d="M 344.665045 452.08 
L 344.665045 17.2 
" style="fill:none;opacity:0.9;stroke:#cccccc;stroke-linecap:round;"/>
     </g>
     <g id="text_5">
      <!-- 0.8 -->
      <defs>
       <path d="M 17.671875 38.8125 
Q 12.203125 40.828125 9.5625 44.53125 
Q 6.9375 48.25 6.9375 53.421875 
Q 6.9375 61.234375 12.546875 66.546875 
Q 18.171875 71.875 27.484375 71.875 
Q 36.859375 71.875 42.578125 66.421875 
Q 48.296875 60.984375 48.296875 53.171875 
Q 48.296875 48.1875 45.671875 44.5 
Q 43.0625 40.828125 37.75 38.8125 
Q 44.34375 36.671875 47.78125 31.875 
Q 51.21875 27.09375 51.21875 20.453125 
Q 51.21875 11.28125 44.71875 5.03125 
Q 38.234375 -1.21875 27.640625 -1.21875 
Q 17.046875 -1.21875 10.546875 5.046875 
Q 4.046875 11.328125 4.046875 20.703125 
Q 4.046875 27.6875 7.59375 32.390625 
Q 11.140625 37.109375 17.671875 38.8125 
z
M 15.921875 53.71875 
Q 15.921875 48.640625 19.1875 45.40625 
Q 22.46875 42.1875 27.6875 42.1875 
Q 32.765625 42.1875 36.015625 45.375 
Q 39.265625 48.578125 39.265625 53.21875 
Q 39.265625 58.0625 35.90625 61.359375 
Q 32.5625 64.65625 27.59375 64.65625 
Q 22.5625 64.65625 19.234375 61.421875 
Q 15.921875 58.203125 15.921875 53.71875 
z
M 13.09375 20.65625 
Q 13.09375 16.890625 14.875 13.375 
Q 16.65625 9.859375 20.171875 7.921875 
Q 23.6875 6 27.734375 6 
Q 34.03125 6 38.125 10.046875 
Q 42.234375 14.109375 42.234375 20.359375 
Q 42.234375 26.703125 38.015625 30.859375 
Q 33.796875 35.015625 27.4375 35.015625 
Q 21.234375 35.015625 17.15625 30.90625 
Q 13.09375 26.8125 13.09375 20.65625 
z
" id="ArialMT-38"/>
      </defs>
      <g style="fill:#262626;" transform="translate(334.935045 475.600937)scale(0.14 -0.14)">
       <use xlink:href="#ArialMT-30"/>
       <use x="55.615234" xlink:href="#ArialMT-2e"/>
       <use x="83.398438" xlink:href="#ArialMT-38"/>
      </g>
     </g>
    </g>
    <g id="xtick_6">
     <g id="line2d_6">
      <path clip-path="url(#p1d5afd4b23)" d="M 407.984194 452.08 
L 407.984194 17.2 
" style="fill:none;opacity:0.9;stroke:#cccccc;stroke-linecap:round;"/>
     </g>
     <g id="text_6">
      <!-- 1.0 -->
      <defs>
       <path d="M 37.25 0 
L 28.46875 0 
L 28.46875 56 
Q 25.296875 52.984375 20.140625 49.953125 
Q 14.984375 46.921875 10.890625 45.40625 
L 10.890625 53.90625 
Q 18.265625 57.375 23.78125 62.296875 
Q 29.296875 67.234375 31.59375 71.875 
L 37.25 71.875 
z
" id="ArialMT-31"/>
      </defs>
      <g style="fill:#262626;" transform="translate(398.254194 475.600937)scale(0.14 -0.14)">
       <use xlink:href="#ArialMT-31"/>
       <use x="55.615234" xlink:href="#ArialMT-2e"/>
       <use x="83.398438" xlink:href="#ArialMT-30"/>
      </g>
     </g>
    </g>
    <g id="xtick_7">
     <g id="line2d_7">
      <path clip-path="url(#p1d5afd4b23)" d="M 471.303343 452.08 
L 471.303343 17.2 
" style="fill:none;opacity:0.9;stroke:#cccccc;stroke-linecap:round;"/>
     </g>
     <g id="text_7">
      <!-- 1.2 -->
      <g style="fill:#262626;" transform="translate(461.573343 475.600937)scale(0.14 -0.14)">
       <use xlink:href="#ArialMT-31"/>
       <use x="55.615234" xlink:href="#ArialMT-2e"/>
       <use x="83.398438" xlink:href="#ArialMT-32"/>
      </g>
     </g>
    </g>
    <g id="text_8">
     <!-- GDP per capita relative to the US in 1960 -->
     <defs>
      <path d="M 41.21875 28.078125 
L 41.21875 36.46875 
L 71.53125 36.53125 
L 71.53125 9.96875 
Q 64.546875 4.390625 57.125 1.578125 
Q 49.703125 -1.21875 41.890625 -1.21875 
Q 31.34375 -1.21875 22.71875 3.296875 
Q 14.109375 7.8125 9.71875 16.359375 
Q 5.328125 24.90625 5.328125 35.453125 
Q 5.328125 45.90625 9.6875 54.953125 
Q 14.0625 64.015625 22.265625 68.40625 
Q 30.46875 72.796875 41.15625 72.796875 
Q 48.921875 72.796875 55.1875 70.28125 
Q 61.46875 67.78125 65.03125 63.28125 
Q 68.609375 58.796875 70.453125 51.5625 
L 61.921875 49.21875 
Q 60.296875 54.6875 57.90625 57.8125 
Q 55.515625 60.9375 51.0625 62.8125 
Q 46.625 64.703125 41.21875 64.703125 
Q 34.71875 64.703125 29.984375 62.71875 
Q 25.25 60.75 22.34375 57.515625 
Q 19.4375 54.296875 17.828125 50.4375 
Q 15.09375 43.796875 15.09375 36.03125 
Q 15.09375 26.46875 18.390625 20.015625 
Q 21.6875 13.578125 27.984375 10.453125 
Q 34.28125 7.328125 41.359375 7.328125 
Q 47.515625 7.328125 53.375 9.6875 
Q 59.234375 12.0625 62.25 14.75 
L 62.25 28.078125 
z
" id="ArialMT-47"/>
      <path d="M 7.71875 0 
L 7.71875 71.578125 
L 32.375 71.578125 
Q 40.71875 71.578125 45.125 70.5625 
Q 51.265625 69.140625 55.609375 65.4375 
Q 61.28125 60.640625 64.078125 53.1875 
Q 66.890625 45.75 66.890625 36.1875 
Q 66.890625 28.03125 64.984375 21.734375 
Q 63.09375 15.4375 60.109375 11.296875 
Q 57.125 7.171875 53.578125 4.796875 
Q 50.046875 2.4375 45.046875 1.21875 
Q 40.046875 0 33.546875 0 
z
M 17.1875 8.453125 
L 32.46875 8.453125 
Q 39.546875 8.453125 43.578125 9.765625 
Q 47.609375 11.078125 50 13.484375 
Q 53.375 16.84375 55.25 22.53125 
Q 57.125 28.21875 57.125 36.328125 
Q 57.125 47.5625 53.4375 53.59375 
Q 49.75 59.625 44.484375 61.671875 
Q 40.671875 63.140625 32.234375 63.140625 
L 17.1875 63.140625 
z
" id="ArialMT-44"/>
      <path d="M 7.71875 0 
L 7.71875 71.578125 
L 34.71875 71.578125 
Q 41.84375 71.578125 45.609375 70.90625 
Q 50.875 70.015625 54.4375 67.546875 
Q 58.015625 65.09375 60.1875 60.640625 
Q 62.359375 56.203125 62.359375 50.875 
Q 62.359375 41.75 56.546875 35.421875 
Q 50.734375 29.109375 35.546875 29.109375 
L 17.1875 29.109375 
L 17.1875 0 
z
M 17.1875 37.546875 
L 35.6875 37.546875 
Q 44.875 37.546875 48.734375 40.96875 
Q 52.59375 44.390625 52.59375 50.59375 
Q 52.59375 55.078125 50.3125 58.265625 
Q 48.046875 61.46875 44.34375 62.5 
Q 41.9375 63.140625 35.5 63.140625 
L 17.1875 63.140625 
z
" id="ArialMT-50"/>
      <path id="ArialMT-20"/>
      <path d="M 6.59375 -19.875 
L 6.59375 51.859375 
L 14.59375 51.859375 
L 14.59375 45.125 
Q 17.4375 49.078125 21 51.046875 
Q 24.5625 53.03125 29.640625 53.03125 
Q 36.28125 53.03125 41.359375 49.609375 
Q 46.4375 46.1875 49.015625 39.953125 
Q 51.609375 33.734375 51.609375 26.3125 
Q 51.609375 18.359375 48.75 11.984375 
Q 45.90625 5.609375 40.453125 2.21875 
Q 35.015625 -1.171875 29 -1.171875 
Q 24.609375 -1.171875 21.109375 0.6875 
Q 17.625 2.546875 15.375 5.375 
L 15.375 -19.875 
z
M 14.546875 25.640625 
Q 14.546875 15.625 18.59375 10.84375 
Q 22.65625 6.0625 28.421875 6.0625 
Q 34.28125 6.0625 38.453125 11.015625 
Q 42.625 15.96875 42.625 26.375 
Q 42.625 36.28125 38.546875 41.203125 
Q 34.46875 46.140625 28.8125 46.140625 
Q 23.1875 46.140625 18.859375 40.890625 
Q 14.546875 35.640625 14.546875 25.640625 
z
" id="ArialMT-70"/>
      <path d="M 42.09375 16.703125 
L 51.171875 15.578125 
Q 49.03125 7.625 43.21875 3.21875 
Q 37.40625 -1.171875 28.375 -1.171875 
Q 17 -1.171875 10.328125 5.828125 
Q 3.65625 12.84375 3.65625 25.484375 
Q 3.65625 38.578125 10.390625 45.796875 
Q 17.140625 53.03125 27.875 53.03125 
Q 38.28125 53.03125 44.875 45.953125 
Q 51.46875 38.875 51.46875 26.03125 
Q 51.46875 25.25 51.421875 23.6875 
L 12.75 23.6875 
Q 13.234375 15.140625 17.578125 10.59375 
Q 21.921875 6.0625 28.421875 6.0625 
Q 33.25 6.0625 36.671875 8.59375 
Q 40.09375 11.140625 42.09375 16.703125 
z
M 13.234375 30.90625 
L 42.1875 30.90625 
Q 41.609375 37.453125 38.875 40.71875 
Q 34.671875 45.796875 27.984375 45.796875 
Q 21.921875 45.796875 17.796875 41.75 
Q 13.671875 37.703125 13.234375 30.90625 
z
" id="ArialMT-65"/>
      <path d="M 6.5 0 
L 6.5 51.859375 
L 14.40625 51.859375 
L 14.40625 44 
Q 17.4375 49.515625 20 51.265625 
Q 22.5625 53.03125 25.640625 53.03125 
Q 30.078125 53.03125 34.671875 50.203125 
L 31.640625 42.046875 
Q 28.421875 43.953125 25.203125 43.953125 
Q 22.3125 43.953125 20.015625 42.21875 
Q 17.71875 40.484375 16.75 37.40625 
Q 15.28125 32.71875 15.28125 27.15625 
L 15.28125 0 
z
" id="ArialMT-72"/>
      <path d="M 40.4375 19 
L 49.078125 17.875 
Q 47.65625 8.9375 41.8125 3.875 
Q 35.984375 -1.171875 27.484375 -1.171875 
Q 16.84375 -1.171875 10.375 5.78125 
Q 3.90625 12.75 3.90625 25.734375 
Q 3.90625 34.125 6.6875 40.421875 
Q 9.46875 46.734375 15.15625 49.875 
Q 20.84375 53.03125 27.546875 53.03125 
Q 35.984375 53.03125 41.359375 48.75 
Q 46.734375 44.484375 48.25 36.625 
L 39.703125 35.296875 
Q 38.484375 40.53125 35.375 43.15625 
Q 32.28125 45.796875 27.875 45.796875 
Q 21.234375 45.796875 17.078125 41.03125 
Q 12.9375 36.28125 12.9375 25.984375 
Q 12.9375 15.53125 16.9375 10.796875 
Q 20.953125 6.0625 27.390625 6.0625 
Q 32.5625 6.0625 36.03125 9.234375 
Q 39.5 12.40625 40.4375 19 
z
" id="ArialMT-63"/>
      <path d="M 40.4375 6.390625 
Q 35.546875 2.25 31.03125 0.53125 
Q 26.515625 -1.171875 21.34375 -1.171875 
Q 12.796875 -1.171875 8.203125 3 
Q 3.609375 7.171875 3.609375 13.671875 
Q 3.609375 17.484375 5.34375 20.625 
Q 7.078125 23.78125 9.890625 25.6875 
Q 12.703125 27.59375 16.21875 28.5625 
Q 18.796875 29.25 24.03125 29.890625 
Q 34.671875 31.15625 39.703125 32.90625 
Q 39.75 34.71875 39.75 35.203125 
Q 39.75 40.578125 37.25 42.78125 
Q 33.890625 45.75 27.25 45.75 
Q 21.046875 45.75 18.09375 43.578125 
Q 15.140625 41.40625 13.71875 35.890625 
L 5.125 37.0625 
Q 6.296875 42.578125 8.984375 45.96875 
Q 11.671875 49.359375 16.75 51.1875 
Q 21.828125 53.03125 28.515625 53.03125 
Q 35.15625 53.03125 39.296875 51.46875 
Q 43.453125 49.90625 45.40625 47.53125 
Q 47.359375 45.171875 48.140625 41.546875 
Q 48.578125 39.3125 48.578125 33.453125 
L 48.578125 21.734375 
Q 48.578125 9.46875 49.140625 6.21875 
Q 49.703125 2.984375 51.375 0 
L 42.1875 0 
Q 40.828125 2.734375 40.4375 6.390625 
z
M 39.703125 26.03125 
Q 34.90625 24.078125 25.34375 22.703125 
Q 19.921875 21.921875 17.671875 20.9375 
Q 15.4375 19.96875 14.203125 18.09375 
Q 12.984375 16.21875 12.984375 13.921875 
Q 12.984375 10.40625 15.640625 8.0625 
Q 18.3125 5.71875 23.4375 5.71875 
Q 28.515625 5.71875 32.46875 7.9375 
Q 36.421875 10.15625 38.28125 14.015625 
Q 39.703125 17 39.703125 22.796875 
z
" id="ArialMT-61"/>
      <path d="M 6.640625 61.46875 
L 6.640625 71.578125 
L 15.4375 71.578125 
L 15.4375 61.46875 
z
M 6.640625 0 
L 6.640625 51.859375 
L 15.4375 51.859375 
L 15.4375 0 
z
" id="ArialMT-69"/>
      <path d="M 25.78125 7.859375 
L 27.046875 0.09375 
Q 23.34375 -0.6875 20.40625 -0.6875 
Q 15.625 -0.6875 12.984375 0.828125 
Q 10.359375 2.34375 9.28125 4.8125 
Q 8.203125 7.28125 8.203125 15.1875 
L 8.203125 45.015625 
L 1.765625 45.015625 
L 1.765625 51.859375 
L 8.203125 51.859375 
L 8.203125 64.703125 
L 16.9375 69.96875 
L 16.9375 51.859375 
L 25.78125 51.859375 
L 25.78125 45.015625 
L 16.9375 45.015625 
L 16.9375 14.703125 
Q 16.9375 10.9375 17.40625 9.859375 
Q 17.875 8.796875 18.921875 8.15625 
Q 19.96875 7.515625 21.921875 7.515625 
Q 23.390625 7.515625 25.78125 7.859375 
z
" id="ArialMT-74"/>
      <path d="M 6.390625 0 
L 6.390625 71.578125 
L 15.1875 71.578125 
L 15.1875 0 
z
" id="ArialMT-6c"/>
      <path d="M 21 0 
L 1.265625 51.859375 
L 10.546875 51.859375 
L 21.6875 20.796875 
Q 23.484375 15.765625 25 10.359375 
Q 26.171875 14.453125 28.265625 20.21875 
L 39.796875 51.859375 
L 48.828125 51.859375 
L 29.203125 0 
z
" id="ArialMT-76"/>
      <path d="M 3.328125 25.921875 
Q 3.328125 40.328125 11.328125 47.265625 
Q 18.015625 53.03125 27.640625 53.03125 
Q 38.328125 53.03125 45.109375 46.015625 
Q 51.90625 39.015625 51.90625 26.65625 
Q 51.90625 16.65625 48.90625 10.90625 
Q 45.90625 5.171875 40.15625 2 
Q 34.421875 -1.171875 27.640625 -1.171875 
Q 16.75 -1.171875 10.03125 5.8125 
Q 3.328125 12.796875 3.328125 25.921875 
z
M 12.359375 25.921875 
Q 12.359375 15.96875 16.703125 11.015625 
Q 21.046875 6.0625 27.640625 6.0625 
Q 34.1875 6.0625 38.53125 11.03125 
Q 42.875 16.015625 42.875 26.21875 
Q 42.875 35.84375 38.5 40.796875 
Q 34.125 45.75 27.640625 45.75 
Q 21.046875 45.75 16.703125 40.8125 
Q 12.359375 35.890625 12.359375 25.921875 
z
" id="ArialMT-6f"/>
      <path d="M 6.59375 0 
L 6.59375 71.578125 
L 15.375 71.578125 
L 15.375 45.90625 
Q 21.53125 53.03125 30.90625 53.03125 
Q 36.671875 53.03125 40.921875 50.75 
Q 45.171875 48.484375 47 44.484375 
Q 48.828125 40.484375 48.828125 32.859375 
L 48.828125 0 
L 40.046875 0 
L 40.046875 32.859375 
Q 40.046875 39.453125 37.1875 42.453125 
Q 34.328125 45.453125 29.109375 45.453125 
Q 25.203125 45.453125 21.75 43.421875 
Q 18.3125 41.40625 16.84375 37.9375 
Q 15.375 34.46875 15.375 28.375 
L 15.375 0 
z
" id="ArialMT-68"/>
      <path d="M 54.6875 71.578125 
L 64.15625 71.578125 
L 64.15625 30.21875 
Q 64.15625 19.4375 61.71875 13.078125 
Q 59.28125 6.734375 52.90625 2.75 
Q 46.53125 -1.21875 36.1875 -1.21875 
Q 26.125 -1.21875 19.71875 2.25 
Q 13.328125 5.71875 10.59375 12.28125 
Q 7.859375 18.84375 7.859375 30.21875 
L 7.859375 71.578125 
L 17.328125 71.578125 
L 17.328125 30.28125 
Q 17.328125 20.953125 19.0625 16.53125 
Q 20.796875 12.109375 25.015625 9.71875 
Q 29.25 7.328125 35.359375 7.328125 
Q 45.796875 7.328125 50.234375 12.0625 
Q 54.6875 16.796875 54.6875 30.28125 
z
" id="ArialMT-55"/>
      <path d="M 4.5 23 
L 13.421875 23.78125 
Q 14.0625 18.40625 16.375 14.96875 
Q 18.703125 11.53125 23.578125 9.40625 
Q 28.46875 7.28125 34.578125 7.28125 
Q 39.984375 7.28125 44.140625 8.890625 
Q 48.296875 10.5 50.3125 13.296875 
Q 52.34375 16.109375 52.34375 19.4375 
Q 52.34375 22.796875 50.390625 25.3125 
Q 48.4375 27.828125 43.953125 29.546875 
Q 41.0625 30.671875 31.203125 33.03125 
Q 21.34375 35.40625 17.390625 37.5 
Q 12.25 40.1875 9.734375 44.15625 
Q 7.234375 48.140625 7.234375 53.078125 
Q 7.234375 58.5 10.296875 63.203125 
Q 13.375 67.921875 19.28125 70.359375 
Q 25.203125 72.796875 32.421875 72.796875 
Q 40.375 72.796875 46.453125 70.234375 
Q 52.546875 67.671875 55.8125 62.6875 
Q 59.078125 57.71875 59.328125 51.421875 
L 50.25 50.734375 
Q 49.515625 57.515625 45.28125 60.984375 
Q 41.0625 64.453125 32.8125 64.453125 
Q 24.21875 64.453125 20.28125 61.296875 
Q 16.359375 58.15625 16.359375 53.71875 
Q 16.359375 49.859375 19.140625 47.359375 
Q 21.875 44.875 33.421875 42.265625 
Q 44.96875 39.65625 49.265625 37.703125 
Q 55.515625 34.8125 58.484375 30.390625 
Q 61.46875 25.984375 61.46875 20.21875 
Q 61.46875 14.5 58.203125 9.4375 
Q 54.9375 4.390625 48.796875 1.578125 
Q 42.671875 -1.21875 35.015625 -1.21875 
Q 25.296875 -1.21875 18.71875 1.609375 
Q 12.15625 4.4375 8.421875 10.125 
Q 4.6875 15.828125 4.5 23 
z
" id="ArialMT-53"/>
      <path d="M 6.59375 0 
L 6.59375 51.859375 
L 14.5 51.859375 
L 14.5 44.484375 
Q 20.21875 53.03125 31 53.03125 
Q 35.6875 53.03125 39.625 51.34375 
Q 43.5625 49.65625 45.515625 46.921875 
Q 47.46875 44.1875 48.25 40.4375 
Q 48.734375 37.984375 48.734375 31.890625 
L 48.734375 0 
L 39.9375 0 
L 39.9375 31.546875 
Q 39.9375 36.921875 38.90625 39.578125 
Q 37.890625 42.234375 35.28125 43.8125 
Q 32.671875 45.40625 29.15625 45.40625 
Q 23.53125 45.40625 19.453125 41.84375 
Q 15.375 38.28125 15.375 28.328125 
L 15.375 0 
z
" id="ArialMT-6e"/>
      <path d="M 5.46875 16.546875 
L 13.921875 17.328125 
Q 14.984375 11.375 18.015625 8.6875 
Q 21.046875 6 25.78125 6 
Q 29.828125 6 32.875 7.859375 
Q 35.9375 9.71875 37.890625 12.8125 
Q 39.84375 15.921875 41.15625 21.1875 
Q 42.484375 26.46875 42.484375 31.9375 
Q 42.484375 32.515625 42.4375 33.6875 
Q 39.796875 29.5 35.234375 26.875 
Q 30.671875 24.265625 25.34375 24.265625 
Q 16.453125 24.265625 10.296875 30.703125 
Q 4.15625 37.15625 4.15625 47.703125 
Q 4.15625 58.59375 10.578125 65.234375 
Q 17 71.875 26.65625 71.875 
Q 33.640625 71.875 39.421875 68.109375 
Q 45.21875 64.359375 48.21875 57.390625 
Q 51.21875 50.4375 51.21875 37.25 
Q 51.21875 23.53125 48.234375 15.40625 
Q 45.265625 7.28125 39.375 3.03125 
Q 33.5 -1.21875 25.59375 -1.21875 
Q 17.1875 -1.21875 11.859375 3.4375 
Q 6.546875 8.109375 5.46875 16.546875 
z
M 41.453125 48.140625 
Q 41.453125 55.71875 37.421875 60.15625 
Q 33.40625 64.59375 27.734375 64.59375 
Q 21.875 64.59375 17.53125 59.8125 
Q 13.1875 55.03125 13.1875 47.40625 
Q 13.1875 40.578125 17.3125 36.296875 
Q 21.4375 32.03125 27.484375 32.03125 
Q 33.59375 32.03125 37.515625 36.296875 
Q 41.453125 40.578125 41.453125 48.140625 
z
" id="ArialMT-39"/>
     </defs>
     <g style="fill:#262626;" transform="translate(128.855812 494.613312)scale(0.168 -0.168)">
      <use xlink:href="#ArialMT-47"/>
      <use x="77.783203" xlink:href="#ArialMT-44"/>
      <use x="150" xlink:href="#ArialMT-50"/>
      <use x="216.683594" xlink:href="#ArialMT-20"/>
      <use x="244.466797" xlink:href="#ArialMT-70"/>
      <use x="300.082031" xlink:href="#ArialMT-65"/>
      <use x="355.697266" xlink:href="#ArialMT-72"/>
      <use x="388.998047" xlink:href="#ArialMT-20"/>
      <use x="416.78125" xlink:href="#ArialMT-63"/>
      <use x="466.78125" xlink:href="#ArialMT-61"/>
      <use x="522.396484" xlink:href="#ArialMT-70"/>
      <use x="578.011719" xlink:href="#ArialMT-69"/>
      <use x="600.228516" xlink:href="#ArialMT-74"/>
      <use x="628.011719" xlink:href="#ArialMT-61"/>
      <use x="683.626953" xlink:href="#ArialMT-20"/>
      <use x="711.410156" xlink:href="#ArialMT-72"/>
      <use x="744.710938" xlink:href="#ArialMT-65"/>
      <use x="800.326172" xlink:href="#ArialMT-6c"/>
      <use x="822.542969" xlink:href="#ArialMT-61"/>
      <use x="878.158203" xlink:href="#ArialMT-74"/>
      <use x="905.941406" xlink:href="#ArialMT-69"/>
      <use x="928.158203" xlink:href="#ArialMT-76"/>
      <use x="978.158203" xlink:href="#ArialMT-65"/>
      <use x="1033.773438" xlink:href="#ArialMT-20"/>
      <use x="1061.556641" xlink:href="#ArialMT-74"/>
      <use x="1089.339844" xlink:href="#ArialMT-6f"/>
      <use x="1144.955078" xlink:href="#ArialMT-20"/>
      <use x="1172.738281" xlink:href="#ArialMT-74"/>
      <use x="1200.521484" xlink:href="#ArialMT-68"/>
      <use x="1256.136719" xlink:href="#ArialMT-65"/>
      <use x="1311.751953" xlink:href="#ArialMT-20"/>
      <use x="1339.535156" xlink:href="#ArialMT-55"/>
      <use x="1411.751953" xlink:href="#ArialMT-53"/>
      <use x="1478.451172" xlink:href="#ArialMT-20"/>
      <use x="1506.234375" xlink:href="#ArialMT-69"/>
      <use x="1528.451172" xlink:href="#ArialMT-6e"/>
      <use x="1584.066406" xlink:href="#ArialMT-20"/>
      <use x="1611.849609" xlink:href="#ArialMT-31"/>
      <use x="1667.464844" xlink:href="#ArialMT-39"/>
      <use x="1723.080078" xlink:href="#ArialMT-36"/>
      <use x="1778.695312" xlink:href="#ArialMT-30"/>
     </g>
    </g>
   </g>
   <g id="matplotlib.axis_2">
    <g id="ytick_1">
     <g id="line2d_8">
      <path clip-path="url(#p1d5afd4b23)" d="M 59.728875 421.237447 
L 506.128875 421.237447 
" style="fill:none;opacity:0.9;stroke:#cccccc;stroke-linecap:round;"/>
     </g>
     <g id="text_9">
      <!-- 0.0 -->
      <g style="fill:#262626;" transform="translate(26.768875 426.247916)scale(0.14 -0.14)">
       <use xlink:href="#ArialMT-30"/>
       <use x="55.615234" xlink:href="#ArialMT-2e"/>
       <use x="83.398438" xlink:href="#ArialMT-30"/>
      </g>
     </g>
    </g>
    <g id="ytick_2">
     <g id="line2d_9">
      <path clip-path="url(#p1d5afd4b23)" d="M 59.728875 359.55234 
L 506.128875 359.55234 
" style="fill:none;opacity:0.9;stroke:#cccccc;stroke-linecap:round;"/>
     </g>
     <g id="text_10">
      <!-- 0.2 -->
      <g style="fill:#262626;" transform="translate(26.768875 364.562809)scale(0.14 -0.14)">
       <use xlink:href="#ArialMT-30"/>
       <use x="55.615234" xlink:href="#ArialMT-2e"/>
       <use x="83.398438" xlink:href="#ArialMT-32"/>
      </g>
     </g>
    </g>
    <g id="ytick_3">
     <g id="line2d_10">
      <path clip-path="url(#p1d5afd4b23)" d="M 59.728875 297.867234 
L 506.128875 297.867234 
" style="fill:none;opacity:0.9;stroke:#cccccc;stroke-linecap:round;"/>
     </g>
     <g id="text_11">
      <!-- 0.4 -->
      <g style="fill:#262626;" transform="translate(26.768875 302.877703)scale(0.14 -0.14)">
       <use xlink:href="#ArialMT-30"/>
       <use x="55.615234" xlink:href="#ArialMT-2e"/>
       <use x="83.398438" xlink:href="#ArialMT-34"/>
      </g>
     </g>
    </g>
    <g id="ytick_4">
     <g id="line2d_11">
      <path clip-path="url(#p1d5afd4b23)" d="M 59.728875 236.182128 
L 506.128875 236.182128 
" style="fill:none;opacity:0.9;stroke:#cccccc;stroke-linecap:round;"/>
     </g>
     <g id="text_12">
      <!-- 0.6 -->
      <g style="fill:#262626;" transform="translate(26.768875 241.192596)scale(0.14 -0.14)">
       <use xlink:href="#ArialMT-30"/>
       <use x="55.615234" xlink:href="#ArialMT-2e"/>
       <use x="83.398438" xlink:href="#ArialMT-36"/>
      </g>
     </g>
    </g>
    <g id="ytick_5">
     <g id="line2d_12">
      <path clip-path="url(#p1d5afd4b23)" d="M 59.728875 174.497021 
L 506.128875 174.497021 
" style="fill:none;opacity:0.9;stroke:#cccccc;stroke-linecap:round;"/>
     </g>
     <g id="text_13">
      <!-- 0.8 -->
      <g style="fill:#262626;" transform="translate(26.768875 179.50749)scale(0.14 -0.14)">
       <use xlink:href="#ArialMT-30"/>
       <use x="55.615234" xlink:href="#ArialMT-2e"/>
       <use x="83.398438" xlink:href="#ArialMT-38"/>
      </g>
     </g>
    </g>
    <g id="ytick_6">
     <g id="line2d_13">
      <path clip-path="url(#p1d5afd4b23)" d="M 59.728875 112.811915 
L 506.128875 112.811915 
" style="fill:none;opacity:0.9;stroke:#cccccc;stroke-linecap:round;"/>
     </g>
     <g id="text_14">
      <!-- 1.0 -->
      <g style="fill:#262626;" transform="translate(26.768875 117.822384)scale(0.14 -0.14)">
       <use xlink:href="#ArialMT-31"/>
       <use x="55.615234" xlink:href="#ArialMT-2e"/>
       <use x="83.398438" xlink:href="#ArialMT-30"/>
      </g>
     </g>
    </g>
    <g id="ytick_7">
     <g id="line2d_14">
      <path clip-path="url(#p1d5afd4b23)" d="M 59.728875 51.126809 
L 506.128875 51.126809 
" style="fill:none;opacity:0.9;stroke:#cccccc;stroke-linecap:round;"/>
     </g>
     <g id="text_15">
      <!-- 1.2 -->
      <g style="fill:#262626;" transform="translate(26.768875 56.137277)scale(0.14 -0.14)">
       <use xlink:href="#ArialMT-31"/>
       <use x="55.615234" xlink:href="#ArialMT-2e"/>
       <use x="83.398438" xlink:href="#ArialMT-32"/>
      </g>
     </g>
    </g>
    <g id="text_16">
     <!-- GDP per capita relative to the US in 2016 -->
     <g style="fill:#262626;" transform="translate(19.429875 388.713062)rotate(-90)scale(0.168 -0.168)">
      <use xlink:href="#ArialMT-47"/>
      <use x="77.783203" xlink:href="#ArialMT-44"/>
      <use x="150" xlink:href="#ArialMT-50"/>
      <use x="216.683594" xlink:href="#ArialMT-20"/>
      <use x="244.466797" xlink:href="#ArialMT-70"/>
      <use x="300.082031" xlink:href="#ArialMT-65"/>
      <use x="355.697266" xlink:href="#ArialMT-72"/>
      <use x="388.998047" xlink:href="#ArialMT-20"/>
      <use x="416.78125" xlink:href="#ArialMT-63"/>
      <use x="466.78125" xlink:href="#ArialMT-61"/>
      <use x="522.396484" xlink:href="#ArialMT-70"/>
      <use x="578.011719" xlink:href="#ArialMT-69"/>
      <use x="600.228516" xlink:href="#ArialMT-74"/>
      <use x="628.011719" xlink:href="#ArialMT-61"/>
      <use x="683.626953" xlink:href="#ArialMT-20"/>
      <use x="711.410156" xlink:href="#ArialMT-72"/>
      <use x="744.710938" xlink:href="#ArialMT-65"/>
      <use x="800.326172" xlink:href="#ArialMT-6c"/>
      <use x="822.542969" xlink:href="#ArialMT-61"/>
      <use x="878.158203" xlink:href="#ArialMT-74"/>
      <use x="905.941406" xlink:href="#ArialMT-69"/>
      <use x="928.158203" xlink:href="#ArialMT-76"/>
      <use x="978.158203" xlink:href="#ArialMT-65"/>
      <use x="1033.773438" xlink:href="#ArialMT-20"/>
      <use x="1061.556641" xlink:href="#ArialMT-74"/>
      <use x="1089.339844" xlink:href="#ArialMT-6f"/>
      <use x="1144.955078" xlink:href="#ArialMT-20"/>
      <use x="1172.738281" xlink:href="#ArialMT-74"/>
      <use x="1200.521484" xlink:href="#ArialMT-68"/>
      <use x="1256.136719" xlink:href="#ArialMT-65"/>
      <use x="1311.751953" xlink:href="#ArialMT-20"/>
      <use x="1339.535156" xlink:href="#ArialMT-55"/>
      <use x="1411.751953" xlink:href="#ArialMT-53"/>
      <use x="1478.451172" xlink:href="#ArialMT-20"/>
      <use x="1506.234375" xlink:href="#ArialMT-69"/>
      <use x="1528.451172" xlink:href="#ArialMT-6e"/>
      <use x="1584.066406" xlink:href="#ArialMT-20"/>
      <use x="1611.849609" xlink:href="#ArialMT-32"/>
      <use x="1667.464844" xlink:href="#ArialMT-30"/>
      <use x="1723.080078" xlink:href="#ArialMT-31"/>
      <use x="1778.695312" xlink:href="#ArialMT-36"/>
     </g>
    </g>
   </g>
   <g id="PathCollection_1">
    <defs>
     <path d="M 0 3 
C 0.795609 3 1.55874 2.683901 2.12132 2.12132 
C 2.683901 1.55874 3 0.795609 3 0 
C 3 -0.795609 2.683901 -1.55874 2.12132 -2.12132 
C 1.55874 -2.683901 0.795609 -3 0 -3 
C -0.795609 -3 -1.55874 -2.683901 -2.12132 -2.12132 
C -2.683901 -1.55874 -3 -0.795609 -3 0 
C -3 0.795609 -2.683901 1.55874 -2.12132 2.12132 
C -1.55874 2.683901 -0.795609 3 0 3 
z
" id="m56e302864a" style="stroke:#000000;"/>
    </defs>
    <g clip-path="url(#p1d5afd4b23)">
     <use style="stroke:#000000;" x="139.496696" xlink:href="#m56e302864a" y="410.015097"/>
     <use style="stroke:#000000;" x="128.942336" xlink:href="#m56e302864a" y="355.584667"/>
     <use style="stroke:#000000;" x="247.915574" xlink:href="#m56e302864a" y="312.475487"/>
     <use style="stroke:#000000;" x="357.807152" xlink:href="#m56e302864a" y="160.703247"/>
     <use style="stroke:#000000;" x="240.552066" xlink:href="#m56e302864a" y="159.382629"/>
     <use style="stroke:#000000;" x="111.567966" xlink:href="#m56e302864a" y="402.329912"/>
     <use style="stroke:#000000;" x="217.181697" xlink:href="#m56e302864a" y="362.129583"/>
     <use style="stroke:#000000;" x="251.159023" xlink:href="#m56e302864a" y="190.082648"/>
     <use style="stroke:#000000;" x="113.847146" xlink:href="#m56e302864a" y="408.636302"/>
     <use style="stroke:#000000;" x="113.075731" xlink:href="#m56e302864a" y="385.644739"/>
     <use style="stroke:#000000;" x="108.254387" xlink:href="#m56e302864a" y="359.709418"/>
     <use style="stroke:#000000;" x="112.427041" xlink:href="#m56e302864a" y="333.884634"/>
     <use style="stroke:#000000;" x="131.361774" xlink:href="#m56e302864a" y="342.820626"/>
     <use style="stroke:#000000;" x="181.73167" xlink:href="#m56e302864a" y="316.792222"/>
     <use style="stroke:#000000;" x="118.686023" xlink:href="#m56e302864a" y="412.156012"/>
     <use style="stroke:#000000;" x="108.447241" xlink:href="#m56e302864a" y="417.211596"/>
     <use style="stroke:#000000;" x="113.899743" xlink:href="#m56e302864a" y="383.352564"/>
     <use style="stroke:#000000;" x="104.87068" xlink:href="#m56e302864a" y="401.998303"/>
     <use style="stroke:#000000;" x="110.095264" xlink:href="#m56e302864a" y="404.930425"/>
     <use style="stroke:#000000;" x="330.281661" xlink:href="#m56e302864a" y="171.256561"/>
     <use style="stroke:#000000;" x="115.845813" xlink:href="#m56e302864a" y="417.636289"/>
     <use style="stroke:#000000;" x="117.371111" xlink:href="#m56e302864a" y="408.485042"/>
     <use style="stroke:#000000;" x="178.347963" xlink:href="#m56e302864a" y="296.470985"/>
     <use style="stroke:#000000;" x="107.570633" xlink:href="#m56e302864a" y="349.563344"/>
     <use style="stroke:#000000;" x="179.084314" xlink:href="#m56e302864a" y="147.555238"/>
     <use style="stroke:#000000;" x="150.594554" xlink:href="#m56e302864a" y="345.822561"/>
     <use style="stroke:#000000;" x="110.726422" xlink:href="#m56e302864a" y="411.271721"/>
     <use style="stroke:#000000;" x="115.863345" xlink:href="#m56e302864a" y="396.163146"/>
     <use style="stroke:#000000;" x="158.413897" xlink:href="#m56e302864a" y="339.871051"/>
     <use style="stroke:#000000;" x="193.285363" xlink:href="#m56e302864a" y="295.429616"/>
     <use style="stroke:#000000;" x="170.721473" xlink:href="#m56e302864a" y="266.835605"/>
     <use style="stroke:#000000;" x="258.838109" xlink:href="#m56e302864a" y="246.019864"/>
     <use style="stroke:#000000;" x="127.680021" xlink:href="#m56e302864a" y="399.921383"/>
     <use style="stroke:#000000;" x="128.539096" xlink:href="#m56e302864a" y="416.373847"/>
     <use style="stroke:#000000;" x="302.703574" xlink:href="#m56e302864a" y="158.620509"/>
     <use style="stroke:#000000;" x="179.522618" xlink:href="#m56e302864a" y="401.492162"/>
     <use style="stroke:#000000;" x="144.844005" xlink:href="#m56e302864a" y="364.381034"/>
     <use style="stroke:#000000;" x="127.066395" xlink:href="#m56e302864a" y="339.277645"/>
     <use style="stroke:#000000;" x="142.68755" xlink:href="#m56e302864a" y="359.942127"/>
     <use style="stroke:#000000;" x="120.474303" xlink:href="#m56e302864a" y="354.7411"/>
     <use style="stroke:#000000;" x="118.142526" xlink:href="#m56e302864a" y="372.746891"/>
     <use style="stroke:#000000;" x="111.550433" xlink:href="#m56e302864a" y="238.061246"/>
     <use style="stroke:#000000;" x="104.537569" xlink:href="#m56e302864a" y="411.585877"/>
     <use style="stroke:#000000;" x="239.149494" xlink:href="#m56e302864a" y="198.215797"/>
     <use style="stroke:#000000;" x="238.413143" xlink:href="#m56e302864a" y="315.907931"/>
     <use style="stroke:#000000;" x="128.521564" xlink:href="#m56e302864a" y="326.054006"/>
     <use style="stroke:#000000;" x="271.689183" xlink:href="#m56e302864a" y="195.754909"/>
     <use style="stroke:#000000;" x="185.045248" xlink:href="#m56e302864a" y="337.84649"/>
     <use style="stroke:#000000;" x="126.347576" xlink:href="#m56e302864a" y="409.892926"/>
     <use style="stroke:#000000;" x="294.533587" xlink:href="#m56e302864a" y="148.730414"/>
     <use style="stroke:#000000;" x="139.654486" xlink:href="#m56e302864a" y="399.403607"/>
     <use style="stroke:#000000;" x="170.107848" xlink:href="#m56e302864a" y="277.604174"/>
     <use style="stroke:#000000;" x="129.029997" xlink:href="#m56e302864a" y="379.7165"/>
     <use style="stroke:#000000;" x="116.266584" xlink:href="#m56e302864a" y="411.533518"/>
     <use style="stroke:#000000;" x="106.132996" xlink:href="#m56e302864a" y="413.360277"/>
     <use style="stroke:#000000;" x="138.54996" xlink:href="#m56e302864a" y="411.719684"/>
     <use style="stroke:#000000;" x="125.961869" xlink:href="#m56e302864a" y="395.435933"/>
     <use style="stroke:#000000;" x="170.405894" xlink:href="#m56e302864a" y="281.339139"/>
     <use style="stroke:#000000;" x="289.747307" xlink:href="#m56e302864a" y="171.192566"/>
     <use style="stroke:#000000;" x="115.98607" xlink:href="#m56e302864a" y="386.558118"/>
     <use style="stroke:#000000;" x="117.248385" xlink:href="#m56e302864a" y="360.087569"/>
     <use style="stroke:#000000;" x="147.456297" xlink:href="#m56e302864a" y="330.894335"/>
     <use style="stroke:#000000;" x="197.510614" xlink:href="#m56e302864a" y="339.929228"/>
     <use style="stroke:#000000;" x="193.232767" xlink:href="#m56e302864a" y="97.464814"/>
     <use style="stroke:#000000;" x="207.609138" xlink:href="#m56e302864a" y="232.197001"/>
     <use style="stroke:#000000;" x="215.288224" xlink:href="#m56e302864a" y="217.681832"/>
     <use style="stroke:#000000;" x="164.637814" xlink:href="#m56e302864a" y="379.495427"/>
     <use style="stroke:#000000;" x="182.292699" xlink:href="#m56e302864a" y="209.170532"/>
     <use style="stroke:#000000;" x="137.375305" xlink:href="#m56e302864a" y="352.89107"/>
     <use style="stroke:#000000;" x="115.863345" xlink:href="#m56e302864a" y="402.539349"/>
     <use style="stroke:#000000;" x="103.450576" xlink:href="#m56e302864a" y="384.446292"/>
     <use style="stroke:#000000;" x="252.859643" xlink:href="#m56e302864a" y="347.451518"/>
     <use style="stroke:#000000;" x="100.39998" xlink:href="#m56e302864a" y="403.697072"/>
     <use style="stroke:#000000;" x="106.939475" xlink:href="#m56e302864a" y="416.792722"/>
     <use style="stroke:#000000;" x="202.770262" xlink:href="#m56e302864a" y="374.137322"/>
     <use style="stroke:#000000;" x="369.79915" xlink:href="#m56e302864a" y="19.484321"/>
     <use style="stroke:#000000;" x="111.042001" xlink:href="#m56e302864a" y="413.633709"/>
     <use style="stroke:#000000;" x="110.533568" xlink:href="#m56e302864a" y="415.710629"/>
     <use style="stroke:#000000;" x="134.868206" xlink:href="#m56e302864a" y="289.251216"/>
     <use style="stroke:#000000;" x="111.795884" xlink:href="#m56e302864a" y="411.905851"/>
     <use style="stroke:#000000;" x="133.132522" xlink:href="#m56e302864a" y="260.599028"/>
     <use style="stroke:#000000;" x="109.569299" xlink:href="#m56e302864a" y="401.998303"/>
     <use style="stroke:#000000;" x="152.137384" xlink:href="#m56e302864a" y="311.562107"/>
     <use style="stroke:#000000;" x="150.64715" xlink:href="#m56e302864a" y="329.300284"/>
     <use style="stroke:#000000;" x="107.167393" xlink:href="#m56e302864a" y="356.631853"/>
     <use style="stroke:#000000;" x="167.460492" xlink:href="#m56e302864a" y="315.099271"/>
     <use style="stroke:#000000;" x="134.798078" xlink:href="#m56e302864a" y="376.947273"/>
     <use style="stroke:#000000;" x="100.961009" xlink:href="#m56e302864a" y="413.744245"/>
     <use style="stroke:#000000;" x="105.238856" xlink:href="#m56e302864a" y="385.522567"/>
     <use style="stroke:#000000;" x="160.570353" xlink:href="#m56e302864a" y="352.931794"/>
     <use style="stroke:#000000;" x="103.468108" xlink:href="#m56e302864a" y="406.192866"/>
     <use style="stroke:#000000;" x="280.209812" xlink:href="#m56e302864a" y="134.692296"/>
     <use style="stroke:#000000;" x="313.643641" xlink:href="#m56e302864a" y="223.202832"/>
     <use style="stroke:#000000;" x="128.521564" xlink:href="#m56e302864a" y="392.893597"/>
     <use style="stroke:#000000;" x="115.249719" xlink:href="#m56e302864a" y="415.966608"/>
     <use style="stroke:#000000;" x="129.591026" xlink:href="#m56e302864a" y="390.269813"/>
     <use style="stroke:#000000;" x="263.489862" xlink:href="#m56e302864a" y="-1"/>
     <use style="stroke:#000000;" x="257.039268" xlink:href="#m56e302864a" y="-1"/>
     <use style="stroke:#000000;" x="125.681354" xlink:href="#m56e302864a" y="206.663102"/>
     <use style="stroke:#000000;" x="110.603697" xlink:href="#m56e302864a" y="390.694505"/>
     <use style="stroke:#000000;" x="133.11499" xlink:href="#m56e302864a" y="295.935757"/>
     <use style="stroke:#000000;" x="112.269252" xlink:href="#m56e302864a" y="371.176111"/>
     <use style="stroke:#000000;" x="134.973399" xlink:href="#m56e302864a" y="354.101153"/>
     <use style="stroke:#000000;" x="122.578162" xlink:href="#m56e302864a" y="379.216177"/>
     <use style="stroke:#000000;" x="163.726141" xlink:href="#m56e302864a" y="269.96553"/>
     <use style="stroke:#000000;" x="159.763873" xlink:href="#m56e302864a" y="259.93581"/>
     <use style="stroke:#000000;" x="224.036772" xlink:href="#m56e302864a" y="217.140785"/>
     <use style="stroke:#000000;" x="117.458771" xlink:href="#m56e302864a" y="210.921661"/>
     <use style="stroke:#000000;" x="123.875542" xlink:href="#m56e302864a" y="311.207227"/>
     <use style="stroke:#000000;" x="235.362547" xlink:href="#m56e302864a" y="287.057942"/>
     <use style="stroke:#000000;" x="104.151862" xlink:href="#m56e302864a" y="411.108826"/>
     <use style="stroke:#000000;" x="138.848006" xlink:href="#m56e302864a" y="358.772768"/>
     <use style="stroke:#000000;" x="112.567299" xlink:href="#m56e302864a" y="400.061007"/>
     <use style="stroke:#000000;" x="223.054971" xlink:href="#m56e302864a" y="145.047808"/>
     <use style="stroke:#000000;" x="132.361107" xlink:href="#m56e302864a" y="406.43721"/>
     <use style="stroke:#000000;" x="143.353772" xlink:href="#m56e302864a" y="339.783785"/>
     <use style="stroke:#000000;" x="198.387222" xlink:href="#m56e302864a" y="276.632618"/>
     <use style="stroke:#000000;" x="125.786547" xlink:href="#m56e302864a" y="415.012504"/>
     <use style="stroke:#000000;" x="132.852008" xlink:href="#m56e302864a" y="30.40415"/>
     <use style="stroke:#000000;" x="207.170834" xlink:href="#m56e302864a" y="253.914487"/>
     <use style="stroke:#000000;" x="193.110042" xlink:href="#m56e302864a" y="351.721712"/>
     <use style="stroke:#000000;" x="187.324429" xlink:href="#m56e302864a" y="237.654007"/>
     <use style="stroke:#000000;" x="117.826947" xlink:href="#m56e302864a" y="356.556223"/>
     <use style="stroke:#000000;" x="128.311178" xlink:href="#m56e302864a" y="399.42106"/>
     <use style="stroke:#000000;" x="108.149194" xlink:href="#m56e302864a" y="376.784377"/>
     <use style="stroke:#000000;" x="291.097284" xlink:href="#m56e302864a" y="163.100141"/>
     <use style="stroke:#000000;" x="347.831353" xlink:href="#m56e302864a" y="61.447414"/>
     <use style="stroke:#000000;" x="139.952533" xlink:href="#m56e302864a" y="400.543877"/>
     <use style="stroke:#000000;" x="145.790742" xlink:href="#m56e302864a" y="340.447003"/>
     <use style="stroke:#000000;" x="128.468968" xlink:href="#m56e302864a" y="175.125333"/>
     <use style="stroke:#000000;" x="115.372444" xlink:href="#m56e302864a" y="337.805766"/>
     <use style="stroke:#000000;" x="110.70889" xlink:href="#m56e302864a" y="412.423627"/>
     <use style="stroke:#000000;" x="227.665929" xlink:href="#m56e302864a" y="250.441318"/>
     <use style="stroke:#000000;" x="125.576161" xlink:href="#m56e302864a" y="359.447622"/>
     <use style="stroke:#000000;" x="145.019327" xlink:href="#m56e302864a" y="311.957711"/>
     <use style="stroke:#000000;" x="115.232187" xlink:href="#m56e302864a" y="406.58847"/>
     <use style="stroke:#000000;" x="112.602363" xlink:href="#m56e302864a" y="410.131452"/>
     <use style="stroke:#000000;" x="301.774369" xlink:href="#m56e302864a" y="193.404556"/>
     <use style="stroke:#000000;" x="407.984194" xlink:href="#m56e302864a" y="112.811915"/>
     <use style="stroke:#000000;" x="211.781792" xlink:href="#m56e302864a" y="305.488425"/>
     <use style="stroke:#000000;" x="191.444486" xlink:href="#m56e302864a" y="344.682291"/>
     <use style="stroke:#000000;" x="110.323182" xlink:href="#m56e302864a" y="386.150879"/>
     <use style="stroke:#000000;" x="110.95434" xlink:href="#m56e302864a" y="408.444318"/>
     <use style="stroke:#000000;" x="121.298314" xlink:href="#m56e302864a" y="400.654413"/>
     <use style="stroke:#000000;" x="138.900603" xlink:href="#m56e302864a" y="411.178638"/>
    </g>
   </g>
   <g id="line2d_15">
    <path clip-path="url(#p1d5afd4b23)" d="M 91.388449 421.237447 
L 99.141815 413.684168 
L 106.89518 406.13089 
L 114.648545 398.577612 
L 122.40191 391.024333 
L 130.155275 383.471055 
L 137.908641 375.917777 
L 145.662006 368.364498 
L 153.415371 360.81122 
L 161.168736 353.257942 
L 168.922101 345.704663 
L 176.675466 338.151385 
L 184.428832 330.598107 
L 192.182197 323.044828 
L 199.935562 315.49155 
L 207.688927 307.938272 
L 215.442292 300.384993 
L 223.195657 292.831715 
L 230.949023 285.278437 
L 238.702388 277.725158 
L 246.455753 270.17188 
L 254.209118 262.618602 
L 261.962483 255.065323 
L 269.715849 247.512045 
L 277.469214 239.958767 
L 285.222579 232.405488 
L 292.975944 224.85221 
L 300.729309 217.298932 
L 308.482674 209.745653 
L 316.23604 202.192375 
L 323.989405 194.639097 
L 331.74277 187.085818 
L 339.496135 179.53254 
L 347.2495 171.979262 
L 355.002865 164.425983 
L 362.756231 156.872705 
L 370.509596 149.319427 
L 378.262961 141.766149 
L 386.016326 134.21287 
L 393.769691 126.659592 
L 401.523057 119.106314 
L 409.276422 111.553035 
L 417.029787 103.999757 
L 424.783152 96.446479 
L 432.536517 88.8932 
L 440.289882 81.339922 
L 448.043248 73.786644 
L 455.796613 66.233365 
L 463.549978 58.680087 
L 471.303343 51.126809 
" style="fill:none;stroke:#ff0000;stroke-linecap:round;stroke-width:2;"/>
   </g>
   <g id="text_17">
    <!-- $45^\circ$ -->
    <defs>
     <path d="M 37.796875 64.3125 
L 12.890625 25.390625 
L 37.796875 25.390625 
z
M 35.203125 72.90625 
L 47.609375 72.90625 
L 47.609375 25.390625 
L 58.015625 25.390625 
L 58.015625 17.1875 
L 47.609375 17.1875 
L 47.609375 0 
L 37.796875 0 
L 37.796875 17.1875 
L 4.890625 17.1875 
L 4.890625 26.703125 
z
" id="DejaVuSans-34"/>
     <path d="M 10.796875 72.90625 
L 49.515625 72.90625 
L 49.515625 64.59375 
L 19.828125 64.59375 
L 19.828125 46.734375 
Q 21.96875 47.46875 24.109375 47.828125 
Q 26.265625 48.1875 28.421875 48.1875 
Q 40.625 48.1875 47.75 41.5 
Q 54.890625 34.8125 54.890625 23.390625 
Q 54.890625 11.625 47.5625 5.09375 
Q 40.234375 -1.421875 26.90625 -1.421875 
Q 22.3125 -1.421875 17.546875 -0.640625 
Q 12.796875 0.140625 7.71875 1.703125 
L 7.71875 11.625 
Q 12.109375 9.234375 16.796875 8.0625 
Q 21.484375 6.890625 26.703125 6.890625 
Q 35.15625 6.890625 40.078125 11.328125 
Q 45.015625 15.765625 45.015625 23.390625 
Q 45.015625 31 40.078125 35.4375 
Q 35.15625 39.890625 26.703125 39.890625 
Q 22.75 39.890625 18.8125 39.015625 
Q 14.890625 38.140625 10.796875 36.28125 
z
" id="DejaVuSans-35"/>
     <path d="M 31.25 40.921875 
Q 27.34375 40.921875 24.65625 38.203125 
Q 21.96875 35.5 21.96875 31.59375 
Q 21.96875 27.734375 24.65625 25.078125 
Q 27.34375 22.421875 31.25 22.421875 
Q 35.15625 22.421875 37.84375 25.078125 
Q 40.53125 27.734375 40.53125 31.59375 
Q 40.53125 35.453125 37.8125 38.1875 
Q 35.109375 40.921875 31.25 40.921875 
z
M 31.25 47.21875 
Q 34.375 47.21875 37.25 46.015625 
Q 40.140625 44.828125 42.234375 42.578125 
Q 44.484375 40.390625 45.609375 37.59375 
Q 46.734375 34.8125 46.734375 31.59375 
Q 46.734375 25.15625 42.21875 20.6875 
Q 37.703125 16.21875 31.15625 16.21875 
Q 24.5625 16.21875 20.15625 20.609375 
Q 15.765625 25 15.765625 31.59375 
Q 15.765625 38.140625 20.25 42.671875 
Q 24.75 47.21875 31.25 47.21875 
z
" id="DejaVuSans-2218"/>
    </defs>
    <g style="fill:#ff0000;" transform="translate(471.303343 51.126809)scale(0.14 -0.14)">
     <use transform="translate(0 0.09375)" xlink:href="#DejaVuSans-34"/>
     <use transform="translate(63.623047 0.09375)" xlink:href="#DejaVuSans-35"/>
     <use transform="translate(141.84082 38.375)scale(0.7)" xlink:href="#DejaVuSans-2218"/>
    </g>
   </g>
  </g>
 </g>
 <defs>
  <clipPath id="p1d5afd4b23">
   <rect height="434.88" width="446.4" x="59.728875" y="17.2"/>
  </clipPath>
 </defs>
</svg>
