<?xml version="1.0" encoding="utf-8" standalone="no"?>
<!DOCTYPE svg PUBLIC "-//W3C//DTD SVG 1.1//EN"
  "http://www.w3.org/Graphics/SVG/1.1/DTD/svg11.dtd">
<!-- Created with matplotlib (https://matplotlib.org/) -->
<svg height="323.016516pt" version="1.1" viewBox="0 0 544.419802 323.016516" width="544.419802pt" xmlns="http://www.w3.org/2000/svg" xmlns:xlink="http://www.w3.org/1999/xlink">
 <defs>
  <style type="text/css">
*{stroke-linecap:butt;stroke-linejoin:round;}
  </style>
 </defs>
 <g id="figure_1">
  <g id="patch_1">
   <path d="M 0 323.016516 
L 544.419802 323.016516 
L 544.419802 0 
L 0 0 
z
" style="fill:#ffffff;"/>
  </g>
  <g id="axes_1">
   <g id="patch_2">
    <path d="M 77.79288 240.48 
L 453.63288 240.48 
L 453.63288 7.2 
L 77.79288 7.2 
z
" style="fill:#ffffff;"/>
   </g>
   <g id="matplotlib.axis_1">
    <g id="xtick_1">
     <g id="line2d_1">
      <path clip-path="url(#p8dff7ec988)" d="M 113.474565 240.48 
L 113.474565 7.2 
" style="fill:none;stroke:#000000;stroke-dasharray:6.4,1.6,1,1.6;stroke-dashoffset:0;stroke-opacity:0.2;"/>
     </g>
     <g id="line2d_2"/>
     <g id="text_1">
      <!-- 800 -->
      <defs>
       <path d="M 17.671875 38.8125 
Q 12.203125 40.828125 9.5625 44.53125 
Q 6.9375 48.25 6.9375 53.421875 
Q 6.9375 61.234375 12.546875 66.546875 
Q 18.171875 71.875 27.484375 71.875 
Q 36.859375 71.875 42.578125 66.421875 
Q 48.296875 60.984375 48.296875 53.171875 
Q 48.296875 48.1875 45.671875 44.5 
Q 43.0625 40.828125 37.75 38.8125 
Q 44.34375 36.671875 47.78125 31.875 
Q 51.21875 27.09375 51.21875 20.453125 
Q 51.21875 11.28125 44.71875 5.03125 
Q 38.234375 -1.21875 27.640625 -1.21875 
Q 17.046875 -1.21875 10.546875 5.046875 
Q 4.046875 11.328125 4.046875 20.703125 
Q 4.046875 27.6875 7.59375 32.390625 
Q 11.140625 37.109375 17.671875 38.8125 
z
M 15.921875 53.71875 
Q 15.921875 48.640625 19.1875 45.40625 
Q 22.46875 42.1875 27.6875 42.1875 
Q 32.765625 42.1875 36.015625 45.375 
Q 39.265625 48.578125 39.265625 53.21875 
Q 39.265625 58.0625 35.90625 61.359375 
Q 32.5625 64.65625 27.59375 64.65625 
Q 22.5625 64.65625 19.234375 61.421875 
Q 15.921875 58.203125 15.921875 53.71875 
z
M 13.09375 20.65625 
Q 13.09375 16.890625 14.875 13.375 
Q 16.65625 9.859375 20.171875 7.921875 
Q 23.6875 6 27.734375 6 
Q 34.03125 6 38.125 10.046875 
Q 42.234375 14.109375 42.234375 20.359375 
Q 42.234375 26.703125 38.015625 30.859375 
Q 33.796875 35.015625 27.4375 35.015625 
Q 21.234375 35.015625 17.15625 30.90625 
Q 13.09375 26.8125 13.09375 20.65625 
z
" id="ArialMT-56"/>
       <path d="M 4.15625 35.296875 
Q 4.15625 48 6.765625 55.734375 
Q 9.375 63.484375 14.515625 67.671875 
Q 19.671875 71.875 27.484375 71.875 
Q 33.25 71.875 37.59375 69.546875 
Q 41.9375 67.234375 44.765625 62.859375 
Q 47.609375 58.5 49.21875 52.21875 
Q 50.828125 45.953125 50.828125 35.296875 
Q 50.828125 22.703125 48.234375 14.96875 
Q 45.65625 7.234375 40.5 3 
Q 35.359375 -1.21875 27.484375 -1.21875 
Q 17.140625 -1.21875 11.234375 6.203125 
Q 4.15625 15.140625 4.15625 35.296875 
z
M 13.1875 35.296875 
Q 13.1875 17.671875 17.3125 11.828125 
Q 21.4375 6 27.484375 6 
Q 33.546875 6 37.671875 11.859375 
Q 41.796875 17.71875 41.796875 35.296875 
Q 41.796875 52.984375 37.671875 58.78125 
Q 33.546875 64.59375 27.390625 64.59375 
Q 21.34375 64.59375 17.71875 59.46875 
Q 13.1875 52.9375 13.1875 35.296875 
z
" id="ArialMT-48"/>
      </defs>
      <g transform="translate(101.796596 254.000938)scale(0.14 -0.14)">
       <use xlink:href="#ArialMT-56"/>
       <use x="55.615234" xlink:href="#ArialMT-48"/>
       <use x="111.230469" xlink:href="#ArialMT-48"/>
      </g>
     </g>
    </g>
    <g id="xtick_2">
     <g id="line2d_3">
      <path clip-path="url(#p8dff7ec988)" d="M 166.611848 240.48 
L 166.611848 7.2 
" style="fill:none;stroke:#000000;stroke-dasharray:6.4,1.6,1,1.6;stroke-dashoffset:0;stroke-opacity:0.2;"/>
     </g>
     <g id="line2d_4"/>
     <g id="text_2">
      <!-- 1000 -->
      <defs>
       <path d="M 37.25 0 
L 28.46875 0 
L 28.46875 56 
Q 25.296875 52.984375 20.140625 49.953125 
Q 14.984375 46.921875 10.890625 45.40625 
L 10.890625 53.90625 
Q 18.265625 57.375 23.78125 62.296875 
Q 29.296875 67.234375 31.59375 71.875 
L 37.25 71.875 
z
" id="ArialMT-49"/>
      </defs>
      <g transform="translate(151.041223 254.000938)scale(0.14 -0.14)">
       <use xlink:href="#ArialMT-49"/>
       <use x="55.615234" xlink:href="#ArialMT-48"/>
       <use x="111.230469" xlink:href="#ArialMT-48"/>
       <use x="166.845703" xlink:href="#ArialMT-48"/>
      </g>
     </g>
    </g>
    <g id="xtick_3">
     <g id="line2d_5">
      <path clip-path="url(#p8dff7ec988)" d="M 219.74913 240.48 
L 219.74913 7.2 
" style="fill:none;stroke:#000000;stroke-dasharray:6.4,1.6,1,1.6;stroke-dashoffset:0;stroke-opacity:0.2;"/>
     </g>
     <g id="line2d_6"/>
     <g id="text_3">
      <!-- 1200 -->
      <defs>
       <path d="M 50.34375 8.453125 
L 50.34375 0 
L 3.03125 0 
Q 2.9375 3.171875 4.046875 6.109375 
Q 5.859375 10.9375 9.828125 15.625 
Q 13.8125 20.3125 21.34375 26.46875 
Q 33.015625 36.03125 37.109375 41.625 
Q 41.21875 47.21875 41.21875 52.203125 
Q 41.21875 57.421875 37.46875 61 
Q 33.734375 64.59375 27.734375 64.59375 
Q 21.390625 64.59375 17.578125 60.78125 
Q 13.765625 56.984375 13.71875 50.25 
L 4.6875 51.171875 
Q 5.609375 61.28125 11.65625 66.578125 
Q 17.71875 71.875 27.9375 71.875 
Q 38.234375 71.875 44.234375 66.15625 
Q 50.25 60.453125 50.25 52 
Q 50.25 47.703125 48.484375 43.546875 
Q 46.734375 39.40625 42.65625 34.8125 
Q 38.578125 30.21875 29.109375 22.21875 
Q 21.1875 15.578125 18.9375 13.203125 
Q 16.703125 10.84375 15.234375 8.453125 
z
" id="ArialMT-50"/>
      </defs>
      <g transform="translate(204.178505 254.000938)scale(0.14 -0.14)">
       <use xlink:href="#ArialMT-49"/>
       <use x="55.615234" xlink:href="#ArialMT-50"/>
       <use x="111.230469" xlink:href="#ArialMT-48"/>
       <use x="166.845703" xlink:href="#ArialMT-48"/>
      </g>
     </g>
    </g>
    <g id="xtick_4">
     <g id="line2d_7">
      <path clip-path="url(#p8dff7ec988)" d="M 272.886413 240.48 
L 272.886413 7.2 
" style="fill:none;stroke:#000000;stroke-dasharray:6.4,1.6,1,1.6;stroke-dashoffset:0;stroke-opacity:0.2;"/>
     </g>
     <g id="line2d_8"/>
     <g id="text_4">
      <!-- 1400 -->
      <defs>
       <path d="M 32.328125 0 
L 32.328125 17.140625 
L 1.265625 17.140625 
L 1.265625 25.203125 
L 33.9375 71.578125 
L 41.109375 71.578125 
L 41.109375 25.203125 
L 50.78125 25.203125 
L 50.78125 17.140625 
L 41.109375 17.140625 
L 41.109375 0 
z
M 32.328125 25.203125 
L 32.328125 57.46875 
L 9.90625 25.203125 
z
" id="ArialMT-52"/>
      </defs>
      <g transform="translate(257.315788 254.000938)scale(0.14 -0.14)">
       <use xlink:href="#ArialMT-49"/>
       <use x="55.615234" xlink:href="#ArialMT-52"/>
       <use x="111.230469" xlink:href="#ArialMT-48"/>
       <use x="166.845703" xlink:href="#ArialMT-48"/>
      </g>
     </g>
    </g>
    <g id="xtick_5">
     <g id="line2d_9">
      <path clip-path="url(#p8dff7ec988)" d="M 326.023696 240.48 
L 326.023696 7.2 
" style="fill:none;stroke:#000000;stroke-dasharray:6.4,1.6,1,1.6;stroke-dashoffset:0;stroke-opacity:0.2;"/>
     </g>
     <g id="line2d_10"/>
     <g id="text_5">
      <!-- 1600 -->
      <defs>
       <path d="M 49.75 54.046875 
L 41.015625 53.375 
Q 39.84375 58.546875 37.703125 60.890625 
Q 34.125 64.65625 28.90625 64.65625 
Q 24.703125 64.65625 21.53125 62.3125 
Q 17.390625 59.28125 14.984375 53.46875 
Q 12.59375 47.65625 12.5 36.921875 
Q 15.671875 41.75 20.265625 44.09375 
Q 24.859375 46.4375 29.890625 46.4375 
Q 38.671875 46.4375 44.84375 39.96875 
Q 51.03125 33.5 51.03125 23.25 
Q 51.03125 16.5 48.125 10.71875 
Q 45.21875 4.9375 40.140625 1.859375 
Q 35.0625 -1.21875 28.609375 -1.21875 
Q 17.625 -1.21875 10.6875 6.859375 
Q 3.765625 14.9375 3.765625 33.5 
Q 3.765625 54.25 11.421875 63.671875 
Q 18.109375 71.875 29.4375 71.875 
Q 37.890625 71.875 43.28125 67.140625 
Q 48.6875 62.40625 49.75 54.046875 
z
M 13.875 23.1875 
Q 13.875 18.65625 15.796875 14.5 
Q 17.71875 10.359375 21.1875 8.171875 
Q 24.65625 6 28.46875 6 
Q 34.03125 6 38.03125 10.484375 
Q 42.046875 14.984375 42.046875 22.703125 
Q 42.046875 30.125 38.078125 34.390625 
Q 34.125 38.671875 28.125 38.671875 
Q 22.171875 38.671875 18.015625 34.390625 
Q 13.875 30.125 13.875 23.1875 
z
" id="ArialMT-54"/>
      </defs>
      <g transform="translate(310.453071 254.000938)scale(0.14 -0.14)">
       <use xlink:href="#ArialMT-49"/>
       <use x="55.615234" xlink:href="#ArialMT-54"/>
       <use x="111.230469" xlink:href="#ArialMT-48"/>
       <use x="166.845703" xlink:href="#ArialMT-48"/>
      </g>
     </g>
    </g>
    <g id="xtick_6">
     <g id="line2d_11">
      <path clip-path="url(#p8dff7ec988)" d="M 379.160978 240.48 
L 379.160978 7.2 
" style="fill:none;stroke:#000000;stroke-dasharray:6.4,1.6,1,1.6;stroke-dashoffset:0;stroke-opacity:0.2;"/>
     </g>
     <g id="line2d_12"/>
     <g id="text_6">
      <!-- 1800 -->
      <g transform="translate(363.590353 254.000938)scale(0.14 -0.14)">
       <use xlink:href="#ArialMT-49"/>
       <use x="55.615234" xlink:href="#ArialMT-56"/>
       <use x="111.230469" xlink:href="#ArialMT-48"/>
       <use x="166.845703" xlink:href="#ArialMT-48"/>
      </g>
     </g>
    </g>
    <g id="xtick_7">
     <g id="line2d_13">
      <path clip-path="url(#p8dff7ec988)" d="M 432.298261 240.48 
L 432.298261 7.2 
" style="fill:none;stroke:#000000;stroke-dasharray:6.4,1.6,1,1.6;stroke-dashoffset:0;stroke-opacity:0.2;"/>
     </g>
     <g id="line2d_14"/>
     <g id="text_7">
      <!-- 2000 -->
      <g transform="translate(416.727636 254.000938)scale(0.14 -0.14)">
       <use xlink:href="#ArialMT-50"/>
       <use x="55.615234" xlink:href="#ArialMT-48"/>
       <use x="111.230469" xlink:href="#ArialMT-48"/>
       <use x="166.845703" xlink:href="#ArialMT-48"/>
      </g>
     </g>
    </g>
    <g id="text_8">
     <!-- Year -->
     <defs>
      <path d="M 27.875 0 
L 27.875 30.328125 
L 0.296875 71.578125 
L 11.8125 71.578125 
L 25.921875 50 
Q 29.828125 43.953125 33.203125 37.890625 
Q 36.421875 43.5 41.015625 50.53125 
L 54.890625 71.578125 
L 65.921875 71.578125 
L 37.359375 30.328125 
L 37.359375 0 
z
" id="ArialMT-89"/>
      <path d="M 42.09375 16.703125 
L 51.171875 15.578125 
Q 49.03125 7.625 43.21875 3.21875 
Q 37.40625 -1.171875 28.375 -1.171875 
Q 17 -1.171875 10.328125 5.828125 
Q 3.65625 12.84375 3.65625 25.484375 
Q 3.65625 38.578125 10.390625 45.796875 
Q 17.140625 53.03125 27.875 53.03125 
Q 38.28125 53.03125 44.875 45.953125 
Q 51.46875 38.875 51.46875 26.03125 
Q 51.46875 25.25 51.421875 23.6875 
L 12.75 23.6875 
Q 13.234375 15.140625 17.578125 10.59375 
Q 21.921875 6.0625 28.421875 6.0625 
Q 33.25 6.0625 36.671875 8.59375 
Q 40.09375 11.140625 42.09375 16.703125 
z
M 13.234375 30.90625 
L 42.1875 30.90625 
Q 41.609375 37.453125 38.875 40.71875 
Q 34.671875 45.796875 27.984375 45.796875 
Q 21.921875 45.796875 17.796875 41.75 
Q 13.671875 37.703125 13.234375 30.90625 
z
" id="ArialMT-101"/>
      <path d="M 40.4375 6.390625 
Q 35.546875 2.25 31.03125 0.53125 
Q 26.515625 -1.171875 21.34375 -1.171875 
Q 12.796875 -1.171875 8.203125 3 
Q 3.609375 7.171875 3.609375 13.671875 
Q 3.609375 17.484375 5.34375 20.625 
Q 7.078125 23.78125 9.890625 25.6875 
Q 12.703125 27.59375 16.21875 28.5625 
Q 18.796875 29.25 24.03125 29.890625 
Q 34.671875 31.15625 39.703125 32.90625 
Q 39.75 34.71875 39.75 35.203125 
Q 39.75 40.578125 37.25 42.78125 
Q 33.890625 45.75 27.25 45.75 
Q 21.046875 45.75 18.09375 43.578125 
Q 15.140625 41.40625 13.71875 35.890625 
L 5.125 37.0625 
Q 6.296875 42.578125 8.984375 45.96875 
Q 11.671875 49.359375 16.75 51.1875 
Q 21.828125 53.03125 28.515625 53.03125 
Q 35.15625 53.03125 39.296875 51.46875 
Q 43.453125 49.90625 45.40625 47.53125 
Q 47.359375 45.171875 48.140625 41.546875 
Q 48.578125 39.3125 48.578125 33.453125 
L 48.578125 21.734375 
Q 48.578125 9.46875 49.140625 6.21875 
Q 49.703125 2.984375 51.375 0 
L 42.1875 0 
Q 40.828125 2.734375 40.4375 6.390625 
z
M 39.703125 26.03125 
Q 34.90625 24.078125 25.34375 22.703125 
Q 19.921875 21.921875 17.671875 20.9375 
Q 15.4375 19.96875 14.203125 18.09375 
Q 12.984375 16.21875 12.984375 13.921875 
Q 12.984375 10.40625 15.640625 8.0625 
Q 18.3125 5.71875 23.4375 5.71875 
Q 28.515625 5.71875 32.46875 7.9375 
Q 36.421875 10.15625 38.28125 14.015625 
Q 39.703125 17 39.703125 22.796875 
z
" id="ArialMT-97"/>
      <path d="M 6.5 0 
L 6.5 51.859375 
L 14.40625 51.859375 
L 14.40625 44 
Q 17.4375 49.515625 20 51.265625 
Q 22.5625 53.03125 25.640625 53.03125 
Q 30.078125 53.03125 34.671875 50.203125 
L 31.640625 42.046875 
Q 28.421875 43.953125 25.203125 43.953125 
Q 22.3125 43.953125 20.015625 42.21875 
Q 17.71875 40.484375 16.75 37.40625 
Q 15.28125 32.71875 15.28125 27.15625 
L 15.28125 0 
z
" id="ArialMT-114"/>
     </defs>
     <g transform="translate(247.982317 272.808563)scale(0.168 -0.168)">
      <use xlink:href="#ArialMT-89"/>
      <use x="66.558594" xlink:href="#ArialMT-101"/>
      <use x="122.173828" xlink:href="#ArialMT-97"/>
      <use x="177.789062" xlink:href="#ArialMT-114"/>
     </g>
    </g>
   </g>
   <g id="matplotlib.axis_2">
    <g id="ytick_1">
     <g id="line2d_15">
      <path clip-path="url(#p8dff7ec988)" d="M 77.79288 232.046474 
L 453.63288 232.046474 
" style="fill:none;stroke:#000000;stroke-dasharray:6.4,1.6,1,1.6;stroke-dashoffset:0;stroke-opacity:0.2;"/>
     </g>
     <g id="line2d_16"/>
     <g id="text_9">
      <!-- 0 -->
      <g transform="translate(66.507567 237.056943)scale(0.14 -0.14)">
       <use xlink:href="#ArialMT-48"/>
      </g>
     </g>
    </g>
    <g id="ytick_2">
     <g id="line2d_17">
      <path clip-path="url(#p8dff7ec988)" d="M 77.79288 191.634734 
L 453.63288 191.634734 
" style="fill:none;stroke:#000000;stroke-dasharray:6.4,1.6,1,1.6;stroke-dashoffset:0;stroke-opacity:0.2;"/>
     </g>
     <g id="line2d_18"/>
     <g id="text_10">
      <!-- 10000 -->
      <g transform="translate(35.366317 196.645203)scale(0.14 -0.14)">
       <use xlink:href="#ArialMT-49"/>
       <use x="55.615234" xlink:href="#ArialMT-48"/>
       <use x="111.230469" xlink:href="#ArialMT-48"/>
       <use x="166.845703" xlink:href="#ArialMT-48"/>
       <use x="222.460938" xlink:href="#ArialMT-48"/>
      </g>
     </g>
    </g>
    <g id="ytick_3">
     <g id="line2d_19">
      <path clip-path="url(#p8dff7ec988)" d="M 77.79288 151.222995 
L 453.63288 151.222995 
" style="fill:none;stroke:#000000;stroke-dasharray:6.4,1.6,1,1.6;stroke-dashoffset:0;stroke-opacity:0.2;"/>
     </g>
     <g id="line2d_20"/>
     <g id="text_11">
      <!-- 20000 -->
      <g transform="translate(35.366317 156.233464)scale(0.14 -0.14)">
       <use xlink:href="#ArialMT-50"/>
       <use x="55.615234" xlink:href="#ArialMT-48"/>
       <use x="111.230469" xlink:href="#ArialMT-48"/>
       <use x="166.845703" xlink:href="#ArialMT-48"/>
       <use x="222.460938" xlink:href="#ArialMT-48"/>
      </g>
     </g>
    </g>
    <g id="ytick_4">
     <g id="line2d_21">
      <path clip-path="url(#p8dff7ec988)" d="M 77.79288 110.811255 
L 453.63288 110.811255 
" style="fill:none;stroke:#000000;stroke-dasharray:6.4,1.6,1,1.6;stroke-dashoffset:0;stroke-opacity:0.2;"/>
     </g>
     <g id="line2d_22"/>
     <g id="text_12">
      <!-- 30000 -->
      <defs>
       <path d="M 4.203125 18.890625 
L 12.984375 20.0625 
Q 14.5 12.59375 18.140625 9.296875 
Q 21.78125 6 27 6 
Q 33.203125 6 37.46875 10.296875 
Q 41.75 14.59375 41.75 20.953125 
Q 41.75 27 37.796875 30.921875 
Q 33.84375 34.859375 27.734375 34.859375 
Q 25.25 34.859375 21.53125 33.890625 
L 22.515625 41.609375 
Q 23.390625 41.5 23.921875 41.5 
Q 29.546875 41.5 34.03125 44.421875 
Q 38.53125 47.359375 38.53125 53.46875 
Q 38.53125 58.296875 35.25 61.46875 
Q 31.984375 64.65625 26.8125 64.65625 
Q 21.6875 64.65625 18.265625 61.421875 
Q 14.84375 58.203125 13.875 51.765625 
L 5.078125 53.328125 
Q 6.6875 62.15625 12.390625 67.015625 
Q 18.109375 71.875 26.609375 71.875 
Q 32.46875 71.875 37.390625 69.359375 
Q 42.328125 66.84375 44.9375 62.5 
Q 47.5625 58.15625 47.5625 53.265625 
Q 47.5625 48.640625 45.0625 44.828125 
Q 42.578125 41.015625 37.703125 38.765625 
Q 44.046875 37.3125 47.5625 32.6875 
Q 51.078125 28.078125 51.078125 21.140625 
Q 51.078125 11.765625 44.234375 5.25 
Q 37.40625 -1.265625 26.953125 -1.265625 
Q 17.53125 -1.265625 11.296875 4.34375 
Q 5.078125 9.96875 4.203125 18.890625 
z
" id="ArialMT-51"/>
      </defs>
      <g transform="translate(35.366317 115.821724)scale(0.14 -0.14)">
       <use xlink:href="#ArialMT-51"/>
       <use x="55.615234" xlink:href="#ArialMT-48"/>
       <use x="111.230469" xlink:href="#ArialMT-48"/>
       <use x="166.845703" xlink:href="#ArialMT-48"/>
       <use x="222.460938" xlink:href="#ArialMT-48"/>
      </g>
     </g>
    </g>
    <g id="ytick_5">
     <g id="line2d_23">
      <path clip-path="url(#p8dff7ec988)" d="M 77.79288 70.399516 
L 453.63288 70.399516 
" style="fill:none;stroke:#000000;stroke-dasharray:6.4,1.6,1,1.6;stroke-dashoffset:0;stroke-opacity:0.2;"/>
     </g>
     <g id="line2d_24"/>
     <g id="text_13">
      <!-- 40000 -->
      <g transform="translate(35.366317 75.409984)scale(0.14 -0.14)">
       <use xlink:href="#ArialMT-52"/>
       <use x="55.615234" xlink:href="#ArialMT-48"/>
       <use x="111.230469" xlink:href="#ArialMT-48"/>
       <use x="166.845703" xlink:href="#ArialMT-48"/>
       <use x="222.460938" xlink:href="#ArialMT-48"/>
      </g>
     </g>
    </g>
    <g id="ytick_6">
     <g id="line2d_25">
      <path clip-path="url(#p8dff7ec988)" d="M 77.79288 29.987776 
L 453.63288 29.987776 
" style="fill:none;stroke:#000000;stroke-dasharray:6.4,1.6,1,1.6;stroke-dashoffset:0;stroke-opacity:0.2;"/>
     </g>
     <g id="line2d_26"/>
     <g id="text_14">
      <!-- 50000 -->
      <defs>
       <path d="M 4.15625 18.75 
L 13.375 19.53125 
Q 14.40625 12.796875 18.140625 9.390625 
Q 21.875 6 27.15625 6 
Q 33.5 6 37.890625 10.78125 
Q 42.28125 15.578125 42.28125 23.484375 
Q 42.28125 31 38.0625 35.34375 
Q 33.84375 39.703125 27 39.703125 
Q 22.75 39.703125 19.328125 37.765625 
Q 15.921875 35.84375 13.96875 32.765625 
L 5.71875 33.84375 
L 12.640625 70.609375 
L 48.25 70.609375 
L 48.25 62.203125 
L 19.671875 62.203125 
L 15.828125 42.96875 
Q 22.265625 47.46875 29.34375 47.46875 
Q 38.71875 47.46875 45.15625 40.96875 
Q 51.609375 34.46875 51.609375 24.265625 
Q 51.609375 14.546875 45.953125 7.46875 
Q 39.0625 -1.21875 27.15625 -1.21875 
Q 17.390625 -1.21875 11.203125 4.25 
Q 5.03125 9.71875 4.15625 18.75 
z
" id="ArialMT-53"/>
      </defs>
      <g transform="translate(35.366317 34.998245)scale(0.14 -0.14)">
       <use xlink:href="#ArialMT-53"/>
       <use x="55.615234" xlink:href="#ArialMT-48"/>
       <use x="111.230469" xlink:href="#ArialMT-48"/>
       <use x="166.845703" xlink:href="#ArialMT-48"/>
       <use x="222.460938" xlink:href="#ArialMT-48"/>
      </g>
     </g>
    </g>
    <g id="text_15">
     <!-- GDP per capita -->
     <defs>
      <path d="M 41.21875 28.078125 
L 41.21875 36.46875 
L 71.53125 36.53125 
L 71.53125 9.96875 
Q 64.546875 4.390625 57.125 1.578125 
Q 49.703125 -1.21875 41.890625 -1.21875 
Q 31.34375 -1.21875 22.71875 3.296875 
Q 14.109375 7.8125 9.71875 16.359375 
Q 5.328125 24.90625 5.328125 35.453125 
Q 5.328125 45.90625 9.6875 54.953125 
Q 14.0625 64.015625 22.265625 68.40625 
Q 30.46875 72.796875 41.15625 72.796875 
Q 48.921875 72.796875 55.1875 70.28125 
Q 61.46875 67.78125 65.03125 63.28125 
Q 68.609375 58.796875 70.453125 51.5625 
L 61.921875 49.21875 
Q 60.296875 54.6875 57.90625 57.8125 
Q 55.515625 60.9375 51.0625 62.8125 
Q 46.625 64.703125 41.21875 64.703125 
Q 34.71875 64.703125 29.984375 62.71875 
Q 25.25 60.75 22.34375 57.515625 
Q 19.4375 54.296875 17.828125 50.4375 
Q 15.09375 43.796875 15.09375 36.03125 
Q 15.09375 26.46875 18.390625 20.015625 
Q 21.6875 13.578125 27.984375 10.453125 
Q 34.28125 7.328125 41.359375 7.328125 
Q 47.515625 7.328125 53.375 9.6875 
Q 59.234375 12.0625 62.25 14.75 
L 62.25 28.078125 
z
" id="ArialMT-71"/>
      <path d="M 7.71875 0 
L 7.71875 71.578125 
L 32.375 71.578125 
Q 40.71875 71.578125 45.125 70.5625 
Q 51.265625 69.140625 55.609375 65.4375 
Q 61.28125 60.640625 64.078125 53.1875 
Q 66.890625 45.75 66.890625 36.1875 
Q 66.890625 28.03125 64.984375 21.734375 
Q 63.09375 15.4375 60.109375 11.296875 
Q 57.125 7.171875 53.578125 4.796875 
Q 50.046875 2.4375 45.046875 1.21875 
Q 40.046875 0 33.546875 0 
z
M 17.1875 8.453125 
L 32.46875 8.453125 
Q 39.546875 8.453125 43.578125 9.765625 
Q 47.609375 11.078125 50 13.484375 
Q 53.375 16.84375 55.25 22.53125 
Q 57.125 28.21875 57.125 36.328125 
Q 57.125 47.5625 53.4375 53.59375 
Q 49.75 59.625 44.484375 61.671875 
Q 40.671875 63.140625 32.234375 63.140625 
L 17.1875 63.140625 
z
" id="ArialMT-68"/>
      <path d="M 7.71875 0 
L 7.71875 71.578125 
L 34.71875 71.578125 
Q 41.84375 71.578125 45.609375 70.90625 
Q 50.875 70.015625 54.4375 67.546875 
Q 58.015625 65.09375 60.1875 60.640625 
Q 62.359375 56.203125 62.359375 50.875 
Q 62.359375 41.75 56.546875 35.421875 
Q 50.734375 29.109375 35.546875 29.109375 
L 17.1875 29.109375 
L 17.1875 0 
z
M 17.1875 37.546875 
L 35.6875 37.546875 
Q 44.875 37.546875 48.734375 40.96875 
Q 52.59375 44.390625 52.59375 50.59375 
Q 52.59375 55.078125 50.3125 58.265625 
Q 48.046875 61.46875 44.34375 62.5 
Q 41.9375 63.140625 35.5 63.140625 
L 17.1875 63.140625 
z
" id="ArialMT-80"/>
      <path id="ArialMT-32"/>
      <path d="M 6.59375 -19.875 
L 6.59375 51.859375 
L 14.59375 51.859375 
L 14.59375 45.125 
Q 17.4375 49.078125 21 51.046875 
Q 24.5625 53.03125 29.640625 53.03125 
Q 36.28125 53.03125 41.359375 49.609375 
Q 46.4375 46.1875 49.015625 39.953125 
Q 51.609375 33.734375 51.609375 26.3125 
Q 51.609375 18.359375 48.75 11.984375 
Q 45.90625 5.609375 40.453125 2.21875 
Q 35.015625 -1.171875 29 -1.171875 
Q 24.609375 -1.171875 21.109375 0.6875 
Q 17.625 2.546875 15.375 5.375 
L 15.375 -19.875 
z
M 14.546875 25.640625 
Q 14.546875 15.625 18.59375 10.84375 
Q 22.65625 6.0625 28.421875 6.0625 
Q 34.28125 6.0625 38.453125 11.015625 
Q 42.625 15.96875 42.625 26.375 
Q 42.625 36.28125 38.546875 41.203125 
Q 34.46875 46.140625 28.8125 46.140625 
Q 23.1875 46.140625 18.859375 40.890625 
Q 14.546875 35.640625 14.546875 25.640625 
z
" id="ArialMT-112"/>
      <path d="M 40.4375 19 
L 49.078125 17.875 
Q 47.65625 8.9375 41.8125 3.875 
Q 35.984375 -1.171875 27.484375 -1.171875 
Q 16.84375 -1.171875 10.375 5.78125 
Q 3.90625 12.75 3.90625 25.734375 
Q 3.90625 34.125 6.6875 40.421875 
Q 9.46875 46.734375 15.15625 49.875 
Q 20.84375 53.03125 27.546875 53.03125 
Q 35.984375 53.03125 41.359375 48.75 
Q 46.734375 44.484375 48.25 36.625 
L 39.703125 35.296875 
Q 38.484375 40.53125 35.375 43.15625 
Q 32.28125 45.796875 27.875 45.796875 
Q 21.234375 45.796875 17.078125 41.03125 
Q 12.9375 36.28125 12.9375 25.984375 
Q 12.9375 15.53125 16.9375 10.796875 
Q 20.953125 6.0625 27.390625 6.0625 
Q 32.5625 6.0625 36.03125 9.234375 
Q 39.5 12.40625 40.4375 19 
z
" id="ArialMT-99"/>
      <path d="M 6.640625 61.46875 
L 6.640625 71.578125 
L 15.4375 71.578125 
L 15.4375 61.46875 
z
M 6.640625 0 
L 6.640625 51.859375 
L 15.4375 51.859375 
L 15.4375 0 
z
" id="ArialMT-105"/>
      <path d="M 25.78125 7.859375 
L 27.046875 0.09375 
Q 23.34375 -0.6875 20.40625 -0.6875 
Q 15.625 -0.6875 12.984375 0.828125 
Q 10.359375 2.34375 9.28125 4.8125 
Q 8.203125 7.28125 8.203125 15.1875 
L 8.203125 45.015625 
L 1.765625 45.015625 
L 1.765625 51.859375 
L 8.203125 51.859375 
L 8.203125 64.703125 
L 16.9375 69.96875 
L 16.9375 51.859375 
L 25.78125 51.859375 
L 25.78125 45.015625 
L 16.9375 45.015625 
L 16.9375 14.703125 
Q 16.9375 10.9375 17.40625 9.859375 
Q 17.875 8.796875 18.921875 8.15625 
Q 19.96875 7.515625 21.921875 7.515625 
Q 23.390625 7.515625 25.78125 7.859375 
z
" id="ArialMT-116"/>
     </defs>
     <g transform="translate(28.027317 181.261875)rotate(-90)scale(0.168 -0.168)">
      <use xlink:href="#ArialMT-71"/>
      <use x="77.783203" xlink:href="#ArialMT-68"/>
      <use x="150" xlink:href="#ArialMT-80"/>
      <use x="216.683594" xlink:href="#ArialMT-32"/>
      <use x="244.466797" xlink:href="#ArialMT-112"/>
      <use x="300.082031" xlink:href="#ArialMT-101"/>
      <use x="355.697266" xlink:href="#ArialMT-114"/>
      <use x="388.998047" xlink:href="#ArialMT-32"/>
      <use x="416.78125" xlink:href="#ArialMT-99"/>
      <use x="466.78125" xlink:href="#ArialMT-97"/>
      <use x="522.396484" xlink:href="#ArialMT-112"/>
      <use x="578.011719" xlink:href="#ArialMT-105"/>
      <use x="600.228516" xlink:href="#ArialMT-116"/>
      <use x="628.011719" xlink:href="#ArialMT-97"/>
     </g>
    </g>
   </g>
   <g id="line2d_27">
    <path clip-path="url(#p8dff7ec988)" d="M 352.592337 225.616966 
L 352.858023 225.083531 
L 353.12371 225.309837 
L 353.389396 225.798819 
L 353.655083 224.643043 
L 353.920769 225.035037 
L 354.186456 226.130195 
L 354.717828 225.018873 
L 355.249201 226.538354 
L 355.514888 226.037248 
L 355.780574 226.029166 
L 356.04626 226.299925 
L 356.311947 225.746284 
L 356.577633 225.928137 
L 357.109006 225.427031 
L 357.374692 225.099696 
L 357.640379 225.269425 
L 357.906065 224.812773 
L 358.171752 225.087572 
L 358.437438 225.018873 
L 358.968811 225.305796 
L 359.234497 225.156272 
L 359.500184 225.42299 
L 359.76587 225.503813 
L 360.031557 225.237096 
L 360.297243 225.511896 
L 360.562929 225.281549 
L 360.828616 225.382578 
L 361.094302 224.970378 
L 361.359989 224.853184 
L 361.625675 224.950173 
L 361.891362 225.180519 
L 362.157048 224.727908 
L 362.422734 225.164355 
L 362.688421 225.067367 
L 363.219794 225.309837 
L 363.751166 224.897637 
L 364.282539 225.208808 
L 364.548226 225.176478 
L 365.079598 224.715784 
L 365.610971 224.901678 
L 365.876658 224.845102 
L 366.142344 225.04312 
L 366.408031 224.744073 
L 366.673717 224.731949 
L 366.939403 224.986543 
L 367.20509 224.820855 
L 367.470776 224.998667 
L 367.736463 224.626879 
L 368.533522 224.275297 
L 368.799208 224.020703 
L 369.064895 224.271255 
L 369.596267 224.319749 
L 369.861954 224.440985 
L 370.659013 224.28742 
L 370.9247 223.899467 
L 371.190386 224.178308 
L 371.456072 224.08132 
L 371.721759 224.339955 
L 371.987445 224.263173 
L 372.253132 224.489479 
L 373.050191 224.000497 
L 373.581564 224.234885 
L 373.84725 223.919673 
L 374.112937 223.778232 
L 374.644309 223.980291 
L 375.441369 224.097485 
L 375.972741 224.416738 
L 376.238428 224.348038 
L 376.504114 223.859056 
L 376.769801 223.923714 
L 377.035487 223.693367 
L 377.56686 224.247008 
L 377.832546 223.49535 
L 378.098233 223.430691 
L 378.363919 223.604462 
L 378.629606 223.620626 
L 378.895292 223.499391 
L 379.160978 223.135685 
L 379.692351 223.087191 
L 380.223724 223.507473 
L 380.48941 223.119521 
L 380.755097 223.285209 
L 381.020783 222.84068 
L 381.28647 223.382197 
L 381.552156 223.228632 
L 381.817842 222.776021 
L 382.083529 222.990203 
L 382.349215 223.49535 
L 382.614902 223.172056 
L 382.880588 223.503432 
L 383.146275 222.743692 
L 383.411961 223.382197 
L 383.677647 223.374115 
L 383.943334 223.511515 
L 384.20902 223.774191 
L 384.474707 223.232674 
L 385.006079 223.208427 
L 385.271766 223.091233 
L 385.537452 222.735609 
L 385.803139 222.658827 
L 386.068825 223.277127 
L 386.334512 222.719445 
L 386.865884 222.868968 
L 387.131571 222.582045 
L 387.397257 222.594168 
L 387.662944 222.416356 
L 387.92863 222.452727 
L 388.194316 222.343615 
L 388.460003 221.753604 
L 388.725689 221.551545 
L 388.991376 221.765727 
L 389.257062 221.482845 
L 389.522748 221.701069 
L 389.788435 221.333322 
L 390.319808 221.895045 
L 390.585494 221.519216 
L 390.851181 220.731187 
L 391.116867 220.351317 
L 391.64824 220.759475 
L 392.179613 220.25837 
L 392.445299 220.496799 
L 393.508045 218.957112 
L 393.773731 219.389517 
L 394.039418 218.682312 
L 394.305104 218.666147 
L 394.57079 219.041976 
L 394.836477 218.633818 
L 395.102163 218.488335 
L 395.36785 218.654024 
L 395.633536 219.345064 
L 395.899222 218.278194 
L 396.696282 217.514412 
L 396.961968 217.587154 
L 397.227654 217.021389 
L 397.493341 217.02543 
L 397.759027 216.504119 
L 398.2904 216.669807 
L 399.087459 215.982808 
L 399.884519 215.974725 
L 400.150205 216.160619 
L 400.681578 215.02909 
L 400.947264 214.620932 
L 401.478637 214.616891 
L 401.744323 214.794702 
L 402.01001 214.61285 
L 402.541383 213.295427 
L 402.807069 212.382122 
L 403.338442 212.507398 
L 403.604128 213.085286 
L 403.869815 213.20248 
L 404.135501 212.06691 
L 405.198247 209.832141 
L 405.463933 209.068359 
L 405.995306 209.529053 
L 406.260993 209.084524 
L 406.526679 209.456312 
L 406.792365 209.456312 
L 407.589425 207.977242 
L 407.855111 209.096647 
L 408.120797 208.716777 
L 409.183543 206.211249 
L 409.449229 206.336525 
L 409.714916 204.594779 
L 409.980602 204.259362 
L 410.511975 204.210868 
L 410.777662 207.399354 
L 411.043348 209.189594 
L 411.309034 209.815976 
L 411.574721 207.738813 
L 412.106094 206.001108 
L 412.37178 204.687726 
L 412.637466 205.669732 
L 412.903153 203.511745 
L 413.168839 203.15208 
L 413.434526 202.22261 
L 413.700212 202.541863 
L 413.965898 204.162374 
L 414.231585 204.089633 
L 414.497271 203.366262 
L 415.028644 200.488947 
L 415.560017 198.165272 
L 415.825703 197.874307 
L 416.09139 197.874307 
L 416.622763 191.165958 
L 417.154135 189.674765 
L 417.951195 195.06165 
L 418.216881 195.809267 
L 418.482568 195.009115 
L 418.748254 193.829092 
L 419.01394 193.893751 
L 419.279627 193.255245 
L 419.545313 193.627033 
L 420.342372 188.48666 
L 420.873745 187.080331 
L 421.139432 187.060125 
L 421.936491 181.996535 
L 422.202177 181.830846 
L 422.467864 180.12143 
L 422.73355 177.43809 
L 423.796296 173.004922 
L 424.327669 168.539425 
L 424.593355 168.587919 
L 424.859041 167.173508 
L 425.124728 162.87774 
L 425.390414 164.057763 
L 425.656101 164.377016 
L 426.187473 158.747661 
L 426.718846 150.701683 
L 426.984533 148.826579 
L 427.250219 151.324024 
L 427.515906 151.768553 
L 428.047278 150.131878 
L 428.578651 145.957345 
L 429.110024 138.796385 
L 429.641397 135.050217 
L 429.907083 136.286816 
L 430.17277 135.81804 
L 430.704143 129.590591 
L 431.235515 119.802867 
L 431.501202 111.457843 
L 432.032575 101.73882 
L 432.298261 93.070501 
L 432.563947 89.869892 
L 432.829634 89.053575 
L 433.09532 89.17481 
L 433.361007 85.271036 
L 433.626693 79.597227 
L 433.892379 77.467529 
L 434.158066 78.19494 
L 434.423752 79.867986 
L 434.689439 87.655328 
L 434.955125 90.136609 
L 435.220812 90.722579 
L 435.486498 87.437105 
L 435.752184 79.686133 
L 436.549244 73.786019 
L 436.549244 73.786019 
" style="fill:none;stroke:#165aa7;stroke-width:3;"/>
   </g>
   <g id="line2d_28">
    <path clip-path="url(#p8dff7ec988)" d="M 357.906065 226.48986 
L 372.518818 224.436943 
L 379.160978 224.04495 
L 379.692351 223.762067 
L 379.958038 223.903509 
L 380.223724 223.90755 
L 381.020783 223.503432 
L 381.28647 224.105567 
L 381.817842 223.479185 
L 382.083529 223.305415 
L 382.349215 223.458979 
L 383.146275 223.236715 
L 383.411961 223.592338 
L 384.740393 223.507473 
L 385.006079 223.273085 
L 385.271766 223.370074 
L 385.803139 222.937668 
L 386.600198 222.836639 
L 386.865884 223.139727 
L 387.397257 221.907169 
L 387.92863 221.171675 
L 388.194316 221.692986 
L 388.460003 221.296951 
L 388.725689 221.139346 
L 388.991376 221.482845 
L 389.257062 221.575792 
L 389.522748 221.066604 
L 389.788435 221.608122 
L 390.319808 221.915251 
L 390.585494 221.753604 
L 390.851181 221.195922 
L 391.913926 220.375564 
L 392.179613 220.674611 
L 392.445299 220.630158 
L 392.976672 219.563288 
L 393.242358 218.7106 
L 393.508045 218.670188 
L 393.773731 218.965194 
L 394.039418 218.690394 
L 394.305104 218.981359 
L 394.57079 218.920741 
L 395.102163 218.205453 
L 395.36785 218.492377 
L 395.633536 218.068053 
L 395.899222 217.16283 
L 396.164909 216.673848 
L 396.430595 217.46996 
L 396.696282 217.583112 
L 396.961968 217.106254 
L 397.227654 216.912278 
L 397.493341 216.50816 
L 397.759027 216.948648 
L 398.556087 215.962602 
L 398.821773 216.43946 
L 399.087459 215.998972 
L 399.353146 216.172743 
L 399.618832 216.019178 
L 399.884519 215.703967 
L 400.415891 212.382122 
L 400.681578 212.188145 
L 400.947264 211.432446 
L 401.212951 211.428404 
L 401.478637 211.541557 
L 401.744323 211.852728 
L 402.01001 211.703204 
L 402.275696 211.246552 
L 402.541383 211.779987 
L 402.807069 210.967711 
L 403.072756 211.097028 
L 403.338442 210.632293 
L 403.604128 209.023906 
L 404.135501 211.581969 
L 404.401188 209.541176 
L 404.666874 210.401946 
L 404.93256 208.765271 
L 405.198247 208.704653 
L 405.463933 207.027566 
L 405.72962 206.781054 
L 405.995306 204.477585 
L 406.260993 204.744303 
L 406.526679 203.940109 
L 406.792365 204.813003 
L 407.058052 203.378386 
L 407.323738 200.678882 
L 407.589425 200.767788 
L 407.855111 203.879492 
L 408.120797 201.058752 
L 408.386484 201.390128 
L 408.65217 200.884982 
L 409.183543 199.308924 
L 409.449229 202.408504 
L 409.714916 202.004387 
L 409.980602 198.335001 
L 410.246289 199.636259 
L 410.511975 197.098402 
L 410.777662 196.965043 
L 411.043348 197.757113 
L 411.309034 199.175565 
L 411.574721 197.833895 
L 411.840407 193.978615 
L 412.37178 193.247163 
L 412.637466 191.271029 
L 413.168839 191.473087 
L 413.434526 189.440377 
L 414.231585 201.63664 
L 414.497271 202.667139 
L 414.762958 200.218188 
L 415.560017 189.816206 
L 415.825703 192.455093 
L 416.357076 186.35292 
L 417.154135 169.844724 
L 417.419822 165.76718 
L 417.685508 167.42002 
L 417.951195 173.566646 
L 418.216881 175.239692 
L 418.482568 173.211022 
L 418.748254 175.017427 
L 419.279627 166.878503 
L 419.545313 165.597451 
L 419.811 163.681934 
L 420.076686 165.314568 
L 420.342372 161.851282 
L 420.873745 161.701759 
L 421.139432 163.568781 
L 421.405118 159.705419 
L 421.936491 158.598137 
L 422.999237 145.605763 
L 423.264923 141.002866 
L 423.530609 139.737978 
L 424.061982 134.266229 
L 424.327669 135.228028 
L 424.593355 133.462035 
L 425.124728 124.539123 
L 425.656101 127.153763 
L 426.718846 111.009273 
L 426.984533 112.375189 
L 427.250219 110.584949 
L 427.515906 113.999741 
L 427.781592 110.168708 
L 428.047278 102.421778 
L 429.37571 83.505043 
L 429.641397 82.595779 
L 429.907083 84.689107 
L 431.235515 68.726469 
L 432.298261 46.609124 
L 432.563947 46.645495 
L 432.829634 45.073478 
L 433.09532 41.472792 
L 433.626693 31.381981 
L 433.892379 28.007601 
L 434.158066 26.342637 
L 434.423752 28.872412 
L 434.689439 36.239472 
L 434.955125 32.949956 
L 435.220812 31.301157 
L 436.549244 17.803636 
L 436.549244 17.803636 
" style="fill:none;stroke:#cb495c;stroke-width:3;"/>
   </g>
   <g id="line2d_29">
    <path clip-path="url(#p8dff7ec988)" d="M 206.46481 229.241899 
L 286.170734 229.205529 
M 326.023696 228.950935 
L 339.308016 229.031758 
L 352.592337 228.651888 
L 365.876658 228.817576 
L 379.160978 228.587229 
M 397.759027 228.065918 
L 398.821773 227.964888 
L 399.087459 227.673924 
L 399.353146 227.811324 
L 399.618832 227.714336 
L 399.884519 227.76283 
L 400.415891 227.387 
L 400.681578 227.568853 
L 401.212951 227.528442 
L 401.478637 227.536524 
L 401.744323 227.403165 
L 402.275696 226.910142 
L 402.541383 227.193024 
L 402.807069 227.011171 
L 403.072756 226.586848 
L 403.338442 226.885895 
L 403.604128 226.582807 
L 403.869815 226.603013 
L 404.135501 226.004919 
L 404.401188 225.984713 
L 404.666874 226.372666 
L 404.93256 226.316089 
L 405.198247 225.305796 
L 405.463933 225.875601 
L 405.995306 225.536143 
L 406.260993 225.952384 
L 406.526679 225.608884 
L 406.792365 225.633131 
L 407.058052 225.80286 
L 407.323738 225.047161 
L 407.589425 224.893596 
L 408.386484 225.01079 
L 408.917857 224.578385 
L 409.183543 224.56222 
L 409.449229 224.885514 
L 409.714916 224.331873 
L 409.980602 223.248838 
L 410.246289 223.058903 
L 410.511975 223.042738 
L 410.777662 222.18601 
L 411.043348 222.893215 
L 411.309034 222.012239 
L 411.840407 222.282998 
L 412.637466 221.943539 
L 412.903153 221.955663 
L 413.168839 221.29291 
L 413.434526 221.115098 
L 413.700212 222.060733 
L 413.965898 222.129433 
L 414.497271 220.589746 
L 414.762958 220.723105 
L 415.028644 220.601869 
L 415.825703 218.876288 
L 416.09139 216.92036 
L 416.357076 216.629395 
L 416.622763 216.653642 
L 416.888449 216.964813 
L 417.154135 216.964813 
L 417.419822 217.853871 
L 417.685508 224.869349 
L 418.216881 223.850973 
L 418.482568 222.881092 
L 418.748254 222.49718 
L 419.01394 221.866757 
L 419.545313 219.575411 
L 420.076686 218.480253 
L 420.873745 215.61102 
L 421.405118 213.246933 
L 423.264923 197.591425 
L 423.796296 189.468665 
L 424.327669 179.899165 
L 424.593355 177.405761 
L 425.124728 169.598213 
L 425.390414 171.020706 
L 425.921787 165.334774 
L 426.984533 149.574196 
L 427.781592 155.054028 
L 428.047278 155.68041 
L 428.312965 155.195469 
L 429.641397 125.597911 
L 429.907083 118.445033 
L 431.235515 100.546673 
L 431.501202 100.05365 
L 431.766888 102.195472 
L 432.032575 102.809731 
L 432.298261 97.499628 
L 432.563947 98.340192 
L 432.829634 97.818881 
L 433.09532 96.360017 
L 433.626693 89.425363 
L 433.892379 88.293834 
L 434.158066 86.345988 
L 434.423752 89.566804 
L 434.689439 95.462876 
L 434.955125 88.677745 
L 435.220812 90.69025 
L 435.486498 90.027497 
L 435.752184 88.609045 
L 436.017871 88.38274 
L 436.549244 84.737601 
L 436.549244 84.737601 
" style="fill:none;stroke:#bb60d5;stroke-width:3;"/>
   </g>
   <g id="line2d_30">
    <path clip-path="url(#p8dff7ec988)" d="M 370.12764 229.274229 
L 382.349215 229.524782 
L 384.474707 229.051964 
M 408.65217 228.79737 
L 409.183543 228.4862 
M 413.434526 228.207359 
L 414.231585 228.029547 
L 414.497271 228.465994 
L 414.762958 228.401335 
L 415.294331 227.892147 
L 415.825703 228.146741 
M 419.01394 228.987305 
L 419.545313 228.049753 
L 419.811 227.609265 
L 420.076686 228.049753 
L 420.608059 227.597142 
L 420.873745 227.589059 
L 421.139432 227.710294 
L 421.936491 228.817576 
L 422.467864 228.207359 
L 422.999237 227.463783 
L 423.530609 227.395083 
L 423.796296 227.629471 
L 424.593355 226.570683 
L 424.859041 226.76466 
L 425.124728 226.501983 
L 425.390414 226.477736 
L 425.656101 226.287801 
L 425.921787 226.453489 
L 426.187473 226.336295 
L 426.45316 225.649296 
L 426.984533 225.21689 
L 427.250219 225.277508 
L 427.515906 224.66729 
L 427.781592 224.339955 
L 428.312965 222.711362 
L 429.110024 221.656616 
L 429.641397 222.105186 
L 429.907083 221.74148 
L 430.17277 221.010028 
L 430.438456 219.935076 
L 430.969829 218.702518 
L 431.235515 217.926612 
L 431.766888 217.684142 
L 432.032575 216.831454 
L 432.829634 212.677127 
L 433.09532 211.347581 
L 433.361007 209.436106 
L 433.892379 204.01285 
L 434.158066 201.81041 
L 434.423752 200.763746 
L 434.689439 198.12486 
L 435.220812 190.741635 
L 435.752184 187.237937 
L 436.017871 184.732409 
L 436.549244 182.259211 
L 436.549244 182.259211 
" style="fill:none;stroke:#f47915;stroke-width:3;"/>
   </g>
   <g id="line2d_31">
    <path clip-path="url(#p8dff7ec988)" d="M 326.023696 226.772742 
L 339.308016 227.083912 
L 352.592337 227.197065 
L 365.876658 227.589059 
L 379.426665 227.734541 
L 382.083529 227.940641 
M 401.478637 228.130576 
L 401.744323 227.997218 
L 402.01001 228.114412 
L 402.275696 227.924477 
L 402.541383 227.875983 
L 402.807069 227.981053 
L 403.072756 227.778994 
L 403.338442 228.162906 
L 403.604128 227.839612 
L 404.135501 227.641594 
L 404.401188 227.738583 
L 404.666874 228.045712 
L 404.93256 227.302136 
L 405.198247 227.28193 
L 405.463933 227.641594 
L 405.995306 227.391042 
L 406.260993 227.011171 
L 406.792365 226.934389 
L 407.058052 227.035418 
L 407.323738 226.90206 
L 407.589425 227.225354 
L 407.855111 227.164736 
L 408.120797 226.506025 
L 408.917857 226.522189 
L 409.183543 226.631301 
L 409.449229 226.320131 
L 409.714916 226.441366 
L 409.980602 226.259513 
L 410.246289 226.348419 
L 410.511975 227.059665 
L 410.777662 226.35246 
L 411.043348 226.788907 
L 411.574721 226.198895 
L 411.840407 226.425201 
L 412.106094 226.182731 
L 412.37178 226.150401 
L 412.637466 226.004919 
L 413.168839 226.017043 
L 413.434526 225.806901 
L 414.231585 225.899848 
L 415.028644 226.081701 
L 415.294331 225.911972 
L 415.825703 226.122113 
L 417.154135 225.746284 
L 417.685508 226.00896 
L 417.951195 226.372666 
L 418.482568 226.376707 
L 418.748254 226.287801 
L 419.811 226.344378 
L 420.076686 226.312048 
L 420.342372 226.42116 
L 420.608059 226.267595 
L 420.873745 226.554519 
L 421.139432 226.417119 
L 421.405118 226.578766 
L 421.670804 226.376707 
L 422.467864 226.566642 
L 422.73355 226.433283 
L 422.999237 226.885895 
L 423.264923 227.063707 
L 423.530609 226.906101 
L 423.796296 227.063707 
L 424.859041 227.043501 
L 425.124728 226.788907 
L 425.390414 226.93843 
L 425.656101 226.542395 
L 425.921787 226.776783 
L 426.45316 227.043501 
L 426.718846 227.475906 
L 426.984533 227.427412 
L 428.047278 227.863859 
L 428.312965 227.920435 
L 428.844338 227.62543 
L 429.641397 226.861648 
L 429.907083 226.805071 
L 430.704143 226.049372 
L 431.766888 224.590508 
L 432.829634 223.248838 
L 433.361007 221.935457 
L 434.689439 216.140413 
L 435.220812 212.778157 
L 435.486498 211.945675 
L 435.752184 211.630463 
L 436.283557 209.258294 
L 436.549244 207.957036 
L 436.549244 207.957036 
" style="fill:none;stroke:#06ab54;stroke-width:3;"/>
   </g>
   <g id="patch_3">
    <path d="M 77.79288 240.48 
L 77.79288 7.2 
" style="fill:none;stroke:#ffffff;stroke-linecap:square;stroke-linejoin:miter;stroke-width:3;"/>
   </g>
   <g id="patch_4">
    <path d="M 453.63288 240.48 
L 453.63288 7.2 
" style="fill:none;stroke:#ffffff;stroke-linecap:square;stroke-linejoin:miter;stroke-width:3;"/>
   </g>
   <g id="patch_5">
    <path d="M 77.79288 240.48 
L 453.63288 240.48 
" style="fill:none;stroke:#ffffff;stroke-linecap:square;stroke-linejoin:miter;stroke-width:3;"/>
   </g>
   <g id="patch_6">
    <path d="M 77.79288 7.2 
L 453.63288 7.2 
" style="fill:none;stroke:#ffffff;stroke-linecap:square;stroke-linejoin:miter;stroke-width:3;"/>
   </g>
   <g id="text_16">
    <!-- United Kingdom -->
    <defs>
     <path d="M 54.6875 71.578125 
L 64.15625 71.578125 
L 64.15625 30.21875 
Q 64.15625 19.4375 61.71875 13.078125 
Q 59.28125 6.734375 52.90625 2.75 
Q 46.53125 -1.21875 36.1875 -1.21875 
Q 26.125 -1.21875 19.71875 2.25 
Q 13.328125 5.71875 10.59375 12.28125 
Q 7.859375 18.84375 7.859375 30.21875 
L 7.859375 71.578125 
L 17.328125 71.578125 
L 17.328125 30.28125 
Q 17.328125 20.953125 19.0625 16.53125 
Q 20.796875 12.109375 25.015625 9.71875 
Q 29.25 7.328125 35.359375 7.328125 
Q 45.796875 7.328125 50.234375 12.0625 
Q 54.6875 16.796875 54.6875 30.28125 
z
" id="ArialMT-85"/>
     <path d="M 6.59375 0 
L 6.59375 51.859375 
L 14.5 51.859375 
L 14.5 44.484375 
Q 20.21875 53.03125 31 53.03125 
Q 35.6875 53.03125 39.625 51.34375 
Q 43.5625 49.65625 45.515625 46.921875 
Q 47.46875 44.1875 48.25 40.4375 
Q 48.734375 37.984375 48.734375 31.890625 
L 48.734375 0 
L 39.9375 0 
L 39.9375 31.546875 
Q 39.9375 36.921875 38.90625 39.578125 
Q 37.890625 42.234375 35.28125 43.8125 
Q 32.671875 45.40625 29.15625 45.40625 
Q 23.53125 45.40625 19.453125 41.84375 
Q 15.375 38.28125 15.375 28.328125 
L 15.375 0 
z
" id="ArialMT-110"/>
     <path d="M 40.234375 0 
L 40.234375 6.546875 
Q 35.296875 -1.171875 25.734375 -1.171875 
Q 19.53125 -1.171875 14.328125 2.25 
Q 9.125 5.671875 6.265625 11.796875 
Q 3.421875 17.921875 3.421875 25.875 
Q 3.421875 33.640625 6 39.96875 
Q 8.59375 46.296875 13.765625 49.65625 
Q 18.953125 53.03125 25.34375 53.03125 
Q 30.03125 53.03125 33.6875 51.046875 
Q 37.359375 49.078125 39.65625 45.90625 
L 39.65625 71.578125 
L 48.390625 71.578125 
L 48.390625 0 
z
M 12.453125 25.875 
Q 12.453125 15.921875 16.640625 10.984375 
Q 20.84375 6.0625 26.5625 6.0625 
Q 32.328125 6.0625 36.34375 10.765625 
Q 40.375 15.484375 40.375 25.140625 
Q 40.375 35.796875 36.265625 40.765625 
Q 32.171875 45.75 26.171875 45.75 
Q 20.3125 45.75 16.375 40.96875 
Q 12.453125 36.1875 12.453125 25.875 
z
" id="ArialMT-100"/>
     <path d="M 7.328125 0 
L 7.328125 71.578125 
L 16.796875 71.578125 
L 16.796875 36.078125 
L 52.34375 71.578125 
L 65.1875 71.578125 
L 35.15625 42.578125 
L 66.5 0 
L 54 0 
L 28.515625 36.234375 
L 16.796875 24.8125 
L 16.796875 0 
z
" id="ArialMT-75"/>
     <path d="M 4.984375 -4.296875 
L 13.53125 -5.5625 
Q 14.0625 -9.515625 16.5 -11.328125 
Q 19.78125 -13.765625 25.4375 -13.765625 
Q 31.546875 -13.765625 34.859375 -11.328125 
Q 38.1875 -8.890625 39.359375 -4.5 
Q 40.046875 -1.8125 39.984375 6.78125 
Q 34.234375 0 25.640625 0 
Q 14.9375 0 9.078125 7.71875 
Q 3.21875 15.4375 3.21875 26.21875 
Q 3.21875 33.640625 5.90625 39.90625 
Q 8.59375 46.1875 13.6875 49.609375 
Q 18.796875 53.03125 25.6875 53.03125 
Q 34.859375 53.03125 40.828125 45.609375 
L 40.828125 51.859375 
L 48.921875 51.859375 
L 48.921875 7.03125 
Q 48.921875 -5.078125 46.453125 -10.125 
Q 44 -15.1875 38.640625 -18.109375 
Q 33.296875 -21.046875 25.484375 -21.046875 
Q 16.21875 -21.046875 10.5 -16.875 
Q 4.78125 -12.703125 4.984375 -4.296875 
z
M 12.25 26.859375 
Q 12.25 16.65625 16.296875 11.96875 
Q 20.359375 7.28125 26.46875 7.28125 
Q 32.515625 7.28125 36.609375 11.9375 
Q 40.71875 16.609375 40.71875 26.5625 
Q 40.71875 36.078125 36.5 40.90625 
Q 32.28125 45.75 26.3125 45.75 
Q 20.453125 45.75 16.34375 40.984375 
Q 12.25 36.234375 12.25 26.859375 
z
" id="ArialMT-103"/>
     <path d="M 3.328125 25.921875 
Q 3.328125 40.328125 11.328125 47.265625 
Q 18.015625 53.03125 27.640625 53.03125 
Q 38.328125 53.03125 45.109375 46.015625 
Q 51.90625 39.015625 51.90625 26.65625 
Q 51.90625 16.65625 48.90625 10.90625 
Q 45.90625 5.171875 40.15625 2 
Q 34.421875 -1.171875 27.640625 -1.171875 
Q 16.75 -1.171875 10.03125 5.8125 
Q 3.328125 12.796875 3.328125 25.921875 
z
M 12.359375 25.921875 
Q 12.359375 15.96875 16.703125 11.015625 
Q 21.046875 6.0625 27.640625 6.0625 
Q 34.1875 6.0625 38.53125 11.03125 
Q 42.875 16.015625 42.875 26.21875 
Q 42.875 35.84375 38.5 40.796875 
Q 34.125 45.75 27.640625 45.75 
Q 21.046875 45.75 16.703125 40.8125 
Q 12.359375 35.890625 12.359375 25.921875 
z
" id="ArialMT-111"/>
     <path d="M 6.59375 0 
L 6.59375 51.859375 
L 14.453125 51.859375 
L 14.453125 44.578125 
Q 16.890625 48.390625 20.9375 50.703125 
Q 25 53.03125 30.171875 53.03125 
Q 35.9375 53.03125 39.625 50.640625 
Q 43.3125 48.25 44.828125 43.953125 
Q 50.984375 53.03125 60.84375 53.03125 
Q 68.5625 53.03125 72.703125 48.75 
Q 76.859375 44.484375 76.859375 35.59375 
L 76.859375 0 
L 68.109375 0 
L 68.109375 32.671875 
Q 68.109375 37.9375 67.25 40.25 
Q 66.40625 42.578125 64.15625 43.984375 
Q 61.921875 45.40625 58.890625 45.40625 
Q 53.421875 45.40625 49.796875 41.765625 
Q 46.1875 38.140625 46.1875 30.125 
L 46.1875 0 
L 37.40625 0 
L 37.40625 33.6875 
Q 37.40625 39.546875 35.25 42.46875 
Q 33.109375 45.40625 28.21875 45.40625 
Q 24.515625 45.40625 21.359375 43.453125 
Q 18.21875 41.5 16.796875 37.734375 
Q 15.375 33.984375 15.375 26.90625 
L 15.375 0 
z
" id="ArialMT-109"/>
    </defs>
    <g style="fill:#165aa7;" transform="translate(437.611989 73.786019)scale(0.14 -0.14)">
     <use xlink:href="#ArialMT-85"/>
     <use x="72.216797" xlink:href="#ArialMT-110"/>
     <use x="127.832031" xlink:href="#ArialMT-105"/>
     <use x="150.048828" xlink:href="#ArialMT-116"/>
     <use x="177.832031" xlink:href="#ArialMT-101"/>
     <use x="233.447266" xlink:href="#ArialMT-100"/>
     <use x="289.0625" xlink:href="#ArialMT-32"/>
     <use x="316.845703" xlink:href="#ArialMT-75"/>
     <use x="383.544922" xlink:href="#ArialMT-105"/>
     <use x="405.761719" xlink:href="#ArialMT-110"/>
     <use x="461.376953" xlink:href="#ArialMT-103"/>
     <use x="516.992188" xlink:href="#ArialMT-100"/>
     <use x="572.607422" xlink:href="#ArialMT-111"/>
     <use x="628.222656" xlink:href="#ArialMT-109"/>
    </g>
   </g>
   <g id="text_17">
    <!-- United States -->
    <defs>
     <path d="M 4.5 23 
L 13.421875 23.78125 
Q 14.0625 18.40625 16.375 14.96875 
Q 18.703125 11.53125 23.578125 9.40625 
Q 28.46875 7.28125 34.578125 7.28125 
Q 39.984375 7.28125 44.140625 8.890625 
Q 48.296875 10.5 50.3125 13.296875 
Q 52.34375 16.109375 52.34375 19.4375 
Q 52.34375 22.796875 50.390625 25.3125 
Q 48.4375 27.828125 43.953125 29.546875 
Q 41.0625 30.671875 31.203125 33.03125 
Q 21.34375 35.40625 17.390625 37.5 
Q 12.25 40.1875 9.734375 44.15625 
Q 7.234375 48.140625 7.234375 53.078125 
Q 7.234375 58.5 10.296875 63.203125 
Q 13.375 67.921875 19.28125 70.359375 
Q 25.203125 72.796875 32.421875 72.796875 
Q 40.375 72.796875 46.453125 70.234375 
Q 52.546875 67.671875 55.8125 62.6875 
Q 59.078125 57.71875 59.328125 51.421875 
L 50.25 50.734375 
Q 49.515625 57.515625 45.28125 60.984375 
Q 41.0625 64.453125 32.8125 64.453125 
Q 24.21875 64.453125 20.28125 61.296875 
Q 16.359375 58.15625 16.359375 53.71875 
Q 16.359375 49.859375 19.140625 47.359375 
Q 21.875 44.875 33.421875 42.265625 
Q 44.96875 39.65625 49.265625 37.703125 
Q 55.515625 34.8125 58.484375 30.390625 
Q 61.46875 25.984375 61.46875 20.21875 
Q 61.46875 14.5 58.203125 9.4375 
Q 54.9375 4.390625 48.796875 1.578125 
Q 42.671875 -1.21875 35.015625 -1.21875 
Q 25.296875 -1.21875 18.71875 1.609375 
Q 12.15625 4.4375 8.421875 10.125 
Q 4.6875 15.828125 4.5 23 
z
" id="ArialMT-83"/>
     <path d="M 3.078125 15.484375 
L 11.765625 16.84375 
Q 12.5 11.625 15.84375 8.84375 
Q 19.1875 6.0625 25.203125 6.0625 
Q 31.25 6.0625 34.171875 8.515625 
Q 37.109375 10.984375 37.109375 14.3125 
Q 37.109375 17.28125 34.515625 19 
Q 32.71875 20.171875 25.53125 21.96875 
Q 15.875 24.421875 12.140625 26.203125 
Q 8.40625 27.984375 6.46875 31.125 
Q 4.546875 34.28125 4.546875 38.09375 
Q 4.546875 41.546875 6.125 44.5 
Q 7.71875 47.46875 10.453125 49.421875 
Q 12.5 50.921875 16.03125 51.96875 
Q 19.578125 53.03125 23.640625 53.03125 
Q 29.734375 53.03125 34.34375 51.265625 
Q 38.96875 49.515625 41.15625 46.5 
Q 43.359375 43.5 44.1875 38.484375 
L 35.59375 37.3125 
Q 35.015625 41.3125 32.203125 43.546875 
Q 29.390625 45.796875 24.265625 45.796875 
Q 18.21875 45.796875 15.625 43.796875 
Q 13.03125 41.796875 13.03125 39.109375 
Q 13.03125 37.40625 14.109375 36.03125 
Q 15.1875 34.625 17.484375 33.6875 
Q 18.796875 33.203125 25.25 31.453125 
Q 34.578125 28.953125 38.25 27.359375 
Q 41.9375 25.78125 44.03125 22.75 
Q 46.140625 19.734375 46.140625 15.234375 
Q 46.140625 10.84375 43.578125 6.953125 
Q 41.015625 3.078125 36.171875 0.953125 
Q 31.34375 -1.171875 25.25 -1.171875 
Q 15.140625 -1.171875 9.84375 3.03125 
Q 4.546875 7.234375 3.078125 15.484375 
z
" id="ArialMT-115"/>
    </defs>
    <g style="fill:#cb495c;" transform="translate(437.611989 17.803636)scale(0.14 -0.14)">
     <use xlink:href="#ArialMT-85"/>
     <use x="72.216797" xlink:href="#ArialMT-110"/>
     <use x="127.832031" xlink:href="#ArialMT-105"/>
     <use x="150.048828" xlink:href="#ArialMT-116"/>
     <use x="177.832031" xlink:href="#ArialMT-101"/>
     <use x="233.447266" xlink:href="#ArialMT-100"/>
     <use x="289.0625" xlink:href="#ArialMT-32"/>
     <use x="316.845703" xlink:href="#ArialMT-83"/>
     <use x="383.544922" xlink:href="#ArialMT-116"/>
     <use x="411.328125" xlink:href="#ArialMT-97"/>
     <use x="466.943359" xlink:href="#ArialMT-116"/>
     <use x="494.726562" xlink:href="#ArialMT-101"/>
     <use x="550.341797" xlink:href="#ArialMT-115"/>
    </g>
   </g>
   <g id="text_18">
    <!-- Japan -->
    <defs>
     <path d="M 2.875 20.3125 
L 11.421875 21.484375 
Q 11.765625 13.28125 14.5 10.25 
Q 17.234375 7.234375 22.078125 7.234375 
Q 25.640625 7.234375 28.21875 8.859375 
Q 30.8125 10.5 31.78125 13.296875 
Q 32.765625 16.109375 32.765625 22.265625 
L 32.765625 71.578125 
L 42.234375 71.578125 
L 42.234375 22.796875 
Q 42.234375 13.8125 40.0625 8.875 
Q 37.890625 3.953125 33.171875 1.359375 
Q 28.46875 -1.21875 22.125 -1.21875 
Q 12.703125 -1.21875 7.6875 4.203125 
Q 2.6875 9.625 2.875 20.3125 
z
" id="ArialMT-74"/>
    </defs>
    <g style="fill:#bb60d5;" transform="translate(437.611989 88.778775)scale(0.14 -0.14)">
     <use xlink:href="#ArialMT-74"/>
     <use x="50" xlink:href="#ArialMT-97"/>
     <use x="105.615234" xlink:href="#ArialMT-112"/>
     <use x="161.230469" xlink:href="#ArialMT-97"/>
     <use x="216.845703" xlink:href="#ArialMT-110"/>
    </g>
   </g>
   <g id="text_19">
    <!-- China -->
    <defs>
     <path d="M 58.796875 25.09375 
L 68.265625 22.703125 
Q 65.28125 11.03125 57.546875 4.90625 
Q 49.8125 -1.21875 38.625 -1.21875 
Q 27.046875 -1.21875 19.796875 3.484375 
Q 12.546875 8.203125 8.765625 17.140625 
Q 4.984375 26.078125 4.984375 36.328125 
Q 4.984375 47.515625 9.25 55.828125 
Q 13.53125 64.15625 21.40625 68.46875 
Q 29.296875 72.796875 38.765625 72.796875 
Q 49.515625 72.796875 56.828125 67.328125 
Q 64.15625 61.859375 67.046875 51.953125 
L 57.71875 49.75 
Q 55.21875 57.5625 50.484375 61.125 
Q 45.75 64.703125 38.578125 64.703125 
Q 30.328125 64.703125 24.78125 60.734375 
Q 19.234375 56.78125 16.984375 50.109375 
Q 14.75 43.453125 14.75 36.375 
Q 14.75 27.25 17.40625 20.4375 
Q 20.0625 13.625 25.671875 10.25 
Q 31.296875 6.890625 37.84375 6.890625 
Q 45.796875 6.890625 51.3125 11.46875 
Q 56.84375 16.0625 58.796875 25.09375 
z
" id="ArialMT-67"/>
     <path d="M 6.59375 0 
L 6.59375 71.578125 
L 15.375 71.578125 
L 15.375 45.90625 
Q 21.53125 53.03125 30.90625 53.03125 
Q 36.671875 53.03125 40.921875 50.75 
Q 45.171875 48.484375 47 44.484375 
Q 48.828125 40.484375 48.828125 32.859375 
L 48.828125 0 
L 40.046875 0 
L 40.046875 32.859375 
Q 40.046875 39.453125 37.1875 42.453125 
Q 34.328125 45.453125 29.109375 45.453125 
Q 25.203125 45.453125 21.75 43.421875 
Q 18.3125 41.40625 16.84375 37.9375 
Q 15.375 34.46875 15.375 28.375 
L 15.375 0 
z
" id="ArialMT-104"/>
    </defs>
    <g style="fill:#f47915;" transform="translate(437.611989 182.259211)scale(0.14 -0.14)">
     <use xlink:href="#ArialMT-67"/>
     <use x="72.216797" xlink:href="#ArialMT-104"/>
     <use x="127.832031" xlink:href="#ArialMT-105"/>
     <use x="150.048828" xlink:href="#ArialMT-110"/>
     <use x="205.664062" xlink:href="#ArialMT-97"/>
    </g>
   </g>
   <g id="text_20">
    <!-- India -->
    <defs>
     <path d="M 9.328125 0 
L 9.328125 71.578125 
L 18.796875 71.578125 
L 18.796875 0 
z
" id="ArialMT-73"/>
    </defs>
    <g style="fill:#06ab54;" transform="translate(437.611989 207.957036)scale(0.14 -0.14)">
     <use xlink:href="#ArialMT-73"/>
     <use x="27.783203" xlink:href="#ArialMT-110"/>
     <use x="83.398438" xlink:href="#ArialMT-100"/>
     <use x="139.013672" xlink:href="#ArialMT-105"/>
     <use x="161.230469" xlink:href="#ArialMT-97"/>
    </g>
   </g>
   <g id="text_21">
    <!-- Source: Maddison Project Database (MPD) 2018 -->
    <defs>
     <path d="M 40.578125 0 
L 40.578125 7.625 
Q 34.515625 -1.171875 24.125 -1.171875 
Q 19.53125 -1.171875 15.546875 0.578125 
Q 11.578125 2.34375 9.640625 5 
Q 7.71875 7.671875 6.9375 11.53125 
Q 6.390625 14.109375 6.390625 19.734375 
L 6.390625 51.859375 
L 15.1875 51.859375 
L 15.1875 23.09375 
Q 15.1875 16.21875 15.71875 13.8125 
Q 16.546875 10.359375 19.234375 8.375 
Q 21.921875 6.390625 25.875 6.390625 
Q 29.828125 6.390625 33.296875 8.421875 
Q 36.765625 10.453125 38.203125 13.9375 
Q 39.65625 17.4375 39.65625 24.078125 
L 39.65625 51.859375 
L 48.4375 51.859375 
L 48.4375 0 
z
" id="ArialMT-117"/>
     <path d="M 9.03125 41.84375 
L 9.03125 51.859375 
L 19.046875 51.859375 
L 19.046875 41.84375 
z
M 9.03125 0 
L 9.03125 10.015625 
L 19.046875 10.015625 
L 19.046875 0 
z
" id="ArialMT-58"/>
     <path d="M 7.421875 0 
L 7.421875 71.578125 
L 21.6875 71.578125 
L 38.625 20.90625 
Q 40.96875 13.8125 42.046875 10.296875 
Q 43.265625 14.203125 45.84375 21.78125 
L 62.984375 71.578125 
L 75.734375 71.578125 
L 75.734375 0 
L 66.609375 0 
L 66.609375 59.90625 
L 45.796875 0 
L 37.25 0 
L 16.546875 60.9375 
L 16.546875 0 
z
" id="ArialMT-77"/>
     <path d="M 6.546875 61.375 
L 6.546875 71.578125 
L 15.328125 71.578125 
L 15.328125 61.375 
z
M -4.59375 -20.125 
L -2.9375 -12.640625 
Q -0.296875 -13.328125 1.21875 -13.328125 
Q 3.90625 -13.328125 5.21875 -11.546875 
Q 6.546875 -9.765625 6.546875 -2.640625 
L 6.546875 51.859375 
L 15.328125 51.859375 
L 15.328125 -2.828125 
Q 15.328125 -12.40625 12.84375 -16.15625 
Q 9.671875 -21.046875 2.296875 -21.046875 
Q -1.265625 -21.046875 -4.59375 -20.125 
z
" id="ArialMT-106"/>
     <path d="M 14.703125 0 
L 6.546875 0 
L 6.546875 71.578125 
L 15.328125 71.578125 
L 15.328125 46.046875 
Q 20.90625 53.03125 29.546875 53.03125 
Q 34.328125 53.03125 38.59375 51.09375 
Q 42.875 49.171875 45.625 45.671875 
Q 48.390625 42.1875 49.953125 37.25 
Q 51.515625 32.328125 51.515625 26.703125 
Q 51.515625 13.375 44.921875 6.09375 
Q 38.328125 -1.171875 29.109375 -1.171875 
Q 19.921875 -1.171875 14.703125 6.5 
z
M 14.59375 26.3125 
Q 14.59375 17 17.140625 12.84375 
Q 21.296875 6.0625 28.375 6.0625 
Q 34.125 6.0625 38.328125 11.0625 
Q 42.53125 16.0625 42.53125 25.984375 
Q 42.53125 36.140625 38.5 40.96875 
Q 34.46875 45.796875 28.765625 45.796875 
Q 23 45.796875 18.796875 40.796875 
Q 14.59375 35.796875 14.59375 26.3125 
z
" id="ArialMT-98"/>
     <path d="M 23.390625 -21.046875 
Q 16.109375 -11.859375 11.078125 0.4375 
Q 6.0625 12.75 6.0625 25.921875 
Q 6.0625 37.546875 9.8125 48.1875 
Q 14.203125 60.546875 23.390625 72.796875 
L 29.6875 72.796875 
Q 23.78125 62.640625 21.875 58.296875 
Q 18.890625 51.5625 17.1875 44.234375 
Q 15.09375 35.109375 15.09375 25.875 
Q 15.09375 2.390625 29.6875 -21.046875 
z
" id="ArialMT-40"/>
     <path d="M 12.359375 -21.046875 
L 6.0625 -21.046875 
Q 20.65625 2.390625 20.65625 25.875 
Q 20.65625 35.0625 18.5625 44.09375 
Q 16.890625 51.421875 13.921875 58.15625 
Q 12.015625 62.546875 6.0625 72.796875 
L 12.359375 72.796875 
Q 21.53125 60.546875 25.921875 48.1875 
Q 29.6875 37.546875 29.6875 25.921875 
Q 29.6875 12.75 24.625 0.4375 
Q 19.578125 -11.859375 12.359375 -21.046875 
z
" id="ArialMT-41"/>
    </defs>
    <g transform="translate(7.2 312.869953)scale(0.14 -0.14)">
     <use xlink:href="#ArialMT-83"/>
     <use x="66.699219" xlink:href="#ArialMT-111"/>
     <use x="122.314453" xlink:href="#ArialMT-117"/>
     <use x="177.929688" xlink:href="#ArialMT-114"/>
     <use x="211.230469" xlink:href="#ArialMT-99"/>
     <use x="261.230469" xlink:href="#ArialMT-101"/>
     <use x="316.845703" xlink:href="#ArialMT-58"/>
     <use x="344.628906" xlink:href="#ArialMT-32"/>
     <use x="372.412109" xlink:href="#ArialMT-77"/>
     <use x="455.712891" xlink:href="#ArialMT-97"/>
     <use x="511.328125" xlink:href="#ArialMT-100"/>
     <use x="566.943359" xlink:href="#ArialMT-100"/>
     <use x="622.558594" xlink:href="#ArialMT-105"/>
     <use x="644.775391" xlink:href="#ArialMT-115"/>
     <use x="694.775391" xlink:href="#ArialMT-111"/>
     <use x="750.390625" xlink:href="#ArialMT-110"/>
     <use x="806.005859" xlink:href="#ArialMT-32"/>
     <use x="833.789062" xlink:href="#ArialMT-80"/>
     <use x="900.488281" xlink:href="#ArialMT-114"/>
     <use x="933.789062" xlink:href="#ArialMT-111"/>
     <use x="989.404297" xlink:href="#ArialMT-106"/>
     <use x="1011.621094" xlink:href="#ArialMT-101"/>
     <use x="1067.236328" xlink:href="#ArialMT-99"/>
     <use x="1117.236328" xlink:href="#ArialMT-116"/>
     <use x="1145.019531" xlink:href="#ArialMT-32"/>
     <use x="1172.802734" xlink:href="#ArialMT-68"/>
     <use x="1245.019531" xlink:href="#ArialMT-97"/>
     <use x="1300.634766" xlink:href="#ArialMT-116"/>
     <use x="1328.417969" xlink:href="#ArialMT-97"/>
     <use x="1384.033203" xlink:href="#ArialMT-98"/>
     <use x="1439.648438" xlink:href="#ArialMT-97"/>
     <use x="1495.263672" xlink:href="#ArialMT-115"/>
     <use x="1545.263672" xlink:href="#ArialMT-101"/>
     <use x="1600.878906" xlink:href="#ArialMT-32"/>
     <use x="1628.662109" xlink:href="#ArialMT-40"/>
     <use x="1661.962891" xlink:href="#ArialMT-77"/>
     <use x="1745.263672" xlink:href="#ArialMT-80"/>
     <use x="1811.962891" xlink:href="#ArialMT-68"/>
     <use x="1884.179688" xlink:href="#ArialMT-41"/>
     <use x="1917.480469" xlink:href="#ArialMT-32"/>
     <use x="1945.263672" xlink:href="#ArialMT-50"/>
     <use x="2000.878906" xlink:href="#ArialMT-48"/>
     <use x="2056.494141" xlink:href="#ArialMT-49"/>
     <use x="2112.109375" xlink:href="#ArialMT-56"/>
    </g>
   </g>
  </g>
 </g>
 <defs>
  <clipPath id="p8dff7ec988">
   <rect height="233.28" width="375.84" x="77.79288" y="7.2"/>
  </clipPath>
 </defs>
</svg>
