<?xml version="1.0" encoding="utf-8" standalone="no"?>
<!DOCTYPE svg PUBLIC "-//W3C//DTD SVG 1.1//EN"
  "http://www.w3.org/Graphics/SVG/1.1/DTD/svg11.dtd">
<!-- Created with matplotlib (https://matplotlib.org/) -->
<svg height="402.138791pt" version="1.1" viewBox="0 0 555.0625 402.138791" width="555.0625pt" xmlns="http://www.w3.org/2000/svg" xmlns:xlink="http://www.w3.org/1999/xlink">
 <defs>
  <style type="text/css">
*{stroke-linecap:butt;stroke-linejoin:round;}
  </style>
 </defs>
 <g id="figure_1">
  <g id="patch_1">
   <path d="M 0 402.138791 
L 555.0625 402.138791 
L 555.0625 0 
L 0 0 
z
" style="fill:#ffffff;"/>
  </g>
  <g id="axes_1">
   <g id="patch_2">
    <path d="M 46.7425 358.163479 
L 547.8625 358.163479 
L 547.8625 8.243479 
L 46.7425 8.243479 
z
" style="fill:#ffffff;"/>
   </g>
   <g id="matplotlib.axis_1">
    <g id="xtick_1">
     <g id="line2d_1">
      <path clip-path="url(#p1bf9e5ad6d)" d="M 67.484088 358.163479 
L 67.484088 8.243479 
" style="fill:none;stroke:#000000;stroke-dasharray:6.4,1.6,1,1.6;stroke-dashoffset:0;stroke-opacity:0.2;"/>
     </g>
     <g id="line2d_2"/>
     <g id="text_1">
      <!-- 0 -->
      <defs>
       <path d="M 4.15625 35.296875 
Q 4.15625 48 6.765625 55.734375 
Q 9.375 63.484375 14.515625 67.671875 
Q 19.671875 71.875 27.484375 71.875 
Q 33.25 71.875 37.59375 69.546875 
Q 41.9375 67.234375 44.765625 62.859375 
Q 47.609375 58.5 49.21875 52.21875 
Q 50.828125 45.953125 50.828125 35.296875 
Q 50.828125 22.703125 48.234375 14.96875 
Q 45.65625 7.234375 40.5 3 
Q 35.359375 -1.21875 27.484375 -1.21875 
Q 17.140625 -1.21875 11.234375 6.203125 
Q 4.15625 15.140625 4.15625 35.296875 
z
M 13.1875 35.296875 
Q 13.1875 17.671875 17.3125 11.828125 
Q 21.4375 6 27.484375 6 
Q 33.546875 6 37.671875 11.859375 
Q 41.796875 17.71875 41.796875 35.296875 
Q 41.796875 52.984375 37.671875 58.78125 
Q 33.546875 64.59375 27.390625 64.59375 
Q 21.34375 64.59375 17.71875 59.46875 
Q 13.1875 52.9375 13.1875 35.296875 
z
" id="ArialMT-48"/>
      </defs>
      <g transform="translate(63.591432 371.684416)scale(0.14 -0.14)">
       <use xlink:href="#ArialMT-48"/>
      </g>
     </g>
    </g>
    <g id="xtick_2">
     <g id="line2d_3">
      <path clip-path="url(#p1bf9e5ad6d)" d="M 172.139904 358.163479 
L 172.139904 8.243479 
" style="fill:none;stroke:#000000;stroke-dasharray:6.4,1.6,1,1.6;stroke-dashoffset:0;stroke-opacity:0.2;"/>
     </g>
     <g id="line2d_4"/>
     <g id="text_2">
      <!-- 50 -->
      <defs>
       <path d="M 4.15625 18.75 
L 13.375 19.53125 
Q 14.40625 12.796875 18.140625 9.390625 
Q 21.875 6 27.15625 6 
Q 33.5 6 37.890625 10.78125 
Q 42.28125 15.578125 42.28125 23.484375 
Q 42.28125 31 38.0625 35.34375 
Q 33.84375 39.703125 27 39.703125 
Q 22.75 39.703125 19.328125 37.765625 
Q 15.921875 35.84375 13.96875 32.765625 
L 5.71875 33.84375 
L 12.640625 70.609375 
L 48.25 70.609375 
L 48.25 62.203125 
L 19.671875 62.203125 
L 15.828125 42.96875 
Q 22.265625 47.46875 29.34375 47.46875 
Q 38.71875 47.46875 45.15625 40.96875 
Q 51.609375 34.46875 51.609375 24.265625 
Q 51.609375 14.546875 45.953125 7.46875 
Q 39.0625 -1.21875 27.15625 -1.21875 
Q 17.390625 -1.21875 11.203125 4.25 
Q 5.03125 9.71875 4.15625 18.75 
z
" id="ArialMT-53"/>
      </defs>
      <g transform="translate(164.354592 371.684416)scale(0.14 -0.14)">
       <use xlink:href="#ArialMT-53"/>
       <use x="55.615234" xlink:href="#ArialMT-48"/>
      </g>
     </g>
    </g>
    <g id="xtick_3">
     <g id="line2d_5">
      <path clip-path="url(#p1bf9e5ad6d)" d="M 276.795721 358.163479 
L 276.795721 8.243479 
" style="fill:none;stroke:#000000;stroke-dasharray:6.4,1.6,1,1.6;stroke-dashoffset:0;stroke-opacity:0.2;"/>
     </g>
     <g id="line2d_6"/>
     <g id="text_3">
      <!-- 100 -->
      <defs>
       <path d="M 37.25 0 
L 28.46875 0 
L 28.46875 56 
Q 25.296875 52.984375 20.140625 49.953125 
Q 14.984375 46.921875 10.890625 45.40625 
L 10.890625 53.90625 
Q 18.265625 57.375 23.78125 62.296875 
Q 29.296875 67.234375 31.59375 71.875 
L 37.25 71.875 
z
" id="ArialMT-49"/>
      </defs>
      <g transform="translate(265.117752 371.684416)scale(0.14 -0.14)">
       <use xlink:href="#ArialMT-49"/>
       <use x="55.615234" xlink:href="#ArialMT-48"/>
       <use x="111.230469" xlink:href="#ArialMT-48"/>
      </g>
     </g>
    </g>
    <g id="xtick_4">
     <g id="line2d_7">
      <path clip-path="url(#p1bf9e5ad6d)" d="M 381.451537 358.163479 
L 381.451537 8.243479 
" style="fill:none;stroke:#000000;stroke-dasharray:6.4,1.6,1,1.6;stroke-dashoffset:0;stroke-opacity:0.2;"/>
     </g>
     <g id="line2d_8"/>
     <g id="text_4">
      <!-- 150 -->
      <g transform="translate(369.773568 371.684416)scale(0.14 -0.14)">
       <use xlink:href="#ArialMT-49"/>
       <use x="55.615234" xlink:href="#ArialMT-53"/>
       <use x="111.230469" xlink:href="#ArialMT-48"/>
      </g>
     </g>
    </g>
    <g id="xtick_5">
     <g id="line2d_9">
      <path clip-path="url(#p1bf9e5ad6d)" d="M 486.107353 358.163479 
L 486.107353 8.243479 
" style="fill:none;stroke:#000000;stroke-dasharray:6.4,1.6,1,1.6;stroke-dashoffset:0;stroke-opacity:0.2;"/>
     </g>
     <g id="line2d_10"/>
     <g id="text_5">
      <!-- 200 -->
      <defs>
       <path d="M 50.34375 8.453125 
L 50.34375 0 
L 3.03125 0 
Q 2.9375 3.171875 4.046875 6.109375 
Q 5.859375 10.9375 9.828125 15.625 
Q 13.8125 20.3125 21.34375 26.46875 
Q 33.015625 36.03125 37.109375 41.625 
Q 41.21875 47.21875 41.21875 52.203125 
Q 41.21875 57.421875 37.46875 61 
Q 33.734375 64.59375 27.734375 64.59375 
Q 21.390625 64.59375 17.578125 60.78125 
Q 13.765625 56.984375 13.71875 50.25 
L 4.6875 51.171875 
Q 5.609375 61.28125 11.65625 66.578125 
Q 17.71875 71.875 27.9375 71.875 
Q 38.234375 71.875 44.234375 66.15625 
Q 50.25 60.453125 50.25 52 
Q 50.25 47.703125 48.484375 43.546875 
Q 46.734375 39.40625 42.65625 34.8125 
Q 38.578125 30.21875 29.109375 22.21875 
Q 21.1875 15.578125 18.9375 13.203125 
Q 16.703125 10.84375 15.234375 8.453125 
z
" id="ArialMT-50"/>
      </defs>
      <g transform="translate(474.429384 371.684416)scale(0.14 -0.14)">
       <use xlink:href="#ArialMT-50"/>
       <use x="55.615234" xlink:href="#ArialMT-48"/>
       <use x="111.230469" xlink:href="#ArialMT-48"/>
      </g>
     </g>
    </g>
    <g id="text_6">
     <!-- Capital stock per capita, thousand 2011US$ -->
     <defs>
      <path d="M 58.796875 25.09375 
L 68.265625 22.703125 
Q 65.28125 11.03125 57.546875 4.90625 
Q 49.8125 -1.21875 38.625 -1.21875 
Q 27.046875 -1.21875 19.796875 3.484375 
Q 12.546875 8.203125 8.765625 17.140625 
Q 4.984375 26.078125 4.984375 36.328125 
Q 4.984375 47.515625 9.25 55.828125 
Q 13.53125 64.15625 21.40625 68.46875 
Q 29.296875 72.796875 38.765625 72.796875 
Q 49.515625 72.796875 56.828125 67.328125 
Q 64.15625 61.859375 67.046875 51.953125 
L 57.71875 49.75 
Q 55.21875 57.5625 50.484375 61.125 
Q 45.75 64.703125 38.578125 64.703125 
Q 30.328125 64.703125 24.78125 60.734375 
Q 19.234375 56.78125 16.984375 50.109375 
Q 14.75 43.453125 14.75 36.375 
Q 14.75 27.25 17.40625 20.4375 
Q 20.0625 13.625 25.671875 10.25 
Q 31.296875 6.890625 37.84375 6.890625 
Q 45.796875 6.890625 51.3125 11.46875 
Q 56.84375 16.0625 58.796875 25.09375 
z
" id="ArialMT-67"/>
      <path d="M 40.4375 6.390625 
Q 35.546875 2.25 31.03125 0.53125 
Q 26.515625 -1.171875 21.34375 -1.171875 
Q 12.796875 -1.171875 8.203125 3 
Q 3.609375 7.171875 3.609375 13.671875 
Q 3.609375 17.484375 5.34375 20.625 
Q 7.078125 23.78125 9.890625 25.6875 
Q 12.703125 27.59375 16.21875 28.5625 
Q 18.796875 29.25 24.03125 29.890625 
Q 34.671875 31.15625 39.703125 32.90625 
Q 39.75 34.71875 39.75 35.203125 
Q 39.75 40.578125 37.25 42.78125 
Q 33.890625 45.75 27.25 45.75 
Q 21.046875 45.75 18.09375 43.578125 
Q 15.140625 41.40625 13.71875 35.890625 
L 5.125 37.0625 
Q 6.296875 42.578125 8.984375 45.96875 
Q 11.671875 49.359375 16.75 51.1875 
Q 21.828125 53.03125 28.515625 53.03125 
Q 35.15625 53.03125 39.296875 51.46875 
Q 43.453125 49.90625 45.40625 47.53125 
Q 47.359375 45.171875 48.140625 41.546875 
Q 48.578125 39.3125 48.578125 33.453125 
L 48.578125 21.734375 
Q 48.578125 9.46875 49.140625 6.21875 
Q 49.703125 2.984375 51.375 0 
L 42.1875 0 
Q 40.828125 2.734375 40.4375 6.390625 
z
M 39.703125 26.03125 
Q 34.90625 24.078125 25.34375 22.703125 
Q 19.921875 21.921875 17.671875 20.9375 
Q 15.4375 19.96875 14.203125 18.09375 
Q 12.984375 16.21875 12.984375 13.921875 
Q 12.984375 10.40625 15.640625 8.0625 
Q 18.3125 5.71875 23.4375 5.71875 
Q 28.515625 5.71875 32.46875 7.9375 
Q 36.421875 10.15625 38.28125 14.015625 
Q 39.703125 17 39.703125 22.796875 
z
" id="ArialMT-97"/>
      <path d="M 6.59375 -19.875 
L 6.59375 51.859375 
L 14.59375 51.859375 
L 14.59375 45.125 
Q 17.4375 49.078125 21 51.046875 
Q 24.5625 53.03125 29.640625 53.03125 
Q 36.28125 53.03125 41.359375 49.609375 
Q 46.4375 46.1875 49.015625 39.953125 
Q 51.609375 33.734375 51.609375 26.3125 
Q 51.609375 18.359375 48.75 11.984375 
Q 45.90625 5.609375 40.453125 2.21875 
Q 35.015625 -1.171875 29 -1.171875 
Q 24.609375 -1.171875 21.109375 0.6875 
Q 17.625 2.546875 15.375 5.375 
L 15.375 -19.875 
z
M 14.546875 25.640625 
Q 14.546875 15.625 18.59375 10.84375 
Q 22.65625 6.0625 28.421875 6.0625 
Q 34.28125 6.0625 38.453125 11.015625 
Q 42.625 15.96875 42.625 26.375 
Q 42.625 36.28125 38.546875 41.203125 
Q 34.46875 46.140625 28.8125 46.140625 
Q 23.1875 46.140625 18.859375 40.890625 
Q 14.546875 35.640625 14.546875 25.640625 
z
" id="ArialMT-112"/>
      <path d="M 6.640625 61.46875 
L 6.640625 71.578125 
L 15.4375 71.578125 
L 15.4375 61.46875 
z
M 6.640625 0 
L 6.640625 51.859375 
L 15.4375 51.859375 
L 15.4375 0 
z
" id="ArialMT-105"/>
      <path d="M 25.78125 7.859375 
L 27.046875 0.09375 
Q 23.34375 -0.6875 20.40625 -0.6875 
Q 15.625 -0.6875 12.984375 0.828125 
Q 10.359375 2.34375 9.28125 4.8125 
Q 8.203125 7.28125 8.203125 15.1875 
L 8.203125 45.015625 
L 1.765625 45.015625 
L 1.765625 51.859375 
L 8.203125 51.859375 
L 8.203125 64.703125 
L 16.9375 69.96875 
L 16.9375 51.859375 
L 25.78125 51.859375 
L 25.78125 45.015625 
L 16.9375 45.015625 
L 16.9375 14.703125 
Q 16.9375 10.9375 17.40625 9.859375 
Q 17.875 8.796875 18.921875 8.15625 
Q 19.96875 7.515625 21.921875 7.515625 
Q 23.390625 7.515625 25.78125 7.859375 
z
" id="ArialMT-116"/>
      <path d="M 6.390625 0 
L 6.390625 71.578125 
L 15.1875 71.578125 
L 15.1875 0 
z
" id="ArialMT-108"/>
      <path id="ArialMT-32"/>
      <path d="M 3.078125 15.484375 
L 11.765625 16.84375 
Q 12.5 11.625 15.84375 8.84375 
Q 19.1875 6.0625 25.203125 6.0625 
Q 31.25 6.0625 34.171875 8.515625 
Q 37.109375 10.984375 37.109375 14.3125 
Q 37.109375 17.28125 34.515625 19 
Q 32.71875 20.171875 25.53125 21.96875 
Q 15.875 24.421875 12.140625 26.203125 
Q 8.40625 27.984375 6.46875 31.125 
Q 4.546875 34.28125 4.546875 38.09375 
Q 4.546875 41.546875 6.125 44.5 
Q 7.71875 47.46875 10.453125 49.421875 
Q 12.5 50.921875 16.03125 51.96875 
Q 19.578125 53.03125 23.640625 53.03125 
Q 29.734375 53.03125 34.34375 51.265625 
Q 38.96875 49.515625 41.15625 46.5 
Q 43.359375 43.5 44.1875 38.484375 
L 35.59375 37.3125 
Q 35.015625 41.3125 32.203125 43.546875 
Q 29.390625 45.796875 24.265625 45.796875 
Q 18.21875 45.796875 15.625 43.796875 
Q 13.03125 41.796875 13.03125 39.109375 
Q 13.03125 37.40625 14.109375 36.03125 
Q 15.1875 34.625 17.484375 33.6875 
Q 18.796875 33.203125 25.25 31.453125 
Q 34.578125 28.953125 38.25 27.359375 
Q 41.9375 25.78125 44.03125 22.75 
Q 46.140625 19.734375 46.140625 15.234375 
Q 46.140625 10.84375 43.578125 6.953125 
Q 41.015625 3.078125 36.171875 0.953125 
Q 31.34375 -1.171875 25.25 -1.171875 
Q 15.140625 -1.171875 9.84375 3.03125 
Q 4.546875 7.234375 3.078125 15.484375 
z
" id="ArialMT-115"/>
      <path d="M 3.328125 25.921875 
Q 3.328125 40.328125 11.328125 47.265625 
Q 18.015625 53.03125 27.640625 53.03125 
Q 38.328125 53.03125 45.109375 46.015625 
Q 51.90625 39.015625 51.90625 26.65625 
Q 51.90625 16.65625 48.90625 10.90625 
Q 45.90625 5.171875 40.15625 2 
Q 34.421875 -1.171875 27.640625 -1.171875 
Q 16.75 -1.171875 10.03125 5.8125 
Q 3.328125 12.796875 3.328125 25.921875 
z
M 12.359375 25.921875 
Q 12.359375 15.96875 16.703125 11.015625 
Q 21.046875 6.0625 27.640625 6.0625 
Q 34.1875 6.0625 38.53125 11.03125 
Q 42.875 16.015625 42.875 26.21875 
Q 42.875 35.84375 38.5 40.796875 
Q 34.125 45.75 27.640625 45.75 
Q 21.046875 45.75 16.703125 40.8125 
Q 12.359375 35.890625 12.359375 25.921875 
z
" id="ArialMT-111"/>
      <path d="M 40.4375 19 
L 49.078125 17.875 
Q 47.65625 8.9375 41.8125 3.875 
Q 35.984375 -1.171875 27.484375 -1.171875 
Q 16.84375 -1.171875 10.375 5.78125 
Q 3.90625 12.75 3.90625 25.734375 
Q 3.90625 34.125 6.6875 40.421875 
Q 9.46875 46.734375 15.15625 49.875 
Q 20.84375 53.03125 27.546875 53.03125 
Q 35.984375 53.03125 41.359375 48.75 
Q 46.734375 44.484375 48.25 36.625 
L 39.703125 35.296875 
Q 38.484375 40.53125 35.375 43.15625 
Q 32.28125 45.796875 27.875 45.796875 
Q 21.234375 45.796875 17.078125 41.03125 
Q 12.9375 36.28125 12.9375 25.984375 
Q 12.9375 15.53125 16.9375 10.796875 
Q 20.953125 6.0625 27.390625 6.0625 
Q 32.5625 6.0625 36.03125 9.234375 
Q 39.5 12.40625 40.4375 19 
z
" id="ArialMT-99"/>
      <path d="M 6.640625 0 
L 6.640625 71.578125 
L 15.4375 71.578125 
L 15.4375 30.765625 
L 36.234375 51.859375 
L 47.609375 51.859375 
L 27.78125 32.625 
L 49.609375 0 
L 38.765625 0 
L 21.625 26.515625 
L 15.4375 20.5625 
L 15.4375 0 
z
" id="ArialMT-107"/>
      <path d="M 42.09375 16.703125 
L 51.171875 15.578125 
Q 49.03125 7.625 43.21875 3.21875 
Q 37.40625 -1.171875 28.375 -1.171875 
Q 17 -1.171875 10.328125 5.828125 
Q 3.65625 12.84375 3.65625 25.484375 
Q 3.65625 38.578125 10.390625 45.796875 
Q 17.140625 53.03125 27.875 53.03125 
Q 38.28125 53.03125 44.875 45.953125 
Q 51.46875 38.875 51.46875 26.03125 
Q 51.46875 25.25 51.421875 23.6875 
L 12.75 23.6875 
Q 13.234375 15.140625 17.578125 10.59375 
Q 21.921875 6.0625 28.421875 6.0625 
Q 33.25 6.0625 36.671875 8.59375 
Q 40.09375 11.140625 42.09375 16.703125 
z
M 13.234375 30.90625 
L 42.1875 30.90625 
Q 41.609375 37.453125 38.875 40.71875 
Q 34.671875 45.796875 27.984375 45.796875 
Q 21.921875 45.796875 17.796875 41.75 
Q 13.671875 37.703125 13.234375 30.90625 
z
" id="ArialMT-101"/>
      <path d="M 6.5 0 
L 6.5 51.859375 
L 14.40625 51.859375 
L 14.40625 44 
Q 17.4375 49.515625 20 51.265625 
Q 22.5625 53.03125 25.640625 53.03125 
Q 30.078125 53.03125 34.671875 50.203125 
L 31.640625 42.046875 
Q 28.421875 43.953125 25.203125 43.953125 
Q 22.3125 43.953125 20.015625 42.21875 
Q 17.71875 40.484375 16.75 37.40625 
Q 15.28125 32.71875 15.28125 27.15625 
L 15.28125 0 
z
" id="ArialMT-114"/>
      <path d="M 8.890625 0 
L 8.890625 10.015625 
L 18.890625 10.015625 
L 18.890625 0 
Q 18.890625 -5.515625 16.9375 -8.90625 
Q 14.984375 -12.3125 10.75 -14.15625 
L 8.296875 -10.40625 
Q 11.078125 -9.1875 12.390625 -6.8125 
Q 13.71875 -4.4375 13.875 0 
z
" id="ArialMT-44"/>
      <path d="M 6.59375 0 
L 6.59375 71.578125 
L 15.375 71.578125 
L 15.375 45.90625 
Q 21.53125 53.03125 30.90625 53.03125 
Q 36.671875 53.03125 40.921875 50.75 
Q 45.171875 48.484375 47 44.484375 
Q 48.828125 40.484375 48.828125 32.859375 
L 48.828125 0 
L 40.046875 0 
L 40.046875 32.859375 
Q 40.046875 39.453125 37.1875 42.453125 
Q 34.328125 45.453125 29.109375 45.453125 
Q 25.203125 45.453125 21.75 43.421875 
Q 18.3125 41.40625 16.84375 37.9375 
Q 15.375 34.46875 15.375 28.375 
L 15.375 0 
z
" id="ArialMT-104"/>
      <path d="M 40.578125 0 
L 40.578125 7.625 
Q 34.515625 -1.171875 24.125 -1.171875 
Q 19.53125 -1.171875 15.546875 0.578125 
Q 11.578125 2.34375 9.640625 5 
Q 7.71875 7.671875 6.9375 11.53125 
Q 6.390625 14.109375 6.390625 19.734375 
L 6.390625 51.859375 
L 15.1875 51.859375 
L 15.1875 23.09375 
Q 15.1875 16.21875 15.71875 13.8125 
Q 16.546875 10.359375 19.234375 8.375 
Q 21.921875 6.390625 25.875 6.390625 
Q 29.828125 6.390625 33.296875 8.421875 
Q 36.765625 10.453125 38.203125 13.9375 
Q 39.65625 17.4375 39.65625 24.078125 
L 39.65625 51.859375 
L 48.4375 51.859375 
L 48.4375 0 
z
" id="ArialMT-117"/>
      <path d="M 6.59375 0 
L 6.59375 51.859375 
L 14.5 51.859375 
L 14.5 44.484375 
Q 20.21875 53.03125 31 53.03125 
Q 35.6875 53.03125 39.625 51.34375 
Q 43.5625 49.65625 45.515625 46.921875 
Q 47.46875 44.1875 48.25 40.4375 
Q 48.734375 37.984375 48.734375 31.890625 
L 48.734375 0 
L 39.9375 0 
L 39.9375 31.546875 
Q 39.9375 36.921875 38.90625 39.578125 
Q 37.890625 42.234375 35.28125 43.8125 
Q 32.671875 45.40625 29.15625 45.40625 
Q 23.53125 45.40625 19.453125 41.84375 
Q 15.375 38.28125 15.375 28.328125 
L 15.375 0 
z
" id="ArialMT-110"/>
      <path d="M 40.234375 0 
L 40.234375 6.546875 
Q 35.296875 -1.171875 25.734375 -1.171875 
Q 19.53125 -1.171875 14.328125 2.25 
Q 9.125 5.671875 6.265625 11.796875 
Q 3.421875 17.921875 3.421875 25.875 
Q 3.421875 33.640625 6 39.96875 
Q 8.59375 46.296875 13.765625 49.65625 
Q 18.953125 53.03125 25.34375 53.03125 
Q 30.03125 53.03125 33.6875 51.046875 
Q 37.359375 49.078125 39.65625 45.90625 
L 39.65625 71.578125 
L 48.390625 71.578125 
L 48.390625 0 
z
M 12.453125 25.875 
Q 12.453125 15.921875 16.640625 10.984375 
Q 20.84375 6.0625 26.5625 6.0625 
Q 32.328125 6.0625 36.34375 10.765625 
Q 40.375 15.484375 40.375 25.140625 
Q 40.375 35.796875 36.265625 40.765625 
Q 32.171875 45.75 26.171875 45.75 
Q 20.3125 45.75 16.375 40.96875 
Q 12.453125 36.1875 12.453125 25.875 
z
" id="ArialMT-100"/>
      <path d="M 54.6875 71.578125 
L 64.15625 71.578125 
L 64.15625 30.21875 
Q 64.15625 19.4375 61.71875 13.078125 
Q 59.28125 6.734375 52.90625 2.75 
Q 46.53125 -1.21875 36.1875 -1.21875 
Q 26.125 -1.21875 19.71875 2.25 
Q 13.328125 5.71875 10.59375 12.28125 
Q 7.859375 18.84375 7.859375 30.21875 
L 7.859375 71.578125 
L 17.328125 71.578125 
L 17.328125 30.28125 
Q 17.328125 20.953125 19.0625 16.53125 
Q 20.796875 12.109375 25.015625 9.71875 
Q 29.25 7.328125 35.359375 7.328125 
Q 45.796875 7.328125 50.234375 12.0625 
Q 54.6875 16.796875 54.6875 30.28125 
z
" id="ArialMT-85"/>
      <path d="M 4.5 23 
L 13.421875 23.78125 
Q 14.0625 18.40625 16.375 14.96875 
Q 18.703125 11.53125 23.578125 9.40625 
Q 28.46875 7.28125 34.578125 7.28125 
Q 39.984375 7.28125 44.140625 8.890625 
Q 48.296875 10.5 50.3125 13.296875 
Q 52.34375 16.109375 52.34375 19.4375 
Q 52.34375 22.796875 50.390625 25.3125 
Q 48.4375 27.828125 43.953125 29.546875 
Q 41.0625 30.671875 31.203125 33.03125 
Q 21.34375 35.40625 17.390625 37.5 
Q 12.25 40.1875 9.734375 44.15625 
Q 7.234375 48.140625 7.234375 53.078125 
Q 7.234375 58.5 10.296875 63.203125 
Q 13.375 67.921875 19.28125 70.359375 
Q 25.203125 72.796875 32.421875 72.796875 
Q 40.375 72.796875 46.453125 70.234375 
Q 52.546875 67.671875 55.8125 62.6875 
Q 59.078125 57.71875 59.328125 51.421875 
L 50.25 50.734375 
Q 49.515625 57.515625 45.28125 60.984375 
Q 41.0625 64.453125 32.8125 64.453125 
Q 24.21875 64.453125 20.28125 61.296875 
Q 16.359375 58.15625 16.359375 53.71875 
Q 16.359375 49.859375 19.140625 47.359375 
Q 21.875 44.875 33.421875 42.265625 
Q 44.96875 39.65625 49.265625 37.703125 
Q 55.515625 34.8125 58.484375 30.390625 
Q 61.46875 25.984375 61.46875 20.21875 
Q 61.46875 14.5 58.203125 9.4375 
Q 54.9375 4.390625 48.796875 1.578125 
Q 42.671875 -1.21875 35.015625 -1.21875 
Q 25.296875 -1.21875 18.71875 1.609375 
Q 12.15625 4.4375 8.421875 10.125 
Q 4.6875 15.828125 4.5 23 
z
" id="ArialMT-83"/>
      <path d="M 24.90625 -10.296875 
L 24.90625 -1.515625 
Q 18.3125 -0.6875 14.1875 1.4375 
Q 10.0625 3.5625 7.046875 8.296875 
Q 4.046875 13.03125 3.5625 19.875 
L 12.40625 21.53125 
Q 13.421875 14.453125 16.015625 11.140625 
Q 19.734375 6.453125 24.90625 5.90625 
L 24.90625 33.890625 
Q 19.484375 34.90625 13.8125 38.09375 
Q 9.625 40.4375 7.34375 44.578125 
Q 5.078125 48.734375 5.078125 54 
Q 5.078125 63.375 11.71875 69.1875 
Q 16.15625 73.09375 24.90625 73.96875 
L 24.90625 78.171875 
L 30.078125 78.171875 
L 30.078125 73.96875 
Q 37.75 73.25 42.234375 69.484375 
Q 48 64.703125 49.171875 56.34375 
L 40.09375 54.984375 
Q 39.3125 60.15625 36.84375 62.90625 
Q 34.375 65.671875 30.078125 66.546875 
L 30.078125 41.21875 
Q 36.71875 39.546875 38.875 38.625 
Q 42.96875 36.8125 45.546875 34.21875 
Q 48.140625 31.640625 49.53125 28.078125 
Q 50.921875 24.515625 50.921875 20.359375 
Q 50.921875 11.234375 45.109375 5.125 
Q 39.3125 -0.984375 30.078125 -1.421875 
L 30.078125 -10.296875 
z
M 24.90625 66.65625 
Q 19.78125 65.875 16.828125 62.546875 
Q 13.875 59.234375 13.875 54.6875 
Q 13.875 50.203125 16.375 47.171875 
Q 18.890625 44.140625 24.90625 42.328125 
z
M 30.078125 5.90625 
Q 35.203125 6.546875 38.546875 10.34375 
Q 41.890625 14.15625 41.890625 19.78125 
Q 41.890625 24.5625 39.515625 27.46875 
Q 37.15625 30.375 30.078125 32.671875 
z
" id="ArialMT-36"/>
     </defs>
     <g transform="translate(133.419813 391.599791)scale(0.168 -0.168)">
      <use xlink:href="#ArialMT-67"/>
      <use x="72.216797" xlink:href="#ArialMT-97"/>
      <use x="127.832031" xlink:href="#ArialMT-112"/>
      <use x="183.447266" xlink:href="#ArialMT-105"/>
      <use x="205.664062" xlink:href="#ArialMT-116"/>
      <use x="233.447266" xlink:href="#ArialMT-97"/>
      <use x="289.0625" xlink:href="#ArialMT-108"/>
      <use x="311.279297" xlink:href="#ArialMT-32"/>
      <use x="339.0625" xlink:href="#ArialMT-115"/>
      <use x="389.0625" xlink:href="#ArialMT-116"/>
      <use x="416.845703" xlink:href="#ArialMT-111"/>
      <use x="472.460938" xlink:href="#ArialMT-99"/>
      <use x="522.460938" xlink:href="#ArialMT-107"/>
      <use x="572.460938" xlink:href="#ArialMT-32"/>
      <use x="600.244141" xlink:href="#ArialMT-112"/>
      <use x="655.859375" xlink:href="#ArialMT-101"/>
      <use x="711.474609" xlink:href="#ArialMT-114"/>
      <use x="744.775391" xlink:href="#ArialMT-32"/>
      <use x="772.558594" xlink:href="#ArialMT-99"/>
      <use x="822.558594" xlink:href="#ArialMT-97"/>
      <use x="878.173828" xlink:href="#ArialMT-112"/>
      <use x="933.789062" xlink:href="#ArialMT-105"/>
      <use x="956.005859" xlink:href="#ArialMT-116"/>
      <use x="983.789062" xlink:href="#ArialMT-97"/>
      <use x="1039.404297" xlink:href="#ArialMT-44"/>
      <use x="1067.1875" xlink:href="#ArialMT-32"/>
      <use x="1094.970703" xlink:href="#ArialMT-116"/>
      <use x="1122.753906" xlink:href="#ArialMT-104"/>
      <use x="1178.369141" xlink:href="#ArialMT-111"/>
      <use x="1233.984375" xlink:href="#ArialMT-117"/>
      <use x="1289.599609" xlink:href="#ArialMT-115"/>
      <use x="1339.599609" xlink:href="#ArialMT-97"/>
      <use x="1395.214844" xlink:href="#ArialMT-110"/>
      <use x="1450.830078" xlink:href="#ArialMT-100"/>
      <use x="1506.445312" xlink:href="#ArialMT-32"/>
      <use x="1534.228516" xlink:href="#ArialMT-50"/>
      <use x="1589.84375" xlink:href="#ArialMT-48"/>
      <use x="1645.458984" xlink:href="#ArialMT-49"/>
      <use x="1700.964844" xlink:href="#ArialMT-49"/>
      <use x="1756.580078" xlink:href="#ArialMT-85"/>
      <use x="1828.796875" xlink:href="#ArialMT-83"/>
      <use x="1895.496094" xlink:href="#ArialMT-36"/>
     </g>
    </g>
   </g>
   <g id="matplotlib.axis_2">
    <g id="ytick_1">
     <g id="line2d_11">
      <path clip-path="url(#p1bf9e5ad6d)" d="M 46.7425 343.587088 
L 547.8625 343.587088 
" style="fill:none;stroke:#000000;stroke-dasharray:6.4,1.6,1,1.6;stroke-dashoffset:0;stroke-opacity:0.2;"/>
     </g>
     <g id="line2d_12"/>
     <g id="text_7">
      <!-- 0 -->
      <g transform="translate(35.457188 348.597557)scale(0.14 -0.14)">
       <use xlink:href="#ArialMT-48"/>
      </g>
     </g>
    </g>
    <g id="ytick_2">
     <g id="line2d_13">
      <path clip-path="url(#p1bf9e5ad6d)" d="M 46.7425 277.311764 
L 547.8625 277.311764 
" style="fill:none;stroke:#000000;stroke-dasharray:6.4,1.6,1,1.6;stroke-dashoffset:0;stroke-opacity:0.2;"/>
     </g>
     <g id="line2d_14"/>
     <g id="text_8">
      <!-- 10 -->
      <g transform="translate(27.671875 282.322233)scale(0.14 -0.14)">
       <use xlink:href="#ArialMT-49"/>
       <use x="55.615234" xlink:href="#ArialMT-48"/>
      </g>
     </g>
    </g>
    <g id="ytick_3">
     <g id="line2d_15">
      <path clip-path="url(#p1bf9e5ad6d)" d="M 46.7425 211.03644 
L 547.8625 211.03644 
" style="fill:none;stroke:#000000;stroke-dasharray:6.4,1.6,1,1.6;stroke-dashoffset:0;stroke-opacity:0.2;"/>
     </g>
     <g id="line2d_16"/>
     <g id="text_9">
      <!-- 20 -->
      <g transform="translate(27.671875 216.046909)scale(0.14 -0.14)">
       <use xlink:href="#ArialMT-50"/>
       <use x="55.615234" xlink:href="#ArialMT-48"/>
      </g>
     </g>
    </g>
    <g id="ytick_4">
     <g id="line2d_17">
      <path clip-path="url(#p1bf9e5ad6d)" d="M 46.7425 144.761117 
L 547.8625 144.761117 
" style="fill:none;stroke:#000000;stroke-dasharray:6.4,1.6,1,1.6;stroke-dashoffset:0;stroke-opacity:0.2;"/>
     </g>
     <g id="line2d_18"/>
     <g id="text_10">
      <!-- 30 -->
      <defs>
       <path d="M 4.203125 18.890625 
L 12.984375 20.0625 
Q 14.5 12.59375 18.140625 9.296875 
Q 21.78125 6 27 6 
Q 33.203125 6 37.46875 10.296875 
Q 41.75 14.59375 41.75 20.953125 
Q 41.75 27 37.796875 30.921875 
Q 33.84375 34.859375 27.734375 34.859375 
Q 25.25 34.859375 21.53125 33.890625 
L 22.515625 41.609375 
Q 23.390625 41.5 23.921875 41.5 
Q 29.546875 41.5 34.03125 44.421875 
Q 38.53125 47.359375 38.53125 53.46875 
Q 38.53125 58.296875 35.25 61.46875 
Q 31.984375 64.65625 26.8125 64.65625 
Q 21.6875 64.65625 18.265625 61.421875 
Q 14.84375 58.203125 13.875 51.765625 
L 5.078125 53.328125 
Q 6.6875 62.15625 12.390625 67.015625 
Q 18.109375 71.875 26.609375 71.875 
Q 32.46875 71.875 37.390625 69.359375 
Q 42.328125 66.84375 44.9375 62.5 
Q 47.5625 58.15625 47.5625 53.265625 
Q 47.5625 48.640625 45.0625 44.828125 
Q 42.578125 41.015625 37.703125 38.765625 
Q 44.046875 37.3125 47.5625 32.6875 
Q 51.078125 28.078125 51.078125 21.140625 
Q 51.078125 11.765625 44.234375 5.25 
Q 37.40625 -1.265625 26.953125 -1.265625 
Q 17.53125 -1.265625 11.296875 4.34375 
Q 5.078125 9.96875 4.203125 18.890625 
z
" id="ArialMT-51"/>
      </defs>
      <g transform="translate(27.671875 149.771585)scale(0.14 -0.14)">
       <use xlink:href="#ArialMT-51"/>
       <use x="55.615234" xlink:href="#ArialMT-48"/>
      </g>
     </g>
    </g>
    <g id="ytick_5">
     <g id="line2d_19">
      <path clip-path="url(#p1bf9e5ad6d)" d="M 46.7425 78.485793 
L 547.8625 78.485793 
" style="fill:none;stroke:#000000;stroke-dasharray:6.4,1.6,1,1.6;stroke-dashoffset:0;stroke-opacity:0.2;"/>
     </g>
     <g id="line2d_20"/>
     <g id="text_11">
      <!-- 40 -->
      <defs>
       <path d="M 32.328125 0 
L 32.328125 17.140625 
L 1.265625 17.140625 
L 1.265625 25.203125 
L 33.9375 71.578125 
L 41.109375 71.578125 
L 41.109375 25.203125 
L 50.78125 25.203125 
L 50.78125 17.140625 
L 41.109375 17.140625 
L 41.109375 0 
z
M 32.328125 25.203125 
L 32.328125 57.46875 
L 9.90625 25.203125 
z
" id="ArialMT-52"/>
      </defs>
      <g transform="translate(27.671875 83.496261)scale(0.14 -0.14)">
       <use xlink:href="#ArialMT-52"/>
       <use x="55.615234" xlink:href="#ArialMT-48"/>
      </g>
     </g>
    </g>
    <g id="ytick_6">
     <g id="line2d_21">
      <path clip-path="url(#p1bf9e5ad6d)" d="M 46.7425 12.210469 
L 547.8625 12.210469 
" style="fill:none;stroke:#000000;stroke-dasharray:6.4,1.6,1,1.6;stroke-dashoffset:0;stroke-opacity:0.2;"/>
     </g>
     <g id="line2d_22"/>
     <g id="text_12">
      <!-- 50 -->
      <g transform="translate(27.671875 17.220937)scale(0.14 -0.14)">
       <use xlink:href="#ArialMT-53"/>
       <use x="55.615234" xlink:href="#ArialMT-48"/>
      </g>
     </g>
    </g>
    <g id="text_13">
     <!-- GDP per capita, thousand 2011US$ -->
     <defs>
      <path d="M 41.21875 28.078125 
L 41.21875 36.46875 
L 71.53125 36.53125 
L 71.53125 9.96875 
Q 64.546875 4.390625 57.125 1.578125 
Q 49.703125 -1.21875 41.890625 -1.21875 
Q 31.34375 -1.21875 22.71875 3.296875 
Q 14.109375 7.8125 9.71875 16.359375 
Q 5.328125 24.90625 5.328125 35.453125 
Q 5.328125 45.90625 9.6875 54.953125 
Q 14.0625 64.015625 22.265625 68.40625 
Q 30.46875 72.796875 41.15625 72.796875 
Q 48.921875 72.796875 55.1875 70.28125 
Q 61.46875 67.78125 65.03125 63.28125 
Q 68.609375 58.796875 70.453125 51.5625 
L 61.921875 49.21875 
Q 60.296875 54.6875 57.90625 57.8125 
Q 55.515625 60.9375 51.0625 62.8125 
Q 46.625 64.703125 41.21875 64.703125 
Q 34.71875 64.703125 29.984375 62.71875 
Q 25.25 60.75 22.34375 57.515625 
Q 19.4375 54.296875 17.828125 50.4375 
Q 15.09375 43.796875 15.09375 36.03125 
Q 15.09375 26.46875 18.390625 20.015625 
Q 21.6875 13.578125 27.984375 10.453125 
Q 34.28125 7.328125 41.359375 7.328125 
Q 47.515625 7.328125 53.375 9.6875 
Q 59.234375 12.0625 62.25 14.75 
L 62.25 28.078125 
z
" id="ArialMT-71"/>
      <path d="M 7.71875 0 
L 7.71875 71.578125 
L 32.375 71.578125 
Q 40.71875 71.578125 45.125 70.5625 
Q 51.265625 69.140625 55.609375 65.4375 
Q 61.28125 60.640625 64.078125 53.1875 
Q 66.890625 45.75 66.890625 36.1875 
Q 66.890625 28.03125 64.984375 21.734375 
Q 63.09375 15.4375 60.109375 11.296875 
Q 57.125 7.171875 53.578125 4.796875 
Q 50.046875 2.4375 45.046875 1.21875 
Q 40.046875 0 33.546875 0 
z
M 17.1875 8.453125 
L 32.46875 8.453125 
Q 39.546875 8.453125 43.578125 9.765625 
Q 47.609375 11.078125 50 13.484375 
Q 53.375 16.84375 55.25 22.53125 
Q 57.125 28.21875 57.125 36.328125 
Q 57.125 47.5625 53.4375 53.59375 
Q 49.75 59.625 44.484375 61.671875 
Q 40.671875 63.140625 32.234375 63.140625 
L 17.1875 63.140625 
z
" id="ArialMT-68"/>
      <path d="M 7.71875 0 
L 7.71875 71.578125 
L 34.71875 71.578125 
Q 41.84375 71.578125 45.609375 70.90625 
Q 50.875 70.015625 54.4375 67.546875 
Q 58.015625 65.09375 60.1875 60.640625 
Q 62.359375 56.203125 62.359375 50.875 
Q 62.359375 41.75 56.546875 35.421875 
Q 50.734375 29.109375 35.546875 29.109375 
L 17.1875 29.109375 
L 17.1875 0 
z
M 17.1875 37.546875 
L 35.6875 37.546875 
Q 44.875 37.546875 48.734375 40.96875 
Q 52.59375 44.390625 52.59375 50.59375 
Q 52.59375 55.078125 50.3125 58.265625 
Q 48.046875 61.46875 44.34375 62.5 
Q 41.9375 63.140625 35.5 63.140625 
L 17.1875 63.140625 
z
" id="ArialMT-80"/>
     </defs>
     <g transform="translate(20.332875 317.203166)rotate(-90)scale(0.168 -0.168)">
      <use xlink:href="#ArialMT-71"/>
      <use x="77.783203" xlink:href="#ArialMT-68"/>
      <use x="150" xlink:href="#ArialMT-80"/>
      <use x="216.683594" xlink:href="#ArialMT-32"/>
      <use x="244.466797" xlink:href="#ArialMT-112"/>
      <use x="300.082031" xlink:href="#ArialMT-101"/>
      <use x="355.697266" xlink:href="#ArialMT-114"/>
      <use x="388.998047" xlink:href="#ArialMT-32"/>
      <use x="416.78125" xlink:href="#ArialMT-99"/>
      <use x="466.78125" xlink:href="#ArialMT-97"/>
      <use x="522.396484" xlink:href="#ArialMT-112"/>
      <use x="578.011719" xlink:href="#ArialMT-105"/>
      <use x="600.228516" xlink:href="#ArialMT-116"/>
      <use x="628.011719" xlink:href="#ArialMT-97"/>
      <use x="683.626953" xlink:href="#ArialMT-44"/>
      <use x="711.410156" xlink:href="#ArialMT-32"/>
      <use x="739.193359" xlink:href="#ArialMT-116"/>
      <use x="766.976562" xlink:href="#ArialMT-104"/>
      <use x="822.591797" xlink:href="#ArialMT-111"/>
      <use x="878.207031" xlink:href="#ArialMT-117"/>
      <use x="933.822266" xlink:href="#ArialMT-115"/>
      <use x="983.822266" xlink:href="#ArialMT-97"/>
      <use x="1039.4375" xlink:href="#ArialMT-110"/>
      <use x="1095.052734" xlink:href="#ArialMT-100"/>
      <use x="1150.667969" xlink:href="#ArialMT-32"/>
      <use x="1178.451172" xlink:href="#ArialMT-50"/>
      <use x="1234.066406" xlink:href="#ArialMT-48"/>
      <use x="1289.681641" xlink:href="#ArialMT-49"/>
      <use x="1345.1875" xlink:href="#ArialMT-49"/>
      <use x="1400.802734" xlink:href="#ArialMT-85"/>
      <use x="1473.019531" xlink:href="#ArialMT-83"/>
      <use x="1539.71875" xlink:href="#ArialMT-36"/>
     </g>
    </g>
   </g>
   <g id="PathCollection_1">
    <defs>
     <path d="M 0 3 
C 0.795609 3 1.55874 2.683901 2.12132 2.12132 
C 2.683901 1.55874 3 0.795609 3 0 
C 3 -0.795609 2.683901 -1.55874 2.12132 -2.12132 
C 1.55874 -2.683901 0.795609 -3 0 -3 
C -0.795609 -3 -1.55874 -2.683901 -2.12132 -2.12132 
C -2.683901 -1.55874 -3 -0.795609 -3 0 
C -3 0.795609 -2.683901 1.55874 -2.12132 2.12132 
C -1.55874 2.683901 -0.795609 3 0 3 
z
" id="m60559e5f2c" style="stroke:#165aa7;stroke-width:0.5;"/>
    </defs>
    <g clip-path="url(#p1bf9e5ad6d)">
     <use style="fill:#165aa7;stroke:#165aa7;stroke-width:0.5;" x="87.462871" xlink:href="#m60559e5f2c" y="333.858639"/>
     <use style="fill:#165aa7;stroke:#165aa7;stroke-width:0.5;" x="87.071524" xlink:href="#m60559e5f2c" y="333.735078"/>
     <use style="fill:#165aa7;stroke:#165aa7;stroke-width:0.5;" x="86.667046" xlink:href="#m60559e5f2c" y="333.074406"/>
     <use style="fill:#165aa7;stroke:#165aa7;stroke-width:0.5;" x="86.092313" xlink:href="#m60559e5f2c" y="332.82872"/>
     <use style="fill:#165aa7;stroke:#165aa7;stroke-width:0.5;" x="85.742523" xlink:href="#m60559e5f2c" y="332.405853"/>
     <use style="fill:#165aa7;stroke:#165aa7;stroke-width:0.5;" x="85.270823" xlink:href="#m60559e5f2c" y="332.33538"/>
     <use style="fill:#165aa7;stroke:#165aa7;stroke-width:0.5;" x="84.60406" xlink:href="#m60559e5f2c" y="332.483439"/>
     <use style="fill:#165aa7;stroke:#165aa7;stroke-width:0.5;" x="83.965055" xlink:href="#m60559e5f2c" y="332.716456"/>
     <use style="fill:#165aa7;stroke:#165aa7;stroke-width:0.5;" x="83.484992" xlink:href="#m60559e5f2c" y="332.594221"/>
     <use style="fill:#165aa7;stroke:#165aa7;stroke-width:0.5;" x="83.033045" xlink:href="#m60559e5f2c" y="332.682148"/>
     <use style="fill:#165aa7;stroke:#165aa7;stroke-width:0.5;" x="83.219813" xlink:href="#m60559e5f2c" y="332.174144"/>
     <use style="fill:#165aa7;stroke:#165aa7;stroke-width:0.5;" x="83.087523" xlink:href="#m60559e5f2c" y="331.612224"/>
     <use style="fill:#165aa7;stroke:#165aa7;stroke-width:0.5;" x="83.0046" xlink:href="#m60559e5f2c" y="331.328431"/>
     <use style="fill:#165aa7;stroke:#165aa7;stroke-width:0.5;" x="83.540489" xlink:href="#m60559e5f2c" y="330.269028"/>
     <use style="fill:#165aa7;stroke:#165aa7;stroke-width:0.5;" x="84.15415" xlink:href="#m60559e5f2c" y="329.851481"/>
     <use style="fill:#165aa7;stroke:#165aa7;stroke-width:0.5;" x="85.173782" xlink:href="#m60559e5f2c" y="328.740727"/>
     <use style="fill:#165aa7;stroke:#165aa7;stroke-width:0.5;" x="86.113357" xlink:href="#m60559e5f2c" y="326.993541"/>
     <use style="fill:#165aa7;stroke:#165aa7;stroke-width:0.5;" x="86.903662" xlink:href="#m60559e5f2c" y="325.98649"/>
     <use style="fill:#165aa7;stroke:#165aa7;stroke-width:0.5;" x="87.733012" xlink:href="#m60559e5f2c" y="324.518382"/>
     <use style="fill:#165aa7;stroke:#165aa7;stroke-width:0.5;" x="88.513583" xlink:href="#m60559e5f2c" y="323.54284"/>
     <use style="fill:#165aa7;stroke:#165aa7;stroke-width:0.5;" x="89.750938" xlink:href="#m60559e5f2c" y="320.993244"/>
     <use style="fill:#165aa7;stroke:#165aa7;stroke-width:0.5;" x="91.234323" xlink:href="#m60559e5f2c" y="319.290056"/>
     <use style="fill:#165aa7;stroke:#165aa7;stroke-width:0.5;" x="92.864302" xlink:href="#m60559e5f2c" y="317.827906"/>
     <use style="fill:#165aa7;stroke:#165aa7;stroke-width:0.5;" x="95.193849" xlink:href="#m60559e5f2c" y="314.879311"/>
     <use style="fill:#165aa7;stroke:#165aa7;stroke-width:0.5;" x="98.515008" xlink:href="#m60559e5f2c" y="311.809509"/>
     <use style="fill:#165aa7;stroke:#165aa7;stroke-width:0.5;" x="103.202945" xlink:href="#m60559e5f2c" y="308.821464"/>
     <use style="fill:#165aa7;stroke:#165aa7;stroke-width:0.5;" x="107.920565" xlink:href="#m60559e5f2c" y="306.329708"/>
     <use style="fill:#165aa7;stroke:#165aa7;stroke-width:0.5;" x="111.301726" xlink:href="#m60559e5f2c" y="307.45746"/>
     <use style="fill:#165aa7;stroke:#165aa7;stroke-width:0.5;" x="114.171041" xlink:href="#m60559e5f2c" y="305.398219"/>
     <use style="fill:#165aa7;stroke:#165aa7;stroke-width:0.5;" x="117.412841" xlink:href="#m60559e5f2c" y="302.819068"/>
     <use style="fill:#165aa7;stroke:#165aa7;stroke-width:0.5;" x="121.379937" xlink:href="#m60559e5f2c" y="298.031701"/>
     <use style="fill:#165aa7;stroke:#165aa7;stroke-width:0.5;" x="125.852497" xlink:href="#m60559e5f2c" y="293.910291"/>
     <use style="fill:#165aa7;stroke:#165aa7;stroke-width:0.5;" x="130.447186" xlink:href="#m60559e5f2c" y="290.683361"/>
     <use style="fill:#165aa7;stroke:#165aa7;stroke-width:0.5;" x="135.85348" xlink:href="#m60559e5f2c" y="285.348384"/>
     <use style="fill:#165aa7;stroke:#165aa7;stroke-width:0.5;" x="142.522356" xlink:href="#m60559e5f2c" y="278.601967"/>
     <use style="fill:#165aa7;stroke:#165aa7;stroke-width:0.5;" x="150.098958" xlink:href="#m60559e5f2c" y="271.503581"/>
     <use style="fill:#165aa7;stroke:#165aa7;stroke-width:0.5;" x="158.896741" xlink:href="#m60559e5f2c" y="267.139999"/>
     <use style="fill:#165aa7;stroke:#165aa7;stroke-width:0.5;" x="170.291537" xlink:href="#m60559e5f2c" y="260.425045"/>
     <use style="fill:#165aa7;stroke:#165aa7;stroke-width:0.5;" x="183.052247" xlink:href="#m60559e5f2c" y="252.427644"/>
     <use style="fill:#165aa7;stroke:#165aa7;stroke-width:0.5;" x="195.049223" xlink:href="#m60559e5f2c" y="247.825867"/>
     <use style="fill:#165aa7;stroke:#165aa7;stroke-width:0.5;" x="207.522558" xlink:href="#m60559e5f2c" y="242.363713"/>
     <use style="fill:#165aa7;stroke:#165aa7;stroke-width:0.5;" x="221.756002" xlink:href="#m60559e5f2c" y="234.17864"/>
     <use style="fill:#165aa7;stroke:#165aa7;stroke-width:0.5;" x="237.599219" xlink:href="#m60559e5f2c" y="224.910473"/>
     <use style="fill:#165aa7;stroke:#165aa7;stroke-width:0.5;" x="254.097115" xlink:href="#m60559e5f2c" y="216.829227"/>
     <use style="fill:#165aa7;stroke:#165aa7;stroke-width:0.5;" x="268.920178" xlink:href="#m60559e5f2c" y="210.304043"/>
     <use style="fill:#165aa7;stroke:#165aa7;stroke-width:0.5;" x="277.069317" xlink:href="#m60559e5f2c" y="218.292439"/>
     <use style="fill:#165aa7;stroke:#165aa7;stroke-width:0.5;" x="286.554508" xlink:href="#m60559e5f2c" y="205.102068"/>
     <use style="fill:#165aa7;stroke:#165aa7;stroke-width:0.5;" x="298.322777" xlink:href="#m60559e5f2c" y="193.709033"/>
     <use style="fill:#165aa7;stroke:#165aa7;stroke-width:0.5;" x="309.523384" xlink:href="#m60559e5f2c" y="187.513486"/>
     <use style="fill:#165aa7;stroke:#165aa7;stroke-width:0.5;" x="321.710487" xlink:href="#m60559e5f2c" y="176.484018"/>
     <use style="fill:#165aa7;stroke:#165aa7;stroke-width:0.5;" x="334.466067" xlink:href="#m60559e5f2c" y="172.158201"/>
     <use style="fill:#165aa7;stroke:#165aa7;stroke-width:0.5;" x="347.252808" xlink:href="#m60559e5f2c" y="164.11317"/>
     <use style="fill:#165aa7;stroke:#165aa7;stroke-width:0.5;" x="359.707806" xlink:href="#m60559e5f2c" y="157.178595"/>
     <use style="fill:#165aa7;stroke:#165aa7;stroke-width:0.5;" x="372.513625" xlink:href="#m60559e5f2c" y="148.085517"/>
     <use style="fill:#165aa7;stroke:#165aa7;stroke-width:0.5;" x="385.912024" xlink:href="#m60559e5f2c" y="137.398431"/>
     <use style="fill:#165aa7;stroke:#165aa7;stroke-width:0.5;" x="398.119286" xlink:href="#m60559e5f2c" y="131.823612"/>
     <use style="fill:#165aa7;stroke:#165aa7;stroke-width:0.5;" x="409.454138" xlink:href="#m60559e5f2c" y="130.858676"/>
     <use style="fill:#165aa7;stroke:#165aa7;stroke-width:0.5;" x="421.365652" xlink:href="#m60559e5f2c" y="117.291649"/>
     <use style="fill:#165aa7;stroke:#165aa7;stroke-width:0.5;" x="432.279557" xlink:href="#m60559e5f2c" y="110.084713"/>
     <use style="fill:#165aa7;stroke:#165aa7;stroke-width:0.5;" x="441.844328" xlink:href="#m60559e5f2c" y="105.785795"/>
     <use style="fill:#165aa7;stroke:#165aa7;stroke-width:0.5;" x="451.239953" xlink:href="#m60559e5f2c" y="99.649206"/>
     <use style="fill:#165aa7;stroke:#165aa7;stroke-width:0.5;" x="460.872847" xlink:href="#m60559e5f2c" y="93.141486"/>
     <use style="fill:#165aa7;stroke:#165aa7;stroke-width:0.5;" x="471.653226" xlink:href="#m60559e5f2c" y="87.196382"/>
     <use style="fill:#165aa7;stroke:#165aa7;stroke-width:0.5;" x="484.14738" xlink:href="#m60559e5f2c" y="80.471062"/>
     <use style="fill:#165aa7;stroke:#165aa7;stroke-width:0.5;" x="499.447666" xlink:href="#m60559e5f2c" y="72.75763"/>
     <use style="fill:#165aa7;stroke:#165aa7;stroke-width:0.5;" x="513.12912" xlink:href="#m60559e5f2c" y="65.293563"/>
     <use style="fill:#165aa7;stroke:#165aa7;stroke-width:0.5;" x="525.071788" xlink:href="#m60559e5f2c" y="59.915335"/>
    </g>
   </g>
   <g id="PathCollection_2">
    <defs>
     <path d="M 0 3 
C 0.795609 3 1.55874 2.683901 2.12132 2.12132 
C 2.683901 1.55874 3 0.795609 3 0 
C 3 -0.795609 2.683901 -1.55874 2.12132 -2.12132 
C 1.55874 -2.683901 0.795609 -3 0 -3 
C -0.795609 -3 -1.55874 -2.683901 -2.12132 -2.12132 
C -2.683901 -1.55874 -3 -0.795609 -3 0 
C -3 0.795609 -2.683901 1.55874 -2.12132 2.12132 
C -1.55874 2.683901 -0.795609 3 0 3 
z
" id="mabdcdb28fc" style="stroke:#cb495c;stroke-width:0.5;"/>
    </defs>
    <g clip-path="url(#p1bf9e5ad6d)">
     <use style="fill:#cb495c;stroke:#cb495c;stroke-width:0.5;" x="72.591753" xlink:href="#mabdcdb28fc" y="339.05973"/>
     <use style="fill:#cb495c;stroke:#cb495c;stroke-width:0.5;" x="72.790629" xlink:href="#mabdcdb28fc" y="338.5528"/>
     <use style="fill:#cb495c;stroke:#cb495c;stroke-width:0.5;" x="72.454918" xlink:href="#mabdcdb28fc" y="339.002466"/>
     <use style="fill:#cb495c;stroke:#cb495c;stroke-width:0.5;" x="72.772485" xlink:href="#mabdcdb28fc" y="338.684431"/>
     <use style="fill:#cb495c;stroke:#cb495c;stroke-width:0.5;" x="72.732589" xlink:href="#mabdcdb28fc" y="338.371293"/>
     <use style="fill:#cb495c;stroke:#cb495c;stroke-width:0.5;" x="72.881494" xlink:href="#mabdcdb28fc" y="338.329664"/>
     <use style="fill:#cb495c;stroke:#cb495c;stroke-width:0.5;" x="72.431969" xlink:href="#mabdcdb28fc" y="338.408725"/>
     <use style="fill:#cb495c;stroke:#cb495c;stroke-width:0.5;" x="72.638767" xlink:href="#mabdcdb28fc" y="338.615892"/>
     <use style="fill:#cb495c;stroke:#cb495c;stroke-width:0.5;" x="73.031092" xlink:href="#mabdcdb28fc" y="338.848113"/>
     <use style="fill:#cb495c;stroke:#cb495c;stroke-width:0.5;" x="73.677853" xlink:href="#mabdcdb28fc" y="339.673468"/>
     <use style="fill:#cb495c;stroke:#cb495c;stroke-width:0.5;" x="74.173405" xlink:href="#mabdcdb28fc" y="339.464675"/>
     <use style="fill:#cb495c;stroke:#cb495c;stroke-width:0.5;" x="74.421486" xlink:href="#mabdcdb28fc" y="339.010643"/>
     <use style="fill:#cb495c;stroke:#cb495c;stroke-width:0.5;" x="74.204275" xlink:href="#mabdcdb28fc" y="338.529453"/>
     <use style="fill:#cb495c;stroke:#cb495c;stroke-width:0.5;" x="74.120085" xlink:href="#mabdcdb28fc" y="338.115274"/>
     <use style="fill:#cb495c;stroke:#cb495c;stroke-width:0.5;" x="74.015861" xlink:href="#mabdcdb28fc" y="338.075908"/>
     <use style="fill:#cb495c;stroke:#cb495c;stroke-width:0.5;" x="74.372304" xlink:href="#mabdcdb28fc" y="338.184476"/>
     <use style="fill:#cb495c;stroke:#cb495c;stroke-width:0.5;" x="74.55602" xlink:href="#mabdcdb28fc" y="338.45213"/>
     <use style="fill:#cb495c;stroke:#cb495c;stroke-width:0.5;" x="74.293248" xlink:href="#mabdcdb28fc" y="338.080858"/>
     <use style="fill:#cb495c;stroke:#cb495c;stroke-width:0.5;" x="74.413177" xlink:href="#mabdcdb28fc" y="337.492829"/>
     <use style="fill:#cb495c;stroke:#cb495c;stroke-width:0.5;" x="74.774158" xlink:href="#mabdcdb28fc" y="337.265823"/>
     <use style="fill:#cb495c;stroke:#cb495c;stroke-width:0.5;" x="74.979267" xlink:href="#mabdcdb28fc" y="337.326126"/>
     <use style="fill:#cb495c;stroke:#cb495c;stroke-width:0.5;" x="75.387074" xlink:href="#mabdcdb28fc" y="336.973319"/>
     <use style="fill:#cb495c;stroke:#cb495c;stroke-width:0.5;" x="75.869889" xlink:href="#mabdcdb28fc" y="336.949443"/>
     <use style="fill:#cb495c;stroke:#cb495c;stroke-width:0.5;" x="76.308193" xlink:href="#mabdcdb28fc" y="336.631582"/>
     <use style="fill:#cb495c;stroke:#cb495c;stroke-width:0.5;" x="76.658881" xlink:href="#mabdcdb28fc" y="336.974504"/>
     <use style="fill:#cb495c;stroke:#cb495c;stroke-width:0.5;" x="76.983047" xlink:href="#mabdcdb28fc" y="336.71346"/>
     <use style="fill:#cb495c;stroke:#cb495c;stroke-width:0.5;" x="77.62138" xlink:href="#mabdcdb28fc" y="336.020286"/>
     <use style="fill:#cb495c;stroke:#cb495c;stroke-width:0.5;" x="78.277254" xlink:href="#mabdcdb28fc" y="335.53244"/>
     <use style="fill:#cb495c;stroke:#cb495c;stroke-width:0.5;" x="78.720687" xlink:href="#mabdcdb28fc" y="335.236812"/>
     <use style="fill:#cb495c;stroke:#cb495c;stroke-width:0.5;" x="79.105783" xlink:href="#mabdcdb28fc" y="335.107787"/>
     <use style="fill:#cb495c;stroke:#cb495c;stroke-width:0.5;" x="79.826041" xlink:href="#mabdcdb28fc" y="334.453271"/>
     <use style="fill:#cb495c;stroke:#cb495c;stroke-width:0.5;" x="80.149026" xlink:href="#mabdcdb28fc" y="333.945152"/>
     <use style="fill:#cb495c;stroke:#cb495c;stroke-width:0.5;" x="80.529723" xlink:href="#mabdcdb28fc" y="333.024449"/>
     <use style="fill:#cb495c;stroke:#cb495c;stroke-width:0.5;" x="80.936728" xlink:href="#mabdcdb28fc" y="332.298017"/>
     <use style="fill:#cb495c;stroke:#cb495c;stroke-width:0.5;" x="81.602292" xlink:href="#mabdcdb28fc" y="331.769675"/>
     <use style="fill:#cb495c;stroke:#cb495c;stroke-width:0.5;" x="82.118185" xlink:href="#mabdcdb28fc" y="331.021196"/>
     <use style="fill:#cb495c;stroke:#cb495c;stroke-width:0.5;" x="82.385278" xlink:href="#mabdcdb28fc" y="330.579088"/>
     <use style="fill:#cb495c;stroke:#cb495c;stroke-width:0.5;" x="82.495923" xlink:href="#mabdcdb28fc" y="330.711356"/>
     <use style="fill:#cb495c;stroke:#cb495c;stroke-width:0.5;" x="82.436764" xlink:href="#mabdcdb28fc" y="330.898101"/>
     <use style="fill:#cb495c;stroke:#cb495c;stroke-width:0.5;" x="82.474192" xlink:href="#mabdcdb28fc" y="330.469492"/>
     <use style="fill:#cb495c;stroke:#cb495c;stroke-width:0.5;" x="82.721009" xlink:href="#mabdcdb28fc" y="329.553404"/>
     <use style="fill:#cb495c;stroke:#cb495c;stroke-width:0.5;" x="83.864626" xlink:href="#mabdcdb28fc" y="328.159201"/>
     <use style="fill:#cb495c;stroke:#cb495c;stroke-width:0.5;" x="84.893533" xlink:href="#mabdcdb28fc" y="326.954824"/>
     <use style="fill:#cb495c;stroke:#cb495c;stroke-width:0.5;" x="86.400323" xlink:href="#mabdcdb28fc" y="325.514202"/>
     <use style="fill:#cb495c;stroke:#cb495c;stroke-width:0.5;" x="87.876634" xlink:href="#mabdcdb28fc" y="324.255433"/>
     <use style="fill:#cb495c;stroke:#cb495c;stroke-width:0.5;" x="88.801277" xlink:href="#mabdcdb28fc" y="323.544265"/>
     <use style="fill:#cb495c;stroke:#cb495c;stroke-width:0.5;" x="89.684386" xlink:href="#mabdcdb28fc" y="323.253835"/>
     <use style="fill:#cb495c;stroke:#cb495c;stroke-width:0.5;" x="91.268995" xlink:href="#mabdcdb28fc" y="322.218957"/>
     <use style="fill:#cb495c;stroke:#cb495c;stroke-width:0.5;" x="93.045797" xlink:href="#mabdcdb28fc" y="320.794835"/>
     <use style="fill:#cb495c;stroke:#cb495c;stroke-width:0.5;" x="95.207121" xlink:href="#mabdcdb28fc" y="319.17192"/>
     <use style="fill:#cb495c;stroke:#cb495c;stroke-width:0.5;" x="97.865188" xlink:href="#mabdcdb28fc" y="317.053026"/>
     <use style="fill:#cb495c;stroke:#cb495c;stroke-width:0.5;" x="100.398756" xlink:href="#mabdcdb28fc" y="315.118058"/>
     <use style="fill:#cb495c;stroke:#cb495c;stroke-width:0.5;" x="103.777096" xlink:href="#mabdcdb28fc" y="312.479617"/>
     <use style="fill:#cb495c;stroke:#cb495c;stroke-width:0.5;" x="107.5491" xlink:href="#mabdcdb28fc" y="309.110447"/>
     <use style="fill:#cb495c;stroke:#cb495c;stroke-width:0.5;" x="111.426733" xlink:href="#mabdcdb28fc" y="305.142165"/>
     <use style="fill:#cb495c;stroke:#cb495c;stroke-width:0.5;" x="114.587213" xlink:href="#mabdcdb28fc" y="301.082817"/>
     <use style="fill:#cb495c;stroke:#cb495c;stroke-width:0.5;" x="118.303067" xlink:href="#mabdcdb28fc" y="298.128966"/>
     <use style="fill:#cb495c;stroke:#cb495c;stroke-width:0.5;" x="124.157984" xlink:href="#mabdcdb28fc" y="294.316749"/>
     <use style="fill:#cb495c;stroke:#cb495c;stroke-width:0.5;" x="132.2156" xlink:href="#mabdcdb28fc" y="288.224769"/>
     <use style="fill:#cb495c;stroke:#cb495c;stroke-width:0.5;" x="138.379241" xlink:href="#mabdcdb28fc" y="284.133967"/>
     <use style="fill:#cb495c;stroke:#cb495c;stroke-width:0.5;" x="144.215666" xlink:href="#mabdcdb28fc" y="281.162356"/>
     <use style="fill:#cb495c;stroke:#cb495c;stroke-width:0.5;" x="151.500934" xlink:href="#mabdcdb28fc" y="277.131507"/>
     <use style="fill:#cb495c;stroke:#cb495c;stroke-width:0.5;" x="158.432579" xlink:href="#mabdcdb28fc" y="273.306575"/>
     <use style="fill:#cb495c;stroke:#cb495c;stroke-width:0.5;" x="163.889888" xlink:href="#mabdcdb28fc" y="270.991692"/>
     <use style="fill:#cb495c;stroke:#cb495c;stroke-width:0.5;" x="169.217904" xlink:href="#mabdcdb28fc" y="268.53475"/>
     <use style="fill:#cb495c;stroke:#cb495c;stroke-width:0.5;" x="174.662751" xlink:href="#mabdcdb28fc" y="265.674135"/>
     <use style="fill:#cb495c;stroke:#cb495c;stroke-width:0.5;" x="179.920411" xlink:href="#mabdcdb28fc" y="262.89767"/>
     <use style="fill:#cb495c;stroke:#cb495c;stroke-width:0.5;" x="186.792702" xlink:href="#mabdcdb28fc" y="260.267954"/>
    </g>
   </g>
   <g id="PathCollection_3">
    <defs>
     <path d="M 0 3 
C 0.795609 3 1.55874 2.683901 2.12132 2.12132 
C 2.683901 1.55874 3 0.795609 3 0 
C 3 -0.795609 2.683901 -1.55874 2.12132 -2.12132 
C 1.55874 -2.683901 0.795609 -3 0 -3 
C -0.795609 -3 -1.55874 -2.683901 -2.12132 -2.12132 
C -2.683901 -1.55874 -3 -0.795609 -3 0 
C -3 0.795609 -2.683901 1.55874 -2.12132 2.12132 
C -1.55874 2.683901 -0.795609 3 0 3 
z
" id="m7df311fd9f" style="stroke:#bb60d5;stroke-width:0.5;"/>
    </defs>
    <g clip-path="url(#p1bf9e5ad6d)">
     <use style="fill:#bb60d5;stroke:#bb60d5;stroke-width:0.5;" x="78.084925" xlink:href="#m7df311fd9f" y="335.688413"/>
     <use style="fill:#bb60d5;stroke:#bb60d5;stroke-width:0.5;" x="78.050763" xlink:href="#m7df311fd9f" y="335.05769"/>
     <use style="fill:#bb60d5;stroke:#bb60d5;stroke-width:0.5;" x="78.19914" xlink:href="#m7df311fd9f" y="334.568552"/>
     <use style="fill:#bb60d5;stroke:#bb60d5;stroke-width:0.5;" x="78.330379" xlink:href="#m7df311fd9f" y="334.056223"/>
     <use style="fill:#bb60d5;stroke:#bb60d5;stroke-width:0.5;" x="78.2982" xlink:href="#m7df311fd9f" y="333.689142"/>
     <use style="fill:#bb60d5;stroke:#bb60d5;stroke-width:0.5;" x="78.386752" xlink:href="#m7df311fd9f" y="333.443177"/>
     <use style="fill:#bb60d5;stroke:#bb60d5;stroke-width:0.5;" x="78.456004" xlink:href="#m7df311fd9f" y="333.001874"/>
     <use style="fill:#bb60d5;stroke:#bb60d5;stroke-width:0.5;" x="78.626993" xlink:href="#m7df311fd9f" y="332.559854"/>
     <use style="fill:#bb60d5;stroke:#bb60d5;stroke-width:0.5;" x="78.926802" xlink:href="#m7df311fd9f" y="332.017941"/>
     <use style="fill:#bb60d5;stroke:#bb60d5;stroke-width:0.5;" x="79.370743" xlink:href="#m7df311fd9f" y="331.626133"/>
     <use style="fill:#bb60d5;stroke:#bb60d5;stroke-width:0.5;" x="79.843906" xlink:href="#m7df311fd9f" y="331.204163"/>
     <use style="fill:#bb60d5;stroke:#bb60d5;stroke-width:0.5;" x="80.278046" xlink:href="#m7df311fd9f" y="330.527457"/>
     <use style="fill:#bb60d5;stroke:#bb60d5;stroke-width:0.5;" x="80.881976" xlink:href="#m7df311fd9f" y="329.579344"/>
     <use style="fill:#bb60d5;stroke:#bb60d5;stroke-width:0.5;" x="81.518613" xlink:href="#m7df311fd9f" y="328.297713"/>
     <use style="fill:#bb60d5;stroke:#bb60d5;stroke-width:0.5;" x="82.516678" xlink:href="#m7df311fd9f" y="326.992706"/>
     <use style="fill:#bb60d5;stroke:#bb60d5;stroke-width:0.5;" x="83.858291" xlink:href="#m7df311fd9f" y="325.906697"/>
     <use style="fill:#bb60d5;stroke:#bb60d5;stroke-width:0.5;" x="85.575578" xlink:href="#m7df311fd9f" y="324.434905"/>
     <use style="fill:#bb60d5;stroke:#bb60d5;stroke-width:0.5;" x="87.639179" xlink:href="#m7df311fd9f" y="323.099326"/>
     <use style="fill:#bb60d5;stroke:#bb60d5;stroke-width:0.5;" x="89.536378" xlink:href="#m7df311fd9f" y="321.964967"/>
     <use style="fill:#bb60d5;stroke:#bb60d5;stroke-width:0.5;" x="91.726131" xlink:href="#m7df311fd9f" y="320.326314"/>
     <use style="fill:#bb60d5;stroke:#bb60d5;stroke-width:0.5;" x="94.785786" xlink:href="#m7df311fd9f" y="317.788282"/>
     <use style="fill:#bb60d5;stroke:#bb60d5;stroke-width:0.5;" x="98.305109" xlink:href="#m7df311fd9f" y="314.801695"/>
     <use style="fill:#bb60d5;stroke:#bb60d5;stroke-width:0.5;" x="101.947526" xlink:href="#m7df311fd9f" y="311.704209"/>
     <use style="fill:#bb60d5;stroke:#bb60d5;stroke-width:0.5;" x="105.832701" xlink:href="#m7df311fd9f" y="311.434196"/>
     <use style="fill:#bb60d5;stroke:#bb60d5;stroke-width:0.5;" x="110.444552" xlink:href="#m7df311fd9f" y="310.061604"/>
     <use style="fill:#bb60d5;stroke:#bb60d5;stroke-width:0.5;" x="114.645573" xlink:href="#m7df311fd9f" y="306.035556"/>
     <use style="fill:#bb60d5;stroke:#bb60d5;stroke-width:0.5;" x="118.591856" xlink:href="#m7df311fd9f" y="302.575719"/>
     <use style="fill:#bb60d5;stroke:#bb60d5;stroke-width:0.5;" x="123.217464" xlink:href="#m7df311fd9f" y="297.86717"/>
     <use style="fill:#bb60d5;stroke:#bb60d5;stroke-width:0.5;" x="128.406598" xlink:href="#m7df311fd9f" y="294.77508"/>
     <use style="fill:#bb60d5;stroke:#bb60d5;stroke-width:0.5;" x="134.376173" xlink:href="#m7df311fd9f" y="291.839398"/>
     <use style="fill:#bb60d5;stroke:#bb60d5;stroke-width:0.5;" x="140.043604" xlink:href="#m7df311fd9f" y="289.165684"/>
     <use style="fill:#bb60d5;stroke:#bb60d5;stroke-width:0.5;" x="145.066598" xlink:href="#m7df311fd9f" y="287.557492"/>
     <use style="fill:#bb60d5;stroke:#bb60d5;stroke-width:0.5;" x="149.561907" xlink:href="#m7df311fd9f" y="283.478629"/>
     <use style="fill:#bb60d5;stroke:#bb60d5;stroke-width:0.5;" x="154.27662" xlink:href="#m7df311fd9f" y="278.405361"/>
     <use style="fill:#bb60d5;stroke:#bb60d5;stroke-width:0.5;" x="158.108444" xlink:href="#m7df311fd9f" y="276.20322"/>
     <use style="fill:#bb60d5;stroke:#bb60d5;stroke-width:0.5;" x="163.088669" xlink:href="#m7df311fd9f" y="269.297388"/>
     <use style="fill:#bb60d5;stroke:#bb60d5;stroke-width:0.5;" x="169.956207" xlink:href="#m7df311fd9f" y="260.702681"/>
     <use style="fill:#bb60d5;stroke:#bb60d5;stroke-width:0.5;" x="177.992375" xlink:href="#m7df311fd9f" y="255.057017"/>
     <use style="fill:#bb60d5;stroke:#bb60d5;stroke-width:0.5;" x="187.247521" xlink:href="#m7df311fd9f" y="248.371108"/>
     <use style="fill:#bb60d5;stroke:#bb60d5;stroke-width:0.5;" x="196.882636" xlink:href="#m7df311fd9f" y="244.202475"/>
     <use style="fill:#bb60d5;stroke:#bb60d5;stroke-width:0.5;" x="207.397517" xlink:href="#m7df311fd9f" y="237.062145"/>
     <use style="fill:#bb60d5;stroke:#bb60d5;stroke-width:0.5;" x="219.133892" xlink:href="#m7df311fd9f" y="229.327899"/>
     <use style="fill:#bb60d5;stroke:#bb60d5;stroke-width:0.5;" x="231.737422" xlink:href="#m7df311fd9f" y="222.679853"/>
     <use style="fill:#bb60d5;stroke:#bb60d5;stroke-width:0.5;" x="245.305302" xlink:href="#m7df311fd9f" y="214.764842"/>
     <use style="fill:#bb60d5;stroke:#bb60d5;stroke-width:0.5;" x="259.419887" xlink:href="#m7df311fd9f" y="207.560925"/>
     <use style="fill:#bb60d5;stroke:#bb60d5;stroke-width:0.5;" x="272.996739" xlink:href="#m7df311fd9f" y="200.32964"/>
     <use style="fill:#bb60d5;stroke:#bb60d5;stroke-width:0.5;" x="287.380352" xlink:href="#m7df311fd9f" y="193.013856"/>
     <use style="fill:#bb60d5;stroke:#bb60d5;stroke-width:0.5;" x="301.965552" xlink:href="#m7df311fd9f" y="188.130986"/>
     <use style="fill:#bb60d5;stroke:#bb60d5;stroke-width:0.5;" x="315.893247" xlink:href="#m7df311fd9f" y="178.98323"/>
     <use style="fill:#bb60d5;stroke:#bb60d5;stroke-width:0.5;" x="330.299775" xlink:href="#m7df311fd9f" y="169.962413"/>
     <use style="fill:#bb60d5;stroke:#bb60d5;stroke-width:0.5;" x="337.293447" xlink:href="#m7df311fd9f" y="173.595715"/>
     <use style="fill:#bb60d5;stroke:#bb60d5;stroke-width:0.5;" x="344.183109" xlink:href="#m7df311fd9f" y="165.252092"/>
     <use style="fill:#bb60d5;stroke:#bb60d5;stroke-width:0.5;" x="350.691048" xlink:href="#m7df311fd9f" y="158.537697"/>
     <use style="fill:#bb60d5;stroke:#bb60d5;stroke-width:0.5;" x="359.932552" xlink:href="#m7df311fd9f" y="146.409329"/>
     <use style="fill:#bb60d5;stroke:#bb60d5;stroke-width:0.5;" x="368.817679" xlink:href="#m7df311fd9f" y="136.552466"/>
     <use style="fill:#bb60d5;stroke:#bb60d5;stroke-width:0.5;" x="376.900134" xlink:href="#m7df311fd9f" y="125.504371"/>
     <use style="fill:#bb60d5;stroke:#bb60d5;stroke-width:0.5;" x="384.485058" xlink:href="#m7df311fd9f" y="111.520152"/>
     <use style="fill:#bb60d5;stroke:#bb60d5;stroke-width:0.5;" x="388.392605" xlink:href="#m7df311fd9f" y="110.48196"/>
     <use style="fill:#bb60d5;stroke:#bb60d5;stroke-width:0.5;" x="389.891148" xlink:href="#m7df311fd9f" y="115.043887"/>
     <use style="fill:#bb60d5;stroke:#bb60d5;stroke-width:0.5;" x="395.397759" xlink:href="#m7df311fd9f" y="92.309634"/>
     <use style="fill:#bb60d5;stroke:#bb60d5;stroke-width:0.5;" x="400.186513" xlink:href="#m7df311fd9f" y="83.668027"/>
     <use style="fill:#bb60d5;stroke:#bb60d5;stroke-width:0.5;" x="403.949097" xlink:href="#m7df311fd9f" y="78.771326"/>
     <use style="fill:#bb60d5;stroke:#bb60d5;stroke-width:0.5;" x="409.072814" xlink:href="#m7df311fd9f" y="73.058152"/>
     <use style="fill:#bb60d5;stroke:#bb60d5;stroke-width:0.5;" x="414.790752" xlink:href="#m7df311fd9f" y="61.005018"/>
     <use style="fill:#bb60d5;stroke:#bb60d5;stroke-width:0.5;" x="420.639683" xlink:href="#m7df311fd9f" y="57.587436"/>
     <use style="fill:#bb60d5;stroke:#bb60d5;stroke-width:0.5;" x="426.897016" xlink:href="#m7df311fd9f" y="52.054176"/>
     <use style="fill:#bb60d5;stroke:#bb60d5;stroke-width:0.5;" x="432.650085" xlink:href="#m7df311fd9f" y="42.906469"/>
     <use style="fill:#bb60d5;stroke:#bb60d5;stroke-width:0.5;" x="438.854014" xlink:href="#m7df311fd9f" y="34.973808"/>
     <use style="fill:#bb60d5;stroke:#bb60d5;stroke-width:0.5;" x="446.990632" xlink:href="#m7df311fd9f" y="26.812166"/>
    </g>
   </g>
   <g id="patch_3">
    <path d="M 46.7425 358.163479 
L 46.7425 8.243479 
" style="fill:none;stroke:#ffffff;stroke-linecap:square;stroke-linejoin:miter;stroke-width:3;"/>
   </g>
   <g id="patch_4">
    <path d="M 547.8625 358.163479 
L 547.8625 8.243479 
" style="fill:none;stroke:#ffffff;stroke-linecap:square;stroke-linejoin:miter;stroke-width:3;"/>
   </g>
   <g id="patch_5">
    <path d="M 46.7425 358.163479 
L 547.8625 358.163479 
" style="fill:none;stroke:#ffffff;stroke-linecap:square;stroke-linejoin:miter;stroke-width:3;"/>
   </g>
   <g id="patch_6">
    <path d="M 46.7425 8.243479 
L 547.8625 8.243479 
" style="fill:none;stroke:#ffffff;stroke-linecap:square;stroke-linejoin:miter;stroke-width:3;"/>
   </g>
   <g id="text_14">
    <!-- China -->
    <g style="fill:#cb495c;" transform="translate(193.071068 277.311764)scale(0.16 -0.16)">
     <use xlink:href="#ArialMT-67"/>
     <use x="72.216797" xlink:href="#ArialMT-104"/>
     <use x="127.832031" xlink:href="#ArialMT-105"/>
     <use x="150.048828" xlink:href="#ArialMT-110"/>
     <use x="205.664062" xlink:href="#ArialMT-97"/>
    </g>
   </g>
   <g id="text_15">
    <!-- Taiwan -->
    <defs>
     <path d="M 25.921875 0 
L 25.921875 63.140625 
L 2.34375 63.140625 
L 2.34375 71.578125 
L 59.078125 71.578125 
L 59.078125 63.140625 
L 35.40625 63.140625 
L 35.40625 0 
z
" id="ArialMT-84"/>
     <path d="M 16.15625 0 
L 0.296875 51.859375 
L 9.375 51.859375 
L 17.625 21.921875 
L 20.703125 10.796875 
Q 20.90625 11.625 23.390625 21.484375 
L 31.640625 51.859375 
L 40.671875 51.859375 
L 48.4375 21.78125 
L 51.03125 11.859375 
L 54 21.875 
L 62.890625 51.859375 
L 71.4375 51.859375 
L 55.21875 0 
L 46.09375 0 
L 37.84375 31.0625 
L 35.84375 39.890625 
L 25.34375 0 
z
" id="ArialMT-119"/>
    </defs>
    <g style="fill:#bb60d5;" transform="translate(454.710608 25.465534)scale(0.16 -0.16)">
     <use xlink:href="#ArialMT-84"/>
     <use x="60.912109" xlink:href="#ArialMT-97"/>
     <use x="116.527344" xlink:href="#ArialMT-105"/>
     <use x="138.744141" xlink:href="#ArialMT-119"/>
     <use x="210.960938" xlink:href="#ArialMT-97"/>
     <use x="266.576172" xlink:href="#ArialMT-110"/>
    </g>
   </g>
   <g id="text_16">
    <!-- Korea -->
    <defs>
     <path d="M 7.328125 0 
L 7.328125 71.578125 
L 16.796875 71.578125 
L 16.796875 36.078125 
L 52.34375 71.578125 
L 65.1875 71.578125 
L 35.15625 42.578125 
L 66.5 0 
L 54 0 
L 28.515625 36.234375 
L 16.796875 24.8125 
L 16.796875 0 
z
" id="ArialMT-75"/>
    </defs>
    <g style="fill:#165aa7;" transform="translate(454.710608 118.250987)scale(0.16 -0.16)">
     <use xlink:href="#ArialMT-75"/>
     <use x="66.699219" xlink:href="#ArialMT-111"/>
     <use x="122.314453" xlink:href="#ArialMT-114"/>
     <use x="155.615234" xlink:href="#ArialMT-101"/>
     <use x="211.230469" xlink:href="#ArialMT-97"/>
    </g>
   </g>
   <g id="patch_7">
    <path d="M 94.709862 266.63422 
Q 143.072489 232.780381 190.977152 199.247117 
" style="fill:none;stroke:#000000;stroke-linecap:round;stroke-width:0.5;"/>
    <path d="M 184.783758 200.164657 
L 190.977152 199.247117 
L 187.995147 204.752355 
" style="fill:none;stroke:#000000;stroke-linecap:round;stroke-width:0.5;"/>
   </g>
   <g id="text_17">
    <!-- From 1951  to 2019 -->
    <defs>
     <path d="M 8.203125 0 
L 8.203125 71.578125 
L 56.5 71.578125 
L 56.5 63.140625 
L 17.671875 63.140625 
L 17.671875 40.96875 
L 51.265625 40.96875 
L 51.265625 32.515625 
L 17.671875 32.515625 
L 17.671875 0 
z
" id="ArialMT-70"/>
     <path d="M 6.59375 0 
L 6.59375 51.859375 
L 14.453125 51.859375 
L 14.453125 44.578125 
Q 16.890625 48.390625 20.9375 50.703125 
Q 25 53.03125 30.171875 53.03125 
Q 35.9375 53.03125 39.625 50.640625 
Q 43.3125 48.25 44.828125 43.953125 
Q 50.984375 53.03125 60.84375 53.03125 
Q 68.5625 53.03125 72.703125 48.75 
Q 76.859375 44.484375 76.859375 35.59375 
L 76.859375 0 
L 68.109375 0 
L 68.109375 32.671875 
Q 68.109375 37.9375 67.25 40.25 
Q 66.40625 42.578125 64.15625 43.984375 
Q 61.921875 45.40625 58.890625 45.40625 
Q 53.421875 45.40625 49.796875 41.765625 
Q 46.1875 38.140625 46.1875 30.125 
L 46.1875 0 
L 37.40625 0 
L 37.40625 33.6875 
Q 37.40625 39.546875 35.25 42.46875 
Q 33.109375 45.40625 28.21875 45.40625 
Q 24.515625 45.40625 21.359375 43.453125 
Q 18.21875 41.5 16.796875 37.734375 
Q 15.375 33.984375 15.375 26.90625 
L 15.375 0 
z
" id="ArialMT-109"/>
     <path d="M 5.46875 16.546875 
L 13.921875 17.328125 
Q 14.984375 11.375 18.015625 8.6875 
Q 21.046875 6 25.78125 6 
Q 29.828125 6 32.875 7.859375 
Q 35.9375 9.71875 37.890625 12.8125 
Q 39.84375 15.921875 41.15625 21.1875 
Q 42.484375 26.46875 42.484375 31.9375 
Q 42.484375 32.515625 42.4375 33.6875 
Q 39.796875 29.5 35.234375 26.875 
Q 30.671875 24.265625 25.34375 24.265625 
Q 16.453125 24.265625 10.296875 30.703125 
Q 4.15625 37.15625 4.15625 47.703125 
Q 4.15625 58.59375 10.578125 65.234375 
Q 17 71.875 26.65625 71.875 
Q 33.640625 71.875 39.421875 68.109375 
Q 45.21875 64.359375 48.21875 57.390625 
Q 51.21875 50.4375 51.21875 37.25 
Q 51.21875 23.53125 48.234375 15.40625 
Q 45.265625 7.28125 39.375 3.03125 
Q 33.5 -1.21875 25.59375 -1.21875 
Q 17.1875 -1.21875 11.859375 3.4375 
Q 6.546875 8.109375 5.46875 16.546875 
z
M 41.453125 48.140625 
Q 41.453125 55.71875 37.421875 60.15625 
Q 33.40625 64.59375 27.734375 64.59375 
Q 21.875 64.59375 17.53125 59.8125 
Q 13.1875 55.03125 13.1875 47.40625 
Q 13.1875 40.578125 17.3125 36.296875 
Q 21.4375 32.03125 27.484375 32.03125 
Q 33.59375 32.03125 37.515625 36.296875 
Q 41.453125 40.578125 41.453125 48.140625 
z
" id="ArialMT-57"/>
    </defs>
    <g transform="translate(67.484088 191.153843)scale(0.14 -0.14)">
     <use xlink:href="#ArialMT-70"/>
     <use x="61.083984" xlink:href="#ArialMT-114"/>
     <use x="94.384766" xlink:href="#ArialMT-111"/>
     <use x="150" xlink:href="#ArialMT-109"/>
     <use x="233.300781" xlink:href="#ArialMT-32"/>
     <use x="261.083984" xlink:href="#ArialMT-49"/>
     <use x="316.699219" xlink:href="#ArialMT-57"/>
     <use x="372.314453" xlink:href="#ArialMT-53"/>
     <use x="427.929688" xlink:href="#ArialMT-49"/>
     <use x="483.544922" xlink:href="#ArialMT-32"/>
     <use x="511.328125" xlink:href="#ArialMT-32"/>
     <use x="539.111328" xlink:href="#ArialMT-116"/>
     <use x="566.894531" xlink:href="#ArialMT-111"/>
     <use x="622.509766" xlink:href="#ArialMT-32"/>
     <use x="650.292969" xlink:href="#ArialMT-50"/>
     <use x="705.908203" xlink:href="#ArialMT-48"/>
     <use x="761.523438" xlink:href="#ArialMT-49"/>
     <use x="817.138672" xlink:href="#ArialMT-57"/>
    </g>
   </g>
  </g>
 </g>
 <defs>
  <clipPath id="p1bf9e5ad6d">
   <rect height="349.92" width="501.12" x="46.7425" y="8.243479"/>
  </clipPath>
 </defs>
</svg>
