<?xml version="1.0" encoding="utf-8" standalone="no"?>
<!DOCTYPE svg PUBLIC "-//W3C//DTD SVG 1.1//EN"
  "http://www.w3.org/Graphics/SVG/1.1/DTD/svg11.dtd">
<!-- Created with matplotlib (https://matplotlib.org/) -->
<svg height="399.987563pt" version="1.1" viewBox="0 0 432.564125 399.987563" width="432.564125pt" xmlns="http://www.w3.org/2000/svg" xmlns:xlink="http://www.w3.org/1999/xlink">
 <defs>
  <style type="text/css">
*{stroke-linecap:butt;stroke-linejoin:round;}
  </style>
 </defs>
 <g id="figure_1">
  <g id="patch_1">
   <path d="M -0 399.987563 
L 432.564125 399.987563 
L 432.564125 0 
L -0 0 
z
" style="fill:#ffffff;"/>
  </g>
  <g id="axes_1">
   <g id="patch_2">
    <path d="M 49.524125 357.12 
L 425.364125 357.12 
L 425.364125 7.2 
L 49.524125 7.2 
z
" style="fill:#ffffff;"/>
   </g>
   <g id="matplotlib.axis_1">
    <g id="xtick_1">
     <g id="line2d_1">
      <path clip-path="url(#p5e33ce1e2c)" d="M 99.636125 357.12 
L 99.636125 7.2 
" style="fill:none;stroke:#000000;stroke-dasharray:6.4,1.6,1,1.6;stroke-dashoffset:0;stroke-opacity:0.2;"/>
     </g>
     <g id="line2d_2"/>
     <g id="text_1">
      <!-- 0.0 -->
      <defs>
       <path d="M 4.15625 35.296875 
Q 4.15625 48 6.765625 55.734375 
Q 9.375 63.484375 14.515625 67.671875 
Q 19.671875 71.875 27.484375 71.875 
Q 33.25 71.875 37.59375 69.546875 
Q 41.9375 67.234375 44.765625 62.859375 
Q 47.609375 58.5 49.21875 52.21875 
Q 50.828125 45.953125 50.828125 35.296875 
Q 50.828125 22.703125 48.234375 14.96875 
Q 45.65625 7.234375 40.5 3 
Q 35.359375 -1.21875 27.484375 -1.21875 
Q 17.140625 -1.21875 11.234375 6.203125 
Q 4.15625 15.140625 4.15625 35.296875 
z
M 13.1875 35.296875 
Q 13.1875 17.671875 17.3125 11.828125 
Q 21.4375 6 27.484375 6 
Q 33.546875 6 37.671875 11.859375 
Q 41.796875 17.71875 41.796875 35.296875 
Q 41.796875 52.984375 37.671875 58.78125 
Q 33.546875 64.59375 27.390625 64.59375 
Q 21.34375 64.59375 17.71875 59.46875 
Q 13.1875 52.9375 13.1875 35.296875 
z
" id="ArialMT-48"/>
       <path d="M 9.078125 0 
L 9.078125 10.015625 
L 19.09375 10.015625 
L 19.09375 0 
z
" id="ArialMT-46"/>
      </defs>
      <g transform="translate(89.906125 370.640938)scale(0.14 -0.14)">
       <use xlink:href="#ArialMT-48"/>
       <use x="55.615234" xlink:href="#ArialMT-46"/>
       <use x="83.398438" xlink:href="#ArialMT-48"/>
      </g>
     </g>
    </g>
    <g id="xtick_2">
     <g id="line2d_3">
      <path clip-path="url(#p5e33ce1e2c)" d="M 199.860125 357.12 
L 199.860125 7.2 
" style="fill:none;stroke:#000000;stroke-dasharray:6.4,1.6,1,1.6;stroke-dashoffset:0;stroke-opacity:0.2;"/>
     </g>
     <g id="line2d_4"/>
     <g id="text_2">
      <!-- 0.4 -->
      <defs>
       <path d="M 32.328125 0 
L 32.328125 17.140625 
L 1.265625 17.140625 
L 1.265625 25.203125 
L 33.9375 71.578125 
L 41.109375 71.578125 
L 41.109375 25.203125 
L 50.78125 25.203125 
L 50.78125 17.140625 
L 41.109375 17.140625 
L 41.109375 0 
z
M 32.328125 25.203125 
L 32.328125 57.46875 
L 9.90625 25.203125 
z
" id="ArialMT-52"/>
      </defs>
      <g transform="translate(190.130125 370.640938)scale(0.14 -0.14)">
       <use xlink:href="#ArialMT-48"/>
       <use x="55.615234" xlink:href="#ArialMT-46"/>
       <use x="83.398438" xlink:href="#ArialMT-52"/>
      </g>
     </g>
    </g>
    <g id="xtick_3">
     <g id="line2d_5">
      <path clip-path="url(#p5e33ce1e2c)" d="M 300.084125 357.12 
L 300.084125 7.2 
" style="fill:none;stroke:#000000;stroke-dasharray:6.4,1.6,1,1.6;stroke-dashoffset:0;stroke-opacity:0.2;"/>
     </g>
     <g id="line2d_6"/>
     <g id="text_3">
      <!-- 0.8 -->
      <defs>
       <path d="M 17.671875 38.8125 
Q 12.203125 40.828125 9.5625 44.53125 
Q 6.9375 48.25 6.9375 53.421875 
Q 6.9375 61.234375 12.546875 66.546875 
Q 18.171875 71.875 27.484375 71.875 
Q 36.859375 71.875 42.578125 66.421875 
Q 48.296875 60.984375 48.296875 53.171875 
Q 48.296875 48.1875 45.671875 44.5 
Q 43.0625 40.828125 37.75 38.8125 
Q 44.34375 36.671875 47.78125 31.875 
Q 51.21875 27.09375 51.21875 20.453125 
Q 51.21875 11.28125 44.71875 5.03125 
Q 38.234375 -1.21875 27.640625 -1.21875 
Q 17.046875 -1.21875 10.546875 5.046875 
Q 4.046875 11.328125 4.046875 20.703125 
Q 4.046875 27.6875 7.59375 32.390625 
Q 11.140625 37.109375 17.671875 38.8125 
z
M 15.921875 53.71875 
Q 15.921875 48.640625 19.1875 45.40625 
Q 22.46875 42.1875 27.6875 42.1875 
Q 32.765625 42.1875 36.015625 45.375 
Q 39.265625 48.578125 39.265625 53.21875 
Q 39.265625 58.0625 35.90625 61.359375 
Q 32.5625 64.65625 27.59375 64.65625 
Q 22.5625 64.65625 19.234375 61.421875 
Q 15.921875 58.203125 15.921875 53.71875 
z
M 13.09375 20.65625 
Q 13.09375 16.890625 14.875 13.375 
Q 16.65625 9.859375 20.171875 7.921875 
Q 23.6875 6 27.734375 6 
Q 34.03125 6 38.125 10.046875 
Q 42.234375 14.109375 42.234375 20.359375 
Q 42.234375 26.703125 38.015625 30.859375 
Q 33.796875 35.015625 27.4375 35.015625 
Q 21.234375 35.015625 17.15625 30.90625 
Q 13.09375 26.8125 13.09375 20.65625 
z
" id="ArialMT-56"/>
      </defs>
      <g transform="translate(290.354125 370.640938)scale(0.14 -0.14)">
       <use xlink:href="#ArialMT-48"/>
       <use x="55.615234" xlink:href="#ArialMT-46"/>
       <use x="83.398438" xlink:href="#ArialMT-56"/>
      </g>
     </g>
    </g>
    <g id="xtick_4">
     <g id="line2d_7">
      <path clip-path="url(#p5e33ce1e2c)" d="M 400.308125 357.12 
L 400.308125 7.2 
" style="fill:none;stroke:#000000;stroke-dasharray:6.4,1.6,1,1.6;stroke-dashoffset:0;stroke-opacity:0.2;"/>
     </g>
     <g id="line2d_8"/>
     <g id="text_4">
      <!-- 1.2 -->
      <defs>
       <path d="M 37.25 0 
L 28.46875 0 
L 28.46875 56 
Q 25.296875 52.984375 20.140625 49.953125 
Q 14.984375 46.921875 10.890625 45.40625 
L 10.890625 53.90625 
Q 18.265625 57.375 23.78125 62.296875 
Q 29.296875 67.234375 31.59375 71.875 
L 37.25 71.875 
z
" id="ArialMT-49"/>
       <path d="M 50.34375 8.453125 
L 50.34375 0 
L 3.03125 0 
Q 2.9375 3.171875 4.046875 6.109375 
Q 5.859375 10.9375 9.828125 15.625 
Q 13.8125 20.3125 21.34375 26.46875 
Q 33.015625 36.03125 37.109375 41.625 
Q 41.21875 47.21875 41.21875 52.203125 
Q 41.21875 57.421875 37.46875 61 
Q 33.734375 64.59375 27.734375 64.59375 
Q 21.390625 64.59375 17.578125 60.78125 
Q 13.765625 56.984375 13.71875 50.25 
L 4.6875 51.171875 
Q 5.609375 61.28125 11.65625 66.578125 
Q 17.71875 71.875 27.9375 71.875 
Q 38.234375 71.875 44.234375 66.15625 
Q 50.25 60.453125 50.25 52 
Q 50.25 47.703125 48.484375 43.546875 
Q 46.734375 39.40625 42.65625 34.8125 
Q 38.578125 30.21875 29.109375 22.21875 
Q 21.1875 15.578125 18.9375 13.203125 
Q 16.703125 10.84375 15.234375 8.453125 
z
" id="ArialMT-50"/>
      </defs>
      <g transform="translate(390.578125 370.640938)scale(0.14 -0.14)">
       <use xlink:href="#ArialMT-49"/>
       <use x="55.615234" xlink:href="#ArialMT-46"/>
       <use x="83.398438" xlink:href="#ArialMT-50"/>
      </g>
     </g>
    </g>
    <g id="text_5">
     <!-- Predicted -->
     <defs>
      <path d="M 7.71875 0 
L 7.71875 71.578125 
L 34.71875 71.578125 
Q 41.84375 71.578125 45.609375 70.90625 
Q 50.875 70.015625 54.4375 67.546875 
Q 58.015625 65.09375 60.1875 60.640625 
Q 62.359375 56.203125 62.359375 50.875 
Q 62.359375 41.75 56.546875 35.421875 
Q 50.734375 29.109375 35.546875 29.109375 
L 17.1875 29.109375 
L 17.1875 0 
z
M 17.1875 37.546875 
L 35.6875 37.546875 
Q 44.875 37.546875 48.734375 40.96875 
Q 52.59375 44.390625 52.59375 50.59375 
Q 52.59375 55.078125 50.3125 58.265625 
Q 48.046875 61.46875 44.34375 62.5 
Q 41.9375 63.140625 35.5 63.140625 
L 17.1875 63.140625 
z
" id="ArialMT-80"/>
      <path d="M 6.5 0 
L 6.5 51.859375 
L 14.40625 51.859375 
L 14.40625 44 
Q 17.4375 49.515625 20 51.265625 
Q 22.5625 53.03125 25.640625 53.03125 
Q 30.078125 53.03125 34.671875 50.203125 
L 31.640625 42.046875 
Q 28.421875 43.953125 25.203125 43.953125 
Q 22.3125 43.953125 20.015625 42.21875 
Q 17.71875 40.484375 16.75 37.40625 
Q 15.28125 32.71875 15.28125 27.15625 
L 15.28125 0 
z
" id="ArialMT-114"/>
      <path d="M 42.09375 16.703125 
L 51.171875 15.578125 
Q 49.03125 7.625 43.21875 3.21875 
Q 37.40625 -1.171875 28.375 -1.171875 
Q 17 -1.171875 10.328125 5.828125 
Q 3.65625 12.84375 3.65625 25.484375 
Q 3.65625 38.578125 10.390625 45.796875 
Q 17.140625 53.03125 27.875 53.03125 
Q 38.28125 53.03125 44.875 45.953125 
Q 51.46875 38.875 51.46875 26.03125 
Q 51.46875 25.25 51.421875 23.6875 
L 12.75 23.6875 
Q 13.234375 15.140625 17.578125 10.59375 
Q 21.921875 6.0625 28.421875 6.0625 
Q 33.25 6.0625 36.671875 8.59375 
Q 40.09375 11.140625 42.09375 16.703125 
z
M 13.234375 30.90625 
L 42.1875 30.90625 
Q 41.609375 37.453125 38.875 40.71875 
Q 34.671875 45.796875 27.984375 45.796875 
Q 21.921875 45.796875 17.796875 41.75 
Q 13.671875 37.703125 13.234375 30.90625 
z
" id="ArialMT-101"/>
      <path d="M 40.234375 0 
L 40.234375 6.546875 
Q 35.296875 -1.171875 25.734375 -1.171875 
Q 19.53125 -1.171875 14.328125 2.25 
Q 9.125 5.671875 6.265625 11.796875 
Q 3.421875 17.921875 3.421875 25.875 
Q 3.421875 33.640625 6 39.96875 
Q 8.59375 46.296875 13.765625 49.65625 
Q 18.953125 53.03125 25.34375 53.03125 
Q 30.03125 53.03125 33.6875 51.046875 
Q 37.359375 49.078125 39.65625 45.90625 
L 39.65625 71.578125 
L 48.390625 71.578125 
L 48.390625 0 
z
M 12.453125 25.875 
Q 12.453125 15.921875 16.640625 10.984375 
Q 20.84375 6.0625 26.5625 6.0625 
Q 32.328125 6.0625 36.34375 10.765625 
Q 40.375 15.484375 40.375 25.140625 
Q 40.375 35.796875 36.265625 40.765625 
Q 32.171875 45.75 26.171875 45.75 
Q 20.3125 45.75 16.375 40.96875 
Q 12.453125 36.1875 12.453125 25.875 
z
" id="ArialMT-100"/>
      <path d="M 6.640625 61.46875 
L 6.640625 71.578125 
L 15.4375 71.578125 
L 15.4375 61.46875 
z
M 6.640625 0 
L 6.640625 51.859375 
L 15.4375 51.859375 
L 15.4375 0 
z
" id="ArialMT-105"/>
      <path d="M 40.4375 19 
L 49.078125 17.875 
Q 47.65625 8.9375 41.8125 3.875 
Q 35.984375 -1.171875 27.484375 -1.171875 
Q 16.84375 -1.171875 10.375 5.78125 
Q 3.90625 12.75 3.90625 25.734375 
Q 3.90625 34.125 6.6875 40.421875 
Q 9.46875 46.734375 15.15625 49.875 
Q 20.84375 53.03125 27.546875 53.03125 
Q 35.984375 53.03125 41.359375 48.75 
Q 46.734375 44.484375 48.25 36.625 
L 39.703125 35.296875 
Q 38.484375 40.53125 35.375 43.15625 
Q 32.28125 45.796875 27.875 45.796875 
Q 21.234375 45.796875 17.078125 41.03125 
Q 12.9375 36.28125 12.9375 25.984375 
Q 12.9375 15.53125 16.9375 10.796875 
Q 20.953125 6.0625 27.390625 6.0625 
Q 32.5625 6.0625 36.03125 9.234375 
Q 39.5 12.40625 40.4375 19 
z
" id="ArialMT-99"/>
      <path d="M 25.78125 7.859375 
L 27.046875 0.09375 
Q 23.34375 -0.6875 20.40625 -0.6875 
Q 15.625 -0.6875 12.984375 0.828125 
Q 10.359375 2.34375 9.28125 4.8125 
Q 8.203125 7.28125 8.203125 15.1875 
L 8.203125 45.015625 
L 1.765625 45.015625 
L 1.765625 51.859375 
L 8.203125 51.859375 
L 8.203125 64.703125 
L 16.9375 69.96875 
L 16.9375 51.859375 
L 25.78125 51.859375 
L 25.78125 45.015625 
L 16.9375 45.015625 
L 16.9375 14.703125 
Q 16.9375 10.9375 17.40625 9.859375 
Q 17.875 8.796875 18.921875 8.15625 
Q 19.96875 7.515625 21.921875 7.515625 
Q 23.390625 7.515625 25.78125 7.859375 
z
" id="ArialMT-116"/>
     </defs>
     <g transform="translate(201.959375 389.448563)scale(0.168 -0.168)">
      <use xlink:href="#ArialMT-80"/>
      <use x="66.699219" xlink:href="#ArialMT-114"/>
      <use x="100" xlink:href="#ArialMT-101"/>
      <use x="155.615234" xlink:href="#ArialMT-100"/>
      <use x="211.230469" xlink:href="#ArialMT-105"/>
      <use x="233.447266" xlink:href="#ArialMT-99"/>
      <use x="283.447266" xlink:href="#ArialMT-116"/>
      <use x="311.230469" xlink:href="#ArialMT-101"/>
      <use x="366.845703" xlink:href="#ArialMT-100"/>
     </g>
    </g>
   </g>
   <g id="matplotlib.axis_2">
    <g id="ytick_1">
     <g id="line2d_9">
      <path clip-path="url(#p5e33ce1e2c)" d="M 49.524125 310.464 
L 425.364125 310.464 
" style="fill:none;stroke:#000000;stroke-dasharray:6.4,1.6,1,1.6;stroke-dashoffset:0;stroke-opacity:0.2;"/>
     </g>
     <g id="line2d_10"/>
     <g id="text_6">
      <!-- 0.0 -->
      <g transform="translate(26.564125 315.474469)scale(0.14 -0.14)">
       <use xlink:href="#ArialMT-48"/>
       <use x="55.615234" xlink:href="#ArialMT-46"/>
       <use x="83.398438" xlink:href="#ArialMT-48"/>
      </g>
     </g>
    </g>
    <g id="ytick_2">
     <g id="line2d_11">
      <path clip-path="url(#p5e33ce1e2c)" d="M 49.524125 217.152 
L 425.364125 217.152 
" style="fill:none;stroke:#000000;stroke-dasharray:6.4,1.6,1,1.6;stroke-dashoffset:0;stroke-opacity:0.2;"/>
     </g>
     <g id="line2d_12"/>
     <g id="text_7">
      <!-- 0.4 -->
      <g transform="translate(26.564125 222.162469)scale(0.14 -0.14)">
       <use xlink:href="#ArialMT-48"/>
       <use x="55.615234" xlink:href="#ArialMT-46"/>
       <use x="83.398438" xlink:href="#ArialMT-52"/>
      </g>
     </g>
    </g>
    <g id="ytick_3">
     <g id="line2d_13">
      <path clip-path="url(#p5e33ce1e2c)" d="M 49.524125 123.84 
L 425.364125 123.84 
" style="fill:none;stroke:#000000;stroke-dasharray:6.4,1.6,1,1.6;stroke-dashoffset:0;stroke-opacity:0.2;"/>
     </g>
     <g id="line2d_14"/>
     <g id="text_8">
      <!-- 0.8 -->
      <g transform="translate(26.564125 128.850469)scale(0.14 -0.14)">
       <use xlink:href="#ArialMT-48"/>
       <use x="55.615234" xlink:href="#ArialMT-46"/>
       <use x="83.398438" xlink:href="#ArialMT-56"/>
      </g>
     </g>
    </g>
    <g id="ytick_4">
     <g id="line2d_15">
      <path clip-path="url(#p5e33ce1e2c)" d="M 49.524125 30.528 
L 425.364125 30.528 
" style="fill:none;stroke:#000000;stroke-dasharray:6.4,1.6,1,1.6;stroke-dashoffset:0;stroke-opacity:0.2;"/>
     </g>
     <g id="line2d_16"/>
     <g id="text_9">
      <!-- 1.2 -->
      <g transform="translate(26.564125 35.538469)scale(0.14 -0.14)">
       <use xlink:href="#ArialMT-49"/>
       <use x="55.615234" xlink:href="#ArialMT-46"/>
       <use x="83.398438" xlink:href="#ArialMT-50"/>
      </g>
     </g>
    </g>
    <g id="text_10">
     <!-- Actual -->
     <defs>
      <path d="M -0.140625 0 
L 27.34375 71.578125 
L 37.546875 71.578125 
L 66.84375 0 
L 56.0625 0 
L 47.703125 21.6875 
L 17.78125 21.6875 
L 9.90625 0 
z
M 20.515625 29.390625 
L 44.78125 29.390625 
L 37.3125 49.21875 
Q 33.890625 58.25 32.234375 64.0625 
Q 30.859375 57.171875 28.375 50.390625 
z
" id="ArialMT-65"/>
      <path d="M 40.578125 0 
L 40.578125 7.625 
Q 34.515625 -1.171875 24.125 -1.171875 
Q 19.53125 -1.171875 15.546875 0.578125 
Q 11.578125 2.34375 9.640625 5 
Q 7.71875 7.671875 6.9375 11.53125 
Q 6.390625 14.109375 6.390625 19.734375 
L 6.390625 51.859375 
L 15.1875 51.859375 
L 15.1875 23.09375 
Q 15.1875 16.21875 15.71875 13.8125 
Q 16.546875 10.359375 19.234375 8.375 
Q 21.921875 6.390625 25.875 6.390625 
Q 29.828125 6.390625 33.296875 8.421875 
Q 36.765625 10.453125 38.203125 13.9375 
Q 39.65625 17.4375 39.65625 24.078125 
L 39.65625 51.859375 
L 48.4375 51.859375 
L 48.4375 0 
z
" id="ArialMT-117"/>
      <path d="M 40.4375 6.390625 
Q 35.546875 2.25 31.03125 0.53125 
Q 26.515625 -1.171875 21.34375 -1.171875 
Q 12.796875 -1.171875 8.203125 3 
Q 3.609375 7.171875 3.609375 13.671875 
Q 3.609375 17.484375 5.34375 20.625 
Q 7.078125 23.78125 9.890625 25.6875 
Q 12.703125 27.59375 16.21875 28.5625 
Q 18.796875 29.25 24.03125 29.890625 
Q 34.671875 31.15625 39.703125 32.90625 
Q 39.75 34.71875 39.75 35.203125 
Q 39.75 40.578125 37.25 42.78125 
Q 33.890625 45.75 27.25 45.75 
Q 21.046875 45.75 18.09375 43.578125 
Q 15.140625 41.40625 13.71875 35.890625 
L 5.125 37.0625 
Q 6.296875 42.578125 8.984375 45.96875 
Q 11.671875 49.359375 16.75 51.1875 
Q 21.828125 53.03125 28.515625 53.03125 
Q 35.15625 53.03125 39.296875 51.46875 
Q 43.453125 49.90625 45.40625 47.53125 
Q 47.359375 45.171875 48.140625 41.546875 
Q 48.578125 39.3125 48.578125 33.453125 
L 48.578125 21.734375 
Q 48.578125 9.46875 49.140625 6.21875 
Q 49.703125 2.984375 51.375 0 
L 42.1875 0 
Q 40.828125 2.734375 40.4375 6.390625 
z
M 39.703125 26.03125 
Q 34.90625 24.078125 25.34375 22.703125 
Q 19.921875 21.921875 17.671875 20.9375 
Q 15.4375 19.96875 14.203125 18.09375 
Q 12.984375 16.21875 12.984375 13.921875 
Q 12.984375 10.40625 15.640625 8.0625 
Q 18.3125 5.71875 23.4375 5.71875 
Q 28.515625 5.71875 32.46875 7.9375 
Q 36.421875 10.15625 38.28125 14.015625 
Q 39.703125 17 39.703125 22.796875 
z
" id="ArialMT-97"/>
      <path d="M 6.390625 0 
L 6.390625 71.578125 
L 15.1875 71.578125 
L 15.1875 0 
z
" id="ArialMT-108"/>
     </defs>
     <g transform="translate(19.225125 205.505438)rotate(-90)scale(0.168 -0.168)">
      <use xlink:href="#ArialMT-65"/>
      <use x="66.699219" xlink:href="#ArialMT-99"/>
      <use x="116.699219" xlink:href="#ArialMT-116"/>
      <use x="144.482422" xlink:href="#ArialMT-117"/>
      <use x="200.097656" xlink:href="#ArialMT-97"/>
      <use x="255.712891" xlink:href="#ArialMT-108"/>
     </g>
    </g>
   </g>
   <g id="PathCollection_1">
    <path clip-path="url(#p5e33ce1e2c)" d="M 402.546965 286.21246 
C 403.069767 286.21246 403.571227 286.004748 403.940905 285.635071 
C 404.310582 285.265393 404.518294 284.763933 404.518294 284.241131 
C 404.518294 283.718328 404.310582 283.216868 403.940905 282.847191 
C 403.571227 282.477513 403.069767 282.269802 402.546965 282.269802 
C 402.024162 282.269802 401.522702 282.477513 401.153024 282.847191 
C 400.783347 283.216868 400.575636 283.718328 400.575636 284.241131 
C 400.575636 284.763933 400.783347 285.265393 401.153024 285.635071 
C 401.522702 286.004748 402.024162 286.21246 402.546965 286.21246 
z
" style="fill:#4cc9f0;fill-opacity:0.7;stroke:#4cc9f0;stroke-opacity:0.7;stroke-width:0.5;"/>
    <path clip-path="url(#p5e33ce1e2c)" d="M 317.307369 251.282278 
C 317.442278 251.282278 317.57168 251.228678 317.667076 251.133283 
C 317.762471 251.037887 317.816071 250.908485 317.816071 250.773576 
C 317.816071 250.638666 317.762471 250.509264 317.667076 250.413868 
C 317.57168 250.318473 317.442278 250.264873 317.307369 250.264873 
C 317.172459 250.264873 317.043057 250.318473 316.947661 250.413868 
C 316.852266 250.509264 316.798666 250.638666 316.798666 250.773576 
C 316.798666 250.908485 316.852266 251.037887 316.947661 251.133283 
C 317.043057 251.228678 317.172459 251.282278 317.307369 251.282278 
z
" style="fill:#4cc9f0;fill-opacity:0.7;stroke:#4cc9f0;stroke-opacity:0.7;stroke-width:0.5;"/>
    <path clip-path="url(#p5e33ce1e2c)" d="M 399.181938 102.898195 
C 399.497415 102.898195 399.800013 102.772855 400.023089 102.549779 
C 400.246164 102.326703 400.371504 102.024105 400.371504 101.708629 
C 400.371504 101.393152 400.246164 101.090554 400.023089 100.867479 
C 399.800013 100.644403 399.497415 100.519063 399.181938 100.519063 
C 398.866462 100.519063 398.563864 100.644403 398.340788 100.867479 
C 398.117713 101.090554 397.992373 101.393152 397.992373 101.708629 
C 397.992373 102.024105 398.117713 102.326703 398.340788 102.549779 
C 398.563864 102.772855 398.866462 102.898195 399.181938 102.898195 
z
" style="fill:#4cc9f0;fill-opacity:0.7;stroke:#4cc9f0;stroke-opacity:0.7;stroke-width:0.5;"/>
    <path clip-path="url(#p5e33ce1e2c)" d="M 296.193986 219.201301 
C 296.787497 219.201301 297.356779 218.965496 297.776455 218.545821 
C 298.19613 218.126145 298.431935 217.556863 298.431935 216.963352 
C 298.431935 216.369841 298.19613 215.800559 297.776455 215.380883 
C 297.356779 214.961207 296.787497 214.725403 296.193986 214.725403 
C 295.600475 214.725403 295.031193 214.961207 294.611517 215.380883 
C 294.191841 215.800559 293.956037 216.369841 293.956037 216.963352 
C 293.956037 217.556863 294.191841 218.126145 294.611517 218.545821 
C 295.031193 218.965496 295.600475 219.201301 296.193986 219.201301 
z
" style="fill:#4cc9f0;fill-opacity:0.7;stroke:#4cc9f0;stroke-opacity:0.7;stroke-width:0.5;"/>
    <path clip-path="url(#p5e33ce1e2c)" d="M 366.357043 128.4754 
C 366.82255 128.4754 367.269053 128.290452 367.598216 127.961289 
C 367.927379 127.632126 368.112327 127.185622 368.112327 126.720116 
C 368.112327 126.254609 367.927379 125.808105 367.598216 125.478942 
C 367.269053 125.149779 366.82255 124.964832 366.357043 124.964832 
C 365.891536 124.964832 365.445033 125.149779 365.11587 125.478942 
C 364.786707 125.808105 364.601759 126.254609 364.601759 126.720116 
C 364.601759 127.185622 364.786707 127.632126 365.11587 127.961289 
C 365.445033 128.290452 365.891536 128.4754 366.357043 128.4754 
z
" style="fill:#4cc9f0;fill-opacity:0.7;stroke:#4cc9f0;stroke-opacity:0.7;stroke-width:0.5;"/>
    <path clip-path="url(#p5e33ce1e2c)" d="M 368.30222 111.921292 
C 368.580321 111.921292 368.84707 111.810802 369.043717 111.614155 
C 369.240364 111.417507 369.350855 111.150759 369.350855 110.872658 
C 369.350855 110.594557 369.240364 110.327809 369.043717 110.131162 
C 368.84707 109.934515 368.580321 109.824024 368.30222 109.824024 
C 368.024119 109.824024 367.757371 109.934515 367.560724 110.131162 
C 367.364077 110.327809 367.253586 110.594557 367.253586 110.872658 
C 367.253586 111.150759 367.364077 111.417507 367.560724 111.614155 
C 367.757371 111.810802 368.024119 111.921292 368.30222 111.921292 
z
" style="fill:#4cc9f0;fill-opacity:0.7;stroke:#4cc9f0;stroke-opacity:0.7;stroke-width:0.5;"/>
    <path clip-path="url(#p5e33ce1e2c)" d="M 373.461 94.040344 
C 373.750579 94.040344 374.028336 93.925293 374.233099 93.72053 
C 374.437863 93.515767 374.552913 93.238009 374.552913 92.948431 
C 374.552913 92.658852 374.437863 92.381094 374.233099 92.176331 
C 374.028336 91.971568 373.750579 91.856517 373.461 91.856517 
C 373.171421 91.856517 372.893664 91.971568 372.6889 92.176331 
C 372.484137 92.381094 372.369086 92.658852 372.369086 92.948431 
C 372.369086 93.238009 372.484137 93.515767 372.6889 93.72053 
C 372.893664 93.925293 373.171421 94.040344 373.461 94.040344 
z
" style="fill:#4cc9f0;fill-opacity:0.7;stroke:#4cc9f0;stroke-opacity:0.7;stroke-width:0.5;"/>
    <path clip-path="url(#p5e33ce1e2c)" d="M 292.052536 301.380422 
C 292.391497 301.380422 292.71662 301.245751 292.956302 301.006069 
C 293.195984 300.766388 293.330654 300.441264 293.330654 300.102303 
C 293.330654 299.763342 293.195984 299.438218 292.956302 299.198537 
C 292.71662 298.958855 292.391497 298.824184 292.052536 298.824184 
C 291.713575 298.824184 291.388451 298.958855 291.148769 299.198537 
C 290.909088 299.438218 290.774417 299.763342 290.774417 300.102303 
C 290.774417 300.441264 290.909088 300.766388 291.148769 301.006069 
C 291.388451 301.245751 291.713575 301.380422 292.052536 301.380422 
z
" style="fill:#4cc9f0;fill-opacity:0.7;stroke:#4cc9f0;stroke-opacity:0.7;stroke-width:0.5;"/>
    <path clip-path="url(#p5e33ce1e2c)" d="M 298.29063 295.46715 
C 299.343363 295.46715 300.35312 295.048895 301.097514 294.3045 
C 301.841908 293.560106 302.260163 292.550349 302.260163 291.497617 
C 302.260163 290.444884 301.841908 289.435127 301.097514 288.690733 
C 300.35312 287.946338 299.343363 287.528083 298.29063 287.528083 
C 297.237898 287.528083 296.228141 287.946338 295.483746 288.690733 
C 294.739352 289.435127 294.321097 290.444884 294.321097 291.497617 
C 294.321097 292.550349 294.739352 293.560106 295.483746 294.3045 
C 296.228141 295.048895 297.237898 295.46715 298.29063 295.46715 
z
" style="fill:#4cc9f0;fill-opacity:0.7;stroke:#4cc9f0;stroke-opacity:0.7;stroke-width:0.5;"/>
    <path clip-path="url(#p5e33ce1e2c)" d="M 283.760152 231.160966 
C 284.002229 231.160966 284.234425 231.064788 284.405599 230.893613 
C 284.576774 230.722439 284.672952 230.490243 284.672952 230.248166 
C 284.672952 230.006088 284.576774 229.773893 284.405599 229.602718 
C 284.234425 229.431543 284.002229 229.335365 283.760152 229.335365 
C 283.518074 229.335365 283.285879 229.431543 283.114704 229.602718 
C 282.943529 229.773893 282.847351 230.006088 282.847351 230.248166 
C 282.847351 230.490243 282.943529 230.722439 283.114704 230.893613 
C 283.285879 231.064788 283.518074 231.160966 283.760152 231.160966 
z
" style="fill:#4cc9f0;fill-opacity:0.7;stroke:#4cc9f0;stroke-opacity:0.7;stroke-width:0.5;"/>
    <path clip-path="url(#p5e33ce1e2c)" d="M 402.522435 138.328841 
C 402.637798 138.328841 402.748452 138.283007 402.830026 138.201433 
C 402.9116 138.119859 402.957434 138.009205 402.957434 137.893842 
C 402.957434 137.778479 402.9116 137.667825 402.830026 137.586251 
C 402.748452 137.504677 402.637798 137.458843 402.522435 137.458843 
C 402.407072 137.458843 402.296418 137.504677 402.214844 137.586251 
C 402.13327 137.667825 402.087436 137.778479 402.087436 137.893842 
C 402.087436 138.009205 402.13327 138.119859 402.214844 138.201433 
C 402.296418 138.283007 402.407072 138.328841 402.522435 138.328841 
z
" style="fill:#4cc9f0;fill-opacity:0.7;stroke:#4cc9f0;stroke-opacity:0.7;stroke-width:0.5;"/>
    <path clip-path="url(#p5e33ce1e2c)" d="M 283.58273 279.542974 
C 283.887194 279.542974 284.179228 279.42201 284.394516 279.206722 
C 284.609804 278.991434 284.730768 278.699399 284.730768 278.394936 
C 284.730768 278.090473 284.609804 277.798439 284.394516 277.583151 
C 284.179228 277.367863 283.887194 277.246898 283.58273 277.246898 
C 283.278267 277.246898 282.986233 277.367863 282.770945 277.583151 
C 282.555657 277.798439 282.434693 278.090473 282.434693 278.394936 
C 282.434693 278.699399 282.555657 278.991434 282.770945 279.206722 
C 282.986233 279.42201 283.278267 279.542974 283.58273 279.542974 
z
" style="fill:#4cc9f0;fill-opacity:0.7;stroke:#4cc9f0;stroke-opacity:0.7;stroke-width:0.5;"/>
    <path clip-path="url(#p5e33ce1e2c)" d="M 328.843172 255.294282 
C 330.10464 255.294282 331.314611 254.793095 332.206604 253.901103 
C 333.098597 253.00911 333.599783 251.799139 333.599783 250.537671 
C 333.599783 249.276203 333.098597 248.066232 332.206604 247.174239 
C 331.314611 246.282247 330.10464 245.78106 328.843172 245.78106 
C 327.581704 245.78106 326.371733 246.282247 325.47974 247.174239 
C 324.587748 248.066232 324.086561 249.276203 324.086561 250.537671 
C 324.086561 251.799139 324.587748 253.00911 325.47974 253.901103 
C 326.371733 254.793095 327.581704 255.294282 328.843172 255.294282 
z
" style="fill:#4cc9f0;fill-opacity:0.7;stroke:#4cc9f0;stroke-opacity:0.7;stroke-width:0.5;"/>
    <path clip-path="url(#p5e33ce1e2c)" d="M 293.305041 245.052634 
C 293.353397 245.052634 293.399779 245.033422 293.433972 244.999229 
C 293.468165 244.965036 293.487377 244.918654 293.487377 244.870298 
C 293.487377 244.821942 293.468165 244.77556 293.433972 244.741367 
C 293.399779 244.707174 293.353397 244.687962 293.305041 244.687962 
C 293.256684 244.687962 293.210302 244.707174 293.176109 244.741367 
C 293.141916 244.77556 293.122704 244.821942 293.122704 244.870298 
C 293.122704 244.918654 293.141916 244.965036 293.176109 244.999229 
C 293.210302 245.033422 293.256684 245.052634 293.305041 245.052634 
z
" style="fill:#4cc9f0;fill-opacity:0.7;stroke:#4cc9f0;stroke-opacity:0.7;stroke-width:0.5;"/>
    <path clip-path="url(#p5e33ce1e2c)" d="M 380.954349 235.121509 
C 381.079411 235.121509 381.199368 235.071822 381.287801 234.983389 
C 381.376233 234.894957 381.425921 234.775 381.425921 234.649937 
C 381.425921 234.524875 381.376233 234.404918 381.287801 234.316486 
C 381.199368 234.228053 381.079411 234.178365 380.954349 234.178365 
C 380.829287 234.178365 380.70933 234.228053 380.620897 234.316486 
C 380.532465 234.404918 380.482777 234.524875 380.482777 234.649937 
C 380.482777 234.775 380.532465 234.894957 380.620897 234.983389 
C 380.70933 235.071822 380.829287 235.121509 380.954349 235.121509 
z
" style="fill:#4cc9f0;fill-opacity:0.7;stroke:#4cc9f0;stroke-opacity:0.7;stroke-width:0.5;"/>
    <path clip-path="url(#p5e33ce1e2c)" d="M 353.229756 141.12116 
C 353.805494 141.12116 354.357729 140.892416 354.764838 140.485308 
C 355.171946 140.078199 355.400689 139.525964 355.400689 138.950226 
C 355.400689 138.374488 355.171946 137.822252 354.764838 137.415144 
C 354.357729 137.008035 353.805494 136.779292 353.229756 136.779292 
C 352.654017 136.779292 352.101782 137.008035 351.694674 137.415144 
C 351.287565 137.822252 351.058822 138.374488 351.058822 138.950226 
C 351.058822 139.525964 351.287565 140.078199 351.694674 140.485308 
C 352.101782 140.892416 352.654017 141.12116 353.229756 141.12116 
z
" style="fill:#4cc9f0;fill-opacity:0.7;stroke:#4cc9f0;stroke-opacity:0.7;stroke-width:0.5;"/>
    <path clip-path="url(#p5e33ce1e2c)" d="M 395.551513 91.770016 
C 395.845696 91.770016 396.12787 91.653136 396.335889 91.445117 
C 396.543908 91.237098 396.660788 90.954924 396.660788 90.660741 
C 396.660788 90.366557 396.543908 90.084383 396.335889 89.876365 
C 396.12787 89.668346 395.845696 89.551465 395.551513 89.551465 
C 395.25733 89.551465 394.975156 89.668346 394.767137 89.876365 
C 394.559118 90.084383 394.442238 90.366557 394.442238 90.660741 
C 394.442238 90.954924 394.559118 91.237098 394.767137 91.445117 
C 394.975156 91.653136 395.25733 91.770016 395.551513 91.770016 
z
" style="fill:#4cc9f0;fill-opacity:0.7;stroke:#4cc9f0;stroke-opacity:0.7;stroke-width:0.5;"/>
    <path clip-path="url(#p5e33ce1e2c)" d="M 322.276831 213.128036 
C 322.650195 213.128036 323.008317 212.979697 323.272325 212.715689 
C 323.536333 212.45168 323.684672 212.093558 323.684672 211.720195 
C 323.684672 211.346831 323.536333 210.988709 323.272325 210.7247 
C 323.008317 210.460692 322.650195 210.312353 322.276831 210.312353 
C 321.903467 210.312353 321.545345 210.460692 321.281337 210.7247 
C 321.017329 210.988709 320.86899 211.346831 320.86899 211.720195 
C 320.86899 212.093558 321.017329 212.45168 321.281337 212.715689 
C 321.545345 212.979697 321.903467 213.128036 322.276831 213.128036 
z
" style="fill:#4cc9f0;fill-opacity:0.7;stroke:#4cc9f0;stroke-opacity:0.7;stroke-width:0.5;"/>
    <path clip-path="url(#p5e33ce1e2c)" d="M 380.85207 286.722215 
C 384.6007 286.722215 388.1963 285.232868 390.846982 282.582187 
C 393.497664 279.931505 394.98701 276.335905 394.98701 272.587275 
C 394.98701 268.838645 393.497664 265.243045 390.846982 262.592363 
C 388.1963 259.941682 384.6007 258.452335 380.85207 258.452335 
C 377.10344 258.452335 373.50784 259.941682 370.857158 262.592363 
C 368.206477 265.243045 366.71713 268.838645 366.71713 272.587275 
C 366.71713 276.335905 368.206477 279.931505 370.857158 282.582187 
C 373.50784 285.232868 377.10344 286.722215 380.85207 286.722215 
z
" style="fill:#4cc9f0;fill-opacity:0.7;stroke:#4cc9f0;stroke-opacity:0.7;stroke-width:0.5;"/>
    <path clip-path="url(#p5e33ce1e2c)" d="M 254.492179 282.348449 
C 254.844633 282.348449 255.182699 282.208418 255.431922 281.959195 
C 255.681144 281.709973 255.821176 281.371907 255.821176 281.019453 
C 255.821176 280.666999 255.681144 280.328933 255.431922 280.07971 
C 255.182699 279.830488 254.844633 279.690456 254.492179 279.690456 
C 254.139725 279.690456 253.801659 279.830488 253.552437 280.07971 
C 253.303214 280.328933 253.163183 280.666999 253.163183 281.019453 
C 253.163183 281.371907 253.303214 281.709973 253.552437 281.959195 
C 253.801659 282.208418 254.139725 282.348449 254.492179 282.348449 
z
" style="fill:#4cc9f0;fill-opacity:0.7;stroke:#4cc9f0;stroke-opacity:0.7;stroke-width:0.5;"/>
    <path clip-path="url(#p5e33ce1e2c)" d="M 306.622407 296.050916 
C 307.036982 296.050916 307.434632 295.886204 307.727781 295.593055 
C 308.020929 295.299907 308.185642 294.902257 308.185642 294.487682 
C 308.185642 294.073107 308.020929 293.675457 307.727781 293.382308 
C 307.434632 293.08916 307.036982 292.924448 306.622407 292.924448 
C 306.207833 292.924448 305.810182 293.08916 305.517034 293.382308 
C 305.223885 293.675457 305.059173 294.073107 305.059173 294.487682 
C 305.059173 294.902257 305.223885 295.299907 305.517034 295.593055 
C 305.810182 295.886204 306.207833 296.050916 306.622407 296.050916 
z
" style="fill:#4cc9f0;fill-opacity:0.7;stroke:#4cc9f0;stroke-opacity:0.7;stroke-width:0.5;"/>
    <path clip-path="url(#p5e33ce1e2c)" d="M 311.527484 306.443448 
C 312.171305 306.443448 312.788843 306.187656 313.244093 305.732406 
C 313.699343 305.277156 313.955135 304.659618 313.955135 304.015797 
C 313.955135 303.371977 313.699343 302.754438 313.244093 302.299189 
C 312.788843 301.843939 312.171305 301.588146 311.527484 301.588146 
C 310.883664 301.588146 310.266125 301.843939 309.810876 302.299189 
C 309.355626 302.754438 309.099833 303.371977 309.099833 304.015797 
C 309.099833 304.659618 309.355626 305.277156 309.810876 305.732406 
C 310.266125 306.187656 310.883664 306.443448 311.527484 306.443448 
z
" style="fill:#4cc9f0;fill-opacity:0.7;stroke:#4cc9f0;stroke-opacity:0.7;stroke-width:0.5;"/>
    <path clip-path="url(#p5e33ce1e2c)" d="M 331.361995 290.090511 
C 331.544158 290.090511 331.718886 290.018137 331.847695 289.889327 
C 331.976505 289.760518 332.048879 289.585791 332.048879 289.403627 
C 332.048879 289.221463 331.976505 289.046735 331.847695 288.917926 
C 331.718886 288.789117 331.544158 288.716742 331.361995 288.716742 
C 331.179831 288.716742 331.005103 288.789117 330.876294 288.917926 
C 330.747485 289.046735 330.67511 289.221463 330.67511 289.403627 
C 330.67511 289.585791 330.747485 289.760518 330.876294 289.889327 
C 331.005103 290.018137 331.179831 290.090511 331.361995 290.090511 
z
" style="fill:#4cc9f0;fill-opacity:0.7;stroke:#4cc9f0;stroke-opacity:0.7;stroke-width:0.5;"/>
    <path clip-path="url(#p5e33ce1e2c)" d="M 331.393262 256.999325 
C 332.004926 256.999325 332.591621 256.756308 333.024133 256.323796 
C 333.456645 255.891284 333.699662 255.304589 333.699662 254.692924 
C 333.699662 254.08126 333.456645 253.494565 333.024133 253.062053 
C 332.591621 252.629541 332.004926 252.386524 331.393262 252.386524 
C 330.781597 252.386524 330.194903 252.629541 329.76239 253.062053 
C 329.329878 253.494565 329.086861 254.08126 329.086861 254.692924 
C 329.086861 255.304589 329.329878 255.891284 329.76239 256.323796 
C 330.194903 256.756308 330.781597 256.999325 331.393262 256.999325 
z
" style="fill:#4cc9f0;fill-opacity:0.7;stroke:#4cc9f0;stroke-opacity:0.7;stroke-width:0.5;"/>
    <path clip-path="url(#p5e33ce1e2c)" d="M 299.780014 233.632011 
C 299.97636 233.632011 300.16469 233.554002 300.303528 233.415164 
C 300.442365 233.276327 300.520374 233.087996 300.520374 232.89165 
C 300.520374 232.695304 300.442365 232.506974 300.303528 232.368136 
C 300.16469 232.229299 299.97636 232.15129 299.780014 232.15129 
C 299.583668 232.15129 299.395337 232.229299 299.2565 232.368136 
C 299.117662 232.506974 299.039653 232.695304 299.039653 232.89165 
C 299.039653 233.087996 299.117662 233.276327 299.2565 233.415164 
C 299.395337 233.554002 299.583668 233.632011 299.780014 233.632011 
z
" style="fill:#4cc9f0;fill-opacity:0.7;stroke:#4cc9f0;stroke-opacity:0.7;stroke-width:0.5;"/>
    <path clip-path="url(#p5e33ce1e2c)" d="M 412.806121 140.016242 
C 412.883935 140.016242 412.958572 139.985326 413.013595 139.930304 
C 413.068617 139.875281 413.099533 139.800644 413.099533 139.72283 
C 413.099533 139.645016 413.068617 139.570379 413.013595 139.515356 
C 412.958572 139.460334 412.883935 139.429418 412.806121 139.429418 
C 412.728307 139.429418 412.65367 139.460334 412.598647 139.515356 
C 412.543625 139.570379 412.512709 139.645016 412.512709 139.72283 
C 412.512709 139.800644 412.543625 139.875281 412.598647 139.930304 
C 412.65367 139.985326 412.728307 140.016242 412.806121 140.016242 
z
" style="fill:#4cc9f0;fill-opacity:0.7;stroke:#4cc9f0;stroke-opacity:0.7;stroke-width:0.5;"/>
    <path clip-path="url(#p5e33ce1e2c)" d="M 359.027196 136.317257 
C 359.9027 136.317257 360.742463 135.969415 361.361538 135.350341 
C 361.980613 134.731266 362.328454 133.891503 362.328454 133.015999 
C 362.328454 132.140495 361.980613 131.300731 361.361538 130.681657 
C 360.742463 130.062582 359.9027 129.714741 359.027196 129.714741 
C 358.151692 129.714741 357.311929 130.062582 356.692854 130.681657 
C 356.073779 131.300731 355.725938 132.140495 355.725938 133.015999 
C 355.725938 133.891503 356.073779 134.731266 356.692854 135.350341 
C 357.311929 135.969415 358.151692 136.317257 359.027196 136.317257 
z
" style="fill:#4cc9f0;fill-opacity:0.7;stroke:#4cc9f0;stroke-opacity:0.7;stroke-width:0.5;"/>
    <path clip-path="url(#p5e33ce1e2c)" d="M 358.749308 117.780757 
C 358.975327 117.780757 359.192119 117.690958 359.351939 117.531139 
C 359.511759 117.371319 359.601557 117.154527 359.601557 116.928507 
C 359.601557 116.702488 359.511759 116.485696 359.351939 116.325876 
C 359.192119 116.166057 358.975327 116.076258 358.749308 116.076258 
C 358.523289 116.076258 358.306496 116.166057 358.146677 116.325876 
C 357.986857 116.485696 357.897059 116.702488 357.897059 116.928507 
C 357.897059 117.154527 357.986857 117.371319 358.146677 117.531139 
C 358.306496 117.690958 358.523289 117.780757 358.749308 117.780757 
z
" style="fill:#4cc9f0;fill-opacity:0.7;stroke:#4cc9f0;stroke-opacity:0.7;stroke-width:0.5;"/>
    <path clip-path="url(#p5e33ce1e2c)" d="M 335.470512 246.695037 
C 335.761365 246.695037 336.040345 246.57948 336.246009 246.373816 
C 336.451673 246.168152 336.56723 245.889172 336.56723 245.598319 
C 336.56723 245.307466 336.451673 245.028486 336.246009 244.822822 
C 336.040345 244.617158 335.761365 244.501601 335.470512 244.501601 
C 335.179659 244.501601 334.900679 244.617158 334.695015 244.822822 
C 334.489351 245.028486 334.373794 245.307466 334.373794 245.598319 
C 334.373794 245.889172 334.489351 246.168152 334.695015 246.373816 
C 334.900679 246.57948 335.179659 246.695037 335.470512 246.695037 
z
" style="fill:#4cc9f0;fill-opacity:0.7;stroke:#4cc9f0;stroke-opacity:0.7;stroke-width:0.5;"/>
    <path clip-path="url(#p5e33ce1e2c)" d="M 401.843298 236.621037 
C 402.281707 236.621037 402.70222 236.446855 403.012222 236.136853 
C 403.322224 235.826851 403.496406 235.406339 403.496406 234.967929 
C 403.496406 234.52952 403.322224 234.109008 403.012222 233.799006 
C 402.70222 233.489004 402.281707 233.314822 401.843298 233.314822 
C 401.404889 233.314822 400.984377 233.489004 400.674375 233.799006 
C 400.364373 234.109008 400.190191 234.52952 400.190191 234.967929 
C 400.190191 235.406339 400.364373 235.826851 400.674375 236.136853 
C 400.984377 236.446855 401.404889 236.621037 401.843298 236.621037 
z
" style="fill:#4cc9f0;fill-opacity:0.7;stroke:#4cc9f0;stroke-opacity:0.7;stroke-width:0.5;"/>
    <path clip-path="url(#p5e33ce1e2c)" d="M 343.643836 268.02551 
C 344.018451 268.02551 344.377773 267.876674 344.642665 267.611782 
C 344.907558 267.346889 345.056394 266.987567 345.056394 266.612953 
C 345.056394 266.238338 344.907558 265.879016 344.642665 265.614124 
C 344.377773 265.349231 344.018451 265.200395 343.643836 265.200395 
C 343.269222 265.200395 342.9099 265.349231 342.645007 265.614124 
C 342.380115 265.879016 342.231279 266.238338 342.231279 266.612953 
C 342.231279 266.987567 342.380115 267.346889 342.645007 267.611782 
C 342.9099 267.876674 343.269222 268.02551 343.643836 268.02551 
z
" style="fill:#4cc9f0;fill-opacity:0.7;stroke:#4cc9f0;stroke-opacity:0.7;stroke-width:0.5;"/>
    <path clip-path="url(#p5e33ce1e2c)" d="M 249.739128 240.516694 
C 250.406736 240.516694 251.047091 240.25145 251.519161 239.77938 
C 251.991231 239.30731 252.256475 238.666955 252.256475 237.999347 
C 252.256475 237.331739 251.991231 236.691385 251.519161 236.219315 
C 251.047091 235.747244 250.406736 235.482001 249.739128 235.482001 
C 249.07152 235.482001 248.431166 235.747244 247.959095 236.219315 
C 247.487025 236.691385 247.221782 237.331739 247.221782 237.999347 
C 247.221782 238.666955 247.487025 239.30731 247.959095 239.77938 
C 248.431166 240.25145 249.07152 240.516694 249.739128 240.516694 
z
" style="fill:#4cc9f0;fill-opacity:0.7;stroke:#4cc9f0;stroke-opacity:0.7;stroke-width:0.5;"/>
    <path clip-path="url(#p5e33ce1e2c)" d="M 361.481385 136.186663 
C 362.061992 136.186663 362.618896 135.955985 363.029447 135.545434 
C 363.439998 135.134883 363.670676 134.577979 363.670676 133.997372 
C 363.670676 133.416765 363.439998 132.85986 363.029447 132.449309 
C 362.618896 132.038758 362.061992 131.808081 361.481385 131.808081 
C 360.900778 131.808081 360.343873 132.038758 359.933322 132.449309 
C 359.522771 132.85986 359.292094 133.416765 359.292094 133.997372 
C 359.292094 134.577979 359.522771 135.134883 359.933322 135.545434 
C 360.343873 135.955985 360.900778 136.186663 361.481385 136.186663 
z
" style="fill:#4cc9f0;fill-opacity:0.7;stroke:#4cc9f0;stroke-opacity:0.7;stroke-width:0.5;"/>
    <path clip-path="url(#p5e33ce1e2c)" d="M 265.856135 307.368493 
C 266.833593 307.368493 267.771148 306.980145 268.462315 306.288978 
C 269.153482 305.597811 269.54183 304.660256 269.54183 303.682798 
C 269.54183 302.705341 269.153482 301.767786 268.462315 301.076619 
C 267.771148 300.385452 266.833593 299.997103 265.856135 299.997103 
C 264.878677 299.997103 263.941122 300.385452 263.249955 301.076619 
C 262.558788 301.767786 262.17044 302.705341 262.17044 303.682798 
C 262.17044 304.660256 262.558788 305.597811 263.249955 306.288978 
C 263.941122 306.980145 264.878677 307.368493 265.856135 307.368493 
z
" style="fill:#4cc9f0;fill-opacity:0.7;stroke:#4cc9f0;stroke-opacity:0.7;stroke-width:0.5;"/>
    <path clip-path="url(#p5e33ce1e2c)" d="M 385.443904 130.647396 
C 385.656202 130.647396 385.859833 130.563049 386.009951 130.412932 
C 386.160068 130.262814 386.244415 130.059183 386.244415 129.846885 
C 386.244415 129.634587 386.160068 129.430956 386.009951 129.280839 
C 385.859833 129.130722 385.656202 129.046375 385.443904 129.046375 
C 385.231606 129.046375 385.027975 129.130722 384.877858 129.280839 
C 384.72774 129.430956 384.643394 129.634587 384.643394 129.846885 
C 384.643394 130.059183 384.72774 130.262814 384.877858 130.412932 
C 385.027975 130.563049 385.231606 130.647396 385.443904 130.647396 
z
" style="fill:#4cc9f0;fill-opacity:0.7;stroke:#4cc9f0;stroke-opacity:0.7;stroke-width:0.5;"/>
    <path clip-path="url(#p5e33ce1e2c)" d="M 357.096448 121.819388 
C 357.796625 121.819388 358.468219 121.541205 358.963319 121.046105 
C 359.458419 120.551005 359.736602 119.879411 359.736602 119.179234 
C 359.736602 118.479057 359.458419 117.807464 358.963319 117.312364 
C 358.468219 116.817264 357.796625 116.539081 357.096448 116.539081 
C 356.396272 116.539081 355.724678 116.817264 355.229578 117.312364 
C 354.734478 117.807464 354.456295 118.479057 354.456295 119.179234 
C 354.456295 119.879411 354.734478 120.551005 355.229578 121.046105 
C 355.724678 121.541205 356.396272 121.819388 357.096448 121.819388 
z
" style="fill:#4cc9f0;fill-opacity:0.7;stroke:#4cc9f0;stroke-opacity:0.7;stroke-width:0.5;"/>
    <path clip-path="url(#p5e33ce1e2c)" d="M 307.554254 219.518228 
C 307.658802 219.518228 307.759083 219.476691 307.83301 219.402764 
C 307.906937 219.328837 307.948474 219.228556 307.948474 219.124008 
C 307.948474 219.019459 307.906937 218.919179 307.83301 218.845252 
C 307.759083 218.771325 307.658802 218.729787 307.554254 218.729787 
C 307.449705 218.729787 307.349425 218.771325 307.275498 218.845252 
C 307.201571 218.919179 307.160033 219.019459 307.160033 219.124008 
C 307.160033 219.228556 307.201571 219.328837 307.275498 219.402764 
C 307.349425 219.476691 307.449705 219.518228 307.554254 219.518228 
z
" style="fill:#4cc9f0;fill-opacity:0.7;stroke:#4cc9f0;stroke-opacity:0.7;stroke-width:0.5;"/>
    <path clip-path="url(#p5e33ce1e2c)" d="M 341.960996 141.303561 
C 342.713947 141.303561 343.436161 141.004411 343.968578 140.471994 
C 344.500995 139.939577 344.800145 139.217363 344.800145 138.464412 
C 344.800145 137.711461 344.500995 136.989248 343.968578 136.456831 
C 343.436161 135.924414 342.713947 135.625263 341.960996 135.625263 
C 341.208045 135.625263 340.485832 135.924414 339.953415 136.456831 
C 339.420998 136.989248 339.121847 137.711461 339.121847 138.464412 
C 339.121847 139.217363 339.420998 139.939577 339.953415 140.471994 
C 340.485832 141.004411 341.208045 141.303561 341.960996 141.303561 
z
" style="fill:#4cc9f0;fill-opacity:0.7;stroke:#4cc9f0;stroke-opacity:0.7;stroke-width:0.5;"/>
    <path clip-path="url(#p5e33ce1e2c)" d="M 368.864852 290.507524 
C 369.33569 290.507524 369.787306 290.320458 370.120238 289.987526 
C 370.453171 289.654593 370.640236 289.202977 370.640236 288.73214 
C 370.640236 288.261302 370.453171 287.809686 370.120238 287.476754 
C 369.787306 287.143821 369.33569 286.956756 368.864852 286.956756 
C 368.394015 286.956756 367.942398 287.143821 367.609466 287.476754 
C 367.276534 287.809686 367.089468 288.261302 367.089468 288.73214 
C 367.089468 289.202977 367.276534 289.654593 367.609466 289.987526 
C 367.942398 290.320458 368.394015 290.507524 368.864852 290.507524 
z
" style="fill:#4cc9f0;fill-opacity:0.7;stroke:#4cc9f0;stroke-opacity:0.7;stroke-width:0.5;"/>
    <path clip-path="url(#p5e33ce1e2c)" d="M 371.866862 179.846267 
C 372.135415 179.846267 372.393004 179.73957 372.582899 179.549675 
C 372.772794 179.359779 372.879491 179.10219 372.879491 178.833638 
C 372.879491 178.565085 372.772794 178.307496 372.582899 178.117601 
C 372.393004 177.927706 372.135415 177.821009 371.866862 177.821009 
C 371.59831 177.821009 371.340721 177.927706 371.150825 178.117601 
C 370.96093 178.307496 370.854233 178.565085 370.854233 178.833638 
C 370.854233 179.10219 370.96093 179.359779 371.150825 179.549675 
C 371.340721 179.73957 371.59831 179.846267 371.866862 179.846267 
z
" style="fill:#4cc9f0;fill-opacity:0.7;stroke:#4cc9f0;stroke-opacity:0.7;stroke-width:0.5;"/>
    <path clip-path="url(#p5e33ce1e2c)" d="M 288.915486 276.361508 
C 289.257608 276.361508 289.585763 276.225581 289.82768 275.983665 
C 290.069596 275.741748 290.205523 275.413593 290.205523 275.071471 
C 290.205523 274.729349 290.069596 274.401194 289.82768 274.159277 
C 289.585763 273.917361 289.257608 273.781434 288.915486 273.781434 
C 288.573364 273.781434 288.245209 273.917361 288.003292 274.159277 
C 287.761375 274.401194 287.625449 274.729349 287.625449 275.071471 
C 287.625449 275.413593 287.761375 275.741748 288.003292 275.983665 
C 288.245209 276.225581 288.573364 276.361508 288.915486 276.361508 
z
" style="fill:#4cc9f0;fill-opacity:0.7;stroke:#4cc9f0;stroke-opacity:0.7;stroke-width:0.5;"/>
    <path clip-path="url(#p5e33ce1e2c)" d="M 349.02375 103.915624 
C 349.283188 103.915624 349.532034 103.812548 349.715484 103.629098 
C 349.898934 103.445648 350.00201 103.196802 350.00201 102.937364 
C 350.00201 102.677927 349.898934 102.42908 349.715484 102.24563 
C 349.532034 102.06218 349.283188 101.959105 349.02375 101.959105 
C 348.764313 101.959105 348.515466 102.06218 348.332016 102.24563 
C 348.148566 102.42908 348.045491 102.677927 348.045491 102.937364 
C 348.045491 103.196802 348.148566 103.445648 348.332016 103.629098 
C 348.515466 103.812548 348.764313 103.915624 349.02375 103.915624 
z
" style="fill:#4cc9f0;fill-opacity:0.7;stroke:#4cc9f0;stroke-opacity:0.7;stroke-width:0.5;"/>
    <path clip-path="url(#p5e33ce1e2c)" d="M 317.837146 286.450554 
C 318.09108 286.450554 318.334649 286.349665 318.514208 286.170106 
C 318.693766 285.990547 318.794656 285.746979 318.794656 285.493044 
C 318.794656 285.23911 318.693766 284.995542 318.514208 284.815983 
C 318.334649 284.636424 318.09108 284.535535 317.837146 284.535535 
C 317.583211 284.535535 317.339643 284.636424 317.160084 284.815983 
C 316.980525 284.995542 316.879636 285.23911 316.879636 285.493044 
C 316.879636 285.746979 316.980525 285.990547 317.160084 286.170106 
C 317.339643 286.349665 317.583211 286.450554 317.837146 286.450554 
z
" style="fill:#4cc9f0;fill-opacity:0.7;stroke:#4cc9f0;stroke-opacity:0.7;stroke-width:0.5;"/>
    <path clip-path="url(#p5e33ce1e2c)" d="M 348.102876 304.175449 
C 348.379445 304.175449 348.644724 304.065567 348.840288 303.870004 
C 349.035851 303.67444 349.145733 303.409161 349.145733 303.132593 
C 349.145733 302.856024 349.035851 302.590745 348.840288 302.395181 
C 348.644724 302.199618 348.379445 302.089736 348.102876 302.089736 
C 347.826307 302.089736 347.561029 302.199618 347.365465 302.395181 
C 347.169901 302.590745 347.060019 302.856024 347.060019 303.132593 
C 347.060019 303.409161 347.169901 303.67444 347.365465 303.870004 
C 347.561029 304.065567 347.826307 304.175449 348.102876 304.175449 
z
" style="fill:#4cc9f0;fill-opacity:0.7;stroke:#4cc9f0;stroke-opacity:0.7;stroke-width:0.5;"/>
    <path clip-path="url(#p5e33ce1e2c)" d="M 341.155382 192.328479 
C 341.437698 192.328479 341.708488 192.216314 341.908116 192.016687 
C 342.107743 191.817059 342.219909 191.546268 342.219909 191.263953 
C 342.219909 190.981637 342.107743 190.710846 341.908116 190.511218 
C 341.708488 190.311591 341.437698 190.199426 341.155382 190.199426 
C 340.873066 190.199426 340.602275 190.311591 340.402647 190.511218 
C 340.20302 190.710846 340.090855 190.981637 340.090855 191.263953 
C 340.090855 191.546268 340.20302 191.817059 340.402647 192.016687 
C 340.602275 192.216314 340.873066 192.328479 341.155382 192.328479 
z
" style="fill:#4cc9f0;fill-opacity:0.7;stroke:#4cc9f0;stroke-opacity:0.7;stroke-width:0.5;"/>
    <path clip-path="url(#p5e33ce1e2c)" d="M 329.911914 274.0701 
C 331.381225 274.0701 332.790554 273.486337 333.829513 272.447378 
C 334.868472 271.408418 335.452235 269.999089 335.452235 268.529779 
C 335.452235 267.060469 334.868472 265.65114 333.829513 264.61218 
C 332.790554 263.573221 331.381225 262.989458 329.911914 262.989458 
C 328.442604 262.989458 327.033275 263.573221 325.994315 264.61218 
C 324.955356 265.65114 324.371593 267.060469 324.371593 268.529779 
C 324.371593 269.999089 324.955356 271.408418 325.994315 272.447378 
C 327.033275 273.486337 328.442604 274.0701 329.911914 274.0701 
z
" style="fill:#4cc9f0;fill-opacity:0.7;stroke:#4cc9f0;stroke-opacity:0.7;stroke-width:0.5;"/>
    <path clip-path="url(#p5e33ce1e2c)" d="M 329.616653 291.242236 
C 332.543488 291.242236 335.350841 290.079392 337.420426 288.009807 
C 339.490011 285.940222 340.652855 283.132869 340.652855 280.206034 
C 340.652855 277.279199 339.490011 274.471846 337.420426 272.402261 
C 335.350841 270.332676 332.543488 269.169833 329.616653 269.169833 
C 326.689818 269.169833 323.882465 270.332676 321.81288 272.402261 
C 319.743296 274.471846 318.580452 277.279199 318.580452 280.206034 
C 318.580452 283.132869 319.743296 285.940222 321.81288 288.009807 
C 323.882465 290.079392 326.689818 291.242236 329.616653 291.242236 
z
" style="fill:#4cc9f0;fill-opacity:0.7;stroke:#4cc9f0;stroke-opacity:0.7;stroke-width:0.5;"/>
    <path clip-path="url(#p5e33ce1e2c)" d="M 363.387509 -41.108127 
C 363.580739 -41.108127 363.766081 -41.184898 363.902715 -41.321532 
C 364.039349 -41.458167 364.11612 -41.643508 364.11612 -41.836738 
C 364.11612 -42.029968 364.039349 -42.21531 363.902715 -42.351944 
C 363.766081 -42.488578 363.580739 -42.565349 363.387509 -42.565349 
C 363.194279 -42.565349 363.008937 -42.488578 362.872303 -42.351944 
C 362.735669 -42.21531 362.658898 -42.029968 362.658898 -41.836738 
C 362.658898 -41.643508 362.735669 -41.458167 362.872303 -41.321532 
C 363.008937 -41.184898 363.194279 -41.108127 363.387509 -41.108127 
z
" style="fill:#4cc9f0;fill-opacity:0.7;stroke:#4cc9f0;stroke-opacity:0.7;stroke-width:0.5;"/>
    <path clip-path="url(#p5e33ce1e2c)" d="M 362.135449 225.786086 
C 362.784692 225.786086 363.407432 225.528139 363.866517 225.069054 
C 364.325601 224.60997 364.583549 223.98723 364.583549 223.337986 
C 364.583549 222.688743 364.325601 222.066003 363.866517 221.606919 
C 363.407432 221.147834 362.784692 220.889887 362.135449 220.889887 
C 361.486205 220.889887 360.863465 221.147834 360.404381 221.606919 
C 359.945296 222.066003 359.687349 222.688743 359.687349 223.337986 
C 359.687349 223.98723 359.945296 224.60997 360.404381 225.069054 
C 360.863465 225.528139 361.486205 225.786086 362.135449 225.786086 
z
" style="fill:#4cc9f0;fill-opacity:0.7;stroke:#4cc9f0;stroke-opacity:0.7;stroke-width:0.5;"/>
    <path clip-path="url(#p5e33ce1e2c)" d="M 314.670134 216.317094 
C 315.049581 216.317094 315.413538 216.166338 315.681848 215.898029 
C 315.950157 215.629719 316.100913 215.265762 316.100913 214.886315 
C 316.100913 214.506868 315.950157 214.142911 315.681848 213.874601 
C 315.413538 213.606291 315.049581 213.455535 314.670134 213.455535 
C 314.290687 213.455535 313.92673 213.606291 313.65842 213.874601 
C 313.39011 214.142911 313.239354 214.506868 313.239354 214.886315 
C 313.239354 215.265762 313.39011 215.629719 313.65842 215.898029 
C 313.92673 216.166338 314.290687 216.317094 314.670134 216.317094 
z
" style="fill:#4cc9f0;fill-opacity:0.7;stroke:#4cc9f0;stroke-opacity:0.7;stroke-width:0.5;"/>
    <path clip-path="url(#p5e33ce1e2c)" d="M 385.087184 128.348147 
C 385.145362 128.348147 385.201166 128.325032 385.242304 128.283894 
C 385.283442 128.242756 385.306557 128.186952 385.306557 128.128774 
C 385.306557 128.070596 385.283442 128.014792 385.242304 127.973654 
C 385.201166 127.932515 385.145362 127.909401 385.087184 127.909401 
C 385.029005 127.909401 384.973202 127.932515 384.932064 127.973654 
C 384.890925 128.014792 384.867811 128.070596 384.867811 128.128774 
C 384.867811 128.186952 384.890925 128.242756 384.932064 128.283894 
C 384.973202 128.325032 385.029005 128.348147 385.087184 128.348147 
z
" style="fill:#4cc9f0;fill-opacity:0.7;stroke:#4cc9f0;stroke-opacity:0.7;stroke-width:0.5;"/>
    <path clip-path="url(#p5e33ce1e2c)" d="M 361.182483 160.32322 
C 361.450289 160.32322 361.707162 160.21682 361.896529 160.027453 
C 362.085896 159.838086 362.192297 159.581212 362.192297 159.313407 
C 362.192297 159.045601 362.085896 158.788728 361.896529 158.599361 
C 361.707162 158.409993 361.450289 158.303593 361.182483 158.303593 
C 360.914677 158.303593 360.657804 158.409993 360.468437 158.599361 
C 360.27907 158.788728 360.172669 159.045601 360.172669 159.313407 
C 360.172669 159.581212 360.27907 159.838086 360.468437 160.027453 
C 360.657804 160.21682 360.914677 160.32322 361.182483 160.32322 
z
" style="fill:#4cc9f0;fill-opacity:0.7;stroke:#4cc9f0;stroke-opacity:0.7;stroke-width:0.5;"/>
    <path clip-path="url(#p5e33ce1e2c)" d="M 357.687582 133.600244 
C 358.353034 133.600244 358.991321 133.335857 359.461867 132.865311 
C 359.932413 132.394765 360.1968 131.756479 360.1968 131.091026 
C 360.1968 130.425574 359.932413 129.787288 359.461867 129.316742 
C 358.991321 128.846196 358.353034 128.581809 357.687582 128.581809 
C 357.02213 128.581809 356.383843 128.846196 355.913297 129.316742 
C 355.442752 129.787288 355.178365 130.425574 355.178365 131.091026 
C 355.178365 131.756479 355.442752 132.394765 355.913297 132.865311 
C 356.383843 133.335857 357.02213 133.600244 357.687582 133.600244 
z
" style="fill:#4cc9f0;fill-opacity:0.7;stroke:#4cc9f0;stroke-opacity:0.7;stroke-width:0.5;"/>
    <path clip-path="url(#p5e33ce1e2c)" d="M 316.368939 272.001947 
C 316.514258 272.001947 316.653644 271.944211 316.756399 271.841456 
C 316.859155 271.7387 316.91689 271.599314 316.91689 271.453996 
C 316.91689 271.308678 316.859155 271.169292 316.756399 271.066537 
C 316.653644 270.963781 316.514258 270.906045 316.368939 270.906045 
C 316.223621 270.906045 316.084235 270.963781 315.98148 271.066537 
C 315.878724 271.169292 315.820989 271.308678 315.820989 271.453996 
C 315.820989 271.599314 315.878724 271.7387 315.98148 271.841456 
C 316.084235 271.944211 316.223621 272.001947 316.368939 272.001947 
z
" style="fill:#4cc9f0;fill-opacity:0.7;stroke:#4cc9f0;stroke-opacity:0.7;stroke-width:0.5;"/>
    <path clip-path="url(#p5e33ce1e2c)" d="M 367.569561 236.300033 
C 367.771856 236.300033 367.965893 236.21966 368.108937 236.076616 
C 368.251982 235.933572 368.332354 235.739535 368.332354 235.53724 
C 368.332354 235.334945 368.251982 235.140908 368.108937 234.997864 
C 367.965893 234.85482 367.771856 234.774447 367.569561 234.774447 
C 367.367266 234.774447 367.17323 234.85482 367.030185 234.997864 
C 366.887141 235.140908 366.806769 235.334945 366.806769 235.53724 
C 366.806769 235.739535 366.887141 235.933572 367.030185 236.076616 
C 367.17323 236.21966 367.367266 236.300033 367.569561 236.300033 
z
" style="fill:#4cc9f0;fill-opacity:0.7;stroke:#4cc9f0;stroke-opacity:0.7;stroke-width:0.5;"/>
    <path clip-path="url(#p5e33ce1e2c)" d="M 385.753504 180.794953 
C 386.848999 180.794953 387.899772 180.359708 388.674404 179.585076 
C 389.449036 178.810445 389.88428 177.759671 389.88428 176.664176 
C 389.88428 175.568681 389.449036 174.517908 388.674404 173.743276 
C 387.899772 172.968644 386.848999 172.5334 385.753504 172.5334 
C 384.658009 172.5334 383.607235 172.968644 382.832604 173.743276 
C 382.057972 174.517908 381.622727 175.568681 381.622727 176.664176 
C 381.622727 177.759671 382.057972 178.810445 382.832604 179.585076 
C 383.607235 180.359708 384.658009 180.794953 385.753504 180.794953 
z
" style="fill:#4cc9f0;fill-opacity:0.7;stroke:#4cc9f0;stroke-opacity:0.7;stroke-width:0.5;"/>
    <path clip-path="url(#p5e33ce1e2c)" d="M 276.573956 297.669163 
C 277.216891 297.669163 277.833579 297.413722 278.288203 296.959098 
C 278.742826 296.504475 278.998267 295.887787 278.998267 295.244852 
C 278.998267 294.601917 278.742826 293.985229 278.288203 293.530606 
C 277.833579 293.075982 277.216891 292.820541 276.573956 292.820541 
C 275.931022 292.820541 275.314333 293.075982 274.85971 293.530606 
C 274.405086 293.985229 274.149646 294.601917 274.149646 295.244852 
C 274.149646 295.887787 274.405086 296.504475 274.85971 296.959098 
C 275.314333 297.413722 275.931022 297.669163 276.573956 297.669163 
z
" style="fill:#4cc9f0;fill-opacity:0.7;stroke:#4cc9f0;stroke-opacity:0.7;stroke-width:0.5;"/>
    <path clip-path="url(#p5e33ce1e2c)" d="M 274.43851 298.790716 
C 274.824088 298.790716 275.193926 298.637524 275.46657 298.36488 
C 275.739215 298.092235 275.892407 297.722398 275.892407 297.33682 
C 275.892407 296.951242 275.739215 296.581404 275.46657 296.30876 
C 275.193926 296.036115 274.824088 295.882923 274.43851 295.882923 
C 274.052932 295.882923 273.683095 296.036115 273.41045 296.30876 
C 273.137805 296.581404 272.984614 296.951242 272.984614 297.33682 
C 272.984614 297.722398 273.137805 298.092235 273.41045 298.36488 
C 273.683095 298.637524 274.052932 298.790716 274.43851 298.790716 
z
" style="fill:#4cc9f0;fill-opacity:0.7;stroke:#4cc9f0;stroke-opacity:0.7;stroke-width:0.5;"/>
    <path clip-path="url(#p5e33ce1e2c)" d="M 399.176839 170.679256 
C 399.860137 170.679256 400.51554 170.407779 400.998704 169.924615 
C 401.481869 169.44145 401.753346 168.786047 401.753346 168.102749 
C 401.753346 167.419452 401.481869 166.764048 400.998704 166.280884 
C 400.51554 165.79772 399.860137 165.526243 399.176839 165.526243 
C 398.493541 165.526243 397.838138 165.79772 397.354974 166.280884 
C 396.871809 166.764048 396.600332 167.419452 396.600332 168.102749 
C 396.600332 168.786047 396.871809 169.44145 397.354974 169.924615 
C 397.838138 170.407779 398.493541 170.679256 399.176839 170.679256 
z
" style="fill:#4cc9f0;fill-opacity:0.7;stroke:#4cc9f0;stroke-opacity:0.7;stroke-width:0.5;"/>
    <path clip-path="url(#p5e33ce1e2c)" d="M 348.595539 137.900852 
C 348.796335 137.900852 348.988934 137.821075 349.130918 137.679091 
C 349.272902 137.537107 349.352679 137.344508 349.352679 137.143712 
C 349.352679 136.942916 349.272902 136.750318 349.130918 136.608333 
C 348.988934 136.466349 348.796335 136.386572 348.595539 136.386572 
C 348.394743 136.386572 348.202144 136.466349 348.06016 136.608333 
C 347.918176 136.750318 347.838399 136.942916 347.838399 137.143712 
C 347.838399 137.344508 347.918176 137.537107 348.06016 137.679091 
C 348.202144 137.821075 348.394743 137.900852 348.595539 137.900852 
z
" style="fill:#4cc9f0;fill-opacity:0.7;stroke:#4cc9f0;stroke-opacity:0.7;stroke-width:0.5;"/>
    <path clip-path="url(#p5e33ce1e2c)" d="M 330.014449 254.219423 
C 330.394347 254.219423 330.758737 254.068488 331.027365 253.799859 
C 331.295994 253.531231 331.446929 253.166841 331.446929 252.786943 
C 331.446929 252.407044 331.295994 252.042655 331.027365 251.774026 
C 330.758737 251.505398 330.394347 251.354462 330.014449 251.354462 
C 329.63455 251.354462 329.270161 251.505398 329.001532 251.774026 
C 328.732903 252.042655 328.581968 252.407044 328.581968 252.786943 
C 328.581968 253.166841 328.732903 253.531231 329.001532 253.799859 
C 329.270161 254.068488 329.63455 254.219423 330.014449 254.219423 
z
" style="fill:#4cc9f0;fill-opacity:0.7;stroke:#4cc9f0;stroke-opacity:0.7;stroke-width:0.5;"/>
    <path clip-path="url(#p5e33ce1e2c)" d="M 387.718999 31.524897 
C 387.805774 31.524897 387.889007 31.490421 387.950366 31.429061 
C 388.011726 31.367702 388.046202 31.284469 388.046202 31.197694 
C 388.046202 31.110919 388.011726 31.027686 387.950366 30.966327 
C 387.889007 30.904967 387.805774 30.870491 387.718999 30.870491 
C 387.632224 30.870491 387.548991 30.904967 387.487632 30.966327 
C 387.426272 31.027686 387.391796 31.110919 387.391796 31.197694 
C 387.391796 31.284469 387.426272 31.367702 387.487632 31.429061 
C 387.548991 31.490421 387.632224 31.524897 387.718999 31.524897 
z
" style="fill:#4cc9f0;fill-opacity:0.7;stroke:#4cc9f0;stroke-opacity:0.7;stroke-width:0.5;"/>
    <path clip-path="url(#p5e33ce1e2c)" d="M 338.16593 269.768845 
C 338.609537 269.768845 339.035034 269.592599 339.348711 269.278922 
C 339.662388 268.965245 339.838635 268.539748 339.838635 268.096141 
C 339.838635 267.652535 339.662388 267.227038 339.348711 266.913361 
C 339.035034 266.599684 338.609537 266.423437 338.16593 266.423437 
C 337.722324 266.423437 337.296827 266.599684 336.98315 266.913361 
C 336.669473 267.227038 336.493226 267.652535 336.493226 268.096141 
C 336.493226 268.539748 336.669473 268.965245 336.98315 269.278922 
C 337.296827 269.592599 337.722324 269.768845 338.16593 269.768845 
z
" style="fill:#4cc9f0;fill-opacity:0.7;stroke:#4cc9f0;stroke-opacity:0.7;stroke-width:0.5;"/>
    <path clip-path="url(#p5e33ce1e2c)" d="M 242.406643 306.513415 
C 242.885653 306.513415 243.345109 306.323103 243.68382 305.984391 
C 244.022531 305.64568 244.212844 305.186225 244.212844 304.707215 
C 244.212844 304.228205 244.022531 303.76875 243.68382 303.430038 
C 243.345109 303.091327 242.885653 302.901015 242.406643 302.901015 
C 241.927634 302.901015 241.468178 303.091327 241.129467 303.430038 
C 240.790756 303.76875 240.600443 304.228205 240.600443 304.707215 
C 240.600443 305.186225 240.790756 305.64568 241.129467 305.984391 
C 241.468178 306.323103 241.927634 306.513415 242.406643 306.513415 
z
" style="fill:#4cc9f0;fill-opacity:0.7;stroke:#4cc9f0;stroke-opacity:0.7;stroke-width:0.5;"/>
    <path clip-path="url(#p5e33ce1e2c)" d="M 324.921592 230.170155 
C 325.880923 230.170155 326.801092 229.789009 327.479441 229.110659 
C 328.157791 228.43231 328.538937 227.512141 328.538937 226.55281 
C 328.538937 225.593479 328.157791 224.67331 327.479441 223.99496 
C 326.801092 223.316611 325.880923 222.935464 324.921592 222.935464 
C 323.962261 222.935464 323.042092 223.316611 322.363742 223.99496 
C 321.685393 224.67331 321.304246 225.593479 321.304246 226.55281 
C 321.304246 227.512141 321.685393 228.43231 322.363742 229.110659 
C 323.042092 229.789009 323.962261 230.170155 324.921592 230.170155 
z
" style="fill:#4cc9f0;fill-opacity:0.7;stroke:#4cc9f0;stroke-opacity:0.7;stroke-width:0.5;"/>
    <path clip-path="url(#p5e33ce1e2c)" d="M 272.522933 299.529433 
C 272.848053 299.529433 273.1599 299.400262 273.389795 299.170367 
C 273.619689 298.940472 273.748861 298.628625 273.748861 298.303505 
C 273.748861 297.978385 273.619689 297.666537 273.389795 297.436643 
C 273.1599 297.206748 272.848053 297.077577 272.522933 297.077577 
C 272.197813 297.077577 271.885965 297.206748 271.656071 297.436643 
C 271.426176 297.666537 271.297005 297.978385 271.297005 298.303505 
C 271.297005 298.628625 271.426176 298.940472 271.656071 299.170367 
C 271.885965 299.400262 272.197813 299.529433 272.522933 299.529433 
z
" style="fill:#4cc9f0;fill-opacity:0.7;stroke:#4cc9f0;stroke-opacity:0.7;stroke-width:0.5;"/>
    <path clip-path="url(#p5e33ce1e2c)" d="M 374.703898 137.106097 
C 374.764217 137.106097 374.822074 137.082132 374.864726 137.03948 
C 374.907378 136.996828 374.931343 136.938972 374.931343 136.878653 
C 374.931343 136.818334 374.907378 136.760477 374.864726 136.717825 
C 374.822074 136.675173 374.764217 136.651208 374.703898 136.651208 
C 374.643579 136.651208 374.585723 136.675173 374.543071 136.717825 
C 374.500419 136.760477 374.476454 136.818334 374.476454 136.878653 
C 374.476454 136.938972 374.500419 136.996828 374.543071 137.03948 
C 374.585723 137.082132 374.643579 137.106097 374.703898 137.106097 
z
" style="fill:#4cc9f0;fill-opacity:0.7;stroke:#4cc9f0;stroke-opacity:0.7;stroke-width:0.5;"/>
    <path clip-path="url(#p5e33ce1e2c)" d="M 273.124164 292.33465 
C 273.745291 292.33465 274.341063 292.087874 274.780266 291.64867 
C 275.21947 291.209467 275.466246 290.613695 275.466246 289.992568 
C 275.466246 289.37144 275.21947 288.775669 274.780266 288.336465 
C 274.341063 287.897262 273.745291 287.650485 273.124164 287.650485 
C 272.503036 287.650485 271.907265 287.897262 271.468062 288.336465 
C 271.028858 288.775669 270.782081 289.37144 270.782081 289.992568 
C 270.782081 290.613695 271.028858 291.209467 271.468062 291.64867 
C 271.907265 292.087874 272.503036 292.33465 273.124164 292.33465 
z
" style="fill:#4cc9f0;fill-opacity:0.7;stroke:#4cc9f0;stroke-opacity:0.7;stroke-width:0.5;"/>
    <path clip-path="url(#p5e33ce1e2c)" d="M 324.466853 306.132541 
C 324.89293 306.132541 325.301613 305.963259 325.602895 305.661978 
C 325.904176 305.360696 326.073458 304.952013 326.073458 304.525936 
C 326.073458 304.099859 325.904176 303.691176 325.602895 303.389895 
C 325.301613 303.088613 324.89293 302.919331 324.466853 302.919331 
C 324.040776 302.919331 323.632093 303.088613 323.330812 303.389895 
C 323.02953 303.691176 322.860248 304.099859 322.860248 304.525936 
C 322.860248 304.952013 323.02953 305.360696 323.330812 305.661978 
C 323.632093 305.963259 324.040776 306.132541 324.466853 306.132541 
z
" style="fill:#4cc9f0;fill-opacity:0.7;stroke:#4cc9f0;stroke-opacity:0.7;stroke-width:0.5;"/>
    <path clip-path="url(#p5e33ce1e2c)" d="M 296.125045 221.781658 
C 296.225408 221.781658 296.321675 221.741783 296.392642 221.670815 
C 296.46361 221.599848 296.503485 221.503581 296.503485 221.403218 
C 296.503485 221.302854 296.46361 221.206588 296.392642 221.13562 
C 296.321675 221.064652 296.225408 221.024777 296.125045 221.024777 
C 296.024681 221.024777 295.928415 221.064652 295.857447 221.13562 
C 295.786479 221.206588 295.746604 221.302854 295.746604 221.403218 
C 295.746604 221.503581 295.786479 221.599848 295.857447 221.670815 
C 295.928415 221.741783 296.024681 221.781658 296.125045 221.781658 
z
" style="fill:#4cc9f0;fill-opacity:0.7;stroke:#4cc9f0;stroke-opacity:0.7;stroke-width:0.5;"/>
    <path clip-path="url(#p5e33ce1e2c)" d="M 307.352311 307.307259 
C 307.713973 307.307259 308.060871 307.163569 308.316605 306.907835 
C 308.572339 306.652101 308.716029 306.305203 308.716029 305.943541 
C 308.716029 305.581879 308.572339 305.234981 308.316605 304.979247 
C 308.060871 304.723513 307.713973 304.579823 307.352311 304.579823 
C 306.990649 304.579823 306.643751 304.723513 306.388017 304.979247 
C 306.132283 305.234981 305.988593 305.581879 305.988593 305.943541 
C 305.988593 306.305203 306.132283 306.652101 306.388017 306.907835 
C 306.643751 307.163569 306.990649 307.307259 307.352311 307.307259 
z
" style="fill:#4cc9f0;fill-opacity:0.7;stroke:#4cc9f0;stroke-opacity:0.7;stroke-width:0.5;"/>
    <path clip-path="url(#p5e33ce1e2c)" d="M 373.269513 209.458632 
C 373.773743 209.458632 374.257389 209.258299 374.613933 208.901755 
C 374.970477 208.54521 375.17081 208.061565 375.17081 207.557335 
C 375.17081 207.053105 374.970477 206.56946 374.613933 206.212915 
C 374.257389 205.856371 373.773743 205.656038 373.269513 205.656038 
C 372.765284 205.656038 372.281638 205.856371 371.925094 206.212915 
C 371.568549 206.56946 371.368217 207.053105 371.368217 207.557335 
C 371.368217 208.061565 371.568549 208.54521 371.925094 208.901755 
C 372.281638 209.258299 372.765284 209.458632 373.269513 209.458632 
z
" style="fill:#4cc9f0;fill-opacity:0.7;stroke:#4cc9f0;stroke-opacity:0.7;stroke-width:0.5;"/>
    <path clip-path="url(#p5e33ce1e2c)" d="M 339.613689 246.482656 
C 339.724768 246.482656 339.831313 246.438524 339.909858 246.35998 
C 339.988402 246.281435 340.032535 246.17489 340.032535 246.063811 
C 340.032535 245.952732 339.988402 245.846188 339.909858 245.767643 
C 339.831313 245.689098 339.724768 245.644966 339.613689 245.644966 
C 339.50261 245.644966 339.396066 245.689098 339.317521 245.767643 
C 339.238976 245.846188 339.194844 245.952732 339.194844 246.063811 
C 339.194844 246.17489 339.238976 246.281435 339.317521 246.35998 
C 339.396066 246.438524 339.50261 246.482656 339.613689 246.482656 
z
" style="fill:#4cc9f0;fill-opacity:0.7;stroke:#4cc9f0;stroke-opacity:0.7;stroke-width:0.5;"/>
    <path clip-path="url(#p5e33ce1e2c)" d="M 306.640325 306.439817 
C 307.019875 306.439817 307.38393 306.289021 307.652311 306.020639 
C 307.920693 305.752257 308.07149 305.388202 308.07149 305.008653 
C 308.07149 304.629104 307.920693 304.265049 307.652311 303.996667 
C 307.38393 303.728285 307.019875 303.577488 306.640325 303.577488 
C 306.260776 303.577488 305.896721 303.728285 305.628339 303.996667 
C 305.359958 304.265049 305.209161 304.629104 305.209161 305.008653 
C 305.209161 305.388202 305.359958 305.752257 305.628339 306.020639 
C 305.896721 306.289021 306.260776 306.439817 306.640325 306.439817 
z
" style="fill:#4cc9f0;fill-opacity:0.7;stroke:#4cc9f0;stroke-opacity:0.7;stroke-width:0.5;"/>
    <path clip-path="url(#p5e33ce1e2c)" d="M 413.906944 289.046655 
C 415.009133 289.046655 416.066328 288.608751 416.845694 287.829385 
C 417.62506 287.050019 418.062964 285.992824 418.062964 284.890635 
C 418.062964 283.788446 417.62506 282.731251 416.845694 281.951885 
C 416.066328 281.172519 415.009133 280.734615 413.906944 280.734615 
C 412.804755 280.734615 411.74756 281.172519 410.968194 281.951885 
C 410.188829 282.731251 409.750924 283.788446 409.750924 284.890635 
C 409.750924 285.992824 410.188829 287.050019 410.968194 287.829385 
C 411.74756 288.608751 412.804755 289.046655 413.906944 289.046655 
z
" style="fill:#4cc9f0;fill-opacity:0.7;stroke:#4cc9f0;stroke-opacity:0.7;stroke-width:0.5;"/>
    <path clip-path="url(#p5e33ce1e2c)" d="M 348.224512 127.685779 
C 348.624482 127.685779 349.008123 127.526869 349.290945 127.244048 
C 349.573766 126.961227 349.732676 126.577585 349.732676 126.177615 
C 349.732676 125.777645 349.573766 125.394003 349.290945 125.111182 
C 349.008123 124.828361 348.624482 124.669451 348.224512 124.669451 
C 347.824542 124.669451 347.4409 124.828361 347.158079 125.111182 
C 346.875258 125.394003 346.716348 125.777645 346.716348 126.177615 
C 346.716348 126.577585 346.875258 126.961227 347.158079 127.244048 
C 347.4409 127.526869 347.824542 127.685779 348.224512 127.685779 
z
" style="fill:#4cc9f0;fill-opacity:0.7;stroke:#4cc9f0;stroke-opacity:0.7;stroke-width:0.5;"/>
    <path clip-path="url(#p5e33ce1e2c)" d="M 371.643742 94.76335 
C 371.863905 94.76335 372.075081 94.675878 372.230761 94.520198 
C 372.38644 94.364519 372.473912 94.153343 372.473912 93.933179 
C 372.473912 93.713016 372.38644 93.50184 372.230761 93.34616 
C 372.075081 93.190481 371.863905 93.103009 371.643742 93.103009 
C 371.423578 93.103009 371.212402 93.190481 371.056723 93.34616 
C 370.901043 93.50184 370.813571 93.713016 370.813571 93.933179 
C 370.813571 94.153343 370.901043 94.364519 371.056723 94.520198 
C 371.212402 94.675878 371.423578 94.76335 371.643742 94.76335 
z
" style="fill:#4cc9f0;fill-opacity:0.7;stroke:#4cc9f0;stroke-opacity:0.7;stroke-width:0.5;"/>
    <path clip-path="url(#p5e33ce1e2c)" d="M 342.2459 170.77627 
C 342.455312 170.77627 342.656175 170.69307 342.804252 170.544994 
C 342.952328 170.396917 343.035528 170.196054 343.035528 169.986642 
C 343.035528 169.77723 342.952328 169.576367 342.804252 169.428291 
C 342.656175 169.280214 342.455312 169.197014 342.2459 169.197014 
C 342.036488 169.197014 341.835625 169.280214 341.687549 169.428291 
C 341.539472 169.576367 341.456272 169.77723 341.456272 169.986642 
C 341.456272 170.196054 341.539472 170.396917 341.687549 170.544994 
C 341.835625 170.69307 342.036488 170.77627 342.2459 170.77627 
z
" style="fill:#4cc9f0;fill-opacity:0.7;stroke:#4cc9f0;stroke-opacity:0.7;stroke-width:0.5;"/>
    <path clip-path="url(#p5e33ce1e2c)" d="M 270.879384 285.68386 
C 271.908654 285.68386 272.895906 285.274927 273.623709 284.547123 
C 274.351513 283.819319 274.760446 282.832067 274.760446 281.802797 
C 274.760446 280.773527 274.351513 279.786275 273.623709 279.058471 
C 272.895906 278.330668 271.908654 277.921734 270.879384 277.921734 
C 269.850114 277.921734 268.862862 278.330668 268.135058 279.058471 
C 267.407254 279.786275 266.998321 280.773527 266.998321 281.802797 
C 266.998321 282.832067 267.407254 283.819319 268.135058 284.547123 
C 268.862862 285.274927 269.850114 285.68386 270.879384 285.68386 
z
" style="fill:#4cc9f0;fill-opacity:0.7;stroke:#4cc9f0;stroke-opacity:0.7;stroke-width:0.5;"/>
    <path clip-path="url(#p5e33ce1e2c)" d="M 341.252702 189.203199 
C 341.429902 189.203199 341.599869 189.132796 341.725169 189.007497 
C 341.850468 188.882197 341.920871 188.71223 341.920871 188.53503 
C 341.920871 188.357829 341.850468 188.187863 341.725169 188.062563 
C 341.599869 187.937263 341.429902 187.866861 341.252702 187.866861 
C 341.075501 187.866861 340.905535 187.937263 340.780235 188.062563 
C 340.654935 188.187863 340.584533 188.357829 340.584533 188.53503 
C 340.584533 188.71223 340.654935 188.882197 340.780235 189.007497 
C 340.905535 189.132796 341.075501 189.203199 341.252702 189.203199 
z
" style="fill:#4cc9f0;fill-opacity:0.7;stroke:#4cc9f0;stroke-opacity:0.7;stroke-width:0.5;"/>
    <path clip-path="url(#p5e33ce1e2c)" d="M 314.533472 269.801425 
C 315.069606 269.801425 315.583854 269.588417 315.962958 269.209313 
C 316.342062 268.830209 316.55507 268.315961 316.55507 267.779827 
C 316.55507 267.243693 316.342062 266.729446 315.962958 266.350342 
C 315.583854 265.971238 315.069606 265.758229 314.533472 265.758229 
C 313.997338 265.758229 313.483091 265.971238 313.103987 266.350342 
C 312.724883 266.729446 312.511874 267.243693 312.511874 267.779827 
C 312.511874 268.315961 312.724883 268.830209 313.103987 269.209313 
C 313.483091 269.588417 313.997338 269.801425 314.533472 269.801425 
z
" style="fill:#4cc9f0;fill-opacity:0.7;stroke:#4cc9f0;stroke-opacity:0.7;stroke-width:0.5;"/>
    <path clip-path="url(#p5e33ce1e2c)" d="M 317.850743 277.135318 
C 318.692883 277.135318 319.500644 276.800732 320.096127 276.205249 
C 320.69161 275.609766 321.026195 274.802005 321.026195 273.959865 
C 321.026195 273.117725 320.69161 272.309964 320.096127 271.714481 
C 319.500644 271.118998 318.692883 270.784413 317.850743 270.784413 
C 317.008603 270.784413 316.200842 271.118998 315.605359 271.714481 
C 315.009876 272.309964 314.67529 273.117725 314.67529 273.959865 
C 314.67529 274.802005 315.009876 275.609766 315.605359 276.205249 
C 316.200842 276.800732 317.008603 277.135318 317.850743 277.135318 
z
" style="fill:#4cc9f0;fill-opacity:0.7;stroke:#4cc9f0;stroke-opacity:0.7;stroke-width:0.5;"/>
    <path clip-path="url(#p5e33ce1e2c)" d="M 316.458009 183.346271 
C 316.990688 183.346271 317.501621 183.134635 317.878282 182.757975 
C 318.254943 182.381314 318.466578 181.870381 318.466578 181.337702 
C 318.466578 180.805023 318.254943 180.29409 317.878282 179.917429 
C 317.501621 179.540768 316.990688 179.329133 316.458009 179.329133 
C 315.92533 179.329133 315.414397 179.540768 315.037736 179.917429 
C 314.661075 180.29409 314.44944 180.805023 314.44944 181.337702 
C 314.44944 181.870381 314.661075 182.381314 315.037736 182.757975 
C 315.414397 183.134635 315.92533 183.346271 316.458009 183.346271 
z
" style="fill:#4cc9f0;fill-opacity:0.7;stroke:#4cc9f0;stroke-opacity:0.7;stroke-width:0.5;"/>
    <path clip-path="url(#p5e33ce1e2c)" d="M 356.512371 185.968521 
C 356.803684 185.968521 357.083104 185.852782 357.289093 185.646793 
C 357.495082 185.440804 357.610822 185.161383 357.610822 184.870071 
C 357.610822 184.578759 357.495082 184.299338 357.289093 184.093349 
C 357.083104 183.88736 356.803684 183.771621 356.512371 183.771621 
C 356.221059 183.771621 355.941638 183.88736 355.735649 184.093349 
C 355.52966 184.299338 355.413921 184.578759 355.413921 184.870071 
C 355.413921 185.161383 355.52966 185.440804 355.735649 185.646793 
C 355.941638 185.852782 356.221059 185.968521 356.512371 185.968521 
z
" style="fill:#4cc9f0;fill-opacity:0.7;stroke:#4cc9f0;stroke-opacity:0.7;stroke-width:0.5;"/>
    <path clip-path="url(#p5e33ce1e2c)" d="M 341.477371 263.193703 
C 341.713846 263.193703 341.940668 263.09975 342.107881 262.932537 
C 342.275094 262.765324 342.369046 262.538503 342.369046 262.302028 
C 342.369046 262.065553 342.275094 261.838731 342.107881 261.671518 
C 341.940668 261.504305 341.713846 261.410353 341.477371 261.410353 
C 341.240896 261.410353 341.014075 261.504305 340.846862 261.671518 
C 340.679649 261.838731 340.585696 262.065553 340.585696 262.302028 
C 340.585696 262.538503 340.679649 262.765324 340.846862 262.932537 
C 341.014075 263.09975 341.240896 263.193703 341.477371 263.193703 
z
" style="fill:#4cc9f0;fill-opacity:0.7;stroke:#4cc9f0;stroke-opacity:0.7;stroke-width:0.5;"/>
    <path clip-path="url(#p5e33ce1e2c)" d="M 356.174963 52.004916 
C 356.363546 52.004916 356.544431 51.929991 356.67778 51.796642 
C 356.811128 51.663293 356.886053 51.482409 356.886053 51.293825 
C 356.886053 51.105242 356.811128 50.924357 356.67778 50.791008 
C 356.544431 50.657659 356.363546 50.582734 356.174963 50.582734 
C 355.986379 50.582734 355.805494 50.657659 355.672145 50.791008 
C 355.538797 50.924357 355.463872 51.105242 355.463872 51.293825 
C 355.463872 51.482409 355.538797 51.663293 355.672145 51.796642 
C 355.805494 51.929991 355.986379 52.004916 356.174963 52.004916 
z
" style="fill:#4cc9f0;fill-opacity:0.7;stroke:#4cc9f0;stroke-opacity:0.7;stroke-width:0.5;"/>
    <path clip-path="url(#p5e33ce1e2c)" d="M 333.936825 204.632276 
C 334.327282 204.632276 334.701799 204.477146 334.977894 204.201051 
C 335.253989 203.924956 335.409119 203.550439 335.409119 203.159982 
C 335.409119 202.769525 335.253989 202.395008 334.977894 202.118913 
C 334.701799 201.842818 334.327282 201.687688 333.936825 201.687688 
C 333.546368 201.687688 333.171851 201.842818 332.895756 202.118913 
C 332.619661 202.395008 332.464531 202.769525 332.464531 203.159982 
C 332.464531 203.550439 332.619661 203.924956 332.895756 204.201051 
C 333.171851 204.477146 333.546368 204.632276 333.936825 204.632276 
z
" style="fill:#4cc9f0;fill-opacity:0.7;stroke:#4cc9f0;stroke-opacity:0.7;stroke-width:0.5;"/>
    <path clip-path="url(#p5e33ce1e2c)" d="M 242.0042 302.829609 
C 242.297677 302.829609 242.579173 302.713009 242.786693 302.50549 
C 242.994212 302.29797 243.110812 302.016474 243.110812 301.722997 
C 243.110812 301.42952 242.994212 301.148024 242.786693 300.940504 
C 242.579173 300.732985 242.297677 300.616385 242.0042 300.616385 
C 241.710723 300.616385 241.429227 300.732985 241.221707 300.940504 
C 241.014188 301.148024 240.897588 301.42952 240.897588 301.722997 
C 240.897588 302.016474 241.014188 302.29797 241.221707 302.50549 
C 241.429227 302.713009 241.710723 302.829609 242.0042 302.829609 
z
" style="fill:#4cc9f0;fill-opacity:0.7;stroke:#4cc9f0;stroke-opacity:0.7;stroke-width:0.5;"/>
    <path clip-path="url(#p5e33ce1e2c)" d="M 387.164335 83.571999 
C 387.640095 83.571999 388.096433 83.382977 388.432847 83.046564 
C 388.76926 82.710151 388.958281 82.253813 388.958281 81.778053 
C 388.958281 81.302293 388.76926 80.845955 388.432847 80.509541 
C 388.096433 80.173128 387.640095 79.984107 387.164335 79.984107 
C 386.688575 79.984107 386.232237 80.173128 385.895824 80.509541 
C 385.559411 80.845955 385.370389 81.302293 385.370389 81.778053 
C 385.370389 82.253813 385.559411 82.710151 385.895824 83.046564 
C 386.232237 83.382977 386.688575 83.571999 387.164335 83.571999 
z
" style="fill:#4cc9f0;fill-opacity:0.7;stroke:#4cc9f0;stroke-opacity:0.7;stroke-width:0.5;"/>
    <path clip-path="url(#p5e33ce1e2c)" d="M 281.945934 216.619327 
C 282.360531 216.619327 282.758203 216.454606 283.051367 216.161442 
C 283.344531 215.868278 283.509252 215.470606 283.509252 215.056009 
C 283.509252 214.641412 283.344531 214.24374 283.051367 213.950576 
C 282.758203 213.657412 282.360531 213.49269 281.945934 213.49269 
C 281.531337 213.49269 281.133665 213.657412 280.840501 213.950576 
C 280.547336 214.24374 280.382615 214.641412 280.382615 215.056009 
C 280.382615 215.470606 280.547336 215.868278 280.840501 216.161442 
C 281.133665 216.454606 281.531337 216.619327 281.945934 216.619327 
z
" style="fill:#4cc9f0;fill-opacity:0.7;stroke:#4cc9f0;stroke-opacity:0.7;stroke-width:0.5;"/>
    <path clip-path="url(#p5e33ce1e2c)" d="M 269.850756 296.728475 
C 270.16927 296.728475 270.474781 296.601928 270.700004 296.376705 
C 270.925227 296.151482 271.051774 295.845971 271.051774 295.527457 
C 271.051774 295.208944 270.925227 294.903433 270.700004 294.678209 
C 270.474781 294.452986 270.16927 294.326439 269.850756 294.326439 
C 269.532242 294.326439 269.226731 294.452986 269.001508 294.678209 
C 268.776285 294.903433 268.649738 295.208944 268.649738 295.527457 
C 268.649738 295.845971 268.776285 296.151482 269.001508 296.376705 
C 269.226731 296.601928 269.532242 296.728475 269.850756 296.728475 
z
" style="fill:#4cc9f0;fill-opacity:0.7;stroke:#4cc9f0;stroke-opacity:0.7;stroke-width:0.5;"/>
    <path clip-path="url(#p5e33ce1e2c)" d="M 443.602447 68.45494 
C 443.85645 68.45494 444.100084 68.354024 444.279692 68.174416 
C 444.459299 67.994809 444.560216 67.751175 444.560216 67.497172 
C 444.560216 67.243168 444.459299 66.999534 444.279692 66.819927 
C 444.100084 66.640319 443.85645 66.539403 443.602447 66.539403 
C 443.348443 66.539403 443.104809 66.640319 442.925202 66.819927 
C 442.745594 66.999534 442.644678 67.243168 442.644678 67.497172 
C 442.644678 67.751175 442.745594 67.994809 442.925202 68.174416 
C 443.104809 68.354024 443.348443 68.45494 443.602447 68.45494 
z
" style="fill:#4cc9f0;fill-opacity:0.7;stroke:#4cc9f0;stroke-opacity:0.7;stroke-width:0.5;"/>
    <path clip-path="url(#p5e33ce1e2c)" d="M 367.909098 110.445702 
C 368.203829 110.445702 368.486527 110.328605 368.694933 110.120199 
C 368.903339 109.911793 369.020437 109.629094 369.020437 109.334364 
C 369.020437 109.039634 368.903339 108.756935 368.694933 108.548529 
C 368.486527 108.340123 368.203829 108.223026 367.909098 108.223026 
C 367.614368 108.223026 367.331669 108.340123 367.123264 108.548529 
C 366.914858 108.756935 366.79776 109.039634 366.79776 109.334364 
C 366.79776 109.629094 366.914858 109.911793 367.123264 110.120199 
C 367.331669 110.328605 367.614368 110.445702 367.909098 110.445702 
z
" style="fill:#4cc9f0;fill-opacity:0.7;stroke:#4cc9f0;stroke-opacity:0.7;stroke-width:0.5;"/>
    <path clip-path="url(#p5e33ce1e2c)" d="M 288.868244 277.527839 
C 289.156192 277.527839 289.432385 277.413437 289.635995 277.209827 
C 289.839605 277.006217 289.954008 276.730023 289.954008 276.442075 
C 289.954008 276.154127 289.839605 275.877934 289.635995 275.674324 
C 289.432385 275.470714 289.156192 275.356311 288.868244 275.356311 
C 288.580296 275.356311 288.304103 275.470714 288.100493 275.674324 
C 287.896883 275.877934 287.78248 276.154127 287.78248 276.442075 
C 287.78248 276.730023 287.896883 277.006217 288.100493 277.209827 
C 288.304103 277.413437 288.580296 277.527839 288.868244 277.527839 
z
" style="fill:#4cc9f0;fill-opacity:0.7;stroke:#4cc9f0;stroke-opacity:0.7;stroke-width:0.5;"/>
    <path clip-path="url(#p5e33ce1e2c)" d="M 351.304175 256.27714 
C 352.114804 256.27714 352.89234 255.955074 353.46554 255.381874 
C 354.038741 254.808673 354.360807 254.031137 354.360807 253.220509 
C 354.360807 252.409881 354.038741 251.632345 353.46554 251.059144 
C 352.89234 250.485943 352.114804 250.163877 351.304175 250.163877 
C 350.493547 250.163877 349.716011 250.485943 349.14281 251.059144 
C 348.56961 251.632345 348.247544 252.409881 348.247544 253.220509 
C 348.247544 254.031137 348.56961 254.808673 349.14281 255.381874 
C 349.716011 255.955074 350.493547 256.27714 351.304175 256.27714 
z
" style="fill:#4cc9f0;fill-opacity:0.7;stroke:#4cc9f0;stroke-opacity:0.7;stroke-width:0.5;"/>
    <path clip-path="url(#p5e33ce1e2c)" d="M 292.219245 206.53905 
C 292.323174 206.53905 292.42286 206.497759 292.496349 206.42427 
C 292.569838 206.350781 292.611129 206.251095 292.611129 206.147166 
C 292.611129 206.043237 292.569838 205.94355 292.496349 205.870061 
C 292.42286 205.796573 292.323174 205.755281 292.219245 205.755281 
C 292.115316 205.755281 292.015629 205.796573 291.942141 205.870061 
C 291.868652 205.94355 291.82736 206.043237 291.82736 206.147166 
C 291.82736 206.251095 291.868652 206.350781 291.942141 206.42427 
C 292.015629 206.497759 292.115316 206.53905 292.219245 206.53905 
z
" style="fill:#4cc9f0;fill-opacity:0.7;stroke:#4cc9f0;stroke-opacity:0.7;stroke-width:0.5;"/>
    <path clip-path="url(#p5e33ce1e2c)" d="M 306.025861 250.680576 
C 306.278402 250.680576 306.520633 250.580241 306.699206 250.401668 
C 306.87778 250.223094 306.978115 249.980863 306.978115 249.728323 
C 306.978115 249.475782 306.87778 249.233551 306.699206 249.054978 
C 306.520633 248.876404 306.278402 248.776069 306.025861 248.776069 
C 305.773321 248.776069 305.53109 248.876404 305.352517 249.054978 
C 305.173943 249.233551 305.073608 249.475782 305.073608 249.728323 
C 305.073608 249.980863 305.173943 250.223094 305.352517 250.401668 
C 305.53109 250.580241 305.773321 250.680576 306.025861 250.680576 
z
" style="fill:#4cc9f0;fill-opacity:0.7;stroke:#4cc9f0;stroke-opacity:0.7;stroke-width:0.5;"/>
    <path clip-path="url(#p5e33ce1e2c)" d="M 356.92017 176.702791 
C 357.624195 176.702791 358.299481 176.423079 358.797302 175.925257 
C 359.295123 175.427436 359.574835 174.752151 359.574835 174.048125 
C 359.574835 173.3441 359.295123 172.668815 358.797302 172.170993 
C 358.299481 171.673172 357.624195 171.39346 356.92017 171.39346 
C 356.216144 171.39346 355.540859 171.673172 355.043038 172.170993 
C 354.545216 172.668815 354.265504 173.3441 354.265504 174.048125 
C 354.265504 174.752151 354.545216 175.427436 355.043038 175.925257 
C 355.540859 176.423079 356.216144 176.702791 356.92017 176.702791 
z
" style="fill:#4cc9f0;fill-opacity:0.7;stroke:#4cc9f0;stroke-opacity:0.7;stroke-width:0.5;"/>
    <path clip-path="url(#p5e33ce1e2c)" d="M 364.396074 131.188506 
C 364.842825 131.188506 365.271338 131.01101 365.587239 130.695109 
C 365.90314 130.379208 366.080636 129.950695 366.080636 129.503943 
C 366.080636 129.057192 365.90314 128.628679 365.587239 128.312778 
C 365.271338 127.996877 364.842825 127.819381 364.396074 127.819381 
C 363.949322 127.819381 363.520809 127.996877 363.204908 128.312778 
C 362.889007 128.628679 362.711511 129.057192 362.711511 129.503943 
C 362.711511 129.950695 362.889007 130.379208 363.204908 130.695109 
C 363.520809 131.01101 363.949322 131.188506 364.396074 131.188506 
z
" style="fill:#4cc9f0;fill-opacity:0.7;stroke:#4cc9f0;stroke-opacity:0.7;stroke-width:0.5;"/>
    <path clip-path="url(#p5e33ce1e2c)" d="M 332.888286 302.878678 
C 333.512688 302.878678 334.111599 302.6306 334.553117 302.189082 
C 334.994636 301.747564 335.242713 301.148652 335.242713 300.524251 
C 335.242713 299.89985 334.994636 299.300939 334.553117 298.85942 
C 334.111599 298.417902 333.512688 298.169825 332.888286 298.169825 
C 332.263885 298.169825 331.664974 298.417902 331.223456 298.85942 
C 330.781937 299.300939 330.53386 299.89985 330.53386 300.524251 
C 330.53386 301.148652 330.781937 301.747564 331.223456 302.189082 
C 331.664974 302.6306 332.263885 302.878678 332.888286 302.878678 
z
" style="fill:#4cc9f0;fill-opacity:0.7;stroke:#4cc9f0;stroke-opacity:0.7;stroke-width:0.5;"/>
    <path clip-path="url(#p5e33ce1e2c)" d="M 300.12088 302.352234 
C 300.620988 302.352234 301.10068 302.153539 301.454309 301.79991 
C 301.807938 301.44628 302.006633 300.966589 302.006633 300.466481 
C 302.006633 299.966374 301.807938 299.486682 301.454309 299.133053 
C 301.10068 298.779423 300.620988 298.580728 300.12088 298.580728 
C 299.620773 298.580728 299.141081 298.779423 298.787452 299.133053 
C 298.433822 299.486682 298.235128 299.966374 298.235128 300.466481 
C 298.235128 300.966589 298.433822 301.44628 298.787452 301.79991 
C 299.141081 302.153539 299.620773 302.352234 300.12088 302.352234 
z
" style="fill:#4cc9f0;fill-opacity:0.7;stroke:#4cc9f0;stroke-opacity:0.7;stroke-width:0.5;"/>
    <path clip-path="url(#p5e33ce1e2c)" d="M 321.523396 230.271972 
C 321.692888 230.271972 321.855461 230.204632 321.97531 230.084783 
C 322.095159 229.964934 322.162499 229.802361 322.162499 229.632868 
C 322.162499 229.463376 322.095159 229.300803 321.97531 229.180954 
C 321.855461 229.061105 321.692888 228.993765 321.523396 228.993765 
C 321.353903 228.993765 321.19133 229.061105 321.071481 229.180954 
C 320.951632 229.300803 320.884292 229.463376 320.884292 229.632868 
C 320.884292 229.802361 320.951632 229.964934 321.071481 230.084783 
C 321.19133 230.204632 321.353903 230.271972 321.523396 230.271972 
z
" style="fill:#4cc9f0;fill-opacity:0.7;stroke:#4cc9f0;stroke-opacity:0.7;stroke-width:0.5;"/>
    <path clip-path="url(#p5e33ce1e2c)" d="M 350.196125 83.402366 
C 351.845255 83.402366 353.427063 82.74716 354.593174 81.581049 
C 355.759285 80.414938 356.414491 78.83313 356.414491 77.184 
C 356.414491 75.53487 355.759285 73.953062 354.593174 72.786951 
C 353.427063 71.62084 351.845255 70.965634 350.196125 70.965634 
C 348.546995 70.965634 346.965187 71.62084 345.799076 72.786951 
C 344.632965 73.953062 343.977759 75.53487 343.977759 77.184 
C 343.977759 78.83313 344.632965 80.414938 345.799076 81.581049 
C 346.965187 82.74716 348.546995 83.402366 350.196125 83.402366 
z
" style="fill:#4cc9f0;fill-opacity:0.7;stroke:#4cc9f0;stroke-opacity:0.7;stroke-width:0.5;"/>
    <path clip-path="url(#p5e33ce1e2c)" d="M 348.72861 310.583883 
C 349.196477 310.583883 349.645244 310.397997 349.976075 310.067166 
C 350.306907 309.736334 350.492792 309.287568 350.492792 308.819701 
C 350.492792 308.351835 350.306907 307.903068 349.976075 307.572237 
C 349.645244 307.241405 349.196477 307.05552 348.72861 307.05552 
C 348.260744 307.05552 347.811977 307.241405 347.481146 307.572237 
C 347.150314 307.903068 346.964429 308.351835 346.964429 308.819701 
C 346.964429 309.287568 347.150314 309.736334 347.481146 310.067166 
C 347.811977 310.397997 348.260744 310.583883 348.72861 310.583883 
z
" style="fill:#4cc9f0;fill-opacity:0.7;stroke:#4cc9f0;stroke-opacity:0.7;stroke-width:0.5;"/>
    <path clip-path="url(#p5e33ce1e2c)" d="M 298.670171 291.903163 
C 299.64191 291.903163 300.573979 291.517087 301.261102 290.829964 
C 301.948225 290.142841 302.334301 289.210771 302.334301 288.239033 
C 302.334301 287.267294 301.948225 286.335225 301.261102 285.648102 
C 300.573979 284.960979 299.64191 284.574903 298.670171 284.574903 
C 297.698433 284.574903 296.766363 284.960979 296.07924 285.648102 
C 295.392117 286.335225 295.006041 287.267294 295.006041 288.239033 
C 295.006041 289.210771 295.392117 290.142841 296.07924 290.829964 
C 296.766363 291.517087 297.698433 291.903163 298.670171 291.903163 
z
" style="fill:#4cc9f0;fill-opacity:0.7;stroke:#4cc9f0;stroke-opacity:0.7;stroke-width:0.5;"/>
    <path clip-path="url(#p5e33ce1e2c)" d="M 322.883431 238.993887 
C 323.450725 238.993887 323.99486 238.768499 324.395997 238.367361 
C 324.797134 237.966224 325.022523 237.422089 325.022523 236.854796 
C 325.022523 236.287502 324.797134 235.743367 324.395997 235.34223 
C 323.99486 234.941093 323.450725 234.715704 322.883431 234.715704 
C 322.316138 234.715704 321.772003 234.941093 321.370866 235.34223 
C 320.969728 235.743367 320.74434 236.287502 320.74434 236.854796 
C 320.74434 237.422089 320.969728 237.966224 321.370866 238.367361 
C 321.772003 238.768499 322.316138 238.993887 322.883431 238.993887 
z
" style="fill:#4cc9f0;fill-opacity:0.7;stroke:#4cc9f0;stroke-opacity:0.7;stroke-width:0.5;"/>
    <path clip-path="url(#p5e33ce1e2c)" d="M 299.599936 291.69697 
C 299.896709 291.69697 300.181368 291.579061 300.391219 291.36921 
C 300.601069 291.159359 300.718979 290.874701 300.718979 290.577927 
C 300.718979 290.281153 300.601069 289.996495 300.391219 289.786644 
C 300.181368 289.576793 299.896709 289.458884 299.599936 289.458884 
C 299.303162 289.458884 299.018503 289.576793 298.808653 289.786644 
C 298.598802 289.996495 298.480892 290.281153 298.480892 290.577927 
C 298.480892 290.874701 298.598802 291.159359 298.808653 291.36921 
C 299.018503 291.579061 299.303162 291.69697 299.599936 291.69697 
z
" style="fill:#4cc9f0;fill-opacity:0.7;stroke:#4cc9f0;stroke-opacity:0.7;stroke-width:0.5;"/>
    <path clip-path="url(#p5e33ce1e2c)" d="M 300.245069 299.411876 
C 300.586033 299.411876 300.913077 299.27641 301.154174 299.035312 
C 301.395272 298.794215 301.530738 298.467171 301.530738 298.126208 
C 301.530738 297.785244 301.395272 297.4582 301.154174 297.217103 
C 300.913077 296.976005 300.586033 296.840539 300.245069 296.840539 
C 299.904106 296.840539 299.577062 296.976005 299.335965 297.217103 
C 299.094867 297.4582 298.959401 297.785244 298.959401 298.126208 
C 298.959401 298.467171 299.094867 298.794215 299.335965 299.035312 
C 299.577062 299.27641 299.904106 299.411876 300.245069 299.411876 
z
" style="fill:#4cc9f0;fill-opacity:0.7;stroke:#4cc9f0;stroke-opacity:0.7;stroke-width:0.5;"/>
   </g>
   <g id="patch_3">
    <path d="M 49.524125 357.12 
L 49.524125 7.2 
" style="fill:none;stroke:#ffffff;stroke-linecap:square;stroke-linejoin:miter;stroke-width:3;"/>
   </g>
   <g id="patch_4">
    <path d="M 425.364125 357.12 
L 425.364125 7.2 
" style="fill:none;stroke:#ffffff;stroke-linecap:square;stroke-linejoin:miter;stroke-width:3;"/>
   </g>
   <g id="patch_5">
    <path d="M 49.524125 357.12 
L 425.364125 357.12 
" style="fill:none;stroke:#ffffff;stroke-linecap:square;stroke-linejoin:miter;stroke-width:3;"/>
   </g>
   <g id="patch_6">
    <path d="M 49.524125 7.2 
L 425.364125 7.2 
" style="fill:none;stroke:#ffffff;stroke-linecap:square;stroke-linejoin:miter;stroke-width:3;"/>
   </g>
   <g id="legend_1">
    <g id="PathCollection_2">
     <defs>
      <path d="M 0 9.995743 
C 2.650902 9.995743 5.193587 8.942529 7.068058 7.068058 
C 8.942529 5.193587 9.995743 2.650902 9.995743 0 
C 9.995743 -2.650902 8.942529 -5.193587 7.068058 -7.068058 
C 5.193587 -8.942529 2.650902 -9.995743 0 -9.995743 
C -2.650902 -9.995743 -5.193587 -8.942529 -7.068058 -7.068058 
C -8.942529 -5.193587 -9.995743 -2.650902 -9.995743 0 
C -9.995743 2.650902 -8.942529 5.193587 -7.068058 7.068058 
C -5.193587 8.942529 -2.650902 9.995743 0 9.995743 
z
" id="m887b5ff0be" style="stroke:#4cc9f0;stroke-opacity:0.7;stroke-width:0.5;"/>
     </defs>
     <g>
      <use style="fill:#4cc9f0;fill-opacity:0.7;stroke:#4cc9f0;stroke-opacity:0.7;stroke-width:0.5;" x="76.124125" xlink:href="#m887b5ff0be" y="26.145938"/>
     </g>
    </g>
    <g id="text_11">
     <!-- $\gamma$ -->
     <defs>
      <path d="M 23.296875 46.09375 
L 28.71875 12.3125 
L 54 54.6875 
L 63.53125 54.6875 
L 30.8125 0 
L 26.765625 -20.796875 
L 17.78125 -20.796875 
L 21.828125 0 
L 15.4375 40.828125 
Q 14.453125 46.96875 9.8125 46.96875 
L 7.421875 46.96875 
L 8.890625 54.6875 
L 12.3125 54.6875 
Q 21.921875 54.6875 23.296875 46.09375 
z
" id="DejaVuSans-Oblique-947"/>
     </defs>
     <g transform="translate(101.324125 29.820938)scale(0.14 -0.14)">
      <use transform="translate(0 0.3125)" xlink:href="#DejaVuSans-Oblique-947"/>
     </g>
    </g>
   </g>
  </g>
 </g>
 <defs>
  <clipPath id="p5e33ce1e2c">
   <rect height="349.92" width="375.84" x="49.524125" y="7.2"/>
  </clipPath>
 </defs>
</svg>
